<svg xmlns="http://www.w3.org/2000/svg" viewBox="0 0 24 24">
<path d="M8,8.971C8.265,8.971 8.52,8.865 8.707,8.678L11,6.385L11,15.971C11,16.52 11.451,16.971 12,16.971C12.549,16.971 13,16.52 13,15.971L13,6.385L15.293,8.678C15.479,8.858 15.729,8.959 15.988,8.959C16.536,8.959 16.988,8.507 16.988,7.959C16.988,7.7 16.887,7.45 16.707,7.264L12.707,3.264C12.614,3.171 12.503,3.097 12.381,3.047C12.136,2.946 11.862,2.946 11.617,3.047C11.495,3.097 11.384,3.171 11.291,3.264L7.291,7.264C7.104,7.451 6.998,7.706 6.998,7.971C6.998,8.52 7.45,8.971 7.998,8.971C7.999,8.971 7.999,8.971 8,8.971Z"/>
<path d="M20,16.2C19.561,16.2 19.2,16.561 19.2,17L19.2,19.2L4.8,19.2L4.8,17C4.8,16.561 4.439,16.2 4,16.2C3.561,16.2 3.2,16.561 3.2,17L3.2,20C3.2,20.439 3.561,20.8 4,20.8L20,20.8C20.439,20.8 20.8,20.439 20.8,20L20.8,17C20.8,16.561 20.439,16.2 20,16.2Z"/>
</svg>
