<svg xmlns="http://www.w3.org/2000/svg" viewBox="0 0 24 24">
    <path d="M16.707,8.293L12.707,4.293C12.614,4.2 12.503,4.126 12.381,4.076C12.136,3.975 11.862,3.975 11.617,4.076C11.495,4.126 11.384,4.2 11.291,4.293L7.291,8.293C7.104,8.481 6.998,8.735 6.998,9C6.998,9.549 7.45,10.001 7.999,10.001C8.265,10.001 8.519,9.895 8.707,9.707L11,7.414L11,19C11,19.549 11.451,20 12,20C12.549,20 13,19.549 13,19L13,7.414L15.293,9.707C15.479,9.887 15.729,9.988 15.988,9.988C16.536,9.988 16.988,9.536 16.988,8.988C16.988,8.729 16.887,8.479 16.707,8.293Z" />
</svg>
