<svg xmlns="http://www.w3.org/2000/svg" viewBox="0 0 24 24">
<path d="M18.654,9.7C18.649,9.644 18.638,9.588 18.621,9.534C18.579,9.441 18.527,9.354 18.465,9.273C18.429,9.236 18.39,9.203 18.348,9.173C18.321,9.146 18.291,9.122 18.26,9.1C18.245,9.091 18.229,9.091 18.214,9.083C18.186,9.072 18.157,9.062 18.128,9.053C18.063,9.031 17.996,9.018 17.928,9.013C17.912,9.01 17.9,9 17.875,9L13.424,9L13.424,5.29L13.424,5.168L13.424,2.268C13.42,2.242 13.415,2.216 13.408,2.19C13.404,2.125 13.391,2.061 13.37,2C13.355,1.959 13.336,1.92 13.314,1.883C13.286,1.832 13.253,1.785 13.214,1.742C13.181,1.705 13.144,1.672 13.104,1.642C13.08,1.617 13.054,1.594 13.027,1.573C13.01,1.563 12.992,1.563 12.974,1.554C12.927,1.533 12.877,1.515 12.827,1.503C12.776,1.487 12.723,1.477 12.669,1.472C12.652,1.467 12.635,1.464 12.618,1.461C12.584,1.465 12.551,1.472 12.518,1.481C12.465,1.486 12.413,1.496 12.363,1.512C12.313,1.53 12.264,1.553 12.219,1.581C12.178,1.604 12.139,1.63 12.103,1.659C12.058,1.699 12.018,1.744 11.983,1.793C11.963,1.813 11.945,1.834 11.927,1.856L5.427,12.89C5.418,12.906 5.418,12.924 5.41,12.94C5.388,12.988 5.371,13.038 5.358,13.09C5.342,13.14 5.332,13.192 5.327,13.245C5.325,13.294 5.328,13.343 5.336,13.392C5.341,13.446 5.352,13.499 5.368,13.551C5.385,13.598 5.407,13.643 5.432,13.686C5.456,13.731 5.485,13.774 5.518,13.813C5.554,13.853 5.594,13.889 5.637,13.92C5.66,13.944 5.684,13.966 5.71,13.986C5.731,13.998 5.753,14.003 5.775,14.013C5.797,14.023 5.818,14.032 5.841,14.041C5.929,14.075 6.022,14.094 6.116,14.096L10.416,14.096L10.416,21.928C10.421,21.982 10.432,22.035 10.449,22.087C10.46,22.189 10.5,22.285 10.564,22.365C10.58,22.392 10.598,22.418 10.617,22.443C10.665,22.496 10.72,22.543 10.781,22.581C10.802,22.595 10.815,22.617 10.838,22.629C10.845,22.629 10.854,22.629 10.861,22.635C10.97,22.694 11.092,22.726 11.216,22.728L11.239,22.728C11.401,22.724 11.557,22.667 11.683,22.565C11.75,22.514 11.809,22.454 11.858,22.385C11.877,22.359 11.908,22.347 11.924,22.318L17.525,12.1L17.925,11.366L17.925,11.36L18.571,10.18C18.575,10.168 18.579,10.156 18.582,10.144C18.62,10.044 18.647,9.941 18.662,9.835C18.662,9.821 18.67,9.81 18.67,9.796C18.667,9.764 18.662,9.732 18.654,9.7ZM16.287,11.036L12.025,18.8L12.025,13.3C12.025,12.861 11.664,12.5 11.225,12.5L7.525,12.5L11.825,5.2L11.825,9.8C11.825,10.239 12.186,10.6 12.625,10.6L16.525,10.6L16.287,11.036Z"/>
</svg>
