<svg xmlns="http://www.w3.org/2000/svg" viewBox="0 0 24 24">
<path class="cls-2" d="M17.777,21.8c-2.473,0-6.246-2.179-9.825-5.758C4,12.089,1.632,7.552,2.326,5.258c.353-1.167,2.3-2.673,3.557-2.988A1.707,1.707,0,0,1,7.6,2.649a11.36,11.36,0,0,1,2.879,4.862,2.123,2.123,0,0,1-.852,2.006l-.156.151c-.059.059-.166.158-.289.268-.053.048-.11.1-.164.148a29.171,29.171,0,0,0,4.894,4.895c.052-.056.1-.115.152-.17.109-.12.206-.225.265-.283l.149-.155a2.14,2.14,0,0,1,2.006-.855,11.367,11.367,0,0,1,4.864,2.88,1.717,1.717,0,0,1,.379,1.716v0a6.075,6.075,0,0,1-2.987,3.557A3.37,3.37,0,0,1,17.777,21.8ZM6.469,3.78c.012.015-.062.008-.2.042a5,5,0,0,0-2.414,1.9c-.444,1.47,1.549,5.515,5.226,9.193,3.994,3.992,7.714,5.679,9.192,5.226a4.882,4.882,0,0,0,1.9-2.416.532.532,0,0,0,.02-.226,9.921,9.921,0,0,0-4.021-2.41c-.113-.029-.221.048-.528.378-.067.071-.132.139-.2.2-.045.044-.116.125-.2.215-.469.519-.7.78-1.085.825-.32.032-.98.1-3.995-2.913C7.182,10.8,7.255,10.146,7.29,9.833c.041-.382.3-.617.819-1.085.092-.082.174-.155.218-.2.065-.065.134-.13.205-.2.327-.306.4-.41.378-.527A9.891,9.891,0,0,0,6.469,3.78ZM14.19,15.132Z"/></svg>