<svg xmlns="http://www.w3.org/2000/svg" viewBox="0 0 24 24">
<path d="M19.993,6.8C19.996,6.587 19.914,6.381 19.765,6.228L14.765,1.228C14.61,1.076 14.398,0.993 14.181,1L14.174,1L6,1C4.904,1.003 4.003,1.904 4,3L4,21C4.003,22.096 4.904,22.997 6,23L18,23C19.096,22.997 19.997,22.096 20,21L20,6.811L19.993,6.8ZM17.268,6L15,6L15,3.73L17.268,6ZM18,21.4L6,21.4C5.782,21.397 5.603,21.218 5.6,21L5.6,3C5.603,2.782 5.782,2.603 6,2.6L13.4,2.6L13.4,6.8C13.4,7.239 13.761,7.6 14.2,7.6L18.4,7.6L18.4,21C18.397,21.218 18.218,21.397 18,21.4Z"/>
</svg>
