<svg xmlns="http://www.w3.org/2000/svg" viewBox="0 0 24 24">
<path d="M20,16.228C19.561,16.228 19.2,16.589 19.2,17.028L19.2,19.228L4.8,19.228L4.8,17.028C4.8,16.589 4.439,16.228 4,16.228C3.561,16.228 3.2,16.589 3.2,17.028L3.2,20.028C3.2,20.467 3.561,20.828 4,20.828L20,20.828C20.439,20.828 20.8,20.467 20.8,20.028L20.8,17.028C20.8,16.589 20.439,16.228 20,16.228Z" />
<path d="M11.292,16.733C11.48,16.921 11.734,17.027 12,17.027C12.266,17.027 12.52,16.921 12.708,16.733L16.708,12.733C16.888,12.547 16.989,12.297 16.989,12.038C16.989,11.49 16.537,11.038 15.989,11.038C15.73,11.038 15.48,11.139 15.294,11.319L13,13.613L13,4.027C13,3.478 12.549,3.027 12,3.027C11.451,3.027 11,3.478 11,4.027L11,13.613L8.707,11.32C8.521,11.14 8.271,11.039 8.012,11.039C7.464,11.039 7.012,11.491 7.012,12.039C7.012,12.298 7.113,12.548 7.293,12.734L11.292,16.733Z" />
</svg>
