<svg xmlns="http://www.w3.org/2000/svg" viewBox="0 0 24 24">
<path d="M14.981,11.731C16.129,10.821 16.8,9.434 16.8,7.969C16.8,5.336 14.633,3.169 12,3.169C9.366,3.169 7.2,5.336 7.2,7.969C7.2,9.434 7.87,10.821 9.018,11.731C5.54,12.986 3.206,16.303 3.2,20C3.2,20.439 3.561,20.8 4,20.8C4.439,20.8 4.8,20.439 4.8,20C4.807,16.483 7.387,13.46 10.859,12.9L10.84,12.929L11.501,15.059L10,20.822L14,20.822L12.5,15.058L13.163,12.927L13.14,12.9C16.612,13.459 19.193,16.483 19.2,20C19.2,20.439 19.561,20.8 20,20.8C20.439,20.8 20.8,20.439 20.8,20C20.793,16.303 18.459,12.985 14.981,11.731ZM8.8,8C8.8,6.245 10.245,4.8 12,4.8C13.755,4.8 15.2,6.245 15.2,8C15.2,9.755 13.755,11.2 12,11.2C10.245,11.2 8.8,9.755 8.8,8Z" />
</svg>
