<svg xmlns="http://www.w3.org/2000/svg" viewBox="0 0 24 24">
<path d="M14.982,11.731C16.13,10.821 16.801,9.434 16.801,7.969C16.801,5.336 14.634,3.169 12,3.169C9.367,3.169 7.2,5.336 7.2,7.969C7.2,9.434 7.871,10.821 9.019,11.731C5.541,12.985 3.207,16.303 3.2,20C3.2,20.439 3.561,20.8 4,20.8C4.439,20.8 4.8,20.439 4.8,20C4.8,16.05 8.05,12.8 12,12.8C15.95,12.8 19.2,16.05 19.2,20C19.2,20.439 19.561,20.8 20,20.8C20.439,20.8 20.8,20.439 20.8,20C20.794,16.303 18.46,12.986 14.982,11.731ZM8.8,8C8.8,6.245 10.245,4.8 12,4.8C13.755,4.8 15.2,6.245 15.2,8C15.2,9.755 13.755,11.2 12,11.2C10.245,11.2 8.8,9.755 8.8,8Z" />
</svg>
