<svg xmlns="http://www.w3.org/2000/svg" viewBox="0 0 24 24">
    <g transform="matrix(0.0234375,0,0,0.0234375,-0.0921875,2.36719)">
        <path d="M320,473C419,473 504,554 508,661L555,661C550,562 490,478 410,443C443,418 461,380 461,332C461,256 397,192 320,192C243,192 179,256 179,332C179,375 201,418 230,443C150,478 90,562 85,661L132,661C136,554 221,473 320,473ZM226,332C226,281 269,239 320,239C371,239 414,281 414,332C414,384 371,426 320,426C269,426 226,384 226,332ZM794,448C827,421 845,384 845,337C845,260 781,196 704,196C627,196 563,260 563,337C563,380 585,421 614,448C589,460 563,478 542,495C546,501 550,507 555,513C559,520 563,526 567,533C602,498 648,473 700,473C797,473 883,554 887,661L939,661C934,568 874,481 794,448ZM704,431C653,431 610,388 610,337C610,285 653,243 704,243C755,243 798,285 798,337C798,388 755,431 704,431Z"/>
    </g>
</svg>
