<svg xmlns="http://www.w3.org/2000/svg" viewBox="0 0 24 24">
<path d="M3.937,20.794C3.526,20.764 3.2,20.417 3.2,20C3.206,16.303 5.54,12.986 9.018,11.731C7.87,10.821 7.2,9.434 7.2,7.969C7.2,5.336 9.366,3.169 12,3.169C14.633,3.169 16.8,5.336 16.8,7.969C16.8,9.434 16.129,10.821 14.981,11.731C18.466,12.995 20.793,16.308 20.8,20C20.8,20.434 20.446,20.792 20.015,20.798L20.015,20.799L20.014,20.799L20,20.8L19.986,20.799L13.994,20.8L12.5,15.058L13.137,12.9L10.859,12.9L10.844,12.903L11.501,15.059L10.005,20.802L3.936,20.803L3.937,20.794Z"/>
</svg>
