<svg xmlns="http://www.w3.org/2000/svg" viewBox="0 0 24 24">
<path class="cls-2" d="M20.584,10.28l-2.617-.523c-.052-.137-.107-.273-.168-.406l1.484-2.2a.518.518,0,0,0-.063-.655L17.507,4.779a.518.518,0,0,0-.653-.065l-2.22,1.48c-.133-.06-.269-.115-.406-.167l-.51-2.609A.517.517,0,0,0,13.21,3H10.788a.518.518,0,0,0-.508.416L9.757,6.033c-.132.05-.263.1-.391.161l-2.22-1.48a.518.518,0,0,0-.653.065L4.779,6.493a.518.518,0,0,0-.065.653l1.48,2.22c-.058.128-.111.259-.161.391l-2.617.523A.518.518,0,0,0,3,10.788v2.424a.518.518,0,0,0,.416.508l2.617.523c.05.132.1.263.161.391l-1.48,2.22a.518.518,0,0,0,.065.653l1.714,1.714a.518.518,0,0,0,.653.065l2.22-1.48c.128.058.259.111.391.161l.523,2.617a.518.518,0,0,0,.508.416h2.424a.518.518,0,0,0,.508-.416l.523-2.617c.137-.052.273-.107.4-.168l2.205,1.484a.518.518,0,0,0,.655-.063l1.713-1.713a.517.517,0,0,0,.064-.653l-1.479-2.22c.06-.133.115-.269.166-.406l2.61-.51A.517.517,0,0,0,21,13.21V10.788A.518.518,0,0,0,20.584,10.28ZM12,15a3,3,0,1,1,3-3A3,3,0,0,1,12,15Z"/></svg>