<svg xmlns="http://www.w3.org/2000/svg" viewBox="0 0 24 24"><path d="M12,1A11,11,0,1,0,23,12,11,11,0,0,0,12,1ZM9.36206,17.02313a4.5365,4.5365,0,0,1,0-9.073,4.34257,4.34257,0,0,1,3.03491,1.184l-1.28833,1.25207a2.49359,2.49359,0,0,0-1.74658-.67139,2.7768,2.7768,0,0,0,0,5.55268,2.3506,2.3506,0,0,0,2.49512-1.91437H9.35767V11.661h4.24609a3.95065,3.95065,0,0,1,.11353.93A4.18542,4.18542,0,0,1,9.36206,17.02313Zm9.74072-3.88568H17.79907v1.30377H16.50854V13.13745H15.20483v-1.2904h1.30371v-1.0448l.0022-.259h1.28833v1.30378h1.30371Z"/></svg>