<svg xmlns="http://www.w3.org/2000/svg" viewBox="0 0 24 24"><circle cx="12" cy="12" r="2"/><path class="cls-2" d="M16.67725,8.46136a1.98648,1.98648,0,0,0-1.13868-1.13873,3.32068,3.32068,0,0,0-1.114-.2066c-.63281-.02887-.82251-.035-2.42456-.035s-1.79175.00611-2.42456.035a3.32068,3.32068,0,0,0-1.114.2066A1.98648,1.98648,0,0,0,7.32275,8.46136,3.3201,3.3201,0,0,0,7.116,9.5755c-.02881.63263-.03492.82239-.03492,2.4245s.00611,1.79181.03492,2.4245a3.32046,3.32046,0,0,0,.20678,1.11414,1.98616,1.98616,0,0,0,1.13868,1.13867,3.31756,3.31756,0,0,0,1.114.2066c.63257.02887.82251.035,2.42456.035s1.792-.0061,2.42456-.035a3.31756,3.31756,0,0,0,1.114-.2066,1.98616,1.98616,0,0,0,1.13868-1.13867A3.32046,3.32046,0,0,0,16.884,14.4245c.02881-.63269.03492-.82245.03492-2.4245s-.00611-1.79187-.03492-2.42456A3.32,3.32,0,0,0,16.67725,8.46136ZM12,15.08105A3.08109,3.08109,0,1,1,15.08105,12,3.081,3.081,0,0,1,12,15.08105Zm3.20288-5.5639a.72.72,0,1,1,.72-.72A.71992.71992,0,0,1,15.20288,9.51715Z"/><path class="cls-2" d="M12,1A11,11,0,1,0,23,12,11,11,0,0,0,12,1Zm5.96387,13.47375a4.40563,4.40563,0,0,1-.27881,1.45649A3.06878,3.06878,0,0,1,15.93018,17.685a4.40375,4.40375,0,0,1-1.4563.27887C13.83374,17.9931,13.62939,18,12,18s-1.83374-.0069-2.47388-.03613a4.40375,4.40375,0,0,1-1.4563-.27887,3.06878,3.06878,0,0,1-1.75488-1.75476,4.40563,4.40563,0,0,1-.27881-1.45649C6.00684,13.8338,6,13.62952,6,12s.00684-1.83386.03613-2.47382a4.40554,4.40554,0,0,1,.27881-1.45642A3.06832,3.06832,0,0,1,8.06982,6.315a4.40358,4.40358,0,0,1,1.4563-.27893C10.16626,6.0069,10.37061,6,12,6s1.83374.0069,2.47388.03607a4.40358,4.40358,0,0,1,1.4563.27893,3.06832,3.06832,0,0,1,1.75488,1.75476,4.40554,4.40554,0,0,1,.27881,1.45642c.02929.64.03613.8443.03613,2.47382S17.99316,13.8338,17.96387,14.47375Z"/></svg>