<svg xmlns="http://www.w3.org/2000/svg" viewBox="0 0 24 24">
<path d="M20.9458,8.28931a6.60833,6.60833,0,0,0-.41821-2.1847,4.602,4.602,0,0,0-2.63233-2.63214,6.60526,6.60526,0,0,0-2.18457-.41833C14.75073,3.01031,14.44434,3,12,3s-2.75073.01031-3.71069.05414a6.60526,6.60526,0,0,0-2.18457.41833A4.602,4.602,0,0,0,3.47241,6.10461a6.60833,6.60833,0,0,0-.41821,2.1847C3.01025,9.24927,3,9.55573,3,12s.01025,2.75073.0542,3.71069a6.60748,6.60748,0,0,0,.41821,2.18463,4.60186,4.60186,0,0,0,2.63233,2.63221,6.6068,6.6068,0,0,0,2.18457.41833C9.24927,20.98962,9.55566,21,12,21s2.75073-.01038,3.71069-.05414a6.6068,6.6068,0,0,0,2.18457-.41833,4.60186,4.60186,0,0,0,2.63233-2.63221,6.60748,6.60748,0,0,0,.41821-2.18463c.044-.96.0542-1.26648.0542-3.71069S20.98975,9.24927,20.9458,8.28931Zm-1.61987,7.34747a4.98571,4.98571,0,0,1-.30982,1.67114A2.98073,2.98073,0,0,1,17.30786,19.016a4.97862,4.97862,0,0,1-1.67114.30994c-.94873.04327-1.2334.05243-3.63672.05243s-2.688-.00916-3.63672-.05243A4.97862,4.97862,0,0,1,6.69214,19.016a2.98073,2.98073,0,0,1-1.70825-1.70807,4.98571,4.98571,0,0,1-.30982-1.67114c-.04321-.949-.05249-1.2337-.05249-3.63678s.00928-2.68774.05249-3.63678A4.98581,4.98581,0,0,1,4.98389,6.692,2.98118,2.98118,0,0,1,6.69214,4.984a4.9806,4.9806,0,0,1,1.67114-.30988C9.31226,4.6308,9.59692,4.62158,12,4.62158s2.68774.00922,3.63672.05249a4.9806,4.9806,0,0,1,1.67114.30988A2.98118,2.98118,0,0,1,19.01611,6.692a4.98581,4.98581,0,0,1,.30982,1.6712c.04321.949.05249,1.23364.05249,3.63678S19.36914,14.68774,19.32593,15.63678ZM12,7.37836A4.62161,4.62161,0,1,0,16.62158,12,4.62155,4.62155,0,0,0,12,7.37836ZM12,15a3,3,0,1,1,3-3A3.00007,3.00007,0,0,1,12,15Zm5.88428-7.80426a1.08008,1.08008,0,1,1-1.08008-1.08A1.08009,1.08009,0,0,1,17.88428,7.19574Z"/></svg>