<svg xmlns="http://www.w3.org/2000/svg" viewBox="0 0 24 24">
    <path d="M22.224,9.628C22.125,9.323 21.851,9.105 21.531,9.078L15.207,8.535L12.737,2.688C12.593,2.415 12.308,2.244 12,2.244C11.692,2.244 11.407,2.415 11.263,2.688L8.793,8.535L2.469,9.078C2.058,9.114 1.74,9.463 1.74,9.875C1.74,10.106 1.84,10.326 2.014,10.478L6.814,14.635L5.372,20.818C5.299,21.131 5.422,21.459 5.682,21.647C5.94,21.837 6.29,21.852 6.564,21.685L12,18.407L17.436,21.685C17.71,21.85 18.059,21.835 18.318,21.647C18.578,21.459 18.701,21.131 18.628,20.818L17.19,14.637L21.99,10.48C22.232,10.269 22.324,9.933 22.224,9.628Z" />
</svg>
