<svg xmlns="http://www.w3.org/2000/svg" viewBox="0 0 24 24">
<path d="M21.4,4.7a8.24731,8.24731,0,0,1-2.6,1,3.99112,3.99112,0,0,0-3-1.3,4.14044,4.14044,0,0,0-4.1,4.2,3.75133,3.75133,0,0,0,.1,1A11.76171,11.76171,0,0,1,3.4,5.1a3.93564,3.93564,0,0,0-.6,2.1,4.21843,4.21843,0,0,0,1.8,3.5,4.13619,4.13619,0,0,1-1.9-.5v.1A4.18356,4.18356,0,0,0,6,14.4a3.74953,3.74953,0,0,1-1.1.1,2.20185,2.20185,0,0,1-.8-.1,3.9603,3.9603,0,0,0,3.8,2.9,8.32409,8.32409,0,0,1-5.1,1.8,3.40193,3.40193,0,0,1-1-.1,11.83333,11.83333,0,0,0,6.5,2C15.8,21,20,14.6,20,9V8.5a7.03251,7.03251,0,0,0,2-2.2,8.43321,8.43321,0,0,1-2.4.7,4.08851,4.08851,0,0,0,1.8-2.3"/></svg>