<svg xmlns="http://www.w3.org/2000/svg" viewBox="0 0 24 24">
        <path d="M7.3,8.563C7.307,8.563 7.316,8.563 7.323,8.571L12,11.251L16.676,8.571C16.684,8.571 16.692,8.571 16.7,8.563L16.7,8.3L7.3,8.3L7.3,8.563Z" />
        <path d="M12,12.651C11.886,12.651 11.774,12.621 11.676,12.564L7.3,10.055L7.3,15.7L16.7,15.7L16.7,10.055L12.323,12.564C12.225,12.621 12.113,12.651 12,12.651Z" />
        <path d="M12,1C5.966,1 1,5.966 1,12C1,18.034 5.966,23 12,23C18.034,23 23,18.034 23,12C23,5.966 18.034,1 12,1ZM18,16C18,16.549 17.549,17 17,17L7,17C6.451,17 6,16.549 6,16L6,8C6,7.451 6.451,7 7,7L17,7C17.549,7 18,7.451 18,8L18,16Z" />
</svg>
