<svg xmlns="http://www.w3.org/2000/svg" viewBox="0 0 24 24" style="fill-rule:evenodd;clip-rule:evenodd;stroke-linejoin:round;stroke-miterlimit:1.41421;"><path d="M4.929,7l0.142,0l2.046,5l-4.235,0l2.047,-5Zm-4.619,9.963c0.255,0.103 0.548,-0.018 0.653,-0.274l1.512,-3.694c0.009,0 0.016,0.005 0.025,0.005l5,0c0.009,0 0.016,-0.005 0.025,-0.005l1.512,3.694c0.079,0.194 0.266,0.311 0.463,0.311c0.063,0 0.127,-0.012 0.189,-0.037c0.256,-0.105 0.378,-0.397 0.274,-0.652l-4.094,-10c-0.077,-0.188 -0.26,-0.311 -0.463,-0.311l-0.812,0c-0.204,0 -0.386,0.123 -0.463,0.311l-4.094,10c-0.105,0.255 0.018,0.547 0.273,0.652" /><path d="M14.5,13c0.276,0 0.5,-0.224 0.5,-0.5c0,-0.276 -0.224,-0.5 -0.5,-0.5l-3,0c-0.276,0 -0.5,0.224 -0.5,0.5c0,0.276 0.224,0.5 0.5,0.5l3,0Z" /><path d="M23.5,16l-6.04,0l6.45,-9.213c0.107,-0.153 0.12,-0.352 0.033,-0.517c-0.086,-0.166 -0.256,-0.27 -0.443,-0.27l-7,0c-0.276,0 -0.5,0.224 -0.5,0.5c0,0.276 0.224,0.5 0.5,0.5l6.04,0l-6.45,9.213c-0.107,0.153 -0.12,0.352 -0.033,0.517c0.086,0.166 0.256,0.27 0.443,0.27l7,0c0.276,0 0.5,-0.224 0.5,-0.5c0,-0.276 -0.224,-0.5 -0.5,-0.5" /></svg>