<svg xmlns="http://www.w3.org/2000/svg" viewBox="0 0 24 24" style="fill-rule:evenodd;clip-rule:evenodd;stroke-linejoin:round;stroke-miterlimit:1.41421;"><path d="M11.5,17c-2.481,0 -4.5,-2.243 -4.5,-5c0,-2.757 2.019,-5 4.5,-5c2.481,0 4.5,2.243 4.5,5c0,2.757 -2.019,5 -4.5,5m0.643,-17c-3.431,0 -6.532,1.184 -8.732,3.332c-2.2,2.148 -3.411,5.179 -3.411,8.531c0,3.419 1.206,6.513 3.396,8.709c2.202,2.211 5.309,3.428 8.747,3.428c2.278,0 4.768,-0.497 6.661,-1.33c0.253,-0.111 0.367,-0.406 0.256,-0.659c-0.111,-0.253 -0.403,-0.367 -0.659,-0.257c-1.772,0.78 -4.111,1.246 -6.258,1.246c-3.17,0 -6.025,-1.112 -8.039,-3.133c-2.001,-2.009 -3.104,-4.85 -3.104,-8.004c0,-3.081 1.104,-5.857 3.109,-7.816c2.013,-1.965 4.866,-3.047 8.034,-3.047c3.064,0 5.835,0.991 7.804,2.791c1.969,1.801 3.053,4.334 3.053,7.134c0,3.69 -1.374,6.075 -3.5,6.075c-0.904,0 -2.382,-0.785 -2.5,-2.863l0,-7.726c0,-0.276 -0.224,-0.5 -0.5,-0.5c-0.276,0 -0.5,0.224 -0.5,0.5l0,2.143c-0.996,-1.543 -2.642,-2.554 -4.5,-2.554c-3.033,0 -5.5,2.691 -5.5,6c0,3.309 2.467,6 5.5,6c1.962,0 3.687,-1.126 4.661,-2.817c0.493,1.837 1.98,2.817 3.339,2.817c2.076,0 4.5,-1.853 4.5,-7.075c0,-3.084 -1.2,-5.88 -3.378,-7.872c-2.154,-1.969 -5.165,-3.053 -8.479,-3.053" /></svg>