<svg xmlns="http://www.w3.org/2000/svg" viewBox="0 0 24 24" style="fill-rule:evenodd;clip-rule:evenodd;stroke-linejoin:round;stroke-miterlimit:1.41421;"><path d="M4.198,13.51c-0.255,0.159 -0.559,0.135 -0.769,0.088c-0.648,-0.15 -1.353,-0.726 -1.838,-1.503c-0.741,-1.188 -0.799,-2.546 -0.127,-2.967c0.149,-0.093 0.314,-0.124 0.467,-0.124c0.11,0 0.214,0.017 0.302,0.036c0.649,0.151 1.353,0.726 1.838,1.503c0.728,1.168 0.788,2.554 0.127,2.967m-1.74,-5.443c-0.566,-0.132 -1.093,-0.057 -1.524,0.214c-1.17,0.732 -1.254,2.64 -0.192,4.343c0.631,1.01 1.551,1.738 2.462,1.948c0.182,0.042 0.359,0.063 0.53,0.063c0.363,0 0.701,-0.094 0.994,-0.277c1.17,-0.732 1.254,-2.64 0.191,-4.344c-0.63,-1.01 -1.55,-1.737 -2.461,-1.947" /><path d="M9.171,9.535c-0.479,0.11 -1.009,-0.068 -1.49,-0.504c-0.531,-0.48 -0.928,-1.2 -1.118,-2.026c-0.372,-1.614 0.195,-3.179 1.238,-3.42c0.097,-0.023 0.191,-0.032 0.283,-0.032c0.344,0 0.646,0.137 0.857,0.268c0.688,0.43 1.236,1.287 1.468,2.293c0.372,1.612 -0.195,3.179 -1.238,3.421m0.3,-6.562c-0.613,-0.382 -1.268,-0.507 -1.896,-0.363c-1.597,0.369 -2.488,2.442 -1.987,4.619c0.236,1.024 0.741,1.927 1.422,2.543c0.577,0.523 1.226,0.796 1.872,0.796c0.172,0 0.344,-0.019 0.514,-0.058l0.001,0c1.624,-0.377 2.497,-2.407 1.987,-4.621c-0.291,-1.259 -1.006,-2.349 -1.913,-2.916" /><path d="M17.158,19.89c-0.386,0.441 -1.032,1.181 -3.958,-0.469c-0.229,-0.124 -0.712,-0.292 -1.23,-0.317l0,-0.004c-0.033,0.003 -0.06,0 -0.089,0.001c-0.213,-0.004 -0.421,0.017 -0.623,0.074c-0.226,0.051 -0.435,0.128 -0.622,0.23c-2.917,1.645 -3.567,0.906 -3.915,0.515c-0.885,-1.321 -1.132,-2.609 0.354,-4.919c1.623,-2.189 3.46,-2.431 5.056,-2.487c0.032,0.002 2.73,-0.064 4.616,2.48c1.505,2.336 1.259,3.625 0.411,4.896m-5.062,-8.376c-1.32,0.046 -3.779,0.132 -5.843,2.919c-1.536,2.386 -1.641,4.137 -0.323,6.095c0.813,0.931 2.008,1.546 5.19,-0.248c0.097,-0.053 0.211,-0.095 0.337,-0.124l0.003,0.005c0.015,-0.006 0.031,-0.012 0.048,-0.017c0.109,-0.023 0.227,-0.037 0.35,-0.042c0.328,0.006 0.695,0.106 0.857,0.194c1.48,0.833 2.529,1.149 3.315,1.149c0.908,0 1.463,-0.421 1.92,-0.948c1.279,-1.907 1.175,-3.659 -0.38,-6.072c-2.213,-2.986 -5.338,-2.906 -5.474,-2.911" /><path d="M22.409,12.095c-0.485,0.777 -1.188,1.353 -1.837,1.503c-0.209,0.047 -0.513,0.072 -0.768,-0.088l-0.001,0c-0.661,-0.413 -0.602,-1.8 0.127,-2.967c0.485,-0.777 1.189,-1.352 1.837,-1.503c0.088,-0.019 0.193,-0.036 0.303,-0.036c0.153,0 0.318,0.031 0.466,0.124c0.673,0.421 0.615,1.78 -0.127,2.967m0.658,-3.814c-0.432,-0.27 -0.959,-0.346 -1.524,-0.214c-0.912,0.21 -1.832,0.937 -2.462,1.947c-1.063,1.704 -0.979,3.612 0.192,4.344c0.293,0.183 0.631,0.277 0.993,0.277c0.172,0 0.35,-0.021 0.531,-0.063c0.911,-0.21 1.831,-0.939 2.461,-1.948c1.063,-1.703 0.979,-3.611 -0.191,-4.343" /><path d="M17.438,7.005c-0.232,1.007 -0.781,1.863 -1.468,2.293c-0.267,0.166 -0.681,0.345 -1.14,0.236c-1.043,-0.241 -1.61,-1.806 -1.238,-3.42c0.19,-0.826 0.588,-1.546 1.118,-2.026c0.389,-0.352 0.808,-0.536 1.207,-0.536c0.095,0 0.19,0.011 0.283,0.032c1.043,0.241 1.61,1.809 1.238,3.421m-1.013,-4.396c-0.806,-0.183 -1.654,0.077 -2.386,0.738c-0.681,0.616 -1.185,1.519 -1.422,2.543c-0.51,2.215 0.363,4.244 1.988,4.619c0.169,0.039 0.34,0.059 0.512,0.059c0.466,0 0.935,-0.143 1.383,-0.422c0.907,-0.567 1.622,-1.657 1.913,-2.916c0.502,-2.177 -0.39,-4.25 -1.988,-4.621" /></svg>