<svg xmlns="http://www.w3.org/2000/svg" viewBox="0 0 24 24" style="fill-rule:evenodd;clip-rule:evenodd;stroke-linejoin:round;stroke-miterlimit:1.41421;"><path d="M12,1.207l7.106,5.852l-14.212,0l7.106,-5.852Zm-8.5,6.852l17,0c0.211,0 0.399,-0.132 0.471,-0.331c0.071,-0.199 0.009,-0.421 -0.154,-0.555l-8.5,-7c-0.183,-0.152 -0.451,-0.152 -0.634,0l-8.5,7c-0.163,0.134 -0.225,0.356 -0.154,0.555c0.072,0.199 0.26,0.331 0.471,0.331" /><path d="M4,9.5l0,9c0,0.276 0.224,0.5 0.5,0.5c0.276,0 0.5,-0.224 0.5,-0.5l0,-9c0,-0.276 -0.224,-0.5 -0.5,-0.5c-0.276,0 -0.5,0.224 -0.5,0.5" /><path d="M8,9.5l0,9c0,0.276 0.224,0.5 0.5,0.5c0.276,0 0.5,-0.224 0.5,-0.5l0,-9c0,-0.276 -0.224,-0.5 -0.5,-0.5c-0.276,0 -0.5,0.224 -0.5,0.5" /><path d="M15,9.5l0,9c0,0.276 0.224,0.5 0.5,0.5c0.276,0 0.5,-0.224 0.5,-0.5l0,-9c0,-0.276 -0.224,-0.5 -0.5,-0.5c-0.276,0 -0.5,0.224 -0.5,0.5" /><path d="M19,9.5l0,9c0,0.276 0.224,0.5 0.5,0.5c0.276,0 0.5,-0.224 0.5,-0.5l0,-9c0,-0.276 -0.224,-0.5 -0.5,-0.5c-0.276,0 -0.5,0.224 -0.5,0.5" /><path d="M12.005,11.5c-0.276,0 -0.5,0.224 -0.5,0.5l0,6.5c0,0.276 0.224,0.5 0.5,0.5c0.276,0 0.5,-0.224 0.5,-0.5l0,-6.5c0,-0.276 -0.224,-0.5 -0.5,-0.5" /><path d="M12.359,9.15c-0.14,-0.14 -0.359,-0.19 -0.55,-0.11c-0.059,0.02 -0.109,0.06 -0.16,0.11c-0.09,0.09 -0.14,0.22 -0.14,0.35c0,0.07 0.01,0.13 0.031,0.19c0.029,0.06 0.059,0.12 0.109,0.16c0.051,0.05 0.101,0.09 0.16,0.11c0.061,0.03 0.13,0.04 0.191,0.04c0.069,0 0.13,-0.01 0.2,-0.04c0.059,-0.02 0.109,-0.06 0.159,-0.11c0.091,-0.09 0.15,-0.22 0.15,-0.35c0,-0.13 -0.059,-0.26 -0.15,-0.35" /><path d="M4,21l16,0l0,1l-16,0l0,-1Zm-0.5,2l17,0c0.276,0 0.5,-0.224 0.5,-0.5l0,-2c0,-0.276 -0.224,-0.5 -0.5,-0.5l-17,0c-0.276,0 -0.5,0.224 -0.5,0.5l0,2c0,0.276 0.224,0.5 0.5,0.5" /></svg>