<svg xmlns="http://www.w3.org/2000/svg" viewBox="0 0 24 24" style="fill-rule:evenodd;clip-rule:evenodd;stroke-linejoin:round;stroke-miterlimit:1.41421;"><path d="M23.929,11.258c-0.025,-0.045 -0.054,-0.087 -0.091,-0.122c-0.004,-0.003 -0.005,-0.009 -0.009,-0.012l-4,-3.5c-0.207,-0.181 -0.522,-0.162 -0.705,0.047c-0.182,0.208 -0.161,0.524 0.047,0.705l2.998,2.624l-4.669,0c-2.086,0 -3.925,1.071 -5,2.691l0,-11.86l2.624,2.998c0.099,0.114 0.238,0.171 0.376,0.171c0.117,0 0.235,-0.041 0.329,-0.124c0.208,-0.181 0.23,-0.497 0.047,-0.705l-3.5,-4c-0.003,-0.004 -0.008,-0.005 -0.01,-0.008c-0.092,-0.098 -0.22,-0.163 -0.366,-0.163c-0.145,0 -0.273,0.065 -0.365,0.163c-0.003,0.003 -0.008,0.004 -0.011,0.008l-3.5,4c-0.182,0.208 -0.161,0.524 0.047,0.705c0.206,0.182 0.523,0.163 0.705,-0.047l2.624,-2.998l0,11.86c-1.075,-1.62 -2.914,-2.691 -5,-2.691l-4.669,0l2.998,-2.624c0.208,-0.181 0.23,-0.497 0.047,-0.705c-0.182,-0.209 -0.499,-0.228 -0.705,-0.047l-4,3.5c-0.004,0.003 -0.005,0.009 -0.009,0.012c-0.037,0.035 -0.065,0.077 -0.09,0.122c-0.009,0.015 -0.021,0.025 -0.028,0.041c-0.027,0.062 -0.044,0.129 -0.044,0.201c0,0.072 0.017,0.14 0.044,0.201c0.007,0.016 0.019,0.027 0.028,0.041c0.025,0.045 0.053,0.087 0.09,0.122c0.004,0.003 0.005,0.009 0.009,0.012l4,3.5c0.095,0.083 0.212,0.124 0.329,0.124c0.139,0 0.278,-0.057 0.376,-0.171c0.183,-0.208 0.161,-0.523 -0.047,-0.705l-2.998,-2.624l4.669,0c2.757,0 5,2.243 5,5l0,6.5c0,0.277 0.224,0.5 0.5,0.5c0.277,0 0.5,-0.223 0.5,-0.5l0,-6.5c0,-2.757 2.243,-5 5,-5l4.669,0l-2.998,2.624c-0.208,0.182 -0.229,0.497 -0.047,0.705c0.099,0.114 0.238,0.171 0.376,0.171c0.117,0 0.235,-0.041 0.329,-0.124l4,-3.5c0.004,-0.003 0.005,-0.009 0.009,-0.012c0.037,-0.035 0.066,-0.077 0.091,-0.122c0.009,-0.014 0.021,-0.025 0.027,-0.041c0.028,-0.061 0.044,-0.129 0.044,-0.201c0,-0.072 -0.016,-0.139 -0.044,-0.201c-0.006,-0.016 -0.018,-0.026 -0.027,-0.041" /></svg>