<svg xmlns="http://www.w3.org/2000/svg" viewBox="0 0 24 24" style="fill-rule:evenodd;clip-rule:evenodd;stroke-linejoin:round;stroke-miterlimit:1.41421;"><path d="M17.047,11.204c0.257,0.016 0.433,0.078 0.521,0.186c0.137,0.167 0.13,0.501 0.097,0.813c-0.738,-0.239 -1.342,-0.761 -1.596,-1.1c0.24,0.003 0.54,0.019 0.978,0.101m0.984,2.103c0.022,0.002 0.042,0.003 0.063,0.003c0.112,0 0.223,-0.038 0.311,-0.109c0.106,-0.084 0.173,-0.206 0.186,-0.341l0.03,-0.239c0.074,-0.554 0.177,-1.311 -0.281,-1.867c-0.272,-0.33 -0.687,-0.515 -1.167,-0.54c-0.567,-0.111 -0.965,-0.111 -1.348,-0.112c-0.639,-0.001 -0.858,0.383 -0.881,0.717c-0.058,0.871 1.487,2.287 3.087,2.488" /><path d="M6.386,7.864c2.172,-2.581 4.173,-4.466 6.295,-5.932c0.259,-0.178 0.527,-0.344 0.813,-0.515c-0.037,0.563 -0.068,1.098 -0.047,1.637l0,0.021c0.032,0.761 0.136,1.563 0.329,2.525c0.081,0.407 0.527,0.84 0.954,0.93c1.965,0.413 3.291,1.631 4.175,3.835l0.055,0.14c0.366,0.912 0.743,1.854 1.165,2.765c0.178,0.384 0.398,0.74 0.611,1.082c0.113,0.183 0.226,0.366 0.331,0.549c0.017,0.031 0.034,0.063 0.05,0.095l-0.21,-0.021c-0.191,-0.014 -0.369,0.073 -0.469,0.233l-0.062,0.095c-0.147,0.229 -0.086,0.534 0.14,0.686l0.738,0.497l0,0.001c-0.143,0.285 -0.278,0.554 -0.461,0.731c-0.467,0.458 -1.035,0.839 -1.626,1.222c-0.614,0.399 -1.339,0.456 -2.28,0.19c-0.574,-0.164 -1.15,-0.343 -1.725,-0.523c-0.178,-0.056 -0.345,-0.107 -0.531,-0.166c-0.599,-0.191 -1.198,-0.386 -1.785,-0.578l-0.247,-0.081c-1.664,-0.543 -3.842,-1.156 -6.127,-1.156c-0.115,0 -0.23,0.002 -0.345,0.005l-0.009,0c-0.465,0 -2.42,-1.098 -3.346,-2.456l-0.093,-0.132c-0.046,-0.066 -0.104,-0.147 -0.073,-0.2c0.929,-1.78 2.131,-3.521 3.78,-5.479m9.239,-5.393c0.017,-0.004 0.032,-0.009 0.049,-0.014c0.009,0.439 0.025,0.921 0.039,1.404c0.022,0.674 0.04,1.339 0.045,1.915c-0.262,-0.089 -0.533,-0.163 -0.815,-0.223c-0.057,-0.019 -0.169,-0.12 -0.187,-0.148c-0.163,-0.82 -0.257,-1.51 -0.296,-2.156c0.623,-0.615 0.718,-0.648 1.165,-0.778m-3.473,20.08c-0.686,-0.822 -1.465,-1.801 -2.223,-2.755c-0.697,-0.877 -1.411,-1.775 -2.064,-2.567c1.97,0.243 4.366,1.001 6.357,1.632c0.055,0.018 0.108,0.034 0.163,0.052c0.056,0.017 0.11,0.036 0.167,0.054c-1.283,0.889 -1.917,2.389 -2.4,3.584m-10.289,-8.431l0.083,0.118c1.036,1.522 3.201,2.911 4.209,2.893c0.107,-0.003 0.212,0.002 0.32,0.002c0.796,0.928 1.746,2.121 2.671,3.285c0.968,1.217 1.968,2.475 2.777,3.409c0.096,0.11 0.234,0.173 0.378,0.173c0.025,0 0.051,-0.002 0.076,-0.006c0.17,-0.026 0.315,-0.138 0.383,-0.295c0.091,-0.209 0.182,-0.435 0.276,-0.669c0.591,-1.461 1.266,-3.105 2.913,-3.64c0.222,0.066 0.442,0.137 0.664,0.201c0.471,0.134 0.913,0.202 1.326,0.202c0.657,0 1.243,-0.171 1.771,-0.513c0.636,-0.412 1.25,-0.825 1.782,-1.347c0.301,-0.294 0.49,-0.667 0.655,-0.996c0.063,-0.125 0.125,-0.248 0.191,-0.361c0.116,-0.198 0.08,-0.446 -0.075,-0.604c0.04,-0.031 0.075,-0.068 0.104,-0.111c0.104,-0.148 0.118,-0.342 0.039,-0.504l-0.17,-0.353c-0.107,-0.226 -0.197,-0.412 -0.299,-0.595c-0.113,-0.197 -0.232,-0.391 -0.352,-0.583c-0.205,-0.333 -0.4,-0.647 -0.552,-0.976c-0.411,-0.887 -0.784,-1.818 -1.144,-2.717l-0.057,-0.14c-0.721,-1.801 -1.757,-3.049 -3.125,-3.792c0.033,-0.066 0.054,-0.138 0.054,-0.216c0,-0.623 -0.024,-1.392 -0.048,-2.155c-0.023,-0.739 -0.047,-1.472 -0.047,-2.055c0,-0.162 -0.079,-0.314 -0.212,-0.408c-0.132,-0.095 -0.301,-0.115 -0.455,-0.064c-0.281,0.1 -0.486,0.16 -0.652,0.207c-0.373,0.109 -0.601,0.194 -0.878,0.396c0.01,-0.17 0.018,-0.337 0.029,-0.513c0.019,-0.279 0.037,-0.567 0.051,-0.87c0.009,-0.185 -0.085,-0.359 -0.245,-0.454c-0.159,-0.093 -0.358,-0.093 -0.516,0.005l-0.573,0.345c-0.393,0.235 -0.756,0.451 -1.102,0.69c-2.198,1.518 -4.261,3.46 -6.493,6.11c-1.697,2.016 -2.936,3.815 -3.901,5.66c-0.312,0.596 -0.069,0.939 0.144,1.241" /></svg>