<svg xmlns="http://www.w3.org/2000/svg" viewBox="0 0 24 24" style="fill-rule:evenodd;clip-rule:evenodd;stroke-linejoin:round;stroke-miterlimit:1.41421;"><path d="M3.523,9.328c0.387,-0.279 0.667,-0.481 0.671,-0.841c0.002,-0.138 -0.063,-0.316 -0.163,-0.412c-0.177,-0.17 -0.368,-0.16 -0.632,-0.142c-0.114,0.006 -0.278,0.016 -0.515,0.025c1.476,-1.174 2.735,-1.452 3.782,-1.683c0.628,-0.138 1.222,-0.27 1.743,-0.569c0.059,-0.034 0.116,-0.072 0.167,-0.112c0.054,-0.042 0.131,-0.15 0.164,-0.209c0.075,-0.136 0.083,-0.298 0.022,-0.441c-0.061,-0.141 -0.184,-0.248 -0.335,-0.287c-0.061,-0.016 -0.206,-0.098 -0.336,-0.174c3.414,-1.56 4.468,-1.74 7.695,-1.155c0.235,0.038 0.477,-0.094 0.559,-0.323c0.133,-0.372 0.498,-0.652 0.851,-0.923c0.228,-0.175 0.447,-0.342 0.668,-0.507c-0.015,0.113 -0.031,0.228 -0.054,0.342c-0.035,0.182 0.033,0.368 0.177,0.484c0.145,0.117 0.343,0.144 0.511,0.072c0.083,-0.036 0.167,-0.072 0.25,-0.108c-0.023,0.766 0.09,1.504 0.206,2.162c0.029,0.162 0.114,0.326 0.23,0.447c0.406,0.427 0.747,0.944 1.072,1.624c0.423,0.881 0.82,1.773 1.212,2.664c0.153,0.345 0.284,0.7 0.401,1.058c0.121,0.374 0.344,0.663 0.543,0.918l0.146,0.193c0.486,0.662 0.569,1.344 0.254,2.084c-0.042,0.098 -0.123,0.2 -0.198,0.249c-0.413,0.265 -0.841,0.404 -1.272,0.412c-0.54,-0.01 -0.857,-0.211 -1.045,-0.726c-0.037,-0.102 -0.077,-0.205 -0.098,-0.313c-0.037,-0.185 -0.168,-0.504 -0.623,-0.574c-0.746,-0.113 -1.43,-0.445 -2.218,-1.076c-0.492,-0.395 -0.937,-0.851 -1.357,-1.395c-0.007,-0.009 -0.016,-0.013 -0.024,-0.022c-0.014,-0.015 -0.03,-0.027 -0.046,-0.042c-0.032,-0.027 -0.064,-0.052 -0.1,-0.069c-0.01,-0.006 -0.017,-0.015 -0.028,-0.02c-0.012,-0.006 -1.316,-0.583 -1.856,-1.663c-0.747,-1.494 0.62,-2.249 0.778,-2.33c0.246,-0.124 0.345,-0.424 0.222,-0.67c-0.124,-0.247 -0.424,-0.347 -0.671,-0.223c-0.847,0.422 -2.191,1.735 -1.224,3.671c0.396,0.791 1.061,1.348 1.586,1.698c-0.331,0.262 -0.607,0.568 -0.811,0.926c-0.47,0.823 -0.605,1.778 -0.413,2.92c0.237,1.415 0.839,2.756 1.793,3.985c0.503,0.65 0.747,1.412 0.767,2.399c0.018,0.755 -0.091,1.531 -0.322,2.311c-4.863,0.252 -8.628,-0.78 -11.182,-3.069c-2.982,-2.672 -3.408,-6.235 -3.466,-7.35c0.707,-1.91 1.882,-2.758 2.519,-3.216m-3.521,3.206c0.052,1.148 0.478,5.127 3.8,8.106c2.492,2.233 5.999,3.36 10.445,3.36c0.593,0 1.204,-0.021 1.831,-0.061c0.224,-0.014 0.413,-0.177 0.458,-0.399c0.001,-0.006 0.017,-0.102 0.018,-0.108c0.3,-0.941 0.441,-1.883 0.42,-2.802c-0.025,-1.195 -0.345,-2.173 -0.976,-2.989c-0.851,-1.097 -1.389,-2.288 -1.598,-3.539c-0.154,-0.918 -0.061,-1.635 0.296,-2.259c0.184,-0.325 0.442,-0.59 0.782,-0.806c0.391,0.464 0.804,0.869 1.255,1.229c0.865,0.695 1.674,1.097 2.534,1.259c0.029,0.097 0.067,0.199 0.11,0.32c0.308,0.847 1.013,1.331 1.937,1.331l0.046,0c0.619,-0.011 1.224,-0.203 1.794,-0.572c0.242,-0.154 0.458,-0.415 0.578,-0.697c0.451,-1.063 0.324,-2.124 -0.367,-3.067l-0.163,-0.215c-0.162,-0.209 -0.315,-0.405 -0.382,-0.613c-0.126,-0.39 -0.27,-0.776 -0.437,-1.154c-0.397,-0.901 -0.798,-1.802 -1.224,-2.692c-0.372,-0.777 -0.769,-1.375 -1.222,-1.816c-0.141,-0.806 -0.268,-1.665 -0.14,-2.524c0.05,-0.185 -0.007,-0.449 -0.152,-0.575c-0.19,-0.165 -0.304,-0.194 -0.739,-0.03c0.02,-0.206 0.043,-0.414 0.085,-0.626c0.038,-0.2 -0.048,-0.403 -0.218,-0.514c-0.171,-0.11 -0.393,-0.108 -0.558,0.008c-0.583,0.403 -1.078,0.778 -1.628,1.2c-0.332,0.255 -0.727,0.559 -0.995,0.989c-3.472,-0.59 -4.714,-0.208 -8.915,1.758c-0.22,0.104 -0.348,0.351 -0.284,0.585c0.064,0.235 0.269,0.395 0.516,0.366c0.057,0.008 0.173,0.065 0.292,0.132c-0.231,0.064 -0.483,0.12 -0.751,0.18c-1.323,0.292 -3.136,0.691 -5.242,2.83c-0.142,0.143 -0.183,0.357 -0.105,0.544c0.077,0.185 0.26,0.306 0.461,0.306c0.295,0 0.551,-0.002 0.771,-0.005c-0.74,0.603 -1.688,1.588 -2.306,3.327c-0.027,0.077 -0.035,0.156 -0.026,0.233l-0.001,0Z" /><path d="M18.5,8c0.276,0 0.5,-0.224 0.5,-0.5c0,-0.276 -0.224,-0.5 -0.5,-0.5c-0.276,0 -0.5,0.224 -0.5,0.5c0,0.276 0.224,0.5 0.5,0.5" /></svg>