<svg xmlns="http://www.w3.org/2000/svg" viewBox="0 0 24 24">
<path class="cls-2" d="M16,12.2H8a.8.8,0,1,0,0,1.6h8a.8.8,0,0,0,0-1.6Z"/><path class="cls-2" d="M16,15.2H8a.8.8,0,1,0,0,1.6h8a.8.8,0,0,0,0-1.6Z"/><path class="cls-2" d="M12,18.2H8a.8.8,0,1,0,0,1.6h4a.8.8,0,0,0,0-1.6Z"/><path class="cls-2" d="M19.993,6.8a.8.8,0,0,0-.228-.572l-5-5A.8.8,0,0,0,14.181,1L14.174,1H6A2.006,2.006,0,0,0,4,3V21a2.006,2.006,0,0,0,2,2H18a2.006,2.006,0,0,0,2-2V6.811ZM17.268,6H15V3.73ZM18,21.4H6a.405.405,0,0,1-.4-.4V3A.405.405,0,0,1,6,2.6h7.4V6.8a.8.8,0,0,0,.8.8h4.2V21A.405.405,0,0,1,18,21.4Z"/></svg>