<svg xmlns="http://www.w3.org/2000/svg" viewBox="0 0 24 24" style="fill-rule:evenodd;clip-rule:evenodd;stroke-linejoin:round;stroke-miterlimit:1.41421;"><path d="M18.836,17.602c-2.125,0 -3.883,-1.574 -4.134,-3.598c1.91,-0.005 6.009,-0.004 8.267,0c-0.251,2.025 -2.008,3.598 -4.133,3.598m-0.021,-12.84l3.885,8.238l-7.742,0l3.857,-8.238Zm-6.82,-0.329c-0.545,0 -0.988,-0.434 -0.988,-0.967c0,-0.532 0.443,-0.966 0.988,-0.966c0.545,0 0.988,0.434 0.988,0.966c0,0.533 -0.443,0.967 -0.988,0.967m-2.952,8.567l-7.743,0l3.885,-8.238l3.858,8.238Zm-3.879,4.602c-2.124,0 -3.882,-1.573 -4.133,-3.598c1.081,-0.002 2.586,-0.004 4.07,-0.004l1.337,0c1.119,0.001 2.143,0.002 2.86,0.004c-0.251,2.024 -2.009,3.598 -4.134,3.598m14.393,-13.611l1.961,0c0.276,0 0.5,-0.224 0.5,-0.5c0,-0.277 -0.224,-0.5 -0.5,-0.5l-7.6,0c-0.217,-0.854 -0.993,-1.491 -1.923,-1.491c-0.93,0 -1.706,0.637 -1.923,1.491l-7.595,0c-0.277,0 -0.5,0.223 -0.5,0.5c0,0.276 0.223,0.5 0.5,0.5l1.966,0l-4.374,9.276c-0.04,0.071 -0.069,0.15 -0.069,0.238c0,2.811 2.316,5.097 5.164,5.097c2.836,0 5.141,-2.268 5.161,-5.062c0,-0.004 0.001,-0.009 0.001,-0.013c0.001,-0.008 0.003,-0.014 0.003,-0.022c0,-0.072 -0.017,-0.14 -0.045,-0.202c-0.002,-0.005 -0.001,-0.01 -0.003,-0.014l-4.354,-9.298l4.161,0c0.189,0.672 0.727,1.197 1.412,1.373l0,16.636l-2.932,0c-0.276,0 -0.5,0.224 -0.5,0.5c0,0.277 0.224,0.5 0.5,0.5l6.859,0c0.277,0 0.5,-0.223 0.5,-0.5c0,-0.276 -0.223,-0.5 -0.5,-0.5l-2.927,0l0,-16.639c0.68,-0.178 1.213,-0.701 1.402,-1.37l4.171,0l-4.354,9.298c-0.002,0.004 -0.001,0.009 -0.003,0.014c-0.027,0.062 -0.045,0.13 -0.045,0.202c0,0.008 0.002,0.014 0.003,0.022c0,0.004 0.001,0.009 0.001,0.013c0.02,2.794 2.326,5.062 5.161,5.062c2.848,0 5.164,-2.286 5.164,-5.097c0,-0.088 -0.029,-0.167 -0.069,-0.238l-4.374,-9.276Z" /></svg>