<svg xmlns="http://www.w3.org/2000/svg" viewBox="0 0 24 24" style="fill-rule:evenodd;clip-rule:evenodd;stroke-linejoin:round;stroke-miterlimit:1.41421;"><path d="M17.172,13.237c0.744,0.427 1.167,0.885 1.387,1.187l-0.161,0.1c-0.19,0.117 -0.279,0.346 -0.219,0.561c0.001,0.003 0.056,0.245 -0.054,0.422c-0.078,0.126 -0.241,0.211 -0.483,0.257c-0.09,0.017 -0.362,-0.082 -0.539,-0.149c-0.364,-0.137 -0.778,-0.293 -1.172,-0.162c-2.902,0.944 -4.097,-0.288 -4.143,-0.337c-0.119,-0.133 -0.3,-0.198 -0.474,-0.156c-0.175,0.036 -0.318,0.162 -0.374,0.332c-0.065,0.195 -0.058,0.509 0.157,0.807c0.4,0.553 1.362,0.847 2.935,0.894l0.305,4.508c-0.314,0.379 -1.418,1.499 -3.462,1.499c-3.231,0 -6.601,-3.318 -7.657,-4.45l7.537,-6.317c0.105,-0.088 0.169,-0.215 0.177,-0.352c0.009,-0.137 -0.04,-0.272 -0.133,-0.372l-0.527,-0.565c0.338,0.029 0.767,0.067 1.309,0.116c1.923,0.173 3.313,0.639 3.704,0.781c0.208,0.233 0.74,0.738 1.887,1.396m2.704,-5.954c-0.13,-0.319 -0.41,-0.51 -0.749,-0.51c-0.276,0 -0.5,0.224 -0.5,0.5c0,0.216 0.137,0.401 0.329,0.47c-0.009,0.228 -0.19,0.75 -0.729,1.237c-0.547,0.494 -1.652,1.117 -3.576,0.779c0.579,-0.738 0.992,-0.918 1.204,-0.951c0.183,-0.02 0.286,0.043 0.304,0.058c0.195,0.181 0.503,0.178 0.695,-0.013c0.195,-0.195 0.195,-0.512 0,-0.707c-0.042,-0.041 -0.426,-0.403 -1.073,-0.336c-0.716,0.073 -1.444,0.656 -2.17,1.692c-0.361,-0.114 -0.744,-0.255 -1.152,-0.435c-0.951,-0.417 -1.724,-0.849 -2.366,-1.284c-1.88,-2.225 0.652,-4.82 0.761,-4.931c0.194,-0.195 0.194,-0.511 -0.001,-0.706c-0.196,-0.195 -0.511,-0.195 -0.706,0c-0.815,0.816 -1.875,2.456 -1.72,4.177c-0.857,-1.021 -1.102,-1.995 -1.091,-2.78c0.019,-1.453 0.898,-2.462 1.045,-2.543l0.005,0c0.274,0 0.498,-0.221 0.5,-0.495c0.003,-0.277 -0.219,-0.502 -0.495,-0.505l-0.006,0c-0.726,0 -1.651,1.237 -1.944,2.601c-0.36,1.679 -0.11,4.869 5.617,7.382c0.137,0.061 0.274,0.117 0.407,0.171c-0.253,-0.034 -0.519,-0.064 -0.794,-0.09c-2.286,-0.206 -2.595,-0.221 -2.633,-0.222c-0.188,0.031 -0.386,0.113 -0.468,0.296c-0.082,0.184 -0.046,0.399 0.091,0.545l1.047,1.122l-7.529,6.312c-0.102,0.085 -0.166,0.207 -0.177,0.34c-0.012,0.132 0.03,0.263 0.116,0.365c0.178,0.211 4.414,5.178 8.757,5.178c2.978,0 4.334,-1.985 4.39,-2.069c0.061,-0.091 0.09,-0.201 0.083,-0.311l-0.333,-4.91c0.378,-0.065 0.784,-0.163 1.22,-0.305c0.085,-0.014 0.355,0.085 0.517,0.146c0.33,0.124 0.703,0.264 1.074,0.196c0.659,-0.123 0.989,-0.455 1.148,-0.712c0.18,-0.289 0.222,-0.593 0.219,-0.826l0.306,-0.189c0.204,-0.126 0.29,-0.378 0.205,-0.601c-0.017,-0.046 -0.441,-1.135 -2.034,-2.049c-1.297,-0.744 -1.675,-1.235 -1.675,-1.235c-0.055,-0.079 -0.132,-0.141 -0.221,-0.177c-0.017,-0.007 -0.124,-0.05 -0.311,-0.116c1.912,0.064 3.049,-0.742 3.537,-1.216c0.759,-0.739 1.127,-1.724 0.876,-2.343" /></svg>