<svg xmlns="http://www.w3.org/2000/svg" viewBox="0 0 24 24" style="fill-rule:evenodd;clip-rule:evenodd;stroke-linejoin:round;stroke-miterlimit:1.41421;"><path d="M21.845,15.657c-0.214,-0.008 -0.426,0.104 -0.509,0.308l-0.039,0.093c-0.099,0.235 -0.007,0.506 0.215,0.631l0.959,0.539c-0.126,0.161 -0.251,0.317 -0.385,0.465c-0.455,0.508 -0.918,1.008 -1.381,1.509l-0.464,0.503c-0.396,0.431 -0.944,0.683 -1.672,0.774c-1.92,0.238 -3.618,0.124 -5.172,-0.347c-0.84,-0.335 -1.686,-0.615 -2.512,-0.844c-1.373,-0.431 -2.837,-0.796 -4.355,-0.9c-0.394,-0.026 -0.882,-0.068 -1.424,-0.115c-1.161,-0.101 -2.559,-0.222 -3.832,-0.261c0.143,-0.29 0.277,-0.53 0.424,-0.792l0.279,-0.505c0.616,-1.144 1.267,-2.269 1.918,-3.393l0.632,-1.094c0.367,-0.636 0.745,-1.294 0.8,-2.188c0.046,-0.733 0.206,-1.457 0.376,-2.224c0.077,-0.345 0.153,-0.689 0.218,-1.035l0.964,-5.11c0.569,0.365 1.099,0.835 1.366,1.507c0.086,0.214 0.168,0.432 0.247,0.651c0.002,0.008 0.005,0.015 0.008,0.024c0.047,0.141 0.101,0.293 0.16,0.454c0.11,0.32 0.215,0.639 0.319,0.954c0.175,0.536 0.352,1.072 0.547,1.599c0.199,0.811 1.131,1.482 1.941,1.777c0.183,0.103 0.364,0.205 0.544,0.304l0.682,0.383c1.308,0.747 2.213,1.523 2.849,2.443c0.578,0.838 1.333,1.406 2.31,1.736c1.458,0.493 2.864,1.049 4.42,1.67c0.447,0.179 0.641,0.341 0.702,0.591l-1.135,-0.107Zm-9.605,6.131c-0.081,0.233 -0.159,0.463 -0.235,0.669c-1.23,-0.539 -2.477,-1.252 -3.687,-1.944c-0.624,-0.356 -1.259,-0.719 -1.894,-1.059c1.127,0.112 2.535,0.339 4.07,0.76c0.71,0.219 1.399,0.461 2.057,0.691c-0.106,0.282 -0.21,0.585 -0.311,0.883m-2.152,-18.527c0.194,-0.13 0.361,-0.248 0.447,-0.33l0.381,-0.368c0.045,0.745 0.071,1.556 0.094,2.348c0.024,0.794 0.049,1.605 0.095,2.346c-0.071,-0.044 -0.141,-0.089 -0.21,-0.135c-0.154,-0.101 -0.313,-0.319 -0.404,-0.549c-0.138,-0.612 -0.432,-1.397 -0.693,-2.092c-0.065,-0.174 -0.129,-0.344 -0.188,-0.504c-0.033,-0.096 -0.067,-0.193 -0.101,-0.29c0.137,-0.13 0.426,-0.323 0.579,-0.426m12.561,10.984c-1.57,-0.628 -2.99,-1.188 -4.471,-1.69c-0.775,-0.261 -1.35,-0.692 -1.808,-1.356c-0.723,-1.048 -1.732,-1.92 -3.175,-2.743l-0.692,-0.389c-0.116,-0.064 -0.233,-0.129 -0.349,-0.194c-0.08,-0.871 -0.111,-1.904 -0.144,-2.992c-0.037,-1.201 -0.074,-2.442 -0.183,-3.465c-0.019,-0.19 -0.146,-0.352 -0.326,-0.417c-0.178,-0.067 -0.38,-0.024 -0.518,0.11l-1.141,1.102c-0.059,0.055 -0.178,0.131 -0.31,0.219c-0.131,0.088 -0.267,0.179 -0.395,0.273c-0.497,-1.139 -1.478,-1.781 -2.378,-2.26c-0.141,-0.076 -0.309,-0.078 -0.451,-0.01c-0.143,0.07 -0.245,0.203 -0.275,0.359l-1.094,5.803c-0.064,0.335 -0.138,0.67 -0.212,1.005c-0.171,0.771 -0.347,1.567 -0.398,2.377c-0.041,0.661 -0.332,1.166 -0.709,1.822l-0.59,1.022c-0.657,1.133 -1.313,2.267 -1.934,3.419l-0.272,0.493c-0.249,0.445 -0.484,0.866 -0.784,1.57c-0.065,0.156 -0.049,0.333 0.043,0.472c0.093,0.141 0.249,0.225 0.417,0.225c0.971,0 2.086,0.07 3.139,0.153c0.054,0.081 0.133,0.148 0.228,0.186c1.283,0.515 2.581,1.257 3.955,2.043c1.39,0.795 2.829,1.617 4.271,2.197c0.062,0.024 0.124,0.036 0.187,0.036c0.19,0 0.371,-0.109 0.455,-0.293c0.141,-0.311 0.294,-0.752 0.45,-1.211c0.106,-0.309 0.215,-0.627 0.323,-0.908c1.579,0.416 3.285,0.502 5.184,0.268c0.974,-0.121 1.721,-0.477 2.285,-1.088l0.463,-0.502c0.467,-0.505 0.932,-1.009 1.39,-1.519c0.19,-0.212 0.366,-0.436 0.548,-0.671l0.237,-0.301c0.091,-0.115 0.127,-0.263 0.1,-0.408c-0.014,-0.07 -0.043,-0.136 -0.083,-0.193c0.179,-0.058 0.317,-0.215 0.342,-0.413c0.135,-1.069 -0.261,-1.706 -1.325,-2.131" /><path d="M12.135,12.96c-0.071,-0.043 -0.159,-0.11 -0.225,-0.239c0.576,-0.216 1.65,-0.455 1.87,-0.229c0.103,0.11 0.269,0.244 0.441,0.376c-0.396,0.146 -1.542,0.414 -2.086,0.092m2.847,-0.771c-0.176,-0.13 -0.37,-0.272 -0.478,-0.385c-0.898,-0.939 -3.214,0.096 -3.236,0.107c-0.132,0.061 -0.48,0.223 -0.439,0.604c0.089,0.798 0.542,1.182 0.907,1.366c0.342,0.171 0.74,0.232 1.131,0.232c0.882,0 1.733,-0.31 1.84,-0.368c0.082,-0.047 0.131,-0.062 0.199,-0.085c0.17,-0.055 0.33,-0.119 0.542,-0.325c0.106,-0.102 0.166,-0.258 0.158,-0.404c-0.018,-0.286 -0.208,-0.429 -0.624,-0.742" /></svg>