<svg xmlns="http://www.w3.org/2000/svg" viewBox="0 0 24 24">
<path class="cls-2" d="M17.849,21.8a.793.793,0,0,1-.413-.115L12,18.407,6.564,21.685a.792.792,0,0,1-.882-.038.8.8,0,0,1-.31-.829L6.81,14.637l-4.8-4.158a.8.8,0,0,1,.455-1.4l6.324-.543,2.47-5.847a.834.834,0,0,1,1.474,0l2.47,5.847,6.324.543a.8.8,0,0,1,.455,1.4l-4.8,4.158,1.438,6.181a.8.8,0,0,1-.31.829A.792.792,0,0,1,17.849,21.8ZM12,16.673a.8.8,0,0,1,.413.115l4.228,2.549-1.119-4.808a.8.8,0,0,1,.256-.786l3.731-3.233-4.919-.422a.8.8,0,0,1-.669-.485L12,5.056,10.079,9.6a.8.8,0,0,1-.669.485l-4.919.422,3.731,3.233a.8.8,0,0,1,.256.786L7.359,19.337l4.228-2.549A.8.8,0,0,1,12,16.673Z"/></svg>