<svg xmlns="http://www.w3.org/2000/svg" viewBox="0 0 24 24" style="fill-rule:evenodd;clip-rule:evenodd;stroke-linejoin:round;stroke-miterlimit:1.41421;">

                <g transform="matrix(1,0,0,1,18,1.5)">
                    <path d="M0,21C0,21.276 -0.224,21.5 -0.5,21.5L-11.5,21.5C-11.776,21.5 -12,21.276 -12,21L-12,2C-12,1.724 -11.776,1.5 -11.5,1.5L-0.5,1.5C-0.224,1.5 0,1.724 0,2L0,21ZM-8,-0.5L-4,-0.5L-4,0.5L-8,0.5L-8,-0.5ZM-0.5,0.5L-3,0.5L-3,-1C-3,-1.276 -3.224,-1.5 -3.5,-1.5L-8.5,-1.5C-8.776,-1.5 -9,-1.276 -9,-1L-9,0.5L-11.5,0.5C-12.327,0.5 -13,1.173 -13,2L-13,21C-13,21.827 -12.327,22.5 -11.5,22.5L-0.5,22.5C0.327,22.5 1,21.827 1,21L1,2C1,1.173 0.327,0.5 -0.5,0.5" />
                </g>
                <g transform="matrix(1,0,0,1,15.5,12)">
                    <path d="M0,-1L-7,-1C-7.276,-1 -7.5,-0.776 -7.5,-0.5C-7.5,-0.224 -7.276,0 -7,0L0,0C0.276,0 0.5,-0.224 0.5,-0.5C0.5,-0.776 0.276,-1 0,-1" />
                </g>
                <g transform="matrix(1,0,0,1,15.5,9)">
                    <path d="M0,-1L-7,-1C-7.276,-1 -7.5,-0.776 -7.5,-0.5C-7.5,-0.224 -7.276,0 -7,0L0,0C0.276,0 0.5,-0.224 0.5,-0.5C0.5,-0.776 0.276,-1 0,-1" />
                </g>
                <g transform="matrix(1,0,0,1,15.5,15)">
                    <path d="M0,-1L-7,-1C-7.276,-1 -7.5,-0.776 -7.5,-0.5C-7.5,-0.224 -7.276,0 -7,0L0,0C0.276,0 0.5,-0.224 0.5,-0.5C0.5,-0.776 0.276,-1 0,-1" />
                </g>
                <g transform="matrix(1,0,0,1,15.5,18)">
                    <path d="M0,-1L-7,-1C-7.276,-1 -7.5,-0.776 -7.5,-0.5C-7.5,-0.224 -7.276,0 -7,0L0,0C0.276,0 0.5,-0.224 0.5,-0.5C0.5,-0.776 0.276,-1 0,-1" />
                </g>
                <g transform="matrix(1,0,0,1,15.5,21)">
                    <path d="M0,-1L-7,-1C-7.276,-1 -7.5,-0.776 -7.5,-0.5C-7.5,-0.224 -7.276,0 -7,0L0,0C0.276,0 0.5,-0.224 0.5,-0.5C0.5,-0.776 0.276,-1 0,-1" />
                </g>

</svg>
