<svg xmlns="http://www.w3.org/2000/svg" viewBox="0 0 24 24">
    <path d="M21,11L8.414,11L10.707,8.707C10.902,8.519 11.012,8.259 11.012,7.988C11.012,7.439 10.561,6.988 10.012,6.988C9.741,6.988 9.481,7.098 9.293,7.293L5.293,11.293C5.008,11.579 4.923,12.011 5.076,12.384C5.126,12.506 5.2,12.617 5.293,12.71L9.293,16.71C9.479,16.89 9.729,16.991 9.988,16.991C10.536,16.991 10.988,16.539 10.988,15.991C10.988,15.732 10.887,15.482 10.707,15.296L8.414,13L21,13C21.549,13 22,12.549 22,12C22,11.451 21.549,11 21,11Z" />
    <path d="M3,4C2.451,4 2,4.451 2,5L2,19C2,19.549 2.451,20 3,20C3.549,20 4,19.549 4,19L4,5C4,4.451 3.549,4 3,4Z" />
</svg>
