<svg xmlns="http://www.w3.org/2000/svg" viewBox="0 0 24 24" style="fill-rule:evenodd;clip-rule:evenodd;stroke-linejoin:round;stroke-miterlimit:1.41421;"><path d="M19,19.006c-2.206,0 -4,-1.794 -4,-4c0,-1.554 0.899,-2.889 2.197,-3.551l1.341,3.236c0.08,0.192 0.266,0.309 0.462,0.309c0.063,0 0.129,-0.013 0.191,-0.038c0.255,-0.106 0.376,-0.398 0.271,-0.654l-1.326,-3.202c0.278,-0.062 0.566,-0.1 0.864,-0.1c2.206,0 4,1.794 4,4c0,2.206 -1.794,4 -4,4m-7.334,-5.487l-1.695,-4.519l5.462,0l-3.767,4.519Zm-1.768,0.481c-0.236,-1.149 -0.881,-2.138 -1.758,-2.853l1.046,-1.395l1.593,4.248l-0.881,0Zm-4.898,5.006c-2.206,0 -4,-1.794 -4,-4c0,-2.206 1.794,-4 4,-4c0.61,0 1.183,0.148 1.7,0.393l-2.1,2.801c-0.114,0.151 -0.132,0.354 -0.047,0.523c0.085,0.17 0.258,0.277 0.447,0.277l3.999,0c0,0.002 0.001,0.004 0.001,0.006c0,2.206 -1.794,4 -4,4m2.542,-7.062c0.633,0.526 1.1,1.236 1.314,2.056l-2.856,0l1.542,-2.056Zm11.458,-1.938c-0.433,0 -0.846,0.073 -1.247,0.177l-2.848,-6.875c-0.077,-0.187 -0.259,-0.308 -0.462,-0.308l-2.943,0c-0.276,0 -0.5,0.223 -0.5,0.5c0,0.276 0.224,0.5 0.5,0.5l2.609,0l1.658,4l-6.171,0l-0.628,-1.676c-0.006,-0.017 -0.02,-0.028 -0.028,-0.044c0.489,-0.15 0.798,-0.339 0.829,-0.358c0.232,-0.148 0.299,-0.455 0.153,-0.688c-0.146,-0.232 -0.453,-0.302 -0.689,-0.157c-0.055,0.034 -1.377,0.835 -2.916,0.045c-0.245,-0.126 -0.547,-0.029 -0.672,0.217c-0.127,0.245 -0.03,0.546 0.215,0.673c0.665,0.341 1.299,0.458 1.857,0.458c0.1,0 0.194,-0.008 0.289,-0.015c-0.007,0.072 -0.001,0.147 0.026,0.22l0.738,1.965l-1.466,1.955c-0.694,-0.364 -1.469,-0.589 -2.304,-0.589c-2.757,0 -5,2.243 -5,5c0,2.757 2.243,5 5,5c2.757,0 5,-2.243 5,-5c0,-0.002 -0.001,-0.004 -0.001,-0.006l1.501,0c0.059,0 0.118,-0.011 0.176,-0.032c0.007,-0.003 0.012,-0.008 0.018,-0.011c0.025,-0.011 0.044,-0.028 0.067,-0.042c0.038,-0.024 0.073,-0.048 0.102,-0.079c0.006,-0.007 0.015,-0.009 0.021,-0.016l4.48,-5.377l0.45,1.087c-1.659,0.815 -2.814,2.506 -2.814,4.476c0,2.757 2.243,5 5,5c2.757,0 5,-2.243 5,-5c0,-2.757 -2.243,-5 -5,-5" /></svg>