<svg xmlns="http://www.w3.org/2000/svg" viewBox="0 0 24 24" style="fill-rule:evenodd;clip-rule:evenodd;stroke-linejoin:round;stroke-miterlimit:1.41421;"><path d="M19,22l-14,0l0,-18l2,0l0,0.5c0,0.276 0.224,0.5 0.5,0.5l9,0c0.276,0 0.5,-0.224 0.5,-0.5l0,-0.5l2,0l0,18Zm-11,-19l2.5,0c0.189,0 0.362,-0.107 0.447,-0.276l0.862,-1.724l0.382,0l0.862,1.724c0.085,0.169 0.258,0.276 0.447,0.276l2.5,0l0,1l-8,0l0,-1Zm11.5,0l-2.5,0l0,-0.5c0,-0.276 -0.224,-0.5 -0.5,-0.5l-2.691,0l-0.862,-1.724c-0.085,-0.169 -0.258,-0.276 -0.447,-0.276l-1,0c-0.189,0 -0.362,0.107 -0.447,0.276l-0.862,1.724l-2.691,0c-0.276,0 -0.5,0.224 -0.5,0.5l0,0.5l-2.5,0c-0.276,0 -0.5,0.224 -0.5,0.5l0,19c0,0.276 0.224,0.5 0.5,0.5l15,0c0.276,0 0.5,-0.224 0.5,-0.5l0,-19c0,-0.276 -0.224,-0.5 -0.5,-0.5" /><path d="M16.5,7l-9,0c-0.276,0 -0.5,0.224 -0.5,0.5c0,0.276 0.224,0.5 0.5,0.5l9,0c0.276,0 0.5,-0.224 0.5,-0.5c0,-0.276 -0.224,-0.5 -0.5,-0.5" /><path d="M16.5,10l-9,0c-0.276,0 -0.5,0.224 -0.5,0.5c0,0.276 0.224,0.5 0.5,0.5l9,0c0.276,0 0.5,-0.224 0.5,-0.5c0,-0.276 -0.224,-0.5 -0.5,-0.5" /><path d="M16.5,13l-9,0c-0.276,0 -0.5,0.224 -0.5,0.5c0,0.276 0.224,0.5 0.5,0.5l9,0c0.276,0 0.5,-0.224 0.5,-0.5c0,-0.276 -0.224,-0.5 -0.5,-0.5" /><path d="M16.5,16l-9,0c-0.276,0 -0.5,0.224 -0.5,0.5c0,0.276 0.224,0.5 0.5,0.5l9,0c0.276,0 0.5,-0.224 0.5,-0.5c0,-0.276 -0.224,-0.5 -0.5,-0.5" /></svg>