<svg xmlns="http://www.w3.org/2000/svg" viewBox="0 0 24 24" style="fill-rule:evenodd;clip-rule:evenodd;stroke-linejoin:round;stroke-miterlimit:1.41421;"><path d="M22,20l-20,0l0,-1l20,0l0,1Zm-18,-18l16,0l0,16l-16,0l0,-16Zm18.5,16l-1.5,0l0,-16.5c0,-0.276 -0.224,-0.5 -0.5,-0.5l-17,0c-0.276,0 -0.5,0.224 -0.5,0.5l0,16.5l-1.5,0c-0.276,0 -0.5,0.224 -0.5,0.5l0,2c0,0.276 0.224,0.5 0.5,0.5l21,0c0.276,0 0.5,-0.224 0.5,-0.5l0,-2c0,-0.276 -0.224,-0.5 -0.5,-0.5" /><path d="M18,5.349l-1.578,2.366l-1.568,-1.568c-0.143,-0.143 -0.36,-0.184 -0.545,-0.109c-0.187,0.078 -0.309,0.26 -0.309,0.462l0,2.662l-1.5,0.6l0,-5.762l5.5,0l0,1.349Zm0,10.651l-5.5,0l0,-2l1,0c0.189,0 0.362,-0.107 0.447,-0.276l1,-2c0.077,-0.155 0.07,-0.339 -0.021,-0.486c-0.092,-0.148 -0.253,-0.238 -0.426,-0.238l-2,0l0,-0.162l2.186,-0.874c0.19,-0.075 0.314,-0.26 0.314,-0.464l0,-1.793l1.146,1.147c0.106,0.106 0.261,0.152 0.403,0.144c0.149,-0.015 0.284,-0.095 0.367,-0.22l1.084,-1.626l0,8.848Zm-5.5,-4l1.191,0l-0.5,1l-0.691,0l0,-1Zm-1,4l-5.5,0l0,-12l5.5,0l0,12Zm7,-13l-6.5,0l-6.5,0c-0.276,0 -0.5,0.224 -0.5,0.5l0,13c0,0.277 0.224,0.5 0.5,0.5l13,0c0.276,0 0.5,-0.223 0.5,-0.5l0,-13c0,-0.276 -0.224,-0.5 -0.5,-0.5" /></svg>