<svg xmlns="http://www.w3.org/2000/svg" viewBox="0 0 24 24" style="fill-rule:evenodd;clip-rule:evenodd;stroke-linejoin:round;stroke-miterlimit:1.41421;">
<g transform="matrix(1,0,0,1,12,12.5)">
<path d="M0,-1C2.035,-1 3.7,0.532 3.949,2.5L-3.949,2.5C-3.7,0.532 -2.035,-1 0,-1M-1,-11C-1,-11.276 -0.775,-11.5 -0.5,-11.5L0.5,-11.5C0.775,-11.5 1,-11.276 1,-11L1,-1.899C0.677,-1.965 0.343,-2 0,-2C-0.343,-2 -0.677,-1.965 -1,-1.899L-1,-11ZM3.924,10.5L2.993,4.918C2.947,4.645 2.683,4.458 2.418,4.507C2.146,4.552 1.961,4.81 2.007,5.082L2.91,10.5L0.5,10.5L0.5,5C0.5,4.724 0.276,4.5 0,4.5C-0.276,4.5 -0.5,4.724 -0.5,5L-0.5,10.5L-2.91,10.5L-2.007,5.082C-1.961,4.81 -2.146,4.552 -2.418,4.507C-2.683,4.458 -2.947,4.645 -2.993,4.918L-3.924,10.5L-5.859,10.5L-4.109,3.5L4.109,3.5L5.859,10.5L3.924,10.5ZM7.141,11.5L4.989,2.895C4.947,0.896 3.731,-0.816 2,-1.576L2,-11C2,-11.827 1.327,-12.5 0.5,-12.5L-0.5,-12.5C-1.327,-12.5 -2,-11.827 -2,-11L-2,-1.576C-3.731,-0.816 -4.947,0.896 -4.989,2.895L-7.141,11.5L7.141,11.5Z" /></g>
</svg>
