<svg xmlns="http://www.w3.org/2000/svg" viewBox="0 0 24 24" style="fill-rule:evenodd;clip-rule:evenodd;stroke-linejoin:round;stroke-miterlimit:1.41421;"><path d="M22,16l-20,0l0,-4l20,0l0,4Zm-12,-6.111l0,0.222c0,0.491 -0.398,0.889 -0.889,0.889l-3.222,0c-0.491,0 -0.889,-0.398 -0.889,-0.889l0,-0.222c0,-0.491 0.398,-0.889 0.889,-0.889l3.222,0c0.491,0 0.889,0.398 0.889,0.889m9,0l0,0.222c0,0.491 -0.398,0.889 -0.889,0.889l-3.222,0c-0.491,0 -0.889,-0.398 -0.889,-0.889l0,-0.222c0,-0.491 0.398,-0.889 0.889,-0.889l3.222,0c0.491,0 0.889,0.398 0.889,0.889m-16,-4.14c2.328,-0.99 5.583,-1.555 9,-1.555c3.417,0 6.672,0.565 9,1.555l0,5.251l-1.232,0c0.143,-0.267 0.232,-0.565 0.232,-0.889l0,-0.222c0,-1.041 -0.848,-1.889 -1.889,-1.889l-3.222,0c-1.041,0 -1.889,0.848 -1.889,1.889l0,0.222c0,0.324 0.089,0.622 0.232,0.889l-2.464,0c0.143,-0.267 0.232,-0.565 0.232,-0.889l0,-0.222c0,-1.041 -0.848,-1.889 -1.889,-1.889l-3.222,0c-1.041,0 -1.889,0.848 -1.889,1.889l0,0.222c0,0.324 0.089,0.622 0.232,0.889l-1.232,0l0,-5.251Zm19.5,15.251c0.276,0 0.5,-0.224 0.5,-0.5l0,-4l0,-5c0,-0.276 -0.224,-0.5 -0.5,-0.5l-0.5,0l0,-5.577c0,-0.195 -0.114,-0.373 -0.292,-0.455c-2.469,-1.127 -6.008,-1.774 -9.708,-1.774c-3.7,0 -7.239,0.647 -9.708,1.774c-0.178,0.082 -0.292,0.26 -0.292,0.455l0,5.577l-0.5,0c-0.276,0 -0.5,0.224 -0.5,0.5l0,9c0,0.276 0.224,0.5 0.5,0.5c0.276,0 0.5,-0.224 0.5,-0.5l0,-3.5l20,0l0,3.5c0,0.276 0.224,0.5 0.5,0.5" /></svg>