<svg xmlns="http://www.w3.org/2000/svg" viewBox="0 0 24 24" style="fill-rule:evenodd;clip-rule:evenodd;stroke-linejoin:round;stroke-miterlimit:1.41421;">
                <g transform="matrix(1,0,0,1,4.5,6)">
                    <path d="M0,1L5,1C5.276,1 5.5,0.776 5.5,0.5C5.5,0.224 5.276,0 5,0L0,0C-0.276,0 -0.5,0.224 -0.5,0.5C-0.5,0.776 -0.276,1 0,1" />
                </g>
                <g transform="matrix(1,0,0,1,4.5,9)">
                    <path d="M0,1L5,1C5.276,1 5.5,0.776 5.5,0.5C5.5,0.224 5.276,0 5,0L0,0C-0.276,0 -0.5,0.224 -0.5,0.5C-0.5,0.776 -0.276,1 0,1" />
                </g>
                <g transform="matrix(1,0,0,1,4.5,12)">
                    <path d="M0,1L5,1C5.276,1 5.5,0.776 5.5,0.5C5.5,0.224 5.276,0 5,0L0,0C-0.276,0 -0.5,0.224 -0.5,0.5C-0.5,0.776 -0.276,1 0,1" />
                </g>
                <g transform="matrix(1,0,0,1,9.5,16)">
                    <path d="M0,-1L-5,-1C-5.276,-1 -5.5,-0.776 -5.5,-0.5C-5.5,-0.224 -5.276,0 -5,0L0,0C0.276,0 0.5,-0.224 0.5,-0.5C0.5,-0.776 0.276,-1 0,-1" />
                </g>
                <g transform="matrix(1,0,0,1,14.5,6)">
                    <path d="M0,1L5,1C5.276,1 5.5,0.776 5.5,0.5C5.5,0.224 5.276,0 5,0L0,0C-0.276,0 -0.5,0.224 -0.5,0.5C-0.5,0.776 -0.276,1 0,1" />
                </g>
                <g transform="matrix(1,0,0,1,14.5,9)">
                    <path d="M0,1L5,1C5.276,1 5.5,0.776 5.5,0.5C5.5,0.224 5.276,0 5,0L0,0C-0.276,0 -0.5,0.224 -0.5,0.5C-0.5,0.776 -0.276,1 0,1" />
                </g>
                <g transform="matrix(1,0,0,1,14.5,12)">
                    <path d="M0,1L5,1C5.276,1 5.5,0.776 5.5,0.5C5.5,0.224 5.276,0 5,0L0,0C-0.276,0 -0.5,0.224 -0.5,0.5C-0.5,0.776 -0.276,1 0,1" />
                </g>
                <g transform="matrix(1,0,0,1,14.5,15)">
                    <path d="M0,1L5,1C5.276,1 5.5,0.776 5.5,0.5C5.5,0.224 5.276,0 5,0L0,0C-0.276,0 -0.5,0.224 -0.5,0.5C-0.5,0.776 -0.276,1 0,1" />
                </g>
                <g transform="matrix(1,0,0,1,11.5,18.5)">
                    <path d="M0,-12L0,0.566C-0.647,-0.099 -1.539,-0.5 -2.5,-0.5L-9.5,-0.5L-9.5,-14.5L-2.5,-14.5C-1.122,-14.5 0,-13.378 0,-12M3.5,-14.5L10.5,-14.5L10.5,-0.5L3.5,-0.5C2.521,-0.5 1.636,-0.093 1,0.558L1,-12C1,-13.378 2.122,-14.5 3.5,-14.5M-10,0.5L-2.5,0.5C-1.501,0.5 -0.599,1.097 -0.202,2.021C-0.068,2.331 0,2.661 0,3C0,3.276 0.224,3.5 0.5,3.5C0.776,3.5 1,3.276 1,3C1,1.622 2.122,0.5 3.5,0.5L11,0.5C11.276,0.5 11.5,0.276 11.5,0L11.5,-15C11.5,-15.276 11.276,-15.5 11,-15.5L3.5,-15.5C2.22,-15.5 1.11,-14.802 0.5,-13.774C-0.11,-14.802 -1.22,-15.5 -2.5,-15.5L-10,-15.5C-10.276,-15.5 -10.5,-15.276 -10.5,-15L-10.5,0C-10.5,0.276 -10.276,0.5 -10,0.5" />
                </g>
</svg>
