<svg xmlns="http://www.w3.org/2000/svg" viewBox="0 0 24 24" style="fill-rule:evenodd;clip-rule:evenodd;stroke-linejoin:round;stroke-miterlimit:1.41421;"><path d="M12,16c-3.967,0 -7.215,-3.098 -7.475,-7l14.95,0c-0.26,3.902 -3.508,7 -7.475,7m6,2c1.103,0 2,0.897 2,2c0,1.103 -0.897,2 -2,2c-1.103,0 -2,-0.897 -2,-2c0,-1.103 0.897,-2 2,-2m-10,2c0,1.103 -0.897,2 -2,2c-1.103,0 -2,-0.897 -2,-2c0,-1.103 0.897,-2 2,-2c1.103,0 2,0.897 2,2m3.5,-18.975l0,6.975l-6.975,0c0.248,-3.736 3.239,-6.727 6.975,-6.975m9,7.475l0,-0.5c0,-1.103 0.897,-2 2,-2c0.276,0 0.5,-0.224 0.5,-0.5c0,-0.276 -0.224,-0.5 -0.5,-0.5c-1.654,0 -3,1.346 -3,3l-7,0l0,-7.5c0,-0.276 -0.224,-0.5 -0.5,-0.5c-4.687,0 -8.5,3.813 -8.5,8.5c0,3.143 1.719,5.887 4.262,7.357l-0.677,1.354c-0.337,-0.132 -0.701,-0.211 -1.085,-0.211c-1.654,0 -3,1.346 -3,3c0,1.654 1.346,3 3,3c1.654,0 3,-1.346 3,-3c0,-0.911 -0.417,-1.719 -1.06,-2.269c0.002,-0.003 0.006,-0.004 0.007,-0.007l0.706,-1.412c1.028,0.441 2.159,0.688 3.347,0.688c1.188,0 2.319,-0.247 3.347,-0.688l0.706,1.412c0.001,0.003 0.005,0.004 0.007,0.007c-0.643,0.55 -1.06,1.358 -1.06,2.269c0,1.654 1.346,3 3,3c1.654,0 3,-1.346 3,-3c0,-1.654 -1.346,-3 -3,-3c-0.384,0 -0.748,0.079 -1.085,0.211l-0.677,-1.354c2.543,-1.47 4.262,-4.214 4.262,-7.357" /><circle cx="6" cy="20" r="0.5"/><path d="M18,20.5c0.276,0 0.5,-0.224 0.5,-0.5c0,-0.276 -0.224,-0.5 -0.5,-0.5c-0.276,0 -0.5,0.224 -0.5,0.5c0,0.276 0.224,0.5 0.5,0.5" /></svg>