<svg xmlns="http://www.w3.org/2000/svg" viewBox="0 0 24 24" style="fill-rule:evenodd;clip-rule:evenodd;stroke-linejoin:round;stroke-miterlimit:1.41421;"><path d="M21.607,6.231c-0.228,0.157 -0.285,0.468 -0.128,0.695c0.995,1.444 1.521,3.18 1.521,5.02c0,1.861 -0.536,3.61 -1.549,5.06c-0.158,0.227 -0.103,0.538 0.123,0.697c0.087,0.061 0.187,0.09 0.286,0.09c0.158,0 0.313,-0.075 0.41,-0.213c1.131,-1.62 1.73,-3.568 1.73,-5.634c0,-2.044 -0.587,-3.976 -1.698,-5.587c-0.155,-0.227 -0.467,-0.284 -0.695,-0.128" /><path d="M20.904,8.265c-0.157,-0.226 -0.467,-0.284 -0.695,-0.128c-0.228,0.157 -0.285,0.468 -0.128,0.695c0.619,0.899 0.946,1.978 0.946,3.122c0,1.156 -0.333,2.245 -0.963,3.147c-0.159,0.226 -0.103,0.538 0.123,0.696c0.087,0.061 0.187,0.09 0.286,0.09c0.158,0 0.313,-0.075 0.41,-0.214c0.749,-1.071 1.144,-2.357 1.144,-3.719c0,-1.348 -0.388,-2.623 -1.123,-3.689" /><path d="M1,10l1,0l0,2l-1,0l0,-2Zm2,-2l3,0l0,6l-3,0l0,-6Zm3.838,13.005l-1.257,0.009c-0.064,-0.032 -0.194,-0.187 -0.224,-0.274l-1.689,-5.74l1.455,0l1.715,6.005Zm0.162,-12.181c1.125,-0.529 4.71,-2.336 8.899,-4.453c0.82,-0.414 1.548,-0.782 2.101,-1.06l0,15.38l-11,-5.5l0,-4.367Zm-6.5,4.176l1.5,0l0,1.5c0,0.276 0.224,0.5 0.5,0.5l0.126,0l1.768,6.006c0.089,0.347 0.549,0.994 1.106,0.994l2,0c0.157,0 0.305,-0.074 0.399,-0.199c0.095,-0.125 0.125,-0.287 0.082,-0.438l-1.818,-6.363l0.337,0c0.276,0 0.5,-0.224 0.5,-0.5l0,-0.191l11.276,5.638c0.156,0.077 0.34,0.07 0.487,-0.022c0.147,-0.091 0.237,-0.252 0.237,-0.425l0,-17c0,-0.173 -0.09,-0.334 -0.237,-0.425c-0.148,-0.093 -0.332,-0.099 -0.487,-0.022c-0.527,0.264 -1.569,0.79 -2.827,1.426c-2.667,1.347 -6.808,3.439 -8.449,4.237l0,-0.216c0,-0.276 -0.224,-0.5 -0.5,-0.5l-4,0c-0.276,0 -0.5,0.224 -0.5,0.5l0,1.5l-1.5,0c-0.276,0 -0.5,0.224 -0.5,0.5l0,3c0,0.276 0.224,0.5 0.5,0.5" /></svg>