<svg xmlns="http://www.w3.org/2000/svg" viewBox="0 0 24 24" style="fill-rule:evenodd;clip-rule:evenodd;stroke-linejoin:round;stroke-miterlimit:1.41421;">
<path d="M4,6L2,6L2,4L4,4L4,6ZM10,10.309L10,12.5C10,12.673 10.09,12.834 10.237,12.925C10.383,13.016 10.568,13.024 10.724,12.947L16,10.309L16,12.5C16,12.673 16.09,12.834 16.237,12.925C16.384,13.016 16.568,13.024 16.724,12.947L22,10.309L22,20L2,20L2,7L4,7L4,12.5C4,12.673 4.09,12.834 4.237,12.925C4.384,13.016 4.567,13.024 4.724,12.947L10,10.309ZM1.5,21L22.5,21C22.776,21 23,20.776 23,20.5L23,9.5C23,9.327 22.91,9.166 22.763,9.075C22.616,8.982 22.431,8.974 22.276,9.053L17,11.691L17,9.5C17,9.327 16.91,9.166 16.763,9.075C16.615,8.982 16.431,8.974 16.276,9.053L11,11.691L11,9.5C11,9.327 10.91,9.166 10.763,9.075C10.615,8.982 10.431,8.974 10.276,9.053L5,11.691L5,3.5C5,3.224 4.776,3 4.5,3L1.5,3C1.224,3 1,3.224 1,3.5L1,20.5C1,20.776 1.224,21 1.5,21" />
<g transform="matrix(1,0,0,1,7.5,15)">
<path d="M0,1L2,1C2.276,1 2.5,0.776 2.5,0.5C2.5,0.224 2.276,0 2,0L0,0C-0.276,0 -0.5,0.224 -0.5,0.5C-0.5,0.776 -0.276,1 0,1" /></g>
<g transform="matrix(1,0,0,1,12.5,15)">
<path d="M0,1L2,1C2.276,1 2.5,0.776 2.5,0.5C2.5,0.224 2.276,0 2,0L0,0C-0.276,0 -0.5,0.224 -0.5,0.5C-0.5,0.776 -0.276,1 0,1" />
</g>
<g transform="matrix(1,0,0,1,17.5,15)">
<path d="M0,1L2,1C2.276,1 2.5,0.776 2.5,0.5C2.5,0.224 2.276,0 2,0L0,0C-0.276,0 -0.5,0.224 -0.5,0.5C-0.5,0.776 -0.276,1 0,1" />
</g>
<g transform="matrix(1,0,0,1,7.5,17)">
<path d="M0,1L2,1C2.276,1 2.5,0.776 2.5,0.5C2.5,0.224 2.276,0 2,0L0,0C-0.276,0 -0.5,0.224 -0.5,0.5C-0.5,0.776 -0.276,1 0,1" />
</g>
<g transform="matrix(1,0,0,1,12.5,17)">
<path d="M0,1L2,1C2.276,1 2.5,0.776 2.5,0.5C2.5,0.224 2.276,0 2,0L0,0C-0.276,0 -0.5,0.224 -0.5,0.5C-0.5,0.776 -0.276,1 0,1" />
</g>
<g transform="matrix(1,0,0,1,17.5,17)">
<path d="M0,1L2,1C2.276,1 2.5,0.776 2.5,0.5C2.5,0.224 2.276,0 2,0L0,0C-0.276,0 -0.5,0.224 -0.5,0.5C-0.5,0.776 -0.276,1 0,1" />
</g>
<g transform="matrix(1,0,0,1,13,4.5)">
<path d="M0,0L0,1.5L-5,1.5L-5,0C-5,-0.276 -4.775,-0.5 -4.5,-0.5C-4.225,-0.5 -4,-0.276 -4,0C-4,0.276 -3.776,0.5 -3.5,0.5C-3.224,0.5 -3,0.276 -3,0C-3,-0.827 -2.327,-1.5 -1.5,-1.5C-0.673,-1.5 0,-0.827 0,0M-3.666,-1.247C-3.905,-1.407 -4.191,-1.5 -4.5,-1.5C-5.327,-1.5 -6,-0.827 -6,0L-6,2C-6,2.276 -5.776,2.5 -5.5,2.5L0.5,2.5C0.776,2.5 1,2.276 1,2L1,0C1,-1.378 -0.121,-2.5 -1.5,-2.5C-2.425,-2.5 -3.234,-1.995 -3.666,-1.247" />
</g>
</svg>
