<svg xmlns="http://www.w3.org/2000/svg" viewBox="0 0 24 24" style="fill-rule:evenodd;clip-rule:evenodd;stroke-linejoin:round;stroke-miterlimit:1.41421;">
<g transform="matrix(1,0,0,1,1,8.7203)">
                        <path d="M0,6.56C0,5.347 0.492,4.247 1.284,3.689C1.417,3.595 1.496,3.443 1.496,3.28C1.496,3.117 1.417,2.964 1.284,2.871C0.492,2.313 0,1.212 0,-0.001C0,-1.609 1.334,-2.541 2.574,-2.726C2.807,-2.76 2.984,-2.954 2.999,-3.189C3.138,-5.377 5.76,-7.72 7.5,-7.72C8.202,-7.72 8.559,-7.438 8.773,-6.714C9.002,-5.939 9.001,-4.774 9,-3.54L9,10.099C9.001,11.333 9.002,12.498 8.773,13.274C8.559,13.997 8.202,14.28 7.5,14.28C5.76,14.28 3.138,11.936 2.999,9.748C2.984,9.513 2.807,9.32 2.574,9.286C1.334,9.1 0,8.168 0,6.56M7.5,15.28C8.643,15.28 9.394,14.701 9.732,13.557C10.002,12.643 10.001,11.463 10,10.098L10,-3.539C10.001,-4.904 10.002,-6.084 9.732,-6.998C9.394,-8.141 8.643,-8.72 7.5,-8.72C5.354,-8.72 2.46,-6.307 2.043,-3.639C0.475,-3.253 -1,-1.946 -1,-0.001C-1,1.286 -0.54,2.488 0.23,3.28C-0.54,4.072 -1,5.274 -1,6.56C-1,8.505 0.475,9.813 2.043,10.199C2.46,12.867 5.354,15.28 7.5,15.28" />
                    </g>
                    <g transform="matrix(1,0,0,1,5.4976,16)">
                        <path d="M0,1C0.251,1.003 1.502,1.089 1.502,2.5C1.502,2.776 1.726,3 2.002,3C2.279,3 2.502,2.776 2.502,2.5C2.502,1.504 2.087,0.877 1.565,0.5C2.087,0.123 2.502,-0.504 2.502,-1.5C2.502,-1.776 2.279,-2 2.002,-2C1.726,-2 1.502,-1.776 1.502,-1.5C1.502,-0.089 0.25,-0.003 0.002,0L-0.001,0C-0.003,0 -0.008,-0.001 -0.007,0L-0.009,0L-0.01,0L-0.012,0C-0.281,0.008 -0.498,0.229 -0.498,0.5C-0.498,0.775 -0.275,0.999 0,1" />
                    </g>
                    <g transform="matrix(1,0,0,1,5,7.5)">
                        <path d="M0,4C0,4.276 0.224,4.5 0.5,4.5C0.776,4.5 1,4.276 1,4C1,2.589 2.252,2.503 2.5,2.5L2.503,2.5C2.506,2.5 2.509,2.498 2.51,2.5L2.515,2.5C2.784,2.492 3,2.271 3,2C3,1.725 2.777,1.501 2.502,1.5C2.251,1.497 1,1.411 1,0C1,-0.276 0.776,-0.5 0.5,-0.5C0.224,-0.5 0,-0.276 0,0C0,0.996 0.415,1.623 0.937,2C0.415,2.377 0,3.004 0,4" />
                    </g>
                    <g transform="matrix(1,0,0,1,21.7168,12.4078)">
                        <path d="M0,-0.816C-0.133,-0.723 -0.212,-0.57 -0.212,-0.408C-0.212,-0.246 -0.133,-0.092 0,0C0.792,0.559 1.284,1.66 1.284,2.872C1.284,4.481 -0.05,5.413 -1.29,5.598C-1.523,5.632 -1.7,5.826 -1.715,6.061C-1.854,8.248 -4.476,10.592 -6.216,10.592C-6.918,10.592 -7.275,10.31 -7.489,9.586C-7.718,8.811 -7.717,7.646 -7.716,6.412L-7.716,-7.227C-7.717,-8.462 -7.718,-9.627 -7.489,-10.402C-7.275,-11.126 -6.918,-11.408 -6.216,-11.408C-4.476,-11.408 -1.854,-9.064 -1.715,-6.877C-1.7,-6.641 -1.523,-6.448 -1.29,-6.414C-0.05,-6.228 1.284,-5.296 1.284,-3.688C1.284,-2.475 0.792,-1.375 0,-0.816M-0.76,-7.327C-1.177,-9.995 -4.07,-12.408 -6.216,-12.408C-7.359,-12.408 -8.11,-11.829 -8.448,-10.685C-8.719,-9.771 -8.718,-8.591 -8.716,-7.226L-8.716,6.411C-8.718,7.776 -8.719,8.955 -8.448,9.87C-8.11,11.013 -7.359,11.592 -6.216,11.592C-4.07,11.592 -1.177,9.179 -0.76,6.511C0.809,6.125 2.284,4.818 2.284,2.872C2.284,1.586 1.823,0.384 1.053,-0.408C1.823,-1.2 2.284,-2.402 2.284,-3.688C2.284,-5.633 0.809,-6.941 -0.76,-7.327" />
                    </g>
                    <g transform="matrix(1,0,0,1,18.5029,17)">
                        <path d="M0,-1C-0.251,-1.003 -1.502,-1.089 -1.502,-2.5C-1.502,-2.776 -1.726,-3 -2.002,-3C-2.279,-3 -2.502,-2.776 -2.502,-2.5C-2.502,-1.504 -2.087,-0.877 -1.565,-0.5C-2.087,-0.123 -2.502,0.504 -2.502,1.5C-2.502,1.776 -2.279,2 -2.002,2C-1.726,2 -1.502,1.776 -1.502,1.5C-1.502,0.089 -0.25,0.003 -0.002,0L0.012,0C0.281,-0.008 0.498,-0.229 0.498,-0.5C0.498,-0.775 0.275,-0.999 0,-1" />
                    </g>
                    <g transform="matrix(1,0,0,1,19.0005,11.5)">
                        <path d="M0,-4C0,-4.276 -0.224,-4.5 -0.5,-4.5C-0.776,-4.5 -1,-4.276 -1,-4C-1,-2.589 -2.252,-2.503 -2.5,-2.5L-2.503,-2.5L-2.51,-2.5L-2.511,-2.5L-2.513,-2.5L-2.515,-2.5C-2.784,-2.492 -3,-2.271 -3,-2C-3,-1.725 -2.777,-1.501 -2.502,-1.5C-2.251,-1.497 -1,-1.411 -1,0C-1,0.276 -0.776,0.5 -0.5,0.5C-0.224,0.5 0,0.276 0,0C0,-0.996 -0.415,-1.623 -0.937,-2C-0.415,-2.377 0,-3.004 0,-4" />
                    </g>
</svg>
