<svg xmlns="http://www.w3.org/2000/svg" viewBox="0 0 24 24" style="fill-rule:evenodd;clip-rule:evenodd;stroke-linejoin:round;stroke-miterlimit:1.41421;"><path d="M7,1.845c0,-0.632 0.202,-0.845 0.8,-0.845l4.961,0l-1.725,4.314c-0.073,0.181 -0.034,0.387 0.1,0.529c0.134,0.141 0.337,0.193 0.522,0.131l1.977,-0.659l-1.599,3.999c-0.103,0.257 0.022,0.548 0.278,0.65c0.061,0.025 0.124,0.036 0.186,0.036c0.198,0 0.386,-0.119 0.464,-0.315l2,-5c0.073,-0.18 0.034,-0.386 -0.1,-0.528c-0.134,-0.142 -0.338,-0.194 -0.522,-0.131l-1.977,0.658l1.473,-3.684l2.362,0c0.591,0 0.8,0.199 0.807,0.845l0.988,5.711c-0.058,3.311 -2.65,5.889 -5.953,5.889c-3.373,0 -6.016,-2.613 -6.04,-5.956l0.998,-5.644Zm9.946,20.728c0.05,0.053 0.084,0.225 0.095,0.427l-5.051,0l-0.029,0l-5.045,0c0.007,-0.195 0.031,-0.359 0.059,-0.401c0.55,-0.106 4.395,-0.655 5.001,-0.741c0.601,0.084 4.452,0.624 4.97,0.715m-5.446,-8.147l-0.01,6.491c-1.146,0.164 -4.194,0.602 -4.705,0.701c-0.796,0.154 -0.951,1.146 -0.843,1.949c0.034,0.248 0.246,0.433 0.496,0.433l11.083,0c0.25,0 0.461,-0.185 0.495,-0.433c0.109,-0.806 -0.046,-1.802 -0.842,-1.957c-0.509,-0.099 -3.516,-0.525 -4.684,-0.69l0.01,-6.489c3.68,-0.23 6.5,-3.216 6.5,-6.987c0,-0.073 -0.018,-0.141 -0.045,-0.204l-0.955,-5.479c0,-1.12 -0.656,-1.761 -1.8,-1.761l-2.24,0l-0.082,0l-0.383,0l-0.007,0l-5.688,0c-1.161,0 -1.8,0.655 -1.792,1.757l-1,5.613c-0.002,0.011 0.002,0.021 0.001,0.032c-0.002,0.014 -0.009,0.027 -0.009,0.042c0,3.744 2.813,6.715 6.5,6.982" /></svg>