<svg xmlns="http://www.w3.org/2000/svg" viewBox="0 0 24 24" style="fill-rule:evenodd;clip-rule:evenodd;stroke-linejoin:round;stroke-miterlimit:1.41421;"><path d="M12,23c-6.065,0 -11,-4.935 -11,-11c0,-6.065 4.935,-11 11,-11c6.065,0 11,4.935 11,11c0,6.065 -4.935,11 -11,11m0,-23c-6.617,0 -12,5.383 -12,12c0,6.617 5.383,12 12,12c6.617,0 12,-5.383 12,-12c0,-6.617 -5.383,-12 -12,-12" /><path d="M12,11c0.551,0 1,0.448 1,1c0,0.552 -0.449,1 -1,1c-0.551,0 -1,-0.448 -1,-1c0,-0.552 0.449,-1 1,-1m0,3c1.103,0 2,-0.897 2,-2c0,-0.69 -0.353,-1.301 -0.887,-1.66l2.982,-6.918c0.109,-0.254 -0.008,-0.548 -0.262,-0.657c-0.252,-0.113 -0.547,0.006 -0.656,0.26l-3.013,6.992c-0.055,-0.005 -0.108,-0.017 -0.164,-0.017c-1.103,0 -2,0.897 -2,2c0,1.103 0.897,2 2,2" /><path d="M4.943,12.185c0,-0.276 -0.224,-0.5 -0.5,-0.5l-2,0c-0.276,0 -0.5,0.224 -0.5,0.5c0,0.276 0.224,0.5 0.5,0.5l2,0c0.276,0 0.5,-0.224 0.5,-0.5" /><path d="M4.879,14.408l-1.848,0.765c-0.255,0.105 -0.376,0.398 -0.27,0.653c0.079,0.192 0.265,0.309 0.462,0.309c0.064,0 0.129,-0.012 0.191,-0.039l1.848,-0.764c0.255,-0.106 0.376,-0.399 0.27,-0.653c-0.105,-0.255 -0.399,-0.377 -0.653,-0.271" /><path d="M20.967,15.174l-1.847,-0.766c-0.254,-0.106 -0.548,0.016 -0.653,0.271c-0.106,0.255 0.015,0.548 0.271,0.653l1.846,0.766c0.063,0.026 0.128,0.038 0.192,0.038c0.195,0 0.382,-0.116 0.462,-0.309c0.105,-0.255 -0.016,-0.548 -0.271,-0.653" /><path d="M19,12c0,0.276 0.224,0.5 0.5,0.5l1.999,0.001c0.276,0 0.5,-0.224 0.5,-0.5c0,-0.276 -0.224,-0.5 -0.499,-0.5l-2,-0.001c-0.276,0 -0.5,0.224 -0.5,0.5" /><path d="M18.467,9.321c0.08,0.192 0.266,0.309 0.462,0.309c0.064,0 0.129,-0.012 0.191,-0.038l1.848,-0.765c0.255,-0.106 0.376,-0.399 0.27,-0.653c-0.105,-0.255 -0.398,-0.378 -0.653,-0.271l-1.847,0.765c-0.255,0.105 -0.376,0.398 -0.271,0.653" /><path d="M11.943,5.185c0.276,0 0.5,-0.224 0.5,-0.5l0,-2c0,-0.276 -0.224,-0.5 -0.5,-0.5c-0.276,0 -0.5,0.224 -0.5,0.5l0,2c0,0.276 0.224,0.5 0.5,0.5" /><path d="M8.668,5.262c0.08,0.192 0.266,0.309 0.462,0.309c0.064,0 0.129,-0.012 0.191,-0.038c0.255,-0.106 0.376,-0.399 0.271,-0.654l-0.765,-1.847c-0.105,-0.255 -0.398,-0.377 -0.653,-0.271c-0.255,0.105 -0.376,0.398 -0.271,0.653l0.765,1.848Z" /><path d="M7.05,6.343l-1.413,-1.414c-0.195,-0.195 -0.512,-0.195 -0.707,0c-0.195,0.195 -0.195,0.512 0,0.707l1.413,1.414c0.098,0.098 0.226,0.147 0.353,0.147c0.128,0 0.256,-0.049 0.354,-0.147c0.195,-0.195 0.195,-0.512 0,-0.707" /><path d="M5.262,8.668l-1.847,-0.766c-0.254,-0.106 -0.548,0.016 -0.653,0.271c-0.106,0.255 0.015,0.548 0.271,0.653l1.846,0.766c0.063,0.026 0.128,0.038 0.192,0.038c0.195,0 0.382,-0.116 0.462,-0.309c0.105,-0.255 -0.016,-0.548 -0.271,-0.653" /><path d="M16,19l-8,0l0,-2l8,0l0,2Zm0.5,-3l-9,0c-0.276,0 -0.5,0.224 -0.5,0.5l0,3c0,0.276 0.224,0.5 0.5,0.5l9,0c0.276,0 0.5,-0.224 0.5,-0.5l0,-3c0,-0.276 -0.224,-0.5 -0.5,-0.5" /><path d="M19.077,5.003c-0.195,-0.195 -0.512,-0.195 -0.707,0l-1.413,1.414c-0.195,0.195 -0.195,0.512 0,0.707c0.098,0.098 0.225,0.147 0.353,0.147c0.128,0 0.256,-0.049 0.354,-0.147l1.413,-1.414c0.195,-0.195 0.195,-0.512 0,-0.707" /></svg>