<svg xmlns="http://www.w3.org/2000/svg" viewBox="0 0 24 24" style="fill-rule:evenodd;clip-rule:evenodd;stroke-linejoin:round;stroke-miterlimit:1.41421;"><path d="M17.006,11.207l-1.207,0l0,-1.207l1.207,0l0,1.207Zm0.5,-2.207l-2.207,0c-0.276,0 -0.5,0.224 -0.5,0.5l0,2.207c0,0.276 0.224,0.5 0.5,0.5l2.207,0c0.276,0 0.5,-0.224 0.5,-0.5l0,-2.207c0,-0.276 -0.224,-0.5 -0.5,-0.5" /><path d="M12.625,15.405l-1.207,0l0,-1.207l1.207,0l0,1.207Zm0.5,-2.207l-2.207,0c-0.276,0 -0.5,0.224 -0.5,0.5l0,2.207c0,0.276 0.224,0.5 0.5,0.5l2.207,0c0.276,0 0.5,-0.224 0.5,-0.5l0,-2.207c0,-0.276 -0.224,-0.5 -0.5,-0.5" /><path d="M17.006,19.5l-1.207,0l0,-1.207l1.207,0l0,1.207Zm0.5,-2.207l-2.207,0c-0.276,0 -0.5,0.224 -0.5,0.5l0,2.207c0,0.276 0.224,0.5 0.5,0.5l2.207,0c0.276,0 0.5,-0.224 0.5,-0.5l0,-2.207c0,-0.276 -0.224,-0.5 -0.5,-0.5" /><path d="M12.625,11.207l-1.207,0l0,-1.207l1.207,0l0,1.207Zm0.5,-2.207l-2.207,0c-0.276,0 -0.5,0.224 -0.5,0.5l0,2.207c0,0.276 0.224,0.5 0.5,0.5l2.207,0c0.276,0 0.5,-0.224 0.5,-0.5l0,-2.207c0,-0.276 -0.224,-0.5 -0.5,-0.5" /><path d="M12.625,19.5l-1.207,0l0,-1.207l1.207,0l0,1.207Zm0.5,-2.207l-2.207,0c-0.276,0 -0.5,0.224 -0.5,0.5l0,2.207c0,0.276 0.224,0.5 0.5,0.5l2.207,0c0.276,0 0.5,-0.224 0.5,-0.5l0,-2.207c0,-0.276 -0.224,-0.5 -0.5,-0.5" /><path d="M17.006,15.405l-1.207,0l0,-1.207l1.207,0l0,1.207Zm0.5,-2.207l-2.207,0c-0.276,0 -0.5,0.224 -0.5,0.5l0,2.207c0,0.276 0.224,0.5 0.5,0.5l2.207,0c0.276,0 0.5,-0.224 0.5,-0.5l0,-2.207c0,-0.276 -0.224,-0.5 -0.5,-0.5" /><path d="M8.212,15.405l-1.206,0l0,-1.207l1.206,0l0,1.207Zm0.5,-2.207l-2.206,0c-0.277,0 -0.5,0.224 -0.5,0.5l0,2.207c0,0.276 0.223,0.5 0.5,0.5l2.206,0c0.276,0 0.5,-0.224 0.5,-0.5l0,-2.207c0,-0.276 -0.224,-0.5 -0.5,-0.5" /><path d="M7.006,18.293l1.206,0l0,1.207l-1.206,0l0,-1.207Zm1.706,2.207c0.276,0 0.5,-0.224 0.5,-0.5l0,-2.207c0,-0.276 -0.224,-0.5 -0.5,-0.5l-2.206,0c-0.277,0 -0.5,0.224 -0.5,0.5l0,2.207c0,0.276 0.223,0.5 0.5,0.5l2.206,0Z" /><path d="M5,20.885l0,-17.77c0,-1.071 1.236,-1.113 1.375,-1.115l11.25,0c1.288,0 1.371,0.933 1.375,1.115l0,17.77c0,1.072 -1.236,1.114 -1.375,1.115l-11.25,0c-1.288,0 -1.371,-0.933 -1.375,-1.115m12.625,2.115c0.821,0 2.375,-0.442 2.375,-2.115l0,-17.77c0,-0.588 -0.427,-2.115 -2.375,-2.115l-11.25,0c-0.821,0 -2.375,0.442 -2.375,2.115l0,17.77c0,0.588 0.427,2.115 2.375,2.115l11.25,0Z" /><path d="M7,4l10,0l0,2.977l-10,0l0,-2.977Zm-0.5,3.977l11,0c0.276,0 0.5,-0.224 0.5,-0.5l0,-3.977c0,-0.276 -0.224,-0.5 -0.5,-0.5l-11,0c-0.277,0 -0.5,0.224 -0.5,0.5l0,3.977c0,0.276 0.223,0.5 0.5,0.5" /><path d="M8.212,11.207l-1.206,0l0,-1.207l1.206,0l0,1.207Zm0.5,-2.207l-2.206,0c-0.277,0 -0.5,0.224 -0.5,0.5l0,2.207c0,0.276 0.223,0.5 0.5,0.5l2.206,0c0.276,0 0.5,-0.224 0.5,-0.5l0,-2.207c0,-0.276 -0.224,-0.5 -0.5,-0.5" /></svg>