<svg xmlns="http://www.w3.org/2000/svg" viewBox="0 0 24 24" style="fill-rule:evenodd;clip-rule:evenodd;stroke-linejoin:round;stroke-miterlimit:1.41421;"><path d="M6.019,14c-0.552,0 -1,-0.449 -1,-1c0,-0.551 0.448,-1 1,-1c0.552,0 1,0.449 1,1c0,0.551 -0.448,1 -1,1m0,-3c-1.103,0 -2,0.897 -2,2c0,1.103 0.897,2 2,2c1.103,0 2,-0.897 2,-2c0,-1.103 -0.897,-2 -2,-2" /><path d="M18.019,14c-0.552,0 -1,-0.449 -1,-1c0,-0.551 0.448,-1 1,-1c0.552,0 1,0.449 1,1c0,0.551 -0.448,1 -1,1m0,-3c-1.103,0 -2,0.897 -2,2c0,1.103 0.897,2 2,2c1.103,0 2,-0.897 2,-2c0,-1.103 -0.897,-2 -2,-2" /><path d="M22.654,10.948l-0.34,0.128c-0.194,0.074 -0.323,0.261 -0.323,0.469l0.011,7.309c0.007,0.048 0.016,0.095 0.016,0.146c0,0.551 -0.448,1 -1,1c-0.552,0 -1,-0.449 -1,-1l0,-1.5c0,-0.277 -0.223,-0.5 -0.5,-0.5l-15,0c-0.276,0 -0.5,0.223 -0.5,0.5l0,1.5c0,0.551 -0.448,1 -1,1c-0.551,0 -1,-0.449 -1,-1c0,-0.042 -0.006,-0.082 -0.015,-0.121l0.005,-7.335c0,-0.208 -0.128,-0.394 -0.324,-0.468l-0.339,-0.128c-0.207,-0.079 -0.345,-0.298 -0.345,-0.547c0,-0.315 0.224,-0.573 0.501,-0.575l0.359,-0.002c0.205,-0.001 0.389,-0.127 0.463,-0.318l1.987,-5.1c0.216,-0.692 1.014,-1.337 1.693,-1.406l11.987,-0.003c0.727,0.072 1.524,0.719 1.752,1.442l1.93,5.065c0.073,0.193 0.258,0.321 0.465,0.321l0.361,0.001c0.276,0.001 0.502,0.259 0.502,0.575c0,0.249 -0.139,0.469 -0.346,0.547m-0.154,-2.122l-1.814,-4.714c-0.336,-1.073 -1.476,-2 -2.647,-2.112l-12.085,0.002c-1.122,0.11 -2.264,1.035 -2.587,2.074l-1.853,4.75l-0.019,0c-0.824,0.005 -1.495,0.711 -1.495,1.575c0,0.662 0.398,1.257 0.992,1.482l0.016,0.006l-0.005,7.11c0,0.046 0.006,0.09 0.019,0.133c0.069,1.042 0.938,1.868 1.996,1.868c1.103,0 2,-0.897 2,-2l0,-1l14,0l0,1c0,1.103 0.898,2 2,2c1.103,0 2,-0.897 2,-2c0,-0.104 -0.012,-0.204 -0.022,-0.225l-0.005,-6.885l0.017,-0.006c0.593,-0.225 0.992,-0.821 0.992,-1.483c0,-0.867 -0.673,-1.573 -1.5,-1.575" /><path d="M6.839,5l10.322,0l1.601,4l-13.524,0l1.601,-4Zm-2.339,5l15,0c0.166,0 0.321,-0.083 0.414,-0.22c0.093,-0.137 0.112,-0.312 0.05,-0.466l-2,-5c-0.075,-0.189 -0.26,-0.314 -0.464,-0.314l-11,0c-0.204,0 -0.389,0.125 -0.464,0.314l-2,5c-0.061,0.154 -0.043,0.329 0.05,0.466c0.093,0.137 0.248,0.22 0.414,0.22" /></svg>