<svg xmlns="http://www.w3.org/2000/svg" viewBox="0 0 24 24" style="fill-rule:evenodd;clip-rule:evenodd;stroke-linejoin:round;stroke-miterlimit:1.41421;">
<g transform="matrix(1,0,0,1,23,4.967)">
<path d="M0,13.033L-5,13.033L-5,11.033L-1.5,11.033C-1.224,11.033 -1,10.809 -1,10.533L-1,9.033L0,9.033L0,13.033ZM-10,8.533L-10,0.871L-8,0.072L-6,0.871L-6,13.033L-10,13.033L-10,8.533ZM-18,8.783L-14.5,6.158L-11,8.783L-11,13.033L-18,13.033L-18,8.783ZM-22,5.033L-19,5.033L-19,13.033L-22,13.033L-22,5.033ZM-19,2.033L-22,2.033L-22,1.033L-19,1.033L-19,2.033ZM-22,3.033L-19,3.033L-19,4.033L-22,4.033L-22,3.033ZM-4.966,2.925L-2,0.569L-2,8.033L-4.997,8.033L-4.966,2.925ZM-5,9.033L-2,9.033L-2,10.033L-5,10.033L-5,9.033ZM0.5,8.033L-1,8.033L-1,-0.467C-1,-0.659 -1.11,-0.834 -1.283,-0.917C-1.454,-1 -1.66,-0.979 -1.811,-0.859L-5,1.675L-5,0.533C-5,0.328 -5.125,0.145 -5.314,0.069L-7.814,-0.931C-7.934,-0.979 -8.066,-0.979 -8.186,-0.931L-10.686,0.069C-10.875,0.145 -11,0.328 -11,0.533L-11,7.533L-14.2,5.133C-14.378,4.999 -14.622,4.999 -14.8,5.133L-18,7.533L-18,4.533L-18,2.533L-18,0.533C-18,0.257 -18.224,0.033 -18.5,0.033L-22.5,0.033C-22.776,0.033 -23,0.257 -23,0.533L-23,13.533C-23,13.809 -22.776,14.033 -22.5,14.033L0.5,14.033C0.776,14.033 1,13.809 1,13.533L1,8.533C1,8.257 0.776,8.033 0.5,8.033" />
</g>
<g transform="matrix(1,0,0,1,0,5)">
<path d="M9,10L8,10L8,9L9,9L9,10ZM9.5,8L7.5,8C7.224,8 7,8.224 7,8.5L7,10.5C7,10.776 7.224,11 7.5,11L9.5,11C9.776,11 10,10.776 10,10.5L10,8.5C10,8.224 9.776,8 9.5,8" />
</g>
</svg>
