<svg xmlns="http://www.w3.org/2000/svg" viewBox="0 0 24 24" style="fill-rule:evenodd;clip-rule:evenodd;stroke-linejoin:round;stroke-miterlimit:1.41421;"><path d="M7.5,4l12.445,0l-1.895,18l-12.1,0l-1.895,-18l3.445,0Zm1.309,-2l6.382,0l0.5,1l-7.382,0l0.5,-1Zm-7.309,2l1.55,0l1.953,18.553c0.026,0.254 0.241,0.447 0.497,0.447l13,0c0.256,0 0.471,-0.193 0.497,-0.447l1.953,-18.553l1.55,0c0.276,0 0.5,-0.224 0.5,-0.5c0,-0.276 -0.224,-0.5 -0.5,-0.5l-2,0l-3.691,0l-0.862,-1.724c-0.085,-0.169 -0.258,-0.276 -0.447,-0.276l-7,0c-0.189,0 -0.362,0.107 -0.447,0.276l-0.862,1.724l-3.691,0l-2,0c-0.276,0 -0.5,0.224 -0.5,0.5c0,0.276 0.224,0.5 0.5,0.5" /><path d="M8.5,19c0.015,0 0.03,-0.001 0.046,-0.002c0.275,-0.025 0.477,-0.269 0.453,-0.543l-1,-11c-0.026,-0.274 -0.261,-0.466 -0.544,-0.453c-0.275,0.025 -0.477,0.269 -0.453,0.543l1,11c0.024,0.26 0.242,0.455 0.498,0.455" /><path d="M12,19c0.276,0 0.5,-0.224 0.5,-0.5l0,-11c0,-0.276 -0.224,-0.5 -0.5,-0.5c-0.276,0 -0.5,0.224 -0.5,0.5l0,11c0,0.276 0.224,0.5 0.5,0.5" /><path d="M15.455,18.998c0.016,0.001 0.031,0.002 0.046,0.002c0.256,0 0.474,-0.195 0.497,-0.455l1,-11c0.025,-0.275 -0.177,-0.518 -0.452,-0.543c-0.277,-0.015 -0.518,0.179 -0.544,0.453l-1,11c-0.025,0.274 0.178,0.518 0.453,0.543" /></svg>