<svg xmlns="http://www.w3.org/2000/svg" viewBox="0 0 24 24" style="fill-rule:evenodd;clip-rule:evenodd;stroke-linejoin:round;stroke-miterlimit:1.41421;"><path d="M15,23l-6,0l0,-12l6,0l0,12Zm-5,-17c0,-0.135 0.014,-0.269 0.029,-0.354l0.051,-0.169c0.081,-0.269 0.983,-2.071 1.92,-3.889c0.857,1.665 1.836,3.609 1.923,3.9l0.037,0.113c0.026,0.13 0.04,0.264 0.04,0.399c0,0.929 -0.64,1.705 -1.5,1.929l0,-0.429c0,-0.276 -0.224,-0.5 -0.5,-0.5c-0.276,0 -0.5,0.224 -0.5,0.5l0,0.429c-0.86,-0.224 -1.5,-1 -1.5,-1.929m-1.5,4c-0.276,0 -0.5,0.224 -0.5,0.5l0,13c0,0.276 0.224,0.5 0.5,0.5l7,0c0.276,0 0.5,-0.224 0.5,-0.5l0,-13c0,-0.276 -0.224,-0.5 -0.5,-0.5l-3,0l0,-1.051c1.416,-0.239 2.5,-1.466 2.5,-2.949c0,-0.202 -0.021,-0.404 -0.072,-0.646l-0.044,-0.143c-0.135,-0.491 -1.902,-3.906 -2.441,-4.941c-0.007,-0.016 -0.021,-0.025 -0.031,-0.039c-0.018,-0.029 -0.039,-0.055 -0.063,-0.08c-0.025,-0.024 -0.051,-0.045 -0.079,-0.063c-0.015,-0.009 -0.024,-0.024 -0.04,-0.031c-0.012,-0.007 -0.027,-0.006 -0.041,-0.012c-0.032,-0.013 -0.063,-0.022 -0.096,-0.027c-0.031,-0.006 -0.061,-0.011 -0.092,-0.011c-0.032,0 -0.063,0.005 -0.096,0.011c-0.032,0.006 -0.061,0.014 -0.092,0.026c-0.014,0.006 -0.03,0.006 -0.043,0.013c-0.017,0.008 -0.027,0.023 -0.041,0.033c-0.028,0.017 -0.052,0.037 -0.077,0.06c-0.025,0.026 -0.046,0.052 -0.065,0.081c-0.009,0.014 -0.023,0.023 -0.03,0.039c-0.539,1.035 -2.306,4.45 -2.437,4.927l-0.058,0.202c-0.041,0.197 -0.062,0.399 -0.062,0.601c0,1.483 1.084,2.71 2.5,2.949l0,1.051l-3,0Z" /></svg>