<svg xmlns="http://www.w3.org/2000/svg" viewBox="0 0 24 24" style="fill-rule:evenodd;clip-rule:evenodd;stroke-linejoin:round;stroke-miterlimit:1.41421;">
<g transform="matrix(1,0,0,1,20,2.5)">
<path d="M0,19C0,19.276 -0.225,19.5 -0.5,19.5L-15.5,19.5C-15.775,19.5 -16,19.276 -16,19L-16,0C-16,-0.276 -15.775,-0.5 -15.5,-0.5L-0.5,-0.5C-0.225,-0.5 0,-0.276 0,0L0,19ZM1,0C1,-0.827 0.327,-1.5 -0.5,-1.5L-15.5,-1.5C-16.327,-1.5 -17,-0.827 -17,0L-17,19C-17,19.827 -16.327,20.5 -15.5,20.5L-0.5,20.5C0.327,20.5 1,19.827 1,19L1,0Z" />
</g>
<g transform="matrix(1,0,0,1,17.5,5)">
<path d="M0,-1L-11,-1C-11.276,-1 -11.5,-0.776 -11.5,-0.5C-11.5,-0.224 -11.276,0 -11,0L0,0C0.276,0 0.5,-0.224 0.5,-0.5C0.5,-0.776 0.276,-1 0,-1" />
</g>
<g transform="matrix(1,0,0,1,17.5,8)">
<path d="M0,-1L-11,-1C-11.276,-1 -11.5,-0.776 -11.5,-0.5C-11.5,-0.224 -11.276,0 -11,0L0,0C0.276,0 0.5,-0.224 0.5,-0.5C0.5,-0.776 0.276,-1 0,-1" />
</g>
<g transform="matrix(1,0,0,1,17.1465,18.8055)">
<path d="M0,-7.659L-6.646,-1.013L-10.293,-4.659C-10.488,-4.854 -10.805,-4.854 -11,-4.659C-11.195,-4.464 -11.195,-4.147 -11,-3.952L-7,0.048C-6.902,0.146 -6.774,0.195 -6.646,0.195C-6.519,0.195 -6.391,0.146 -6.293,0.048L0.707,-6.952C0.902,-7.147 0.902,-7.464 0.707,-7.659C0.512,-7.854 0.195,-7.854 0,-7.659" /></g>
</svg>
