<svg xmlns="http://www.w3.org/2000/svg" viewBox="0 0 24 24" style="fill-rule:evenodd;clip-rule:evenodd;stroke-linejoin:round;stroke-miterlimit:1.41421;"><path d="M6.019,12c0.552,0 1,0.449 1,1c0,0.551 -0.448,1 -1,1c-0.552,0 -1,-0.449 -1,-1c0,-0.551 0.448,-1 1,-1m0,3c1.103,0 2,-0.897 2,-2c0,-1.103 -0.897,-2 -2,-2c-1.103,0 -2,0.897 -2,2c0,1.103 0.897,2 2,2" /><path d="M18.019,14c-0.552,0 -1,-0.449 -1,-1c0,-0.551 0.448,-1 1,-1c0.552,0 1,0.449 1,1c0,0.551 -0.448,1 -1,1m0,-3c-1.103,0 -2,0.897 -2,2c0,1.103 0.897,2 2,2c1.103,0 2,-0.897 2,-2c0,-1.103 -0.897,-2 -2,-2" /><path d="M5.238,9l1.601,-4l10.322,0l1.6,4l-13.523,0Zm17.416,1.948l-0.34,0.129c-0.194,0.073 -0.323,0.26 -0.323,0.468l0.011,7.309c0.007,0.048 0.016,0.096 0.016,0.146c0,0.551 -0.448,1 -1,1c-0.551,0 -1,-0.449 -1,-1l0,-1.5c0,-0.276 -0.223,-0.5 -0.5,-0.5l-7.21,0l1.639,-3.276c0.077,-0.155 0.069,-0.339 -0.021,-0.487c-0.092,-0.147 -0.253,-0.237 -0.426,-0.237l-2.279,0l1.125,-3l7.154,0c0.166,0 0.321,-0.083 0.414,-0.22c0.093,-0.137 0.111,-0.312 0.05,-0.466l-2,-5c-0.076,-0.189 -0.26,-0.314 -0.464,-0.314l-11,0c-0.204,0 -0.389,0.125 -0.464,0.314l-2,5c-0.062,0.154 -0.043,0.329 0.05,0.466c0.092,0.137 0.248,0.22 0.414,0.22l6.779,0l-1.247,3.324c-0.058,0.154 -0.036,0.326 0.057,0.461c0.093,0.134 0.247,0.215 0.411,0.215l2.191,0l-1.5,3l-6.673,0c-0.276,0 -0.5,0.224 -0.5,0.5l0,1.5c0,0.551 -0.448,1 -1,1c-0.551,0 -1,-0.449 -1,-1c0,-0.041 -0.005,-0.08 -0.014,-0.117l0.004,-7.339c0,-0.208 -0.128,-0.394 -0.324,-0.468l-0.339,-0.128c-0.207,-0.078 -0.345,-0.298 -0.345,-0.547c0,-0.315 0.224,-0.573 0.501,-0.574l0.359,-0.002c0.205,-0.001 0.389,-0.128 0.463,-0.319l1.987,-5.099c0.216,-0.693 1.014,-1.338 1.693,-1.407l11.987,-0.002c0.727,0.071 1.524,0.718 1.752,1.441l1.93,5.065c0.073,0.193 0.258,0.321 0.465,0.322l0.361,0.001c0.276,0 0.502,0.258 0.502,0.574c0,0.249 -0.139,0.469 -0.346,0.547m-0.154,-2.121l-1.814,-4.715c-0.336,-1.073 -1.476,-2 -2.647,-2.112l-12.085,0.002c-1.122,0.11 -2.264,1.035 -2.587,2.074l-1.853,4.751l-0.019,0c-0.824,0.004 -1.495,0.711 -1.495,1.574c0,0.662 0.398,1.258 0.992,1.482l0.012,7.117c0,0.046 0.006,0.091 0.018,0.133c0.07,1.041 0.939,1.867 1.996,1.867c1.103,0 2,-0.897 2,-2l0,-1l14,0l0,1c0,1.103 0.898,2 2,2c1.103,0 2,-0.897 2,-2c0,-0.104 -0.012,-0.204 -0.022,-0.225l-0.005,-6.885l0.017,-0.006c0.593,-0.225 0.992,-0.821 0.992,-1.483c0,-0.866 -0.673,-1.572 -1.5,-1.574" /></svg>