<svg xmlns="http://www.w3.org/2000/svg" viewBox="0 0 24 24" style="fill-rule:evenodd;clip-rule:evenodd;stroke-linejoin:round;stroke-miterlimit:1.41421;"><path d="M22.844,12.486l-0.823,1.011c-0.452,0.556 -0.707,1.51 -0.594,2.217l0.206,1.286c0.054,0.33 -0.174,0.723 -0.486,0.842l-1.217,0.465c-0.659,0.251 -1.371,0.963 -1.622,1.621l-0.466,1.219c-0.118,0.313 -0.504,0.535 -0.842,0.486l-1.286,-0.208c-0.713,-0.11 -1.66,0.144 -2.217,0.595l-1.01,0.823c-0.26,0.209 -0.713,0.209 -0.973,0l-1.011,-0.823c-0.468,-0.38 -1.216,-0.621 -1.862,-0.621c-0.123,0 -0.242,0.009 -0.355,0.027l-1.287,0.207c-0.331,0.049 -0.722,-0.173 -0.842,-0.487l-0.464,-1.217c-0.251,-0.659 -0.963,-1.371 -1.621,-1.622l-1.219,-0.466c-0.313,-0.118 -0.539,-0.511 -0.487,-0.841l0.208,-1.286c0.113,-0.707 -0.142,-1.661 -0.594,-2.217l-0.823,-1.011c-0.21,-0.259 -0.21,-0.714 0,-0.973l0.823,-1.01c0.452,-0.557 0.707,-1.51 0.593,-2.217l-0.207,-1.287c-0.052,-0.329 0.174,-0.723 0.488,-0.842l1.217,-0.465c0.659,-0.251 1.371,-0.963 1.622,-1.621l0.465,-1.219c0.119,-0.311 0.5,-0.535 0.842,-0.486l1.286,0.208c0.714,0.111 1.662,-0.144 2.217,-0.595l1.011,-0.823c0.26,-0.209 0.713,-0.209 0.973,0l1.01,0.823c0.557,0.452 1.513,0.708 2.217,0.594l1.287,-0.207c0.326,-0.049 0.723,0.174 0.842,0.487l0.465,1.217c0.251,0.659 0.963,1.371 1.621,1.622l1.219,0.466c0.311,0.118 0.539,0.512 0.486,0.842l-0.208,1.286c-0.112,0.707 0.143,1.66 0.595,2.217l0.823,1.01c0.21,0.259 0.21,0.714 0,0.973m0.775,-1.604l-0.823,-1.01c-0.266,-0.329 -0.449,-1.01 -0.383,-1.428l0.208,-1.286c0.127,-0.798 -0.363,-1.649 -1.117,-1.935l-1.219,-0.465c-0.395,-0.151 -0.892,-0.648 -1.044,-1.044l-0.463,-1.217c-0.288,-0.756 -1.142,-1.252 -1.936,-1.117l-1.286,0.206c-0.418,0.067 -1.1,-0.116 -1.428,-0.382l-1.011,-0.823c-0.627,-0.51 -1.607,-0.51 -2.234,0l-1.011,0.823c-0.328,0.266 -1.006,0.445 -1.427,0.383l-1.286,-0.207c-0.794,-0.135 -1.648,0.36 -1.935,1.116l-0.465,1.219c-0.151,0.395 -0.648,0.892 -1.045,1.043l-1.217,0.464c-0.756,0.288 -1.247,1.139 -1.117,1.936l0.206,1.286c0.068,0.418 -0.115,1.099 -0.382,1.428l-0.823,1.01c-0.509,0.627 -0.509,1.608 0,2.235l0.823,1.011c0.267,0.329 0.45,1.009 0.383,1.427l-0.207,1.285c-0.13,0.798 0.361,1.649 1.116,1.936l1.219,0.465c0.396,0.151 0.893,0.648 1.044,1.045l0.464,1.217c0.288,0.755 1.142,1.257 1.935,1.117l1.287,-0.206c0.415,-0.071 1.099,0.114 1.427,0.382l1.011,0.823c0.314,0.255 0.715,0.382 1.117,0.382c0.402,0 0.804,-0.127 1.117,-0.382l1.011,-0.823c0.328,-0.268 1.003,-0.446 1.428,-0.383l1.285,0.207c0.791,0.135 1.649,-0.362 1.936,-1.116l0.464,-1.219c0.152,-0.396 0.649,-0.893 1.045,-1.044l1.217,-0.464c0.755,-0.287 1.245,-1.138 1.117,-1.936l-0.206,-1.286c-0.067,-0.418 0.116,-1.098 0.382,-1.427l0.823,-1.011c0.509,-0.627 0.509,-1.608 0,-2.235" /><path d="M12,19c-3.859,0 -7,-3.141 -7,-7c0,-3.859 3.141,-7 7,-7c3.859,0 7,3.141 7,7c0,3.859 -3.141,7 -7,7m0,-15c-4.411,0 -8,3.589 -8,8c0,4.411 3.589,8 8,8c4.411,0 8,-3.589 8,-8c0,-4.411 -3.589,-8 -8,-8" /><path d="M8.5,9l7,0c0.276,0 0.5,-0.224 0.5,-0.5c0,-0.276 -0.224,-0.5 -0.5,-0.5l-7,0c-0.276,0 -0.5,0.224 -0.5,0.5c0,0.276 0.224,0.5 0.5,0.5" /><path d="M16.5,11l-9,0c-0.276,0 -0.5,0.224 -0.5,0.5c0,0.276 0.224,0.5 0.5,0.5l9,0c0.276,0 0.5,-0.224 0.5,-0.5c0,-0.276 -0.224,-0.5 -0.5,-0.5" /><path d="M15.5,14l-7,0c-0.276,0 -0.5,0.224 -0.5,0.5c0,0.276 0.224,0.5 0.5,0.5l7,0c0.276,0 0.5,-0.224 0.5,-0.5c0,-0.276 -0.224,-0.5 -0.5,-0.5" /></svg>