<svg xmlns="http://www.w3.org/2000/svg" viewBox="0 0 24 24" style="fill-rule:evenodd;clip-rule:evenodd;stroke-linejoin:round;stroke-miterlimit:1.41421;"><path d="M22,4l0,1.923l-20,0l0,-1.923l3,0l0,0.5c0,0.276 0.224,0.5 0.5,0.5l2,0c0.276,0 0.5,-0.224 0.5,-0.5l0,-0.5l8,0l0,0.5c0,0.276 0.224,0.5 0.5,0.5l2,0c0.276,0 0.5,-0.224 0.5,-0.5l0,-0.5l3,0Zm0,16l-20,0l0,-13.077l20,0l0,13.077Zm-16,-17l1,0l0,1l-1,0l0,-1Zm11,0l1,0l0,1l-1,0l0,-1Zm1.5,-1l-2,0c-0.276,0 -0.5,0.224 -0.5,0.5l0,0.5l-8,0l0,-0.5c0,-0.276 -0.224,-0.5 -0.5,-0.5l-2,0c-0.276,0 -0.5,0.224 -0.5,0.5l0,0.5l-3.5,0c-0.276,0 -0.5,0.224 -0.5,0.5l0,17c0,0.276 0.224,0.5 0.5,0.5l21,0c0.276,0 0.5,-0.224 0.5,-0.5l0,-17c0,-0.276 -0.224,-0.5 -0.5,-0.5l-3.5,0l0,-0.5c0,-0.276 -0.224,-0.5 -0.5,-0.5" /><path d="M5,10l2,0l0,2l-2,0l0,-2Zm-0.5,3l3,0c0.276,0 0.5,-0.224 0.5,-0.5l0,-3c0,-0.276 -0.224,-0.5 -0.5,-0.5l-3,0c-0.276,0 -0.5,0.224 -0.5,0.5l0,3c0,0.276 0.224,0.5 0.5,0.5" /><path d="M5,15l2,0l0,2l-2,0l0,-2Zm-0.5,3l3,0c0.276,0 0.5,-0.224 0.5,-0.5l0,-3c0,-0.276 -0.224,-0.5 -0.5,-0.5l-3,0c-0.276,0 -0.5,0.224 -0.5,0.5l0,3c0,0.276 0.224,0.5 0.5,0.5" /><path d="M11,10l2,0l0,2l-2,0l0,-2Zm-0.5,3l3,0c0.276,0 0.5,-0.224 0.5,-0.5l0,-3c0,-0.276 -0.224,-0.5 -0.5,-0.5l-3,0c-0.276,0 -0.5,0.224 -0.5,0.5l0,3c0,0.276 0.224,0.5 0.5,0.5" /><path d="M11,15l2,0l0,2l-2,0l0,-2Zm-0.5,3l3,0c0.276,0 0.5,-0.224 0.5,-0.5l0,-3c0,-0.276 -0.224,-0.5 -0.5,-0.5l-3,0c-0.276,0 -0.5,0.224 -0.5,0.5l0,3c0,0.276 0.224,0.5 0.5,0.5" /><path d="M17,10l2,0l0,2l-2,0l0,-2Zm-0.5,3l3,0c0.276,0 0.5,-0.224 0.5,-0.5l0,-3c0,-0.276 -0.224,-0.5 -0.5,-0.5l-3,0c-0.276,0 -0.5,0.224 -0.5,0.5l0,3c0,0.276 0.224,0.5 0.5,0.5" /><path d="M17,15l2,0l0,2l-2,0l0,-2Zm-0.5,3l3,0c0.276,0 0.5,-0.224 0.5,-0.5l0,-3c0,-0.276 -0.224,-0.5 -0.5,-0.5l-3,0c-0.276,0 -0.5,0.224 -0.5,0.5l0,3c0,0.276 0.224,0.5 0.5,0.5" /></svg>