<svg xmlns="http://www.w3.org/2000/svg" viewBox="0 0 24 24" style="fill-rule:evenodd;clip-rule:evenodd;stroke-linejoin:round;stroke-miterlimit:1.41421;"><path d="M19,16l0,-0.762l1.904,0.762l-1.904,0Zm-1,0l-5.029,0c-0.026,0 -0.047,0.011 -0.071,0.014c-0.459,-2.285 -2.481,-4.014 -4.9,-4.014c-2.421,0 -4.443,1.73 -4.9,4.02c-0.034,-0.007 -0.063,-0.02 -0.097,-0.02l-2.003,0l0,-12l17,0l0,12Zm-10,5c-2.206,0 -4,-1.794 -4,-4c0,-2.206 1.794,-4 4,-4c2.206,0 4,1.794 4,4c0,2.206 -1.794,4 -4,4m15.5,-8c-0.276,0 -0.5,0.224 -0.5,0.5l0,2.262l-4,-1.6l0,-10.662c0,-0.276 -0.224,-0.5 -0.5,-0.5l-18,0c-0.276,0 -0.5,0.224 -0.5,0.5l0,13c0,0.276 0.224,0.5 0.5,0.5l2.5,0c0,2.757 2.243,5 5,5c2.757,0 5,-2.243 5,-5l10.5,0c0.092,0 0.174,-0.031 0.248,-0.075c0.018,-0.01 0.032,-0.021 0.048,-0.032c0.071,-0.054 0.132,-0.122 0.166,-0.206c0.001,0 0.002,0 0.002,-0.001c0.01,-0.024 0.008,-0.048 0.014,-0.073c0.008,-0.037 0.022,-0.073 0.022,-0.113l0,-3c0,-0.276 -0.224,-0.5 -0.5,-0.5" /><path d="M8,18c-0.552,0 -1,-0.448 -1,-1c0,-0.552 0.448,-1 1,-1c0.552,0 1,0.448 1,1c0,0.552 -0.448,1 -1,1m0,-3c-1.103,0 -2,0.897 -2,2c0,1.103 0.897,2 2,2c1.103,0 2,-0.897 2,-2c0,-1.103 -0.897,-2 -2,-2" /></svg>