<svg xmlns="http://www.w3.org/2000/svg" viewBox="0 0 24 24" style="fill-rule:evenodd;clip-rule:evenodd;stroke-linejoin:round;stroke-miterlimit:1.41421;"><path d="M23,7.5c0,0.276 -0.224,0.5 -0.5,0.5l-5,0c-0.276,0 -0.5,0.224 -0.5,0.5l0,6c0,0.276 0.224,0.5 0.5,0.5l4.5,0l0,2.5c0,0.276 -0.224,0.5 -0.5,0.5l-1,0c-0.018,0 -0.033,0.008 -0.05,0.01c-0.23,-1.143 -1.241,-2.007 -2.45,-2.007c-1.209,0 -2.22,0.864 -2.45,2.007c-0.017,-0.002 -0.032,-0.01 -0.05,-0.01l-0.5,0l0,-9.5c0,-0.276 -0.224,-0.5 -0.5,-0.5l-5,0c-0.276,0 -0.5,0.224 -0.5,0.5l0,9.5l-1.5,0c-0.018,0 -0.033,0.008 -0.05,0.01c-0.23,-1.143 -1.241,-2.007 -2.45,-2.007c-1.209,0 -2.22,0.864 -2.45,2.007c-0.017,-0.002 -0.032,-0.01 -0.05,-0.01l-1,0c-0.276,0 -0.5,-0.224 -0.5,-0.5l0,-1l0,-10c0,-0.276 0.224,-0.5 0.5,-0.5l21,0c0.276,0 0.5,0.224 0.5,0.5l0,1Zm-2.194,6.5l-2.806,0l0,-5l1.14,0l1.666,5Zm-2.806,6.003c-0.827,0 -1.5,-0.673 -1.5,-1.5c0,-0.827 0.673,-1.5 1.5,-1.5c0.827,0 1.5,0.673 1.5,1.5c0,0.827 -0.673,1.5 -1.5,1.5m-4,-2.003l-4,0l0,-9l4,0l0,9Zm-9,2.003c-0.827,0 -1.5,-0.673 -1.5,-1.5c0,-0.827 0.673,-1.5 1.5,-1.5c0.827,0 1.5,0.673 1.5,1.5c0,0.827 -0.673,1.5 -1.5,1.5m17.5,-15.003l-21,0c-0.827,0 -1.5,0.673 -1.5,1.5l0,11c0,0.827 0.673,1.5 1.5,1.5l1,0c0.018,0 0.032,-0.008 0.049,-0.01c0.227,1.146 1.239,2.013 2.451,2.013c1.212,0 2.224,-0.867 2.451,-2.013c0.017,0.002 0.031,0.01 0.049,0.01l8,0c0.018,0 0.032,-0.008 0.049,-0.01c0.227,1.146 1.239,2.013 2.451,2.013c1.212,0 2.224,-0.867 2.451,-2.013c0.017,0.002 0.031,0.01 0.049,0.01l1,0c0.827,0 1.5,-0.673 1.5,-1.5l0,-3c0,-0.276 -0.224,-0.5 -0.5,-0.5l-0.64,0l-1.667,-5l2.307,0c0.827,0 1.5,-0.673 1.5,-1.5l0,-1c0,-0.827 -0.673,-1.5 -1.5,-1.5" /><path d="M6,12l-3,0l0,-3l3,0l0,3Zm0.5,-4l-4,0c-0.276,0 -0.5,0.224 -0.5,0.5l0,4c0,0.276 0.224,0.5 0.5,0.5l4,0c0.276,0 0.5,-0.224 0.5,-0.5l0,-4c0,-0.276 -0.224,-0.5 -0.5,-0.5" /></svg>