<svg xmlns="http://www.w3.org/2000/svg" viewBox="0 0 24 24" style="fill-rule:evenodd;clip-rule:evenodd;stroke-linejoin:round;stroke-miterlimit:1.41421;"><path d="M6.499,9c0.812,0.002 3.141,0.002 4.71,0l1.291,0c0.549,0 2.065,1.332 3.206,2.616c0.052,0.044 0.537,0.436 1.538,0.583c0.322,0.048 0.67,0.091 1.025,0.134c0.768,0.094 1.562,0.192 2.208,0.35c0.398,0.341 0.864,0.907 0.986,1.752c0.089,0.608 -0.755,1.484 -0.963,1.565l-0.551,0c0.033,-0.162 0.051,-0.329 0.051,-0.5c0,-1.378 -1.121,-2.5 -2.5,-2.5c-1.379,0 -2.5,1.122 -2.5,2.5c0,0.171 0.018,0.338 0.051,0.5l-7.102,0c0.033,-0.162 0.051,-0.329 0.051,-0.5c0,-1.378 -1.121,-2.5 -2.5,-2.5c-1.379,0 -2.5,1.122 -2.5,2.5c0,0.055 0.013,0.106 0.017,0.16c-1.002,-0.613 -1.017,-0.973 -1.017,-1.16l-0.012,-1.913c0.173,-0.494 2.859,-3.587 4.511,-3.587m11.001,8c-0.827,0 -1.5,-0.673 -1.5,-1.5c0,-0.827 0.673,-1.5 1.5,-1.5c0.827,0 1.5,0.673 1.5,1.5c0,0.827 -0.673,1.5 -1.5,1.5m-12,0c-0.827,0 -1.5,-0.673 -1.5,-1.5c0,-0.827 0.673,-1.5 1.5,-1.5c0.827,0 1.5,0.673 1.5,1.5c0,0.827 -0.673,1.5 -1.5,1.5m-2.224,-0.053c0.073,0.036 0.149,0.053 0.224,0.053c0.004,0 0.007,-0.003 0.01,-0.003c0.457,0.606 1.175,1.003 1.99,1.003c0.814,0 1.533,-0.397 1.989,-1.002c0.004,0 0.007,0.002 0.011,0.002l8,0c0.004,0 0.007,-0.002 0.011,-0.002c0.456,0.605 1.175,1.002 1.989,1.002c0.824,0 1.55,-0.406 2.006,-1.022c0.036,0.008 0.071,0.022 0.11,0.022l0.884,0c0.49,0 1.019,-0.549 1.223,-0.785c0.259,-0.3 0.851,-1.09 0.73,-1.924c-0.139,-0.956 -0.647,-1.828 -1.433,-2.456c-0.054,-0.043 -0.118,-0.075 -0.185,-0.092c-0.728,-0.192 -1.601,-0.299 -2.444,-0.403c-0.347,-0.042 -0.687,-0.084 -1.002,-0.13c-0.688,-0.101 -0.991,-0.319 -0.99,-0.313c-0.608,-0.688 -2.658,-2.897 -3.899,-2.897l-1.292,0c-1.569,0.001 -3.896,0.002 -4.708,0c-2.185,0 -5.5,3.68 -5.5,4.5l0,2c0,0.633 0.176,1.397 2.276,2.447" /></svg>