<svg xmlns="http://www.w3.org/2000/svg" viewBox="0 0 24 24" style="fill-rule:evenodd;clip-rule:evenodd;stroke-linejoin:round;stroke-miterlimit:1.41421;"><path d="M2,8c0,-1.047 0.953,-2 2,-2l4,0l0,-0.5c0,-1.24 0.906,-1.5 1.667,-1.5l4.666,0c0.761,0 1.667,0.26 1.667,1.5l0,0.5l4,0c1.047,0 2,0.953 2,2l0,10c0,1.047 -0.953,2 -2,2l-16,0c-1.047,0 -2,-0.953 -2,-2l0,-10Zm2,13l16,0c1.598,0 3,-1.402 3,-3l0,-10c0,-1.598 -1.402,-3 -3,-3l-3.039,0c-0.2,-1.247 -1.169,-2 -2.628,-2l-4.666,0c-1.459,0 -2.428,0.753 -2.628,2l-3.039,0c-1.598,0 -3,1.402 -3,3l0,10c0,1.598 1.402,3 3,3" /><path d="M19.5,8c0.276,0 0.5,-0.224 0.5,-0.5c0,-0.276 -0.224,-0.5 -0.5,-0.5c-0.276,0 -0.5,0.224 -0.5,0.5c0,0.276 0.224,0.5 0.5,0.5" /><path d="M12,8c2.757,0 5,2.243 5,5c0,2.757 -2.243,5 -5,5c-2.757,0 -5,-2.243 -5,-5c0,-2.757 2.243,-5 5,-5m0,11c3.309,0 6,-2.691 6,-6c0,-3.309 -2.691,-6 -6,-6c-3.309,0 -6,2.691 -6,6c0,3.309 2.691,6 6,6" /><path d="M12,11c1.103,0 2,0.897 2,2c0,1.103 -0.897,2 -2,2c-1.103,0 -2,-0.897 -2,-2c0,-1.103 0.897,-2 2,-2m0,5c1.654,0 3,-1.346 3,-3c0,-1.654 -1.346,-3 -3,-3c-1.654,0 -3,1.346 -3,3c0,1.654 1.346,3 3,3" /></svg>