<svg xmlns="http://www.w3.org/2000/svg" viewBox="0 0 24 24" style="fill-rule:evenodd;clip-rule:evenodd;stroke-linejoin:round;stroke-miterlimit:1.41421;">
                <g transform="matrix(1,0,0,1,21.9785,2.9413)">
                    <path d="M0,17.837C-0.031,17.892 -0.128,18.059 -0.479,18.059L-19.479,18.059C-19.829,18.059 -19.926,17.892 -19.957,17.837C-20.116,17.564 -20.054,17.072 -19.807,16.641L-10.565,0.528C-10.214,-0.085 -9.743,-0.085 -9.392,0.528L-0.15,16.641C0.097,17.072 0.159,17.564 0,17.837M-8.524,0.031C-9.243,-1.222 -10.714,-1.222 -11.433,0.031L-20.674,16.143C-21.109,16.903 -21.167,17.744 -20.823,18.338C-20.554,18.803 -20.076,19.059 -19.479,19.059L-0.479,19.059C0.119,19.059 0.597,18.803 0.866,18.338C1.21,17.744 1.152,16.903 0.717,16.144L-8.524,0.031Z" />
                </g>
                <g transform="matrix(1,0,0,1,12,15.9996)">
                    <path d="M0,-7.003C-0.276,-7.003 -0.5,-6.779 -0.5,-6.503L-0.5,-0.5C-0.5,-0.223 -0.276,0 0,0C0.276,0 0.5,-0.223 0.5,-0.5L0.5,-6.503C0.5,-6.779 0.276,-7.003 0,-7.003" />
                </g>
                <g transform="matrix(1,0,0,1,12,19)">
                    <circle cx="0" cy="-0.5" r="0.5"/></g>
</svg>
