<svg xmlns="http://www.w3.org/2000/svg" viewBox="0 0 24 24" style="fill-rule:evenodd;clip-rule:evenodd;stroke-linejoin:round;stroke-miterlimit:1.41421;"><path d="M14.985,15.692c0.098,0.098 0.226,0.146 0.354,0.146c0.127,0 0.255,-0.048 0.353,-0.146c0.195,-0.195 0.195,-0.512 0,-0.707l-3.192,-3.192l0,-7.213c0,-0.276 -0.224,-0.5 -0.5,-0.5c-0.277,0 -0.5,0.224 -0.5,0.5l0,7.42c0,0.132 0.052,0.259 0.146,0.353l3.339,3.339Z" /><path d="M12,0c-0.276,0 -0.5,0.224 -0.5,0.5c0,0.276 0.224,0.5 0.5,0.5c5.896,0 10.71,4.667 10.975,10.5l-2.072,0c-0.276,0 -0.5,0.224 -0.5,0.5c0,0.276 0.224,0.5 0.5,0.5l2.072,0c-0.257,5.666 -4.809,10.218 -10.475,10.475l0,-2.072c0,-0.276 -0.224,-0.5 -0.5,-0.5c-0.276,0 -0.5,0.224 -0.5,0.5l0,2.072c-5.666,-0.257 -10.218,-4.809 -10.475,-10.475l2.072,0c0.276,0 0.5,-0.224 0.5,-0.5c0,-0.276 -0.224,-0.5 -0.5,-0.5l-2.078,0c0.095,-2.125 0.78,-4.146 1.967,-5.82l1.014,-0.992l0,1.812c0,0.276 0.224,0.5 0.5,0.5c0.276,0 0.5,-0.224 0.5,-0.5l0,-3c0,-0.019 -0.009,-0.036 -0.011,-0.054c-0.005,-0.046 -0.01,-0.092 -0.027,-0.134c-0.018,-0.045 -0.047,-0.082 -0.077,-0.119c-0.01,-0.013 -0.015,-0.03 -0.028,-0.043c0,0 -0.001,-0.001 -0.002,-0.001c-0.046,-0.047 -0.102,-0.085 -0.165,-0.111c-0.06,-0.024 -0.123,-0.037 -0.186,-0.037c-0.002,0 -0.003,-0.001 -0.004,-0.001l-3,0c-0.276,0 -0.5,0.224 -0.5,0.5c0,0.276 0.224,0.5 0.5,0.5l1.779,0l-1.05,1.032c-1.458,2.042 -2.229,4.451 -2.229,6.968c0,6.617 5.383,12 12,12c6.617,0 12,-5.383 12,-12c0,-6.617 -5.383,-12 -12,-12" /></svg>