<svg xmlns="http://www.w3.org/2000/svg" viewBox="0 0 24 24" style="fill-rule:evenodd;clip-rule:evenodd;stroke-linejoin:round;stroke-miterlimit:1.41421;"><path d="M2,14.998l20,0l0,1.975l-20,0l0,-1.975Zm8.109,5.003c0.17,-0.324 0.257,-0.693 0.257,-1.055l0,-0.973l3.268,0l0,0.973c0,0.294 0.127,0.69 0.353,1.055l-3.878,0Zm-8.109,-16.002l20,0l0,9.999l-20,0l0,-9.999Zm20.17,13.974c0.457,0 0.83,-0.361 0.83,-0.804l0,-2.662l0,-0.005l0,-0.004l0,-10.695c0,-0.444 -0.373,-0.804 -0.83,-0.804l-20.34,0c-0.457,0 -0.83,0.36 -0.83,0.804l0,13.366c0,0.443 0.373,0.804 0.83,0.804l7.536,0l0,0.973c0,0.011 -0.024,1.055 -0.894,1.055c-0.276,0 -0.5,0.224 -0.5,0.5c0,0.276 0.224,0.5 0.5,0.5l7.028,0c0.276,0 0.5,-0.224 0.5,-0.5c0,-0.276 -0.224,-0.5 -0.5,-0.5c-0.436,0 -0.866,-0.775 -0.866,-1.055l0,-0.973l7.536,0Z" /></svg>