<svg xmlns="http://www.w3.org/2000/svg" viewBox="0 0 24 24" style="fill-rule:evenodd;clip-rule:evenodd;stroke-linejoin:round;stroke-miterlimit:1.41421;">
                <g transform="matrix(1,0,0,1,11.9541,10.9877)">
                        <path d="M0,1.024L0.78,1.024C1.05,1.024 1.268,0.806 1.268,0.537C1.268,0.268 1.05,0.049 0.78,0.049L0,0.049L0,-7.121L6.046,-9.787L6.046,10.862L0,8.714L0,1.024ZM-8.454,12.012L-6.454,12.012C-6.178,12.012 -5.954,11.789 -5.954,11.512L-5.954,-9.988L4.146,-9.988L-0.667,-7.865C-0.84,-7.789 -0.951,-7.619 -0.951,-7.43L-0.951,9.05C-0.951,9.251 -0.824,9.43 -0.635,9.498L6.298,11.96C6.313,11.965 6.328,11.964 6.344,11.968C6.406,11.996 6.474,12.012 6.546,12.012L8.612,12.012C8.889,12.012 9.112,11.789 9.112,11.512C9.112,11.236 8.889,11.012 8.612,11.012L7.046,11.012L7.046,-10.488C7.046,-10.764 6.822,-10.988 6.546,-10.988L-6.454,-10.988C-6.73,-10.988 -6.954,-10.764 -6.954,-10.488L-6.954,11.012L-8.454,11.012C-8.73,11.012 -8.954,11.236 -8.954,11.512C-8.954,11.789 -8.73,12.012 -8.454,12.012" />
                    </g>
</svg>
