<svg xmlns="http://www.w3.org/2000/svg" viewBox="0 0 24 24" style="fill-rule:evenodd;clip-rule:evenodd;stroke-linejoin:round;stroke-miterlimit:1.41421;">
                <g transform="matrix(1,0,0,1,21.979,3.2152)">
                    <path d="M0,17.57C-0.032,17.625 -0.128,17.792 -0.479,17.792L-19.479,17.792C-19.83,17.792 -19.926,17.625 -19.958,17.57C-20.116,17.297 -20.054,16.804 -19.807,16.374L-10.566,0.261C-10.39,-0.045 -10.176,-0.222 -9.979,-0.222C-9.782,-0.221 -9.568,-0.045 -9.392,0.261L-0.151,16.374C0.096,16.804 0.158,17.297 0,17.57M-8.525,-0.237C-8.884,-0.863 -9.414,-1.221 -9.979,-1.222C-10.544,-1.222 -11.074,-0.863 -11.433,-0.237L-20.674,15.876C-21.11,16.636 -21.167,17.477 -20.823,18.072C-20.554,18.536 -20.077,18.792 -19.479,18.792L-0.479,18.792C0.119,18.792 0.596,18.536 0.865,18.072C1.209,17.477 1.152,16.636 0.716,15.876L-8.525,-0.237Z" />
                </g>
                <g transform="matrix(1,0,0,1,14.8535,17.8123)">
                    <path d="M0,-5.659C-0.195,-5.854 -0.512,-5.854 -0.707,-5.659L-2.854,-3.513L-5,-5.659C-5.195,-5.854 -5.512,-5.854 -5.707,-5.659C-5.902,-5.464 -5.902,-5.147 -5.707,-4.952L-3.561,-2.805L-5.707,-0.659C-5.902,-0.464 -5.902,-0.147 -5.707,0.048C-5.609,0.146 -5.481,0.195 -5.354,0.195C-5.226,0.195 -5.098,0.146 -5,0.048L-2.854,-2.098L-0.707,0.048C-0.609,0.146 -0.481,0.195 -0.354,0.195C-0.226,0.195 -0.098,0.146 0,0.048C0.195,-0.147 0.195,-0.464 0,-0.659L-2.146,-2.805L0,-4.952C0.195,-5.147 0.195,-5.464 0,-5.659" />
                </g>
</svg>
