<svg xmlns="http://www.w3.org/2000/svg" viewBox="0 0 24 24" style="fill-rule:evenodd;clip-rule:evenodd;stroke-linejoin:round;stroke-miterlimit:1.41421;">

                <g transform="matrix(1,0,0,1,12,2)">
                    <path d="M0,8C-2.206,8 -4,6.206 -4,4C-4,1.794 -2.206,0 0,0C2.206,0 4,1.794 4,4C4,6.206 2.206,8 0,8M5,4C5,1.243 2.757,-1 0,-1C-2.757,-1 -5,1.243 -5,4C-5,6.757 -2.757,9 0,9C2.757,9 5,6.757 5,4" />
                </g>
                <g transform="matrix(1,0,0,1,0,11)">
                    <path d="M22,10L15,10L15,3L22,3L22,10ZM22.5,2L14.5,2C14.224,2 14,2.224 14,2.5L14,10.5C14,10.776 14.224,11 14.5,11L22.5,11C22.776,11 23,10.776 23,10.5L23,2.5C23,2.224 22.776,2 22.5,2" />
                </g>
                <g transform="matrix(1,0,0,1,2.3701,13.797)">
                    <path d="M0,7.203L3.88,0.552L7.76,7.203L0,7.203ZM9.063,7.952C9.152,7.797 9.152,7.606 9.062,7.451L4.312,-0.692C4.134,-1 3.626,-1 3.448,-0.692L-1.302,7.451C-1.393,7.606 -1.393,7.797 -1.304,7.952C-1.215,8.107 -1.049,8.203 -0.87,8.203L8.63,8.203C8.809,8.203 8.975,8.107 9.063,7.952" />
                </g>
</svg>
