<svg xmlns="http://www.w3.org/2000/svg" viewBox="0 0 24 24" style="fill-rule:evenodd;clip-rule:evenodd;stroke-linejoin:round;stroke-miterlimit:1.41421;">
                <path d="M6,14L1,14L1,10L6,10L6,14ZM7,14.5L7,9.5C7,9.224 6.776,9 6.5,9L0.5,9C0.224,9 0,9.224 0,9.5L0,14.5C0,14.776 0.224,15 0.5,15L6.5,15C6.776,15 7,14.776 7,14.5" />
                <path d="M14.5,14L9.5,14L9.5,10L14.5,10L14.5,14ZM9,9C8.724,9 8.5,9.224 8.5,9.5L8.5,14.5C8.5,14.776 8.724,15 9,15L15,15C15.276,15 15.5,14.776 15.5,14.5L15.5,9.5C15.5,9.224 15.276,9 15,9L9,9Z" />
                <path d="M23,14L18,14L18,10L23,10L23,14ZM23.5,9L17.5,9C17.224,9 17,9.224 17,9.5L17,14.5C17,14.776 17.224,15 17.5,15L23.5,15C23.776,15 24,14.776 24,14.5L24,9.5C24,9.224 23.776,9 23.5,9" />
                <g transform="matrix(1,0,0,1,3.1455,1.1465)">
                    <path d="M0,5.706C0.047,5.753 0.103,5.79 0.163,5.815C0.225,5.84 0.289,5.853 0.354,5.853C0.42,5.853 0.484,5.84 0.546,5.815C0.606,5.79 0.662,5.753 0.709,5.706L2.708,3.707C2.903,3.512 2.903,3.195 2.708,3C2.513,2.805 2.196,2.805 2.001,3L0.854,4.146L0.854,0.853L16.854,0.853L16.854,5.353C16.854,5.63 17.078,5.853 17.354,5.853C17.631,5.853 17.854,5.63 17.854,5.353L17.854,0.353C17.854,0.077 17.631,-0.147 17.354,-0.147L0.354,-0.147C0.078,-0.147 -0.146,0.077 -0.146,0.353L-0.146,4.146L-1.292,3C-1.487,2.805 -1.804,2.805 -1.999,3C-2.194,3.195 -2.194,3.512 -1.999,3.707L0,5.706Z" />
                </g>
                <g transform="matrix(1,0,0,1,20.8535,22.8055)">
                    <path d="M0,-5.659C-0.195,-5.854 -0.512,-5.854 -0.707,-5.659L-2.707,-3.659C-2.902,-3.464 -2.902,-3.147 -2.707,-2.952C-2.512,-2.757 -2.195,-2.757 -2,-2.952L-0.854,-4.098L-0.854,-0.805L-16.854,-0.805L-16.854,-5.305C-16.854,-5.582 -17.077,-5.805 -17.354,-5.805C-17.63,-5.805 -17.854,-5.582 -17.854,-5.305L-17.854,-0.305C-17.854,-0.029 -17.63,0.195 -17.354,0.195L-0.354,0.195C-0.077,0.195 0.146,-0.029 0.146,-0.305L0.146,-4.098L1.293,-2.952C1.391,-2.854 1.519,-2.805 1.646,-2.805C1.774,-2.805 1.902,-2.854 2,-2.952C2.195,-3.147 2.195,-3.464 2,-3.659L0,-5.659Z" />
                </g>
</svg>
