<svg xmlns="http://www.w3.org/2000/svg" viewBox="0 0 24 24" style="fill-rule:evenodd;clip-rule:evenodd;stroke-linejoin:round;stroke-miterlimit:1.41421;">
                <g transform="matrix(1,0,0,1,2.7349,4.9078)">
                    <path d="M0,6.186C-0.289,5.697 -0.505,5.176 -0.647,4.628C-0.05,4.364 0.356,3.774 0.356,3.092C0.356,2.411 -0.05,1.821 -0.647,1.556C-0.505,1.008 -0.289,0.487 0,-0.001C0.608,0.233 1.313,0.102 1.794,-0.379C2.275,-0.86 2.406,-1.564 2.171,-2.173C2.66,-2.462 3.181,-2.678 3.729,-2.82C3.994,-2.222 4.583,-1.817 5.265,-1.817C5.947,-1.817 6.537,-2.223 6.801,-2.82C7.349,-2.678 7.87,-2.462 8.359,-2.173C8.125,-1.564 8.255,-0.86 8.736,-0.379C9.218,0.102 9.921,0.233 10.53,-0.001C10.819,0.487 11.036,1.008 11.177,1.556C10.58,1.821 10.174,2.411 10.174,3.092C10.174,3.774 10.58,4.363 11.177,4.629C11.036,5.176 10.819,5.697 10.53,6.186C9.921,5.951 9.218,6.082 8.736,6.563C8.255,7.045 8.125,7.748 8.359,8.357C7.87,8.646 7.349,8.863 6.802,9.004C6.536,8.407 5.947,8.001 5.265,8.001C4.583,8.001 3.994,8.407 3.729,9.004C3.181,8.863 2.66,8.646 2.171,8.357C2.406,7.748 2.275,7.045 1.794,6.563C1.313,6.082 0.609,5.951 0,6.186M1.008,8.591C1.027,8.729 1.103,8.853 1.218,8.933C2.059,9.517 2.994,9.905 3.996,10.086C4.134,10.113 4.275,10.078 4.387,9.993C4.499,9.908 4.569,9.781 4.583,9.642C4.618,9.277 4.911,9.001 5.265,9.001C5.62,9.001 5.913,9.277 5.948,9.642C5.961,9.781 6.032,9.908 6.143,9.993C6.231,10.059 6.337,10.094 6.445,10.094C6.475,10.094 6.505,10.092 6.534,10.086C7.537,9.905 8.471,9.517 9.313,8.933C9.427,8.853 9.503,8.729 9.522,8.591C9.542,8.453 9.502,8.312 9.413,8.205C9.18,7.922 9.193,7.52 9.443,7.27C9.695,7.021 10.096,7.009 10.377,7.24C10.485,7.329 10.625,7.369 10.764,7.35C10.902,7.331 11.026,7.254 11.106,7.14C11.69,6.298 12.078,5.364 12.259,4.361C12.284,4.224 12.25,4.082 12.166,3.97C12.081,3.859 11.954,3.788 11.814,3.775C11.45,3.74 11.174,3.447 11.174,3.092C11.174,2.738 11.45,2.445 11.814,2.41C11.954,2.396 12.081,2.326 12.166,2.214C12.25,2.103 12.284,1.961 12.259,1.823C12.078,0.82 11.69,-0.115 11.106,-0.955C11.026,-1.07 10.902,-1.146 10.764,-1.165C10.625,-1.187 10.485,-1.145 10.377,-1.056C10.095,-0.823 9.695,-0.836 9.443,-1.086C9.193,-1.336 9.18,-1.737 9.413,-2.02C9.502,-2.128 9.542,-2.268 9.522,-2.406C9.503,-2.545 9.427,-2.669 9.313,-2.749C8.471,-3.333 7.536,-3.721 6.534,-3.902C6.396,-3.925 6.254,-3.893 6.143,-3.808C6.031,-3.724 5.96,-3.596 5.947,-3.457C5.913,-3.092 5.62,-2.817 5.265,-2.817C4.911,-2.817 4.617,-3.092 4.583,-3.457C4.569,-3.596 4.499,-3.724 4.387,-3.808C4.275,-3.893 4.132,-3.927 3.996,-3.902C2.994,-3.721 2.059,-3.333 1.218,-2.749C1.103,-2.669 1.027,-2.545 1.008,-2.406C0.988,-2.268 1.028,-2.128 1.117,-2.02C1.35,-1.737 1.337,-1.336 1.087,-1.086C0.836,-0.835 0.436,-0.823 0.153,-1.056C0.045,-1.145 -0.095,-1.187 -0.233,-1.165C-0.372,-1.146 -0.496,-1.07 -0.576,-0.955C-1.16,-0.114 -1.548,0.821 -1.729,1.823C-1.754,1.961 -1.72,2.103 -1.635,2.214C-1.551,2.326 -1.423,2.396 -1.284,2.41C-0.919,2.445 -0.644,2.738 -0.644,3.092C-0.644,3.447 -0.919,3.74 -1.284,3.774C-1.423,3.788 -1.551,3.858 -1.635,3.97C-1.72,4.081 -1.754,4.223 -1.729,4.361C-1.548,5.363 -1.16,6.298 -0.576,7.14C-0.496,7.254 -0.372,7.331 -0.233,7.35C-0.095,7.369 0.045,7.329 0.153,7.24C0.436,7.008 0.836,7.02 1.087,7.27C1.337,7.52 1.35,7.922 1.117,8.205C1.028,8.312 0.988,8.453 1.008,8.591" />
                </g>
                <g transform="matrix(1,0,0,1,6.5859,9.1589)">
                    <path d="M0,-2.573C0.378,-2.951 0.88,-3.159 1.414,-3.159C1.948,-3.159 2.45,-2.951 2.828,-2.573C3.206,-2.195 3.414,-1.693 3.414,-1.159C3.414,-0.625 3.206,-0.123 2.828,0.255C2.072,1.011 0.756,1.011 0,0.255C-0.378,-0.123 -0.586,-0.625 -0.586,-1.159C-0.586,-1.693 -0.378,-2.195 0,-2.573M1.414,1.841C2.215,1.841 2.969,1.529 3.535,0.962C4.102,0.396 4.414,-0.358 4.414,-1.159C4.414,-1.96 4.102,-2.714 3.535,-3.28C2.402,-4.414 0.426,-4.414 -0.707,-3.28C-1.274,-2.714 -1.586,-1.96 -1.586,-1.159C-1.586,-0.358 -1.274,0.396 -0.707,0.962C-0.141,1.529 0.613,1.841 1.414,1.841" />
                </g>
                <g transform="matrix(1,0,0,1,21.9106,15.8556)">
                    <path d="M0,2.288C-0.082,2.571 -0.194,2.843 -0.336,3.101C-0.783,2.977 -1.271,3.094 -1.616,3.439C-1.961,3.784 -2.077,4.273 -1.954,4.719C-2.212,4.861 -2.484,4.973 -2.767,5.055C-2.996,4.653 -3.423,4.389 -3.911,4.389C-4.398,4.389 -4.825,4.653 -5.054,5.055C-5.337,4.973 -5.609,4.861 -5.867,4.719C-5.745,4.273 -5.86,3.784 -6.205,3.439C-6.55,3.093 -7.041,2.977 -7.485,3.101C-7.627,2.843 -7.739,2.571 -7.821,2.288C-7.42,2.059 -7.155,1.632 -7.155,1.144C-7.155,0.657 -7.419,0.23 -7.821,0.001C-7.739,-0.282 -7.627,-0.554 -7.485,-0.812C-7.039,-0.688 -6.55,-0.804 -6.205,-1.15C-5.86,-1.495 -5.745,-1.984 -5.867,-2.43C-5.609,-2.572 -5.337,-2.684 -5.054,-2.766C-4.825,-2.365 -4.398,-2.1 -3.911,-2.1C-3.423,-2.1 -2.996,-2.365 -2.767,-2.766C-2.484,-2.684 -2.212,-2.572 -1.954,-2.43C-2.077,-1.984 -1.961,-1.495 -1.616,-1.15C-1.271,-0.804 -0.781,-0.688 -0.336,-0.812C-0.194,-0.554 -0.082,-0.282 0,0.001C-0.402,0.23 -0.666,0.657 -0.666,1.144C-0.666,1.632 -0.402,2.059 0,2.288M0.638,0.825C0.777,0.812 0.904,0.741 0.988,0.629C1.072,0.518 1.106,0.376 1.082,0.239C0.952,-0.48 0.675,-1.148 0.26,-1.746C0.181,-1.861 0.056,-1.938 -0.083,-1.957C-0.218,-1.973 -0.361,-1.935 -0.469,-1.846C-0.603,-1.735 -0.792,-1.74 -0.909,-1.857C-1.026,-1.974 -1.031,-2.163 -0.92,-2.297C-0.831,-2.405 -0.791,-2.545 -0.81,-2.684C-0.829,-2.822 -0.905,-2.947 -1.02,-3.026C-1.618,-3.441 -2.286,-3.718 -3.005,-3.848C-3.142,-3.873 -3.284,-3.839 -3.396,-3.754C-3.507,-3.67 -3.578,-3.543 -3.591,-3.404C-3.625,-3.057 -4.196,-3.057 -4.23,-3.404C-4.244,-3.543 -4.314,-3.67 -4.426,-3.754C-4.537,-3.838 -4.677,-3.873 -4.816,-3.848C-5.535,-3.718 -6.203,-3.441 -6.801,-3.026C-6.916,-2.947 -6.993,-2.822 -7.012,-2.684C-7.03,-2.545 -6.991,-2.405 -6.901,-2.297C-6.791,-2.163 -6.795,-1.974 -6.912,-1.857C-7.029,-1.739 -7.218,-1.735 -7.353,-1.846C-7.46,-1.935 -7.596,-1.976 -7.74,-1.956C-7.878,-1.937 -8.002,-1.861 -8.083,-1.746C-8.497,-1.148 -8.773,-0.48 -8.903,0.239C-8.928,0.376 -8.894,0.518 -8.81,0.629C-8.725,0.741 -8.598,0.812 -8.459,0.825C-8.286,0.842 -8.155,0.979 -8.155,1.144C-8.155,1.309 -8.286,1.447 -8.458,1.463C-8.598,1.476 -8.725,1.547 -8.809,1.659C-8.894,1.77 -8.928,1.912 -8.903,2.05C-8.773,2.768 -8.497,3.436 -8.083,4.035C-8.002,4.15 -7.878,4.226 -7.74,4.245C-7.596,4.267 -7.46,4.225 -7.353,4.135C-7.22,4.024 -7.03,4.028 -6.912,4.146C-6.795,4.263 -6.791,4.453 -6.901,4.586C-6.991,4.694 -7.031,4.835 -7.011,4.974C-6.992,5.112 -6.916,5.236 -6.801,5.316C-6.203,5.731 -5.535,6.007 -4.816,6.137C-4.679,6.161 -4.537,6.127 -4.426,6.043C-4.314,5.959 -4.243,5.832 -4.23,5.693C-4.196,5.346 -3.625,5.346 -3.591,5.693C-3.578,5.832 -3.507,5.959 -3.396,6.043C-3.308,6.109 -3.202,6.144 -3.094,6.144C-3.064,6.144 -3.035,6.142 -3.005,6.137C-2.287,6.007 -1.619,5.731 -1.021,5.316C-0.905,5.236 -0.829,5.112 -0.81,4.974C-0.791,4.835 -0.831,4.694 -0.92,4.586C-1.031,4.453 -1.026,4.263 -0.909,4.146C-0.792,4.029 -0.603,4.025 -0.469,4.135C-0.361,4.225 -0.218,4.267 -0.083,4.246C0.056,4.226 0.181,4.15 0.26,4.035C0.676,3.437 0.952,2.769 1.082,2.05C1.106,1.912 1.072,1.77 0.988,1.659C0.903,1.547 0.776,1.476 0.637,1.463C0.464,1.447 0.334,1.309 0.334,1.144C0.334,0.979 0.464,0.842 0.638,0.825" />
                </g>
                <g transform="matrix(1,0,0,1,18,16)">
                    <path d="M0,2C-0.551,2 -1,1.551 -1,1C-1,0.449 -0.551,0 0,0C0.551,0 1,0.449 1,1C1,1.551 0.551,2 0,2M0,-1C-1.103,-1 -2,-0.103 -2,1C-2,2.103 -1.103,3 0,3C1.103,3 2,2.103 2,1C2,-0.103 1.103,-1 0,-1" />
                </g>
</svg>
