<svg xmlns="http://www.w3.org/2000/svg" viewBox="0 0 24 24" style="fill-rule:evenodd;clip-rule:evenodd;stroke-linejoin:round;stroke-miterlimit:1.41421;">
<g transform="matrix(1,0,0,1,20.8535,20.8055)">
<path d="M0,-17.659C-0.195,-17.854 -0.512,-17.854 -0.707,-17.659L-8.854,-9.513L-17,-17.659C-17.195,-17.854 -17.512,-17.854 -17.707,-17.659C-17.902,-17.464 -17.902,-17.147 -17.707,-16.952L-9.561,-8.805L-17.707,-0.659C-17.902,-0.464 -17.902,-0.147 -17.707,0.048C-17.609,0.146 -17.481,0.195 -17.354,0.195C-17.226,0.195 -17.098,0.146 -17,0.048L-8.854,-8.098L-0.707,0.048C-0.609,0.146 -0.481,0.195 -0.354,0.195C-0.226,0.195 -0.098,0.146 0,0.048C0.195,-0.147 0.195,-0.464 0,-0.659L-8.146,-8.805L0,-16.952C0.195,-17.147 0.195,-17.464 0,-17.659" />
</g>
</svg>
