<svg xmlns="http://www.w3.org/2000/svg" viewBox="0 0 24 24" style="fill-rule:evenodd;clip-rule:evenodd;stroke-linejoin:round;stroke-miterlimit:1.41421;">
<g transform="matrix(1,0,0,1,22.8413,10.0607)">
<path d="M0,3.787C-1.108,3.685 -2.17,4.298 -2.606,5.35C-3.043,6.403 -2.723,7.586 -1.869,8.299C-2.589,9.319 -3.464,10.196 -4.479,10.914C-5.191,10.057 -6.375,9.738 -7.431,10.174C-8.485,10.611 -9.096,11.675 -8.994,12.784C-10.218,12.995 -11.458,12.993 -12.689,12.78C-12.589,11.673 -13.2,10.61 -14.252,10.174C-15.306,9.738 -16.489,10.058 -17.201,10.912C-18.221,10.192 -19.098,9.316 -19.816,8.301C-18.959,7.589 -18.639,6.405 -19.076,5.35C-19.513,4.295 -20.583,3.685 -21.686,3.787C-21.896,2.562 -21.895,1.323 -21.682,0.092C-20.583,0.198 -19.512,-0.419 -19.076,-1.472C-18.64,-2.525 -18.959,-3.708 -19.814,-4.42C-19.094,-5.441 -18.218,-6.317 -17.203,-7.035C-16.491,-6.179 -15.308,-5.859 -14.252,-6.296C-13.198,-6.733 -12.587,-7.796 -12.689,-8.905C-11.464,-9.116 -10.225,-9.114 -8.994,-8.901C-9.094,-7.794 -8.483,-6.732 -7.43,-6.296C-6.375,-5.857 -5.193,-6.178 -4.482,-7.033C-3.461,-6.313 -2.584,-5.438 -1.867,-4.422C-2.723,-3.71 -3.043,-2.526 -2.606,-1.472C-2.169,-0.417 -1.109,0.192 0.003,0.092C0.213,1.317 0.212,2.556 0,3.787M0.651,-0.925C0.53,-0.996 0.384,-1.013 0.251,-0.972C-0.542,-0.728 -1.373,-1.107 -1.683,-1.855C-1.992,-2.601 -1.672,-3.458 -0.939,-3.846C-0.815,-3.912 -0.725,-4.026 -0.689,-4.162C-0.654,-4.297 -0.677,-4.441 -0.753,-4.559C-1.683,-6.005 -2.891,-7.212 -4.345,-8.147C-4.463,-8.222 -4.606,-8.244 -4.742,-8.21C-4.877,-8.174 -4.992,-8.084 -5.057,-7.961C-5.446,-7.23 -6.303,-6.911 -7.047,-7.219C-7.793,-7.528 -8.173,-8.359 -7.931,-9.151C-7.89,-9.285 -7.907,-9.429 -7.978,-9.55C-8.048,-9.671 -8.167,-9.756 -8.303,-9.786C-9.993,-10.153 -11.701,-10.154 -13.381,-9.789C-13.518,-9.759 -13.635,-9.673 -13.706,-9.553C-13.777,-9.432 -13.793,-9.287 -13.752,-9.153C-13.508,-8.36 -13.888,-7.529 -14.635,-7.219C-15.382,-6.91 -16.238,-7.229 -16.627,-7.963C-16.692,-8.086 -16.807,-8.177 -16.942,-8.213C-17.079,-8.248 -17.222,-8.225 -17.339,-8.149C-18.785,-7.219 -19.993,-6.011 -20.927,-4.557C-21.003,-4.439 -21.026,-4.295 -20.991,-4.16C-20.955,-4.025 -20.865,-3.91 -20.742,-3.845C-20.01,-3.456 -19.691,-2.6 -20,-1.855C-20.308,-1.109 -21.137,-0.729 -21.932,-0.971C-22.065,-1.011 -22.209,-0.994 -22.331,-0.924C-22.451,-0.854 -22.537,-0.735 -22.566,-0.599C-22.934,1.09 -22.935,2.799 -22.57,4.479C-22.54,4.616 -22.454,4.733 -22.333,4.804C-22.213,4.875 -22.067,4.891 -21.934,4.85C-21.143,4.607 -20.311,4.985 -20,5.733C-19.69,6.48 -20.01,7.336 -20.744,7.725C-20.868,7.79 -20.958,7.905 -20.994,8.04C-21.029,8.176 -21.006,8.32 -20.93,8.437C-20,9.884 -18.791,11.091 -17.337,12.025C-17.219,12.102 -17.076,12.124 -16.94,12.089C-16.805,12.053 -16.691,11.963 -16.625,11.84C-16.236,11.108 -15.38,10.79 -14.635,11.098C-13.89,11.407 -13.51,12.237 -13.751,13.03C-13.792,13.163 -13.775,13.308 -13.705,13.429C-13.634,13.549 -13.516,13.635 -13.38,13.664C-12.532,13.849 -11.681,13.941 -10.83,13.941C-9.984,13.941 -9.139,13.85 -8.302,13.668C-8.165,13.638 -8.047,13.552 -7.977,13.432C-7.906,13.311 -7.889,13.166 -7.93,13.032C-8.174,12.239 -7.795,11.408 -7.048,11.098C-6.3,10.788 -5.444,11.109 -5.056,11.841C-4.99,11.965 -4.876,12.056 -4.741,12.091C-4.606,12.126 -4.461,12.103 -4.343,12.028C-2.897,11.098 -1.69,9.89 -0.755,8.435C-0.68,8.318 -0.657,8.174 -0.692,8.038C-0.728,7.903 -0.818,7.789 -0.941,7.724C-1.673,7.334 -1.992,6.479 -1.683,5.733C-1.374,4.988 -0.543,4.609 0.25,4.849C0.384,4.891 0.528,4.874 0.648,4.803C0.769,4.732 0.854,4.614 0.884,4.477C1.251,2.788 1.252,1.08 0.887,-0.6C0.857,-0.737 0.771,-0.855 0.651,-0.925" /></g>
<g transform="matrix(1,0,0,1,16.6182,9.2796)">
<path d="M0,4.633C-0.511,5.866 -1.472,6.827 -2.706,7.339C-3.939,7.849 -5.297,7.849 -6.531,7.339C-7.765,6.828 -8.725,5.867 -9.236,4.633C-9.747,3.4 -9.747,2.041 -9.236,0.808C-8.44,-1.116 -6.574,-2.278 -4.611,-2.278C-3.975,-2.278 -3.329,-2.156 -2.705,-1.898C-0.159,-0.843 1.055,2.087 0,4.633M-2.322,-2.822C-5.381,-4.089 -8.895,-2.631 -10.16,0.425C-10.773,1.905 -10.773,3.536 -10.16,5.016C-9.547,6.496 -8.394,7.649 -6.914,8.262C-6.173,8.569 -5.396,8.722 -4.618,8.722C-3.841,8.722 -3.063,8.569 -2.323,8.262C-0.842,7.649 0.311,6.496 0.924,5.016C2.19,1.96 0.733,-1.555 -2.322,-2.822" /></g>
</svg>
