<svg xmlns="http://www.w3.org/2000/svg" viewBox="0 0 24 24" style="fill-rule:evenodd;clip-rule:evenodd;stroke-linejoin:round;stroke-miterlimit:1.41421;"><path d="M20.484,13.978c-0.27,0.009 -0.484,0.23 -0.484,0.5l0,2.873c0,0.54 -0.242,0.632 -0.466,0.649l-0.793,0c-0.07,0 -0.136,0.015 -0.197,0.041c-0.282,-0.021 -0.544,0.207 -0.544,0.498l0,1.189c0,0.111 0.004,0.208 0.009,0.291l-0.061,0l-0.793,0c-0.055,0 -0.109,0 -0.161,0l0.006,-1.48c0,-0.255 -0.19,-0.465 -0.436,-0.496c-0.062,-0.027 -0.13,-0.044 -0.203,-0.044l-8.723,0c-0.072,0 -0.141,0.017 -0.202,0.044c-0.246,0.031 -0.436,0.241 -0.436,0.495l0,1.189c0,0.111 0.003,0.209 0.007,0.292c-0.034,0 -0.071,0 -0.111,0l-0.793,0c-0.04,0 -0.077,0 -0.111,0c0.004,-0.084 0.008,-0.181 0.008,-0.292l0,-1.189c0,-0.006 0,-0.013 -0.001,-0.019c0.001,-0.007 0.001,-0.013 0.001,-0.02c0,-0.276 -0.224,-0.5 -0.5,-0.5l-0.999,0.002c-0.261,-0.019 -0.501,-0.111 -0.501,-0.651l0,-2.873c0,-0.27 -0.215,-0.492 -0.485,-0.5c-1.505,-0.045 -2.515,-0.924 -2.515,-2.187c0,-1.167 1.063,-2.192 2.366,-2.192c0.492,-0.007 1.531,-0.006 1.973,0.435c0.145,0.144 0.212,0.328 0.212,0.58l0,1.189c0,0.424 0,1.306 0.45,2.204c0.294,0.59 1.066,1.07 1.72,1.07l8.69,0c0.62,0 1.274,-0.44 1.588,-1.07c0.449,-0.898 0.449,-1.78 0.449,-2.204l0,-1.189c0,-0.244 0.067,-0.425 0.211,-0.569c0.454,-0.452 1.518,-0.448 2.065,-0.446c1.234,0 2.276,1.003 2.276,2.191c0,1.262 -1.011,2.142 -2.516,2.188m-14.538,-9.182c0.215,-0.82 0.414,-0.814 1.015,-0.796l10.275,0c0.494,-0.018 0.81,0.03 0.99,0.813l1.164,3.866c-0.515,0.089 -1.051,0.273 -1.437,0.658c-0.335,0.335 -0.505,0.764 -0.505,1.277l0,1.189c0,0.374 0,1.07 -0.344,1.758c-0.142,0.285 -0.453,0.517 -0.693,0.517l-8.69,0c-0.276,0 -0.7,-0.266 -0.826,-0.517c-0.344,-0.688 -0.344,-1.383 -0.344,-1.758l0,-1.189c0,-0.52 -0.17,-0.954 -0.506,-1.288c-0.35,-0.349 -0.83,-0.531 -1.314,-0.626l1.215,-3.904Zm14.699,3.803c-0.071,-0.002 -0.149,-0.002 -0.235,0l-1.218,-4.04c-0.329,-1.44 -1.288,-1.57 -1.971,-1.558l-10.245,0c-0.838,-0.018 -1.613,0.074 -1.992,1.52l-1.27,4.081c-0.16,-0.003 -0.309,-0.003 -0.438,-0.003c-1.746,0 -3.276,1.492 -3.276,3.192c0,1.668 1.211,2.909 3,3.148l0,2.413c0,0.953 0.547,1.585 1.465,1.648l0.535,0l0,0.729c0,0.141 -0.007,0.255 -0.013,0.346c-0.014,0.248 -0.028,0.505 0.173,0.719c0.215,0.226 0.489,0.226 0.943,0.226l0.793,0c0.454,0 0.728,0 0.943,-0.226c0.202,-0.215 0.187,-0.471 0.173,-0.719c-0.006,-0.091 -0.012,-0.205 -0.012,-0.346l0,-0.729l8,0l-0.006,1.017c-0.009,0.287 -0.017,0.558 0.194,0.774c0.222,0.229 0.503,0.229 0.967,0.229l0.793,0c0.46,0 0.714,0 0.922,-0.227c0.194,-0.212 0.171,-0.459 0.151,-0.675c-0.009,-0.098 -0.021,-0.224 -0.021,-0.389l0,-0.729l0.571,0c0.881,-0.064 1.429,-0.697 1.429,-1.648l0,-2.413c1.789,-0.239 3,-1.482 3,-3.149c0,-1.729 -1.5,-3.191 -3.355,-3.191" /></svg>