<svg xmlns="http://www.w3.org/2000/svg" viewBox="0 0 24 24" style="fill-rule:evenodd;clip-rule:evenodd;stroke-linejoin:round;stroke-miterlimit:1.41421;">
                <g transform="matrix(1,0,0,1,15.9551,10.7264)">
                        <path d="M0,2.548C-1.041,1.853 -2.32,1.415 -3.674,0.952C-6.496,-0.015 -8.933,-0.85 -8.933,-3.639C-8.933,-6.237 -7.082,-7.726 -3.854,-7.726C-2.304,-7.726 -0.708,-7.391 0.523,-6.807C0.768,-6.691 1.07,-6.796 1.189,-7.046C1.308,-7.295 1.201,-7.593 0.951,-7.712C-0.409,-8.356 -2.16,-8.726 -3.854,-8.726C-3.89,-8.726 -3.92,-8.72 -3.955,-8.72L-3.955,-10.226C-3.955,-10.503 -4.179,-10.726 -4.455,-10.726C-4.731,-10.726 -4.955,-10.503 -4.955,-10.226L-4.955,-8.652C-8.048,-8.3 -9.933,-6.455 -9.933,-3.639C-9.933,-0.136 -6.916,0.898 -3.998,1.898C-2.707,2.34 -1.488,2.757 -0.556,3.38C0.536,4.11 1.045,4.992 1.045,6.158C1.045,7.335 0.49,8.387 -0.516,9.119C-1.555,9.874 -3.024,10.274 -4.769,10.274C-6.409,10.274 -7.917,9.967 -9.248,9.361C-9.499,9.249 -9.796,9.358 -9.91,9.61C-10.024,9.861 -9.913,10.157 -9.662,10.272C-8.251,10.913 -6.667,11.241 -4.955,11.265L-4.955,12.774C-4.955,13.05 -4.731,13.274 -4.455,13.274C-4.179,13.274 -3.955,13.05 -3.955,12.774L-3.955,11.224C-2.354,11.11 -0.963,10.682 0.072,9.928C1.345,9.002 2.045,7.664 2.045,6.158C2.045,4.67 1.357,3.455 0,2.548" />
                    </g>
</svg>
