<svg xmlns="http://www.w3.org/2000/svg" viewBox="0 0 24 24" style="fill-rule:evenodd;clip-rule:evenodd;stroke-linejoin:round;stroke-miterlimit:1.41421;">
                    <g transform="matrix(1,0,0,1,14.2515,18.6455)">
                        <path d="M0,-8.292C-0.556,-8.526 -1.145,-8.646 -1.751,-8.646C-3.705,-8.646 -5.354,-7.388 -5.975,-5.646L-6.739,-5.646C-7.016,-5.646 -7.239,-5.422 -7.239,-5.146C-7.239,-4.869 -7.016,-4.646 -6.739,-4.646L-6.201,-4.646C-6.22,-4.479 -6.251,-4.316 -6.251,-4.146C-6.251,-3.975 -6.22,-3.812 -6.201,-3.646L-6.739,-3.646C-7.016,-3.646 -7.239,-3.422 -7.239,-3.146C-7.239,-2.869 -7.016,-2.646 -6.739,-2.646L-5.975,-2.646C-5.354,-0.903 -3.705,0.354 -1.751,0.354C-1.191,0.354 -0.644,0.253 -0.124,0.051C0.133,-0.049 0.261,-0.338 0.162,-0.596C0.062,-0.854 -0.227,-0.984 -0.485,-0.881C-0.889,-0.725 -1.315,-0.646 -1.751,-0.646C-3.142,-0.646 -4.336,-1.468 -4.9,-2.646L-2.751,-2.646C-2.475,-2.646 -2.251,-2.869 -2.251,-3.146C-2.251,-3.422 -2.475,-3.646 -2.751,-3.646L-5.201,-3.646C-5.225,-3.811 -5.251,-3.975 -5.251,-4.146C-5.251,-4.316 -5.225,-4.48 -5.201,-4.646L-1.751,-4.646C-1.475,-4.646 -1.251,-4.869 -1.251,-5.146C-1.251,-5.422 -1.475,-5.646 -1.751,-5.646L-4.9,-5.646C-4.336,-6.823 -3.142,-7.646 -1.751,-7.646C-1.279,-7.646 -0.821,-7.553 -0.389,-7.37C-0.134,-7.265 0.159,-7.381 0.266,-7.637C0.374,-7.891 0.254,-8.185 0,-8.292" />
                    </g>
                    <g transform="matrix(1,0,0,1,19.9736,10.0164)">
                        <path d="M0,3.968C-0.269,-0.478 -3.961,-4.016 -8.474,-4.016C-8.816,-4.016 -9.152,-3.99 -9.484,-3.951C-8.502,-6.375 -6.144,-8.016 -3.474,-8.016C0.11,-8.016 3.026,-5.1 3.026,-1.516C3.026,0.715 1.857,2.786 0,3.968M-8.474,11.984C-12.609,11.984 -15.974,8.619 -15.974,4.484C-15.974,0.348 -12.609,-3.016 -8.474,-3.016C-4.338,-3.016 -0.974,0.348 -0.974,4.484C-0.974,8.619 -4.338,11.984 -8.474,11.984M-18.974,-2.516C-18.974,-5.549 -16.506,-8.016 -13.474,-8.016C-11.882,-8.016 -10.395,-7.332 -9.348,-6.141C-9.907,-5.433 -10.345,-4.626 -10.622,-3.73C-13.471,-2.984 -15.744,-0.803 -16.602,2C-18.076,0.98 -18.974,-0.696 -18.974,-2.516M-3.474,-9.016C-5.471,-9.016 -7.312,-8.209 -8.678,-6.889C-9.91,-8.241 -11.632,-9.016 -13.474,-9.016C-17.058,-9.016 -19.974,-6.1 -19.974,-2.516C-19.974,-0.232 -18.776,1.852 -16.84,3.028C-16.922,3.502 -16.974,3.987 -16.974,4.484C-16.974,9.17 -13.161,12.984 -8.474,12.984C-4.001,12.984 -0.333,9.509 -0.006,5.118C2.448,3.831 4.026,1.267 4.026,-1.516C4.026,-5.652 0.662,-9.016 -3.474,-9.016" />
                    </g>
</svg>
