<svg xmlns="http://www.w3.org/2000/svg" viewBox="0 0 24 24" style="fill-rule:evenodd;clip-rule:evenodd;stroke-linejoin:round;stroke-miterlimit:1.41421;">
<path id="Icons" d="M20.327,17L3.306,17C1.948,17 1,16.046 1,14.68C1,13.342 2.088,12.254 3.426,12.254L3.821,12.27C4.087,12.278 4.327,12.085 4.351,11.815L4.366,11.647C4.577,9.042 6.835,7 9.507,7C11.319,7 12.968,7.909 13.915,9.428L13.989,9.548C14.118,9.757 14.382,9.842 14.605,9.748L14.738,9.693C15.22,9.496 15.732,9.396 16.264,9.396C17.889,9.396 19.326,10.351 19.924,11.831L19.968,11.939C20.043,12.125 20.222,12.247 20.422,12.25L20.542,12.252C21.897,12.266 23,13.355 23,14.68C23,16.068 21.618,17 20.327,17M20.766,11.261C19.973,9.514 18.227,8.396 16.264,8.396C15.695,8.396 15.141,8.488 14.614,8.671C13.463,6.994 11.573,6 9.507,6C6.424,6 3.802,8.285 3.403,11.254C1.524,11.266 0,12.798 0,14.68C0,16.604 1.39,18 3.306,18L20.327,18C22.352,18 24,16.511 24,14.68C24,12.879 22.566,11.388 20.766,11.261" />
</svg>
