<svg xmlns="http://www.w3.org/2000/svg" viewBox="0 0 24 24" style="fill-rule:evenodd;clip-rule:evenodd;stroke-linejoin:round;stroke-miterlimit:1.41421;">
                <g transform="matrix(1,0,0,1,3.5,18)">
                    <path d="M0,-14L17,-14C17.827,-14 18.5,-13.327 18.5,-12.5L18.5,-12L-1.5,-12L-1.5,-12.5C-1.5,-13.327 -0.827,-14 0,-14M17,0L0,0C-0.827,0 -1.5,-0.673 -1.5,-1.5L-1.5,-8L18.5,-8L18.5,-1.5C18.5,-0.673 17.827,0 17,0M18.5,-9L-1.5,-9L-1.5,-11L18.5,-11L18.5,-9ZM0,1L17,1C18.378,1 19.5,-0.122 19.5,-1.5L19.5,-12.5C19.5,-13.878 18.378,-15 17,-15L0,-15C-1.378,-15 -2.5,-13.878 -2.5,-12.5L-2.5,-1.5C-2.5,-0.122 -1.378,1 0,1" />
                </g>
                <g transform="matrix(1,0,0,1,10.5,13)">
                    <path d="M0,-1L-6,-1C-6.276,-1 -6.5,-0.776 -6.5,-0.5C-6.5,-0.224 -6.276,0 -6,0L0,0C0.276,0 0.5,-0.224 0.5,-0.5C0.5,-0.776 0.276,-1 0,-1" />
                </g>
                <g transform="matrix(1,0,0,1,8.5,15)">
                    <path d="M0,-1L-4,-1C-4.276,-1 -4.5,-0.776 -4.5,-0.5C-4.5,-0.224 -4.276,0 -4,0L0,0C0.276,0 0.5,-0.224 0.5,-0.5C0.5,-0.776 0.276,-1 0,-1" />
                </g>
</svg>
