<svg xmlns="http://www.w3.org/2000/svg" viewBox="0 0 24 24" style="fill-rule:evenodd;clip-rule:evenodd;stroke-linejoin:round;stroke-miterlimit:1.41421;"><path d="M8.227,16.5c2.606,0 4.727,1.458 4.727,3.25c0,0.563 -0.216,1.118 -0.626,1.607c-0.18,0.215 -0.199,0.431 -0.182,0.574c0.045,0.405 0.395,0.673 0.802,0.983c0.014,0.01 0.03,0.022 0.045,0.033c-0.582,0.036 -1.41,-0.009 -2.121,-0.284c-0.108,-0.042 -0.225,-0.046 -0.332,-0.01c-0.613,0.195 -1.628,0.347 -2.313,0.347c-2.606,0 -4.728,-1.458 -4.728,-3.25c0,-1.792 2.122,-3.25 4.728,-3.25m0,7.5c0.726,0 1.742,-0.145 2.449,-0.345c1.278,0.428 3.337,0.426 3.73,-0.17c0.13,-0.197 0.092,-0.537 -0.072,-0.706c-0.26,-0.265 -0.536,-0.475 -0.78,-0.661c-0.109,-0.084 -0.246,-0.188 -0.339,-0.27c0.484,-0.635 0.739,-1.357 0.739,-2.098c0,-2.343 -2.57,-4.25 -5.727,-4.25c-3.158,0 -5.728,1.907 -5.728,4.25c0,2.343 2.57,4.25 5.728,4.25" /><path d="M14.055,1c4.165,0 7.554,2.704 7.554,6.028c0,0.959 -0.276,1.877 -0.819,2.727c-0.007,0.012 -0.057,0.104 -0.064,0.117c-0.134,0.258 -0.54,1.042 -1.38,1.661c-0.489,0.361 -1.444,1.021 -1.923,1.206c-0.16,0.062 -0.278,0.202 -0.31,0.372c-0.208,1.083 -0.909,1.992 -1.787,2.41c0.244,-1.181 -0.111,-2.098 -0.129,-2.146c-0.077,-0.19 -0.26,-0.315 -0.465,-0.315c-0.001,0 -0.399,0 -0.668,-0.005c-4.241,-0.08 -7.564,-2.728 -7.564,-6.027c0,-3.324 3.389,-6.028 7.555,-6.028m-0.01,13.055l0.001,0c0.094,0.001 0.203,0.003 0.306,0.003c0.083,0.407 0.143,1.16 -0.247,1.979c-0.078,0.163 -0.062,0.356 0.042,0.504c0.095,0.133 0.248,0.211 0.409,0.211c0.017,0 0.034,-0.001 0.051,-0.002c1.59,-0.164 2.996,-1.487 3.429,-3.191c0.706,-0.348 1.693,-1.065 1.904,-1.221c1.026,-0.758 1.513,-1.697 1.693,-2.046c0.639,-0.998 0.976,-2.127 0.976,-3.264c0,-3.875 -3.837,-7.028 -8.554,-7.028c-4.717,0 -8.555,3.153 -8.555,7.028c0,3.85 3.754,6.936 8.545,7.027" /><path d="M14.5,6l4,0c0.276,0 0.5,-0.224 0.5,-0.5c0,-0.276 -0.224,-0.5 -0.5,-0.5l-4,0c-0.276,0 -0.5,0.224 -0.5,0.5c0,0.276 0.224,0.5 0.5,0.5" /><path d="M9.5,6l2.534,0c0.277,0 0.5,-0.224 0.5,-0.5c0,-0.276 -0.223,-0.5 -0.5,-0.5l-2.534,0c-0.276,0 -0.5,0.224 -0.5,0.5c0,0.276 0.224,0.5 0.5,0.5" /><path d="M9.5,8l5,0c0.276,0 0.5,-0.224 0.5,-0.5c0,-0.276 -0.224,-0.5 -0.5,-0.5l-5,0c-0.276,0 -0.5,0.224 -0.5,0.5c0,0.276 0.224,0.5 0.5,0.5" /><path d="M18.5,7l-2,0c-0.276,0 -0.5,0.224 -0.5,0.5c0,0.276 0.224,0.5 0.5,0.5l2,0c0.276,0 0.5,-0.224 0.5,-0.5c0,-0.276 -0.224,-0.5 -0.5,-0.5" /></svg>