<svg xmlns="http://www.w3.org/2000/svg" viewBox="0 0 24 24" style="fill-rule:evenodd;clip-rule:evenodd;stroke-linejoin:round;stroke-miterlimit:1.41421;"><path d="M1.379,11.587c0,-0.602 0.369,-1.083 0.964,-1.258c0.559,-0.164 0.977,0.12 1.285,0.386c0.56,0.488 1.023,1.144 1.418,2.008c0.22,0.481 0.404,0.973 0.582,1.449c0.001,0.002 0.044,0.117 0.044,0.119c0.097,0.253 0.38,0.382 0.636,0.291l0.241,-0.089c0.194,-0.072 0.323,-0.259 0.324,-0.466l0.005,-11.584c0,-0.158 0,-0.336 0.045,-0.518c0.145,-0.593 0.695,-0.989 1.321,-0.918c0.579,0.057 1.038,0.531 1.092,1.129c0.013,0.136 0.012,0.263 0.012,0.374l0,9.55c0,0.409 0.567,0.642 0.856,0.353c0.094,-0.094 0.147,-0.221 0.147,-0.353l-0.001,-1.912l0.002,-1.79c0.001,-0.774 0.603,-1.235 1.119,-1.395c0.342,-0.105 0.717,-0.051 1.029,0.15c0.317,0.203 0.527,0.526 0.581,0.886c0.024,0.153 0.025,0.298 0.026,0.417l0,1.415c-0.012,0.092 -0.019,0.185 -0.019,0.278l-0.001,2.252c0,0.277 0.243,0.5 0.52,0.5c0.276,0 0.5,-0.223 0.5,-0.5l0,-2.458c0.107,-0.622 0.661,-1.056 1.197,-1.132c0.371,-0.052 0.734,0.052 1.001,0.285c0.267,0.236 0.423,0.593 0.426,0.976l0.003,1.966c-0.001,0.026 -0.002,0.052 -0.002,0.078c-0.025,1.329 -0.019,1.335 0.144,1.501c0.141,0.144 0.357,0.189 0.544,0.113c0.188,-0.077 0.312,-0.258 0.313,-0.46l0.001,-1.203c0.049,-0.745 0.747,-1.243 1.391,-1.246l0.005,0c0.673,0 1.217,0.561 1.238,1.278c0.006,0.195 0.009,0.4 0.009,0.667l-0.002,0.735l0.004,2.558l-0.003,1.351c-0.007,1.215 -0.356,2.353 -1.011,3.29c-0.657,0.944 -1.596,1.647 -2.715,2.033c-0.508,0.175 -1.103,0.272 -1.768,0.288c-1.111,0.026 -2.236,0.021 -3.328,0.015l-1.385,-0.003l-0.004,0c-1.301,0 -2.472,-0.524 -3.579,-1.603c-0.8,-0.78 -1.459,-1.706 -1.959,-2.753c-0.658,-1.376 -1.337,-2.772 -1.994,-4.12l-1.089,-2.243c-0.109,-0.225 -0.165,-0.457 -0.165,-0.687m2.346,7.481c0.55,1.154 1.278,2.175 2.164,3.039c1.303,1.269 2.702,1.886 4.276,1.886l0.004,0l1.382,0.003c0.439,0.002 0.885,0.004 1.333,0.004c0.671,0 1.349,-0.004 2.021,-0.019c0.769,-0.018 1.465,-0.133 2.071,-0.342c1.32,-0.456 2.43,-1.288 3.21,-2.406c0.77,-1.106 1.181,-2.439 1.19,-3.858l0.003,-1.356l-0.004,-2.586l0.002,-0.707c0,-0.279 -0.003,-0.493 -0.009,-0.698c-0.039,-1.261 -1.02,-2.247 -2.238,-2.247l-0.009,0c-0.516,0.002 -0.997,0.166 -1.39,0.443l0,-0.198c-0.005,-0.669 -0.285,-1.296 -0.766,-1.721c-0.486,-0.427 -1.148,-0.618 -1.802,-0.525c-0.392,0.056 -0.754,0.205 -1.061,0.421c-0.004,-0.109 -0.013,-0.227 -0.032,-0.349c-0.095,-0.646 -0.471,-1.222 -1.03,-1.58c-0.562,-0.361 -1.244,-0.456 -1.866,-0.264c-0.307,0.095 -0.585,0.238 -0.826,0.419l0,-3.917c0,-0.139 -0.001,-0.295 -0.016,-0.464c-0.097,-1.075 -0.933,-1.932 -1.99,-2.035c-1.133,-0.102 -2.125,0.595 -2.39,1.674c-0.074,0.298 -0.074,0.564 -0.074,0.758l-0.003,9.692c-0.438,-0.912 -0.96,-1.625 -1.593,-2.176c-0.708,-0.614 -1.455,-0.811 -2.22,-0.589c-1.023,0.299 -1.683,1.169 -1.683,2.217c0,0.383 0.089,0.761 0.265,1.123l1.09,2.244c0.656,1.347 1.334,2.74 1.991,4.114" /></svg>