<svg xmlns="http://www.w3.org/2000/svg" viewBox="0 0 24 24" style="fill-rule:evenodd;clip-rule:evenodd;stroke-linejoin:round;stroke-miterlimit:1.41421;">
<g transform="matrix(1,0,0,1,3,10)">
                    <path d="M0,4C0.552,4 1,4.449 1,5C1,5.551 0.551,6 0,6C-0.551,5.998 -1,5.549 -1,5C-1,4.449 -0.552,4 0,4M-0.002,7C0.059,7 0.116,6.987 0.175,6.982C0.82,8.301 3.896,13.88 9.84,14C10.071,14 10.512,13.92 10.521,13.918C12.197,13.569 13.229,12.785 13.587,11.586C14.284,9.25 12.104,6.269 10.854,5.018C10.234,4.398 9.918,3.829 9.965,3.414C9.988,3.201 10.104,3.064 10.184,2.991C11.396,2.939 12.44,2.267 12.985,1.164L16.683,-5.259C17.146,-6.253 17.102,-7.37 16.561,-8.322C15.968,-9.369 14.9,-9.995 13.704,-9.995C13.428,-9.995 13.204,-9.771 13.204,-9.495C13.204,-9.218 13.428,-8.995 13.704,-8.995C14.535,-8.995 15.277,-8.559 15.69,-7.829C16.07,-7.161 16.102,-6.378 15.778,-5.682L12.09,0.718C11.696,1.515 10.936,1.994 10.043,2C9.17,2 8.409,1.529 7.994,0.712L4.232,-5.662C3.901,-6.358 3.927,-7.146 4.301,-7.821C4.715,-8.559 5.459,-9 6.293,-9C6.569,-9 6.793,-9.224 6.793,-9.5C6.793,-9.776 6.569,-10 6.293,-10C5.093,-10 4.021,-9.368 3.427,-8.308C2.894,-7.345 2.858,-6.225 3.368,-5.155L7.117,1.192C7.54,2.026 8.246,2.609 9.098,2.86C9.046,2.985 8.995,3.114 8.975,3.272C8.877,4.024 9.271,4.85 10.146,5.725C11.381,6.96 13.146,9.565 12.629,11.3C12.384,12.12 11.606,12.671 10.326,12.938C10.319,12.938 10.006,13 9.85,13C4.705,12.896 1.827,7.999 1.129,6.647C1.654,6.287 2,5.684 2,5C2,3.897 1.103,3 0,3C-1.103,3 -2,3.897 -2,5C-2,6.098 -1.104,6.995 -0.002,7" />
                </g>
</svg>
