<svg xmlns="http://www.w3.org/2000/svg" viewBox="0 0 24 24" style="fill-rule:evenodd;clip-rule:evenodd;stroke-linejoin:round;stroke-miterlimit:1.41421;"><path d="M17.851,9l-2.17,-6l1.29,0l5.406,6l-4.526,0Zm-4.426,10.291l4.392,-9.291l4.512,0l-8.904,9.291Zm-0.925,-9.291l4.211,0l-4.211,8.907l0,-8.907Zm0,-7l2.118,0l2.17,6l-4.288,0l0,-6Zm-1,6l-4.287,0l2.17,-6l2.117,0l0,6Zm0,9.907l-4.21,-8.907l4.21,0l0,8.907Zm-9.828,-8.907l4.512,0l4.392,9.291l-8.904,-9.291Zm5.358,-7l1.29,0l-2.17,6l-4.526,0l5.406,-6Zm16.933,6.316c-0.011,-0.028 -0.03,-0.05 -0.046,-0.076c-0.015,-0.025 -0.024,-0.053 -0.045,-0.075l-6.307,-7c-0.094,-0.104 -0.23,-0.165 -0.371,-0.165l-10.387,0c-0.142,0 -0.277,0.061 -0.372,0.165l-6.306,7c-0.02,0.022 -0.03,0.05 -0.045,0.075c-0.016,0.026 -0.035,0.048 -0.046,0.077c-0.018,0.044 -0.024,0.091 -0.028,0.138c-0.002,0.016 -0.01,0.029 -0.01,0.045c0,0.001 0.001,0.003 0.001,0.004c0.001,0.063 0.013,0.127 0.038,0.186c0.012,0.031 0.035,0.055 0.053,0.082c0.016,0.025 0.027,0.052 0.048,0.074l0.006,0.007c0,0 0.001,0.001 0.002,0.001l11.49,11.991c0.091,0.095 0.22,0.155 0.362,0.155c0.143,0 0.272,-0.06 0.363,-0.155l11.49,-11.991c0,0 0.001,-0.001 0.002,-0.001l0.006,-0.007c0.021,-0.023 0.032,-0.05 0.049,-0.075c0.017,-0.027 0.04,-0.05 0.052,-0.081c0.025,-0.059 0.037,-0.123 0.037,-0.186c0,-0.001 0.001,-0.003 0.001,-0.004c0,-0.016 -0.007,-0.029 -0.008,-0.045c-0.005,-0.047 -0.011,-0.094 -0.029,-0.139" /></svg>