<svg xmlns="http://www.w3.org/2000/svg" viewBox="0 0 24 24" style="fill-rule:evenodd;clip-rule:evenodd;stroke-linejoin:round;stroke-miterlimit:1.41421;">
<g transform="matrix(1,0,0,1,2.5,4.984)">
<path d="M0,12.016C0.827,12.016 1.5,12.689 1.5,13.516C1.5,14.343 0.827,15.016 0,15.016C-0.827,15.016 -1.5,14.343 -1.5,13.516C-1.5,12.689 -0.827,12.016 0,12.016M2.5,10.016L7.5,10.016L7.5,11.016L2.5,11.016L2.5,10.016ZM-0.5,8.516L-0.5,4.516C-0.5,4.24 -0.276,4.016 0,4.016L3.5,4.016L3.5,4.516C3.5,4.649 3.553,4.776 3.646,4.87L4.646,5.87C4.74,5.963 4.867,6.016 5,6.016L10.5,6.016L10.5,8.516C10.5,8.792 10.276,9.016 10,9.016L0,9.016C-0.276,9.016 -0.5,8.792 -0.5,8.516M4.5,1.723L5.207,1.016L7.793,1.016L9.793,3.016L4.5,3.016L4.5,1.723ZM4.5,4.016L10,4.016C10.276,4.016 10.5,4.24 10.5,4.516L10.5,5.016L5.207,5.016L4.5,4.309L4.5,4.016ZM10.013,12.016C9.695,12.435 9.5,12.951 9.5,13.516C9.5,14.081 9.695,14.597 10.013,15.016L1.987,15.016C2.305,14.597 2.5,14.081 2.5,13.516C2.5,12.951 2.305,12.435 1.987,12.016L10.013,12.016ZM13.5,13.516C13.5,14.343 12.827,15.016 12,15.016C11.173,15.016 10.5,14.343 10.5,13.516C10.5,12.689 11.173,12.016 12,12.016C12.827,12.016 13.5,12.689 13.5,13.516M19.5,10.016L16.013,10.017C15.795,9.976 15.243,9.398 14.738,8.706L19.5,6.325L19.5,10.016ZM0,16.016L12,16.016C13.378,16.016 14.5,14.894 14.5,13.516C14.5,12.138 13.378,11.016 12,11.016L8.5,11.016L8.5,10.016L10,10.016C10.827,10.016 11.5,9.343 11.5,8.516L11.5,5.516L11.5,4.516L11.5,3.516C11.5,3.383 11.447,3.256 11.354,3.162L9.741,1.55L14.856,-2.713L19.309,5.302L13.776,8.069C13.649,8.132 13.555,8.247 13.518,8.384C13.48,8.521 13.503,8.668 13.58,8.787C14.118,9.62 15.148,11.016 16,11.016L20,11.016C20.276,11.016 20.5,10.792 20.5,10.516L20.5,5.526C20.501,5.45 20.485,5.371 20.45,5.298L20.45,5.297L20.449,5.297C20.449,5.296 20.449,5.296 20.449,5.295C20.447,5.293 20.446,5.29 20.445,5.288L20.444,5.287L20.444,5.286L20.443,5.285L20.443,5.284L20.442,5.284C20.44,5.279 20.438,5.275 20.436,5.27L15.437,-3.727C15.365,-3.857 15.238,-3.948 15.092,-3.976C14.944,-4 14.795,-3.963 14.68,-3.868L9.03,0.839L8.354,0.162C8.26,0.069 8.133,0.016 8,0.016L5,0.016C4.867,0.016 4.74,0.069 4.646,0.162L3.646,1.162C3.553,1.256 3.5,1.383 3.5,1.516L3.5,3.016L0,3.016C-0.827,3.016 -1.5,3.689 -1.5,4.516L-1.5,8.516C-1.5,9.343 -0.827,10.016 0,10.016L1.5,10.016L1.5,11.016L0,11.016C-1.378,11.016 -2.5,12.138 -2.5,13.516C-2.5,14.894 -1.378,16.016 0,16.016" /></g>
</svg>
