<svg xmlns="http://www.w3.org/2000/svg" viewBox="0 0 24 24" style="fill-rule:evenodd;clip-rule:evenodd;stroke-linejoin:round;stroke-miterlimit:1.41421;"><path d="M14.315,10.866l5.85,2.328l0.747,0.986l-1.176,0.438l-5.051,-2.02c-0.153,-0.062 -0.329,-0.043 -0.466,0.05c-0.137,0.093 -0.219,0.248 -0.219,0.414l0,9.938l-4,0l0,-8.229c0,-0.246 -0.179,-0.455 -0.421,-0.494l-4.188,-0.67l-0.726,-0.978l1.024,-0.807l3.724,0.66c0.141,0.026 0.295,-0.013 0.408,-0.109c0.113,-0.095 0.179,-0.236 0.179,-0.383l0,-3.71c0,-0.201 -0.122,-0.383 -0.307,-0.461l-5.689,-2.384l-0.75,-0.99l1.178,-0.438l4.883,1.942c0.154,0.061 0.328,0.041 0.465,-0.051c0.138,-0.094 0.22,-0.248 0.22,-0.414l0,-4.484l4,0l0,3.696c0,0.149 0.065,0.289 0.179,0.384c0.115,0.096 0.268,0.132 0.41,0.108l6.095,-1.117l1.11,0.786l-0.625,1.024l-6.778,1.506c-0.228,0.051 -0.391,0.254 -0.391,0.489l0,2.525c0,0.205 0.125,0.389 0.315,0.465m7.278,-4.055c0.133,-0.029 0.248,-0.112 0.319,-0.227l0.978,-1.604c0.137,-0.224 0.077,-0.516 -0.137,-0.669l-1.663,-1.178c-0.11,-0.078 -0.252,-0.106 -0.379,-0.084l-5.711,1.047l0,-3.596c0,-0.277 -0.224,-0.5 -0.5,-0.5l-5,0c-0.277,0 -0.5,0.223 -0.5,0.5l0,4.247l-4.377,-1.741c-0.116,-0.047 -0.245,-0.046 -0.36,-0.004l-1.987,0.741c-0.149,0.056 -0.261,0.178 -0.306,0.329c-0.044,0.151 -0.013,0.315 0.082,0.441l1.237,1.633c0.052,0.071 0.124,0.125 0.205,0.159l5.506,2.308l0,2.78l-3.357,-0.594c-0.138,-0.025 -0.285,0.01 -0.396,0.099l-1.583,1.246c-0.212,0.167 -0.253,0.474 -0.092,0.691l1.138,1.532c0.078,0.105 0.193,0.175 0.322,0.196l3.968,0.635l0,8.302c0,0.276 0.223,0.5 0.5,0.5l5,0c0.276,0 0.5,-0.224 0.5,-0.5l0,-9.699l4.544,1.817c0.116,0.048 0.243,0.047 0.36,0.005l1.987,-0.74c0.148,-0.056 0.261,-0.178 0.306,-0.329c0.044,-0.153 0.014,-0.316 -0.082,-0.442l-1.238,-1.633c-0.054,-0.073 -0.128,-0.129 -0.213,-0.163l-5.664,-2.254l0,-1.785l6.593,-1.466Z" /></svg>