<svg xmlns="http://www.w3.org/2000/svg" viewBox="0 0 24 24" style="fill-rule:evenodd;clip-rule:evenodd;stroke-linejoin:round;stroke-miterlimit:1.41421;">
    <g id="Icons" transform="matrix(6.09405e-17,0.995233,-0.995233,6.09405e-17,23.9186,1.13279)">
        <path d="M1.379,11.587C1.379,10.985 1.748,10.504 2.343,10.329C2.902,10.165 3.32,10.449 3.628,10.715C4.188,11.203 4.651,11.859 5.046,12.723C5.266,13.204 5.45,13.696 5.628,14.172C5.629,14.174 5.672,14.289 5.672,14.291C5.769,14.544 6.052,14.673 6.308,14.582L6.549,14.493C6.743,14.421 6.872,14.234 6.873,14.027L6.878,2.443C6.878,2.285 6.878,2.107 6.923,1.925C7.068,1.332 7.618,0.936 8.244,1.007C8.823,1.064 9.282,1.538 9.336,2.136C9.349,2.272 9.348,2.399 9.348,2.51L9.348,12.06C9.348,12.469 9.915,12.702 10.204,12.413C10.298,12.319 10.351,12.192 10.351,12.06L10.35,10.148L10.352,8.358C10.353,7.584 10.955,7.123 11.471,6.963C11.813,6.858 12.188,6.912 12.5,7.113C12.817,7.316 13.027,7.639 13.081,7.999C13.105,8.152 13.106,8.297 13.107,8.416L13.107,9.831C13.095,9.923 13.088,10.016 13.088,10.109L13.087,12.361C13.087,12.638 13.33,12.861 13.607,12.861C13.883,12.861 14.107,12.638 14.107,12.361L14.107,9.903C14.214,9.281 14.768,8.847 15.304,8.771C15.675,8.719 16.038,8.823 16.305,9.056C16.572,9.292 16.728,9.649 16.731,10.032L16.734,11.998C16.733,12.024 16.732,12.05 16.732,12.076C16.707,13.405 16.713,13.411 16.876,13.577C17.017,13.721 17.233,13.766 17.42,13.69C17.608,13.613 17.732,13.432 17.733,13.23L17.734,12.027C17.783,11.282 18.481,10.784 19.125,10.781L19.13,10.781C19.803,10.781 20.347,11.342 20.368,12.059C20.374,12.254 20.377,12.459 20.377,12.726L20.375,13.461L20.379,16.019L20.376,17.37C20.369,18.585 20.02,19.723 19.365,20.66C18.708,21.604 17.769,22.307 16.65,22.693C16.142,22.868 15.547,22.965 14.882,22.981C13.771,23.007 12.646,23.002 11.554,22.996L10.169,22.993L10.165,22.993C8.864,22.993 7.693,22.469 6.586,21.39C5.786,20.61 5.127,19.684 4.627,18.637C3.969,17.261 3.29,15.865 2.633,14.517L1.544,12.274C1.435,12.049 1.379,11.817 1.379,11.587M3.725,19.068C4.275,20.222 5.003,21.243 5.889,22.107C7.192,23.376 8.591,23.993 10.165,23.993L10.169,23.993L11.551,23.996C11.99,23.998 12.436,24 12.884,24C13.555,24 14.233,23.996 14.905,23.981C15.674,23.963 16.37,23.848 16.976,23.639C18.296,23.183 19.406,22.351 20.186,21.233C20.956,20.127 21.367,18.794 21.376,17.375L21.379,16.019L21.375,13.433L21.377,12.726C21.377,12.447 21.374,12.233 21.368,12.028C21.329,10.767 20.348,9.781 19.13,9.781L19.121,9.781C18.605,9.783 18.124,9.947 17.731,10.224L17.731,10.026C17.726,9.357 17.446,8.73 16.965,8.305C16.479,7.878 15.817,7.687 15.163,7.78C14.771,7.836 14.409,7.985 14.102,8.201C14.098,8.092 14.089,7.974 14.07,7.852C13.975,7.206 13.599,6.63 13.04,6.272C12.478,5.911 11.796,5.816 11.174,6.008C10.867,6.103 10.589,6.246 10.348,6.427L10.348,2.51C10.348,2.371 10.347,2.215 10.332,2.046C10.235,0.971 9.399,0.114 8.342,0.011C7.209,-0.091 6.217,0.606 5.952,1.685C5.878,1.983 5.878,2.249 5.878,2.443L5.875,12.135C5.437,11.223 4.915,10.51 4.282,9.959C3.574,9.345 2.827,9.148 2.062,9.37C1.039,9.669 0.379,10.539 0.379,11.587C0.379,11.97 0.468,12.348 0.644,12.71L1.734,14.954C2.39,16.301 3.068,17.694 3.725,19.068" />
    </g>
</svg>
