<svg xmlns="http://www.w3.org/2000/svg" viewBox="0 0 24 24" style="fill-rule:evenodd;clip-rule:evenodd;stroke-linejoin:round;stroke-miterlimit:1.41421;"><path d="M19.921,11.976c-0.126,0.012 -0.22,0.013 -2.607,0.013l-2.205,0.002c-0.277,0 -0.5,0.224 -0.5,0.5c0,0.276 0.223,0.5 0.5,0.5l3.702,0.001c0.773,0.002 1.235,0.604 1.395,1.12c0.106,0.34 0.051,0.715 -0.15,1.029c-0.202,0.315 -0.526,0.526 -0.887,0.581c-0.151,0.022 -0.296,0.025 -0.417,0.025l-1.411,0c-0.093,-0.012 -0.187,-0.018 -0.282,-0.019l-2.252,0c-0.277,0 -0.5,0.243 -0.5,0.519c0,0.277 0.223,0.5 0.5,0.5l2.461,0c0.62,0.109 1.054,0.663 1.131,1.197c0.051,0.37 -0.053,0.734 -0.288,1.001c-0.235,0.268 -0.59,0.424 -0.976,0.426c-0.474,0.002 -0.991,0.003 -1.63,0.003l-0.355,0c-0.019,-0.001 -0.038,-0.002 -0.057,-0.002c-1.33,-0.021 -1.336,-0.017 -1.502,0.145c-0.145,0.142 -0.19,0.357 -0.112,0.546c0.077,0.187 0.259,0.31 0.463,0.31l1.184,0.001c0.753,0.04 1.258,0.742 1.261,1.392c0.001,0.325 -0.125,0.632 -0.357,0.864c-0.238,0.239 -0.559,0.37 -0.905,0.37l-5.33,0c-1.217,0 -2.353,-0.343 -3.287,-0.995c-0.944,-0.658 -1.648,-1.596 -2.033,-2.716c-0.052,-0.149 -0.111,-0.288 -0.17,-0.427c-0.164,-0.381 -0.305,-0.711 -0.305,-1.362l-0.001,-1.068c-0.001,-0.632 -0.002,-1.216 0.001,-1.93l0,-2.002c-0.001,-1.239 0.703,-2.044 1.797,-3.294c1.827,-2.087 2.851,-6.681 3.142,-8.16c0.532,0.081 1.297,0.281 1.606,0.687c0.552,0.724 0.923,2.5 -0.437,6.835c-0.113,0.361 -0.14,0.447 -0.078,0.617c0.073,0.197 0.26,0.328 0.47,0.328l5.383,0.004c1.891,0.001 4.034,0.02 4.249,0.046c0.594,0.146 0.979,0.702 0.919,1.321c-0.057,0.58 -0.531,1.039 -1.13,1.092m2.126,-0.994c0.109,-1.117 -0.596,-2.123 -1.676,-2.39c-0.198,-0.049 -1.708,-0.074 -4.488,-0.075l-4.711,-0.004c1.09,-3.615 1.147,-6.1 0.17,-7.386c-0.771,-1.012 -2.584,-1.118 -2.788,-1.127c-0.278,0.005 -0.472,0.168 -0.515,0.415c-0.01,0.059 -1.03,5.888 -3.022,8.165c-1.127,1.288 -2.018,2.305 -2.017,3.92l0,1.998c-0.003,0.716 -0.002,1.302 -0.001,1.935l0.001,1.067c0,0.856 0.204,1.333 0.385,1.755c0.051,0.118 0.101,0.235 0.144,0.361c0.456,1.32 1.288,2.43 2.407,3.21c1.102,0.768 2.436,1.174 3.859,1.174l5.33,0c0.613,0 1.187,-0.236 1.614,-0.665c0.42,-0.421 0.65,-0.98 0.648,-1.573c-0.002,-0.516 -0.166,-0.998 -0.443,-1.39c0.067,0 0.132,-0.001 0.197,-0.001c0.671,-0.004 1.299,-0.284 1.721,-0.766c0.428,-0.484 0.62,-1.141 0.527,-1.802c-0.057,-0.392 -0.205,-0.754 -0.422,-1.06c0.109,-0.005 0.227,-0.014 0.35,-0.033c0.647,-0.096 1.223,-0.471 1.581,-1.03c0.361,-0.562 0.457,-1.242 0.263,-1.865c-0.116,-0.374 -0.304,-0.707 -0.545,-0.982c0.779,-0.295 1.347,-1.002 1.431,-1.851" /></svg>