<svg xmlns="http://www.w3.org/2000/svg" viewBox="0 0 24 24" style="fill-rule:evenodd;clip-rule:evenodd;stroke-linejoin:round;stroke-miterlimit:1.41421;"><path d="M9,14l0,-3l6,0l0,3c0,1.654 -1.346,3 -3,3c-1.654,0 -3,-1.346 -3,-3m3,-14c-6.617,0 -12,5.383 -12,12c0,4.517 2.497,8.607 6.516,10.677c0.073,0.038 0.151,0.055 0.229,0.055c0.181,0 0.356,-0.098 0.444,-0.271c0.127,-0.245 0.031,-0.547 -0.215,-0.673c-3.685,-1.897 -5.974,-5.647 -5.974,-9.788c0,-6.065 4.935,-11 11,-11c6.065,0 11,4.935 11,11c0,2.775 -1.036,5.425 -2.882,7.427l-0.325,0.29c-0.807,0.827 -1.888,1.283 -3.043,1.283c-1.896,0 -3.545,-1.275 -4.067,-3.069c1.88,-0.327 3.317,-1.959 3.317,-3.931l0,-3.5c0,-0.276 -0.224,-0.5 -0.5,-0.5l-1.5,0l0,-2.5c0,-0.276 -0.224,-0.5 -0.5,-0.5c-0.276,0 -0.5,0.224 -0.5,0.5l0,2.5l-2,0l0,-2.5c0,-0.276 -0.224,-0.5 -0.5,-0.5c-0.276,0 -0.5,0.224 -0.5,0.5l0,2.5l-1.5,0c-0.276,0 -0.5,0.224 -0.5,0.5l0,3.5c0,2.088 1.612,3.786 3.654,3.965c0.558,2.345 2.668,4.035 5.096,4.035c1.427,0 2.762,-0.563 3.733,-1.561l0.334,-0.299c2.053,-2.222 3.183,-5.113 3.183,-8.14c0,-6.617 -5.383,-12 -12,-12" /></svg>