<svg xmlns="http://www.w3.org/2000/svg" viewBox="0 0 24 24" style="fill-rule:evenodd;clip-rule:evenodd;stroke-linejoin:round;stroke-miterlimit:1.41421;"><path d="M8,21.5c0,0.276 0.224,0.5 0.5,0.5c0.276,0 0.5,-0.224 0.5,-0.5c0,-0.336 0,-0.476 1.195,-0.5l3.723,0c1.082,0 1.082,0.106 1.082,0.5c0,0.276 0.224,0.5 0.5,0.5c0.276,0 0.5,-0.224 0.5,-0.5c0,-1.5 -1.253,-1.5 -2.082,-1.5l-1.857,0l-0.008,0l-1.867,0c-0.871,0.018 -2.186,0.044 -2.186,1.5" /><path d="M8.5,5.499c0,1.379 -1.121,2.5 -2.5,2.5c-1.379,0 -2.5,-1.121 -2.5,-2.5c0,-1.378 1.121,-2.5 2.5,-2.5c1.379,0 2.5,1.122 2.5,2.5m-6,0c0,1.93 1.57,3.5 3.5,3.5c1.93,0 3.5,-1.57 3.5,-3.5c0,-1.93 -1.57,-3.5 -3.5,-3.5c-1.93,0 -3.5,1.57 -3.5,3.5" /><path d="M18,8c-1.379,0 -2.5,-1.122 -2.5,-2.5c0,-1.379 1.121,-2.5 2.5,-2.5c1.379,0 2.5,1.121 2.5,2.5c0,1.378 -1.121,2.5 -2.5,2.5m0,-6c-1.93,0 -3.5,1.57 -3.5,3.5c0,1.93 1.57,3.5 3.5,3.5c1.93,0 3.5,-1.57 3.5,-3.5c0,-1.93 -1.57,-3.5 -3.5,-3.5" /><path d="M12,15c0.827,0 1.5,0.673 1.5,1.501c0,0.827 -0.673,1.499 -1.5,1.499c-0.827,0 -1.5,-0.672 -1.5,-1.499c0,-0.828 0.673,-1.501 1.5,-1.501m0,4c1.379,0 2.5,-1.121 2.5,-2.499c0,-1.379 -1.121,-2.501 -2.5,-2.501c-1.379,0 -2.5,1.122 -2.5,2.501c0,1.378 1.121,2.499 2.5,2.499" /><path d="M0.497,17.989l0.003,0c0.274,0 0.498,-0.222 0.5,-0.497l0.027,-4.807c0,-0.929 0.756,-1.685 1.686,-1.685l7.101,0c0.838,0 1.686,0.514 1.686,1.497l0,0.005c0,0.276 0.224,0.5 0.5,0.5c0.276,0 0.5,-0.224 0.5,-0.5c0,-0.986 0.851,-1.502 1.69,-1.502l7.119,0c0.932,0 1.691,0.758 1.691,1.687l-0.027,4.816c-0.002,0.277 0.22,0.502 0.497,0.503l0.003,0c0.274,0 0.498,-0.222 0.5,-0.497l0.027,-4.819c0,-1.483 -1.207,-2.69 -2.691,-2.69l-7.119,0c-0.926,0 -1.71,0.396 -2.189,1.021c-0.479,-0.625 -1.261,-1.021 -2.187,-1.021l-7.101,0c-1.481,0 -2.686,1.204 -2.686,2.682l-0.027,4.804c-0.002,0.276 0.221,0.502 0.497,0.503" /></svg>