<svg xmlns="http://www.w3.org/2000/svg" viewBox="0 0 24 24" style="fill-rule:evenodd;clip-rule:evenodd;stroke-linejoin:round;stroke-miterlimit:1.41421;"><path d="M9,12l1.5,0c0.276,0 0.5,-0.224 0.5,-0.5l0,-1.5l2,0l0,1.5c0,0.276 0.224,0.5 0.5,0.5l1.5,0l0,2l-1.5,0c-0.276,0 -0.5,0.224 -0.5,0.5l0,1.5l-2,0l0,-1.5c0,-0.276 -0.224,-0.5 -0.5,-0.5l-1.5,0l0,-2Zm-0.5,3l1.5,0l0,1.5c0,0.276 0.224,0.5 0.5,0.5l3,0c0.276,0 0.5,-0.224 0.5,-0.5l0,-1.5l1.5,0c0.276,0 0.5,-0.224 0.5,-0.5l0,-3c0,-0.276 -0.224,-0.5 -0.5,-0.5l-1.5,0l0,-1.5c0,-0.276 -0.224,-0.5 -0.5,-0.5l-3,0c-0.276,0 -0.5,0.224 -0.5,0.5l0,1.5l-1.5,0c-0.276,0 -0.5,0.224 -0.5,0.5l0,3c0,0.276 0.224,0.5 0.5,0.5" /><path d="M2,8.5c0,-0.827 0.673,-1.5 1.5,-1.5l17,0c0.827,0 1.5,0.673 1.5,1.5l0,10c0,0.827 -0.673,1.5 -1.5,1.5l-17,0c-0.827,0 -1.5,-0.673 -1.5,-1.5l0,-10Zm7,-3c0,-0.827 0.673,-1.5 1.5,-1.5l3,0c0.827,0 1.5,0.673 1.5,1.5l0,0.5l-6,0l0,-0.5Zm-8,13c0,1.378 1.122,2.5 2.5,2.5l17,0c1.378,0 2.5,-1.122 2.5,-2.5l0,-10c0,-1.378 -1.122,-2.5 -2.5,-2.5l-4.5,0l0,-0.5c0,-1.378 -1.122,-2.5 -2.5,-2.5l-3,0c-1.378,0 -2.5,1.122 -2.5,2.5l0,0.5l-4.5,0c-1.378,0 -2.5,1.122 -2.5,2.5l0,10Z" /></svg>