<svg xmlns="http://www.w3.org/2000/svg" viewBox="0 0 24 24" style="fill-rule:evenodd;clip-rule:evenodd;stroke-linejoin:round;stroke-miterlimit:1.41421;"><path d="M12.057,6.079c0.064,-0.015 6.256,-0.637 10.847,5.958c-0.759,1.157 -4.237,5.831 -10.894,5.904c-0.07,-0.001 -6.928,-0.208 -10.923,-6.092c0.679,-0.951 4.358,-5.575 10.97,-5.77m-0.051,12.862c8.172,-0.09 11.781,-6.405 11.931,-6.674c0.092,-0.164 0.083,-0.365 -0.022,-0.521c-4.941,-7.378 -11.688,-6.694 -11.929,-6.664c-7.127,0.209 -11.356,5.437 -11.893,6.459c-0.044,0.084 -0.179,0.34 -0.011,0.6c4.265,6.587 11.599,6.794 11.924,6.8" /><path d="M12,8c2.206,0 4,1.794 4,4c0,2.206 -1.794,4 -4,4c-2.206,0 -4,-1.794 -4,-4c0,-2.206 1.794,-4 4,-4m0,9c2.757,0 5,-2.243 5,-5c0,-2.757 -2.243,-5 -5,-5c-2.757,0 -5,2.243 -5,5c0,2.757 2.243,5 5,5" /></svg>