<svg xmlns="http://www.w3.org/2000/svg" viewBox="0 0 24 24" style="fill-rule:evenodd;clip-rule:evenodd;stroke-linejoin:round;stroke-miterlimit:1.41421;"><path d="M23,13.854c0,0.913 -0.741,1.656 -1.652,1.656l-1.396,0l0,-7.936l1.395,0c0.912,0 1.653,0.743 1.653,1.656l0,4.623Zm-11,9.146c-0.552,0 -1,-0.448 -1,-1c0,-0.551 0.448,-1 1,-1c0.552,0 1,0.449 1,1c0,0.552 -0.448,1 -1,1m-7.953,-7.489l-1.395,0c-0.911,0 -1.652,-0.743 -1.652,-1.657l0,-4.623c0,-0.913 0.741,-1.656 1.652,-1.656l1.395,0l0,7.937Zm17.3,-8.936l-1.431,0c-0.138,-1.781 -0.936,-3.433 -2.249,-4.659c-1.323,-1.235 -3.046,-1.917 -4.852,-1.917l-1.631,0c-1.805,0 -3.528,0.682 -4.851,1.917c-1.313,1.225 -2.111,2.879 -2.249,4.659l-1.432,0c-1.463,0 -2.652,1.192 -2.652,2.656l0,4.623c0,1.465 1.189,2.657 2.652,2.657l1.895,0c0.276,0 0.5,-0.224 0.5,-0.5l0,-8.917l0.033,-0.428c0.115,-1.535 0.803,-2.962 1.935,-4.019c1.137,-1.062 2.618,-1.648 4.169,-1.648l1.631,0.001c1.552,0 3.033,0.585 4.17,1.646c1.132,1.058 1.82,2.486 1.935,4.021l0.033,0.407l-0.001,8.917l-0.033,0.425c-0.197,2.479 -1.849,4.578 -4.148,5.329l-0.782,0.15c-0.055,-1.052 -0.922,-1.895 -1.989,-1.895c-1.103,0 -2,0.896 -2,1.999c0,1.105 0.897,2 2,2c0.752,0 1.401,-0.421 1.742,-1.037l1.278,-0.251c2.74,-0.89 4.66,-3.323 4.894,-6.2l1.434,0c1.463,0 2.652,-1.192 2.652,-2.657l0,-4.623c0,-1.464 -1.19,-2.656 -2.653,-2.656" /></svg>