<svg xmlns="http://www.w3.org/2000/svg" viewBox="0 0 24 24" style="fill-rule:evenodd;clip-rule:evenodd;stroke-linejoin:round;stroke-miterlimit:1.41421;">
    <g id="Icons">
        <path d="M15.5,10C14.673,10 14,9.327 14,8.5C14,7.673 14.673,7 15.5,7C16.327,7 17,7.673 17,8.5C17,9.327 16.327,10 15.5,10M15.5,6C14.121,6 13,7.121 13,8.5C13,9.879 14.121,11 15.5,11C16.879,11 18,9.879 18,8.5C18,7.121 16.879,6 15.5,6" />
        <path d="M18,4C18,3.448 18.448,3 19,3C19.552,3 20,3.448 20,4C20,4.552 19.552,5 19,5C18.448,5 18,4.552 18,4M21,4C21,2.897 20.103,2 19,2C17.897,2 17,2.897 17,4C17,5.103 17.897,6 19,6C20.103,6 21,5.103 21,4" />
        <path d="M16.458,17.67C16.211,17.817 15.402,18.244 14.883,18.228C14.277,18.217 9.006,17.669 7.025,17.459C6.977,17.453 6.929,17.455 6.881,17.465L6.048,17.621C6.129,16.365 6.099,14.901 5.898,13.524C6.496,13.328 7.812,12.9 9.798,12.257C11.855,12.74 14.692,13.442 15.782,13.779C15.693,13.922 15.547,14.051 15.308,14.225L15.266,14.244C15.243,14.255 15.223,14.267 15.203,14.279C13.527,14.244 11.542,14.145 11.54,14.145C11.54,14.145 11.105,14.113 11.077,14.608C11.054,15.024 11.379,15.14 11.489,15.143C11.609,15.147 13.645,15.252 15.373,15.283C15.474,15.282 15.58,15.255 15.665,15.195C15.717,15.16 15.767,15.125 15.816,15.09L21.096,12.588C21.104,12.584 21.886,12.237 22.573,12.308C22.669,12.376 22.752,12.454 22.82,12.531L16.458,17.67ZM5.016,18.071C4.99,18.144 4.979,18.22 4.988,18.301C4.938,18.753 4.876,19.166 4.797,19.485C4.52,19.619 3.726,19.802 2.952,19.934L1.104,12.337C1.879,12.159 3.457,11.859 4.577,12.071C5.109,13.88 5.182,16.316 5.016,18.071M23.011,11.4C22.958,11.369 22.9,11.348 22.841,11.337C21.818,11.159 20.719,11.659 20.671,11.683L16.899,13.47C16.899,13.279 16.791,13.104 16.616,13.02C15.844,12.648 10.133,11.309 9.891,11.251C9.801,11.232 9.71,11.234 9.622,11.263C7.7,11.885 6.39,12.312 5.724,12.528C5.645,12.167 5.553,11.818 5.444,11.492C5.393,11.335 5.266,11.213 5.105,11.168C3.321,10.666 0.483,11.457 0.364,11.49C0.105,11.564 -0.05,11.828 0.015,12.09L2.09,20.618C2.145,20.845 2.348,21 2.575,21C2.599,21 2.623,20.998 2.647,20.995C5.534,20.575 5.655,20.14 5.727,19.88C5.817,19.554 5.89,19.124 5.95,18.656L6.993,18.461C7.791,18.546 14.125,19.214 14.865,19.228L14.897,19.228C15.77,19.228 16.849,18.602 17.027,18.488L23.813,13.014C23.999,12.865 24.054,12.607 23.944,12.395C23.91,12.33 23.599,11.752 23.011,11.4" />
    </g>
</svg>
