<svg xmlns="http://www.w3.org/2000/svg" viewBox="0 0 24 24" style="fill-rule:evenodd;clip-rule:evenodd;stroke-linejoin:round;stroke-miterlimit:1.41421;">
                <g transform="matrix(1,0,0,1,2.5,20)">
                    <path d="M0,-16L7,-16C7.254,-16 7.751,-15.509 8.037,-15.068C8.37,-14.554 8.97,-14 9.5,-14L19,-14C19.275,-14 19.5,-13.776 19.5,-13.5L19.5,-12L-0.5,-12L-0.5,-15.5C-0.5,-15.776 -0.275,-16 0,-16M19,0L0,0C-0.275,0 -0.5,-0.224 -0.5,-0.5L-0.5,-11L19.5,-11L19.5,-0.5C19.5,-0.224 19.275,0 19,0M0,1L19,1C19.827,1 20.5,0.327 20.5,-0.5L20.5,-11.5L20.5,-13.5C20.5,-14.327 19.827,-15 19,-15L9.526,-14.998C9.422,-15.022 9.108,-15.254 8.877,-15.611C8.727,-15.843 7.932,-17 7,-17L0,-17C-0.827,-17 -1.5,-16.327 -1.5,-15.5L-1.5,-0.5C-1.5,0.327 -0.827,1 0,1" />
                </g>
                <g transform="matrix(1,0,0,1,19.5,12)">
                    <path d="M0,-1L-3,-1C-3.276,-1 -3.5,-0.776 -3.5,-0.5C-3.5,-0.224 -3.276,0 -3,0L0,0C0.276,0 0.5,-0.224 0.5,-0.5C0.5,-0.776 0.276,-1 0,-1" />
                </g>
                <g transform="matrix(1,0,0,1,19.5,15)">
                    <path d="M0,-1L-3,-1C-3.276,-1 -3.5,-0.776 -3.5,-0.5C-3.5,-0.224 -3.276,0 -3,0L0,0C0.276,0 0.5,-0.224 0.5,-0.5C0.5,-0.776 0.276,-1 0,-1" />
                </g>
</svg>
