<svg xmlns="http://www.w3.org/2000/svg" viewBox="0 0 24 24" style="fill-rule:evenodd;clip-rule:evenodd;stroke-linejoin:round;stroke-miterlimit:1.41421;"><path d="M2.721,3.759c1.106,-1.134 2.576,-1.759 4.138,-1.759c1.565,0 3.039,0.628 4.152,1.769l0.639,0.655c0.188,0.193 0.527,0.192 0.716,0l0.628,-0.645c1.11,-1.138 2.583,-1.764 4.148,-1.764c1.565,0 3.037,0.624 4.142,1.759c1.111,1.139 1.721,2.655 1.716,4.272c0,1.613 -0.612,3.13 -1.725,4.27l-9.176,9.376c-0.027,0.027 -0.064,0.064 -0.104,0.105c-0.042,-0.043 -0.08,-0.081 -0.107,-0.109l-9.157,-9.391c-1.116,-1.144 -1.731,-2.66 -1.731,-4.268c-0.004,-1.611 0.607,-3.127 1.721,-4.27m-0.706,9.236l9.157,9.391c0.129,0.132 0.469,0.469 0.469,0.469c0.098,0.096 0.225,0.145 0.352,0.145c0.126,0 0.252,-0.048 0.349,-0.142c0,0 0.343,-0.334 0.472,-0.467l9.177,-9.376c1.295,-1.329 2.009,-3.093 2.009,-4.968c0.006,-1.878 -0.705,-3.643 -2,-4.971c-1.295,-1.329 -3.021,-2.061 -4.858,-2.061c-1.837,0 -3.564,0.734 -4.863,2.066l-0.271,0.278l-0.281,-0.288c-1.302,-1.335 -3.031,-2.071 -4.868,-2.071c-1.834,0 -3.558,0.732 -4.854,2.061c-1.298,1.331 -2.01,3.096 -2.005,4.969c0,1.87 0.716,3.633 2.015,4.965" /></svg>