<svg xmlns="http://www.w3.org/2000/svg" viewBox="0 0 24 24" style="fill-rule:evenodd;clip-rule:evenodd;stroke-linejoin:round;stroke-miterlimit:1.41421;"><path d="M13.539,13.21c0.585,0.62 1.6,1.637 1.856,1.87c0.155,0.155 0.314,0.309 0.474,0.463c1.096,1.059 2.131,2.06 2.131,3.818l0,2.639l-12,0l0,-2.639c0,-1.758 1.036,-2.759 2.132,-3.818c0.159,-0.154 0.319,-0.308 0.457,-0.447c0.273,-0.249 1.288,-1.266 1.914,-1.932c0.123,-0.134 0.497,-0.542 0.497,-1.164c0,-0.622 -0.374,-1.03 -0.538,-1.21c-0.585,-0.62 -1.6,-1.637 -1.856,-1.87c-0.155,-0.155 -0.315,-0.309 -0.474,-0.462c-1.096,-1.06 -2.132,-2.061 -2.132,-3.819l0,-2.639l12,0l0,2.639c0,1.758 -1.035,2.759 -2.131,3.819c-0.157,0.151 -0.313,0.302 -0.466,0.455c-0.285,0.261 -1.285,1.264 -1.905,1.923c-0.123,0.134 -0.498,0.542 -0.498,1.164c0,0.622 0.375,1.03 0.539,1.21m2.546,-3.566c0.006,-0.006 0.012,-0.011 0.017,-0.017c0.151,-0.151 0.306,-0.301 0.461,-0.45c1.143,-1.104 2.437,-2.356 2.437,-4.538l0,-3.139c0,-0.276 -0.223,-0.5 -0.5,-0.5l-13,0c-0.276,0 -0.5,0.224 -0.5,0.5l0,3.139c0,2.182 1.295,3.434 2.437,4.538c0.156,0.149 0.31,0.299 0.478,0.467c0.233,0.212 1.22,1.197 1.778,1.782c0.012,0.016 0.06,0.072 0.074,0.087c0.081,0.089 0.233,0.255 0.233,0.487c0,0.232 -0.152,0.398 -0.265,0.523c-0.6,0.636 -1.587,1.622 -1.836,1.85c-0.152,0.151 -0.306,0.301 -0.462,0.45c-1.142,1.104 -2.437,2.356 -2.437,4.538l0,3.139c0,0.276 0.224,0.5 0.5,0.5l13,0c0.277,0 0.5,-0.224 0.5,-0.5l0,-3.139c0,-2.182 -1.294,-3.434 -2.437,-4.538c-0.155,-0.149 -0.31,-0.299 -0.478,-0.467c-0.232,-0.211 -1.219,-1.197 -1.777,-1.782c-0.012,-0.016 -0.06,-0.072 -0.074,-0.087c-0.081,-0.089 -0.234,-0.255 -0.234,-0.487c0,-0.232 0.153,-0.398 0.266,-0.523c0.6,-0.636 1.587,-1.621 1.819,-1.833" /></svg>