<svg xmlns="http://www.w3.org/2000/svg" viewBox="0 0 24 24" style="fill-rule:evenodd;clip-rule:evenodd;stroke-linejoin:round;stroke-miterlimit:1.41421;">
<g transform="matrix(1,0,0,1,2.5,11)">
                    <path d="M0,1L2.4,-2.2C2.465,-2.287 2.5,-2.392 2.5,-2.5L2.5,-7L4.5,-7L4.5,-5.5C4.5,-5.293 4.627,-5.107 4.821,-5.033C5.016,-4.958 5.233,-5.012 5.372,-5.166L9.495,-9.747L18.898,1L18,1C17.724,1 17.5,1.224 17.5,1.5L17.5,11L1.5,11L1.5,1.5C1.5,1.224 1.276,1 1,1L0,1ZM1,12L18,12C18.276,12 18.5,11.776 18.5,11.5L18.5,2L20,2C20.196,2 20.374,1.885 20.455,1.707C20.537,1.528 20.505,1.318 20.376,1.171L9.876,-10.829C9.782,-10.937 9.646,-10.999 9.503,-11C9.368,-11 9.224,-10.94 9.128,-10.834L5.5,-6.803L5.5,-7.5C5.5,-7.776 5.276,-8 5,-8L2,-8C1.724,-8 1.5,-7.776 1.5,-7.5L1.5,-2.667L-1.4,1.2C-1.514,1.352 -1.532,1.554 -1.447,1.724C-1.362,1.893 -1.189,2 -1,2L0.5,2L0.5,11.5C0.5,11.776 0.724,12 1,12" />
                </g>
                <g transform="matrix(1,0,0,1,17,17)">
                    <path d="M0,-4L0,-2.525C-0.027,-2.342 -0.374,-2 -1.5,-2L-3.5,-2L-3.5,-2.5C-3.5,-2.776 -3.724,-3 -4,-3L-6,-3C-6.276,-3 -6.5,-2.776 -6.5,-2.5L-6.5,-2L-8.5,-2C-9.621,-2 -9.97,-2.339 -10,-2.522L-10,-4L0,-4ZM-7,-5.5C-7,-5.776 -6.776,-6 -6.5,-6L-3.5,-6C-3.224,-6 -3,-5.776 -3,-5.5L-3,-5L-7,-5L-7,-5.5ZM-5.5,-2L-4.5,-2L-4.5,-1L-5.5,-1L-5.5,-2ZM-10,2L-10,-1.256C-9.643,-1.104 -9.161,-1 -8.5,-1L-6.5,-1L-6.5,-0.5C-6.5,-0.224 -6.276,0 -6,0L-4,0C-3.724,0 -3.5,-0.224 -3.5,-0.5L-3.5,-1L-1.5,-1C-0.839,-1 -0.357,-1.104 0,-1.256L0,2L-10,2ZM-10.5,3L0.5,3C0.776,3 1,2.776 1,2.5L1,-4.5C1,-4.776 0.776,-5 0.5,-5L-2,-5L-2,-5.5C-2,-6.327 -2.673,-7 -3.5,-7L-6.5,-7C-7.327,-7 -8,-6.327 -8,-5.5L-8,-5L-10.5,-5C-10.776,-5 -11,-4.776 -11,-4.5L-11,2.5C-11,2.776 -10.776,3 -10.5,3" />
                </g>
</svg>
