<svg xmlns="http://www.w3.org/2000/svg" viewBox="0 0 24 24" style="fill-rule:evenodd;clip-rule:evenodd;stroke-linejoin:round;stroke-miterlimit:1.41421;"><path d="M3.718,3.718c0.623,-0.623 1.453,-0.966 2.337,-0.966c0.884,0 1.713,0.342 2.336,0.965l2.904,2.904l-4.674,4.674l-2.903,-2.904c-0.625,-0.625 -0.969,-1.454 -0.968,-2.336c0,-0.882 0.343,-1.712 0.968,-2.337m12.951,8.282l-4.669,4.669l-4.67,-4.669l4.67,-4.67l4.669,4.67Zm-1.06,-8.282c1.246,-1.249 3.423,-1.249 4.672,0c0.625,0.625 0.969,1.455 0.969,2.337c0,0.882 -0.344,1.712 -0.968,2.336l-2.903,2.904l-4.674,-4.674l2.904,-2.903Zm4.673,11.89c1.288,1.288 1.288,3.385 -0.001,4.673c-1.248,1.249 -3.425,1.248 -4.673,0.001l-2.903,-2.903l4.674,-4.674l2.903,2.903Zm-11.891,4.674c-1.246,1.245 -3.428,1.245 -4.673,-0.001c-1.289,-1.288 -1.289,-3.384 -0.001,-4.672l2.904,-2.904l4.674,4.674l-2.904,2.903Zm-2.479,-8.282l-2.902,2.902c-1.678,1.677 -1.678,4.408 0.001,6.087c0.812,0.812 1.893,1.259 3.044,1.259c1.151,0 2.232,-0.447 3.043,-1.259l2.902,-2.901l2.901,2.901c0.813,0.813 1.894,1.261 3.044,1.261c1.15,0 2.231,-0.448 3.044,-1.261c1.678,-1.679 1.678,-4.41 0,-6.088l-2.901,-2.901l2.901,-2.902c0.814,-0.814 1.261,-1.894 1.261,-3.043c0,-1.15 -0.448,-2.231 -1.261,-3.044c-0.814,-0.814 -1.895,-1.261 -3.045,-1.261c-1.15,0 -2.231,0.447 -3.042,1.26l-2.902,2.902l-2.902,-2.902c-0.812,-0.812 -1.892,-1.258 -3.043,-1.258c-1.151,0 -2.233,0.447 -3.044,1.259c-0.814,0.813 -1.261,1.894 -1.261,3.044c-0.001,1.148 0.447,2.229 1.26,3.043l2.902,2.902Z" /><path d="M9.862,12.454c0.224,0.224 0.587,0.224 0.812,0c0.223,-0.224 0.223,-0.587 0,-0.811c-0.225,-0.224 -0.588,-0.224 -0.812,0c-0.224,0.224 -0.224,0.587 0,0.811" /><path d="M11.637,13.321c-0.224,0.224 -0.224,0.587 0,0.811c0.224,0.224 0.587,0.224 0.811,0c0.224,-0.224 0.224,-0.587 0,-0.811c-0.224,-0.224 -0.587,-0.224 -0.811,0" /><path d="M12.434,10.684c0.224,-0.224 0.224,-0.587 0,-0.811c-0.224,-0.224 -0.587,-0.224 -0.811,0c-0.224,0.224 -0.224,0.587 0,0.811c0.224,0.224 0.587,0.224 0.811,0" /><path d="M14.117,12.469c0.224,-0.224 0.224,-0.587 0,-0.811c-0.224,-0.224 -0.587,-0.224 -0.811,0c-0.224,0.224 -0.224,0.587 0,0.811c0.224,0.224 0.587,0.224 0.811,0" /></svg>