<svg xmlns="http://www.w3.org/2000/svg" viewBox="0 0 24 24" style="fill-rule:evenodd;clip-rule:evenodd;stroke-linejoin:round;stroke-miterlimit:1.41421;"><path d="M12.033,18c-0.551,0 -1,-0.448 -1,-1c0,-0.552 0.449,-1 1,-1c0.551,0 1,0.448 1,1c0,0.552 -0.449,1 -1,1m0,-3c-1.103,0 -2,0.897 -2,2c0,1.103 0.897,2 2,2c1.103,0 2,-0.897 2,-2c0,-1.103 -0.897,-2 -2,-2" /><path d="M12.984,6l-0.219,7l-1.53,0l-0.219,-7l1.968,0Zm-2.234,8l2.5,0c0.27,0 0.491,-0.215 0.5,-0.484l0.25,-8c0.004,-0.136 -0.047,-0.267 -0.141,-0.364c-0.094,-0.097 -0.224,-0.152 -0.359,-0.152l-3,0c-0.135,0 -0.265,0.055 -0.359,0.152c-0.094,0.097 -0.145,0.228 -0.141,0.364l0.25,8c0.009,0.269 0.23,0.484 0.5,0.484" /><path d="M20.447,13.645c-0.198,0.147 -0.259,0.416 -0.144,0.634l1.3,2.47l-2.681,0.496c-0.246,0.045 -0.42,0.264 -0.409,0.513l0.126,2.793l-2.61,-0.743c-0.245,-0.075 -0.502,0.055 -0.599,0.289l-1.062,2.559l-2.033,-1.828c-0.191,-0.17 -0.479,-0.17 -0.669,0l-2.034,1.828l-1.062,-2.559c-0.079,-0.19 -0.264,-0.308 -0.462,-0.308c-0.045,0 -0.091,0.005 -0.137,0.019l-2.61,0.743l0.126,-2.793c0.011,-0.249 -0.163,-0.468 -0.409,-0.513l-2.68,-0.496l1.3,-2.47c0.115,-0.218 0.054,-0.488 -0.144,-0.634l-2.215,-1.646l2.215,-1.646c0.198,-0.147 0.259,-0.416 0.144,-0.634l-1.3,-2.47l2.68,-0.493c0.246,-0.046 0.42,-0.264 0.409,-0.514l-0.126,-2.793l2.61,0.742c0.243,0.071 0.501,-0.054 0.599,-0.288l1.062,-2.56l2.034,1.829c0.19,0.17 0.478,0.17 0.669,0l2.033,-1.829l1.062,2.56c0.097,0.234 0.356,0.362 0.599,0.289l2.61,-0.743l-0.126,2.794c-0.011,0.249 0.163,0.468 0.409,0.514l2.68,0.493l-1.299,2.47c-0.115,0.217 -0.054,0.486 0.144,0.633l2.215,1.646l-2.215,1.646Zm0.94,-3.838l1.417,-2.693c0.074,-0.141 0.077,-0.308 0.007,-0.451c-0.069,-0.143 -0.202,-0.245 -0.359,-0.274l-2.921,-0.538l0.139,-3.052c0.007,-0.16 -0.063,-0.314 -0.19,-0.414c-0.126,-0.099 -0.292,-0.135 -0.447,-0.089l-2.85,0.813l-1.162,-2.801c-0.063,-0.15 -0.194,-0.26 -0.352,-0.295c-0.159,-0.038 -0.324,0.007 -0.445,0.115l-2.224,2l-2.225,-2c-0.12,-0.108 -0.286,-0.153 -0.444,-0.115c-0.158,0.035 -0.289,0.145 -0.352,0.295l-1.162,2.801l-2.85,-0.813c-0.154,-0.046 -0.32,-0.01 -0.447,0.089c-0.127,0.1 -0.197,0.254 -0.19,0.414l0.138,3.052l-2.919,0.538c-0.157,0.029 -0.29,0.131 -0.359,0.274c-0.07,0.143 -0.067,0.31 0.007,0.451l1.417,2.693l-2.412,1.791c-0.127,0.095 -0.202,0.243 -0.202,0.401c0,0.159 0.075,0.307 0.202,0.402l2.412,1.793l-1.417,2.691c-0.074,0.14 -0.077,0.308 -0.007,0.45c0.069,0.144 0.202,0.245 0.359,0.274l2.919,0.54l-0.138,3.052c-0.007,0.16 0.063,0.314 0.19,0.415c0.127,0.099 0.293,0.135 0.447,0.088l2.85,-0.813l1.162,2.8c0.063,0.151 0.194,0.261 0.352,0.297c0.158,0.037 0.324,-0.009 0.444,-0.116l2.225,-2l2.224,2c0.093,0.083 0.213,0.128 0.335,0.128c0.036,0 0.074,-0.003 0.11,-0.012c0.158,-0.036 0.289,-0.146 0.352,-0.297l1.162,-2.8l2.85,0.813c0.155,0.047 0.321,0.011 0.447,-0.088c0.127,-0.101 0.197,-0.255 0.19,-0.415l-0.139,-3.052l2.921,-0.54c0.157,-0.029 0.29,-0.13 0.359,-0.273c0.07,-0.143 0.067,-0.311 -0.007,-0.451l-1.417,-2.692l2.412,-1.791c0.127,-0.095 0.201,-0.243 0.201,-0.402c0,-0.159 -0.074,-0.306 -0.201,-0.402l-2.412,-1.791Z" /></svg>