<svg xmlns="http://www.w3.org/2000/svg" viewBox="0 0 24 24" style="fill-rule:evenodd;clip-rule:evenodd;stroke-linejoin:round;stroke-miterlimit:1.41421;">
                <g transform="matrix(1,0,0,1,2.5,7.28)">
                    <path d="M0,4.72L2.4,1.52C2.465,1.433 2.5,1.328 2.5,1.22L2.5,-3.28L4.5,-3.28L4.5,-1.78C4.5,-1.573 4.627,-1.387 4.821,-1.313C5.015,-1.238 5.233,-1.292 5.372,-1.446L9.495,-6.027L18.898,4.72L18,4.72C17.724,4.72 17.5,4.944 17.5,5.22L17.5,10.055C16.135,10.942 14.283,10.933 12.932,10.015C12.848,9.959 12.765,9.899 12.686,9.836C12.504,9.692 12.248,9.692 12.065,9.835C11.985,9.899 11.902,9.959 11.817,10.016C10.446,10.947 8.554,10.947 7.183,10.016C7.098,9.959 7.015,9.899 6.935,9.835C6.753,9.692 6.497,9.692 6.315,9.835C6.235,9.898 6.153,9.958 6.067,10.016C4.718,10.932 2.865,10.942 1.5,10.055L1.5,5.22C1.5,4.944 1.276,4.72 1,4.72L0,4.72ZM-2,11.728C-0.969,11.728 0.025,11.423 0.875,10.846C2.578,12 4.925,11.999 6.625,10.846C8.327,12 10.674,12 12.375,10.846C14.077,12 16.424,12 18.125,10.846C18.976,11.423 19.97,11.728 21,11.728C21.276,11.728 21.5,11.504 21.5,11.228C21.5,10.951 21.276,10.728 21,10.728C20.169,10.728 19.368,10.482 18.682,10.015C18.62,9.973 18.56,9.928 18.5,9.883L18.5,5.72L20,5.72C20.196,5.72 20.374,5.605 20.455,5.427C20.537,5.248 20.505,5.038 20.376,4.891L9.876,-7.109C9.782,-7.217 9.646,-7.279 9.503,-7.28C9.371,-7.246 9.224,-7.22 9.128,-7.114L5.5,-3.083L5.5,-3.78C5.5,-4.056 5.276,-4.28 5,-4.28L2,-4.28C1.724,-4.28 1.5,-4.056 1.5,-3.78L1.5,1.053L-1.4,4.92C-1.514,5.072 -1.532,5.274 -1.447,5.444C-1.362,5.613 -1.189,5.72 -1,5.72L0.5,5.72L0.5,9.883C0.44,9.928 0.38,9.973 0.317,10.016C-0.368,10.482 -1.169,10.728 -2,10.728C-2.276,10.728 -2.5,10.951 -2.5,11.228C-2.5,11.504 -2.276,11.728 -2,11.728" />
                </g>
                <g transform="matrix(1,0,0,1,21.0176,22.0272)">
                    <path d="M0,-1.829C-0.171,-2.045 -0.484,-2.082 -0.702,-1.912C-0.783,-1.849 -0.866,-1.788 -0.95,-1.731C-2.321,-0.8 -4.213,-0.799 -5.586,-1.732C-5.67,-1.788 -5.752,-1.849 -5.832,-1.912C-6.013,-2.055 -6.27,-2.056 -6.452,-1.912C-6.533,-1.849 -6.616,-1.788 -6.7,-1.731C-8.071,-0.8 -9.964,-0.8 -11.335,-1.731C-11.419,-1.788 -11.502,-1.849 -11.583,-1.912C-11.765,-2.056 -12.021,-2.056 -12.202,-1.912C-12.282,-1.849 -12.365,-1.789 -12.45,-1.731C-13.821,-0.8 -15.714,-0.8 -17.085,-1.731C-17.169,-1.788 -17.252,-1.849 -17.333,-1.912C-17.55,-2.082 -17.863,-2.045 -18.035,-1.829C-18.206,-1.612 -18.169,-1.298 -17.952,-1.127C-17.853,-1.049 -17.75,-0.974 -17.646,-0.904C-15.944,0.253 -13.593,0.252 -11.893,-0.901C-10.19,0.253 -7.844,0.253 -6.143,-0.901C-5.292,-0.324 -4.298,-0.019 -3.268,-0.019C-2.236,-0.019 -1.24,-0.325 -0.389,-0.904C-0.285,-0.974 -0.182,-1.049 -0.083,-1.127C0.134,-1.298 0.171,-1.612 0,-1.829" />
                </g>
</svg>
