<svg xmlns="http://www.w3.org/2000/svg" viewBox="0 0 24 24" style="fill-rule:evenodd;clip-rule:evenodd;stroke-linejoin:round;stroke-miterlimit:1.41421;">
    <g transform="matrix(0.996281,0,0,0.996281,0.0404726,0.00743888)">
        <path d="M6,13C5.448,13 5,12.551 5,12C5,11.449 5.448,11 6,11C6.552,11 7,11.449 7,12C7,12.551 6.552,13 6,13M6,10C4.897,10 4,10.897 4,12C4,13.103 4.897,14 6,14C7.103,14 8,13.103 8,12C8,10.897 7.103,10 6,10" />
    </g>
    <g transform="matrix(0.996281,0,0,0.996281,0.0404726,0.00743888)">
        <path d="M22.539,18L3.225,18C2.049,16.645 1.066,15.139 1.008,13.389C0.906,10.384 1.812,7.803 3.629,5.925C5.452,4.039 8.133,3 11.178,3C13.745,3 15.707,4.103 16.545,4.574L16.659,4.638C17.435,5.07 17.805,5.637 17.925,5.853C16.092,5.98 12.293,6.561 10.966,7.899C10.097,8.789 9.664,9.877 9.68,11.134C9.694,12.811 10.518,14.195 12.062,15.136C13.405,15.958 15.354,16.43 17.409,16.43C18.519,16.43 21.797,16.035 22.815,15.786C23.131,16.778 22.976,17.433 22.539,18M21.381,19.119C21.054,19.394 20.718,19.676 20.386,20L5.104,20L4.785,19.671C4.57,19.451 4.352,19.228 4.134,19L21.52,19C21.473,19.041 21.43,19.078 21.381,19.119M18.391,6.829C19.164,8.459 20.865,11.996 22.209,14.409C22.298,14.57 22.352,14.702 22.426,14.849C21.396,15.065 18.443,15.43 17.409,15.43C15.533,15.43 13.774,15.012 12.583,14.283C11.35,13.531 10.69,12.439 10.68,11.124C10.668,10.14 11.005,9.291 11.679,8.601C12.811,7.458 16.844,6.883 18.391,6.829M22.023,19.885C22.368,19.596 23.06,18.944 23.06,18.944C24.056,17.889 24.548,16.557 23.082,13.923C21.313,10.744 18.905,5.576 18.888,5.539C18.869,5.496 18.422,4.473 17.145,3.765L17.035,3.703C16.129,3.193 14.008,2 11.178,2C7.859,2 4.924,3.147 2.91,5.229C0.9,7.308 -0.103,10.141 0.008,13.422C0.105,16.312 2.304,18.562 4.069,20.37L4.682,21L20.803,21L20.95,20.85C21.296,20.496 21.666,20.186 22.023,19.885Z" />
    </g>
</svg>
