<svg xmlns="http://www.w3.org/2000/svg" viewBox="0 0 24 24" style="fill-rule:evenodd;clip-rule:evenodd;stroke-linejoin:round;stroke-miterlimit:1.41421;">
<g transform="matrix(1,0,0,1,15.249,4.6957)">
                        <path d="M0,7.608C-1.379,8.553 -2.803,9.53 -2.885,11.304L-5.459,11.304C-5.39,8.74 -3.69,7.517 -2.045,6.335C-0.622,5.312 0.849,4.254 0.849,2.386C0.849,0.27 -0.989,-1.152 -3.725,-1.152C-5.362,-1.152 -6.917,-0.674 -8.178,0.207L-8.914,-2.027C-7.456,-3.105 -5.51,-3.696 -3.39,-3.696C0.829,-3.696 3.555,-1.374 3.555,2.217C3.555,5.17 1.747,6.41 0,7.608M-3.39,-4.696C-5.873,-4.696 -8.154,-3.949 -9.815,-2.591C-9.976,-2.46 -10.039,-2.245 -9.974,-2.048L-8.905,1.192C-8.854,1.351 -8.725,1.473 -8.563,1.518C-8.403,1.559 -8.23,1.524 -8.104,1.414C-6.937,0.404 -5.383,-0.152 -3.725,-0.152C-1.554,-0.152 -0.151,0.844 -0.151,2.386C-0.151,3.741 -1.3,4.567 -2.629,5.523C-4.336,6.751 -6.461,8.279 -6.461,11.466L-6.461,11.804C-6.461,12.081 -6.237,12.304 -5.961,12.304L-2.389,12.304C-2.112,12.304 -1.889,12.081 -1.889,11.804L-1.889,11.466C-1.889,10.116 -0.806,9.373 0.565,8.433C2.343,7.214 4.555,5.697 4.555,2.217C4.555,-1.917 1.362,-4.696 -3.39,-4.696" />
                    </g>
                    <g transform="matrix(1,0,0,1,11,19)">
                        <path d="M0,4C-1.141,4 -2,3.141 -2,2.001C-2,0.842 -1.159,0 0,0C1.159,0 2,0.842 2,2.001C2,3.159 1.159,4 0,4M0,-1C-1.71,-1 -3,0.29 -3,2.001C-3,3.711 -1.71,5 0,5C1.71,5 3,3.711 3,2.001C3,0.29 1.71,-1 0,-1" />
                    </g>
</svg>
