<svg xmlns="http://www.w3.org/2000/svg" viewBox="0 0 24 24" style="fill-rule:evenodd;clip-rule:evenodd;stroke-linejoin:round;stroke-miterlimit:1.41421;">
                <g transform="matrix(1,0,0,1,0,8)">
                    <path d="M13.5,15L10.5,15L10.5,1L13.5,1L13.5,15ZM14,0L10,0C9.724,0 9.5,0.224 9.5,0.5L9.5,15.5C9.5,15.776 9.724,16 10,16L14,16C14.276,16 14.5,15.776 14.5,15.5L14.5,0.5C14.5,0.224 14.276,0 14,0" />
                </g>
                <g transform="matrix(1,0,0,1,12.001,1)">
                    <path d="M0,4C-1.104,4 -2.001,3.103 -2.001,2C-2.001,0.897 -1.104,0 0,0C1.103,0 1.999,0.897 1.999,2C1.999,3.103 1.103,4 0,4M0,-1C-1.654,-1 -3.001,0.346 -3.001,2C-3.001,3.654 -1.654,5 0,5C1.653,5 2.999,3.654 2.999,2C2.999,0.346 1.653,-1 0,-1" />
                </g>
</svg>
