<svg xmlns="http://www.w3.org/2000/svg" viewBox="0 0 24 24" style="fill-rule:evenodd;clip-rule:evenodd;stroke-linejoin:round;stroke-miterlimit:1.41421;"><path d="M20.5,12c-0.276,0 -0.5,0.224 -0.5,0.5l0,9.5l-3.588,0c0.627,-0.57 1.088,-1.428 1.088,-2.688c0,-1.056 -0.432,-1.945 -0.78,-2.662c-0.253,-0.52 -0.492,-1.01 -0.509,-1.433c-0.029,-0.699 0.009,-1.209 0.029,-1.483c0.021,-0.278 0.038,-0.518 -0.211,-0.688c-0.144,-0.099 -0.334,-0.115 -0.495,-0.042c-0.094,0.043 -0.846,0.402 -1.239,0.978c-0.084,-0.288 -0.196,-0.599 -0.382,-0.859c-0.151,-0.214 -0.29,-0.395 -0.435,-0.586c-0.403,-0.524 -0.539,-0.701 -0.552,-1.162c-0.014,-0.479 0.027,-1.055 0.054,-1.436c0.029,-0.41 0.035,-0.483 -0.008,-0.605c-0.068,-0.191 -0.248,-0.326 -0.451,-0.336c-0.004,0 -0.008,0 -0.013,0c-0.501,0 -2.009,1.402 -2.707,2.882c-0.37,0.784 -0.471,1.717 -0.551,2.467c-0.021,0.196 -0.046,0.428 -0.07,0.621c-0.084,-0.144 -0.17,-0.342 -0.231,-0.482c-0.116,-0.267 -0.216,-0.497 -0.524,-0.527c-0.188,-0.019 -0.356,0.064 -0.459,0.209c-0.061,0.083 -1.466,2.077 -1.466,4.681c0,1.571 0.544,2.544 1.217,3.151l-3.717,0l0,-9.5c0,-0.276 -0.224,-0.5 -0.5,-0.5l-1,0l2.4,-3.2c0.065,-0.087 0.1,-0.192 0.1,-0.3l0,-4.5l2,0l0,1.5c0,0.207 0.128,0.393 0.321,0.467c0.191,0.073 0.412,0.022 0.551,-0.133l4.123,-4.581l9.403,10.747l-0.898,0Zm-6.187,9.938c0.209,-0.542 0.49,-1.383 0.54,-2.107c0.008,-0.126 0.023,-0.269 0.039,-0.42c0.088,-0.857 0.125,-1.446 -0.183,-1.802c-0.131,-0.152 -0.313,-0.241 -0.514,-0.251c-0.01,0 -0.021,0 -0.031,0c-0.245,0 -0.536,0.137 -0.607,0.8c-0.01,0.03 -0.02,0.061 -0.031,0.091c-0.029,-0.396 -0.081,-0.832 -0.172,-1.214c-0.24,-1.016 -0.554,-1.636 -0.935,-1.843c-0.184,-0.099 -0.39,-0.115 -0.579,-0.049c-0.492,0.176 -0.474,0.71 -0.462,1.063c0.007,0.198 0.015,0.422 -0.026,0.624c-0.085,0.411 -0.431,0.729 -0.832,1.097c-0.525,0.482 -1.119,1.029 -1.316,1.931c-0.187,0.854 0.008,1.539 0.246,2.007c-0.811,-0.25 -1.95,-0.967 -1.95,-3.016c0,-1.391 0.468,-2.599 0.839,-3.338c0.027,0.045 0.056,0.089 0.085,0.13c0.574,0.801 1.018,0.69 1.233,0.55c0.43,-0.275 0.496,-0.889 0.587,-1.737c0.072,-0.676 0.163,-1.516 0.461,-2.147c0.343,-0.726 0.828,-1.314 1.233,-1.721c-0.012,0.268 -0.019,0.552 -0.012,0.817c0.023,0.786 0.316,1.167 0.78,1.771c0.116,0.153 0.248,0.325 0.392,0.527c0.144,0.205 0.233,0.536 0.311,0.829c0.129,0.487 0.306,1.153 0.937,1.153l0.018,0c0.584,-0.01 0.656,-0.625 0.682,-0.856c0.008,-0.066 0.02,-0.175 0.032,-0.206c0.027,-0.059 0.07,-0.121 0.125,-0.18c-0.005,0.235 -0.004,0.509 0.008,0.817c0.026,0.632 0.323,1.241 0.61,1.831c0.334,0.687 0.679,1.397 0.679,2.223c0,1.922 -1.364,2.471 -2.187,2.626m-0.459,-2.175c-0.058,0.856 -0.539,1.989 -0.647,2.237l-2.469,0c-0.03,-0.051 -0.048,-0.109 -0.091,-0.15c-0.028,-0.028 -0.705,-0.693 -0.466,-1.778c0.13,-0.594 0.56,-0.99 1.016,-1.41c0.48,-0.44 0.976,-0.895 1.13,-1.613c0.019,0.069 0.036,0.141 0.055,0.217c0.193,0.817 0.184,2.007 0.182,2.141c-0.003,0.199 0.075,0.386 0.217,0.516c0.204,0.182 0.503,0.202 0.729,0.047c0.032,-0.022 0.177,-0.128 0.354,-0.331c-0.004,0.042 -0.007,0.084 -0.01,0.124m9.101,-7.056c0.081,-0.179 0.051,-0.389 -0.079,-0.536l-10.5,-12c-0.094,-0.108 -0.23,-0.17 -0.372,-0.171l-0.004,0c-0.142,0 -0.276,0.06 -0.372,0.166l-3.628,4.031l0,-0.697c0,-0.276 -0.224,-0.5 -0.5,-0.5l-3,0c-0.276,0 -0.5,0.224 -0.5,0.5l0,4.833l-2.9,3.867c-0.114,0.152 -0.132,0.354 -0.047,0.524c0.085,0.169 0.258,0.276 0.447,0.276l1.5,0l0,9.5c0,0.276 0.224,0.5 0.5,0.5l17,0c0.276,0 0.5,-0.224 0.5,-0.5l0,-9.5l1.5,0c0.196,0 0.374,-0.115 0.455,-0.293" /></svg>