<svg xmlns="http://www.w3.org/2000/svg" viewBox="0 0 24 24" style="fill-rule:evenodd;clip-rule:evenodd;stroke-linejoin:round;stroke-miterlimit:1.41421;">
<g transform="matrix(1,0,0,1,4.9004,14.1998)">
                        <path d="M0,-5.4C0.064,-5.486 0.1,-5.591 0.1,-5.7L0.1,-10.2L2.1,-10.2L2.1,-8.7C2.1,-8.493 2.228,-8.307 2.421,-8.233C2.61,-8.16 2.833,-8.211 2.972,-8.365L7.095,-12.946L16.498,-2.2L15.6,-2.2C15.323,-2.2 15.1,-1.976 15.1,-1.7L15.1,7.8L-0.9,7.8L-0.9,-1.7C-0.9,-1.976 -1.124,-2.2 -1.4,-2.2L-2.4,-2.2L0,-5.4ZM-3.4,-1.2L-1.9,-1.2L-1.9,8.3C-1.9,8.577 -1.677,8.8 -1.4,8.8L15.6,8.8C15.876,8.8 16.1,8.577 16.1,8.3L16.1,-1.2L17.6,-1.2C17.796,-1.2 17.974,-1.315 18.055,-1.493C18.136,-1.672 18.105,-1.881 17.976,-2.029L7.476,-14.029C7.382,-14.137 7.246,-14.199 7.104,-14.2L7.1,-14.2C6.958,-14.2 6.823,-14.14 6.728,-14.034L3.1,-10.003L3.1,-10.7C3.1,-10.976 2.876,-11.2 2.6,-11.2L-0.4,-11.2C-0.677,-11.2 -0.9,-10.976 -0.9,-10.7L-0.9,-5.866L-3.801,-2C-3.914,-1.848 -3.933,-1.646 -3.848,-1.476C-3.763,-1.307 -3.59,-1.2 -3.4,-1.2" />
                    </g>
                    <g transform="matrix(1,0,0,1,7.0127,14.5)">
                        <path d="M0,2C0,2.276 0.224,2.5 0.5,2.5L1.264,2.5C1.885,4.242 3.534,5.5 5.487,5.5C6.048,5.5 6.595,5.398 7.115,5.197C7.372,5.097 7.501,4.808 7.4,4.55C7.301,4.292 7.01,4.166 6.754,4.264C6.35,4.42 5.924,4.5 5.487,4.5C4.097,4.5 2.902,3.678 2.339,2.5L4.487,2.5C4.764,2.5 4.987,2.276 4.987,2C4.987,1.724 4.764,1.5 4.487,1.5L2.038,1.5C2.014,1.335 1.987,1.171 1.987,1C1.987,0.829 2.014,0.665 2.038,0.5L5.487,0.5C5.764,0.5 5.987,0.276 5.987,0C5.987,-0.276 5.764,-0.5 5.487,-0.5L2.339,-0.5C2.902,-1.678 4.097,-2.5 5.487,-2.5C5.96,-2.5 6.418,-2.408 6.849,-2.225C7.104,-2.118 7.396,-2.236 7.504,-2.491C7.612,-2.745 7.493,-3.038 7.239,-3.146C6.685,-3.381 6.095,-3.5 5.487,-3.5C3.534,-3.5 1.885,-2.242 1.264,-0.5L0.5,-0.5C0.224,-0.5 0,-0.276 0,0C0,0.276 0.224,0.5 0.5,0.5L1.038,0.5C1.02,0.667 0.987,0.829 0.987,1C0.987,1.171 1.02,1.333 1.038,1.5L0.5,1.5C0.224,1.5 0,1.724 0,2" />
                    </g>
</svg>
