<svg xmlns="http://www.w3.org/2000/svg" viewBox="0 0 24 24" style="fill-rule:evenodd;clip-rule:evenodd;stroke-linejoin:round;stroke-miterlimit:1.41421;"><path d="M3.679,16.014l7.76,-13.53c0.339,-0.591 0.784,-0.59 1.123,0l7.76,13.53c0.169,0.296 0.211,0.561 0.116,0.726c-0.096,0.166 -0.346,0.26 -0.688,0.26l-15.5,0c-0.341,0 -0.592,-0.094 -0.687,-0.26c-0.096,-0.165 -0.053,-0.43 0.116,-0.726m0.571,1.986l15.5,0c0.708,0 1.274,-0.277 1.553,-0.759c0.28,-0.482 0.238,-1.111 -0.114,-1.724l-7.76,-13.531c-0.705,-1.228 -2.152,-1.228 -2.857,0l0,0.001l-7.76,13.529c-0.352,0.614 -0.394,1.243 -0.114,1.725c0.279,0.482 0.845,0.759 1.552,0.759" /><path d="M1.244,20.93c0.237,0.142 0.544,0.063 0.686,-0.174l0.449,-0.756l19.241,0l0.45,0.756c0.094,0.157 0.26,0.244 0.43,0.244c0.087,0 0.176,-0.022 0.256,-0.07c0.237,-0.141 0.315,-0.448 0.174,-0.686l-0.596,-1c-0.09,-0.151 -0.253,-0.244 -0.429,-0.244l-19.81,0c-0.176,0 -0.339,0.093 -0.43,0.244l-0.595,1c-0.141,0.238 -0.063,0.545 0.174,0.686" /><path d="M12,12.58c0.276,0 0.5,-0.224 0.5,-0.5l0,-4.619c0,-0.277 -0.224,-0.5 -0.5,-0.5c-0.276,0 -0.5,0.223 -0.5,0.5l0,4.619c0,0.276 0.224,0.5 0.5,0.5" /><path d="M11.65,15.42c0.04,0.04 0.1,0.08 0.16,0.1c0.06,0.03 0.13,0.04 0.19,0.04c0.07,0 0.13,-0.01 0.19,-0.04c0.06,-0.02 0.12,-0.06 0.16,-0.1c0.05,-0.05 0.09,-0.1 0.11,-0.17c0.03,-0.06 0.04,-0.12 0.04,-0.19c0,-0.13 -0.05,-0.26 -0.15,-0.35c-0.04,-0.05 -0.1,-0.08 -0.16,-0.11c-0.12,-0.05 -0.26,-0.05 -0.38,0c-0.06,0.03 -0.12,0.06 -0.16,0.11c-0.1,0.09 -0.15,0.22 -0.15,0.35c0,0.07 0.01,0.13 0.04,0.19c0.02,0.07 0.06,0.12 0.11,0.17" /></svg>