<svg xmlns="http://www.w3.org/2000/svg" viewBox="0 0 24 24" style="fill-rule:evenodd;clip-rule:evenodd;stroke-linejoin:round;stroke-miterlimit:1.41421;"><path d="M20.5,12c-0.276,0 -0.5,0.224 -0.5,0.5l0,9.5l-16,0l0,-9.5c0,-0.276 -0.224,-0.5 -0.5,-0.5l-1,0l2.4,-3.2c0.065,-0.086 0.1,-0.192 0.1,-0.3l0,-4.5l2,0l0,1.5c0,0.207 0.128,0.393 0.321,0.467c0.19,0.073 0.412,0.022 0.551,-0.132l4.123,-4.582l9.403,10.747l-0.898,0Zm-8.124,-11.829c-0.094,-0.108 -0.23,-0.17 -0.372,-0.171l-0.004,0c-0.142,0 -0.276,0.061 -0.372,0.165l-3.628,4.032l0,-0.697c0,-0.276 -0.224,-0.5 -0.5,-0.5l-3,0c-0.276,0 -0.5,0.224 -0.5,0.5l0,4.833l-2.9,3.867c-0.114,0.152 -0.132,0.355 -0.047,0.524c0.085,0.169 0.258,0.276 0.447,0.276l1.5,0l0,9.5c0,0.276 0.224,0.5 0.5,0.5l17,0c0.276,0 0.5,-0.224 0.5,-0.5l0,-9.5l1.5,0c0.196,0 0.374,-0.114 0.455,-0.293c0.081,-0.179 0.051,-0.389 -0.079,-0.536l-10.5,-12Z" /><path d="M10,13l6.565,0l-1.269,1.905l-2.638,-0.88c-0.19,-0.061 -0.403,-0.005 -0.536,0.148c-0.132,0.152 -0.16,0.37 -0.069,0.551l0.638,1.276l-1.191,0c-0.276,0 -0.5,0.224 -0.5,0.5l0,1c0,0.167 0.084,0.323 0.223,0.416l1.626,1.084l-2.849,0l0,-6Zm7,6l-2.349,0l-2.651,-1.768l0,-0.232l1.5,0c0.173,0 0.334,-0.09 0.426,-0.237c0.091,-0.148 0.098,-0.331 0.021,-0.487l-0.46,-0.92l1.855,0.619c0.214,0.068 0.449,-0.01 0.574,-0.198l1.084,-1.626l0,4.849Zm-8,-6.5l0,7c0,0.276 0.224,0.5 0.5,0.5l8,0c0.276,0 0.5,-0.224 0.5,-0.5l0,-7c0,-0.017 -0.008,-0.031 -0.01,-0.047c-0.003,-0.034 -0.01,-0.066 -0.019,-0.099c-0.01,-0.031 -0.022,-0.059 -0.036,-0.087c-0.015,-0.028 -0.032,-0.052 -0.051,-0.077c-0.023,-0.027 -0.046,-0.05 -0.073,-0.073c-0.013,-0.01 -0.02,-0.024 -0.034,-0.033c-0.012,-0.009 -0.028,-0.01 -0.042,-0.018c-0.029,-0.015 -0.059,-0.027 -0.091,-0.037c-0.034,-0.01 -0.065,-0.017 -0.098,-0.02c-0.017,-0.001 -0.029,-0.009 -0.046,-0.009l-8,0c-0.276,0 -0.5,0.224 -0.5,0.5" /></svg>