<svg xmlns="http://www.w3.org/2000/svg" viewBox="0 0 24 24" style="fill-rule:evenodd;clip-rule:evenodd;stroke-linejoin:round;stroke-miterlimit:1.41421;">
                <g transform="matrix(1,0,0,1,12,11)">
                    <path d="M0,8C-2.206,8 -4,6.206 -4,4C-4,1.794 -2.206,0 0,0C2.206,0 4,1.794 4,4C4,6.206 2.206,8 0,8M0,-1C-2.757,-1 -5,1.243 -5,4C-5,6.757 -2.757,9 0,9C2.757,9 5,6.757 5,4C5,1.243 2.757,-1 0,-1" />
                </g>
                <g transform="matrix(1,0,0,1,12,13)">
                    <circle cx="0" cy="-0.5" r="0.5"/>
                </g>
                <g transform="matrix(1,0,0,1,12,18)">
                    <path d="M0,-4C-0.276,-4 -0.5,-3.776 -0.5,-3.5L-0.5,-0.5C-0.5,-0.224 -0.276,0 0,0C0.276,0 0.5,-0.224 0.5,-0.5L0.5,-3.5C0.5,-3.776 0.276,-4 0,-4" />
                </g>
                <g transform="matrix(1,0,0,1,20,2.5)">
                    <path d="M0,19C0,19.276 -0.224,19.5 -0.5,19.5L-15.5,19.5C-15.776,19.5 -16,19.276 -16,19L-16,0C-16,-0.276 -15.776,-0.5 -15.5,-0.5L-0.5,-0.5C-0.224,-0.5 0,-0.276 0,0L0,19ZM-0.5,-1.5L-15.5,-1.5C-16.327,-1.5 -17,-0.827 -17,0L-17,19C-17,19.827 -16.327,20.5 -15.5,20.5L-0.5,20.5C0.327,20.5 1,19.827 1,19L1,0C1,-0.827 0.327,-1.5 -0.5,-1.5" />
                </g>
                <g transform="matrix(1,0,0,1,17.5,5)">
                    <path d="M0,-1L-11,-1C-11.276,-1 -11.5,-0.776 -11.5,-0.5C-11.5,-0.224 -11.276,0 -11,0L0,0C0.276,0 0.5,-0.224 0.5,-0.5C0.5,-0.776 0.276,-1 0,-1" />
                </g>
                <g transform="matrix(1,0,0,1,17.5,8)">
                    <path d="M0,-1L-11,-1C-11.276,-1 -11.5,-0.776 -11.5,-0.5C-11.5,-0.224 -11.276,0 -11,0L0,0C0.276,0 0.5,-0.224 0.5,-0.5C0.5,-0.776 0.276,-1 0,-1" />
                </g>
</svg>
