<svg xmlns="http://www.w3.org/2000/svg" viewBox="0 0 24 24" style="fill-rule:evenodd;clip-rule:evenodd;stroke-linejoin:round;stroke-miterlimit:1.41421;">
<g transform="matrix(1,0,0,1,12,18.483)">
                        <path d="M0,-7.024L4.608,0.517L-4.608,0.517L0,-7.024ZM-5.5,1.517L5.5,1.517C5.681,1.517 5.848,1.419 5.937,1.262C6.024,1.104 6.021,0.911 5.927,0.756L0.427,-8.244C0.245,-8.541 -0.245,-8.541 -0.427,-8.244L-5.927,0.756C-6.021,0.911 -6.024,1.104 -5.937,1.262C-5.848,1.419 -5.681,1.517 -5.5,1.517" />
                    </g>
                    <g transform="matrix(1,0,0,1,12,16)">
                        <path d="M0,-2.5C-0.276,-2.5 -0.5,-2.276 -0.5,-2L-0.5,-0.5C-0.5,-0.224 -0.276,0 0,0C0.276,0 0.5,-0.224 0.5,-0.5L0.5,-2C0.5,-2.276 0.276,-2.5 0,-2.5" />
                    </g>
                    <g transform="matrix(1,0,0,1,12,18)">
                        <circle cx="0" cy="-0.5" r="0.5"/>
                    </g>
                    <g transform="matrix(1,0,0,1,4.9004,14.1998)">
                        <path d="M0,-5.4C0.064,-5.486 0.1,-5.591 0.1,-5.7L0.1,-10.2L2.1,-10.2L2.1,-8.7C2.1,-8.493 2.228,-8.307 2.421,-8.233C2.611,-8.16 2.833,-8.211 2.972,-8.365L7.095,-12.946L16.498,-2.2L15.6,-2.2C15.323,-2.2 15.1,-1.976 15.1,-1.7L15.1,7.8L-0.9,7.8L-0.9,-1.7C-0.9,-1.976 -1.124,-2.2 -1.4,-2.2L-2.4,-2.2L0,-5.4ZM-3.4,-1.2L-1.9,-1.2L-1.9,8.3C-1.9,8.577 -1.677,8.8 -1.4,8.8L15.6,8.8C15.876,8.8 16.1,8.577 16.1,8.3L16.1,-1.2L17.6,-1.2C17.796,-1.2 17.974,-1.315 18.055,-1.493C18.136,-1.672 18.105,-1.881 17.976,-2.029L7.476,-14.029C7.382,-14.137 7.246,-14.199 7.104,-14.2L7.1,-14.2C6.958,-14.2 6.823,-14.14 6.728,-14.034L3.1,-10.003L3.1,-10.7C3.1,-10.976 2.876,-11.2 2.6,-11.2L-0.4,-11.2C-0.677,-11.2 -0.9,-10.976 -0.9,-10.7L-0.9,-5.866L-3.801,-2C-3.914,-1.848 -3.933,-1.646 -3.848,-1.476C-3.763,-1.307 -3.59,-1.2 -3.4,-1.2" />
                    </g>
</svg>
