<svg xmlns="http://www.w3.org/2000/svg" viewBox="0 0 24 24" style="fill-rule:evenodd;clip-rule:evenodd;stroke-linejoin:round;stroke-miterlimit:1.41421;">
                    <g transform="matrix(1,0,0,1,4.9004,14.1998)">
                        <path d="M0,-5.4C0.064,-5.486 0.1,-5.591 0.1,-5.7L0.1,-10.2L2.1,-10.2L2.1,-8.7C2.1,-8.493 2.228,-8.307 2.421,-8.233C2.61,-8.16 2.833,-8.211 2.972,-8.365L7.095,-12.946L16.498,-2.2L15.6,-2.2C15.323,-2.2 15.1,-1.976 15.1,-1.7L15.1,7.8L-0.9,7.8L-0.9,-1.7C-0.9,-1.976 -1.124,-2.2 -1.4,-2.2L-2.4,-2.2L0,-5.4ZM-3.4,-1.2L-1.9,-1.2L-1.9,8.3C-1.9,8.577 -1.677,8.8 -1.4,8.8L15.6,8.8C15.876,8.8 16.1,8.577 16.1,8.3L16.1,-1.2L17.6,-1.2C17.796,-1.2 17.974,-1.315 18.055,-1.493C18.136,-1.672 18.105,-1.881 17.976,-2.029L7.476,-14.029C7.382,-14.137 7.246,-14.199 7.104,-14.2L7.1,-14.2C6.958,-14.2 6.823,-14.14 6.728,-14.034L3.1,-10.003L3.1,-10.7C3.1,-10.976 2.876,-11.2 2.6,-11.2L-0.4,-11.2C-0.677,-11.2 -0.9,-10.976 -0.9,-10.7L-0.9,-5.866L-3.801,-2C-3.914,-1.848 -3.933,-1.646 -3.848,-1.476C-3.763,-1.307 -3.59,-1.2 -3.4,-1.2" />
                    </g>
                    <g transform="matrix(1,0,0,1,12,19)">
                        <path d="M0,-7C1.103,-7 2,-6.103 2,-5C2,-4.205 1.528,-3.485 0.804,-3.169C0.483,-3.034 0.483,-3.034 0.5,-0.5C0.5,-0.224 0.275,0 0,0C-0.275,0 -0.5,-0.224 -0.5,-0.498C-0.487,-3.023 -0.487,-3.023 -0.802,-3.169C-1.53,-3.488 -2,-4.207 -2,-5C-2,-6.103 -1.103,-7 0,-7M-1.496,-2.4C-1.493,-1.81 -1.5,-0.502 -1.5,-0.5C-1.5,0.327 -0.827,1 0,1C0.827,1 1.5,0.327 1.5,-0.503C1.5,-0.503 1.491,-1.808 1.492,-2.398C2.418,-2.929 3,-3.917 3,-5C3,-6.654 1.654,-8 0,-8C-1.654,-8 -3,-6.654 -3,-5C-3,-3.917 -2.416,-2.927 -1.496,-2.4" />
                    </g>
</svg>
