<svg xmlns="http://www.w3.org/2000/svg" viewBox="0 0 24 24">
<path d="M12.087,8.401c1.692,0.913 3.224,1.843 3.224,4.026c0,1.527 -0.897,3.155 -3.398,3.171c-1.692,-0.913 -3.223,-1.843 -3.223,-4.026c0,-1.526 0.896,-3.154 3.397,-3.171m-4.397,3.171c0,2.899 2.136,4.044 4.023,5.056c1.627,0.871 3.163,1.693 3.163,3.502c0,1.636 -1.295,2.87 -3.013,2.87c-1.149,0 -2.095,-0.376 -2.813,-1.119c-0.191,-0.197 -0.509,-0.203 -0.707,-0.011c-0.198,0.192 -0.204,0.508 -0.012,0.707c0.913,0.944 2.102,1.423 3.532,1.423c2.288,0 4.013,-1.664 4.013,-3.87c0,-1.876 -1.192,-2.925 -2.538,-3.737c2.028,-0.559 2.973,-2.259 2.973,-3.966c0,-2.899 -2.137,-4.044 -4.024,-5.055c-1.627,-0.871 -3.163,-1.694 -3.163,-3.502c0,-1.636 1.295,-2.87 3.013,-2.87c1.149,0 2.096,0.376 2.813,1.118c0.192,0.199 0.51,0.204 0.707,0.012c0.199,-0.192 0.204,-0.509 0.012,-0.708c-0.913,-0.944 -2.102,-1.422 -3.532,-1.422c-2.288,0 -4.013,1.663 -4.013,3.87c0,1.875 1.192,2.924 2.538,3.736c-2.028,0.559 -2.972,2.259 -2.972,3.966" /></svg>