<svg xmlns="http://www.w3.org/2000/svg" viewBox="0 0 24 24" style="fill-rule:evenodd;clip-rule:evenodd;stroke-linejoin:round;stroke-miterlimit:1.41421;">
<g transform="matrix(1,0,0,1,18,7.3996)"><path d="M0,9.2C0,12.729 -2.691,15.6 -6,15.6C-9.309,15.6 -12,12.729 -12,9.2L-12,0.001C-12,-3.529 -9.309,-6.4 -6,-6.4C-2.691,-6.4 0,-3.529 0,0.001L0,9.2ZM-6,-7.4C-9.86,-7.4 -13,-4.08 -13,0.001L-13,9.2C-13,13.281 -9.86,16.6 -6,16.6C-2.14,16.6 1,13.281 1,9.2L1,0.001C1,-4.08 -2.14,-7.4 -6,-7.4" /></g>
<g transform="matrix(1,0,0,1,12.5,5.75)"><path d="M0,2.5C0,2.899 -0.233,3.25 -0.5,3.25C-0.767,3.25 -1,2.899 -1,2.5L-1,0C-1,-0.399 -0.767,-0.75 -0.5,-0.75C-0.233,-0.75 0,-0.399 0,0L0,2.5ZM-0.5,-1.75C-1.327,-1.75 -2,-0.965 -2,0L-2,2.5C-2,3.465 -1.327,4.25 -0.5,4.25C0.327,4.25 1,3.465 1,2.5L1,0C1,-0.965 0.327,-1.75 -0.5,-1.75" /></g>
</svg>
