<svg xmlns="http://www.w3.org/2000/svg" viewBox="0 0 24 24" style="fill-rule:evenodd;clip-rule:evenodd;stroke-linejoin:round;stroke-miterlimit:1.41421;">
<path d="M9.5,12c1.103,0 2,0.897 2,2c0,1.103 -0.897,2 -2,2c-1.103,0 -2,-0.897 -2,-2c0,-1.103 0.897,-2 2,-2m0,5c1.654,0 3,-1.346 3,-3c0,-1.654 -1.346,-3 -3,-3c-1.654,0 -3,1.346 -3,3c0,1.654 1.346,3 3,3" /><path d="M22,14l-1,0l0,-6.5c0,-0.276 -0.224,-0.5 -0.5,-0.5l-15.5,0l0,-1l17,0l0,8Zm-2,1.991l-1,-0.018l0,-6.473c0,-0.276 -0.224,-0.5 -0.5,-0.5l-15.5,0l0,-1l17,0l0,7.991Zm-2,2.009l-17,0l0,-8l17,0l0,8Zm4.5,-13l-18,0c-0.276,0 -0.5,0.224 -0.5,0.5l0,1.5l-1.5,0c-0.276,0 -0.5,0.224 -0.5,0.5l0,1.5l-1.5,0c-0.276,0 -0.5,0.224 -0.5,0.5l0,9c0,0.276 0.224,0.5 0.5,0.5l18,0c0.276,0 0.5,-0.224 0.5,-0.5l0,-1.527l1.491,0.027l0.009,0c0.131,0 0.257,-0.052 0.351,-0.144c0.095,-0.093 0.149,-0.222 0.149,-0.356l0,-1.5l1.5,0c0.276,0 0.5,-0.224 0.5,-0.5l0,-9c0,-0.276 -0.224,-0.5 -0.5,-0.5" /></svg>