<svg xmlns="http://www.w3.org/2000/svg" viewBox="0 0 24 24" style="fill-rule:evenodd;clip-rule:evenodd;stroke-linejoin:round;stroke-miterlimit:1.41421;">
<path d="M18.5,9c0.827,0 1.5,0.673 1.5,1.5l0,10c0,0.827 -0.673,1.5 -1.5,1.5l-13,0c-0.827,0 -1.5,-0.673 -1.5,-1.5l0,-10c0,-0.827 0.673,-1.5 1.5,-1.5l13,0Zm-11.5,-3.5c0,-2.691 2.01,-4.5 5,-4.5c2.99,0 5,1.809 5,4.5l0,2.5l-10,0l0,-2.5Zm5,-5.5c-3.532,0 -6,2.262 -6,5.5l0,2.5l-0.5,0c-1.379,0 -2.5,1.122 -2.5,2.5l0,10c0,1.378 1.121,2.5 2.5,2.5l13,0c1.379,0 2.5,-1.122 2.5,-2.5l0,-10c0,-1.378 -1.121,-2.5 -2.5,-2.5l-0.5,0l0,-2.5c0,-3.238 -2.468,-5.5 -6,-5.5" /><path d="M12,12c1.103,0 2,0.897 2,2c0,0.795 -0.472,1.515 -1.196,1.831c-0.321,0.135 -0.321,0.135 -0.304,2.669c0,0.276 -0.225,0.5 -0.5,0.5c-0.275,0 -0.5,-0.224 -0.5,-0.498c0.013,-2.525 0.013,-2.525 -0.302,-2.671c-0.728,-0.319 -1.198,-1.038 -1.198,-1.831c0,-1.103 0.897,-2 2,-2m-1.496,4.6c0.003,0.59 -0.004,1.898 -0.004,1.9c0,0.827 0.673,1.5 1.5,1.5c0.827,0 1.5,-0.673 1.5,-1.503c0,0 -0.009,-1.305 -0.008,-1.895c0.926,-0.531 1.508,-1.519 1.508,-2.602c0,-1.654 -1.346,-3 -3,-3c-1.654,0 -3,1.346 -3,3c0,1.083 0.584,2.073 1.504,2.6" /></svg>