<svg xmlns="http://www.w3.org/2000/svg" viewBox="0 0 24 24" style="fill-rule:evenodd;clip-rule:evenodd;stroke-linejoin:round;stroke-miterlimit:1.41421;">
<g transform="matrix(1,0,0,1,10,7.373)"><path d="M0,0.627C0,0.98 -1.139,1.627 -3,1.627C-4.861,1.627 -6,0.98 -6,0.627C-6,0.274 -4.861,-0.373 -3,-0.373C-1.139,-0.373 0,0.274 0,0.627M-7,0.627C-7,1.94 -4.988,2.627 -3,2.627C-1.012,2.627 1,1.94 1,0.627C1,-2 -7,-2 -7,0.627" /></g>
<g transform="matrix(1,0,0,1,7,9.5)">
<path d="M0,2.5C1.988,2.5 4,1.813 4,0.5C4,0.224 3.776,0 3.5,0C3.224,0 3,0.224 3,0.5C3,0.853 1.861,1.5 0,1.5C-1.861,1.5 -3,0.853 -3,0.5C-3,0.224 -3.224,0 -3.5,0C-3.776,0 -4,0.224 -4,0.5C-4,1.813 -1.988,2.5 0,2.5" /></g>
<g transform="matrix(1,0,0,1,7,11.5)">
<path d="M0,2.5C1.988,2.5 4,1.813 4,0.5C4,0.224 3.776,0 3.5,0C3.224,0 3,0.224 3,0.5C3,0.853 1.861,1.5 0,1.5C-1.861,1.5 -3,0.853 -3,0.5C-3,0.224 -3.224,0 -3.5,0C-3.776,0 -4,0.224 -4,0.5C-4,1.813 -1.988,2.5 0,2.5" /></g>
<g transform="matrix(1,0,0,1,7,13.5)">
<path d="M0,2.5C1.988,2.5 4,1.813 4,0.5C4,0.224 3.776,0 3.5,0C3.224,0 3,0.224 3,0.5C3,0.853 1.861,1.5 0,1.5C-1.861,1.5 -3,0.853 -3,0.5C-3,0.224 -3.224,0 -3.5,0C-3.776,0 -4,0.224 -4,0.5C-4,1.813 -1.988,2.5 0,2.5" /></g>
<g transform="matrix(1,0,0,1,11,17.5)"><path d="M0,-1.5C0,-1.776 -0.224,-2 -0.5,-2C-0.776,-2 -1,-1.776 -1,-1.5C-1,-1.147 -2.139,-0.5 -4,-0.5C-5.861,-0.5 -7,-1.147 -7,-1.5C-7,-1.776 -7.224,-2 -7.5,-2C-7.776,-2 -8,-1.776 -8,-1.5C-8,-0.187 -5.988,0.5 -4,0.5C-2.012,0.5 0,-0.187 0,-1.5" /></g>
<g transform="matrix(1,0,0,1,17,10.373)"><path d="M0,2.627C-1.861,2.627 -3,1.98 -3,1.627C-3,1.274 -1.861,0.627 0,0.627C1.861,0.627 3,1.274 3,1.627C3,1.98 1.861,2.627 0,2.627M-4,1.627C-4,2.94 -1.988,3.627 0,3.627C1.988,3.627 4,2.94 4,1.627C4,-1 -4,-1 -4,1.627" /></g>
<g transform="matrix(1,0,0,1,20.5,16)"><path d="M0,-2.5C-0.276,-2.5 -0.5,-2.276 -0.5,-2C-0.5,-1.647 -1.639,-1 -3.5,-1C-5.361,-1 -6.5,-1.647 -6.5,-2C-6.5,-2.276 -6.724,-2.5 -7,-2.5C-7.276,-2.5 -7.5,-2.276 -7.5,-2C-7.5,-0.687 -5.488,0 -3.5,0C-1.512,0 0.5,-0.687 0.5,-2C0.5,-2.276 0.276,-2.5 0,-2.5" /></g>
<g transform="matrix(1,0,0,1,20.5,18)"><path d="M0,-2.5C-0.276,-2.5 -0.5,-2.276 -0.5,-2C-0.5,-1.647 -1.639,-1 -3.5,-1C-5.361,-1 -6.5,-1.647 -6.5,-2C-6.5,-2.276 -6.724,-2.5 -7,-2.5C-7.276,-2.5 -7.5,-2.276 -7.5,-2C-7.5,-0.687 -5.488,0 -3.5,0C-1.512,0 0.5,-0.687 0.5,-2C0.5,-2.276 0.276,-2.5 0,-2.5" /></g>
<g transform="matrix(1,0,0,1,9,2.451)"><path d="M0,0.049C0,0.325 0.224,0.549 0.5,0.549L4.293,0.549L3.146,1.695C2.951,1.891 2.951,2.207 3.146,2.403C3.244,2.5 3.372,2.549 3.5,2.549C3.628,2.549 3.756,2.5 3.854,2.403L5.854,0.403C6.049,0.207 6.049,-0.109 5.854,-0.305L3.854,-2.305C3.658,-2.5 3.342,-2.5 3.146,-2.305C2.951,-2.109 2.951,-1.793 3.146,-1.597L4.293,-0.451L0.5,-0.451C0.224,-0.451 0,-0.227 0,0.049" /></g>
<g transform="matrix(1,0,0,1,14.5,21.951)"><path d="M0,-0.951L-3.793,-0.951L-2.646,-2.097C-2.451,-2.293 -2.451,-2.609 -2.646,-2.805C-2.842,-3 -3.158,-3 -3.354,-2.805L-5.354,-0.805C-5.549,-0.609 -5.549,-0.293 -5.354,-0.097L-3.354,1.903C-3.256,2 -3.128,2.049 -3,2.049C-2.872,2.049 -2.744,2 -2.646,1.903C-2.451,1.707 -2.451,1.391 -2.646,1.195L-3.793,0.049L0,0.049C0.276,0.049 0.5,-0.175 0.5,-0.451C0.5,-0.727 0.276,-0.951 0,-0.951" /></g>
</svg>
