<svg xmlns="http://www.w3.org/2000/svg" viewBox="0 0 24 24" style="fill-rule:evenodd;clip-rule:evenodd;stroke-linejoin:round;stroke-miterlimit:1.41421;">
                <g transform="matrix(1,0,0,1,4.5,22)">
                    <path d="M0,-20L15,-20C15.276,-20 15.5,-19.775 15.5,-19.5L15.5,-0.5C15.5,-0.225 15.276,0 15,0L4.5,0L4.5,-4.5C4.5,-4.776 4.276,-5 4,-5L-0.5,-5L-0.5,-19.5C-0.5,-19.775 -0.276,-20 0,-20M3.5,-0.707L0.207,-4L3.5,-4L3.5,-0.707ZM-1.353,-4.146L3.646,0.853C3.692,0.898 3.747,0.936 3.808,0.961C3.868,0.986 3.933,1 4,1L15,1C15.827,1 16.5,0.327 16.5,-0.5L16.5,-19.5C16.5,-20.327 15.827,-21 15,-21L0,-21C-0.827,-21 -1.5,-20.327 -1.5,-19.5L-1.5,-4.5C-1.5,-4.434 -1.486,-4.368 -1.461,-4.308C-1.436,-4.246 -1.399,-4.191 -1.353,-4.146" />
                </g>
                <g transform="matrix(1,0,0,1,0,-11)">
                    <path d="M7,16L10,16L10,19L7,19L7,16ZM6.5,20L10.5,20C10.776,20 11,19.776 11,19.5L11,15.5C11,15.224 10.776,15 10.5,15L6.5,15C6.224,15 6,15.224 6,15.5L6,19.5C6,19.776 6.224,20 6.5,20" />
                </g>
                <g transform="matrix(1,0,0,1,6.5,11)">
                    <path d="M0,1L4.5,1C4.776,1 5,0.776 5,0.5C5,0.224 4.776,0 4.5,0L0,0C-0.276,0 -0.5,0.224 -0.5,0.5C-0.5,0.776 -0.276,1 0,1" />
                </g>
                <g transform="matrix(1,0,0,1,6.5,13)">
                    <path d="M0,1L4.5,1C4.776,1 5,0.776 5,0.5C5,0.224 4.776,0 4.5,0L0,0C-0.276,0 -0.5,0.224 -0.5,0.5C-0.5,0.776 -0.276,1 0,1" />
                </g>
                <g transform="matrix(1,0,0,1,13.5,11)">
                    <path d="M0,1L4,1C4.276,1 4.5,0.776 4.5,0.5C4.5,0.224 4.276,0 4,0L0,0C-0.276,0 -0.5,0.224 -0.5,0.5C-0.5,0.776 -0.276,1 0,1" />
                </g>
                <g transform="matrix(1,0,0,1,13.5,13)">
                    <path d="M0,1L4,1C4.276,1 4.5,0.776 4.5,0.5C4.5,0.224 4.276,0 4,0L0,0C-0.276,0 -0.5,0.224 -0.5,0.5C-0.5,0.776 -0.276,1 0,1" />
                </g>
                <g transform="matrix(1,0,0,1,13.5,4)">
                    <path d="M0,1L4,1C4.276,1 4.5,0.776 4.5,0.5C4.5,0.224 4.276,0 4,0L0,0C-0.276,0 -0.5,0.224 -0.5,0.5C-0.5,0.776 -0.276,1 0,1" />
                </g>
                <g transform="matrix(1,0,0,1,13.5,6)">
                    <path d="M0,1L4,1C4.276,1 4.5,0.776 4.5,0.5C4.5,0.224 4.276,0 4,0L0,0C-0.276,0 -0.5,0.224 -0.5,0.5C-0.5,0.776 -0.276,1 0,1" />
                </g>
                <g transform="matrix(1,0,0,1,13.5,8)">
                    <path d="M0,1L4,1C4.276,1 4.5,0.776 4.5,0.5C4.5,0.224 4.276,0 4,0L0,0C-0.276,0 -0.5,0.224 -0.5,0.5C-0.5,0.776 -0.276,1 0,1" />
                </g>
</svg>
