<svg xmlns="http://www.w3.org/2000/svg" viewBox="0 0 24 24" style="fill-rule:evenodd;clip-rule:evenodd;stroke-linejoin:round;stroke-miterlimit:1.41421;"><path d="M4,18l1.5,0c0.276,0 0.5,-0.224 0.5,-0.5c0,-0.276 -0.224,-0.5 -0.5,-0.5l-1.5,0l0,-3l1.5,0c0.276,0 0.5,-0.224 0.5,-0.5c0,-0.276 -0.224,-0.5 -0.5,-0.5l-1.5,0l0,-3l1.5,0c0.276,0 0.5,-0.224 0.5,-0.5c0,-0.276 -0.224,-0.5 -0.5,-0.5l-1.5,0l0,-3l1.5,0c0.276,0 0.5,-0.224 0.5,-0.5c0,-0.276 -0.224,-0.5 -0.5,-0.5l-1.5,0l0,-2.5c0,-0.275 0.224,-0.5 0.5,-0.5l15,0c0.276,0 0.5,0.225 0.5,0.5l0,19c0,0.275 -0.224,0.5 -0.5,0.5l-15,0c-0.276,0 -0.5,-0.225 -0.5,-0.5l0,-3.5Zm-1.5,-1c-0.276,0 -0.5,0.224 -0.5,0.5c0,0.276 0.224,0.5 0.5,0.5l0.5,0l0,3.5c0,0.827 0.673,1.5 1.5,1.5l15,0c0.827,0 1.5,-0.673 1.5,-1.5l0,-19c0,-0.827 -0.673,-1.5 -1.5,-1.5l-15,0c-0.827,0 -1.5,0.673 -1.5,1.5l0,2.5l-0.5,0c-0.276,0 -0.5,0.224 -0.5,0.5c0,0.276 0.224,0.5 0.5,0.5l0.5,0l0,3l-0.5,0c-0.276,0 -0.5,0.224 -0.5,0.5c0,0.276 0.224,0.5 0.5,0.5l0.5,0l0,3l-0.5,0c-0.276,0 -0.5,0.224 -0.5,0.5c0,0.276 0.224,0.5 0.5,0.5l0.5,0l0,3l-0.5,0Z" /><path d="M9.5,6l7,0c0.276,0 0.5,-0.224 0.5,-0.5c0,-0.276 -0.224,-0.5 -0.5,-0.5l-7,0c-0.276,0 -0.5,0.224 -0.5,0.5c0,0.276 0.224,0.5 0.5,0.5" /><path d="M9.5,8l6,0c0.276,0 0.5,-0.224 0.5,-0.5c0,-0.276 -0.224,-0.5 -0.5,-0.5l-6,0c-0.276,0 -0.5,0.224 -0.5,0.5c0,0.276 0.224,0.5 0.5,0.5" /><path d="M9.5,10l7,0c0.276,0 0.5,-0.224 0.5,-0.5c0,-0.276 -0.224,-0.5 -0.5,-0.5l-7,0c-0.276,0 -0.5,0.224 -0.5,0.5c0,0.276 0.224,0.5 0.5,0.5" /></svg>