<svg xmlns="http://www.w3.org/2000/svg" viewBox="0 0 24 24" style="fill-rule:evenodd;clip-rule:evenodd;stroke-linejoin:round;stroke-miterlimit:1.41421;">
<g transform="matrix(1,0,0,1,8.5,10)">
<path d="M0,4L7,4C7.827,4 8.5,4.673 8.5,5.5C8.5,6.327 7.827,7 7,7L0,7C-0.827,7 -1.5,6.327 -1.5,5.5C-1.5,4.673 -0.827,4 0,4M0,1C-0.381,1 -0.709,0.858 -0.923,0.602C-1.138,0.345 -1.218,-0.003 -1.15,-0.378L0.134,-7.443C0.288,-8.287 1.142,-9 2,-9L5,-9C5.858,-9 6.712,-8.287 6.866,-7.443L8.15,-0.378C8.218,-0.003 8.138,0.345 7.923,0.602C7.709,0.858 7.381,1 7,1L0,1ZM-7,1L-6.5,1L-6.5,3.5C-6.5,4.878 -5.378,6 -4,6L-2.449,6C-2.217,7.14 -1.207,8 0,8L3,8L3,10.131L-3.147,12.022C-3.357,12.086 -3.5,12.28 -3.5,12.5L-3.5,13.5C-3.5,13.776 -3.276,14 -3,14C-2.724,14 -2.5,13.776 -2.5,13.5L-2.5,12.869L3,11.177L3,13.5C3,13.776 3.224,14 3.5,14C3.776,14 4,13.776 4,13.5L4,11.177L9.5,12.869L9.5,13.5C9.5,13.776 9.724,14 10,14C10.276,14 10.5,13.776 10.5,13.5L10.5,12.5C10.5,12.28 10.357,12.086 10.147,12.022L4,10.131L4,8L7,8C8.207,8 9.217,7.14 9.449,6L11,6C12.378,6 13.5,4.878 13.5,3.5L13.5,1L14,1C14.276,1 14.5,0.776 14.5,0.5C14.5,0.224 14.276,0 14,0L12,0C11.724,0 11.5,0.224 11.5,0.5C11.5,0.776 11.724,1 12,1L12.5,1L12.5,3.5C12.5,4.327 11.827,5 11,5L9.449,5C9.217,3.86 8.207,3 7,3L4,3L4,2L7,2C7.683,2 8.284,1.731 8.691,1.243C9.099,0.754 9.256,0.115 9.134,-0.557L7.85,-7.622C7.611,-8.933 6.333,-10 5,-10L2,-10C0.667,-10 -0.611,-8.933 -0.85,-7.622L-2.134,-0.557C-2.256,0.115 -2.099,0.754 -1.691,1.243C-1.284,1.731 -0.683,2 0,2L3,2L3,3L0,3C-1.207,3 -2.217,3.86 -2.449,5L-4,5C-4.827,5 -5.5,4.327 -5.5,3.5L-5.5,1L-5,1C-4.724,1 -4.5,0.776 -4.5,0.5C-4.5,0.224 -4.724,0 -5,0L-7,0C-7.276,0 -7.5,0.224 -7.5,0.5C-7.5,0.776 -7.276,1 -7,1" /></g>
</svg>
