<svg xmlns="http://www.w3.org/2000/svg" viewBox="0 0 24 24" style="fill-rule:evenodd;clip-rule:evenodd;stroke-linejoin:round;stroke-miterlimit:1.41421;"><path d="M20.5,18c-1.379,0 -2.5,-1.122 -2.5,-2.5c0,-0.796 0.381,-1.499 0.963,-1.957l1.09,2.181c0.124,0.247 0.424,0.345 0.671,0.223c0.247,-0.123 0.346,-0.424 0.223,-0.671l-1.091,-2.181c0.207,-0.056 0.42,-0.095 0.644,-0.095c1.379,0 2.5,1.122 2.5,2.5c0,1.378 -1.121,2.5 -2.5,2.5m-3.601,-7.843c-0.058,0.049 -0.104,0.11 -0.136,0.179l-2.107,4.662l-4.674,-0.04l0.018,-3.456c0.001,-0.205 -0.124,-0.39 -0.314,-0.466l-5,-2c-0.059,-0.024 -0.123,-0.036 -0.186,-0.036l-1.5,0l0,-1.007l0.527,-0.007c0.065,-0.001 0.129,-0.014 0.189,-0.039l0.515,-0.219l0.783,0l0.618,0.608c0.084,0.082 0.193,0.133 0.31,0.142l6.518,0.521c0.109,0.008 0.221,-0.02 0.313,-0.081l1.452,-0.949l1.298,-0.006c0.133,-0.001 0.26,-0.054 0.353,-0.149c0.094,-0.095 0.145,-0.222 0.145,-0.356l-0.013,-1.458l0.155,0l0.898,1.662c0.042,0.078 0.104,0.143 0.179,0.189l1.756,1.065l-0.009,0.625c-1.112,0.089 -1.956,0.507 -2.088,0.616m-13.399,7.843c-1.379,0 -2.5,-1.122 -2.5,-2.5c0,-1.378 1.121,-2.5 2.5,-2.5c0.91,0 1.7,0.494 2.138,1.222l-2.303,0.806c-0.261,0.091 -0.398,0.376 -0.307,0.637c0.073,0.206 0.265,0.335 0.472,0.335c0.055,0 0.11,-0.009 0.165,-0.028l2.302,-0.805c0.014,0.11 0.033,0.219 0.033,0.333c0,1.378 -1.121,2.5 -2.5,2.5m17,-6c-0.385,0 -0.748,0.078 -1.095,0.193l-0.8,-1.599c0.155,-0.029 0.321,-0.051 0.496,-0.062l0.355,0.017c0.02,0.001 0.04,-0.001 0.062,-0.001c0.575,0.08 1.483,0.253 1.748,0.393c0.241,0.131 0.546,0.038 0.675,-0.206c0.13,-0.244 0.038,-0.547 -0.207,-0.676c-0.391,-0.209 -1.243,-0.37 -1.748,-0.452l0.014,-0.962c0.003,-0.178 -0.089,-0.343 -0.24,-0.435l-1.885,-1.143l-0.975,-1.805c-0.087,-0.161 -0.255,-0.262 -0.439,-0.262l-3.727,0c-0.276,0 -0.5,0.224 -0.5,0.5c0,0.276 0.224,0.5 0.5,0.5l2.274,0l0.009,0.965l-0.946,0.005c-0.095,0.001 -0.19,0.029 -0.27,0.082l-1.432,0.936l-6.166,-0.492l-0.635,-0.624c-0.093,-0.093 -0.219,-0.144 -0.35,-0.144l-1.088,0c-0.067,0 -0.134,0.014 -0.195,0.04l-0.519,0.22l-0.923,0.012c-0.273,0.004 -0.493,0.227 -0.493,0.5l0,2c0,0.276 0.224,0.5 0.5,0.5l1.903,0l4.595,1.838l-0.006,1.21l-2.403,0.841c-0.586,-1.117 -1.743,-1.889 -3.089,-1.889c-1.93,0 -3.5,1.57 -3.5,3.5c0,1.93 1.57,3.5 3.5,3.5c1.93,0 3.5,-1.57 3.5,-3.5c0,-0.23 -0.025,-0.454 -0.068,-0.671l2.054,-0.719l-0.007,1.342c0,0.276 0.221,0.5 0.497,0.503l5.498,0.045l0.004,0c0.196,0 0.375,-0.115 0.456,-0.294l2.169,-4.799c0.01,-0.005 0.022,-0.01 0.034,-0.015l0.869,1.738c-0.908,0.633 -1.506,1.682 -1.506,2.87c0,1.93 1.57,3.5 3.5,3.5c1.93,0 3.5,-1.57 3.5,-3.5c0,-1.93 -1.57,-3.5 -3.5,-3.5" /></svg>