<svg xmlns="http://www.w3.org/2000/svg" viewBox="0 0 24 24" style="fill-rule:evenodd;clip-rule:evenodd;stroke-linejoin:round;stroke-miterlimit:1.41421;">
<g transform="matrix(1,0,0,1,2,15.5)"><path d="M0,-7C0,-7.827 0.673,-8.5 1.5,-8.5L18.5,-8.5C19.327,-8.5 20,-7.827 20,-7L20,3C20,3.827 19.327,4.5 18.5,4.5L1.5,4.5C0.673,4.5 0,3.827 0,3L0,-7ZM7,-10C7,-10.827 7.673,-11.5 8.5,-11.5L11.5,-11.5C12.327,-11.5 13,-10.827 13,-10L13,-9.5L7,-9.5L7,-10ZM1.5,5.5L18.5,5.5C19.878,5.5 21,4.378 21,3L21,-7C21,-8.378 19.878,-9.5 18.5,-9.5L14,-9.5L14,-10C14,-11.378 12.878,-12.5 11.5,-12.5L8.5,-12.5C7.122,-12.5 6,-11.378 6,-10L6,-9.5L1.5,-9.5C0.122,-9.5 -1,-8.378 -1,-7L-1,3C-1,4.378 0.122,5.5 1.5,5.5" /></g>
<g transform="matrix(1,0,0,1,7.0122,12.5)"><path d="M0,2C0,2.276 0.224,2.5 0.5,2.5L1.264,2.5C1.885,4.242 3.535,5.5 5.488,5.5C6.048,5.5 6.596,5.398 7.115,5.197C7.373,5.097 7.5,4.807 7.401,4.55C7.301,4.292 7.013,4.165 6.754,4.264C6.35,4.421 5.924,4.5 5.488,4.5C4.097,4.5 2.903,3.678 2.339,2.5L4.488,2.5C4.764,2.5 4.988,2.276 4.988,2C4.988,1.724 4.764,1.5 4.488,1.5L2.039,1.5C2.015,1.335 1.988,1.171 1.988,1C1.988,0.829 2.015,0.665 2.039,0.5L5.488,0.5C5.764,0.5 5.988,0.276 5.988,0C5.988,-0.276 5.764,-0.5 5.488,-0.5L2.339,-0.5C2.903,-1.678 4.097,-2.5 5.488,-2.5C5.961,-2.5 6.419,-2.408 6.85,-2.225C7.102,-2.118 7.398,-2.236 7.505,-2.491C7.613,-2.745 7.494,-3.038 7.24,-3.146C6.685,-3.381 6.096,-3.5 5.488,-3.5C3.535,-3.5 1.885,-2.242 1.264,-0.5L0.5,-0.5C0.224,-0.5 0,-0.276 0,0C0,0.276 0.224,0.5 0.5,0.5L1.039,0.5C1.02,0.667 0.988,0.829 0.988,1C0.988,1.171 1.02,1.333 1.039,1.5L0.5,1.5C0.224,1.5 0,1.724 0,2" /></g>
</svg>
