<svg xmlns="http://www.w3.org/2000/svg" viewBox="0 0 24 24" style="fill-rule:evenodd;clip-rule:evenodd;stroke-linejoin:round;stroke-miterlimit:1.41421;">
                <g transform="matrix(1,0,0,1,4,21.5)">
                    <path d="M0,-19C0,-19.276 0.225,-19.5 0.5,-19.5L15.5,-19.5C15.775,-19.5 16,-19.276 16,-19L16,0C16,0.276 15.775,0.5 15.5,0.5L0.5,0.5C0.225,0.5 0,0.276 0,0L0,-19ZM-1,0C-1,0.827 -0.327,1.5 0.5,1.5L15.5,1.5C16.327,1.5 17,0.827 17,0L17,-19C17,-19.827 16.327,-20.5 15.5,-20.5L0.5,-20.5C-0.327,-20.5 -1,-19.827 -1,-19L-1,0Z" />
                </g>
                <g transform="matrix(1,0,0,1,6.5,5)">
                    <path d="M0,1L11,1C11.276,1 11.5,0.776 11.5,0.5C11.5,0.224 11.276,0 11,0L0,0C-0.276,0 -0.5,0.224 -0.5,0.5C-0.5,0.776 -0.276,1 0,1" />
                </g>
                <g transform="matrix(1,0,0,1,6.5,8)">
                    <path d="M0,1L11,1C11.276,1 11.5,0.776 11.5,0.5C11.5,0.224 11.276,0 11,0L0,0C-0.276,0 -0.5,0.224 -0.5,0.5C-0.5,0.776 -0.276,1 0,1" />
                </g>
                <g transform="matrix(1,0,0,1,6.5,11)">
                    <path d="M0,1L11,1C11.276,1 11.5,0.776 11.5,0.5C11.5,0.224 11.276,0 11,0L0,0C-0.276,0 -0.5,0.224 -0.5,0.5C-0.5,0.776 -0.276,1 0,1" />
                </g>
                <g transform="matrix(1,0,0,1,6.5,14)">
                    <path d="M0,1L11,1C11.276,1 11.5,0.776 11.5,0.5C11.5,0.224 11.276,0 11,0L0,0C-0.276,0 -0.5,0.224 -0.5,0.5C-0.5,0.776 -0.276,1 0,1" />
                </g>
</svg>
