<svg xmlns="http://www.w3.org/2000/svg" viewBox="0 0 24 24" style="fill-rule:evenodd;clip-rule:evenodd;stroke-linejoin:round;stroke-miterlimit:1.41421;">
<path d="M8,9c0,-2.206 1.794,-4.001 4,-4.001c2.206,0 4,1.795 4,4.001c0,2.206 -1.794,4.001 -4,4.001c-2.206,0 -4,-1.795 -4,-4.001m9,0c0,-2.757 -2.243,-5.001 -5,-5.001c-2.757,0 -5,2.244 -5,5.001c0,2.757 2.243,5.001 5,5.001c2.757,0 5,-2.244 5,-5.001" /><path d="M4,8.971c0,-4.395 3.589,-7.971 8,-7.971c4.411,0 8,3.576 8,7.971c0,4.126 -6.972,12.703 -8,13.945c-2.835,-3.4 -8,-10.495 -8,-13.945m8.649,14.727c0.855,-1.019 8.351,-10.086 8.351,-14.727c0,-4.946 -4.037,-8.971 -9,-8.971c-4.963,0 -9,4.025 -9,8.971c0,4.652 7.496,13.709 8.351,14.727c0.161,0.192 0.398,0.302 0.649,0.302c0.251,0 0.487,-0.11 0.649,-0.302" /></svg>