<svg xmlns="http://www.w3.org/2000/svg" viewBox="0 0 24 24" style="fill-rule:evenodd;clip-rule:evenodd;stroke-linejoin:round;stroke-miterlimit:1.41421;">    
<g transform="matrix(1,0,0,1,2.5,19)">
<path d="M0,-14L19,-14C19.276,-14 19.5,-13.776 19.5,-13.5L19.5,-11.79L9.5,-6.076L-0.5,-11.79L-0.5,-13.5C-0.5,-13.776 -0.276,-14 0,-14M19,0L0,0C-0.276,0 -0.5,-0.224 -0.5,-0.5L-0.5,-10.639L9.252,-5.066C9.329,-5.022 9.415,-5 9.5,-5C9.585,-5 9.671,-5.022 9.748,-5.066L19.5,-10.639L19.5,-0.5C19.5,-0.224 19.276,0 19,0M0,1L19,1C19.827,1 20.5,0.327 20.5,-0.5L20.5,-13.5C20.5,-14.327 19.827,-15 19,-15L0,-15C-0.827,-15 -1.5,-14.327 -1.5,-13.5L-1.5,-0.5C-1.5,0.327 -0.827,1 0,1" /></g>
</svg>
