<svg xmlns="http://www.w3.org/2000/svg" viewBox="0 0 24 24" style="fill-rule:evenodd;clip-rule:evenodd;stroke-linejoin:round;stroke-miterlimit:1.41421;">
<path d="M15.048,17l-6.097,0c-0.085,-0.525 -0.322,-1.373 -0.979,-2.095c-0.038,-0.073 -0.093,-0.137 -0.165,-0.185c-2.071,-1.4 -3.307,-3.725 -3.307,-6.22c0,-4.136 3.364,-7.5 7.5,-7.5c4.135,0 7.5,3.364 7.5,7.5c0,2.495 -1.237,4.82 -3.308,6.22c-0.068,0.045 -0.12,0.105 -0.154,0.174c-0.665,0.724 -0.904,1.578 -0.99,2.106m1.805,-1.513c0.008,-0.008 0.016,-0.016 0.024,-0.025c2.271,-1.593 3.623,-4.185 3.623,-6.962c0,-4.687 -3.813,-8.5 -8.5,-8.5c-4.687,0 -8.5,3.813 -8.5,8.5c0,2.777 1.351,5.368 3.622,6.962c0.008,0.009 0.016,0.017 0.024,0.025c0.834,0.834 0.854,2.003 0.854,2.013c0,0.276 0.223,0.5 0.5,0.5l7,0c0.276,0 0.5,-0.224 0.5,-0.5c0,-0.012 0.009,-1.169 0.853,-2.013" /><path d="M15.5,19l-7,0c-0.276,0 -0.5,0.224 -0.5,0.5c0,0.276 0.224,0.5 0.5,0.5l7,0c0.276,0 0.5,-0.224 0.5,-0.5c0,-0.276 -0.224,-0.5 -0.5,-0.5" /><path d="M16,21.5c0,-0.276 -0.224,-0.5 -0.5,-0.5l-7,0c-0.276,0 -0.5,0.224 -0.5,0.5c0,0.276 0.224,0.5 0.5,0.5l7,0c0.276,0 0.5,-0.224 0.5,-0.5" /><path d="M10.5,23c-0.276,0 -0.5,0.224 -0.5,0.5c0,0.276 0.224,0.5 0.5,0.5l3,0c0.276,0 0.5,-0.224 0.5,-0.5c0,-0.276 -0.224,-0.5 -0.5,-0.5l-3,0Z" /></svg>