<svg xmlns="http://www.w3.org/2000/svg" viewBox="0 0 24 24">
<g transform="matrix(1,0,0,1,4,8.936)">
<path d="M0,6.064C-1.654,6.064 -3,4.718 -3,3.064C-3,1.41 -1.654,0.064 0,0.064C1.654,0.064 3,1.41 3,3.064C3,4.718 1.654,6.064 0,6.064M15.1,0.864C15.198,0.995 15.349,1.064 15.5,1.064C15.604,1.064 15.71,1.031 15.8,0.964L19.8,-2.036C19.808,-2.042 19.812,-2.052 19.819,-2.059C19.858,-2.092 19.89,-2.132 19.917,-2.176C19.928,-2.193 19.941,-2.207 19.95,-2.226C19.98,-2.29 20,-2.36 20,-2.436C20,-2.512 19.98,-2.582 19.95,-2.646C19.941,-2.665 19.928,-2.679 19.917,-2.696C19.89,-2.74 19.858,-2.78 19.819,-2.813C19.812,-2.82 19.808,-2.83 19.8,-2.836L15.8,-5.836C15.58,-6 15.267,-5.958 15.1,-5.736C14.935,-5.515 14.979,-5.202 15.2,-5.036L17.975,-2.956C16.646,-2.976 14.751,-2.999 12.486,-2.936C9.579,-2.854 8.461,-1.475 8.053,-0.66C7.752,-0.058 7.706,0.467 7.669,0.888C7.623,1.416 7.592,1.765 7.146,2.21C6.991,2.366 6.649,2.502 6.434,2.564L3.949,2.564C3.7,0.596 2.035,-0.936 0,-0.936C-2.206,-0.936 -4,0.858 -4,3.064C-4,5.27 -2.206,7.064 0,7.064C2.035,7.064 3.7,5.532 3.949,3.564L6.434,3.564C6.628,3.62 6.985,3.756 7.146,3.918C7.592,4.363 7.623,4.712 7.669,5.24C7.706,5.661 7.752,6.186 8.053,6.788C8.461,7.603 9.579,8.982 12.486,9.064C13.591,9.095 14.609,9.105 15.518,9.105C16.472,9.105 17.294,9.094 17.975,9.083L15.2,11.164C14.979,11.33 14.935,11.643 15.1,11.864C15.198,11.995 15.349,12.064 15.5,12.064C15.604,12.064 15.71,12.031 15.8,11.964L19.8,8.964C19.808,8.958 19.812,8.948 19.819,8.941C19.858,8.908 19.89,8.868 19.917,8.824C19.928,8.807 19.941,8.793 19.95,8.774C19.98,8.71 20,8.64 20,8.564C20,8.488 19.98,8.418 19.95,8.354C19.941,8.335 19.928,8.321 19.917,8.304C19.89,8.26 19.858,8.22 19.819,8.187C19.812,8.18 19.808,8.17 19.8,8.164L15.8,5.164C15.58,4.999 15.267,5.043 15.1,5.264C14.935,5.485 14.979,5.798 15.2,5.964L18.024,8.082C16.701,8.103 14.795,8.127 12.514,8.064C10.745,8.015 9.479,7.402 8.947,6.34C8.731,5.908 8.699,5.542 8.665,5.153C8.614,4.572 8.557,3.914 7.854,3.21C7.801,3.158 7.744,3.109 7.684,3.064C7.744,3.019 7.801,2.97 7.854,2.918C8.557,2.214 8.614,1.556 8.665,0.975C8.699,0.586 8.731,0.22 8.947,-0.212C9.479,-1.274 10.745,-1.887 12.514,-1.936C14.795,-1.999 16.702,-1.975 18.024,-1.954L15.2,0.164C14.979,0.33 14.935,0.643 15.1,0.864" /></g>
</svg>
