<svg xmlns="http://www.w3.org/2000/svg" viewBox="0 0 24 24" style="fill-rule:evenodd;clip-rule:evenodd;stroke-linejoin:round;stroke-miterlimit:1.41421;">

                <g transform="matrix(1,0,0,1,13.5,11)">
                    <path d="M0,-1L-8,-1C-8.276,-1 -8.5,-0.776 -8.5,-0.5C-8.5,-0.224 -8.276,0 -8,0L0,0C0.276,0 0.5,-0.224 0.5,-0.5C0.5,-0.776 0.276,-1 0,-1" />
                </g>
                <g transform="matrix(1,0,0,1,13.5,14)">
                    <path d="M0,-1L-8,-1C-8.276,-1 -8.5,-0.776 -8.5,-0.5C-8.5,-0.224 -8.276,0 -8,0L0,0C0.276,0 0.5,-0.224 0.5,-0.5C0.5,-0.776 0.276,-1 0,-1" />
                </g>
                <g transform="matrix(1,0,0,1,13.5,17)">
                    <path d="M0,-1L-8,-1C-8.276,-1 -8.5,-0.776 -8.5,-0.5C-8.5,-0.224 -8.276,0 -8,0L0,0C0.276,0 0.5,-0.224 0.5,-0.5C0.5,-0.776 0.276,-1 0,-1" />
                </g>
                <g transform="matrix(1,0,0,1,20,8.5)">
                    <path d="M0,7C0,7.276 -0.225,7.5 -0.5,7.5L-4,7.5L-4,2.5L-1.5,2.5C-1.224,2.5 -1,2.276 -1,2C-1,1.724 -1.224,1.5 -1.5,1.5L-4,1.5L-4,0C-4,-0.176 -4.036,-0.343 -4.092,-0.5L-1.5,-0.5C-1.224,-0.5 -1,-0.724 -1,-1C-1,-1.276 -1.224,-1.5 -1.5,-1.5L-5.5,-1.5L-11,-1.5L-11,-6C-11,-6.276 -10.775,-6.5 -10.5,-6.5L-0.5,-6.5C-0.225,-6.5 0,-6.276 0,-6L0,7ZM-5,13C-5,13.276 -5.225,13.5 -5.5,13.5L-15.5,13.5C-15.775,13.5 -16,13.276 -16,13L-16,0C-16,-0.276 -15.775,-0.5 -15.5,-0.5L-5.5,-0.5C-5.225,-0.5 -5,-0.276 -5,0L-5,13ZM1,-6C1,-6.827 0.327,-7.5 -0.5,-7.5L-10.5,-7.5C-11.327,-7.5 -12,-6.827 -12,-6L-12,-1.5L-15.5,-1.5C-16.327,-1.5 -17,-0.827 -17,0L-17,13C-17,13.827 -16.327,14.5 -15.5,14.5L-5.5,14.5C-4.673,14.5 -4,13.827 -4,13L-4,8.5L-0.5,8.5C0.327,8.5 1,7.827 1,7L1,-6Z" />
                </g>
                <g transform="matrix(1,0,0,1,18.5,5)">
                    <path d="M0,-1L-8,-1C-8.276,-1 -8.5,-0.776 -8.5,-0.5C-8.5,-0.224 -8.276,0 -8,0L0,0C0.276,0 0.5,-0.224 0.5,-0.5C0.5,-0.776 0.276,-1 0,-1" />
                </g>
</svg>
