<svg xmlns="http://www.w3.org/2000/svg" viewBox="0 0 24 24" style="fill-rule:evenodd;clip-rule:evenodd;stroke-linejoin:round;stroke-miterlimit:1.41421;"><path d="M2.875,4.19l1.694,-0.636c0.13,0.112 0.339,0.313 0.607,0.643c0.68,0.838 1.346,2.009 1.98,3.479c0.274,0.633 0.507,1.29 0.695,1.951l0.109,0.389l0.001,0.001l0.12,0.541c0.157,0.734 0.222,1.321 0.248,1.682l0.013,0.195c-0.785,0.2 -1.378,0.391 -1.705,0.506l-0.027,0.01l-3.735,-8.761Zm9.268,8.581c0.897,-0.094 1.799,-0.142 2.683,-0.142c1.234,0 2.165,0.095 2.616,0.153l0.152,1.253l-10.574,1.11l-0.148,-1.232l0.096,-0.029c0.694,-0.244 2.589,-0.841 5.175,-1.113m5.739,7.427c-2.003,0.853 -4.281,1.302 -6.626,1.302c-1.717,0 -3.376,-0.236 -4.911,-0.685l0.678,-4.664l9.445,-0.992l1.414,5.039Zm-17.01,-2.404c-0.163,-0.182 -0.44,-0.219 -0.648,-0.082c-0.23,0.154 -0.292,0.464 -0.139,0.694c0.02,0.031 0.049,0.064 0.075,0.09c2.681,2.545 6.725,4.004 11.096,4.004c2.687,0 5.298,-0.56 7.55,-1.62c2.211,-1.041 3.978,-2.51 5.113,-4.251c0.15,-0.231 0.086,-0.541 -0.146,-0.691c-0.231,-0.149 -0.542,-0.086 -0.692,0.146c-0.961,1.474 -2.435,2.741 -4.28,3.685l-1.324,-4.717l0.726,-0.076c0.134,-0.014 0.256,-0.08 0.339,-0.185c0.084,-0.105 0.122,-0.239 0.105,-0.372l-0.258,-2.143c-0.028,-0.227 -0.205,-0.407 -0.432,-0.436l-0.374,-0.048c-0.472,-0.061 -1.457,-0.163 -2.757,-0.163c-0.918,0 -1.856,0.049 -2.787,0.147c-1.014,0.107 -1.927,0.262 -2.71,0.428l-0.002,-0.033c-0.029,-0.396 -0.098,-1.033 -0.268,-1.827l-0.005,-0.021c4.034,-0.404 7.228,-1.26 9.007,-2.414c0.231,-0.151 0.296,-0.46 0.146,-0.692c-0.15,-0.233 -0.461,-0.297 -0.691,-0.147c-1.667,1.082 -4.759,1.889 -8.706,2.272c-0.2,-0.7 -0.447,-1.394 -0.736,-2.062c-0.67,-1.554 -1.384,-2.803 -2.122,-3.713c-0.561,-0.692 -0.94,-0.94 -1.006,-0.98c-0.13,-0.082 -0.368,-0.105 -0.513,-0.05l-2.368,0.889c-0.079,0.029 -0.175,0.094 -0.23,0.158c-0.125,0.145 -0.157,0.348 -0.082,0.523l4.085,9.583l0.241,2.004l-0.699,4.805c-1.731,-0.63 -3.271,-1.545 -4.508,-2.705" /></svg>