<svg xmlns="http://www.w3.org/2000/svg" viewBox="0 0 24 24" style="fill-rule:evenodd;clip-rule:evenodd;stroke-linejoin:round;stroke-miterlimit:1.41421;">
                    <g transform="matrix(1,0,0,1,6.5,5.5)">
                        <path d="M0,0.001C0,0.828 -0.673,1.501 -1.5,1.501C-2.327,1.501 -3,0.828 -3,0.001C-3,-0.827 -2.327,-1.5 -1.5,-1.5C-0.673,-1.5 0,-0.827 0,0.001M-4,0.001C-4,1.379 -2.878,2.501 -1.5,2.501C-0.122,2.501 1,1.379 1,0.001C1,-1.378 -0.122,-2.5 -1.5,-2.5C-2.878,-2.5 -4,-1.378 -4,0.001" />
                    </g>
                    <g transform="matrix(1,0,0,1,1,9.4997)">
                        <path d="M0,4.118C0,4.394 0.224,4.618 0.5,4.618C0.776,4.618 1,4.394 1,4.118L1,1.647C1,1.015 1.515,0.5 2.147,0.5L5.853,0.5C6.485,0.5 7,1.015 7,1.647L7,4.118C7,4.394 7.224,4.618 7.5,4.618C7.776,4.618 8,4.394 8,4.118L8,1.647C8,0.463 7.037,-0.5 5.853,-0.5L2.147,-0.5C0.963,-0.5 0,0.463 0,1.647L0,4.118Z" />
                    </g>
                    <g transform="matrix(1,0,0,1,19,7)">
                        <path d="M0,-3C0.827,-3 1.5,-2.327 1.5,-1.499C1.5,-0.672 0.827,0 0,0C-0.827,0 -1.5,-0.672 -1.5,-1.499C-1.5,-2.327 -0.827,-3 0,-3M0,1C1.378,1 2.5,-0.121 2.5,-1.499C2.5,-2.878 1.378,-4 0,-4C-1.378,-4 -2.5,-2.878 -2.5,-1.499C-2.5,-0.121 -1.378,1 0,1" />
                    </g>
                    <g transform="matrix(1,0,0,1,22.5,8.9997)">
                        <path d="M0,5.118C0.276,5.118 0.5,4.894 0.5,4.618L0.5,2.147C0.5,0.963 -0.463,0 -1.647,0L-5.353,0C-6.537,0 -7.5,0.963 -7.5,2.147L-7.5,4.618C-7.5,4.894 -7.276,5.118 -7,5.118C-6.724,5.118 -6.5,4.894 -6.5,4.618L-6.5,2.147C-6.5,1.515 -5.985,1 -5.353,1L-1.647,1C-1.015,1 -0.5,1.515 -0.5,2.147L-0.5,4.618C-0.5,4.894 -0.276,5.118 0,5.118" />
                    </g>
                    <g transform="matrix(1,0,0,1,9,2.451)">
                        <path d="M0,0.049C0,0.325 0.224,0.549 0.5,0.549L4.293,0.549L3.146,1.695C2.951,1.891 2.951,2.207 3.146,2.403C3.244,2.5 3.372,2.549 3.5,2.549C3.628,2.549 3.756,2.5 3.854,2.403L5.853,0.403C5.899,0.357 5.936,0.301 5.961,0.24C6.012,0.118 6.012,-0.02 5.961,-0.142C5.936,-0.203 5.899,-0.259 5.853,-0.305L3.854,-2.305C3.658,-2.5 3.342,-2.5 3.146,-2.305C2.951,-2.109 2.951,-1.793 3.146,-1.597L4.293,-0.451L0.5,-0.451C0.224,-0.451 0,-0.227 0,0.049" />
                    </g>
                    <g transform="matrix(1,0,0,1,23.1465,20.8055)">
                        <path d="M0,-4.659L-3.146,-1.513L-3.146,-3.305C-3.146,-3.582 -3.37,-3.805 -3.646,-3.805C-3.923,-3.805 -4.146,-3.582 -4.146,-3.305L-4.146,-0.305C-4.146,-0.241 -4.133,-0.176 -4.108,-0.115C-4.058,0.008 -3.96,0.106 -3.837,0.156C-3.776,0.181 -3.711,0.195 -3.646,0.195L-0.646,0.195C-0.37,0.195 -0.146,-0.029 -0.146,-0.305C-0.146,-0.582 -0.37,-0.805 -0.646,-0.805L-2.439,-0.805L0.707,-3.952C0.902,-4.147 0.902,-4.464 0.707,-4.659C0.512,-4.854 0.195,-4.854 0,-4.659" />
                    </g>
                    <g transform="matrix(1,0,0,1,13.5,15.5)">
                        <path d="M0,0.001C0,0.828 -0.673,1.501 -1.5,1.501C-2.327,1.501 -3,0.828 -3,0.001C-3,-0.827 -2.327,-1.5 -1.5,-1.5C-0.673,-1.5 0,-0.827 0,0.001M-4,0.001C-4,1.379 -2.878,2.501 -1.5,2.501C-0.122,2.501 1,1.379 1,0.001C1,-1.378 -0.122,-2.5 -1.5,-2.5C-2.878,-2.5 -4,-1.378 -4,0.001" />
                    </g>
                    <g transform="matrix(1,0,0,1,8,21.853)">
                        <path d="M0,-0.706L0,1.647C0,1.923 0.224,2.147 0.5,2.147C0.776,2.147 1,1.923 1,1.647L1,-0.706C1,-1.338 1.515,-1.853 2.147,-1.853L5.853,-1.853C6.485,-1.853 7,-1.338 7,-0.706L7,1.647C7,1.923 7.224,2.147 7.5,2.147C7.776,2.147 8,1.923 8,1.647L8,-0.706C8,-1.89 7.037,-2.853 5.853,-2.853L2.147,-2.853C0.963,-2.853 0,-1.89 0,-0.706" />
                    </g>
                    <g transform="matrix(1,0,0,1,1,17.5)">
                        <path d="M0,2C0,2.276 0.224,2.5 0.5,2.5C0.776,2.5 1,2.276 1,2L1,0.207L4.146,3.354C4.244,3.451 4.372,3.5 4.5,3.5C4.628,3.5 4.756,3.451 4.854,3.354C5.049,3.158 5.049,2.842 4.854,2.646L1.707,-0.5L3.5,-0.5C3.776,-0.5 4,-0.724 4,-1C4,-1.276 3.776,-1.5 3.5,-1.5L0.5,-1.5C0.435,-1.5 0.37,-1.487 0.309,-1.461C0.187,-1.411 0.089,-1.313 0.039,-1.191C0.013,-1.13 0,-1.065 0,-1L0,2Z" />
                    </g>
</svg>
