<svg xmlns="http://www.w3.org/2000/svg" viewBox="0 0 24 24" style="fill-rule:evenodd;clip-rule:evenodd;stroke-linejoin:round;stroke-miterlimit:1.41421;"><path d="M3.63,3.896l1.616,-1.75c0.087,-0.094 0.2,-0.146 0.319,-0.146c0.12,0 0.234,0.052 0.322,0.148l3.653,3.956c0.201,0.218 0.199,0.581 -0.004,0.794l-1.399,1.47c-0.378,0.396 -0.382,1.022 -0.011,1.425l5.853,6.337c0.186,0.202 0.461,0.316 0.714,0.314c0.269,-0.002 0.528,-0.121 0.71,-0.325l1.356,-1.515c0.086,-0.096 0.197,-0.149 0.312,-0.15c0.128,0.005 0.227,0.051 0.315,0.146l3.652,3.955c0.204,0.221 0.204,0.592 0.002,0.812l-1.616,1.75c-0.793,0.859 -2.308,1.141 -3.313,0.616l-0.046,-0.021c-0.034,-0.013 -3.477,-1.429 -7.667,-6.014c-3.755,-4.113 -5.285,-8.059 -5.316,-8.137c-0.525,-1.096 -0.274,-2.774 0.548,-3.665m4.03,12.477c4.221,4.618 7.66,6.114 8.01,6.258c0.492,0.252 1.049,0.372 1.615,0.372c1.063,0 2.152,-0.426 2.873,-1.208l1.616,-1.749c0.562,-0.608 0.561,-1.561 -0.001,-2.17l-3.653,-3.955c-0.281,-0.304 -0.703,-0.463 -1.056,-0.467c-0.401,0.003 -0.773,0.174 -1.05,0.483l-1.301,1.515l-5.852,-6.395l1.399,-1.469c0.573,-0.601 0.579,-1.551 0.015,-2.163l-3.653,-3.956c-0.28,-0.302 -0.655,-0.469 -1.056,-0.469l-0.001,0c-0.401,0 -0.775,0.166 -1.054,0.467l-1.615,1.75c-1.091,1.181 -1.412,3.324 -0.732,4.738c0.063,0.168 1.604,4.155 5.496,8.418" /></svg>