<svg xmlns="http://www.w3.org/2000/svg" viewBox="0 0 24 24" style="fill-rule:evenodd;clip-rule:evenodd;stroke-linejoin:round;stroke-miterlimit:1.41421;">
                <g transform="matrix(1,0,0,1,19.5,2)">
                    <path d="M0,20L-15,20C-15.276,20 -15.5,19.776 -15.5,19.5L-15.5,0.5C-15.5,0.224 -15.276,0 -15,0L-4.5,0L-4.5,4.5C-4.5,4.776 -4.276,5 -4,5L0.5,5L0.5,19.5C0.5,19.776 0.276,20 0,20M-3.5,0.707L-0.207,4L-3.5,4L-3.5,0.707ZM1.353,4.146L-3.646,-0.853C-3.692,-0.899 -3.747,-0.936 -3.808,-0.961C-3.868,-0.986 -3.933,-1 -4,-1L-15,-1C-15.827,-1 -16.5,-0.327 -16.5,0.5L-16.5,19.5C-16.5,20.327 -15.827,21 -15,21L0,21C0.827,21 1.5,20.327 1.5,19.5L1.5,4.5C1.5,4.433 1.486,4.368 1.461,4.308C1.436,4.247 1.399,4.192 1.353,4.146" />
                </g>
                <g transform="matrix(1,0,0,1,16,9.5)">
                    <path d="M0,8C0,8.827 -0.673,9.5 -1.5,9.5L-6.5,9.5C-7.327,9.5 -8,8.827 -8,8L-8,4C-8,3.173 -7.327,2.5 -6.5,2.5L-1.5,2.5C-0.673,2.5 0,3.173 0,4L0,8ZM-4,-1.5C-2.71,-1.5 -2,-0.612 -2,1L-2,1.5L-6,1.5L-6,1C-6,-0.612 -5.29,-1.5 -4,-1.5M-1,1.551L-1,1C-1,-1.159 -2.149,-2.5 -4,-2.5C-5.851,-2.5 -7,-1.159 -7,1L-7,1.551C-8.14,1.783 -9,2.793 -9,4L-9,8C-9,9.378 -7.878,10.5 -6.5,10.5L-1.5,10.5C-0.122,10.5 1,9.378 1,8L1,4C1,2.793 0.14,1.783 -1,1.551" />
                </g>
                <g transform="matrix(1,0,0,1,12,15)">
                    <path d="M0,1C-0.551,1 -1,0.551 -1,0C-1,-0.551 -0.551,-1 0,-1C0.551,-1 1,-0.551 1,0C1,0.551 0.551,1 0,1M0,-2C-1.103,-2 -2,-1.103 -2,0C-2,0.929 -1.36,1.706 -0.5,1.929L-0.5,2.5C-0.5,2.776 -0.276,3 0,3C0.276,3 0.5,2.776 0.5,2.5L0.5,1.929C1.36,1.706 2,0.929 2,0C2,-1.103 1.103,-2 0,-2" />
                </g>
</svg>
