<svg xmlns="http://www.w3.org/2000/svg" viewBox="0 0 24 24" style="fill-rule:evenodd;clip-rule:evenodd;stroke-linejoin:round;stroke-miterlimit:1.41421;">
<g transform="matrix(1,0,0,1,20.5,12.158)"><path d="M0,-0.365L-5.293,-5.658L-3,-7.951L2.293,-2.658L0,-0.365ZM-3.305,1.991C-3.972,1.254 -5.415,-0.314 -6.098,-0.872C-6.562,-1.251 -7.095,-1.664 -7.535,-1.748C-7.994,-1.835 -8.677,-1.583 -8.939,-1.447C-9.231,-1.295 -9.716,-0.802 -9.901,-0.608C-9.992,-0.522 -10.108,-0.493 -10.23,-0.48C-10.357,-0.483 -10.47,-0.532 -10.557,-0.623C-10.733,-0.808 -10.728,-1.102 -10.543,-1.28L-8.857,-2.898L-8.586,-3.067L-5.414,-4.365L-1.487,-0.438L-3.305,1.991ZM-3.669,3.864C-3.771,3.963 -3.895,4.014 -4.034,4.017L-4.436,4.025C-4.696,4.03 -4.909,4.234 -4.925,4.494L-4.949,4.895C-4.957,5.031 -5.017,5.159 -5.113,5.252C-5.214,5.348 -5.344,5.402 -5.479,5.405L-5.881,5.412C-6.142,5.418 -6.354,5.622 -6.37,5.882L-6.395,6.283C-6.402,6.419 -6.462,6.546 -6.562,6.642C-6.668,6.744 -6.882,6.84 -7.01,6.842C-7.276,6.847 -7.493,7.069 -7.5,7.336C-7.505,7.548 -7.583,7.796 -7.905,7.836L-8.287,7.664L-8.24,7.618C-7.961,7.349 -7.792,6.993 -7.764,6.616C-7.736,6.219 -7.867,5.849 -8.13,5.575C-8.369,5.324 -8.679,5.206 -9.046,5.183C-9.059,4.847 -9.18,4.536 -9.408,4.297C-9.647,4.046 -9.96,3.933 -10.324,3.906C-10.336,3.569 -10.458,3.258 -10.686,3.02C-10.924,2.77 -11.232,2.65 -11.598,2.628C-11.61,2.294 -11.731,1.984 -11.959,1.746C-12.224,1.469 -12.562,1.334 -12.983,1.335C-13.36,1.346 -13.722,1.502 -14.002,1.772L-15.524,-0.427L-11.604,-4.346L-9.754,-3.424L-11.236,-2.001C-11.818,-1.442 -11.837,-0.512 -11.278,0.069C-11.009,0.351 -10.644,0.511 -10.251,0.52C-9.825,0.509 -9.492,0.383 -9.187,0.092C-8.907,-0.201 -8.575,-0.506 -8.479,-0.56C-8.255,-0.675 -7.844,-0.782 -7.723,-0.765C-7.618,-0.745 -7.361,-0.614 -6.724,-0.092C-5.905,0.576 -3.724,3.02 -3.701,3.045C-3.675,3.074 -3.646,3.1 -3.615,3.122L-3.563,3.223C-3.511,3.326 -3.492,3.445 -3.511,3.56C-3.529,3.677 -3.584,3.782 -3.669,3.864M-9.81,7.558C-9.874,7.568 -9.995,7.546 -10.081,7.457C-10.167,7.366 -10.179,7.254 -10.173,7.175C-10.164,7.047 -10.104,6.922 -10.002,6.824C-10.001,6.824 -10.001,6.823 -10,6.823L-9.48,6.321C-9.379,6.223 -9.252,6.167 -9.124,6.163L-9.11,6.163C-9.034,6.163 -8.934,6.182 -8.853,6.266C-8.768,6.355 -8.756,6.468 -8.762,6.545C-8.771,6.675 -8.832,6.8 -8.935,6.898L-9.454,7.4C-9.557,7.498 -9.683,7.554 -9.81,7.558M-11.451,5.899C-11.442,5.769 -11.381,5.644 -11.279,5.547C-11.278,5.546 -11.278,5.546 -11.277,5.545L-10.757,5.042C-10.656,4.945 -10.53,4.889 -10.401,4.885L-10.388,4.885C-10.313,4.885 -10.211,4.904 -10.131,4.988C-10.045,5.077 -10.034,5.189 -10.04,5.269C-10.049,5.397 -10.109,5.522 -10.211,5.62L-10.733,6.123C-10.834,6.221 -10.96,6.277 -11.087,6.281C-11.146,6.295 -11.274,6.267 -11.359,6.179C-11.445,6.088 -11.457,5.976 -11.451,5.899M-12.729,4.619C-12.72,4.491 -12.659,4.366 -12.558,4.269C-12.557,4.268 -12.557,4.268 -12.556,4.267L-12.036,3.765C-11.935,3.668 -11.808,3.612 -11.68,3.607L-11.666,3.607C-11.59,3.607 -11.489,3.626 -11.409,3.71C-11.323,3.8 -11.312,3.912 -11.317,3.989C-11.326,4.119 -11.388,4.244 -11.49,4.343L-12.01,4.844C-12.112,4.943 -12.238,4.999 -12.366,5.003C-12.443,5.014 -12.552,4.989 -12.637,4.901C-12.723,4.81 -12.734,4.698 -12.729,4.619M-14.002,3.348C-13.993,3.218 -13.932,3.093 -13.83,2.996C-13.829,2.995 -13.829,2.995 -13.828,2.994L-13.308,2.491C-13.207,2.394 -13.081,2.339 -12.952,2.334L-12.938,2.334C-12.863,2.334 -12.762,2.353 -12.682,2.437C-12.596,2.527 -12.585,2.638 -12.591,2.718C-12.6,2.846 -12.66,2.971 -12.762,3.069L-13.284,3.573C-13.385,3.67 -13.511,3.726 -13.638,3.73C-13.7,3.742 -13.824,3.717 -13.91,3.628C-13.996,3.537 -14.008,3.425 -14.002,3.348M-19.293,-2.658L-14,-7.951L-11.707,-5.658L-17,-0.365L-19.293,-2.658ZM-2.646,-9.011C-2.842,-9.207 -3.158,-9.207 -3.354,-9.011L-6.354,-6.011C-6.549,-5.816 -6.549,-5.5 -6.354,-5.304L-6.181,-5.132L-8.794,-4.062L-10.859,-5.092L-10.646,-5.304C-10.451,-5.5 -10.451,-5.816 -10.646,-6.011L-13.646,-9.011C-13.842,-9.207 -14.158,-9.207 -14.354,-9.011L-20.354,-3.011C-20.549,-2.816 -20.549,-2.5 -20.354,-2.304L-17.354,0.696C-17.256,0.793 -17.128,0.842 -17,0.842C-16.872,0.842 -16.744,0.793 -16.646,0.696L-16.243,0.292L-14.7,2.52C-14.86,2.748 -14.979,3 -15,3.277C-15.027,3.671 -14.897,4.041 -14.634,4.318C-14.396,4.567 -14.073,4.698 -13.722,4.717C-13.707,5.046 -13.586,5.353 -13.36,5.592C-13.121,5.843 -12.796,5.974 -12.444,5.99C-12.431,6.322 -12.31,6.631 -12.083,6.868C-11.845,7.119 -11.52,7.252 -11.166,7.268C-11.152,7.599 -11.031,7.907 -10.805,8.147C-10.55,8.414 -10.203,8.559 -9.823,8.559C-9.809,8.559 -9.794,8.558 -9.779,8.558C-9.555,8.552 -9.343,8.479 -9.143,8.375L-8.206,8.798C-8.141,8.827 -8.071,8.842 -8,8.842C-7.14,8.842 -6.707,8.293 -6.56,7.766C-6.304,7.683 -6.054,7.54 -5.868,7.362C-5.602,7.107 -5.437,6.767 -5.401,6.402C-5.037,6.381 -4.691,6.231 -4.421,5.974C-4.155,5.717 -3.991,5.378 -3.956,5.014C-3.586,4.993 -3.248,4.846 -2.977,4.585C-2.733,4.351 -2.576,4.051 -2.522,3.718C-2.473,3.406 -2.521,3.08 -2.658,2.797L-0.772,0.277L-0.354,0.696C-0.256,0.793 -0.128,0.842 0,0.842C0.128,0.842 0.256,0.793 0.354,0.696L3.354,-2.304C3.549,-2.5 3.549,-2.816 3.354,-3.011L-2.646,-9.011Z" /></g>
<g transform="matrix(1,0,0,1,3.5195,10)"><path d="M0,-1L-0.01,-1C-0.286,-1 -0.505,-0.776 -0.505,-0.5C-0.505,-0.224 -0.275,0 0,0C0.276,0 0.5,-0.224 0.5,-0.5C0.5,-0.776 0.276,-1 0,-1" /></g>
</svg>
