<svg xmlns="http://www.w3.org/2000/svg" viewBox="0 0 24 24" style="fill-rule:evenodd;clip-rule:evenodd;stroke-linejoin:round;stroke-miterlimit:1.41421;">
                <g transform="matrix(1,0,0,1,5,2.9419)">
                    <path d="M0,3C-0.827,3 -1.5,2.327 -1.5,1.5C-1.5,0.673 -0.827,0 0,0C0.827,0 1.5,0.673 1.5,1.5C1.5,2.327 0.827,3 0,3M0,-1C-1.378,-1 -2.5,0.122 -2.5,1.5C-2.5,2.879 -1.378,4 0,4C1.378,4 2.5,2.879 2.5,1.5C2.5,0.122 1.378,-1 0,-1" />
                </g>
                <g transform="matrix(1,0,0,1,8,10.9114)">
                    <path d="M0,-0.823L0,1.647C0,1.924 0.224,2.147 0.5,2.147C0.776,2.147 1,1.924 1,1.647L1,-0.823C1,-2.007 0.037,-2.97 -1.147,-2.97L-4.853,-2.97C-6.037,-2.97 -7,-2.007 -7,-0.823L-7,1.647C-7,1.924 -6.776,2.147 -6.5,2.147C-6.224,2.147 -6,1.924 -6,1.647L-6,-0.823C-6,-1.455 -5.485,-1.97 -4.853,-1.97L-1.147,-1.97C-0.515,-1.97 0,-1.455 0,-0.823" />
                </g>
                <g transform="matrix(1,0,0,1,19,5.9414)">
                    <path d="M0,-3C0.827,-3 1.5,-2.327 1.5,-1.499C1.5,-0.672 0.827,0 0,0C-0.827,0 -1.5,-0.672 -1.5,-1.499C-1.5,-2.327 -0.827,-3 0,-3M0,1C1.378,1 2.5,-0.121 2.5,-1.499C2.5,-2.878 1.378,-4 0,-4C-1.378,-4 -2.5,-2.878 -2.5,-1.499C-2.5,-0.121 -1.378,1 0,1" />
                </g>
                <g transform="matrix(1,0,0,1,22.5,7.9416)">
                    <path d="M0,5.117C0.276,5.117 0.5,4.893 0.5,4.617L0.5,2.147C0.5,0.963 -0.463,0 -1.647,0L-5.353,0C-6.537,0 -7.5,0.963 -7.5,2.147L-7.5,4.617C-7.5,4.893 -7.276,5.117 -7,5.117C-6.724,5.117 -6.5,4.893 -6.5,4.617L-6.5,2.147C-6.5,1.514 -5.985,1 -5.353,1L-1.647,1C-1.015,1 -0.5,1.514 -0.5,2.147L-0.5,4.617C-0.5,4.893 -0.276,5.117 0,5.117" />
                </g>
                <g transform="matrix(1,0,0,1,13.5,14.4419)">
                    <path d="M0,0C0,0.827 -0.673,1.5 -1.5,1.5C-2.327,1.5 -3,0.827 -3,0C-3,-0.827 -2.327,-1.5 -1.5,-1.5C-0.673,-1.5 0,-0.827 0,0M-4,0C-4,1.378 -2.878,2.5 -1.5,2.5C-0.122,2.5 1,1.378 1,0C1,-1.379 -0.122,-2.5 -1.5,-2.5C-2.878,-2.5 -4,-1.379 -4,0" />
                </g>
                <g transform="matrix(1,0,0,1,15.5,17.9416)">
                    <path d="M0,5.117C0.276,5.117 0.5,4.893 0.5,4.617L0.5,2.147C0.5,0.963 -0.463,0 -1.647,0L-5.353,0C-6.537,0 -7.5,0.963 -7.5,2.147L-7.5,4.617C-7.5,4.893 -7.276,5.117 -7,5.117C-6.724,5.117 -6.5,4.893 -6.5,4.617L-6.5,2.147C-6.5,1.514 -5.985,1 -5.353,1L-1.647,1C-1.015,1 -0.5,1.514 -0.5,2.147L-0.5,4.617C-0.5,4.893 -0.276,5.117 0,5.117" />
                </g>
                <g transform="matrix(1,0,0,1,15,4.4414)">
                    <path d="M0,0C0,-0.276 -0.224,-0.5 -0.5,-0.5L-5.5,-0.5C-5.776,-0.5 -6,-0.276 -6,0C-6,0.276 -5.776,0.5 -5.5,0.5L-0.5,0.5C-0.224,0.5 0,0.276 0,0" />
                </g>
                <g transform="matrix(1,0,0,1,21.1465,18.7469)">
                    <path d="M0,-3.659L-3,-0.659C-3.195,-0.464 -3.195,-0.147 -3,0.048C-2.902,0.146 -2.774,0.195 -2.646,0.195C-2.519,0.195 -2.391,0.146 -2.293,0.048L0.707,-2.952C0.902,-3.147 0.902,-3.464 0.707,-3.659C0.512,-3.854 0.195,-3.854 0,-3.659" />
                </g>
                <g transform="matrix(1,0,0,1,2.1465,18.7469)">
                    <path d="M0,-3.659C-0.195,-3.464 -0.195,-3.147 0,-2.952L3,0.048C3.098,0.146 3.226,0.195 3.354,0.195C3.481,0.195 3.609,0.146 3.707,0.048C3.902,-0.147 3.902,-0.464 3.707,-0.659L0.707,-3.659C0.512,-3.854 0.195,-3.854 0,-3.659" />
                </g>
</svg>
