<svg xmlns="http://www.w3.org/2000/svg" viewBox="0 0 24 24" style="fill-rule:evenodd;clip-rule:evenodd;stroke-linejoin:round;stroke-miterlimit:1.41421;"><path d="M21.224,4.116l-5.795,5.792c-0.106,0.106 -0.159,0.255 -0.143,0.405l1.006,9.906c0.011,0.115 -0.068,0.338 -0.15,0.42l-0.936,0.935l-2.621,-7.802c-0.054,-0.164 -0.19,-0.288 -0.359,-0.328c-0.169,-0.037 -0.346,0.011 -0.468,0.133l-3.663,3.662c-0.094,0.094 -0.146,0.221 -0.146,0.355l0.01,3.812l-0.264,0.268l-1.782,-3.385c-0.046,-0.09 -0.12,-0.163 -0.21,-0.21l-3.378,-1.771l0.389,-0.403l3.67,0.139c0.145,0.01 0.275,-0.048 0.372,-0.146l3.661,-3.66c0.122,-0.122 0.173,-0.299 0.133,-0.468c-0.039,-0.168 -0.163,-0.304 -0.327,-0.36l-7.808,-2.619l1.106,-1.103c0.064,-0.065 0.254,-0.143 0.334,-0.147l9.841,1.153c0.152,0.017 0.302,-0.035 0.412,-0.143l5.776,-5.774c0.359,-0.358 0.984,-0.357 1.34,0.001c0.369,0.368 0.369,0.969 0,1.338m0.707,-2.045c-0.733,-0.736 -2.017,-0.738 -2.754,-0.001l-5.605,5.603l-9.659,-1.128c-0.392,0 -0.845,0.18 -1.1,0.436l-1.319,1.317c-0.216,0.219 -0.305,0.498 -0.242,0.771c0.066,0.268 0.27,0.478 0.56,0.575l7.327,2.458l-2.936,2.934l-3.674,-0.139c-0.141,-0.006 -0.28,0.051 -0.378,0.152l-1.01,1.044c-0.109,0.113 -0.159,0.272 -0.134,0.427c0.025,0.156 0.121,0.29 0.261,0.364l3.833,2.008l2.021,3.841c0.086,0.164 0.262,0.267 0.448,0.267c0.057,0 0.128,-0.014 0.181,-0.034c0.071,-0.025 0.135,-0.065 0.187,-0.119l0.877,-0.883c0.094,-0.094 0.145,-0.222 0.145,-0.354l-0.01,-3.811l2.945,-2.944l2.459,7.321c0.191,0.586 0.916,0.755 1.347,0.318l1.147,-1.147c0.296,-0.294 0.48,-0.81 0.438,-1.229l-0.982,-9.67l5.627,-5.625c0.759,-0.759 0.759,-1.994 0,-2.752" /></svg>