<svg xmlns="http://www.w3.org/2000/svg" viewBox="0 0 24 24" style="fill-rule:evenodd;clip-rule:evenodd;stroke-linejoin:round;stroke-miterlimit:1.41421;">
<g transform="matrix(1,0,0,1,20,3)">
<path d="M0,17L-8,17L-8,14C-8,13.724 -8.224,13.5 -8.5,13.5L-9.277,13.5C-9.456,13.5 -9.62,13.595 -9.709,13.748C-9.983,14.219 -10.466,14.5 -11,14.5C-11.827,14.5 -12.5,13.827 -12.5,13C-12.5,12.173 -11.827,11.5 -11,11.5C-10.466,11.5 -9.983,11.781 -9.709,12.252C-9.62,12.405 -9.456,12.5 -9.277,12.5L-8.5,12.5C-8.224,12.5 -8,12.276 -8,12L-8,9L-5.5,9L-5.5,9.011C-6.123,9.48 -6.5,10.219 -6.5,11C-6.5,12.379 -5.378,13.5 -4,13.5C-2.622,13.5 -1.5,12.379 -1.5,11C-1.5,10.219 -1.877,9.48 -2.5,9.011L0,9L0,17ZM-17,9L-14,9C-13.724,9 -13.5,8.776 -13.5,8.5L-13.5,7.723C-13.5,7.545 -13.595,7.38 -13.749,7.291C-14.219,7.017 -14.5,6.534 -14.5,6C-14.5,5.173 -13.827,4.5 -13,4.5C-12.173,4.5 -11.5,5.173 -11.5,6C-11.5,6.534 -11.781,7.017 -12.251,7.291C-12.405,7.38 -12.5,7.545 -12.5,7.723L-12.5,8.5C-12.5,8.776 -12.276,9 -12,9L-9,9L-9,11.5L-9.01,11.5C-9.48,10.877 -10.218,10.5 -11,10.5C-12.378,10.5 -13.5,11.621 -13.5,13C-13.5,14.379 -12.378,15.5 -11,15.5C-10.218,15.5 -9.48,15.123 -9.01,14.5L-9.002,17L-17,17L-17,9ZM-7.99,5.5C-7.52,6.123 -6.782,6.5 -6,6.5C-4.622,6.5 -3.5,5.379 -3.5,4C-3.5,2.621 -4.622,1.5 -6,1.5C-6.782,1.5 -7.52,1.877 -7.99,2.5L-8,0L0,0L0,8L-3,8C-3.276,8 -3.5,8.224 -3.5,8.5L-3.5,9.277C-3.5,9.455 -3.405,9.62 -3.251,9.709C-2.781,9.983 -2.5,10.466 -2.5,11C-2.5,11.827 -3.173,12.5 -4,12.5C-4.827,12.5 -5.5,11.827 -5.5,11C-5.5,10.466 -5.219,9.983 -4.749,9.709C-4.595,9.62 -4.5,9.455 -4.5,9.277L-4.5,8.5C-4.5,8.224 -4.724,8 -5,8L-8,8L-8,5.5L-7.99,5.5ZM0.5,-1L-8.5,-1C-8.776,-1 -9,-0.776 -9,-0.5L-9,3C-9,3.276 -8.776,3.5 -8.5,3.5L-7.723,3.5C-7.544,3.5 -7.38,3.405 -7.291,3.252C-7.017,2.781 -6.534,2.5 -6,2.5C-5.173,2.5 -4.5,3.173 -4.5,4C-4.5,4.827 -5.173,5.5 -6,5.5C-6.534,5.5 -7.017,5.219 -7.291,4.748C-7.38,4.595 -7.544,4.5 -7.723,4.5L-8.5,4.5C-8.776,4.5 -9,4.724 -9,5L-9,8L-11.5,8L-11.5,7.989C-10.877,7.52 -10.5,6.781 -10.5,6C-10.5,4.621 -11.622,3.5 -13,3.5C-14.378,3.5 -15.5,4.621 -15.5,6C-15.5,6.781 -15.123,7.52 -14.5,7.989L-17.5,8C-17.776,8 -18,8.224 -18,8.5L-18,17.5C-18,17.776 -17.776,18 -17.5,18L0.5,18C0.776,18 1,17.776 1,17.5L1,8.5L1,-0.5C1,-0.776 0.776,-1 0.5,-1" />
</g>
</svg>
