<svg xmlns="http://www.w3.org/2000/svg" viewBox="0 0 24 24" style="fill-rule:evenodd;clip-rule:evenodd;stroke-linejoin:round;stroke-miterlimit:1.41421;">
                <g transform="matrix(1,0,0,1,5,7)">
                    <path d="M0,-3C0.827,-3 1.5,-2.327 1.5,-1.499C1.5,-0.672 0.827,0 0,0C-0.827,0 -1.5,-0.672 -1.5,-1.499C-1.5,-2.327 -0.827,-3 0,-3M0,1C1.378,1 2.5,-0.121 2.5,-1.499C2.5,-2.878 1.378,-4 0,-4C-1.378,-4 -2.5,-2.878 -2.5,-1.499C-2.5,-0.121 -1.378,1 0,1" />
                </g>
                <g transform="matrix(1,0,0,1,1,11.971)">
                    <path d="M0,-0.824L0,1.647C0,1.923 0.224,2.147 0.5,2.147C0.776,2.147 1,1.923 1,1.647L1,-0.824C1,-1.456 1.515,-1.971 2.147,-1.971L5.853,-1.971C6.485,-1.971 7,-1.456 7,-0.824L7,1.647C7,1.923 7.224,2.147 7.5,2.147C7.776,2.147 8,1.923 8,1.647L8,-0.824C8,-2.008 7.037,-2.971 5.853,-2.971L2.147,-2.971C0.963,-2.971 0,-2.008 0,-0.824" />
                </g>
                <g transform="matrix(1,0,0,1,19,7)">
                    <path d="M0,-3C0.827,-3 1.5,-2.327 1.5,-1.499C1.5,-0.672 0.827,0 0,0C-0.827,0 -1.5,-0.672 -1.5,-1.499C-1.5,-2.327 -0.827,-3 0,-3M0,1C1.378,1 2.5,-0.121 2.5,-1.499C2.5,-2.878 1.378,-4 0,-4C-1.378,-4 -2.5,-2.878 -2.5,-1.499C-2.5,-0.121 -1.378,1 0,1" />
                </g>
                <g transform="matrix(1,0,0,1,23,11.971)">
                    <path d="M0,-0.824C0,-2.008 -0.963,-2.971 -2.147,-2.971L-5.853,-2.971C-7.037,-2.971 -8,-2.008 -8,-0.824L-8,1.647C-8,1.923 -7.776,2.147 -7.5,2.147C-7.224,2.147 -7,1.923 -7,1.647L-7,-0.824C-7,-1.456 -6.485,-1.971 -5.853,-1.971L-2.147,-1.971C-1.515,-1.971 -1,-1.456 -1,-0.824L-1,1.647C-1,1.923 -0.776,2.147 -0.5,2.147C-0.224,2.147 0,1.923 0,1.647L0,-0.824Z" />
                </g>
                <g transform="matrix(1,0,0,1,12,-0.012)">
                    <path d="M0,6.012C0.276,6.012 0.5,5.788 0.5,5.512L0.5,1.719L1.646,2.866C1.744,2.963 1.872,3.012 2,3.012C2.128,3.012 2.256,2.963 2.354,2.866C2.549,2.67 2.549,2.354 2.354,2.158L0.354,0.159C0.308,0.113 0.252,0.076 0.191,0.051C0.069,0 -0.069,0 -0.191,0.051C-0.252,0.076 -0.308,0.113 -0.354,0.159L-2.354,2.158C-2.549,2.354 -2.549,2.67 -2.354,2.866C-2.158,3.061 -1.842,3.061 -1.646,2.866L-0.5,1.719L-0.5,5.512C-0.5,5.788 -0.276,6.012 0,6.012" />
                </g>
                <g transform="matrix(1,0,0,1,12,17)">
                    <path d="M0,-3C0.827,-3 1.5,-2.327 1.5,-1.499C1.5,-0.672 0.827,0 0,0C-0.827,0 -1.5,-0.672 -1.5,-1.499C-1.5,-2.327 -0.827,-3 0,-3M0,1C1.378,1 2.5,-0.121 2.5,-1.499C2.5,-2.878 1.378,-4 0,-4C-1.378,-4 -2.5,-2.878 -2.5,-1.499C-2.5,-0.121 -1.378,1 0,1" />
                </g>
                <g transform="matrix(1,0,0,1,8,21.853)">
                    <path d="M0,-0.706L0,1.647C0,1.923 0.224,2.147 0.5,2.147C0.776,2.147 1,1.923 1,1.647L1,-0.706C1,-1.338 1.515,-1.853 2.147,-1.853L5.853,-1.853C6.485,-1.853 7,-1.338 7,-0.706L7,1.647C7,1.923 7.224,2.147 7.5,2.147C7.776,2.147 8,1.923 8,1.647L8,-0.706C8,-1.89 7.037,-2.853 5.853,-2.853L2.147,-2.853C0.963,-2.853 0,-1.89 0,-0.706" />
                </g>
                <g transform="matrix(1,0,0,1,23,19.451)">
                    <path d="M0,-1.951C0,-2.227 -0.224,-2.451 -0.5,-2.451C-0.776,-2.451 -1,-2.227 -1,-1.951L-1,-0.158L-4.146,-3.305C-4.342,-3.5 -4.658,-3.5 -4.854,-3.305C-5.049,-3.109 -5.049,-2.793 -4.854,-2.597L-1.707,0.549L-3.5,0.549C-3.776,0.549 -4,0.773 -4,1.049C-4,1.325 -3.776,1.549 -3.5,1.549L-0.5,1.549C-0.435,1.549 -0.37,1.536 -0.309,1.51C-0.187,1.46 -0.089,1.362 -0.039,1.24C-0.013,1.179 0,1.114 0,1.049L0,-1.951Z" />
                </g>
                <g transform="matrix(1,0,0,1,1,16.451)">
                    <path d="M0,4.049C0,4.114 0.013,4.179 0.039,4.24C0.089,4.362 0.187,4.46 0.309,4.51C0.37,4.536 0.435,4.549 0.5,4.549L3.5,4.549C3.776,4.549 4,4.325 4,4.049C4,3.773 3.776,3.549 3.5,3.549L1.707,3.549L4.854,0.403C5.049,0.207 5.049,-0.109 4.854,-0.305C4.658,-0.5 4.342,-0.5 4.146,-0.305L1,2.842L1,1.049C1,0.773 0.776,0.549 0.5,0.549C0.224,0.549 0,0.773 0,1.049L0,4.049Z" />
                </g>
</svg>
