<svg xmlns="http://www.w3.org/2000/svg" viewBox="0 0 24 24" style="fill-rule:evenodd;clip-rule:evenodd;stroke-linejoin:round;stroke-miterlimit:1.41421;">
                    <g transform="matrix(1,0,0,1,17.4399,-0.046)">
                        <path d="M0,1.899C0.12,1.65 0.016,1.351 -0.233,1.232C-3.526,-0.356 -7.451,-0.34 -10.73,1.272C-10.978,1.394 -11.08,1.694 -10.958,1.941C-10.871,2.118 -10.693,2.221 -10.509,2.221C-10.435,2.221 -10.359,2.204 -10.289,2.17C-7.285,0.691 -3.685,0.677 -0.667,2.132C-0.416,2.255 -0.119,2.148 0,1.899" />
                    </g>
                    <g transform="matrix(1,0,0,1,3.5908,23.7234)">
                        <path d="M0,-3.863C-0.193,-3.666 -0.19,-3.349 0.007,-3.156C2.264,-0.943 5.248,0.277 8.409,0.277C11.615,0.277 14.628,-0.971 16.895,-3.238C17.09,-3.433 17.09,-3.75 16.895,-3.945C16.699,-4.14 16.383,-4.14 16.187,-3.945C14.11,-1.867 11.348,-0.723 8.409,-0.723C5.511,-0.723 2.776,-1.841 0.707,-3.87C0.51,-4.064 0.193,-4.061 0,-3.863" />
                    </g>
                    <g transform="matrix(1,0,0,1,1,16.147)">
                        <path d="M0,-2.294C0,-3.316 0.831,-4.147 1.853,-4.147L7.147,-4.147C8.169,-4.147 9,-3.316 9,-2.294L9,2.353C9,2.629 9.224,2.853 9.5,2.853C9.776,2.853 10,2.629 10,2.353L10,-2.294C10,-3.867 8.72,-5.147 7.147,-5.147L1.853,-5.147C0.28,-5.147 -1,-3.867 -1,-2.294L-1,2.353C-1,2.629 -0.776,2.853 -0.5,2.853C-0.224,2.853 0,2.629 0,2.353L0,-2.294Z" />
                    </g>
                    <g transform="matrix(1,0,0,1,8,6.5)">
                        <path d="M0,0C0,1.378 -1.122,2.5 -2.5,2.5C-3.878,2.5 -5,1.378 -5,0C-5,-1.378 -3.878,-2.5 -2.5,-2.5C-1.122,-2.5 0,-1.378 0,0M-6,0C-6,1.93 -4.43,3.5 -2.5,3.5C-0.57,3.5 1,1.93 1,0C1,-1.93 -0.57,-3.5 -2.5,-3.5C-4.43,-3.5 -6,-1.93 -6,0" />
                    </g>
                    <g transform="matrix(1,0,0,1,18.5,9)">
                        <path d="M0,-5C1.378,-5 2.5,-3.878 2.5,-2.5C2.5,-1.122 1.378,0 0,0C-1.378,0 -2.5,-1.122 -2.5,-2.5C-2.5,-3.878 -1.378,-5 0,-5M0,1C1.93,1 3.5,-0.57 3.5,-2.5C3.5,-4.43 1.93,-6 0,-6C-1.93,-6 -3.5,-4.43 -3.5,-2.5C-3.5,-0.57 -1.93,1 0,1" />
                    </g>
                    <g transform="matrix(1,0,0,1,21.147,19)">
                        <path d="M0,-8L-5.294,-8C-6.867,-8 -8.147,-6.72 -8.147,-5.147L-8.147,-0.5C-8.147,-0.224 -7.923,0 -7.647,0C-7.371,0 -7.147,-0.224 -7.147,-0.5L-7.147,-5.147C-7.147,-6.169 -6.316,-7 -5.294,-7L0,-7C1.022,-7 1.853,-6.169 1.853,-5.147L1.853,-0.5C1.853,-0.224 2.077,0 2.353,0C2.629,0 2.853,-0.224 2.853,-0.5L2.853,-5.147C2.853,-6.72 1.573,-8 0,-8" />
                    </g>
</svg>
