<svg xmlns="http://www.w3.org/2000/svg" viewBox="0 0 24 24" style="fill-rule:evenodd;clip-rule:evenodd;stroke-linejoin:round;stroke-miterlimit:1.41421;"><path d="M20.05,4.443l-0.493,-0.493l0.493,-0.493l0.493,0.493l-0.493,0.493Zm-11.4,12.6l-0.847,-0.847l-0.846,-0.847l11.293,-11.293l0.246,0.247l1.2,1.201c0,0 0.001,0.001 0.002,0.001l0.245,0.245l-11.293,11.293Zm-4.113,2.42l1.828,-3.291l1.462,1.462l-3.29,1.829Zm17.066,-15.867l-1.2,-1.2c-0.187,-0.187 -0.52,-0.187 -0.707,0l-0.846,0.847l-0.247,-0.247c-0.187,-0.188 -0.519,-0.188 -0.707,0l-12,12c-0.02,0.02 -0.03,0.046 -0.046,0.069c-0.01,0.015 -0.028,0.024 -0.037,0.041l-3,5.4c-0.109,0.196 -0.075,0.439 0.083,0.597c0.096,0.097 0.224,0.147 0.354,0.147c0.083,0 0.166,-0.021 0.242,-0.063l5.4,-3c0.017,-0.009 0.026,-0.026 0.041,-0.037c0.023,-0.017 0.05,-0.026 0.07,-0.047l10.372,-10.372l0.474,0.699l-4.345,4.159c-0.2,0.191 -0.206,0.507 -0.016,0.707c0.099,0.102 0.23,0.154 0.362,0.154c0.124,0 0.249,-0.046 0.346,-0.139l4.649,-4.45c0.177,-0.169 0.205,-0.439 0.069,-0.642l-0.819,-1.208l0.908,-0.908c0.195,-0.195 0.195,-0.512 0,-0.707l-0.246,-0.246l0.846,-0.847c0.196,-0.195 0.196,-0.511 0,-0.707" /></svg>