<svg xmlns="http://www.w3.org/2000/svg" viewBox="0 0 24 24" style="fill-rule:evenodd;clip-rule:evenodd;stroke-linejoin:round;stroke-miterlimit:1.41421;"><path d="M6.841,7l4.659,0l0,3l-8,0c-0.275,0 -0.5,-0.224 -0.5,-0.5l0,-2c0,-0.276 0.225,-0.5 0.5,-0.5l3.341,0Zm2.159,-5c1.379,0 2.5,1.122 2.5,2.5l0,1.5l-4.442,0c-0.385,-0.423 -0.558,-0.87 -0.558,-1.5c0,-1.378 1.121,-2.5 2.5,-2.5m2.5,20l-7,0c-0.275,0 -0.5,-0.224 -0.5,-0.5l0,-10.5l7.5,0l0,11Zm1,-11l7.5,0l0,10.5c0,0.276 -0.224,0.5 -0.5,0.5l-7,0l0,-11Zm0,-4l8,0c0.276,0 0.5,0.224 0.5,0.5l0,2c0,0.276 -0.224,0.5 -0.5,0.5l-8,0l0,-3Zm0.001,-2.5c0,-1.378 1.121,-2.5 2.5,-2.5c1.379,0 2.5,1.122 2.5,2.5c0,0.621 -0.178,1.078 -0.558,1.5l-4.442,0l0,-1.5Zm-10.501,3l0,2c0,0.651 0.419,1.201 1,1.408l0,10.592c0,0.827 0.673,1.5 1.5,1.5l15,0c0.827,0 1.5,-0.673 1.5,-1.5l0,-10.592c0.581,-0.207 1,-0.757 1,-1.408l0,-2c0,-0.827 -0.673,-1.5 -1.5,-1.5l-2.352,0c0.228,-0.443 0.353,-0.932 0.353,-1.5c0,-1.93 -1.57,-3.5 -3.5,-3.5c-1.28,0 -2.39,0.698 -3.001,1.727c-0.609,-1.029 -1.72,-1.727 -3,-1.727c-1.93,0 -3.5,1.57 -3.5,3.5c0,0.568 0.124,1.057 0.354,1.5l-2.354,0c-0.827,0 -1.5,0.673 -1.5,1.5" /></svg>