<svg xmlns="http://www.w3.org/2000/svg" viewBox="0 0 24 24" style="fill-rule:evenodd;clip-rule:evenodd;stroke-linejoin:round;stroke-miterlimit:1.41421;">
    <path id="Icons" d="M2.466,12.705C3.092,12.077 4.217,12.117 4.822,12.836L4.983,13.025C5.078,13.138 5.217,13.202 5.364,13.202L6.5,13.202C6.633,13.202 6.76,13.149 6.854,13.056C6.947,12.962 7,12.835 7,12.702C7,12.702 6.999,8.478 7,7.001L12.743,7.001C13.02,7.001 13.243,6.777 13.243,6.501L13.243,5.368C13.243,5.217 13.174,5.073 13.056,4.977L12.854,4.816C12.483,4.52 12.27,4.072 12.27,3.587C12.27,2.712 12.978,2 13.849,2C14.727,2 15.442,2.712 15.442,3.587C15.442,4.053 15.223,4.513 14.858,4.818L14.666,4.978C14.552,5.073 14.486,5.214 14.486,5.362L14.486,6.501C14.486,6.777 14.71,7.001 14.986,7.001L20.974,7.001C20.983,8.002 20.993,10.375 20.999,12.236L20.742,12.236C20.249,11.637 19.507,11.273 18.749,11.273C18.067,11.273 17.425,11.54 16.944,12.022C16.462,12.506 16.196,13.146 16.196,13.828C16.196,15.234 17.341,16.379 18.749,16.379C19.556,16.379 20.264,16.038 20.75,15.41L21,15.41L21,21.001L15.452,21.001L15.452,20.731C16.042,20.24 16.4,19.501 16.4,18.745C16.4,17.337 15.255,16.191 13.847,16.191C12.441,16.191 11.297,17.337 11.297,18.745C11.297,19.557 11.644,20.27 12.278,20.754L12.278,20.963C10.403,20.977 8.012,20.995 7,21L7,14.944C7,14.668 6.777,14.444 6.5,14.444L5.367,14.444C5.214,14.444 5.07,14.515 4.975,14.634L4.814,14.837C4.524,15.203 4.077,15.413 3.588,15.413C2.712,15.413 2,14.702 2,13.828C2,13.404 2.166,13.006 2.466,12.705M0.991,13.875C1,15.254 2.161,16.413 3.588,16.413C4.384,16.413 5.117,16.065 5.598,15.458L6,15.444L6,21.47C6,21.729 6.08,21.99 6.42,21.995C7.143,22.005 11.749,22.007 12.742,21.999C12.912,21.999 13.107,21.891 13.198,21.749C13.251,21.668 13.278,21.574 13.278,21.478L13.278,20.499C13.278,20.422 13.26,20.345 13.225,20.275C13.183,20.19 13.1,20.102 13.019,20.054C12.553,19.772 12.297,19.308 12.297,18.745C12.297,17.889 12.992,17.191 13.847,17.191C14.703,17.191 15.4,17.889 15.4,18.745C15.4,19.261 15.123,19.767 14.677,20.063C14.585,20.125 14.515,20.216 14.48,20.321C14.463,20.372 14.452,20.442 14.452,20.496L14.452,21.441C14.452,21.501 14.466,21.62 14.487,21.677C14.56,21.872 14.746,22.001 14.955,22.001L21.465,22.001C21.781,22.001 22,21.736 22,21.438L22,14.931C22,14.844 21.977,14.758 21.934,14.683C21.845,14.526 21.644,14.41 21.465,14.41L20.5,14.41C20.324,14.41 20.148,14.511 20.057,14.661C19.781,15.117 19.305,15.379 18.749,15.379C17.893,15.379 17.196,14.684 17.196,13.828C17.196,13.413 17.358,13.023 17.652,12.729C18.308,12.072 19.537,12.206 20.057,12.985C20.147,13.137 20.324,13.236 20.5,13.236L21.465,13.236C21.634,13.236 21.829,13.13 21.921,12.987C21.973,12.906 22.001,12.811 22,12.715C21.989,9.198 21.999,6.842 21.999,6.575C21.999,6.307 21.818,6.013 21.455,6.003C21.424,5.996 15.486,6.001 15.486,6.001L15.486,5.597L15.499,5.586C16.089,5.093 16.442,4.345 16.442,3.587C16.442,2.16 15.279,1 13.849,1C12.427,1 11.27,2.16 11.27,3.587C11.27,4.378 11.62,5.111 12.23,5.598L12.243,6.001C12.243,6.001 6.523,5.996 6.499,5.994C6.195,5.994 5.996,6.287 5.998,6.582C6.002,7.09 6,12.202 6,12.202L5.596,12.202L5.587,12.19C5.085,11.595 4.337,11.239 3.587,11.239C2.898,11.239 2.249,11.509 1.758,11.998C1.27,12.488 0.987,13.105 0.991,13.875Z" />
</svg>
