<svg xmlns="http://www.w3.org/2000/svg" viewBox="0 0 24 24" style="fill-rule:evenodd;clip-rule:evenodd;stroke-linejoin:round;stroke-miterlimit:1.41421;"><path d="M11.421,2.809c4.687,0 8.5,3.813 8.5,8.5c0,4.687 -3.813,8.5 -8.5,8.5c-4.687,0 -8.5,-3.813 -8.5,-8.5c0,-4.687 3.813,-8.5 8.5,-8.5m0,18c2.431,0 4.645,-0.926 6.326,-2.433l4.479,4.478c0.097,0.098 0.225,0.146 0.353,0.146c0.128,0 0.256,-0.048 0.354,-0.146c0.195,-0.195 0.195,-0.512 0,-0.707l-4.477,-4.476c1.527,-1.687 2.465,-3.914 2.465,-6.362c0,-5.238 -4.262,-9.5 -9.5,-9.5c-5.238,0 -9.5,4.262 -9.5,9.5c0,5.238 4.262,9.5 9.5,9.5" /></svg>