<svg xmlns="http://www.w3.org/2000/svg" viewBox="0 0 24 24" style="fill-rule:evenodd;clip-rule:evenodd;stroke-linejoin:round;stroke-miterlimit:1.41421;">
<g transform="matrix(1,0,0,1,6,9)"><path d="M0,6C-1.654,6 -3,4.654 -3,3C-3,1.346 -1.654,0 0,0C1.654,0 3,1.346 3,3C3,4.654 1.654,6 0,6M12,-8C13.654,-8 15,-6.654 15,-5C15,-3.346 13.654,-2 12,-2C10.346,-2 9,-3.346 9,-5C9,-6.654 10.346,-8 12,-8M12,8C13.654,8 15,9.346 15,11C15,12.654 13.654,14 12,14C10.346,14 9,12.654 9,11C9,9.346 10.346,8 12,8M0,-1C-2.206,-1 -4,0.794 -4,3C-4,5.206 -2.206,7 0,7C1.206,7 2.275,6.453 3.009,5.606L8.435,9.224C8.166,9.761 8,10.359 8,11C8,13.206 9.794,15 12,15C14.206,15 16,13.206 16,11C16,8.794 14.206,7 12,7C10.795,7 9.726,7.547 8.991,8.393L3.565,4.776C3.834,4.238 4,3.641 4,3C4,2.359 3.834,1.762 3.565,1.224L8.991,-2.393C9.725,-1.547 10.795,-1 12,-1C14.206,-1 16,-2.794 16,-5C16,-7.206 14.206,-9 12,-9C9.794,-9 8,-7.206 8,-5C8,-4.359 8.166,-3.762 8.435,-3.224L3.009,0.393C2.275,-0.453 1.205,-1 0,-1" /></g>
</svg>
