<svg xmlns="http://www.w3.org/2000/svg" viewBox="0 0 24 24" style="fill-rule:evenodd;clip-rule:evenodd;stroke-linejoin:round;stroke-miterlimit:1.41421;"><path d="M22.24,15.807l-1.198,0.041c-0.174,0.006 -0.332,0.103 -0.418,0.254c-0.557,0.985 -1.279,1.684 -2.271,2.196c-0.224,0.116 -0.327,0.38 -0.24,0.616l0.607,1.659c0.058,0.198 0.051,0.368 -0.007,0.505c-0.078,0.156 -0.202,0.27 -0.348,0.333l-1.283,0.483c-0.199,0.056 -0.369,0.051 -0.506,-0.007c-0.156,-0.078 -0.271,-0.202 -0.332,-0.342l-0.536,-1.486c-0.087,-0.238 -0.339,-0.381 -0.585,-0.316c-0.878,0.207 -2.978,0.474 -4.64,0.01c-0.25,-0.071 -0.511,0.062 -0.602,0.305l-0.56,1.478c-0.144,0.382 -0.394,0.505 -0.765,0.368c-0.433,-0.159 -0.626,-0.232 -0.935,-0.348l-0.381,-0.145c-0.429,-0.162 -0.567,-0.247 -0.367,-0.809c0.323,-0.902 0.659,-1.809 0.659,-1.81c0.077,-0.207 0.008,-0.441 -0.169,-0.574c-1.708,-1.28 -2.649,-3.001 -2.649,-4.82c0,-0.009 0.041,-0.866 0.228,-1.491c0.558,-1.898 2.114,-3.477 4.284,-4.358c0.153,0.066 0.31,0.119 0.471,0.161c0.017,0.004 0.035,0.007 0.052,0.011c0.148,0.037 0.297,0.064 0.449,0.08c0.007,0.001 0.015,0.001 0.022,0.001c0.113,0.012 0.225,0.025 0.338,0.025c0.043,0 0.083,-0.011 0.126,-0.013c0.048,-0.002 0.096,-0.011 0.144,-0.015c0.287,-0.023 0.562,-0.08 0.825,-0.17c0.013,-0.005 0.026,-0.008 0.039,-0.011c0.142,-0.051 0.277,-0.112 0.41,-0.181c0.031,-0.016 0.06,-0.032 0.09,-0.048c0.13,-0.072 0.256,-0.148 0.374,-0.236c0.007,-0.004 0.012,-0.01 0.018,-0.014c0.134,-0.101 0.266,-0.203 0.384,-0.322c1.143,0 2.812,0.132 3.626,0.353c0.168,0.045 0.347,0.001 0.474,-0.119c0.854,-0.805 1.491,-1.175 1.922,-1.098c0.214,0.267 0.046,1.082 -0.037,1.486c-0.102,0.497 -0.17,0.825 0.088,1.047l0.397,0.384c1.002,0.938 1.297,1.875 1.492,2.497c0.036,0.113 0.068,0.214 0.099,0.301c0.069,0.195 0.251,0.326 0.457,0.332l0.674,0.019c0.369,-0.016 0.794,0.348 0.794,0.706l0.046,2.468c0,0.293 -0.389,0.614 -0.76,0.614m-14.074,-11.371c0,-1.319 1.074,-2.393 2.392,-2.393c1.319,0 2.391,1.074 2.391,2.393c0,0.6 -0.23,1.144 -0.598,1.564c-0.001,0.001 -0.002,0.002 -0.003,0.003c-0.495,0.563 -1.218,0.843 -1.939,0.802c-0.132,-0.008 -0.263,-0.025 -0.391,-0.056c-0.061,-0.013 -0.123,-0.023 -0.184,-0.042c-0.197,-0.062 -0.387,-0.143 -0.563,-0.255c-0.439,-0.281 -0.779,-0.704 -0.958,-1.19c-0.097,-0.265 -0.147,-0.543 -0.147,-0.826m-5.935,7.386c-0.215,-1.05 -0.008,-1.292 0.087,-1.318c0.13,0.115 0.132,0.732 -0.087,1.318m19.95,-0.803l-0.315,-0.009c-0.215,-0.682 -0.584,-1.783 -1.738,-2.864l-0.25,-0.241c0.013,-0.075 0.034,-0.164 0.054,-0.265c0.153,-0.739 0.408,-1.978 -0.421,-2.555c-0.042,-0.029 -0.089,-0.052 -0.138,-0.067c-0.991,-0.308 -1.992,0.397 -2.791,1.121c-0.84,-0.183 -2.039,-0.275 -2.941,-0.309c0.194,-0.425 0.308,-0.896 0.308,-1.394c0,-1.871 -1.521,-3.393 -3.391,-3.393c-1.87,0 -3.392,1.522 -3.392,3.393c0,0.402 0.071,0.796 0.209,1.172c0.181,0.492 0.482,0.933 0.863,1.293c-2.134,1.035 -3.666,2.719 -4.255,4.721c-0.059,0.198 -0.105,0.41 -0.141,0.615c-0.225,0.067 -0.485,0.112 -0.739,0.096c0.27,-0.626 0.37,-1.338 0.258,-1.873c-0.115,-0.546 -0.451,-0.89 -0.922,-0.945c-0.377,-0.043 -0.712,0.074 -0.946,0.33c-0.379,0.417 -0.458,1.134 -0.238,2.193c0.053,0.255 0.164,0.481 0.327,0.67c-0.217,0.11 -0.438,0.048 -0.708,-0.187c-0.208,-0.179 -0.523,-0.16 -0.706,0.048c-0.181,0.209 -0.159,0.524 0.049,0.706c0.424,0.37 0.819,0.489 1.15,0.489c0.317,0 0.576,-0.108 0.748,-0.21c0.14,-0.082 0.269,-0.185 0.388,-0.305c0.399,0.105 0.827,0.1 1.216,0.039c-0.003,0.044 -0.004,0.079 -0.005,0.087c0,2.054 0.975,3.963 2.754,5.412c-0.128,0.348 -0.335,0.915 -0.537,1.479c-0.539,1.515 0.585,1.941 0.956,2.081l0.381,0.144c0.312,0.118 0.507,0.192 0.944,0.352c0.21,0.077 0.416,0.114 0.613,0.114c0.634,0 1.173,-0.384 1.432,-1.067l0.403,-1.065c1.52,0.317 3.209,0.173 4.255,-0.019l0.399,1.105c0.165,0.385 0.446,0.686 0.843,0.883c0.376,0.161 0.781,0.18 1.238,0.048l1.341,-0.503c0.386,-0.164 0.687,-0.445 0.883,-0.84c0.162,-0.377 0.183,-0.781 0.052,-1.236l-0.473,-1.291c0.899,-0.536 1.594,-1.226 2.153,-2.134l0.906,-0.031c0.912,0 1.743,-0.77 1.743,-1.623l-0.046,-2.468c0,-0.886 -0.843,-1.693 -1.773,-1.697" /><path d="M13.89,8.123c-0.091,-0.035 -0.947,-0.329 -2.688,-0.075c-2.131,0.309 -2.698,1.047 -2.79,1.191c-0.148,0.234 -0.087,0.553 0.146,0.701c0.086,0.055 0.182,0.081 0.275,0.081c0.161,0 0.315,-0.077 0.409,-0.224c0.003,-0.005 0.424,-0.516 2.104,-0.759c1.482,-0.219 2.192,0.02 2.193,0.021c0.258,0.1 0.547,-0.035 0.644,-0.292c0.097,-0.259 -0.034,-0.547 -0.293,-0.644" /><path d="M18.5,12c-0.276,0 -0.5,-0.225 -0.5,-0.5c0,-0.275 0.224,-0.5 0.5,-0.5c0.276,0 0.5,0.225 0.5,0.5c0,0.275 -0.224,0.5 -0.5,0.5m0,-2c-0.827,0 -1.5,0.673 -1.5,1.5c0,0.827 0.673,1.5 1.5,1.5c0.827,0 1.5,-0.673 1.5,-1.5c0,-0.827 -0.673,-1.5 -1.5,-1.5" /></svg>