<svg xmlns="http://www.w3.org/2000/svg" viewBox="0 0 24 24" style="fill-rule:evenodd;clip-rule:evenodd;stroke-linejoin:round;stroke-miterlimit:1.41421;">
<g transform="matrix(1,0,0,1,1.5,21)"><path d="M0,-18C-0.276,-18 -0.5,-17.776 -0.5,-17.5L-0.5,-0.5C-0.5,-0.224 -0.276,0 0,0L21,0C21.276,0 21.5,-0.224 21.5,-0.5C21.5,-0.776 21.276,-1 21,-1L0.5,-1L0.5,-17.5C0.5,-17.776 0.276,-18 0,-18" /></g>
<g transform="matrix(1,0,0,1,17,7.439)"><path d="M0,9.061C0,9.337 0.224,9.561 0.5,9.561L3.5,9.561C3.565,9.561 3.63,9.548 3.691,9.522C3.813,9.472 3.911,9.374 3.961,9.252C3.987,9.191 4,9.126 4,9.061L4,6.061C4,5.785 3.776,5.561 3.5,5.561C3.224,5.561 3,5.785 3,6.061L3,7.854L-3.146,1.707C-3.342,1.512 -3.658,1.512 -3.854,1.707L-6.531,4.385L-12.18,-0.323C-12.393,-0.5 -12.708,-0.471 -12.884,-0.259C-13.061,-0.047 -13.032,0.269 -12.82,0.445L-6.82,5.445C-6.622,5.61 -6.329,5.597 -6.146,5.415L-3.5,2.768L2.293,8.561L0.5,8.561C0.224,8.561 0,8.785 0,9.061" /></g>
</svg>
