<svg xmlns="http://www.w3.org/2000/svg" viewBox="0 0 24 24" style="fill-rule:evenodd;clip-rule:evenodd;stroke-linejoin:round;stroke-miterlimit:1.41421;">
<g transform="matrix(1,0,0,1,20,12.5476)">
<path d="M0,-1.095C0,4.338 -6.56,9.317 -7.998,10.343C-9.438,9.317 -16,4.338 -16,-1.095L-16,-7.561C-12.067,-7.767 -9.024,-10.349 -7.998,-11.336C-6.973,-10.349 -3.934,-7.767 0,-7.561L0,-1.095ZM1,-8.048C1,-8.324 0.776,-8.548 0.5,-8.548C-4.072,-8.548 -7.594,-12.346 -7.629,-12.385C-7.724,-12.488 -7.857,-12.547 -7.998,-12.547C-8.139,-12.547 -8.272,-12.488 -8.367,-12.385C-8.402,-12.346 -11.929,-8.548 -16.5,-8.548C-16.776,-8.548 -17,-8.324 -17,-8.048L-17,-1.095C-17,5.514 -8.631,11.134 -8.274,11.369C-8.19,11.425 -8.095,11.452 -7.998,11.452C-7.901,11.452 -7.806,11.425 -7.722,11.369C-7.366,11.133 1,5.514 1,-1.095L1,-8.048Z" /></g></svg>
