<svg xmlns="http://www.w3.org/2000/svg" viewBox="0 0 24 24" style="fill-rule:evenodd;clip-rule:evenodd;stroke-linejoin:round;stroke-miterlimit:1.41421;">
<g transform="matrix(1,0,0,1,18,9.949)">
<path d="M0,4.051L-13.21,4.051L-16.639,-1.949L0,-1.949L0,4.051ZM-1,10.051C-1.552,10.051 -2,9.603 -2,9.051C-2,8.499 -1.552,8.051 -1,8.051C-0.448,8.051 0,8.499 0,9.051C0,9.603 -0.448,10.051 -1,10.051M-11,10.051C-11.552,10.051 -12,9.603 -12,9.051C-12,8.499 -11.552,8.051 -11,8.051C-10.448,8.051 -10,8.499 -10,9.051C-10,9.603 -10.448,10.051 -11,10.051M4.379,-6.934L0.379,-5.934C0.156,-5.879 0,-5.678 0,-5.449L0,-2.949L-17.5,-2.949C-17.679,-2.949 -17.843,-2.854 -17.933,-2.7C-18.021,-2.546 -18.022,-2.355 -17.935,-2.201L-13.935,4.799C-13.845,4.955 -13.68,5.051 -13.5,5.051L-1,5.051L-1,7.051L-10.5,7.051C-10.56,7.051 -10.614,7.066 -10.667,7.084C-10.775,7.067 -10.886,7.051 -11,7.051C-12.103,7.051 -13,7.948 -13,9.051C-13,10.154 -12.103,11.051 -11,11.051C-9.897,11.051 -9,10.154 -9,9.051C-9,8.685 -9.105,8.346 -9.278,8.051L-2.722,8.051C-2.895,8.346 -3,8.685 -3,9.051C-3,10.154 -2.103,11.051 -1,11.051C0.103,11.051 1,10.154 1,9.051C1,8.315 0.595,7.676 0,7.329L0,5.051L0.5,5.051C0.776,5.051 1,4.827 1,4.551L1,-1.449L1,-2.449L1,-5.058L4.621,-5.964C4.89,-6.031 5.052,-6.303 4.985,-6.57C4.918,-6.839 4.642,-7 4.379,-6.934" /></g>
</svg>
