<svg xmlns="http://www.w3.org/2000/svg" viewBox="0 0 24 24" style="fill-rule:evenodd;clip-rule:evenodd;stroke-linejoin:round;stroke-miterlimit:1.41421;">
<g transform="matrix(1,0,0,1,1.5,3)"><path d="M0,18L21,18C21.276,18 21.5,17.776 21.5,17.5C21.5,17.224 21.276,17 21,17L0.5,17L0.5,0.5C0.5,0.224 0.276,0 0,0C-0.276,0 -0.5,0.224 -0.5,0.5L-0.5,17.5C-0.5,17.776 -0.276,18 0,18" /></g>
<g transform="matrix(1,0,0,1,20.5,13)"><path d="M0,-2C0.276,-2 0.5,-2.224 0.5,-2.5L0.5,-5.5C0.5,-5.565 0.487,-5.63 0.461,-5.691C0.411,-5.813 0.313,-5.911 0.191,-5.961C0.13,-5.987 0.065,-6 0,-6L-3,-6C-3.276,-6 -3.5,-5.776 -3.5,-5.5C-3.5,-5.224 -3.276,-5 -3,-5L-1.207,-5L-7,0.793L-9.646,-1.854C-9.829,-2.036 -10.121,-2.049 -10.32,-1.884L-16.32,3.116C-16.532,3.292 -16.561,3.608 -16.384,3.82C-16.285,3.939 -16.143,4 -16,4C-15.887,4 -15.773,3.962 -15.68,3.884L-10.031,-0.824L-7.354,1.854C-7.158,2.049 -6.842,2.049 -6.646,1.854L-0.5,-4.293L-0.5,-2.5C-0.5,-2.224 -0.276,-2 0,-2" /></g>
</svg>
