<svg xmlns="http://www.w3.org/2000/svg" viewBox="0 0 24 24" style="fill-rule:evenodd;clip-rule:evenodd;stroke-linejoin:round;stroke-miterlimit:1.41421;"><path d="M3.138,9.601l-1.615,0c0.602,-0.574 1.395,-0.899 2.248,-0.899c1.214,0 2.288,1.104 2.839,2.05c0.09,0.153 0.255,0.248 0.432,0.248l9.915,0c0.178,0 0.343,-0.095 0.432,-0.248c0.552,-0.946 1.626,-2.05 2.84,-2.05c0.853,0 1.646,0.325 2.247,0.899l-1.614,0c-1.01,0 -1.862,0.809 -1.862,1.766l0,1.266c0,0.957 0.852,1.766 1.862,1.766l1.614,0c-0.601,0.574 -1.394,0.899 -2.247,0.899c-1.214,0 -2.288,-1.104 -2.84,-2.05c-0.089,-0.153 -0.254,-0.248 -0.432,-0.248l-9.915,0c-0.177,0 -0.342,0.095 -0.432,0.248c-0.551,0.946 -1.625,2.05 -2.839,2.05c-0.853,0 -1.646,-0.325 -2.248,-0.899l1.615,0c1.009,0 1.862,-0.809 1.862,-1.766l0,-1.266c0,-0.957 -0.853,-1.766 -1.862,-1.766m0,3.798l-2.638,0c-0.179,0 -0.344,0.096 -0.434,0.251c-0.089,0.155 -0.088,0.346 0.002,0.501c0.772,1.324 2.191,2.147 3.703,2.147c1.526,0 2.804,-1.145 3.551,-2.298l9.356,0c0.747,1.153 2.024,2.298 3.551,2.298c1.512,0 2.93,-0.823 3.703,-2.147c0.09,-0.155 0.091,-0.346 0.001,-0.501c-0.089,-0.155 -0.254,-0.251 -0.433,-0.251l-2.638,0c-0.452,0 -0.862,-0.365 -0.862,-0.766l0,-1.266c0,-0.401 0.41,-0.766 0.862,-0.766l2.638,0c0.179,0 0.344,-0.096 0.433,-0.251c0.09,-0.155 0.089,-0.346 -0.001,-0.501c-0.773,-1.324 -2.191,-2.147 -3.703,-2.147c-1.527,0 -2.804,1.145 -3.551,2.298l-9.356,0c-0.747,-1.153 -2.025,-2.298 -3.551,-2.298c-1.512,0 -2.931,0.823 -3.703,2.147c-0.09,0.155 -0.091,0.346 -0.002,0.501c0.09,0.155 0.255,0.251 0.434,0.251l2.638,0c0.451,0 0.862,0.365 0.862,0.766l0,1.266c0,0.401 -0.411,0.766 -0.862,0.766" /></svg>