<svg xmlns="http://www.w3.org/2000/svg" viewBox="0 0 24 24" style="fill-rule:evenodd;clip-rule:evenodd;stroke-linejoin:round;stroke-miterlimit:1.41421;">
<g transform="matrix(1,0,0,1,4.0869,15.1971)">
<path d="M0,-6.474L0.607,-7.221C0.963,-7.657 1.164,-8.406 1.074,-8.963L0.922,-9.914C0.893,-10.095 1.027,-10.328 1.199,-10.393L2.099,-10.737C2.625,-10.938 3.174,-11.486 3.373,-12.012L3.716,-12.911C3.781,-13.082 4.011,-13.214 4.196,-13.189L5.147,-13.036C5.701,-12.95 6.451,-13.147 6.889,-13.503L7.636,-14.11C7.779,-14.226 8.049,-14.225 8.19,-14.111L8.938,-13.502C9.374,-13.147 10.122,-12.95 10.679,-13.036L11.63,-13.189C11.821,-13.214 12.045,-13.082 12.11,-12.912L12.452,-12.012C12.652,-11.486 13.201,-10.938 13.728,-10.737L14.628,-10.393C14.799,-10.328 14.934,-10.095 14.905,-9.914L14.751,-8.963C14.662,-8.406 14.863,-7.657 15.219,-7.222L15.826,-6.474C15.942,-6.331 15.942,-6.063 15.826,-5.92L15.219,-5.173C14.863,-4.737 14.662,-3.989 14.752,-3.431L14.904,-2.48C14.934,-2.299 14.799,-2.066 14.627,-2.001L13.728,-1.658C13.201,-1.456 12.652,-0.908 12.453,-0.382L12.11,0.517C12.045,0.688 11.821,0.821 11.63,0.795L10.679,0.642C10.122,0.55 9.374,0.753 8.938,1.109L8.19,1.716C8.048,1.833 7.778,1.832 7.636,1.716L6.889,1.108C6.521,0.81 5.935,0.62 5.427,0.62C5.33,0.62 5.236,0.628 5.147,0.642L4.196,0.795C4.011,0.821 3.781,0.688 3.716,0.518L3.374,-0.382C3.174,-0.908 2.625,-1.456 2.099,-1.658L1.198,-2.001C1.027,-2.066 0.893,-2.299 0.921,-2.48L1.075,-3.432C1.164,-3.989 0.963,-4.737 0.607,-5.173L0,-5.921C-0.116,-6.063 -0.116,-6.331 0,-6.474M8.161,5.869C8.007,5.781 7.819,5.781 7.665,5.869L4.913,7.441L4.913,1.692L5.306,1.629C5.582,1.585 6.042,1.709 6.258,1.884L7.005,2.492C7.26,2.699 7.586,2.802 7.913,2.802C8.24,2.802 8.566,2.699 8.821,2.492L9.568,1.884C9.783,1.709 10.243,1.585 10.521,1.629L10.913,1.692L10.913,7.441L8.161,5.869ZM-0.775,-7.105C-1.19,-6.596 -1.19,-5.798 -0.775,-5.289L-0.168,-4.541C0.007,-4.327 0.131,-3.864 0.088,-3.59L-0.066,-2.639C-0.17,-1.99 0.229,-1.3 0.842,-1.066L1.741,-0.723C2.002,-0.624 2.341,-0.286 2.439,-0.027L2.782,0.874C2.964,1.347 3.417,1.687 3.913,1.772L3.913,8.303C3.913,8.481 4.008,8.646 4.162,8.735C4.315,8.825 4.506,8.826 4.661,8.737L7.913,6.879L11.165,8.737C11.242,8.781 11.327,8.803 11.413,8.803C11.5,8.803 11.587,8.78 11.664,8.735C11.818,8.646 11.913,8.481 11.913,8.303L11.913,1.771C12.409,1.686 12.862,1.348 13.044,0.873L13.388,-0.027C13.485,-0.286 13.824,-0.624 14.085,-0.723L14.983,-1.066C15.597,-1.3 15.996,-1.99 15.892,-2.639L15.739,-3.59C15.695,-3.864 15.819,-4.327 15.994,-4.542L16.602,-5.289C17.017,-5.798 17.017,-6.596 16.602,-7.105L15.994,-7.853C15.819,-8.068 15.695,-8.53 15.738,-8.804L15.893,-9.756C15.996,-10.404 15.597,-11.095 14.984,-11.328L14.085,-11.671C13.824,-11.77 13.485,-12.109 13.387,-12.368L13.044,-13.268C12.81,-13.88 12.122,-14.284 11.472,-14.176L10.521,-14.023C10.244,-13.98 9.783,-14.103 9.568,-14.278L8.821,-14.887C8.312,-15.3 7.515,-15.3 7.005,-14.887L7.005,-14.886L6.258,-14.279C6.042,-14.103 5.581,-13.981 5.306,-14.023L4.354,-14.176C3.702,-14.284 3.018,-13.881 2.782,-13.267L2.438,-12.368C2.341,-12.109 2.002,-11.77 1.741,-11.671L0.843,-11.328C0.229,-11.095 -0.17,-10.404 -0.065,-9.755L0.087,-8.805C0.131,-8.53 0.007,-8.068 -0.168,-7.852L-0.775,-7.105Z" /></g>
<g transform="matrix(1,0,0,1,12,14)">
<path d="M0,-10C2.757,-10 5,-7.757 5,-5C5,-2.243 2.757,0 0,0C-2.757,0 -5,-2.243 -5,-5C-5,-7.757 -2.757,-10 0,-10M0,1C3.309,1 6,-1.691 6,-5C6,-8.309 3.309,-11 0,-11C-3.309,-11 -6,-8.309 -6,-5C-6,-1.691 -3.309,1 0,1" /></g>
</svg>
