<svg xmlns="http://www.w3.org/2000/svg" viewBox="0 0 24 24" style="fill-rule:evenodd;clip-rule:evenodd;stroke-linejoin:round;stroke-miterlimit:1.41421;">
<g transform="matrix(1,0,0,1,20,12.5471)">
<path d="M0,-1.094C0,4.339 -6.56,9.317 -7.998,10.344C-9.438,9.318 -16,4.344 -16,-1.094L-16,-7.56C-12.067,-7.767 -9.024,-10.349 -7.998,-11.336C-6.973,-10.348 -3.933,-7.767 0,-7.56L0,-1.094ZM-7.628,-12.384C-7.723,-12.488 -7.857,-12.547 -7.998,-12.547C-8.139,-12.547 -8.272,-12.488 -8.367,-12.384C-8.402,-12.346 -11.928,-8.547 -16.5,-8.547C-16.776,-8.547 -17,-8.323 -17,-8.047L-17,-1.094C-17,5.515 -8.63,11.134 -8.274,11.37C-8.19,11.426 -8.094,11.453 -7.998,11.453C-7.902,11.453 -7.806,11.426 -7.722,11.37C-7.366,11.134 1,5.515 1,-1.094L1,-8.047C1,-8.323 0.776,-8.547 0.5,-8.547C-4.072,-8.547 -7.593,-12.346 -7.628,-12.384" /></g>
<g transform="matrix(1,0,0,1,12.1816,16.8825)">
<path d="M0.193,-10.532C0.196,-10.435 0.172,-4.884 0.172,-4.884C0.172,-4.609 0.393,-4.384 0.667,-4.381C1.021,-4.395 1.124,-4.573 1.161,-4.885C1.161,-4.885 1.177,-8.802 1.182,-9.669C1.185,-10.144 1.994,-10.151 1.994,-9.635C1.993,-8.775 1.991,-4.685 1.996,-4.601L1.997,-4.588C2.01,-4.39 2.063,-4.258 2.24,-4.152C2.395,-4.06 2.587,-4.057 2.743,-4.147C2.899,-4.236 2.996,-4.417 2.996,-4.596C2.996,-4.596 2.988,-7.402 2.996,-8.007C3.005,-8.627 3.814,-8.635 3.818,-8.007C3.82,-7.749 3.818,-2.988 3.818,-2.988L3.817,-2.338C3.813,-1.809 3.656,-1.314 3.361,-0.906C3.063,-0.494 2.637,-0.187 2.127,-0.018C1.896,0.059 1.623,0.101 1.314,0.108C0.76,0.121 0.201,0.118 -0.343,0.116L-1.037,0.115C-1.631,0.115 -2.147,-0.11 -2.66,-0.592C-3.038,-0.947 -3.349,-1.368 -3.585,-1.843C-3.898,-2.476 -4.222,-3.116 -4.535,-3.737L-5.127,-4.912C-5.164,-4.984 -5.182,-5.053 -5.182,-5.123C-5.182,-5.294 -5.07,-5.426 -4.884,-5.479C-4.851,-5.489 -4.819,-5.493 -4.789,-5.493C-4.664,-5.493 -4.56,-5.423 -4.464,-5.343C-4.214,-5.133 -4.004,-4.844 -3.822,-4.463C-3.715,-4.236 -3.625,-4.004 -3.524,-3.744C-3.434,-3.483 -3.151,-3.345 -2.888,-3.434L-2.768,-3.476C-2.568,-3.548 -2.435,-3.735 -2.435,-3.946C-2.435,-3.946 -2.431,-9.576 -2.432,-9.632C-2.436,-10.13 -1.67,-10.129 -1.682,-9.632C-1.702,-8.785 -1.697,-4.895 -1.697,-4.895C-1.697,-4.619 -1.474,-4.395 -1.198,-4.395L-1.197,-4.395C-0.921,-4.395 -0.698,-4.619 -0.697,-4.894C-0.697,-4.894 -0.683,-9.55 -0.682,-10.533C-0.681,-11.056 0.181,-11.077 0.193,-10.532ZM-0.604,-11.825C-1.095,-11.677 -1.464,-11.327 -1.618,-10.894C-1.717,-10.927 -1.821,-10.95 -1.929,-10.961C-2.612,-11.023 -3.222,-10.603 -3.387,-9.962C-3.432,-9.785 -3.432,-9.632 -3.432,-9.53L-3.433,-5.716C-3.553,-5.861 -3.682,-5.992 -3.821,-6.108C-4.346,-6.548 -4.836,-6.533 -5.156,-6.442C-5.77,-6.269 -6.182,-5.739 -6.182,-5.123C-6.182,-4.896 -6.127,-4.675 -6.021,-4.463L-5.428,-3.287C-5.115,-2.668 -4.793,-2.03 -4.481,-1.4C-4.192,-0.816 -3.81,-0.3 -3.345,0.137C-2.645,0.795 -1.89,1.115 -1.037,1.115L-0.347,1.116C-0.129,1.116 0.091,1.117 0.313,1.117C0.653,1.117 0.996,1.116 1.336,1.108C1.745,1.099 2.117,1.039 2.442,0.931C3.152,0.696 3.75,0.263 4.172,-0.32C4.589,-0.898 4.812,-1.593 4.817,-2.332L4.818,-2.988L4.813,-7.724C4.815,-8.549 4.472,-8.918 4.183,-9.082C3.808,-9.295 3.365,-9.261 2.995,-9.159L2.994,-9.64C2.992,-10.04 2.819,-10.415 2.52,-10.67C2.223,-10.921 1.826,-11.039 1.429,-10.978C1.322,-10.965 1.219,-10.938 1.122,-10.903C1.028,-11.218 0.817,-11.492 0.525,-11.673C0.185,-11.883 -0.227,-11.939 -0.604,-11.825" /></g>
</svg>
