<svg xmlns="http://www.w3.org/2000/svg" viewBox="0 0 24 24" style="fill-rule:evenodd;clip-rule:evenodd;stroke-linejoin:round;stroke-miterlimit:1.41421;">
<g transform="matrix(1,0,0,1,20,2.5)">
<path d="M0,19C0,19.276 -0.225,19.5 -0.5,19.5L-15.5,19.5C-15.775,19.5 -16,19.276 -16,19L-16,0C-16,-0.276 -15.775,-0.5 -15.5,-0.5L-0.5,-0.5C-0.225,-0.5 0,-0.276 0,0L0,19ZM-0.5,-1.5L-15.5,-1.5C-16.327,-1.5 -17,-0.827 -17,0L-17,19C-17,19.827 -16.327,20.5 -15.5,20.5L-0.5,20.5C0.327,20.5 1,19.827 1,19L1,0C1,-0.827 0.327,-1.5 -0.5,-1.5" /></g>
<g transform="matrix(1,0,0,1,17.5,5)"><path d="M0,-1L-11,-1C-11.276,-1 -11.5,-0.776 -11.5,-0.5C-11.5,-0.224 -11.276,0 -11,0L0,0C0.276,0 0.5,-0.224 0.5,-0.5C0.5,-0.776 0.276,-1 0,-1" /></g>
<g transform="matrix(1,0,0,1,17.5,8)"><path d="M0,-1L-11,-1C-11.276,-1 -11.5,-0.776 -11.5,-0.5C-11.5,-0.224 -11.276,0 -11,0L0,0C0.276,0 0.5,-0.224 0.5,-0.5C0.5,-0.776 0.276,-1 0,-1" /></g>
<g transform="matrix(1,0,0,1,8,15.4897)"><path d="M0,-0.979C0,-2.919 1.578,-4.497 3.519,-4.497C5.458,-4.497 7.036,-2.919 7.036,-0.979C7.036,0.961 5.458,2.54 3.519,2.54C1.578,2.54 0,0.961 0,-0.979M7.024,1.835C7.647,1.061 8.036,0.09 8.036,-0.979C8.036,-3.47 6.01,-5.497 3.519,-5.497C1.027,-5.497 -1,-3.47 -1,-0.979C-1,1.513 1.027,3.54 3.519,3.54C4.58,3.54 5.544,3.156 6.316,2.541L8.146,4.371C8.244,4.469 8.372,4.518 8.5,4.518C8.628,4.518 8.756,4.469 8.854,4.371C9.049,4.176 9.049,3.859 8.854,3.664L7.024,1.835Z" /></g>
</svg>
