<svg xmlns="http://www.w3.org/2000/svg" viewBox="0 0 24 24" style="fill-rule:evenodd;clip-rule:evenodd;stroke-linejoin:round;stroke-miterlimit:1.41421;">
<g transform="matrix(1,0,0,1,22,2.5)"><path d="M0,17C0,17.276 -0.224,17.5 -0.5,17.5L-19.5,17.5C-19.776,17.5 -20,17.276 -20,17L-20,2C-20,1.724 -19.776,1.5 -19.5,1.5L-16,1.5L-16,3C-16,3.276 -15.776,3.5 -15.5,3.5C-15.224,3.5 -15,3.276 -15,3L-15,1.5L-5,1.5L-5,3C-5,3.276 -4.776,3.5 -4.5,3.5C-4.224,3.5 -4,3.276 -4,3L-4,1.5L-0.5,1.5C-0.224,1.5 0,1.724 0,2L0,17ZM1,2C1,1.173 0.327,0.5 -0.5,0.5L-4,0.5L-4,-1C-4,-1.276 -4.224,-1.5 -4.5,-1.5C-4.776,-1.5 -5,-1.276 -5,-1L-5,0.5L-15,0.5L-15,-1C-15,-1.276 -15.224,-1.5 -15.5,-1.5C-15.776,-1.5 -16,-1.276 -16,-1L-16,0.5L-19.5,0.5C-20.327,0.5 -21,1.173 -21,2L-21,17C-21,17.827 -20.327,18.5 -19.5,18.5L-0.5,18.5C0.327,18.5 1,17.827 1,17L1,2Z" /></g>
<g transform="matrix(1,0,0,1,18.1465,14.8055)"><path d="M0,-6.659L-4.693,-1.966L-8.347,-4.705C-8.546,-4.855 -8.825,-4.836 -9,-4.659L-13,-0.659C-13.195,-0.464 -13.195,-0.147 -13,0.048C-12.902,0.146 -12.774,0.195 -12.646,0.195C-12.519,0.195 -12.391,0.146 -12.293,0.048L-8.6,-3.645L-4.946,-0.906C-4.749,-0.756 -4.47,-0.775 -4.293,-0.952L0.707,-5.952C0.902,-6.147 0.902,-6.464 0.707,-6.659C0.512,-6.854 0.195,-6.854 0,-6.659" /></g>
</svg>
