<svg xmlns="http://www.w3.org/2000/svg" viewBox="0 0 24 24" style="fill-rule:evenodd;clip-rule:evenodd;stroke-linejoin:round;stroke-miterlimit:1.41421;"><path d="M19.5,10l-5,0c-0.276,0 -0.5,0.224 -0.5,0.5c0,0.276 0.224,0.5 0.5,0.5l5,0c0.276,0 0.5,-0.224 0.5,-0.5c0,-0.276 -0.224,-0.5 -0.5,-0.5" /><path d="M19.5,13l-5,0c-0.276,0 -0.5,0.224 -0.5,0.5c0,0.276 0.224,0.5 0.5,0.5l5,0c0.276,0 0.5,-0.224 0.5,-0.5c0,-0.276 -0.224,-0.5 -0.5,-0.5" /><path d="M19.5,16l-5,0c-0.276,0 -0.5,0.224 -0.5,0.5c0,0.276 0.224,0.5 0.5,0.5l5,0c0.276,0 0.5,-0.224 0.5,-0.5c0,-0.276 -0.224,-0.5 -0.5,-0.5" /><path d="M7.5,17c-1.93,0 -3.5,-1.57 -3.5,-3.5c0,-1.93 1.57,-3.5 3.5,-3.5c1.93,0 3.5,1.57 3.5,3.5c0,1.93 -1.57,3.5 -3.5,3.5m0,-8c-2.481,0 -4.5,2.019 -4.5,4.5c0,2.481 2.019,4.5 4.5,4.5c2.481,0 4.5,-2.019 4.5,-4.5c0,-2.481 -2.019,-4.5 -4.5,-4.5" /><path d="M22,20l-20,0l0,-9.5c0,-1.93 1.57,-3.5 3.5,-3.5l13,0c1.93,0 3.5,1.57 3.5,3.5l0,9.5Zm-3.5,-14l-9.648,0l5.973,-5.12c0.21,-0.18 0.235,-0.496 0.055,-0.705c-0.181,-0.209 -0.496,-0.232 -0.705,-0.055l-6.861,5.88l-1.814,0c-2.481,0 -4.5,2.019 -4.5,4.5l0,10c0,0.276 0.224,0.5 0.5,0.5l1.5,0l0,0.5c0,0.276 0.224,0.5 0.5,0.5c0.276,0 0.5,-0.224 0.5,-0.5l0,-0.5l16,0l0,0.5c0,0.276 0.224,0.5 0.5,0.5c0.276,0 0.5,-0.224 0.5,-0.5l0,-0.5l1.5,0c0.276,0 0.5,-0.224 0.5,-0.5l0,-10c0,-2.481 -2.019,-4.5 -4.5,-4.5" /></svg>