<svg xmlns="http://www.w3.org/2000/svg" viewBox="0 0 24 24" style="fill-rule:evenodd;clip-rule:evenodd;stroke-linejoin:round;stroke-miterlimit:1.41421;"><path d="M12,7c0.827,0 1.5,0.673 1.5,1.5c0,0.827 -0.673,1.5 -1.5,1.5c-0.827,0 -1.5,-0.673 -1.5,-1.5c0,-0.827 0.673,-1.5 1.5,-1.5m0,4c1.379,0 2.5,-1.122 2.5,-2.5c0,-1.378 -1.121,-2.5 -2.5,-2.5c-1.379,0 -2.5,1.122 -2.5,2.5c0,1.378 1.121,2.5 2.5,2.5" /><path d="M6.36,14.116c0.361,1.869 0.997,3.847 1.919,5.934l-4.264,1.705c0.094,-2.347 0.624,-6.636 2.345,-7.639m1.277,-7.554c0.202,-0.589 0.449,-1.106 0.711,-1.592c0.048,0.015 0.098,0.03 0.152,0.03l7,0c0.053,0 0.103,-0.015 0.151,-0.03c0.263,0.486 0.51,1.003 0.711,1.592c1.338,3.916 0.606,8.773 -2.173,14.438l-1.689,0l0,-6.5c0,-0.277 -0.224,-0.5 -0.5,-0.5c-0.277,0 -0.5,0.223 -0.5,0.5l0,6.5l-1.69,0c-2.779,-5.665 -3.511,-10.522 -2.173,-14.438m4.363,-5.493c0.521,0.304 1.889,1.228 3.063,2.931l-6.127,0c1.174,-1.703 2.542,-2.627 3.064,-2.931m5.639,13.047c1.719,1.003 2.25,5.292 2.344,7.639l-4.263,-1.705c0.922,-2.087 1.558,-4.065 1.919,-5.934m-14.639,8.384c0,0.166 0.082,0.321 0.219,0.414c0.084,0.056 0.182,0.086 0.281,0.086c0.062,0 0.126,-0.012 0.185,-0.036l5,-2c0.005,-0.002 0.008,-0.006 0.013,-0.008c0.122,0.257 0.225,0.507 0.354,0.767c0.085,0.17 0.258,0.277 0.448,0.277l2,0l0,1.5c0,0.276 0.223,0.5 0.5,0.5c0.276,0 0.5,-0.224 0.5,-0.5l0,-1.5l2,0c0.189,0 0.362,-0.107 0.447,-0.277c0.13,-0.26 0.232,-0.51 0.354,-0.767c0.005,0.002 0.008,0.006 0.013,0.008l5,2c0.06,0.024 0.123,0.036 0.186,0.036c0.098,0 0.196,-0.03 0.28,-0.086c0.138,-0.093 0.22,-0.248 0.22,-0.414c0,-0.841 -0.098,-8.107 -3.177,-9.395c0.356,-2.515 0.188,-4.821 -0.524,-6.891c-1.522,-4.427 -4.94,-6.097 -5.085,-6.166c-0.136,-0.064 -0.292,-0.064 -0.429,0c-0.145,0.069 -3.563,1.739 -5.085,6.166c-0.712,2.07 -0.88,4.376 -0.524,6.891c-3.079,1.288 -3.176,8.554 -3.176,9.395" /></svg>