<svg xmlns="http://www.w3.org/2000/svg" viewBox="0 0 24 24" style="fill-rule:evenodd;clip-rule:evenodd;stroke-linejoin:round;stroke-miterlimit:1.41421;"><path d="M18,2.5l0,1.5l-12,0l0,-1.5c0,-0.827 0.673,-1.5 1.5,-1.5l9,0c0.827,0 1.5,0.673 1.5,1.5m0,16.5l-12,0l0,-14l12,0l0,14Zm0,2.5c0,0.827 -0.673,1.5 -1.5,1.5l-9,0c-0.827,0 -1.5,-0.673 -1.5,-1.5l0,-1.5l12,0l0,1.5Zm-10.5,-21.5c-1.378,0 -2.5,1.122 -2.5,2.5l0,19c0,1.378 1.122,2.5 2.5,2.5l9,0c1.378,0 2.5,-1.122 2.5,-2.5l0,-19c0,-1.378 -1.122,-2.5 -2.5,-2.5l-9,0Z" /><path d="M13.5,2l-3,0c-0.276,0 -0.5,0.224 -0.5,0.5c0,0.276 0.224,0.5 0.5,0.5l3,0c0.276,0 0.5,-0.224 0.5,-0.5c0,-0.276 -0.224,-0.5 -0.5,-0.5" /><path d="M12,22c0.276,0 0.5,-0.224 0.5,-0.5c0,-0.276 -0.224,-0.5 -0.5,-0.5c-0.276,0 -0.5,0.224 -0.5,0.5c0,0.276 0.224,0.5 0.5,0.5" /></svg>