<svg xmlns="http://www.w3.org/2000/svg" viewBox="0 0 24 24" style="fill-rule:evenodd;clip-rule:evenodd;stroke-linejoin:round;stroke-miterlimit:1.41421;"><path d="M6.431,17.919l2.148,0.58l-2.148,0.579c-0.172,0.046 -0.306,0.181 -0.353,0.353l-0.578,2.144l-0.576,-2.144c-0.047,-0.172 -0.181,-0.307 -0.353,-0.353l-2.149,-0.579l2.149,-0.58c0.172,-0.046 0.306,-0.181 0.353,-0.353l0.576,-2.143l0.578,2.143c0.047,0.172 0.181,0.307 0.353,0.353m-1.414,-4.548l-0.984,3.657l-3.663,0.99c-0.218,0.058 -0.37,0.256 -0.37,0.482c0,0.227 0.152,0.424 0.37,0.482l3.663,0.987l0.984,3.66c0.059,0.219 0.257,0.37 0.483,0.37c0.226,0 0.424,-0.151 0.483,-0.37l0.986,-3.66l3.661,-0.987c0.218,-0.058 0.37,-0.255 0.37,-0.482c0,-0.226 -0.151,-0.424 -0.369,-0.482l-3.662,-0.99l-0.986,-3.657c-0.118,-0.437 -0.849,-0.437 -0.966,0" /><path d="M10.568,4.921c0.172,-0.046 0.306,-0.181 0.353,-0.353l0.577,-2.145l0.579,2.145c0.046,0.172 0.18,0.307 0.353,0.353l2.145,0.578l-2.145,0.577c-0.172,0.046 -0.307,0.181 -0.353,0.353l-0.579,2.147l-0.577,-2.147c-0.047,-0.172 -0.182,-0.307 -0.353,-0.353l-2.145,-0.577l2.145,-0.578Zm-0.539,2.046l0.986,3.662c0.059,0.219 0.257,0.37 0.483,0.37c0.226,0 0.424,-0.151 0.483,-0.37l0.986,-3.662l3.663,-0.984c0.218,-0.059 0.37,-0.256 0.37,-0.483c0,-0.225 -0.151,-0.424 -0.37,-0.482l-3.663,-0.988l-0.986,-3.659c-0.118,-0.437 -0.848,-0.437 -0.966,0l-0.985,3.659l-3.66,0.988c-0.219,0.058 -0.37,0.257 -0.37,0.482c0,0.227 0.152,0.424 0.37,0.483l3.659,0.984Z" /><path d="M19.43,15.773c-0.172,0.046 -0.307,0.181 -0.353,0.353l-0.576,2.145l-0.578,-2.145c-0.047,-0.172 -0.181,-0.307 -0.353,-0.353l-2.149,-0.579l2.149,-0.58c0.172,-0.046 0.306,-0.181 0.353,-0.353l0.578,-2.143l0.576,2.143c0.046,0.172 0.181,0.307 0.353,0.353l2.148,0.58l-2.148,0.579Zm4.2,-1.061l-3.662,-0.989l-0.984,-3.658c-0.058,-0.219 -0.257,-0.37 -0.483,-0.37c-0.226,-0.001 -0.424,0.151 -0.483,0.37l-0.986,3.658l-3.663,0.989c-0.218,0.059 -0.369,0.257 -0.369,0.483c0,0.226 0.152,0.424 0.37,0.482l3.662,0.987l0.986,3.66c0.059,0.22 0.257,0.37 0.483,0.37c0.226,0 0.425,-0.151 0.483,-0.37l0.984,-3.66l3.662,-0.987c0.218,-0.058 0.37,-0.256 0.37,-0.482c0,-0.226 -0.152,-0.425 -0.37,-0.483" /></svg>