<svg xmlns="http://www.w3.org/2000/svg" viewBox="0 0 24 24" style="fill-rule:evenodd;clip-rule:evenodd;stroke-linejoin:round;stroke-miterlimit:1.41421;">

                <g transform="matrix(1,0,0,1,0,-1)">
                    <path d="M22,22L18,22L18,18L22,18L22,22ZM14,22L10,22L10,18L14,18L14,22ZM6,22L2,22L2,18L6,18L6,22ZM8.5,6.5C8.5,4.57 10.07,3 12,3C13.93,3 15.5,4.57 15.5,6.5C15.5,8.43 13.93,10 12,10C10.07,10 8.5,8.43 8.5,6.5M22.5,17L20.5,17L20.5,13.5C20.5,13.224 20.276,13 20,13L12.5,13L12.5,11C12.5,10.982 12.492,10.968 12.49,10.951C14.739,10.703 16.5,8.813 16.5,6.5C16.5,4.019 14.481,2 12,2C9.519,2 7.5,4.019 7.5,6.5C7.5,8.813 9.261,10.703 11.51,10.951C11.508,10.968 11.5,10.982 11.5,11L11.5,13L4,13C3.724,13 3.5,13.224 3.5,13.5L3.5,17L1.5,17C1.224,17 1,17.224 1,17.5L1,22.5C1,22.776 1.224,23 1.5,23L6.5,23C6.776,23 7,22.776 7,22.5L7,17.5C7,17.224 6.776,17 6.5,17L4.5,17L4.5,14L11.5,14L11.5,17L9.5,17C9.224,17 9,17.224 9,17.5L9,22.5C9,22.776 9.224,23 9.5,23L14.5,23C14.776,23 15,22.776 15,22.5L15,17.5C15,17.224 14.776,17 14.5,17L12.5,17L12.5,14L19.5,14L19.5,17L17.5,17C17.224,17 17,17.224 17,17.5L17,22.5C17,22.776 17.224,23 17.5,23L22.5,23C22.776,23 23,22.776 23,22.5L23,17.5C23,17.224 22.776,17 22.5,17" />
                </g>
                <g transform="matrix(1,0,0,1,10.5,5.5)">
                    <path d="M0,0C0,-0.827 0.673,-1.5 1.5,-1.5C2.327,-1.5 3,-0.827 3,0C3,0.827 2.327,1.5 1.5,1.5C0.673,1.5 0,0.827 0,0M4,0C4,-1.378 2.878,-2.5 1.5,-2.5C0.122,-2.5 -1,-1.378 -1,0C-1,1.378 0.122,2.5 1.5,2.5C2.878,2.5 4,1.378 4,0" />
                </g>
</svg>
