<svg xmlns="http://www.w3.org/2000/svg" viewBox="0 0 24 24" style="fill-rule:evenodd;clip-rule:evenodd;stroke-linejoin:round;stroke-miterlimit:1.41421;"><path d="M12,23c-4.813,0 -9.058,-2.785 -10.781,-7l21.562,0c-1.723,4.215 -5.968,7 -10.781,7m-8.363,-11l9.363,-10.215l0,10.215l-9.363,0Zm10.363,-8.204l5.609,9.204l-5.609,0l0,-9.204Zm9.5,11.204l-9.5,0l0,-1l6.5,0c0.181,0 0.348,-0.098 0.436,-0.255c0.088,-0.158 0.085,-0.35 -0.009,-0.505l-6.838,-11.219c-0.024,-0.039 -0.058,-0.066 -0.089,-0.096l0,-1.425c0,-0.004 -0.002,-0.008 -0.002,-0.012c-0.001,-0.034 -0.013,-0.067 -0.02,-0.1c-0.008,-0.031 -0.01,-0.062 -0.022,-0.09c-0.009,-0.02 -0.025,-0.035 -0.036,-0.054c-0.024,-0.037 -0.045,-0.074 -0.076,-0.104c-0.003,-0.002 -0.004,-0.006 -0.006,-0.008c-0.019,-0.017 -0.041,-0.024 -0.062,-0.037c-0.03,-0.022 -0.059,-0.044 -0.094,-0.058c-0.037,-0.015 -0.076,-0.018 -0.114,-0.023c-0.023,-0.003 -0.044,-0.014 -0.068,-0.014c-0.004,0 -0.007,0.002 -0.01,0.002c-0.036,0.001 -0.069,0.013 -0.104,0.021c-0.03,0.007 -0.061,0.009 -0.088,0.021c-0.018,0.008 -0.032,0.023 -0.05,0.033c-0.039,0.024 -0.077,0.047 -0.108,0.079c-0.003,0.003 -0.006,0.004 -0.008,0.006l-11,12c-0.135,0.147 -0.169,0.358 -0.09,0.539c0.08,0.182 0.26,0.299 0.458,0.299l10.5,0l0,2l-12.5,0c-0.161,0 -0.312,0.077 -0.406,0.208c-0.094,0.131 -0.119,0.299 -0.068,0.451c1.672,4.989 6.484,8.341 11.974,8.341c5.49,0 10.302,-3.352 11.974,-8.341c0.051,-0.152 0.026,-0.32 -0.068,-0.451c-0.094,-0.131 -0.245,-0.208 -0.406,-0.208" /></svg>