<svg xmlns="http://www.w3.org/2000/svg" viewBox="0 0 24 24" style="fill-rule:evenodd;clip-rule:evenodd;stroke-linejoin:round;stroke-miterlimit:1.41421;">
<g transform="matrix(1,0,0,1,13.1548,8.5816)">
<path d="M0,4.852L-2.483,2.298C-2.58,2.199 -2.709,2.147 -2.841,2.147C-2.923,2.147 -3.006,2.167 -3.082,2.208L-5.745,3.667L-2.31,0.057L0.173,2.611C0.331,2.773 0.576,2.808 0.772,2.701L3.436,1.243L0,4.852ZM5.771,-1.175L0.625,1.641L-1.955,-1.012C-2.049,-1.109 -2.179,-1.164 -2.313,-1.164L-2.316,-1.164C-2.452,-1.163 -2.582,-1.107 -2.676,-1.008L-8.683,5.302C-8.853,5.481 -8.867,5.756 -8.717,5.952C-8.619,6.079 -8.471,6.147 -8.32,6.147C-8.238,6.147 -8.156,6.127 -8.08,6.085L-2.935,3.268L-0.354,5.921C-0.26,6.018 -0.131,6.073 0.004,6.073L0.006,6.073C0.143,6.072 0.272,6.016 0.366,5.917L6.373,-0.392C6.543,-0.571 6.557,-0.846 6.407,-1.042C6.257,-1.238 5.988,-1.295 5.771,-1.175" /></g>
<g transform="matrix(1,0,0,1,12,2.6352)">
<path d="M0,17.73C-1.029,17.73 -2.048,17.592 -3.026,17.322C-3.151,17.285 -3.286,17.302 -3.4,17.365L-6.414,19.02L-6.414,15.967C-6.414,15.81 -6.488,15.662 -6.614,15.567C-9.083,13.718 -10.5,10.977 -10.5,8.047C-10.5,2.709 -5.79,-1.635 0,-1.635C5.79,-1.635 10.5,2.709 10.5,8.047C10.5,13.386 5.79,17.73 0,17.73M0,-2.635C-6.341,-2.635 -11.5,2.157 -11.5,8.047C-11.5,11.214 -10.014,14.177 -7.414,16.214L-7.414,19.865C-7.414,20.042 -7.32,20.205 -7.168,20.295C-7.09,20.341 -7.002,20.365 -6.914,20.365C-6.831,20.365 -6.748,20.344 -6.673,20.303L-3.095,18.338C-2.091,18.598 -1.05,18.73 0,18.73C6.341,18.73 11.5,13.938 11.5,8.047C11.5,2.157 6.341,-2.635 0,-2.635" /></g>
</svg>
