<svg xmlns="http://www.w3.org/2000/svg" viewBox="0 0 24 24" style="fill-rule:evenodd;clip-rule:evenodd;stroke-linejoin:round;stroke-miterlimit:1.41421;">
<g transform="matrix(1,0,0,1,20.5,4.2992)">
<path d="M0,15.402C0,15.842 -0.373,16.201 -0.832,16.201L-16.172,16.201C-16.629,16.201 -17,15.842 -17,15.402L-17,-0.001C-17,-0.442 -16.629,-0.799 -16.172,-0.799L-0.832,-0.799C-0.373,-0.799 0,-0.442 0,-0.001L0,15.402ZM-0.832,-1.799L-16.172,-1.799C-17.18,-1.799 -18,-0.993 -18,-0.001L-18,15.402C-18,16.394 -17.18,17.201 -16.172,17.201L-0.832,17.201C0.178,17.201 1,16.394 1,15.402L1,-0.001C1,-0.993 0.178,-1.799 -0.832,-1.799" /></g>
<g transform="matrix(1,0,0,1,0,4.514)"><path d="M7.84,13.538L6.167,13.538L6.167,5.948L7.84,5.948L7.84,13.538ZM8.34,4.948L5.667,4.948C5.391,4.948 5.167,5.172 5.167,5.448L5.167,14.038C5.167,14.314 5.391,14.538 5.667,14.538L8.34,14.538C8.616,14.538 8.84,14.314 8.84,14.038L8.84,5.448C8.84,5.172 8.616,4.948 8.34,4.948" /></g>
<g transform="matrix(1,0,0,1,7.0039,5.9772)"><path d="M0,2.097C-0.578,2.097 -1.049,1.627 -1.049,1.049C-1.049,0.471 -0.578,0 0,0C0.578,0 1.048,0.471 1.048,1.049C1.048,1.627 0.578,2.097 0,2.097M0,-1C-1.13,-1 -2.049,-0.081 -2.049,1.049C-2.049,2.178 -1.13,3.097 0,3.097C1.129,3.097 2.048,2.178 2.048,1.049C2.048,-0.081 1.129,-1 0,-1" /></g>
<g transform="matrix(1,0,0,1,18.1621,10.2478)"><path d="M0,7.804L-1.669,7.804L-1.669,4.126C-1.669,3.225 -1.669,1.349 -3.557,1.349C-5.658,1.349 -5.658,3.386 -5.658,4.055L-5.658,7.804L-7.324,7.804L-7.324,0.214L-5.766,0.214L-5.766,0.888C-5.766,1.164 -5.505,1.388 -5.229,1.388C-5.043,1.388 -4.873,1.285 -4.786,1.121C-4.514,0.604 -3.805,0 -2.702,0C-0.707,0 0,0.941 0,3.593L0,7.804ZM-2.702,-1C-3.559,-1 -4.253,-0.727 -4.771,-0.354C-4.804,-0.598 -5.013,-0.786 -5.266,-0.786L-7.824,-0.786C-8.101,-0.786 -8.324,-0.562 -8.324,-0.286L-8.324,8.304C-8.324,8.58 -8.101,8.804 -7.824,8.804L-5.158,8.804C-4.882,8.804 -4.658,8.58 -4.658,8.304L-4.658,4.055C-4.658,2.628 -4.254,2.349 -3.557,2.349C-2.859,2.349 -2.669,2.731 -2.669,4.126L-2.669,8.304C-2.669,8.58 -2.445,8.804 -2.169,8.804L0.5,8.804C0.776,8.804 1,8.58 1,8.304L1,3.593C1,1.454 0.579,-1 -2.702,-1" /></g>
</svg>
