<svg xmlns="http://www.w3.org/2000/svg" viewBox="0 0 24 24" style="fill-rule:evenodd;clip-rule:evenodd;stroke-linejoin:round;stroke-miterlimit:1.41421;"><path d="M17.108,14.197c-0.112,0.112 -0.164,0.271 -0.139,0.429l1.088,6.934l-5.876,-3.295c-0.076,-0.042 -0.16,-0.063 -0.245,-0.063c-0.082,0 -0.164,0.02 -0.238,0.06l-5.919,3.211l1.177,-6.92c0.027,-0.157 -0.023,-0.316 -0.133,-0.43l-4.786,-4.962l6.643,-0.964c0.165,-0.024 0.307,-0.129 0.379,-0.279l2.987,-6.243l2.907,6.285c0.07,0.151 0.21,0.258 0.374,0.284l6.632,1.058l-4.851,4.895Zm6.367,-5.39c-0.058,-0.177 -0.211,-0.308 -0.396,-0.339l-7.331,-1.17l-3.241,-7.008c-0.081,-0.176 -0.256,-0.289 -0.45,-0.29l-0.003,0c-0.193,0 -0.368,0.11 -0.451,0.284l-3.331,6.962l-7.344,1.065c-0.186,0.028 -0.341,0.157 -0.402,0.333c-0.06,0.178 -0.017,0.374 0.114,0.509l5.288,5.481l-1.307,7.685c-0.033,0.189 0.046,0.379 0.201,0.49c0.156,0.113 0.36,0.125 0.53,0.034l6.58,-3.57l6.533,3.663c0.077,0.042 0.161,0.064 0.245,0.064c0.1,0 0.2,-0.031 0.286,-0.09c0.157,-0.109 0.237,-0.299 0.208,-0.487l-1.208,-7.702l5.359,-5.407c0.132,-0.133 0.178,-0.328 0.12,-0.507" /></svg>