<svg xmlns="http://www.w3.org/2000/svg" viewBox="0 0 24 24" style="fill-rule:evenodd;clip-rule:evenodd;stroke-linejoin:round;stroke-miterlimit:1.41421;"><path d="M4,8l16,0l0,12l-16,0l0,-12Zm0,-4l16,0l0,3l-16,0l0,-3Zm-1,-0.5l0,17c0,0.276 0.224,0.5 0.5,0.5l17,0c0.276,0 0.5,-0.224 0.5,-0.5l0,-17c0,-0.276 -0.224,-0.5 -0.5,-0.5l-17,0c-0.276,0 -0.5,0.224 -0.5,0.5" /><path d="M17,17l-10,0l0,-6l10,0l0,6Zm0.5,-7l-11,0c-0.276,0 -0.5,0.224 -0.5,0.5l0,7c0,0.276 0.224,0.5 0.5,0.5l11,0c0.276,0 0.5,-0.224 0.5,-0.5l0,-7c0,-0.276 -0.224,-0.5 -0.5,-0.5" /><path d="M8.5,5l-3,0c-0.276,0 -0.5,0.224 -0.5,0.5c0,0.276 0.224,0.5 0.5,0.5l3,0c0.276,0 0.5,-0.224 0.5,-0.5c0,-0.276 -0.224,-0.5 -0.5,-0.5" /><circle cx="16.5" cy="5.5" r="0.5"/><circle cx="18.5" cy="5.5" r="0.5"/></svg>