<svg xmlns="http://www.w3.org/2000/svg" viewBox="0 0 24 24" style="fill-rule:evenodd;clip-rule:evenodd;stroke-linejoin:round;stroke-miterlimit:1.41421;">
<g transform="matrix(1,0,0,1,12,1.993)">
<path d="M0,19.007L-0.003,19.007C-1.709,19.006 -3.381,18.548 -4.838,17.684L-5.203,17.467C-5.324,17.394 -5.455,17.382 -5.585,17.413L-8.532,18.186L-7.751,15.331C-7.714,15.196 -7.735,15.053 -7.81,14.934L-8.047,14.554C-8.518,13.806 -8.886,12.983 -9.13,12.133C-11.52,3.819 -1.918,-3.231 5.271,1.593C11.427,5.724 10.552,15.36 3.701,18.256C2.526,18.752 1.289,19.005 0.012,19.007M0.004,-1C-8.066,-1 -13.236,8.182 -8.895,15.086L-8.773,15.278L-9.726,18.757C-9.823,19.119 -9.493,19.479 -9.116,19.372L-5.534,18.434L-5.349,18.543C-3.737,19.5 -1.889,20.006 -0.004,20.007L0,20.007C9.158,20.007 13.896,8.555 7.428,2.079C6.452,1.102 5.301,0.325 4.025,-0.204C2.748,-0.734 1.386,-1 0.004,-1" />
</g>
<g transform="matrix(1,0,0,1,16.9424,7.9163)">
<path d="M0,7.362C-0.147,7.773 -1.036,8.286 -1.47,8.35C-1.828,8.404 -2.375,8.452 -2.986,8.258C-3.414,8.123 -3.895,7.962 -4.515,7.694C-6.656,6.768 -8.229,4.833 -8.977,3.76C-8.98,3.757 -9.035,3.679 -9.038,3.674C-9.279,3.353 -10.064,2.218 -10.064,1.118C-10.064,0.044 -9.613,-0.558 -9.228,-0.851C-8.737,-1.225 -8.232,-1.007 -8.169,-0.858L-7.872,-0.134C-7.625,0.465 -7.35,1.133 -7.302,1.227C-7.302,1.227 -7.24,1.33 -7.488,1.624L-7.639,1.804C-7.722,1.905 -7.804,2.007 -7.876,2.079C-8.015,2.216 -8.435,2.635 -8.077,3.248C-7.868,3.608 -7.289,4.528 -6.44,5.285C-5.497,6.127 -4.666,6.487 -4.266,6.661L-4.106,6.732C-3.628,6.971 -3.225,6.908 -2.909,6.545C-2.777,6.394 -2.267,5.799 -2.015,5.443C-1.998,5.448 -1.979,5.455 -1.959,5.463C-1.758,5.536 -0.509,6.145 -0.122,6.34L0.036,6.417C0.081,6.438 0.131,6.463 0.173,6.484C0.173,6.648 0.139,6.973 0,7.362M0.472,5.516L0.326,5.445C0.311,5.437 -1.29,4.642 -1.617,4.523C-1.835,4.444 -2.413,4.235 -2.825,4.854C-2.967,5.068 -3.397,5.583 -3.635,5.855C-3.639,5.85 -3.646,5.844 -3.659,5.838C-3.71,5.812 -3.781,5.781 -3.868,5.744C-4.246,5.579 -4.951,5.273 -5.774,4.539C-6.48,3.909 -6.988,3.121 -7.182,2.796C-7.178,2.794 -7.175,2.791 -7.17,2.788C-7.078,2.696 -6.972,2.567 -6.866,2.438L-6.729,2.273C-6.57,2.088 -6.494,1.957 -6.384,1.71C-6.283,1.49 -6.247,1.104 -6.408,0.779C-6.459,0.674 -6.716,0.048 -6.946,-0.515L-7.246,-1.242C-7.534,-1.933 -7.939,-2.024 -8.298,-2.024C-8.298,-2.024 -8.667,-2.034 -8.859,-2.034C-9.052,-2.034 -9.546,-1.985 -10.017,-1.471C-10.33,-1.136 -11.064,-0.352 -11.064,1.118C-11.064,2.489 -10.207,3.782 -9.797,4.333C-8.989,5.492 -7.28,7.589 -4.911,8.612C-4.248,8.898 -3.718,9.076 -3.288,9.212C-2.898,9.336 -2.494,9.396 -2.065,9.396C-1.826,9.396 -1.579,9.378 -1.322,9.339C-0.704,9.247 0.619,8.602 0.941,7.698C1.157,7.093 1.268,6.302 1.061,5.959C0.929,5.738 0.717,5.635 0.472,5.516" />
</g>
</svg>
