<svg xmlns="http://www.w3.org/2000/svg" viewBox="0 0 24 24" style="fill-rule:evenodd;clip-rule:evenodd;stroke-linejoin:round;stroke-miterlimit:1.41421;">
<g transform="matrix(1,0,0,1,13.7529,15.5492)">
<path d="M0,-7.098L3.191,-7.098L2.866,-4.042L0,-4.042C-0.276,-4.042 -0.5,-3.819 -0.5,-3.542L-0.5,7.451L-4.415,7.451L-4.415,-3.542C-4.415,-3.819 -4.639,-4.042 -4.915,-4.042L-6.753,-4.042L-6.753,-7.104L-4.915,-7.104C-4.639,-7.104 -4.415,-7.327 -4.415,-7.604L-4.415,-10.231C-4.415,-11.244 -4.094,-14.549 0.043,-14.549L3.188,-14.537L3.188,-11.593L1.044,-11.593C0.332,-11.593 -0.5,-11.173 -0.5,-9.99L-0.5,-7.598C-0.5,-7.322 -0.276,-7.098 0,-7.098M1.044,-10.593L3.688,-10.593C3.964,-10.593 4.187,-10.817 4.187,-11.093L4.187,-15.035C4.187,-15.311 3.965,-15.535 3.689,-15.536L0.045,-15.549C-3.98,-15.549 -5.415,-12.802 -5.415,-10.231L-5.415,-8.104L-7.253,-8.104C-7.529,-8.104 -7.753,-7.88 -7.753,-7.604L-7.753,-3.542C-7.753,-3.266 -7.529,-3.042 -7.253,-3.042L-5.415,-3.042L-5.415,7.951C-5.415,8.227 -5.191,8.451 -4.915,8.451L0,8.451C0.276,8.451 0.5,8.227 0.5,7.951L0.5,-3.042L3.316,-3.042C3.572,-3.042 3.786,-3.236 3.813,-3.49L4.244,-7.545C4.259,-7.686 4.214,-7.827 4.119,-7.932C4.024,-8.037 3.889,-8.098 3.747,-8.098L0.5,-8.098L0.5,-9.99C0.5,-10.271 0.562,-10.593 1.044,-10.593" /></g>
</svg>
