<svg xmlns="http://www.w3.org/2000/svg" viewBox="0 0 24 24" style="fill-rule:evenodd;clip-rule:evenodd;stroke-linejoin:round;stroke-miterlimit:1.41421;"><path d="M14.138,15l-4.274,0l-1.347,-4.14l3.508,-2.454l3.428,2.584l-1.315,4.01Zm-1.802,-7.611c-0.173,-0.131 -0.411,-0.136 -0.587,-0.01l-4.108,2.875c-0.18,0.126 -0.257,0.354 -0.189,0.563l1.573,4.837c0.067,0.206 0.259,0.346 0.475,0.346l5,0c0.217,0 0.408,-0.139 0.475,-0.344l1.54,-4.693c0.067,-0.204 -0.003,-0.427 -0.174,-0.556l-4.005,-3.018Z" /><path d="M21.403,12.806c-0.115,0.059 -0.204,0.159 -0.246,0.282l-1.333,3.827c-0.043,0.123 -0.036,0.259 0.02,0.377l0.74,1.57c-1.256,1.567 -2.931,2.777 -4.853,3.473l-1.348,-1.264c-0.094,-0.089 -0.216,-0.141 -0.349,-0.136l-4.541,0.065c-0.131,0.002 -0.256,0.055 -0.348,0.148l-1.097,1.106c-1.933,-0.748 -3.599,-2.024 -4.828,-3.655l0.709,-1.456c0.052,-0.108 0.064,-0.231 0.034,-0.346l-1.123,-4.282c-0.033,-0.126 -0.114,-0.233 -0.225,-0.301l-1.577,-0.953c0.139,-2.089 0.86,-4.017 2.008,-5.627l1.779,0.257c0.023,0.003 0.047,0.005 0.071,0.005c0.104,0 0.207,-0.032 0.292,-0.094l3.232,-2.324c0.102,-0.074 0.172,-0.184 0.197,-0.307l0.354,-1.737c0.964,-0.276 1.977,-0.434 3.029,-0.434c1.028,0 2.019,0.153 2.963,0.417l0.44,1.74c0.027,0.11 0.092,0.208 0.184,0.276l3.663,2.762c0.086,0.065 0.192,0.1 0.3,0.1l0.016,0l1.787,-0.055c1.037,1.676 1.646,3.644 1.647,5.756l-1.597,0.81Zm1.424,1.079c-0.021,0.12 -0.034,0.242 -0.059,0.361c-0.05,0.241 -0.117,0.473 -0.182,0.707c-0.04,0.143 -0.077,0.288 -0.123,0.428c-0.071,0.221 -0.153,0.437 -0.238,0.651c-0.061,0.152 -0.123,0.303 -0.191,0.453c-0.089,0.2 -0.183,0.397 -0.284,0.591c-0.086,0.163 -0.18,0.323 -0.274,0.483c-0.073,0.125 -0.147,0.25 -0.226,0.371l-0.414,-0.879l1.199,-3.444l0.905,-0.458c-0.027,0.249 -0.071,0.492 -0.113,0.736m-8.348,8.823c-0.234,0.054 -0.469,0.097 -0.703,0.136c-0.132,0.022 -0.263,0.043 -0.396,0.061c-0.23,0.028 -0.461,0.046 -0.691,0.06c-0.148,0.01 -0.295,0.02 -0.444,0.023c-0.217,0.005 -0.434,0 -0.65,-0.008c-0.162,-0.006 -0.323,-0.012 -0.484,-0.025c-0.204,-0.016 -0.406,-0.042 -0.609,-0.069c-0.17,-0.023 -0.34,-0.047 -0.508,-0.078c-0.183,-0.033 -0.364,-0.075 -0.546,-0.118c-0.113,-0.028 -0.225,-0.057 -0.337,-0.087l0.601,-0.606l4.134,-0.059l0.781,0.732c-0.05,0.012 -0.099,0.027 -0.148,0.038m-11.905,-5.067c-0.053,-0.089 -0.111,-0.176 -0.162,-0.267c-0.063,-0.113 -0.124,-0.228 -0.183,-0.344c-0.097,-0.186 -0.188,-0.375 -0.274,-0.567c-0.073,-0.165 -0.139,-0.332 -0.204,-0.5c-0.06,-0.155 -0.119,-0.311 -0.173,-0.469c-0.068,-0.204 -0.127,-0.41 -0.183,-0.616c-0.038,-0.139 -0.076,-0.279 -0.108,-0.421c-0.05,-0.215 -0.09,-0.434 -0.126,-0.653c-0.024,-0.147 -0.049,-0.294 -0.068,-0.442c-0.025,-0.208 -0.042,-0.418 -0.056,-0.628c-0.007,-0.105 -0.011,-0.209 -0.015,-0.315l0.902,0.546l1.024,3.906l-0.374,0.77Zm1.473,-13.219c0.107,-0.113 0.217,-0.224 0.329,-0.333c0.174,-0.168 0.352,-0.332 0.537,-0.488c0.094,-0.079 0.192,-0.154 0.288,-0.231c0.206,-0.163 0.413,-0.324 0.63,-0.471c0.066,-0.044 0.134,-0.082 0.2,-0.125c0.402,-0.261 0.824,-0.491 1.259,-0.699c0.159,-0.076 0.314,-0.158 0.478,-0.225c0.034,-0.015 0.071,-0.025 0.106,-0.039l-0.197,0.969l-2.909,2.092l-0.999,-0.144c0.092,-0.103 0.183,-0.206 0.278,-0.306m12.157,-2.583c0.372,0.154 0.736,0.328 1.089,0.524c0.128,0.07 0.248,0.151 0.373,0.226c0.25,0.152 0.495,0.311 0.735,0.483c0.135,0.097 0.269,0.196 0.4,0.299c0.226,0.178 0.44,0.368 0.65,0.561c0.173,0.16 0.343,0.323 0.505,0.494c0.204,0.212 0.401,0.43 0.587,0.658c0.046,0.057 0.086,0.118 0.131,0.176l-0.963,0.03l-3.382,-2.549l-0.238,-0.944c0.037,0.016 0.076,0.027 0.113,0.042m7.796,10.161c0,-2.385 -0.708,-4.605 -1.912,-6.475c-0.011,-0.022 -0.009,-0.047 -0.022,-0.068c-0.246,-0.377 -0.518,-0.732 -0.804,-1.078c-0.006,-0.008 -0.013,-0.015 -0.02,-0.023c-0.227,-0.275 -0.467,-0.538 -0.719,-0.792c-0.037,-0.036 -0.074,-0.071 -0.111,-0.108c-0.221,-0.217 -0.45,-0.426 -0.689,-0.627c-0.067,-0.055 -0.133,-0.11 -0.2,-0.165c-0.101,-0.081 -0.196,-0.168 -0.299,-0.246c-0.123,-0.092 -0.253,-0.173 -0.379,-0.26c-0.081,-0.057 -0.161,-0.114 -0.244,-0.168c-0.24,-0.16 -0.486,-0.307 -0.735,-0.448c-0.074,-0.042 -0.147,-0.086 -0.222,-0.126c-0.286,-0.153 -0.578,-0.293 -0.875,-0.422c-0.044,-0.019 -0.086,-0.041 -0.13,-0.059c-0.366,-0.154 -0.738,-0.295 -1.119,-0.412c-0.01,-0.003 -0.02,0.001 -0.029,-0.001c-1.106,-0.337 -2.277,-0.522 -3.491,-0.522c-1.253,0 -2.461,0.195 -3.597,0.553c-0.003,0 -0.006,-0.001 -0.009,0c-0.353,0.11 -0.697,0.241 -1.035,0.383c-0.028,0.012 -0.055,0.024 -0.083,0.037c-0.328,0.14 -0.647,0.295 -0.959,0.462c-0.021,0.012 -0.042,0.023 -0.063,0.035c-0.995,0.542 -1.909,1.223 -2.723,2.037c-0.017,0.018 -0.034,0.037 -0.051,0.055c-0.229,0.232 -0.45,0.474 -0.661,0.727c-0.057,0.067 -0.11,0.134 -0.165,0.202c-0.087,0.109 -0.18,0.213 -0.265,0.326c-0.01,0.016 -0.009,0.036 -0.018,0.053c-1.379,1.856 -2.229,4.118 -2.343,6.575c-0.003,0.021 -0.018,0.039 -0.019,0.061c-0.003,0.093 0.003,0.187 0.002,0.28c-0.001,0.072 -0.011,0.142 -0.011,0.214c0,0.091 0.012,0.178 0.014,0.268c0.005,0.216 0.016,0.43 0.033,0.645c0.014,0.186 0.03,0.371 0.052,0.553c0.009,0.068 0.01,0.136 0.019,0.202c0.012,0.08 0.035,0.159 0.049,0.239c0.051,0.324 0.115,0.643 0.193,0.958c0.032,0.129 0.064,0.258 0.1,0.386c0.089,0.316 0.192,0.623 0.306,0.928c0.045,0.123 0.086,0.247 0.135,0.368c0.135,0.328 0.287,0.647 0.449,0.96c0.123,0.239 0.26,0.469 0.399,0.699c0.115,0.191 0.228,0.383 0.354,0.567c0.042,0.061 0.075,0.129 0.118,0.189c0.018,0.025 0.046,0.037 0.067,0.058c1.404,1.936 3.368,3.434 5.657,4.26c0.02,0.01 0.033,0.029 0.054,0.037c0.091,0.032 0.186,0.054 0.278,0.085c0.118,0.039 0.237,0.074 0.357,0.109c0.235,0.068 0.472,0.129 0.711,0.184c0.135,0.03 0.27,0.06 0.407,0.087c0.236,0.045 0.474,0.079 0.712,0.109c0.139,0.018 0.275,0.039 0.416,0.053c0.31,0.028 0.622,0.043 0.934,0.047c0.063,0.001 0.123,0.009 0.186,0.009c0.049,0 0.096,-0.006 0.145,-0.007c0.295,-0.003 0.59,-0.019 0.884,-0.044c0.141,-0.013 0.28,-0.028 0.418,-0.044c0.074,-0.01 0.147,-0.014 0.22,-0.024c0.108,-0.014 0.215,-0.042 0.323,-0.06c0.207,-0.035 0.414,-0.069 0.618,-0.115c0.178,-0.039 0.354,-0.088 0.53,-0.136c0.178,-0.048 0.356,-0.092 0.53,-0.148c0.036,-0.012 0.072,-0.018 0.108,-0.03c0.013,-0.004 0.021,-0.017 0.033,-0.022c2.29,-0.769 4.268,-2.211 5.709,-4.09c0.022,-0.021 0.049,-0.033 0.067,-0.056c0.117,-0.155 0.222,-0.316 0.331,-0.476c0.015,-0.023 0.032,-0.046 0.048,-0.068c0.649,-0.966 1.147,-2.006 1.489,-3.098c0.004,-0.012 0.008,-0.026 0.013,-0.039c0.321,-1.039 0.508,-2.121 0.535,-3.227c0,-0.021 -0.012,-0.037 -0.014,-0.057c0.002,-0.087 0.013,-0.172 0.013,-0.259" /></svg>