<svg xmlns="http://www.w3.org/2000/svg" viewBox="0 0 24 24" style="fill-rule:evenodd;clip-rule:evenodd;stroke-linejoin:round;stroke-miterlimit:1.41421;">
<g transform="matrix(1,0,0,1,6.5,14)">
<path d="M0,-1C0.275,-1 0.5,-0.776 0.5,-0.5C0.5,-0.224 0.275,0 0,0C-0.275,0 -0.5,-0.224 -0.5,-0.5C-0.5,-0.776 -0.275,-1 0,-1M0,1C0.827,1 1.5,0.327 1.5,-0.5C1.5,-1.327 0.827,-2 0,-2C-0.827,-2 -1.5,-1.327 -1.5,-0.5C-1.5,0.327 -0.827,1 0,1" />
</g>
<g transform="matrix(1,0,0,1,5.6445,7.0978)">
<path d="M0,9.784L-1.412,11.902L-2.21,11.902L-0.729,9.68C-0.699,9.635 -0.684,9.586 -0.67,9.537C-0.457,9.641 -0.234,9.724 0,9.784M-1.645,6.402C-1.645,5.024 -0.523,3.902 0.813,3.9L7.592,4.464C7.452,4.923 7.355,5.399 7.355,5.902C7.355,6.556 7.49,7.178 7.72,7.751L0.816,8.902C-0.544,8.881 -1.645,7.767 -1.645,6.402M-0.535,-1.098L0.445,-1.098L1.252,2.935L0.855,2.902C0.657,2.902 0.466,2.929 0.277,2.961L-0.535,-1.098ZM-1.645,-3.961L1.823,-3.112C1.862,-3.103 1.902,-3.098 1.942,-3.098C2.17,-3.098 2.355,-2.912 2.355,-2.685L2.355,-2.511C2.355,-2.283 2.17,-2.098 1.942,-2.098L-1.231,-2.098C-1.459,-2.098 -1.645,-2.283 -1.645,-2.511L-1.645,-3.961ZM8.355,5.902C8.355,5.425 8.453,4.973 8.607,4.549L12.855,4.902C13.407,4.902 13.855,5.351 13.855,5.902C13.855,6.453 13.407,6.902 12.773,6.909L8.737,7.582C8.499,7.069 8.355,6.504 8.355,5.902M12.355,1.902C14.562,1.902 16.355,3.697 16.355,5.902C16.355,8.108 14.562,9.902 12.355,9.902C11.142,9.902 10.066,9.347 9.332,8.492L12.855,7.902C13.958,7.902 14.855,7.005 14.855,5.902C14.855,4.801 13.96,3.904 12.9,3.904L12.897,3.904L9.104,3.589C9.83,2.572 11.014,1.902 12.355,1.902M10.48,-2.098L11.456,-2.098L12.138,0.924C11.813,0.938 11.496,0.98 11.19,1.054L10.48,-2.098ZM9.855,-4.098L13.855,-4.098C14.131,-4.098 14.355,-3.874 14.355,-3.598C14.355,-3.322 14.131,-3.098 13.855,-3.098L9.855,-3.098C9.58,-3.098 9.355,-3.322 9.355,-3.598C9.355,-3.874 9.58,-4.098 9.855,-4.098M14.611,11.902L13.636,11.902L13.386,10.793C13.701,10.726 14.007,10.633 14.297,10.51L14.611,11.902ZM1.151,9.86L8.202,8.68C9.101,10.019 10.626,10.902 12.355,10.902C12.365,10.902 12.375,10.899 12.385,10.899L12.611,11.902L-0.21,11.902L1.151,9.86ZM16.355,13.402C16.355,13.678 16.131,13.902 15.855,13.902L-3.145,13.902C-3.42,13.902 -3.645,13.678 -3.645,13.402C-3.645,13.126 -3.42,12.902 -3.145,12.902L15.855,12.902C16.131,12.902 16.355,13.126 16.355,13.402M-3.432,11.931C-4.121,12.066 -4.645,12.673 -4.645,13.402C-4.645,14.229 -3.972,14.902 -3.145,14.902L15.855,14.902C16.683,14.902 17.355,14.229 17.355,13.402C17.355,12.575 16.683,11.902 15.855,11.902L15.636,11.902L15.206,10C16.502,9.096 17.355,7.598 17.355,5.902C17.355,3.426 15.541,1.379 13.176,0.985L12.48,-2.098L13.383,-2.098C13.484,-1.089 13.906,-0.098 14.855,-0.098L16.855,-0.098C17.132,-0.098 17.355,-0.321 17.355,-0.598C17.355,-0.874 17.132,-1.098 16.855,-1.098L14.855,-1.098C14.614,-1.098 14.443,-1.66 14.382,-2.198C14.949,-2.412 15.355,-2.957 15.355,-3.598C15.355,-4.425 14.683,-5.098 13.855,-5.098L9.855,-5.098C9.028,-5.098 8.355,-4.425 8.355,-3.598C8.355,-2.915 8.816,-2.344 9.441,-2.163L10.241,1.388C9.287,1.837 8.509,2.578 8,3.496L2.289,3.021L1.465,-1.098L1.942,-1.098C2.722,-1.098 3.355,-1.732 3.355,-2.511L3.355,-2.685C3.355,-3.442 2.758,-4.061 2.009,-4.096L-2.025,-5.084C-2.175,-5.118 -2.331,-5.086 -2.453,-4.991C-2.574,-4.896 -2.645,-4.751 -2.645,-4.598L-2.645,-2.511C-2.645,-1.846 -2.182,-1.291 -1.563,-1.141L-1.354,-0.098L-4.145,-0.098C-4.421,-0.098 -4.645,0.126 -4.645,0.402C-4.645,0.679 -4.421,0.902 -4.145,0.902L-3.645,0.902L-3.645,1.402C-3.645,1.679 -3.421,1.902 -3.145,1.902C-2.868,1.902 -2.645,1.679 -2.645,1.402L-2.645,0.902L-1.154,0.902L-0.681,3.273C-1.839,3.844 -2.645,5.026 -2.645,6.402C-2.645,7.445 -2.177,8.373 -1.45,9.015C-1.49,9.047 -1.53,9.079 -1.561,9.125L-3.432,11.931Z" /></g>
</svg>
