<svg xmlns="http://www.w3.org/2000/svg" viewBox="0 0 24 24" style="fill-rule:evenodd;clip-rule:evenodd;stroke-linejoin:round;stroke-miterlimit:1.41421;">
<g transform="matrix(1,0,0,1,20.0547,16.6721)">
<path d="M0,-9.344C-0.138,-9.244 -0.217,-9.081 -0.207,-8.911C-0.198,-8.738 -0.192,-8.56 -0.192,-8.383C-0.192,-2.626 -4.591,3.328 -11.952,3.328C-13.533,3.328 -15.084,3.012 -16.521,2.407C-14.827,2.223 -13.236,1.579 -11.871,0.516C-11.704,0.386 -11.638,0.165 -11.704,-0.036C-11.771,-0.238 -11.958,-0.374 -12.17,-0.378C-13.528,-0.403 -14.748,-1.142 -15.404,-2.282C-14.938,-2.258 -14.525,-2.338 -14.124,-2.45C-13.9,-2.512 -13.75,-2.719 -13.758,-2.95C-13.767,-3.182 -13.933,-3.377 -14.16,-3.422C-15.692,-3.729 -16.861,-4.941 -17.151,-6.405C-16.711,-6.257 -16.248,-6.173 -15.782,-6.156C-15.558,-6.157 -15.356,-6.29 -15.289,-6.503C-15.22,-6.716 -15.301,-6.948 -15.486,-7.073C-16.546,-7.781 -17.179,-8.96 -17.179,-10.229C-17.179,-10.656 -17.106,-11.077 -16.968,-11.477C-14.711,-9.043 -11.573,-7.57 -8.241,-7.402C-8.077,-7.378 -7.933,-7.459 -7.832,-7.579C-7.731,-7.699 -7.693,-7.861 -7.729,-8.013C-7.793,-8.293 -7.826,-8.585 -7.826,-8.88C-7.826,-10.971 -6.117,-12.672 -4.017,-12.672C-2.966,-12.672 -1.954,-12.235 -1.238,-11.473C-1.121,-11.346 -0.946,-11.29 -0.776,-11.324C-0.275,-11.424 0.214,-11.564 0.688,-11.742C0.415,-11.416 0.086,-11.136 -0.287,-10.915C-0.49,-10.794 -0.582,-10.548 -0.506,-10.324C-0.431,-10.101 -0.203,-9.951 0.026,-9.989C0.34,-10.026 0.65,-10.078 0.956,-10.147C0.659,-9.856 0.34,-9.588 0,-9.344M2.244,-11.616C2.06,-11.534 1.871,-11.46 1.682,-11.393C1.965,-11.79 2.188,-12.232 2.339,-12.704C2.402,-12.903 2.338,-13.118 2.176,-13.248C2.013,-13.377 1.788,-13.395 1.609,-13.288C0.887,-12.863 0.106,-12.551 -0.713,-12.361C-1.6,-13.198 -2.788,-13.672 -4.017,-13.672C-6.669,-13.672 -8.826,-11.523 -8.826,-8.88C-8.826,-8.736 -8.82,-8.591 -8.808,-8.448C-11.887,-8.767 -14.739,-10.295 -16.71,-12.701C-16.812,-12.829 -16.979,-12.899 -17.136,-12.883C-17.299,-12.87 -17.445,-12.779 -17.528,-12.637C-17.954,-11.909 -18.179,-11.076 -18.179,-10.229C-18.179,-9.273 -17.895,-8.357 -17.382,-7.583C-17.412,-7.599 -17.441,-7.615 -17.471,-7.631C-17.611,-7.71 -17.78,-7.715 -17.926,-7.646C-18.071,-7.577 -18.175,-7.444 -18.204,-7.285C-18.21,-7.255 -18.216,-7.169 -18.216,-7.138C-18.216,-5.615 -17.488,-4.227 -16.336,-3.341C-16.428,-3.316 -16.512,-3.264 -16.577,-3.191C-16.694,-3.059 -16.733,-2.874 -16.679,-2.705C-16.19,-1.187 -14.989,-0.04 -13.512,0.412C-15.012,1.259 -16.797,1.605 -18.497,1.403C-18.741,1.379 -18.948,1.513 -19.025,1.732C-19.104,1.952 -19.021,2.196 -18.824,2.321C-16.771,3.634 -14.396,4.328 -11.952,4.328C-3.965,4.328 0.808,-2.135 0.808,-8.383C0.808,-8.487 0.806,-8.59 0.803,-8.694C1.603,-9.305 2.294,-10.038 2.86,-10.879C2.984,-11.064 2.972,-11.308 2.829,-11.479C2.685,-11.653 2.444,-11.706 2.244,-11.616" /></g>
</svg>
