<svg xmlns="http://www.w3.org/2000/svg" viewBox="0 0 24 24" style="fill-rule:evenodd;clip-rule:evenodd;stroke-linejoin:round;stroke-miterlimit:1.41421;">
<g transform="matrix(1,0,0,1,22.9707,3.239)">
<path d="M0,15.802C-1.465,15.913 -5.825,16.199 -7.337,15.779C-11.075,14.744 -20.329,8.182 -21.937,7.029C-21.872,6.727 -21.681,6.178 -21.117,5.614C-21.04,5.538 -20.982,5.495 -20.95,5.473C-20.914,5.519 -20.876,5.562 -20.834,5.604C-20.828,5.611 -20.822,5.617 -20.815,5.623C-20.121,6.312 -18.464,7.338 -16.86,8.33C-16.041,8.837 -15.268,9.316 -14.756,9.672C-14.174,10.076 -13.378,10.752 -12.536,11.467C-11.535,12.317 -10.499,13.197 -9.74,13.682C-9.249,13.996 -8.211,14.553 -7.62,14.738C-6.079,15.219 -2.095,15.665 -0.108,15.122C-0.054,15.374 -0.021,15.61 0,15.802M-20.171,3.35C-19.912,2.623 -19.443,1.941 -19.117,1.614C-18.64,1.137 -17.758,0.661 -17.152,0.424C-17.931,1.866 -17.651,3.03 -17.252,3.776C-16.626,4.946 -15.284,5.761 -14.471,5.761C-14.384,5.761 -12.329,5.749 -10.247,4.708C-9.81,4.491 -9.375,4.461 -8.956,4.621C-8.744,4.702 -8.542,4.844 -8.345,5.017C-9.374,5.414 -9.962,6.007 -10.078,6.792C-10.135,7.174 -10.065,7.567 -9.907,7.961L-12.515,9.857C-12.585,9.907 -12.631,9.976 -12.666,10.049C-13.23,9.575 -13.756,9.149 -14.186,8.85C-14.718,8.48 -15.503,7.994 -16.334,7.48C-17.78,6.585 -19.415,5.573 -20.062,4.96C-20.11,4.878 -20.174,4.793 -20.253,4.716C-20.453,4.305 -20.297,3.704 -20.171,3.35M-11.118,2.853C-10.926,1.924 -10.829,1.761 -10.471,1.761C-9.685,1.761 -9.022,2.727 -8.567,3.702C-8.578,3.698 -8.588,3.691 -8.599,3.687C-9.28,3.426 -10.006,3.47 -10.694,3.814C-10.968,3.95 -11.24,4.063 -11.51,4.163C-11.306,3.719 -11.201,3.252 -11.118,2.853M-3.183,11.823C-3.104,11.872 -3.021,11.926 -2.941,11.976C-3.146,12.082 -3.585,12.209 -4.214,11.832C-8.007,9.556 -9.219,7.812 -9.089,6.939C-9.009,6.397 -8.368,6.061 -7.729,5.856C-7.203,6.882 -5.695,9.743 -4.824,10.615C-4.341,11.097 -3.778,11.45 -3.183,11.823M-7.432,10.836C-6.93,11.238 -6.405,11.611 -5.9,11.947L-8.13,13.432C-8.532,13.232 -8.947,13.002 -9.201,12.84C-9.383,12.724 -9.586,12.579 -9.802,12.416L-7.432,10.836ZM-8.22,10.159L-10.625,11.763C-11.035,11.427 -11.464,11.066 -11.89,10.704C-11.904,10.692 -11.919,10.68 -11.934,10.667C-11.932,10.666 -11.929,10.667 -11.927,10.665L-9.417,8.84C-9.097,9.29 -8.681,9.734 -8.22,10.159M-0.432,14.174C-2.007,14.578 -5.314,14.3 -6.984,13.871L-5.193,12.677C-5.124,12.631 -5.076,12.568 -5.038,12.5C-4.933,12.565 -4.827,12.63 -4.728,12.69C-4.233,12.986 -3.79,13.087 -3.416,13.087C-2.642,13.087 -2.16,12.655 -2.131,12.628C-2.107,12.607 -2.096,12.578 -2.077,12.553C-1.674,12.845 -1.254,13.185 -0.824,13.614C-0.666,13.773 -0.537,13.966 -0.432,14.174M-2.652,10.976C-3.222,10.619 -3.714,10.31 -4.117,9.907C-4.628,9.397 -5.49,7.916 -6.178,6.651C-6.184,6.62 -6.183,6.589 -6.194,6.558C-6.434,5.952 -6.712,5.434 -7.022,5.001C-7.242,4.187 -8.299,0.761 -10.471,0.761C-11.706,0.761 -11.933,1.853 -12.098,2.65C-12.302,3.634 -12.483,4.501 -13.799,4.711C-13.852,4.717 -13.894,4.72 -13.941,4.725C-14.104,4.744 -14.272,4.761 -14.47,4.761L-14.471,4.761C-14.806,4.761 -15.855,4.265 -16.37,3.304C-16.821,2.46 -16.716,1.53 -16.055,0.538C-15.628,-0.102 -15.921,-0.448 -16.066,-0.568C-16.83,-1.195 -19.181,0.264 -19.824,0.907C-20.241,1.324 -20.801,2.137 -21.113,3.015C-21.314,3.579 -21.385,4.096 -21.328,4.545C-21.493,4.621 -21.659,4.742 -21.824,4.907C-22.958,6.041 -22.971,7.212 -22.971,7.261C-22.971,7.421 -22.895,7.572 -22.765,7.666C-22.321,7.988 -11.857,15.565 -7.604,16.743C-6.913,16.934 -5.748,16.997 -4.51,16.997C-2.179,16.997 0.409,16.774 0.573,16.759C0.831,16.737 1.029,16.52 1.029,16.261C1.029,16.171 1.017,14.041 -0.117,12.907C-1.038,11.987 -1.896,11.449 -2.652,10.976" />
                    </g>
                    <g transform="matrix(1,0,0,1,0.5,15)">
                        <path d="M0,1L2,1C2.276,1 2.5,0.776 2.5,0.5C2.5,0.224 2.276,0 2,0L0,0C-0.276,0 -0.5,0.224 -0.5,0.5C-0.5,0.776 -0.276,1 0,1" />
                    </g>
                    <g transform="matrix(1,0,0,1,0.5,17)">
                        <path d="M0,1L5,1C5.276,1 5.5,0.776 5.5,0.5C5.5,0.224 5.276,0 5,0L0,0C-0.276,0 -0.5,0.224 -0.5,0.5C-0.5,0.776 -0.276,1 0,1" />
                    </g>
                    <g transform="matrix(1,0,0,1,9,19.5)">
                        <path d="M0,0C0,-0.276 -0.224,-0.5 -0.5,-0.5L-8.5,-0.5C-8.776,-0.5 -9,-0.276 -9,0C-9,0.276 -8.776,0.5 -8.5,0.5L-0.5,0.5C-0.224,0.5 0,0.276 0,0" /></g>
</svg>
