<svg xmlns="http://www.w3.org/2000/svg" viewBox="0 0 24 24" style="fill-rule:evenodd;clip-rule:evenodd;stroke-linejoin:round;stroke-miterlimit:1.41421;"><path d="M2.416,12.164l1.137,-1.229l0.643,-0.446c1.495,-1.211 2.777,-2.075 4.169,-2.356c0.457,-0.092 1.729,-0.133 2.135,-0.133c1.153,0 1.8,0.09 1.981,0.339l2.119,2.106c0.082,0.082 0.19,0.133 0.306,0.143l6.648,0.618l0.485,1.896c0.023,0.091 0.071,0.173 0.14,0.238l0.777,0.741c0.021,0.02 0.061,0.117 0.036,0.239l-0.278,1.405c-0.041,0.204 -0.082,0.275 -0.391,0.275l-1.373,0c0.032,-0.162 0.05,-0.329 0.05,-0.5c0,-1.378 -1.121,-2.5 -2.499,-2.5c-1.379,0 -2.501,1.122 -2.501,2.5c0,0.171 0.018,0.338 0.05,0.5l-7.482,0c0.033,-0.162 0.05,-0.329 0.05,-0.5c0,-1.378 -1.121,-2.5 -2.499,-2.5c-1.379,0 -2.501,1.122 -2.501,2.5c0,0.171 0.018,0.338 0.05,0.5l-2.253,0c-0.183,0 -0.39,-0.054 -0.413,-0.453l0.443,-1.305c0.018,-0.052 0.027,-0.106 0.027,-0.161l0,-0.81c0.304,-0.385 0.619,-0.755 0.944,-1.107m16.085,4.836c-0.828,0 -1.501,-0.673 -1.501,-1.5c0,-0.827 0.673,-1.5 1.501,-1.5c0.826,0 1.499,0.673 1.499,1.5c0,0.827 -0.673,1.5 -1.499,1.5m-12.382,0c-0.828,0 -1.501,-0.673 -1.501,-1.5c0,-0.827 0.673,-1.5 1.501,-1.5c0.826,0 1.499,0.673 1.499,1.5c0,0.827 -0.673,1.5 -1.499,1.5m-5.503,-4.258c-0.094,0.123 -0.144,0.278 -0.144,0.438l0,0.818l-0.446,1.312c-0.017,0.052 -0.026,0.106 -0.026,0.161c0,1.056 0.711,1.529 1.415,1.529l2.662,0c0.014,0 0.027,-0.001 0.041,-0.002c0.457,0.608 1.184,1.002 2.001,1.002c0.822,0 1.554,-0.399 2.01,-1.015c0.038,0.01 0.079,0.015 0.121,0.015l8,0c0.077,0 0.15,-0.018 0.216,-0.049c0.454,0.635 1.197,1.049 2.035,1.049c0.816,0 1.542,-0.393 1.998,-1l1.824,0c0.956,0 1.274,-0.587 1.371,-1.081l0.279,-1.402c0.088,-0.435 -0.041,-0.891 -0.328,-1.162l-0.672,-0.64l-0.51,-1.99c-0.07,-0.273 -0.287,-0.466 -0.552,-0.491l-6.734,-0.625l-1.931,-1.908c-0.483,-0.701 -1.791,-0.701 -2.746,-0.701c-0.245,0 -1.715,0.028 -2.332,0.153c-1.771,0.357 -3.304,1.508 -4.569,2.536l-0.453,0.311l-1.337,0l-0.862,-1.724c-0.124,-0.247 -0.423,-0.345 -0.671,-0.223c-0.247,0.123 -0.346,0.423 -0.223,0.671l1,2c0.085,0.169 0.258,0.276 0.447,0.276l0.63,0l-0.448,0.485c-0.357,0.386 -0.714,0.806 -1.066,1.257" /></svg>