<svg xmlns="http://www.w3.org/2000/svg" viewBox="0 0 24 24" style="fill-rule:evenodd;clip-rule:evenodd;stroke-linejoin:round;stroke-miterlimit:1.41421;">
                <g transform="matrix(1,0,0,1,0,6)">
                    <path d="M1,4L5,4L5,14L1,14L1,4ZM0.5,15L5.5,15C5.776,15 6,14.776 6,14.5L6,3.5C6,3.224 5.776,3 5.5,3L0.5,3C0.224,3 0,3.224 0,3.5L0,14.5C0,14.776 0.224,15 0.5,15" />
                </g>
                <g transform="matrix(1,0,0,1,0,-1)">
                    <path d="M10,4L14,4L14,21L10,21L10,4ZM14.5,22C14.776,22 15,21.776 15,21.5L15,3.5C15,3.224 14.776,3 14.5,3L9.5,3C9.224,3 9,3.224 9,3.5L9,21.5C9,21.776 9.224,22 9.5,22L14.5,22Z" />
                </g>
                <g transform="matrix(1,0,0,1,0,8)">
                    <path d="M23,12L19,12L19,4L23,4L23,12ZM23.5,3L18.5,3C18.224,3 18,3.224 18,3.5L18,12.5C18,12.776 18.224,13 18.5,13L23.5,13C23.776,13 24,12.776 24,12.5L24,3.5C24,3.224 23.776,3 23.5,3" />
                </g>
</svg>
