<svg xmlns="http://www.w3.org/2000/svg" viewBox="0 0 24 24" style="fill-rule:evenodd;clip-rule:evenodd;stroke-linejoin:round;stroke-miterlimit:1.41421;"><path d="M12,13c-0.551,0 -1,-0.449 -1,-1c0,-0.551 0.449,-1 1,-1c0.551,0 1,0.449 1,1c0,0.551 -0.449,1 -1,1m2,-1c0,-1.103 -0.897,-2 -2,-2c-1.103,0 -2,0.897 -2,2c0,1.103 0.897,2 2,2c1.103,0 2,-0.897 2,-2" /><path d="M10.199,20.241c-3.88,-0.834 -6.644,-4.221 -6.644,-8.241c0,-0.183 0.008,-0.37 0.024,-0.57c3.879,0.834 6.643,4.219 6.643,8.237c0,0.186 -0.008,0.376 -0.023,0.574m-6.984,-9.894c-0.134,-0.021 -0.269,0.014 -0.376,0.094c-0.108,0.081 -0.179,0.202 -0.196,0.335c-0.06,0.457 -0.088,0.846 -0.088,1.224c0,4.694 3.368,8.615 8.008,9.324c0.025,0.004 0.05,0.006 0.075,0.006c0.108,0 0.213,-0.035 0.3,-0.1c0.108,-0.08 0.178,-0.2 0.196,-0.333c0.059,-0.44 0.088,-0.842 0.088,-1.23c0,-4.691 -3.368,-8.611 -8.007,-9.32" /><path d="M12,23c-6.065,0 -11,-4.935 -11,-11c0,-6.065 4.935,-11 11,-11c6.065,0 11,4.935 11,11c0,6.065 -4.935,11 -11,11m0,-23c-6.617,0 -12,5.383 -12,12c0,6.617 5.383,12 12,12c6.617,0 12,-5.383 12,-12c0,-6.617 -5.383,-12 -12,-12" /><path d="M12,7.666c-2.635,0 -5.222,0.295 -7.705,0.879c1.346,-3.019 4.336,-4.99 7.705,-4.99c3.369,0 6.359,1.971 7.705,4.99c-2.483,-0.584 -5.07,-0.879 -7.705,-0.879m0,-5.111c-4.119,0 -7.732,2.634 -8.99,6.555c-0.056,0.175 -0.012,0.366 0.114,0.498c0.126,0.133 0.315,0.188 0.491,0.138c5.365,-1.434 11.405,-1.434 16.77,0c0.043,0.012 0.086,0.017 0.129,0.017c0.135,0 0.267,-0.055 0.362,-0.155c0.126,-0.132 0.17,-0.323 0.114,-0.498c-1.258,-3.921 -4.871,-6.555 -8.99,-6.555" /><path d="M13.539,20.297c-0.018,-0.214 -0.026,-0.423 -0.026,-0.63c0,-4.084 2.934,-7.565 6.903,-8.297c0.019,0.225 0.029,0.431 0.029,0.63c0,4.086 -2.935,7.567 -6.906,8.297m-1.026,-0.63c0,0.414 0.03,0.83 0.092,1.272c0.035,0.25 0.248,0.431 0.495,0.431c0.02,0 0.04,-0.001 0.061,-0.004c4.723,-0.58 8.284,-4.607 8.284,-9.366c0,-0.385 -0.03,-0.788 -0.094,-1.269c-0.037,-0.272 -0.286,-0.469 -0.557,-0.43c-4.721,0.581 -8.281,4.608 -8.281,9.366" /></svg>