<svg xmlns="http://www.w3.org/2000/svg" viewBox="0 0 24 24" style="fill-rule:evenodd;clip-rule:evenodd;stroke-linejoin:round;stroke-miterlimit:1.41421;"><path d="M7,3l10,0l0,4l-10,0l0,-4Zm-0.5,5l11,0c0.276,0 0.5,-0.224 0.5,-0.5l0,-5c0,-0.276 -0.224,-0.5 -0.5,-0.5l-11,0c-0.276,0 -0.5,0.224 -0.5,0.5l0,5c0,0.276 0.224,0.5 0.5,0.5" /><path d="M17,21l-10,0l0,-4l10,0l0,4Zm0.5,-5l-11,0c-0.276,0 -0.5,0.224 -0.5,0.5l0,5c0,0.276 0.224,0.5 0.5,0.5l11,0c0.276,0 0.5,-0.224 0.5,-0.5l0,-5c0,-0.276 -0.224,-0.5 -0.5,-0.5" /><path d="M1,10l9.5,0l0,4l-9.5,0l0,-4Zm-0.5,5l10.5,0c0.276,0 0.5,-0.224 0.5,-0.5l0,-5c0,-0.276 -0.224,-0.5 -0.5,-0.5l-10.5,0c-0.276,0 -0.5,0.224 -0.5,0.5l0,5c0,0.276 0.224,0.5 0.5,0.5" /><path d="M23,14l-9.5,0l0,-4l9.5,0l0,4Zm0.5,-5l-10.5,0c-0.276,0 -0.5,0.224 -0.5,0.5l0,5c0,0.276 0.224,0.5 0.5,0.5l10.5,0c0.276,0 0.5,-0.224 0.5,-0.5l0,-5c0,-0.276 -0.224,-0.5 -0.5,-0.5" /></svg>