<svg xmlns="http://www.w3.org/2000/svg" viewBox="0 0 24 24" style="fill-rule:evenodd;clip-rule:evenodd;stroke-linejoin:round;stroke-miterlimit:1.41421;"><path d="M18.398,11.037c-0.152,0.263 -0.198,0.565 -0.141,0.801c0.114,0.91 0.173,1.916 0.173,2.908c0,4.006 -0.998,7.228 -1.509,7.446c-0.538,0 -0.762,-1.878 -0.912,-3.12l-0.091,-0.749c-0.308,-2.398 -0.729,-5.683 -3.918,-5.683c-3.235,0 -3.653,3.311 -3.969,5.812l-0.084,0.68c-0.137,1.13 -0.363,3.011 -0.851,3.059c-0.542,-0.267 -1.522,-3.47 -1.522,-7.442c-0.004,-0.97 0.056,-1.961 0.179,-2.936c0.038,-0.258 -0.012,-0.523 -0.145,-0.765c-1.57,-2.859 -2.243,-5.736 -1.637,-6.995c0.527,-1.088 1.352,-1.553 2.761,-1.553c0.36,0 1.495,0.245 2.495,0.461c1.176,0.254 2.287,0.494 2.773,0.494c0.487,0 1.602,-0.24 2.783,-0.494c0.998,-0.215 2.13,-0.459 2.487,-0.459c1.41,0 2.235,0.464 2.758,1.55c0.606,1.261 -0.066,4.138 -1.63,6.985m2.53,-7.418c-0.693,-1.444 -1.856,-2.117 -3.658,-2.117c-0.433,0 -1.308,0.182 -2.698,0.481c-1.028,0.221 -2.192,0.472 -2.572,0.472c-0.379,0 -1.539,-0.251 -2.562,-0.471c-1.393,-0.301 -2.27,-0.484 -2.706,-0.484c-1.8,0 -2.963,0.673 -3.661,2.119c-0.926,1.921 0.316,5.462 1.66,7.91c0.027,0.05 0.038,0.099 0.031,0.15c-0.129,1.027 -0.192,2.061 -0.188,3.072c0,2.943 0.734,8.441 2.504,8.441c1.386,0 1.617,-1.914 1.862,-3.941l0.094,-0.758c0.358,-2.842 0.781,-4.853 2.966,-4.853c2.143,0 2.565,1.994 2.937,4.901l0.08,0.65c0.246,2.057 0.479,4.001 1.904,4.001c1.773,0 2.509,-5.501 2.509,-8.446c0,-1.048 -0.06,-2.068 -0.189,-3.083c-0.009,-0.039 -0.001,-0.085 0.028,-0.135c1.344,-2.447 2.585,-5.986 1.659,-7.909" /></svg>