<svg xmlns="http://www.w3.org/2000/svg" viewBox="0 0 24 24" style="fill-rule:evenodd;clip-rule:evenodd;stroke-linejoin:round;stroke-miterlimit:1.41421;"><path d="M18.5,19c0.827,0 1.5,0.673 1.5,1.5c0,0.827 -0.673,1.5 -1.5,1.5c-0.827,0 -1.5,-0.673 -1.5,-1.5c0,-0.827 0.673,-1.5 1.5,-1.5m-5,-5l0,0.004c-0.521,-1.246 -1.421,-2.292 -2.552,-3.004l5.552,0c0.827,0 1.5,0.673 1.5,1.5l0,1.5l-4.5,0Zm-4.793,2l3.017,-3.017c0.695,0.834 1.147,1.875 1.251,3.017l-4.268,0Zm3.017,4.017l-3.017,-3.017l4.268,0c-0.104,1.142 -0.556,2.183 -1.251,3.017m-3.724,1.958l0,-4.268l3.017,3.017c-0.834,0.695 -1.875,1.147 -3.017,1.251m0,-10.95c1.142,0.104 2.183,0.556 3.017,1.251l-3.017,3.017l0,-4.268Zm-1,4.268l-3.017,-3.017c0.834,-0.695 1.875,-1.147 3.017,-1.251l0,4.268Zm0,6.682c-1.142,-0.104 -2.183,-0.556 -3.017,-1.251l3.017,-3.017l0,4.268Zm-4.975,-4.975l4.268,0l-3.017,3.017c-0.695,-0.834 -1.147,-1.875 -1.251,-3.017m1.251,-4.017l3.017,3.017l-4.268,0c0.104,-1.142 0.556,-2.183 1.251,-3.017m4.724,-6.983l5.5,0c0.649,0 1,0.258 1,0.5c0,0.242 -0.351,0.5 -1,0.5l-5.5,0l0,-1Zm8,14.5c0,1.379 1.121,2.5 2.5,2.5c1.379,0 2.5,-1.121 2.5,-2.5c0,-1.208 -0.86,-2.217 -2,-2.449l0,-3.051l0,-1l0,-1.5c0,-1.379 -1.121,-2.5 -2.5,-2.5l-7,0c-0.827,0 -1.5,-0.673 -1.5,-1.5l0,-0.5l5.5,0c1.313,0 2,-0.755 2,-1.5c0,-0.745 -0.687,-1.5 -2,-1.5l-5.5,0l0,-1.5c0,-1.379 -1.121,-2.5 -2.5,-2.5l-2,0c-0.276,0 -0.5,0.224 -0.5,0.5c0,0.276 0.224,0.5 0.5,0.5l2,0c0.827,0 1.5,0.673 1.5,1.5l0,5c0,0.565 0.195,1.081 0.513,1.501c-0.004,0 -0.009,-0.001 -0.013,-0.001c-3.584,0 -6.5,2.916 -6.5,6.5c0,3.584 2.916,6.5 6.5,6.5c3.584,0 6.5,-2.916 6.5,-6.5c0,-0.517 -0.067,-1.018 -0.182,-1.5l4.182,0l0,3.051c-1.14,0.232 -2,1.241 -2,2.449" /><path d="M18.5,21c0.276,0 0.5,-0.224 0.5,-0.5c0,-0.276 -0.224,-0.5 -0.5,-0.5c-0.276,0 -0.5,0.224 -0.5,0.5c0,0.276 0.224,0.5 0.5,0.5" /></svg>