<svg xmlns="http://www.w3.org/2000/svg" viewBox="0 0 24 24" style="fill-rule:evenodd;clip-rule:evenodd;stroke-linejoin:round;stroke-miterlimit:1.41421;"><path d="M6.995,9.008c0,-0.561 0.266,-1.081 0.696,-1.402l2.344,2.402c-0.311,0.452 -0.818,0.73 -1.365,0.73c-0.924,0 -1.675,-0.776 -1.675,-1.73m4.114,1.118c0.082,-0.187 0.042,-0.405 -0.099,-0.551l-2.875,-2.947c-0.149,-0.151 -0.376,-0.193 -0.569,-0.105c-0.955,0.443 -1.571,1.418 -1.571,2.485c0,1.505 1.2,2.73 2.675,2.73c1.051,0 2.008,-0.633 2.439,-1.612" /><path d="M15.33,10.738c-0.547,0 -1.055,-0.278 -1.365,-0.729l2.344,-2.403c0.431,0.321 0.697,0.841 0.697,1.402c0,0.954 -0.752,1.73 -1.676,1.73m1.104,-4.215c-0.194,-0.09 -0.42,-0.047 -0.569,0.105l-2.875,2.947c-0.141,0.146 -0.181,0.364 -0.099,0.551c0.431,0.979 1.388,1.612 2.439,1.612c1.476,0 2.676,-1.225 2.676,-2.73c0,-1.067 -0.617,-2.042 -1.572,-2.485" /><path d="M14.015,17l-4.029,0c-0.543,0 -0.986,-0.449 -0.986,-1c0,-0.551 0.443,-1 0.986,-1l4.029,0c0.543,0 0.985,0.449 0.985,1c0,0.551 -0.442,1 -0.985,1m0,-3l-4.029,0c-1.095,0 -1.986,0.897 -1.986,2c0,1.103 0.891,2 1.986,2l4.029,0c1.095,0 1.985,-0.897 1.985,-2c0,-1.103 -0.89,-2 -1.985,-2" /><path d="M15.984,20.574c-0.125,0.087 -0.204,0.226 -0.214,0.378c-0.01,0.152 0.05,0.301 0.163,0.403c0.193,0.175 0.315,0.444 0.332,0.732c-0.031,0.503 -0.365,0.913 -0.757,0.913l-7.017,0c-0.392,0 -0.726,-0.41 -0.757,-0.913c0.018,-0.288 0.14,-0.557 0.332,-0.732c0.113,-0.102 0.173,-0.251 0.163,-0.403c-0.01,-0.152 -0.089,-0.291 -0.214,-0.378c-2.376,-1.649 -3.972,-6.535 -3.972,-10.065c0,-5.243 3.569,-9.509 7.957,-9.509c4.387,0 7.957,4.266 7.957,9.509c0,3.53 -1.597,8.416 -3.973,10.065m4.973,-10.065c0,-5.794 -4.019,-10.509 -8.957,-10.509c-4.939,0 -8.957,4.715 -8.957,10.509c0,3.568 1.51,8.453 3.981,10.561c-0.143,0.241 -0.236,0.514 -0.273,0.802c-0.013,0.043 -0.02,0.089 -0.02,0.137l0,0.154c0,0.047 0.007,0.093 0.019,0.136c0.124,0.961 0.857,1.701 1.741,1.701l7.017,0c0.884,0 1.618,-0.74 1.742,-1.701c0.011,-0.043 0.018,-0.089 0.018,-0.136l0,-0.154c0,-0.048 -0.007,-0.094 -0.019,-0.137c-0.037,-0.288 -0.131,-0.561 -0.274,-0.802c2.471,-2.108 3.982,-6.993 3.982,-10.561" /></svg>