<svg xmlns="http://www.w3.org/2000/svg" viewBox="0 0 24 24" style="fill-rule:evenodd;clip-rule:evenodd;stroke-linejoin:round;stroke-miterlimit:1.41421;"><path d="M20,17l-16,0l0,-13l16,0l0,13Zm0,3.674c0,0.731 -0.673,1.326 -1.5,1.326l-13,0c-0.827,0 -1.5,-0.595 -1.5,-1.326l0,-2.674l16,0l0,2.674Zm-14.5,-18.674l13,0c0.699,0 1.283,0.427 1.448,1l-15.896,0c0.165,-0.573 0.749,-1 1.448,-1m15.5,15.5l0,-14l0,-0.174c0,-1.282 -1.121,-2.326 -2.5,-2.326l-13,0c-1.379,0 -2.5,1.044 -2.5,2.326l0,17.348c0,1.282 1.121,2.326 2.5,2.326l13,0c1.379,0 2.5,-1.044 2.5,-2.326l0,-3.174Z" /><path d="M12,19.435c0.312,0 0.564,0.254 0.564,0.565c0,0.312 -0.252,0.566 -0.564,0.566c-0.312,0 -0.564,-0.254 -0.564,-0.566c0,-0.311 0.252,-0.565 0.564,-0.565m0,2.131c0.865,0 1.564,-0.7 1.564,-1.566c0,-0.865 -0.699,-1.565 -1.564,-1.565c-0.865,0 -1.564,0.7 -1.564,1.565c0,0.866 0.699,1.566 1.564,1.566" /><path d="M6,6l2,0l0,2l-2,0l0,-2Zm0,3l2,0c0.552,0 1,-0.448 1,-1l0,-2c0,-0.552 -0.448,-1 -1,-1l-2,0c-0.552,0 -1,0.448 -1,1l0,2c0,0.552 0.448,1 1,1" /><path d="M11,6l2,0l0,2l-2,0l0,-2Zm0,3l2,0c0.552,0 1,-0.448 1,-1l0,-2c0,-0.552 -0.448,-1 -1,-1l-2,0c-0.552,0 -1,0.448 -1,1l0,2c0,0.552 0.448,1 1,1" /><path d="M16,6l2,0l0,2l-2,0l0,-2Zm0,3l2,0c0.552,0 1,-0.448 1,-1l0,-2c0,-0.552 -0.448,-1 -1,-1l-2,0c-0.552,0 -1,0.448 -1,1l0,2c0,0.552 0.448,1 1,1" /><path d="M6,11l2,0l0,2l-2,0l0,-2Zm0,3l2,0c0.552,0 1,-0.448 1,-1l0,-2c0,-0.552 -0.448,-1 -1,-1l-2,0c-0.552,0 -1,0.448 -1,1l0,2c0,0.552 0.448,1 1,1" /><path d="M11,11l2,0l0,2l-2,0l0,-2Zm0,3l2,0c0.552,0 1,-0.448 1,-1l0,-2c0,-0.552 -0.448,-1 -1,-1l-2,0c-0.552,0 -1,0.448 -1,1l0,2c0,0.552 0.448,1 1,1" /></svg>