<svg xmlns="http://www.w3.org/2000/svg" viewBox="0 0 24 24" style="fill-rule:evenodd;clip-rule:evenodd;stroke-linejoin:round;stroke-miterlimit:1.41421;">
<g transform="matrix(1,0,0,1,20,2.5)">
                    <path d="M0,19C0,19.276 -0.225,19.5 -0.5,19.5L-15.5,19.5C-15.775,19.5 -16,19.276 -16,19L-16,0C-16,-0.276 -15.775,-0.5 -15.5,-0.5L-0.5,-0.5C-0.225,-0.5 0,-0.276 0,0L0,19ZM-0.5,-1.5L-15.5,-1.5C-16.327,-1.5 -17,-0.827 -17,0L-17,19C-17,19.827 -16.327,20.5 -15.5,20.5L-0.5,20.5C0.327,20.5 1,19.827 1,19L1,0C1,-0.827 0.327,-1.5 -0.5,-1.5" />
                </g>
                <g transform="matrix(1,0,0,1,7.5,6)">
                    <path d="M0,1C-0.275,1 -0.5,0.776 -0.5,0.5C-0.5,0.224 -0.275,0 0,0C0.275,0 0.5,0.224 0.5,0.5C0.5,0.776 0.275,1 0,1M0,-1C-0.827,-1 -1.5,-0.327 -1.5,0.5C-1.5,1.327 -0.827,2 0,2C0.827,2 1.5,1.327 1.5,0.5C1.5,-0.327 0.827,-1 0,-1" />
                </g>
                <g transform="matrix(1,0,0,1,7.5,11)">
                    <path d="M0,1C-0.275,1 -0.5,0.776 -0.5,0.5C-0.5,0.224 -0.275,0 0,0C0.275,0 0.5,0.224 0.5,0.5C0.5,0.776 0.275,1 0,1M0,-1C-0.827,-1 -1.5,-0.327 -1.5,0.5C-1.5,1.327 -0.827,2 0,2C0.827,2 1.5,1.327 1.5,0.5C1.5,-0.327 0.827,-1 0,-1" />
                </g>
                <g transform="matrix(1,0,0,1,7.5,16)">
                    <path d="M0,1C-0.275,1 -0.5,0.776 -0.5,0.5C-0.5,0.224 -0.275,0 0,0C0.275,0 0.5,0.224 0.5,0.5C0.5,0.776 0.275,1 0,1M0,-1C-0.827,-1 -1.5,-0.327 -1.5,0.5C-1.5,1.327 -0.827,2 0,2C0.827,2 1.5,1.327 1.5,0.5C1.5,-0.327 0.827,-1 0,-1" />
                </g>
                <g transform="matrix(1,0,0,1,17.5,7)">
                    <path d="M0,-1L-6,-1C-6.276,-1 -6.5,-0.776 -6.5,-0.5C-6.5,-0.224 -6.276,0 -6,0L0,0C0.276,0 0.5,-0.224 0.5,-0.5C0.5,-0.776 0.276,-1 0,-1" />
                </g>
                <g transform="matrix(1,0,0,1,17.5,12)">
                    <path d="M0,-1L-6,-1C-6.276,-1 -6.5,-0.776 -6.5,-0.5C-6.5,-0.224 -6.276,0 -6,0L0,0C0.276,0 0.5,-0.224 0.5,-0.5C0.5,-0.776 0.276,-1 0,-1" />
                </g>
                <g transform="matrix(1,0,0,1,17.5,17)">
                    <path d="M0,-1L-6,-1C-6.276,-1 -6.5,-0.776 -6.5,-0.5C-6.5,-0.224 -6.276,0 -6,0L0,0C0.276,0 0.5,-0.224 0.5,-0.5C0.5,-0.776 0.276,-1 0,-1" />
                </g>
</svg>
