<svg xmlns="http://www.w3.org/2000/svg" viewBox="0 0 24 24" style="fill-rule:evenodd;clip-rule:evenodd;stroke-linejoin:round;stroke-miterlimit:1.41421;">
<g transform="matrix(1,0,0,1,19,19)">
<path d="M0,-15L0,3L-14,3L-14,-15L-12,-15L-12,-14.5C-12,-14.224 -11.776,-14 -11.5,-14L-2.5,-14C-2.224,-14 -2,-14.224 -2,-14.5L-2,-15L0,-15ZM-11,-16L-8.5,-16C-8.311,-16 -8.138,-16.107 -8.053,-16.276L-7.191,-18L-6.809,-18L-5.947,-16.276C-5.862,-16.107 -5.689,-16 -5.5,-16L-3,-16L-3,-15L-11,-15L-11,-16ZM-2.5,-17L-5.191,-17L-6.053,-18.724C-6.138,-18.893 -6.311,-19 -6.5,-19L-7.5,-19C-7.689,-19 -7.862,-18.893 -7.947,-18.724L-8.809,-17L-11.5,-17C-11.776,-17 -12,-16.776 -12,-16.5L-12,-16L-14.5,-16C-14.776,-16 -15,-15.776 -15,-15.5L-15,3.5C-15,3.776 -14.776,4 -14.5,4L0.5,4C0.776,4 1,3.776 1,3.5L1,-15.5C1,-15.776 0.776,-16 0.5,-16L-2,-16L-2,-16.5C-2,-16.776 -2.224,-17 -2.5,-17" />
</g>
<g transform="matrix(1,0,0,1,16.1465,16.8055)">
<path d="M0,-6.659L-5.646,-1.013L-8.293,-3.659C-8.488,-3.854 -8.805,-3.854 -9,-3.659C-9.195,-3.464 -9.195,-3.147 -9,-2.952L-6,0.048C-5.902,0.146 -5.774,0.195 -5.646,0.195C-5.519,0.195 -5.391,0.146 -5.293,0.048L0.707,-5.952C0.902,-6.147 0.902,-6.464 0.707,-6.659C0.512,-6.854 0.195,-6.854 0,-6.659" />
 </g>
</svg>
