<svg xmlns="http://www.w3.org/2000/svg" viewBox="0 0 24 24" style="fill-rule:evenodd;clip-rule:evenodd;stroke-linejoin:round;stroke-miterlimit:1.41421;"><path d="M20,5l-16,0l0,-2.5c0,-0.275 0.225,-0.5 0.5,-0.5l15,0c0.275,0 0.5,0.225 0.5,0.5l0,2.5Zm0,16.5c0,0.275 -0.225,0.5 -0.5,0.5l-15,0c-0.275,0 -0.5,-0.225 -0.5,-0.5l0,-15.5l16,0l0,15.5Zm-0.5,-20.5l-15,0c-0.827,0 -1.5,0.673 -1.5,1.5l0,19c0,0.827 0.673,1.5 1.5,1.5l15,0c0.827,0 1.5,-0.673 1.5,-1.5l0,-19c0,-0.827 -0.673,-1.5 -1.5,-1.5" /><path d="M9.5,3l-4,0c-0.276,0 -0.5,0.224 -0.5,0.5c0,0.276 0.224,0.5 0.5,0.5l4,0c0.276,0 0.5,-0.224 0.5,-0.5c0,-0.276 -0.224,-0.5 -0.5,-0.5" /><path d="M12,9c2.757,0 5,2.243 5,5c0,2.757 -2.243,5 -5,5c-2.757,0 -5,-2.243 -5,-5c0,-2.757 2.243,-5 5,-5m0,11c3.309,0 6,-2.691 6,-6c0,-3.309 -2.691,-6 -6,-6c-3.309,0 -6,2.691 -6,6c0,3.309 2.691,6 6,6" /><path d="M12,12c1.103,0 2,0.897 2,2c0,1.103 -0.897,2 -2,2c-1.103,0 -2,-0.897 -2,-2c0,-1.103 0.897,-2 2,-2m0,5c1.654,0 3,-1.346 3,-3c0,-1.654 -1.346,-3 -3,-3c-1.654,0 -3,1.346 -3,3c0,1.654 1.346,3 3,3" /><circle cx="17.5" cy="3.5" r="0.5"/></svg>