<svg xmlns="http://www.w3.org/2000/svg" viewBox="0 0 24 24" style="fill-rule:evenodd;clip-rule:evenodd;stroke-linejoin:round;stroke-miterlimit:1.41421;"><path d="M2,3.999l20,0l0,13.001l-7.866,0l-12.134,0l0,-13.001Zm8.109,16.002c0.17,-0.324 0.257,-0.693 0.257,-1.055l0,-0.946l3.268,0l0,0.946c0,0.294 0.127,0.69 0.353,1.055l-3.878,0Zm-9.109,-16.198l0,13.697c0,0.276 0.224,0.5 0.5,0.5l7.866,0l0,0.946c0,0.011 -0.024,1.055 -0.894,1.055c-0.276,0 -0.5,0.224 -0.5,0.5c0,0.276 0.224,0.5 0.5,0.5l7.028,0c0.276,0 0.5,-0.224 0.5,-0.5c0,-0.276 -0.224,-0.5 -0.5,-0.5c-0.436,0 -0.866,-0.775 -0.866,-1.055l0,-0.946l7.866,0c0.276,0 0.5,-0.224 0.5,-0.5l0,-13.697c0,-0.444 -0.373,-0.804 -0.83,-0.804l-20.34,0c-0.457,0 -0.83,0.36 -0.83,0.804" /><path d="M9.5,7l-4,0c-0.276,0 -0.5,0.224 -0.5,0.5c0,0.276 0.224,0.5 0.5,0.5l1.5,0l0,5.5c0,0.276 0.224,0.5 0.5,0.5c0.276,0 0.5,-0.224 0.5,-0.5l0,-5.5l1.5,0c0.276,0 0.5,-0.224 0.5,-0.5c0,-0.276 -0.224,-0.5 -0.5,-0.5" /><path d="M15.5,14c0.189,0 0.362,-0.107 0.447,-0.276l3,-6c0.124,-0.247 0.024,-0.548 -0.223,-0.671c-0.247,-0.123 -0.548,-0.024 -0.671,0.223l-2.553,5.106l-2.553,-5.106c-0.124,-0.247 -0.424,-0.346 -0.671,-0.223c-0.247,0.123 -0.347,0.424 -0.223,0.671l3,6c0.085,0.169 0.258,0.276 0.447,0.276" /></svg>