<svg xmlns="http://www.w3.org/2000/svg" viewBox="0 0 24 24" style="fill-rule:evenodd;clip-rule:evenodd;stroke-linejoin:round;stroke-miterlimit:1.41421;"><path d="M14.503,4.995c0.058,0.009 0.57,0.098 0.57,0.505l0,2c0,0.276 0.223,0.5 0.5,0.5l3,0c0.274,0 0.497,-0.224 0.5,-0.497c0.003,-0.251 0.088,-1.503 1.5,-1.503l1.427,0l0,7.075l-1.853,0c-0.592,-0.001 -1.073,-0.482 -1.073,-1.073l0,-0.502c0,-0.276 -0.224,-0.5 -0.5,-0.5l-7.859,0c-2.642,0 -2.642,1.626 -2.642,2.5l0,1.5l-3.146,0l0,-1.425c0,-3.179 2.428,-5.575 5.646,-5.575c0.276,0 0.5,-0.224 0.5,-0.5l0,-2c0,-0.402 0.275,-0.494 0.5,-0.5c0.276,0 0.5,-0.224 0.5,-0.5l0,-1c0,-0.276 -0.224,-0.5 -0.5,-0.5l-3,0c-0.456,0 -0.618,-0.261 -0.618,-0.505c0,-0.243 0.162,-0.504 0.618,-0.504l9,0c0.451,0 0.612,0.261 0.612,0.504c0,0.244 -0.161,0.505 -0.612,0.505l-3,0c-0.277,0 -0.5,0.224 -0.5,0.5l0,1c0,0.247 0.185,0.458 0.43,0.495m3.07,-0.995c1.058,0 1.612,-0.757 1.612,-1.505c0,-0.747 -0.554,-1.504 -1.612,-1.504l-9,0c-1.063,0 -1.618,0.757 -1.618,1.504c0,0.748 0.555,1.505 1.618,1.505l2.5,0l0,0.083c-0.503,0.167 -1,0.598 -1,1.417l0,1.516c-3.537,0.237 -6.146,2.977 -6.146,6.559l0,1.925c0,0.276 0.224,0.5 0.5,0.5l4.146,0c0.276,0 0.5,-0.224 0.5,-0.5l0,-2c0,-0.871 0,-1.5 1.642,-1.5l7.359,0l0,0.002c0,1.141 0.929,2.072 2.072,2.073l2.354,0c0.276,0 0.5,-0.224 0.5,-0.5l0,-8.075c0,-0.276 -0.224,-0.5 -0.5,-0.5l-1.927,0c-1.639,0 -2.278,1.123 -2.449,2l-2.051,0l0,-1.5c0,-0.774 -0.527,-1.191 -1,-1.379l0,-0.121l2.5,0Z" /><path d="M6.5,23c-0.827,0 -1.5,-0.673 -1.5,-1.5c0,-0.468 0.442,-1.056 0.871,-1.624c0.217,-0.288 0.44,-0.584 0.629,-0.89c0.189,0.306 0.411,0.601 0.628,0.89c0.429,0.568 0.872,1.156 0.872,1.624c0,0.827 -0.673,1.5 -1.5,1.5m0.678,-4.85c-0.12,-0.246 -0.178,-0.458 -0.178,-0.65c0,-0.276 -0.224,-0.5 -0.5,-0.5c-0.276,0 -0.5,0.224 -0.5,0.5c0,0.191 -0.058,0.403 -0.178,0.65c-0.177,0.365 -0.468,0.75 -0.75,1.124c-0.527,0.7 -1.072,1.423 -1.072,2.226c0,1.379 1.121,2.5 2.5,2.5c1.378,0 2.5,-1.121 2.5,-2.5c0,-0.803 -0.545,-1.526 -1.073,-2.226c-0.281,-0.374 -0.572,-0.759 -0.749,-1.124" /></svg>