<svg xmlns="http://www.w3.org/2000/svg" viewBox="0 0 24 24" style="fill-rule:evenodd;clip-rule:evenodd;stroke-linejoin:round;stroke-miterlimit:1.41421;"><path d="M14.196,17.011l-4.398,0c-0.176,-0.352 -0.514,-1.179 -0.837,-2.021l6.053,0c-0.315,0.84 -0.645,1.667 -0.818,2.021m1.521,-3l-7.464,0c-0.16,0 -0.31,0.078 -0.402,0.209c-0.091,0.132 -0.113,0.3 -0.057,0.45c1.23,3.32 1.382,3.32 1.751,3.32l4.907,0c0.369,0 0.522,0 1.725,-3.323c0.054,-0.15 0.032,-0.317 -0.06,-0.448c-0.091,-0.13 -0.241,-0.208 -0.4,-0.208" /><path d="M6.573,10.011l0.636,-4.021l9.64,0.009l0.585,4.012l-10.861,0Zm11.797,0.81c0.094,-0.108 0.135,-0.251 0.115,-0.392l-0.67,-4.588c-0.087,-0.481 -0.517,-0.83 -1.024,-0.83l-9.582,0c-0.505,0 -0.935,0.348 -1.027,0.847l-0.666,4.572c-0.021,0.141 0.021,0.283 0.114,0.391c0.093,0.107 0.228,0.169 0.37,0.169l12,0c0.142,0 0.278,-0.062 0.37,-0.169" /><path d="M5.93,20.011c-0.271,0 -0.489,0.219 -0.489,0.489l0,0.847c0,0.366 -0.325,0.664 -0.725,0.664c-0.4,0 -0.725,-0.298 -0.725,-0.664l-0.001,-4.929l1.776,0c0.618,0 1.12,-0.488 1.12,-1.087l0.001,-0.674c0,-0.24 -0.175,-0.445 -0.413,-0.483c-0.82,-0.131 -1.633,-0.289 -2.421,-0.471l0,-0.856c0,-0.074 0.009,-0.143 0.046,-0.295c0.222,-1.978 1.403,-8.368 1.644,-9.662c0.169,-0.9 0.677,-0.9 0.844,-0.9l10.826,0c0.45,0 0.733,0.303 0.845,0.902c0.014,0.076 1.402,7.513 1.66,9.744c0.02,0.068 0.03,0.136 0.03,0.211l0,0.941c-0.791,0.173 -1.602,0.322 -2.416,0.442c-0.24,0.035 -0.418,0.241 -0.418,0.484l0,0.616c0,0.6 0.503,1.088 1.12,1.088l1.777,0l-0.001,4.929c0,0.366 -0.325,0.664 -0.725,0.664c-0.4,0 -0.725,-0.298 -0.725,-0.664l0,-0.847c0,-0.27 -0.219,-0.489 -0.489,-0.489l-12.141,0Zm-1.898,-5.309c0.614,0.138 1.242,0.262 1.875,0.37l0,0.258c0,0.059 -0.064,0.109 -0.141,0.109l-1.759,0l0.025,-0.737Zm15.961,0.737l-1.759,0c-0.076,0 -0.141,-0.05 -0.141,-0.109l0,-0.196c0.631,-0.101 1.259,-0.218 1.877,-0.349l0.023,0.654Zm-0.708,7.551c0.939,0 1.704,-0.737 1.704,-1.643l0.001,-5.416c0,-0.006 0,-0.013 0,-0.02l-0.063,-1.74l0,-1.324c0,-0.168 -0.024,-0.333 -0.053,-0.404c-0.245,-2.183 -1.596,-9.423 -1.654,-9.732c-0.198,-1.065 -0.873,-1.7 -1.807,-1.7l-10.826,0c-0.931,0 -1.606,0.634 -1.813,1.732c-0.236,1.268 -1.422,7.689 -1.631,9.616c-0.046,0.157 -0.069,0.321 -0.069,0.488l-0.063,3.065c0,0.006 0,0.013 0,0.019l0.001,5.416c0,0.906 0.764,1.643 1.704,1.643c0.939,0 1.703,-0.737 1.703,-1.643l0,-0.357l11.162,0l0,0.357c0,0.906 0.765,1.643 1.704,1.643" /></svg>