<svg xmlns="http://www.w3.org/2000/svg" viewBox="0 0 24 24" style="fill-rule:evenodd;clip-rule:evenodd;stroke-linejoin:round;stroke-miterlimit:1.41421;">
<g transform="matrix(1,0,0,1,22.8789,15.3653)">
<path d="M0,-5.815L-10.165,-0.512C-10.538,-0.317 -11.22,-0.317 -11.593,-0.512L-17.764,-3.732L-10.765,-5.378C-10.495,-5.442 -10.329,-5.711 -10.393,-5.98C-10.455,-6.248 -10.723,-6.415 -10.993,-6.352L-19.121,-4.44L-21.758,-5.815C-21.796,-5.835 -21.824,-5.853 -21.845,-5.861C-21.824,-5.877 -21.796,-5.896 -21.758,-5.916L-11.593,-11.218C-11.22,-11.414 -10.538,-11.414 -10.165,-11.218L0,-5.916C0.038,-5.896 0.066,-5.877 0.087,-5.869C0.066,-5.853 0.038,-5.835 0,-5.815M-3.897,0.393C-3.816,0.722 -4.012,1.166 -4.307,1.325L-10.207,4.493C-10.559,4.682 -11.199,4.682 -11.551,4.493L-17.451,1.325C-17.746,1.166 -17.941,0.722 -17.868,0.42L-17.052,-2.232L-12.056,0.374C-11.726,0.547 -11.303,0.633 -10.879,0.633C-10.455,0.633 -10.032,0.547 -9.702,0.374L-4.706,-2.232L-3.897,0.393ZM-21.379,3.635C-21.654,3.635 -21.879,3.411 -21.879,3.135C-21.879,2.859 -21.654,2.635 -21.379,2.635C-21.104,2.635 -20.879,2.859 -20.879,3.135C-20.879,3.411 -21.104,3.635 -21.379,3.635M0.463,-6.802L-9.702,-12.105C-10.362,-12.45 -11.396,-12.45 -12.056,-12.105L-22.221,-6.802C-22.639,-6.584 -22.879,-6.242 -22.879,-5.865C-22.879,-5.488 -22.639,-5.147 -22.221,-4.928L-19.947,-3.742L-21.758,1.689C-22.4,1.858 -22.879,2.439 -22.879,3.135C-22.879,3.786 -22.46,4.335 -21.879,4.542L-21.879,6.135C-21.879,6.411 -21.655,6.635 -21.379,6.635C-21.103,6.635 -20.879,6.411 -20.879,6.135L-20.879,4.542C-20.298,4.335 -19.879,3.786 -19.879,3.135C-19.879,2.539 -20.23,2.027 -20.735,1.786L-19.049,-3.274L-17.952,-2.702L-18.831,0.153C-19.022,0.928 -18.624,1.83 -17.924,2.206L-12.023,5.374C-11.697,5.549 -11.288,5.637 -10.879,5.637C-10.47,5.637 -10.061,5.549 -9.734,5.374L-3.834,2.206C-3.134,1.83 -2.735,0.928 -2.935,0.126L-3.806,-2.702L0.463,-4.928C0.881,-5.147 1.121,-5.488 1.121,-5.865C1.121,-6.242 0.881,-6.584 0.463,-6.802" />
</g>
</svg>
