<svg xmlns="http://www.w3.org/2000/svg" viewBox="0 0 24 24" style="fill-rule:evenodd;clip-rule:evenodd;stroke-linejoin:round;stroke-miterlimit:1.41421;"><path d="M2.304,9l1.476,1.367c2.642,2.456 3.19,2.975 3.846,2.725c0.518,-0.194 0.58,-0.776 0.675,-1.657c0.026,-0.243 0.056,-0.518 0.097,-0.822c0.085,-0.622 0.185,-1.228 0.303,-1.815c0.056,-0.274 0.114,-0.54 0.176,-0.798l8.623,0c0.405,0 0.476,0.101 0.544,0.769l0.017,0.155c0.049,0.416 0.504,3.323 0.984,6.402c0.01,0.058 0.019,0.116 0.028,0.174c0.001,0.009 0.002,0.018 0.003,0.025c0.429,2.744 0.902,5.768 0.926,6.024c0.014,0.132 -0.012,0.23 -0.078,0.303c-0.085,0.094 -0.239,0.148 -0.424,0.148l-11.993,0c-0.194,0 -0.358,-0.054 -0.439,-0.144c-0.023,-0.025 -0.091,-0.101 -0.071,-0.304c0.072,-0.674 0.197,-1.372 0.319,-2.048c0.115,-0.644 0.231,-1.287 0.311,-1.969c0.088,-0.742 0.042,-0.889 -0.446,-1.435c-2.266,-2.52 -4.636,-5.661 -5.697,-7.1l0.82,0Zm10.392,-7.04c3.161,-1.339 6.872,0.268 8.447,3.659c0.93,2.002 1.03,4.105 0.299,6.25c-0.204,0.602 -0.855,1.534 -1.549,2.402c-0.41,-2.626 -0.797,-5.108 -0.838,-5.463l-0.016,-0.141c-0.055,-0.541 -0.171,-1.667 -1.539,-1.667l-8.357,0c0.792,-2.683 1.982,-4.375 3.553,-5.04m-12.639,6.309c-0.086,0.165 -0.073,0.364 0.033,0.516c0.028,0.041 3.314,4.61 6.346,7.982c0.09,0.1 0.212,0.237 0.228,0.274c0.009,0.044 -0.01,0.213 -0.035,0.42c-0.073,0.619 -0.185,1.242 -0.298,1.866c-0.125,0.694 -0.254,1.41 -0.328,2.121c-0.055,0.533 0.144,0.88 0.322,1.077c0.275,0.306 0.695,0.475 1.182,0.475l11.993,0c0.473,0 0.887,-0.169 1.165,-0.477c0.258,-0.284 0.373,-0.655 0.333,-1.072c-0.025,-0.261 -0.356,-2.384 -0.899,-5.863c0.667,-0.776 1.928,-2.333 2.29,-3.397c0.816,-2.397 0.702,-4.75 -0.34,-6.994c-1.802,-3.882 -6.077,-5.709 -9.744,-4.157c-2.218,0.939 -3.76,3.483 -4.584,7.561c-0.122,0.606 -0.227,1.234 -0.313,1.878c-0.043,0.314 -0.074,0.598 -0.101,0.849c-0.027,0.26 -0.059,0.543 -0.094,0.73c-0.446,-0.279 -1.443,-1.205 -2.752,-2.423l-1.622,-1.503c-0.093,-0.085 -0.213,-0.132 -0.339,-0.132l-2,0c-0.186,0 -0.356,0.104 -0.443,0.269" /></svg>