<svg xmlns="http://www.w3.org/2000/svg" viewBox="0 0 24 24" clip-rule="evenodd" fill-rule="evenodd" stroke-linejoin="round" stroke-miterlimit="1.41421">
<path d="m23 19.5-3-2.25v-2.643l3-2.137zm-4-5.15v4.15c0 .827-.673 1.5-1.5 1.5h-15c-.827 0-1.5-.673-1.5-1.5v-5c0-.827.673-1.5 1.5-1.5h15c.827 0 1.5.673 1.5 1.5zm-16-6.85c0-1.93 1.57-3.5 3.5-3.5s3.5 1.57 3.5 3.5-1.57 3.5-3.5 3.5-3.5-1.57-3.5-3.5m8.706 3.5h-2.412c.502-.401.913-.903 1.206-1.481.293.578.704 1.08 1.206 1.481m2.794-7c1.93 0 3.5 1.57 3.5 3.5s-1.57 3.5-3.5 3.5-3.5-1.57-3.5-3.5 1.57-3.5 3.5-3.5m9.229 7.056c-.167-.086-.368-.072-.519.037l-3.222 2.295c-.059-1.326-1.147-2.388-2.488-2.388h-.206c1.031-.825 1.706-2.079 1.706-3.5 0-2.481-2.019-4.5-4.5-4.5-1.752 0-3.257 1.017-4 2.481-.743-1.464-2.248-2.481-4-2.481-2.481 0-4.5 2.019-4.5 4.5 0 1.421.675 2.675 1.706 3.5h-1.206c-1.379 0-2.5 1.121-2.5 2.5v5c0 1.379 1.121 2.5 2.5 2.5h15c1.379 0 2.5-1.121 2.5-2.5l3.2 2.4c.088.066.194.1.3.1.076 0 .153-.018.224-.053.169-.085.276-.258.276-.447v-9c0-.188-.104-.358-.271-.444"/></svg>