<svg xmlns="http://www.w3.org/2000/svg" viewBox="0 0 24 24" style="fill-rule:evenodd;clip-rule:evenodd;stroke-linejoin:round;stroke-miterlimit:1.41421;">
<g transform="matrix(1,0,0,1,12.5,4.0246)">
<path d="M0,15.95L0,8.475L7.475,8.475C7.225,12.487 4.012,15.7 0,15.95M-8.475,8.475L-1,8.475L-1,15.95C-5.012,15.7 -8.225,12.487 -8.475,8.475M-1,0.001L-1,7.475L-8.475,7.475C-8.225,3.464 -5.012,0.251 -1,0.001M7.475,7.475L0,7.475L0,0.001C4.012,0.251 7.225,3.464 7.475,7.475M11,7.475L8.475,7.475C8.222,2.912 4.563,-0.747 0,-0.999L0,-3.525C0,-3.801 -0.224,-4.025 -0.5,-4.025C-0.776,-4.025 -1,-3.801 -1,-3.525L-1,-0.999C-5.563,-0.747 -9.222,2.912 -9.475,7.475L-12,7.475C-12.276,7.475 -12.5,7.699 -12.5,7.975C-12.5,8.252 -12.276,8.475 -12,8.475L-9.475,8.475C-9.222,13.038 -5.563,16.698 -1,16.95L-1,19.475C-1,19.752 -0.776,19.975 -0.5,19.975C-0.224,19.975 0,19.752 0,19.475L0,16.95C4.563,16.698 8.222,13.038 8.475,8.475L11,8.475C11.276,8.475 11.5,8.252 11.5,7.975C11.5,7.699 11.276,7.475 11,7.475" /> </g>
</svg>
