<svg xmlns="http://www.w3.org/2000/svg" viewBox="0 0 24 24" style="fill-rule:evenodd;clip-rule:evenodd;stroke-linejoin:round;stroke-miterlimit:1.41421;"><path d="M19.925,6.327c1.638,1.715 2.66,3.883 2.973,6.252c-0.521,-0.385 -1.195,-0.579 -2.009,-0.579c-1.496,0 -2.327,0.662 -2.749,1.392c-0.563,-0.722 -1.522,-1.392 -3.009,-1.392c-1.682,0 -2.688,0.855 -3.209,1.677c-0.561,-0.734 -1.571,-1.677 -3.057,-1.677c-1.472,0 -2.477,0.925 -3.04,1.655c-0.47,-0.814 -1.338,-1.655 -2.715,-1.655c-0.879,0 -1.547,0.343 -2.036,0.802c0.276,-2.456 1.31,-4.708 3,-6.477c2.049,-2.144 4.863,-3.325 7.924,-3.325c3.061,0 5.877,1.181 7.927,3.327m-7.925,-6.327c-0.277,0 -0.5,0.223 -0.5,0.5l0,1.524c-3.142,0.122 -6.022,1.385 -8.149,3.61c-2.31,2.418 -3.495,5.657 -3.338,9.121c0.012,0.249 0.205,0.451 0.454,0.474c0.248,0.019 0.476,-0.14 0.533,-0.383c0.018,-0.077 0.454,-1.846 2.11,-1.846c1.66,0 2.118,1.774 2.136,1.85c0.051,0.206 0.226,0.358 0.437,0.379c0.203,0.017 0.412,-0.092 0.502,-0.285c0.009,-0.019 0.929,-1.944 2.68,-1.944c1.523,0 2.429,1.479 2.635,1.857l0,7.499c0,0.625 -0.723,0.644 -0.806,0.644c-0.082,0 -0.805,-0.019 -0.805,-0.644c0,-0.276 -0.224,-0.5 -0.5,-0.5c-0.277,0 -0.5,0.224 -0.5,0.5c0,1.079 0.908,1.644 1.805,1.644c0.898,0 1.806,-0.565 1.806,-1.644l0,-7.559c0.075,-0.263 0.605,-1.797 2.631,-1.797c2.165,0 2.627,1.773 2.646,1.847c0.057,0.245 0.285,0.41 0.539,0.38c0.25,-0.026 0.442,-0.236 0.447,-0.488c0.004,-0.178 0.095,-1.739 2.126,-1.739c2.025,0 2.096,1.556 2.098,1.729c-0.002,0.273 0.214,0.496 0.487,0.503l0.013,0c0.266,0 0.487,-0.21 0.499,-0.477c0.157,-3.463 -1.028,-6.701 -3.338,-9.118c-2.127,-2.227 -5.007,-3.489 -8.148,-3.613l0,-1.524c0,-0.277 -0.224,-0.5 -0.5,-0.5" /></svg>