<svg xmlns="http://www.w3.org/2000/svg" viewBox="0 0 24 24"><path d="m12 1a11 11 0 1 0 11 11 11.03231 11.03231 0 0 0 -11-11zm-2.30371 14.90918h-1.86719v-6.0014h1.86719zm-.93311-6.82218a1.08143 1.08143 0 1 1 1.0813-1.08179 1.0812 1.0812 0 0 1 -1.0813 1.08179zm7.91773 6.8222h-1.86328v-2.9182c0-.69666-.01367-1.59143-.96949-1.59143-.97094 0-1.11889.75769-1.11889 1.54028v2.9693h-1.86353v-6.00137h1.78833v.81976h.02539a1.96021 1.96021 0 0 1 1.7649-.96918c1.88794 0 2.23657 1.24274 2.23657 2.85944z"/></svg>