<svg xmlns="http://www.w3.org/2000/svg" viewBox="0 0 24 24">
<path d="M20.95,17.914C21.076,17.589 21.011,17.22 20.782,16.958C19.541,15.718 18.011,14.804 16.33,14.3C15.731,14.252 15.147,14.517 14.79,15C14.524,15.281 14.228,15.532 13.908,15.748C13.124,15.836 8.164,10.875 8.251,10.092C8.467,9.768 8.719,9.469 9,9.2C9.483,8.842 9.748,8.259 9.7,7.66C9.193,5.979 8.277,4.45 7.034,3.21C6.772,2.981 6.403,2.916 6.078,3.041C4.818,3.464 3.755,4.334 3.091,5.485C2.511,7.4 4.739,11.7 8.518,15.474C12.543,19.499 16.588,21.481 18.507,20.9C19.658,20.236 20.527,19.174 20.95,17.914Z"/>
</svg>
