<svg xmlns="http://www.w3.org/2000/svg" viewBox="0 0 24 24" style="fill-rule:evenodd;clip-rule:evenodd;stroke-linejoin:round;stroke-miterlimit:1.41421;"><path d="M1.794,15l0.755,0c0.233,0 0.436,-0.162 0.488,-0.391l0.635,-2.822l0.629,2.821c0.051,0.23 0.254,0.392 0.488,0.392l0.766,0c0.227,0 0.426,-0.154 0.484,-0.375l1.295,-5c0.069,-0.267 -0.092,-0.54 -0.359,-0.609c-0.271,-0.069 -0.54,0.092 -0.61,0.359l-1.185,4.579l-1.018,-4.562c-0.051,-0.229 -0.254,-0.392 -0.488,-0.392c-0.234,0 -0.437,0.162 -0.488,0.391l-1.022,4.543l-1.18,-4.559c-0.069,-0.267 -0.338,-0.428 -0.609,-0.359c-0.268,0.069 -0.429,0.342 -0.359,0.609l1.294,5c0.057,0.221 0.256,0.375 0.484,0.375" /><path d="M10.119,15l0.755,0c0.233,0 0.436,-0.162 0.488,-0.391l0.635,-2.822l0.629,2.821c0.051,0.23 0.254,0.392 0.488,0.392l0.766,0c0.227,0 0.426,-0.154 0.484,-0.375l1.295,-5c0.069,-0.267 -0.092,-0.54 -0.359,-0.609c-0.272,-0.069 -0.54,0.092 -0.61,0.359l-1.185,4.579l-1.018,-4.562c-0.051,-0.229 -0.254,-0.392 -0.488,-0.392c-0.234,0 -0.437,0.162 -0.488,0.391l-1.022,4.543l-1.18,-4.559c-0.069,-0.267 -0.338,-0.428 -0.609,-0.359c-0.268,0.069 -0.429,0.342 -0.359,0.609l1.294,5c0.057,0.221 0.256,0.375 0.484,0.375" /><path d="M23.625,9.016c-0.269,-0.068 -0.54,0.093 -0.609,0.359l-1.186,4.579l-1.017,-4.562c-0.05,-0.229 -0.253,-0.392 -0.487,-0.392l-0.001,0c-0.233,0 -0.436,0.162 -0.487,0.391l-1.024,4.543l-1.179,-4.559c-0.07,-0.266 -0.34,-0.427 -0.61,-0.359c-0.267,0.069 -0.428,0.343 -0.359,0.609l1.294,5c0.058,0.221 0.257,0.375 0.484,0.375l0.755,0c0.234,0 0.437,-0.162 0.488,-0.39l0.635,-2.823l0.629,2.822c0.051,0.228 0.254,0.391 0.488,0.391l0.766,0c0.228,0 0.427,-0.154 0.484,-0.375l1.295,-5c0.07,-0.266 -0.091,-0.54 -0.359,-0.609" /></svg>