<svg xmlns="http://www.w3.org/2000/svg" viewBox="0 0 24 24">
<path id="Fill-4" d="M14.516,14.131C14.658,13.987 14.728,13.795 14.728,13.555C14.728,13.316 14.658,13.123 14.516,12.98C14.374,12.835 14.184,12.763 13.944,12.763L13.248,12.763L13.248,14.347L13.944,14.347C14.184,14.347 14.374,14.276 14.516,14.131M17.835,15.071C17.69,14.946 17.488,14.883 17.226,14.883L17.003,14.883L17.003,14.003L17.226,14.003C17.451,14.003 17.62,13.944 17.734,13.827C17.849,13.71 17.907,13.545 17.907,13.331C17.907,13.129 17.85,12.969 17.739,12.852C17.627,12.733 17.469,12.675 17.266,12.675C16.989,12.675 16.741,12.763 16.522,12.939L16.379,12.06C16.693,11.846 17.032,11.739 17.394,11.739C17.847,11.739 18.213,11.878 18.491,12.155C18.768,12.433 18.907,12.798 18.907,13.251C18.907,13.507 18.858,13.736 18.762,13.939C18.667,14.142 18.52,14.302 18.323,14.419C18.568,14.536 18.748,14.704 18.863,14.923C18.977,15.142 19.035,15.39 19.035,15.667C19.035,16.152 18.879,16.539 18.566,16.827C18.254,17.115 17.837,17.259 17.314,17.259C16.915,17.259 16.565,17.166 16.266,16.979L16.419,16.067C16.631,16.238 16.909,16.323 17.251,16.323C17.502,16.323 17.697,16.261 17.838,16.135C17.98,16.01 18.05,15.832 18.05,15.603C18.05,15.374 17.978,15.196 17.835,15.071ZM12.255,17.163L12.255,11.827L13.943,11.827C14.306,11.827 14.621,11.899 14.887,12.043C15.154,12.187 15.359,12.39 15.504,12.651C15.647,12.912 15.719,13.214 15.719,13.555C15.719,13.891 15.647,14.189 15.504,14.451C15.359,14.713 15.154,14.916 14.887,15.063C14.621,15.21 14.306,15.283 13.943,15.283L13.248,15.283L13.248,17.163L12.255,17.163ZM6.957,17.163L5.964,17.163L5.964,11.827L7.364,11.827L8.492,14.467L9.62,11.827L11.028,11.827L11.028,17.163L10.036,17.163L10.036,13.195L8.724,16.267L8.268,16.267L6.957,13.211L6.957,17.163Z"/>
</svg>
