<svg xmlns="http://www.w3.org/2000/svg" viewBox="0 0 24 24">
<path id="Fill-4" d="M13.068,14.143C13.211,13.999 13.281,13.807 13.281,13.567C13.281,13.328 13.211,13.135 13.068,12.992C12.927,12.847 12.736,12.775 12.496,12.775L11.8,12.775L11.8,14.359L12.496,14.359C12.736,14.359 12.927,14.288 13.068,14.143M17.004,15.267C16.869,15.163 16.662,15.05 16.384,14.927C16.102,14.794 15.873,14.671 15.697,14.559C15.521,14.447 15.369,14.285 15.241,14.075C15.113,13.864 15.048,13.594 15.048,13.263C15.048,12.777 15.196,12.401 15.489,12.135C15.782,11.868 16.19,11.734 16.712,11.734C16.963,11.734 17.206,11.765 17.441,11.823C17.675,11.882 17.876,11.962 18.041,12.062L17.84,12.975C17.504,12.767 17.15,12.663 16.777,12.663C16.532,12.663 16.347,12.714 16.225,12.814C16.102,12.916 16.041,13.058 16.041,13.239C16.041,13.383 16.08,13.506 16.157,13.606C16.234,13.708 16.33,13.792 16.445,13.858C16.559,13.926 16.718,14.004 16.92,14.095C17.193,14.218 17.413,14.332 17.581,14.438C17.749,14.546 17.894,14.697 18.017,14.895C18.139,15.092 18.201,15.346 18.201,15.655C18.201,16.156 18.036,16.55 17.705,16.835C17.374,17.12 16.923,17.263 16.353,17.263C15.809,17.263 15.353,17.153 14.985,16.935L15.193,16.015C15.545,16.228 15.92,16.335 16.321,16.335C16.592,16.335 16.809,16.276 16.968,16.159C17.128,16.042 17.209,15.887 17.209,15.694C17.209,15.514 17.141,15.371 17.004,15.267ZM10.808,17.175L10.808,11.839L12.496,11.839C12.859,11.839 13.173,11.911 13.441,12.055C13.707,12.199 13.912,12.401 14.056,12.663C14.201,12.924 14.273,13.226 14.273,13.566C14.273,13.902 14.201,14.201 14.056,14.463C13.912,14.725 13.707,14.928 13.441,15.075C13.173,15.222 12.859,15.295 12.496,15.295L11.8,15.295L11.8,17.175L10.808,17.175ZM6.797,11.839L9.813,11.839L9.813,12.774L7.79,12.774L7.79,13.975L9.365,13.975L9.365,14.902L7.79,14.902L7.79,16.239L9.813,16.239L9.813,17.175L6.797,17.175L6.797,11.839Z"/>
</svg>
