<svg xmlns="http://www.w3.org/2000/svg" viewBox="0 0 24 24"><path class="cls-2" d="M18.63062,5.59631A9.00276,9.00276,0,0,0,4.46436,16.45642l-1.27686,4.664L7.959,19.86877a8.99159,8.99159,0,0,0,4.301,1.09559h.00366a9.00466,9.00466,0,0,0,6.367-15.368Zm-6.367,13.848h-.00293a7.46876,7.46876,0,0,1-3.80762-1.04278l-.27319-.16211-2.8313.74274.75562-2.76056-.178-.28308a7.481,7.481,0,1,1,6.3374,3.50579Zm4.10352-5.60284c-.22486-.11255-1.33057-.65655-1.53662-.73169-.2063-.075-.3562-.11249-.50611.11255s-.58081.73175-.71216.88184c-.1311.15-.2622.16888-.4873.05627a6.14133,6.14133,0,0,1-1.80835-1.11621,6.7812,6.7812,0,0,1-1.25122-1.558c-.1311-.2251-.01392-.34681.09863-.459.10108-.10077.22486-.26269.3374-.394a1.53808,1.53808,0,0,0,.22486-.37518.41435.41435,0,0,0-.0188-.394c-.05615-.11254-.50586-1.21954-.69336-1.66992-.18262-.43847-.36792-.37909-.50586-.386-.1311-.00654-.28125-.00788-.43115-.00788a.826.826,0,0,0-.59961.28137,2.52184,2.52184,0,0,0-.78711,1.87616,4.37374,4.37374,0,0,0,.91821,2.32648,10.02245,10.02245,0,0,0,3.8418,3.39581,12.94157,12.94157,0,0,0,1.282.47376,3.08211,3.08211,0,0,0,1.41651.08911A2.31634,2.31634,0,0,0,16.667,15.17358a1.87731,1.87731,0,0,0,.13111-1.06945C16.74194,14.01031,16.592,13.954,16.36719,13.84143Z"/></svg>