<svg xmlns="http://www.w3.org/2000/svg" viewBox="0 0 24 24" style="fill-rule:evenodd;clip-rule:evenodd;stroke-linejoin:round;stroke-miterlimit:1.41421;"><path d="M22.976,11.5l-4.583,0c-0.043,-1.383 -0.252,-2.646 -0.573,-3.784c1.603,-0.709 2.55,-1.608 3.042,-2.215c1.283,1.743 2.016,3.811 2.114,5.999m-2.114,6.999c-0.492,-0.607 -1.439,-1.506 -3.042,-2.215c0.321,-1.138 0.53,-2.401 0.573,-3.784l4.583,0c-0.098,2.188 -0.831,4.257 -2.114,5.999m-1.083,1.279c-1.558,1.559 -3.501,2.591 -5.614,3.011c1,-1.07 2.436,-2.935 3.358,-5.555c1.557,0.708 2.355,1.594 2.694,2.062c-0.145,0.162 -0.283,0.328 -0.438,0.482m-7.241,3.196c-0.013,0.001 -0.025,0.002 -0.038,0.002l0,-6.764c1.667,0.045 3.009,0.3 4.076,0.659c-1.258,3.554 -3.537,5.67 -4.038,6.103m-0.038,-10.474l4.893,0c-0.043,1.241 -0.23,2.384 -0.52,3.42c-1.161,-0.389 -2.602,-0.662 -4.373,-0.707l0,-2.713Zm0,-3.713c1.771,-0.045 3.212,-0.318 4.373,-0.707c0.29,1.036 0.477,2.179 0.52,3.42l-4.893,0l0,-2.713Zm0,-7.763c0.013,0.001 0.025,0.001 0.038,0.002c0.501,0.433 2.776,2.546 4.036,6.096c-1.069,0.362 -2.41,0.62 -4.074,0.666l0,-6.764Zm7.279,3.198c0.154,0.154 0.292,0.319 0.436,0.481c-0.343,0.464 -1.151,1.346 -2.696,2.052c-0.922,-2.612 -2.355,-4.475 -3.354,-5.543c2.114,0.419 4.056,1.452 5.614,3.01m-8.279,3.566c-1.667,-0.045 -3.008,-0.3 -4.076,-0.659c1.259,-3.554 3.537,-5.669 4.039,-6.103c0.013,-0.001 0.025,-0.001 0.037,-0.002l0,6.764Zm0,3.712l-4.892,0c0.042,-1.241 0.23,-2.384 0.519,-3.42c1.162,0.389 2.603,0.662 4.373,0.707l0,2.713Zm0,3.713c-1.772,0.045 -3.213,0.318 -4.375,0.708c-0.288,-1.035 -0.475,-2.179 -0.517,-3.421l4.892,0l0,2.713Zm0,7.763c-0.012,0 -0.024,-0.001 -0.037,-0.002c-0.501,-0.43 -2.78,-2.537 -4.039,-6.095c1.069,-0.362 2.411,-0.621 4.076,-0.667l0,6.764Zm-7.278,-3.198c-0.155,-0.154 -0.293,-0.319 -0.437,-0.481c0.343,-0.464 1.151,-1.346 2.696,-2.052c0.923,2.612 2.356,4.476 3.354,5.544c-2.113,-0.42 -4.056,-1.453 -5.613,-3.011m-1.084,-1.279c-1.283,-1.742 -2.016,-3.811 -2.113,-5.999l4.582,0c0.043,1.383 0.253,2.646 0.574,3.784c-1.603,0.709 -2.55,1.608 -3.043,2.215m0,-12.998c0.492,0.607 1.439,1.506 3.043,2.215c-0.321,1.138 -0.531,2.401 -0.574,3.784l-4.582,0c0.097,-2.188 0.83,-4.257 2.113,-5.999m1.084,-1.279c1.557,-1.558 3.5,-2.59 5.613,-3.01c-1,1.069 -2.435,2.935 -3.358,5.553c-1.555,-0.707 -2.353,-1.592 -2.693,-2.061c0.144,-0.162 0.283,-0.328 0.438,-0.482m7.778,-4.222c-3.205,0 -6.219,1.248 -8.485,3.515c-2.267,2.266 -3.515,5.28 -3.515,8.485c0,3.205 1.248,6.219 3.515,8.485c2.266,2.267 5.279,3.515 8.483,3.515l0.004,0c3.205,0 6.218,-1.248 8.484,-3.515c2.266,-2.266 3.515,-5.28 3.514,-8.485c0.001,-3.205 -1.248,-6.219 -3.514,-8.485c-2.266,-2.267 -5.28,-3.515 -8.486,-3.515" /></svg>