<svg xmlns="http://www.w3.org/2000/svg" viewBox="0 0 24 24">
<path id="Fill-4" d="M12.617,14.135C12.759,13.991 12.829,13.799 12.829,13.559C12.829,13.32 12.759,13.127 12.617,12.984C12.475,12.839 12.285,12.767 12.045,12.767L11.349,12.767L11.349,14.351L12.045,14.351C12.285,14.351 12.475,14.28 12.617,14.135M15.716,15.855C15.935,16.175 16.242,16.335 16.637,16.335C16.802,16.335 16.962,16.301 17.117,16.231L17.117,15.087L16.42,15.087L16.42,14.159L18.117,14.159L18.117,16.735C17.92,16.905 17.687,17.036 17.42,17.127C17.154,17.218 16.874,17.263 16.581,17.263C16.143,17.263 15.759,17.151 15.429,16.927C15.098,16.703 14.843,16.383 14.665,15.967C14.486,15.551 14.397,15.063 14.397,14.503C14.397,13.943 14.49,13.454 14.676,13.035C14.864,12.616 15.128,12.295 15.473,12.071C15.817,11.847 16.215,11.735 16.669,11.735C16.924,11.735 17.164,11.77 17.384,11.839C17.606,11.908 17.802,12.01 17.973,12.143L17.741,13.031C17.448,12.791 17.109,12.671 16.725,12.671C16.303,12.671 15.975,12.831 15.741,13.151C15.506,13.471 15.389,13.922 15.389,14.503C15.389,15.084 15.498,15.535 15.716,15.855ZM10.357,17.167L10.357,11.831L12.045,11.831C12.408,11.831 12.722,11.903 12.989,12.047C13.255,12.191 13.461,12.394 13.605,12.655C13.749,12.916 13.821,13.218 13.821,13.559C13.821,13.895 13.749,14.193 13.605,14.455C13.461,14.717 13.255,14.92 12.989,15.067C12.722,15.214 12.408,15.287 12.045,15.287L11.349,15.287L11.349,17.167L10.357,17.167ZM6.881,17.143L7.034,16.255C7.172,16.292 7.3,16.311 7.418,16.311C7.621,16.311 7.768,16.257 7.862,16.147C7.955,16.038 8.002,15.868 8.002,15.639L8.002,11.831L9.002,11.831L9.002,15.775C9.002,16.25 8.878,16.612 8.629,16.863C8.381,17.113 8.028,17.239 7.57,17.239C7.314,17.239 7.085,17.207 6.881,17.143Z"/>
</svg>
