<svg xmlns="http://www.w3.org/2000/svg" viewBox="0 0 24 24">
<path id="Fill-2" d="M16.186,15.857C16.405,16.177 16.712,16.337 17.107,16.337C17.272,16.337 17.432,16.303 17.587,16.233L17.587,15.089L16.89,15.089L16.89,14.161L18.587,14.161L18.587,16.737C18.389,16.907 18.157,17.038 17.89,17.129C17.624,17.22 17.343,17.265 17.05,17.265C16.613,17.265 16.229,17.153 15.899,16.929C15.568,16.705 15.313,16.385 15.134,15.969C14.956,15.553 14.867,15.065 14.867,14.505C14.867,13.945 14.96,13.456 15.146,13.037C15.334,12.618 15.598,12.297 15.943,12.073C16.287,11.849 16.685,11.737 17.138,11.737C17.394,11.737 17.633,11.772 17.854,11.841C18.076,11.91 18.272,12.012 18.443,12.145L18.211,13.033C17.918,12.793 17.579,12.673 17.195,12.673C16.773,12.673 16.445,12.833 16.211,13.153C15.976,13.473 15.859,13.924 15.859,14.505C15.859,15.086 15.967,15.537 16.186,15.857ZM11.581,16.272L11.125,16.272L9.813,13.217L9.813,17.169L8.821,17.169L8.821,11.833L10.22,11.833L11.348,14.473L12.476,11.833L13.884,11.833L13.884,17.169L12.892,17.169L12.892,13.201L11.581,16.272ZM6.507,17.169L7.499,17.169L7.499,11.833L6.507,11.833L6.507,17.169Z"/>
</svg>
