<svg xmlns="http://www.w3.org/2000/svg" viewBox="0 0 24 24">
<path id="Fill-4" d="M20.4,21.002L7.599,21.002L7.599,2.998C7.599,2.781 7.783,2.599 8,2.599L15.4,2.599L15.4,6.798C15.4,7.239 15.757,7.598 16.199,7.598L20.4,7.598L20.4,21.002ZM20.4,21.002C20.4,21.219 20.216,21.402 20,21.402L8,21.402C7.783,21.402 7.599,21.219 7.599,21.002L20.4,21.002ZM5.964,11.827L5.964,17.163L5.964,11.827ZM17,3.729L19.267,5.998L17,5.998L17,3.729ZM21.992,6.804C21.994,6.594 21.92,6.387 21.765,6.232L16.765,1.232C16.607,1.075 16.394,1 16.18,1.005L16.173,0.998L8,0.998C6.9,0.998 6,1.898 6,2.998L6,21.002C6,22.103 6.9,23.002 8,23.002L20,23.002C21.099,23.002 22,22.103 22,21.002L22,19.999L22,18.999L22,9.999L22,8.999L22,6.811L21.992,6.804Z"/>
</svg>
