<svg xmlns="http://www.w3.org/2000/svg" viewBox="0 0 24 24" style="fill-rule:evenodd;clip-rule:evenodd;stroke-linejoin:round;stroke-miterlimit:1.41421;">
    <path id="Fill-6" d="M12.268,16.328C11.894,16.328 11.6,16.166 11.383,15.844C11.166,15.521 11.06,15.075 11.06,14.504C11.06,13.928 11.166,13.477 11.383,13.156C11.6,12.833 11.894,12.672 12.268,12.672C12.641,12.672 12.934,12.833 13.148,13.156C13.361,13.477 13.467,13.928 13.467,14.504C13.467,15.08 13.361,15.528 13.148,15.848C12.934,16.168 12.641,16.328 12.268,16.328ZM7.437,12.736C7.677,12.736 7.868,12.808 8.009,12.953C8.151,13.096 8.221,13.289 8.221,13.528C8.221,13.768 8.151,13.961 8.009,14.104C7.868,14.249 7.677,14.32 7.437,14.32L6.742,14.32L6.742,12.736L7.437,12.736ZM17.917,13.201C18.144,13.51 18.257,13.934 18.257,14.472C18.257,15.012 18.144,15.434 17.917,15.74C17.69,16.048 17.342,16.201 16.873,16.201L16.569,16.201L16.569,12.736L16.873,12.736C17.342,12.736 17.69,12.891 17.917,13.201ZM15.577,17.136L15.577,11.8L16.873,11.8C17.379,11.8 17.811,11.91 18.169,12.132C18.526,12.353 18.795,12.665 18.976,13.067C19.158,13.471 19.249,13.938 19.249,14.472C19.249,15.005 19.158,15.472 18.976,15.872C18.795,16.271 18.526,16.582 18.169,16.804C17.811,17.025 17.379,17.136 16.873,17.136L15.577,17.136ZM10.067,14.503C10.067,13.943 10.156,13.455 10.335,13.039C10.513,12.623 10.769,12.302 11.103,12.075C11.436,11.849 11.824,11.735 12.267,11.735C12.71,11.735 13.096,11.849 13.426,12.075C13.757,12.302 14.012,12.623 14.191,13.039C14.37,13.455 14.459,13.943 14.459,14.503C14.459,15.063 14.37,15.551 14.191,15.967C14.012,16.383 13.757,16.703 13.426,16.927C13.096,17.151 12.71,17.263 12.267,17.263C11.824,17.263 11.436,17.151 11.103,16.927C10.769,16.703 10.513,16.383 10.335,15.967C10.156,15.551 10.067,15.063 10.067,14.503ZM6.742,15.256L6.742,17.136L5.75,17.136L5.75,11.8L7.437,11.8C7.8,11.8 8.115,11.872 8.381,12.016C8.648,12.16 8.853,12.362 8.998,12.624C9.141,12.885 9.213,13.186 9.213,13.527C9.213,13.863 9.141,14.162 8.998,14.424C8.853,14.686 8.648,14.889 8.381,15.036C8.115,15.183 7.8,15.256 7.437,15.256L6.742,15.256Z"/>
</svg>
