<svg xmlns="http://www.w3.org/2000/svg" viewBox="0 0 24 24" style="fill-rule:evenodd;clip-rule:evenodd;stroke-linejoin:round;stroke-miterlimit:1.41421;">
    <path id="Fill-2" d="M15.328,12.767L15.328,11.831L18.759,11.831L18.759,12.767L17.536,12.767L17.536,17.167L16.544,17.167L16.544,12.767L15.328,12.767ZM10.394,11.831L11.57,11.831L12.521,13.695L13.466,11.831L14.642,11.831L13.193,14.399L14.761,17.167L13.586,17.167L12.521,15.103L11.459,17.167L10.273,17.167L11.849,14.399L10.394,11.831ZM6.24,12.767L6.24,11.831L9.671,11.831L9.671,12.767L8.447,12.767L8.447,17.167L7.455,17.167L7.455,12.767L6.24,12.767Z"/>
</svg>
