<svg xmlns="http://www.w3.org/2000/svg" viewBox="0 0 24 24"  style="fill-rule:evenodd;clip-rule:evenodd;stroke-linejoin:round;stroke-miterlimit:1.41421;">
    <path id="Fill-6" d="M8.733,14.135C8.591,14.28 8.401,14.351 8.161,14.351L7.465,14.351L7.465,12.767L8.161,12.767C8.401,12.767 8.591,12.839 8.733,12.984C8.875,13.127 8.945,13.32 8.945,13.559C8.945,13.799 8.875,13.991 8.733,14.135ZM13.235,14.135C13.093,14.28 12.903,14.351 12.663,14.351L11.967,14.351L11.967,12.767L12.663,12.767C12.903,12.767 13.093,12.839 13.235,12.984C13.377,13.127 13.447,13.32 13.447,13.559C13.447,13.799 13.377,13.991 13.235,14.135ZM15.094,12.767L15.094,11.831L18.526,11.831L18.526,12.767L17.302,12.767L17.302,17.167L16.31,17.167L16.31,12.767L15.094,12.767ZM10.975,17.167L10.975,11.831L12.663,11.831C13.026,11.831 13.34,11.903 13.607,12.047C13.874,12.191 14.079,12.394 14.223,12.655C14.367,12.916 14.439,13.218 14.439,13.559C14.439,13.895 14.367,14.193 14.223,14.455C14.079,14.717 13.874,14.92 13.607,15.067C13.34,15.214 13.026,15.287 12.663,15.287L11.967,15.287L11.967,17.167L10.975,17.167ZM7.465,17.167L6.473,17.167L6.473,11.831L8.161,11.831C8.524,11.831 8.838,11.903 9.105,12.047C9.372,12.191 9.577,12.394 9.721,12.655C9.865,12.916 9.937,13.218 9.937,13.559C9.937,13.895 9.865,14.193 9.721,14.455C9.577,14.717 9.372,14.92 9.105,15.067C8.838,15.214 8.524,15.287 8.161,15.287L7.465,15.287L7.465,17.167Z"/>
</svg>
