<svg xmlns="http://www.w3.org/2000/svg" viewBox="0 0 24 24">
        <path d="M13.0684,14.1429 C13.2114,13.9989 13.2814,13.8069 13.2814,13.5669 C13.2814,13.3279 13.2114,13.1349 13.0684,12.9919 C12.9274,12.8469 12.7364,12.7749 12.4964,12.7749 L11.8004,12.7749 L11.8004,14.3589 L12.4964,14.3589 C12.7364,14.3589 12.9274,14.2879 13.0684,14.1429 M20.3994,8.9994 L20.0004,8.9994 L7.5994,8.9994 L7.5994,2.9984 C7.5994,2.7814 7.7834,2.5994 8.0004,2.5994 L15.3994,2.5994 L15.3994,6.7984 C15.3994,7.2394 15.7574,7.5984 16.1994,7.5984 L20.3994,7.5984 L20.3994,8.9994 Z M17.0044,15.2674 C16.8694,15.1634 16.6624,15.0504 16.3844,14.9274 C16.1024,14.7944 15.8734,14.6714 15.6974,14.5594 C15.5214,14.4474 15.3694,14.2854 15.2414,14.0754 C15.1134,13.8644 15.0484,13.5944 15.0484,13.2634 C15.0484,12.7774 15.1964,12.4014 15.4894,12.1354 C15.7824,11.8684 16.1904,11.7344 16.7124,11.7344 C16.9634,11.7344 17.2064,11.7654 17.4414,11.8234 C17.6754,11.8824 17.8764,11.9624 18.0414,12.0624 L17.8404,12.9754 C17.5044,12.7674 17.1504,12.6634 16.7774,12.6634 C16.5324,12.6634 16.3474,12.7144 16.2254,12.8144 C16.1024,12.9164 16.0414,13.0584 16.0414,13.2394 C16.0414,13.3834 16.0804,13.5064 16.1574,13.6064 C16.2344,13.7084 16.3304,13.7924 16.4454,13.8584 C16.5594,13.9264 16.7184,14.0044 16.9204,14.0954 C17.1934,14.2184 17.4134,14.3324 17.5814,14.4384 C17.7494,14.5464 17.8944,14.6974 18.0174,14.8954 C18.1394,15.0924 18.2014,15.3464 18.2014,15.6554 C18.2014,16.1564 18.0364,16.5504 17.7054,16.8354 C17.3744,17.1204 16.9234,17.2634 16.3534,17.2634 C15.8094,17.2634 15.3534,17.1534 14.9854,16.9354 L15.1934,16.0154 C15.5454,16.2284 15.9204,16.3354 16.3214,16.3354 C16.5924,16.3354 16.8094,16.2764 16.9684,16.1594 C17.1284,16.0424 17.2094,15.8874 17.2094,15.6944 C17.2094,15.5144 17.1414,15.3714 17.0044,15.2674 Z M10.8084,17.1754 L10.8084,11.8394 L12.4964,11.8394 C12.8594,11.8394 13.1734,11.9114 13.4414,12.0554 C13.7074,12.1994 13.9124,12.4014 14.0564,12.6634 C14.2014,12.9244 14.2734,13.2264 14.2734,13.5664 C14.2734,13.9024 14.2014,14.2014 14.0564,14.4634 C13.9124,14.7254 13.7074,14.9284 13.4414,15.0754 C13.1734,15.2224 12.8594,15.2954 12.4964,15.2954 L11.8004,15.2954 L11.8004,17.1754 L10.8084,17.1754 Z M20.3994,21.0024 C20.3994,21.2194 20.2164,21.4024 20.0004,21.4024 L8.0004,21.4024 C7.7834,21.4024 7.5994,21.2194 7.5994,21.0024 L7.5994,19.9994 L20.0004,19.9994 L20.3994,19.9994 L20.3994,21.0024 Z M6.7974,11.8394 L9.8134,11.8394 L9.8134,12.7744 L7.7904,12.7744 L7.7904,13.9754 L9.3654,13.9754 L9.3654,14.9024 L7.7904,14.9024 L7.7904,16.2394 L9.8134,16.2394 L9.8134,17.1754 L6.7974,17.1754 L6.7974,11.8394 Z M16.9994,3.7294 L19.2674,5.9984 L16.9994,5.9984 L16.9994,3.7294 Z M21.9924,6.8044 C21.9944,6.5944 21.9204,6.3874 21.7644,6.2324 L16.7644,1.2324 C16.6074,1.0754 16.3944,1.0004 16.1794,1.0054 L16.1734,0.9984 L8.0004,0.9984 C6.8994,0.9984 6.0004,1.8984 6.0004,2.9984 L6.0004,8.9994 L4.0004,8.9994 C3.4494,8.9994 3.0004,9.4494 3.0004,9.9994 L3.0004,18.9994 C3.0004,19.5494 3.4494,19.9994 4.0004,19.9994 L6.0004,19.9994 L6.0004,21.0024 C6.0004,22.1034 6.8994,23.0024 8.0004,23.0024 L20.0004,23.0024 C21.0994,23.0024 22.0004,22.1034 22.0004,21.0024 L22.0004,19.9994 L22.0004,18.9994 L22.0004,9.9994 L22.0004,8.9994 L22.0004,6.8114 L21.9924,6.8044 Z" id="path-1"></path>
</svg>