<svg xmlns="http://www.w3.org/2000/svg" viewBox="0 0 24 24" style="fill-rule:evenodd;clip-rule:evenodd;stroke-linejoin:round;stroke-miterlimit:1.41421;">
        <path id="Fill-2" d="M20.399,8.999L20,8.999L7.599,8.999L7.599,2.998C7.599,2.781 7.783,2.599 8,2.599L15.399,2.599L15.399,6.798C15.399,7.239 15.757,7.598 16.199,7.598L20.399,7.598L20.399,8.999ZM18.85,14.199L18.85,15.127L17.163,15.127L17.163,17.167L16.17,17.167L16.17,11.831L19.251,11.831L19.251,12.767L17.163,12.767L17.163,14.199L18.85,14.199ZM14.995,14.199L14.995,15.127L13.307,15.127L13.307,17.167L12.315,17.167L12.315,11.831L15.395,11.831L15.395,12.767L13.307,12.767L13.307,14.199L14.995,14.199ZM10.04,17.167L11.032,17.167L11.032,11.831L10.04,11.831L10.04,17.167ZM20.399,21.002C20.399,21.219 20.216,21.402 20,21.402L8,21.402C7.783,21.402 7.599,21.219 7.599,21.002L7.599,19.999L20.399,19.999L20.399,21.002ZM5.749,12.767L5.749,11.831L9.18,11.831L9.18,12.767L7.956,12.767L7.956,17.167L6.963,17.167L6.963,12.767L5.749,12.767ZM16.999,3.729L19.267,5.998L16.999,5.998L16.999,3.729ZM21.993,6.804C21.994,6.594 21.92,6.387 21.764,6.232L16.764,1.232C16.607,1.075 16.394,1 16.18,1.005L16.173,0.998L8,0.998C6.899,0.998 6,1.898 6,2.998L6,8.999L4,8.999C3.45,8.999 3,9.449 3,9.999L3,18.999C3,19.549 3.45,19.999 4,19.999L6,19.999L6,21.002C6,22.103 6.899,23.002 8,23.002L20,23.002C21.099,23.002 22,22.103 22,21.002L22,19.999L22,18.999L22,9.999L22,8.999L22,6.811L21.993,6.804Z"/>
</svg>
