<svg xmlns="http://www.w3.org/2000/svg" viewBox="0 0 24 24" style="fill-rule:evenodd;clip-rule:evenodd;stroke-linejoin:round;stroke-miterlimit:1.41421;">
    <path id="Fill-2" d="M18.85,14.199L18.85,15.127L17.163,15.127L17.163,17.167L16.17,17.167L16.17,11.831L19.251,11.831L19.251,12.767L17.163,12.767L17.163,14.199L18.85,14.199ZM14.995,14.199L14.995,15.127L13.307,15.127L13.307,17.167L12.315,17.167L12.315,11.831L15.395,11.831L15.395,12.767L13.307,12.767L13.307,14.199L14.995,14.199ZM10.04,17.167L11.032,17.167L11.032,11.831L10.04,11.831L10.04,17.167ZM5.749,12.767L5.749,11.831L9.18,11.831L9.18,12.767L7.956,12.767L7.956,17.167L6.963,17.167L6.963,12.767L5.749,12.767Z"/>
</svg>
