<svg xmlns="http://www.w3.org/2000/svg" viewBox="0 0 24 24" style="fill-rule:evenodd;clip-rule:evenodd;stroke-linejoin:round;stroke-miterlimit:1.41421;">
        <path id="Fill-2" d="M20.4,9.001L20.046,9.001L7.599,9.001L7.599,3C7.599,2.783 7.783,2.601 8,2.601L15.4,2.601L15.4,6.8C15.4,7.241 15.757,7.6 16.199,7.6L20.4,7.6L20.4,9.001ZM16.186,15.857C16.405,16.177 16.712,16.337 17.107,16.337C17.272,16.337 17.432,16.303 17.587,16.233L17.587,15.089L16.89,15.089L16.89,14.161L18.587,14.161L18.587,16.737C18.389,16.907 18.157,17.038 17.89,17.129C17.624,17.22 17.343,17.265 17.05,17.265C16.613,17.265 16.229,17.153 15.899,16.929C15.568,16.705 15.313,16.385 15.134,15.969C14.956,15.553 14.867,15.065 14.867,14.505C14.867,13.945 14.96,13.456 15.146,13.037C15.334,12.618 15.598,12.297 15.943,12.073C16.287,11.849 16.685,11.737 17.138,11.737C17.394,11.737 17.633,11.772 17.854,11.841C18.076,11.91 18.272,12.012 18.443,12.145L18.211,13.033C17.918,12.793 17.579,12.673 17.195,12.673C16.773,12.673 16.445,12.833 16.211,13.153C15.976,13.473 15.859,13.924 15.859,14.505C15.859,15.086 15.967,15.537 16.186,15.857ZM11.581,16.272L11.125,16.272L9.813,13.217L9.813,17.169L8.821,17.169L8.821,11.833L10.22,11.833L11.348,14.473L12.476,11.833L13.884,11.833L13.884,17.169L12.892,17.169L12.892,13.201L11.581,16.272ZM20.4,21.004C20.4,21.221 20.216,21.404 20,21.404L8,21.404C7.783,21.404 7.599,21.221 7.599,21.004L7.599,20.001L20.4,20.001L20.4,21.004ZM6.507,17.169L7.499,17.169L7.499,11.833L6.507,11.833L6.507,17.169ZM17,3.731L19.267,6L17,6L17,3.731ZM22,9.001L22,6.813L21.992,6.806C21.994,6.596 21.92,6.389 21.765,6.234L16.765,1.234C16.607,1.077 16.394,1.002 16.18,1.007L16.173,1L8,1C6.9,1 6,1.9 6,3L6,9.001L4.046,9.001C3.497,9.001 3.046,9.451 3.046,10.001L3.046,19.001C3.046,19.551 3.497,20.001 4.046,20.001L6,20.001L6,21.004C6,22.105 6.9,23.004 8,23.004L20,23.004C21.099,23.004 22,22.105 22,21.004L22,20.001L22.046,20.001L22.046,19.001L22.046,10.001L22.046,9.001L22,9.001Z"/>
</svg>
