<svg xmlns="http://www.w3.org/2000/svg" viewBox="0 0 24 24" style="fill-rule:evenodd;clip-rule:evenodd;stroke-linejoin:round;stroke-miterlimit:1.41421;">
    <path id="Fill-2" d="M14.628,17.167L14.628,11.831L15.923,11.831C16.431,11.831 16.863,11.941 17.22,12.163C17.578,12.385 17.847,12.696 18.027,13.099C18.209,13.502 18.3,13.97 18.3,14.503C18.3,15.036 18.209,15.503 18.027,15.903C17.847,16.303 17.578,16.613 17.22,16.835C16.863,17.057 16.431,17.167 15.923,17.167L14.628,17.167ZM12.26,17.167L13.252,17.167L13.252,11.831L12.26,11.831L12.26,17.167ZM6.699,11.831L7.779,11.831L8.979,15.936L10.178,11.831L11.258,11.831L9.563,17.167L8.395,17.167L6.699,11.831ZM16.969,13.232C17.196,13.541 17.309,13.965 17.309,14.503C17.309,15.043 17.196,15.465 16.969,15.771C16.742,16.079 16.393,16.232 15.924,16.232L15.621,16.232L15.621,12.767L15.924,12.767C16.393,12.767 16.742,12.922 16.969,13.232Z"/>
</svg>
