<svg xmlns="http://www.w3.org/2000/svg" viewBox="0 0 24 24">
        <path id="Fill-2" d="M20.4,8.999L20,8.999L7.599,8.999L7.599,2.998C7.599,2.781 7.783,2.599 8,2.599L15.4,2.599L15.4,6.798C15.4,7.239 15.757,7.598 16.199,7.598L20.4,7.598L20.4,8.999ZM18.059,14.199L18.059,15.127L16.372,15.127L16.372,17.167L15.379,17.167L15.379,11.831L18.46,11.831L18.46,12.767L16.372,12.767L16.372,14.199L18.059,14.199ZM10.828,17.167L10.828,11.831L12.124,11.831C12.63,11.831 13.062,11.941 13.42,12.163C13.777,12.385 14.046,12.696 14.227,13.099C14.409,13.502 14.5,13.97 14.5,14.503C14.5,15.036 14.409,15.503 14.227,15.903C14.046,16.303 13.777,16.613 13.42,16.835C13.062,17.057 12.63,17.167 12.124,17.167L10.828,17.167ZM20.4,21.002C20.4,21.219 20.216,21.402 20,21.402L8,21.402C7.783,21.402 7.599,21.219 7.599,21.002L7.599,19.999L20.4,19.999L20.4,21.002ZM7.532,17.167L6.54,17.167L6.54,11.831L8.227,11.831C8.59,11.831 8.905,11.903 9.171,12.047C9.438,12.191 9.643,12.394 9.788,12.655C9.931,12.916 10.004,13.218 10.004,13.559C10.004,13.895 9.931,14.193 9.788,14.455C9.643,14.717 9.438,14.92 9.171,15.067C8.905,15.214 8.59,15.287 8.227,15.287L7.532,15.287L7.532,17.167ZM17,3.729L19.267,5.998L17,5.998L17,3.729ZM8.8,14.135C8.658,14.28 8.468,14.351 8.228,14.351L7.532,14.351L7.532,12.767L8.228,12.767C8.468,12.767 8.658,12.839 8.8,12.984C8.942,13.127 9.012,13.32 9.012,13.559C9.012,13.799 8.942,13.991 8.8,14.135ZM13.168,13.232C13.395,13.541 13.508,13.965 13.508,14.503C13.508,15.043 13.395,15.465 13.168,15.771C12.941,16.079 12.593,16.232 12.124,16.232L11.82,16.232L11.82,12.767L12.124,12.767C12.593,12.767 12.941,12.922 13.168,13.232ZM21.993,6.804C21.994,6.594 21.92,6.387 21.765,6.232L16.765,1.232C16.607,1.075 16.394,1 16.18,1.005L16.173,0.998L8,0.998C6.9,0.998 6,1.898 6,2.998L6,8.999L4,8.999C3.45,8.999 3,9.449 3,9.999L3,18.999C3,19.549 3.45,19.999 4,19.999L6,19.999L6,21.002C6,22.103 6.9,23.002 8,23.002L20,23.002C21.099,23.002 22,22.103 22,21.002L22,19.999L22,18.999L22,9.999L22,8.999L22,6.811L21.993,6.804Z"/>
</svg>
