<svg xmlns="http://www.w3.org/2000/svg" viewBox="0 0 24 24">
        <path id="Fill-2" d="M20.399,8.999L20,8.999L7.599,8.999L7.599,2.998C7.599,2.781 7.783,2.599 8,2.599L15.399,2.599L15.399,6.798C15.399,7.239 15.757,7.598 16.199,7.598L20.399,7.598L20.399,8.999ZM15.328,12.767L15.328,11.831L18.759,11.831L18.759,12.767L17.536,12.767L17.536,17.167L16.544,17.167L16.544,12.767L15.328,12.767ZM10.394,11.831L11.57,11.831L12.521,13.695L13.466,11.831L14.642,11.831L13.193,14.399L14.761,17.167L13.586,17.167L12.521,15.103L11.459,17.167L10.273,17.167L11.849,14.399L10.394,11.831ZM20.399,21.002C20.399,21.219 20.216,21.402 20,21.402L8,21.402C7.783,21.402 7.599,21.219 7.599,21.002L7.599,19.999L20.399,19.999L20.399,21.002ZM6.24,12.767L6.24,11.831L9.671,11.831L9.671,12.767L8.447,12.767L8.447,17.167L7.455,17.167L7.455,12.767L6.24,12.767ZM16.999,3.729L19.267,5.998L16.999,5.998L16.999,3.729ZM21.992,6.804C21.994,6.594 21.92,6.387 21.764,6.232L16.764,1.232C16.607,1.075 16.394,1 16.18,1.005L16.173,0.998L8,0.998C6.899,0.998 6,1.898 6,2.998L6,8.999L4,8.999C3.449,8.999 3,9.449 3,9.999L3,18.999C3,19.549 3.449,19.999 4,19.999L6,19.999L6,21.002C6,22.103 6.899,23.002 8,23.002L20,23.002C21.099,23.002 22,22.103 22,21.002L22,19.999L22,18.999L22,9.999L22,8.999L22,6.811L21.992,6.804Z"/>
</svg>
