<svg xmlns="http://www.w3.org/2000/svg" viewBox="0 0 24 24" style="fill-rule:evenodd;clip-rule:evenodd;stroke-linejoin:round;stroke-miterlimit:1.41421;">
        <path id="Fill-2" d="M20.399,8.999L20,8.999L7.599,8.999L7.599,2.998C7.599,2.781 7.783,2.599 8,2.599L15.399,2.599L15.399,6.798C15.399,7.239 15.757,7.598 16.199,7.598L20.399,7.598L20.399,8.999ZM17.333,15.267C17.197,15.163 16.99,15.05 16.712,14.927C16.43,14.794 16.201,14.671 16.025,14.559C15.849,14.447 15.697,14.285 15.569,14.075C15.441,13.864 15.377,13.594 15.377,13.263C15.377,12.777 15.524,12.401 15.817,12.135C16.11,11.868 16.518,11.734 17.041,11.734C17.292,11.734 17.534,11.765 17.769,11.823C18.003,11.882 18.204,11.962 18.369,12.062L18.169,12.975C17.833,12.767 17.478,12.663 17.105,12.663C16.86,12.663 16.675,12.714 16.553,12.814C16.43,12.916 16.369,13.058 16.369,13.239C16.369,13.383 16.408,13.506 16.485,13.606C16.562,13.708 16.658,13.792 16.773,13.858C16.887,13.926 17.046,14.004 17.249,14.095C17.521,14.218 17.741,14.332 17.909,14.438C18.077,14.546 18.222,14.697 18.345,14.895C18.467,15.092 18.529,15.346 18.529,15.655C18.529,16.156 18.364,16.55 18.033,16.835C17.702,17.12 17.252,17.263 16.681,17.263C16.137,17.263 15.681,17.153 15.313,16.935L15.521,16.015C15.873,16.228 16.249,16.335 16.649,16.335C16.92,16.335 17.137,16.276 17.296,16.159C17.457,16.042 17.537,15.887 17.537,15.694C17.537,15.514 17.469,15.371 17.333,15.267ZM14.662,16.239L14.662,17.175L11.862,17.175L11.862,11.839L12.854,11.839L12.854,16.239L14.662,16.239ZM20.399,21.002C20.399,21.219 20.216,21.402 20,21.402L8,21.402C7.783,21.402 7.599,21.219 7.599,21.002L7.599,19.999L20.399,19.999L20.399,21.002ZM6.469,17.175L8.045,14.407L6.589,11.839L7.765,11.839L8.717,13.703L9.662,11.839L10.837,11.839L9.389,14.407L10.958,17.175L9.782,17.175L8.717,15.11L7.654,17.175L6.469,17.175ZM16.999,3.729L19.267,5.998L16.999,5.998L16.999,3.729ZM21.992,6.804C21.994,6.594 21.92,6.387 21.764,6.232L16.764,1.232C16.607,1.075 16.394,1 16.18,1.005L16.173,0.998L8,0.998C6.899,0.998 6,1.898 6,2.998L6,8.999L4,8.999C3.449,8.999 3,9.449 3,9.999L3,18.999C3,19.549 3.449,19.999 4,19.999L6,19.999L6,21.002C6,22.103 6.899,23.002 8,23.002L20,23.002C21.099,23.002 22,22.103 22,21.002L22,19.999L22,18.999L22,9.999L22,8.999L22,6.811L21.992,6.804Z"/>
</svg>
