<svg xmlns="http://www.w3.org/2000/svg" viewBox="0 0 24 24">
<path d="M20.63155,20.63479,17.99679,18h.00635L16.403,16.4h-.00635L7.77,7.773l.00171-.00452L6.51705,6.51388,6.51486,6.518,3.3652,3.36837A.79964.79964,0,0,0,2.23434,4.49923L6,8.28372v5.71667L4,16.44015V18H15.73507l3.76562,3.76568a.79964.79964,0,0,0,1.13086-1.13086Z"/><path d="M12,21a1.9999,1.9999,0,0,0,2-2H10A2.00006,2.00006,0,0,0,12,21Z"/><path d="M20,17.73507V16.44015l-2.02832-2.43976-.00317-5.06115a5.99626,5.99626,0,0,0-4.48853-5.74048A1.48186,1.48186,0,0,0,13.5,3a1.5,1.5,0,0,0-3,0,1.48544,1.48544,0,0,0,.01856.18469A5.98543,5.98543,0,0,0,7.40133,5.13644Z"/></svg>