<svg xmlns="http://www.w3.org/2000/svg" viewBox="0 0 24 24">
<path class="cls-2" d="M18,14.00036,17.99683,8.9392a5.99642,5.99642,0,0,0-4.51612-5.74749A1.50242,1.50242,0,0,0,13.5,3a1.5,1.5,0,0,0-3,0,1.50242,1.50242,0,0,0,.01929.19172A5.99636,5.99636,0,0,0,6.00293,8.9392L6,14.00036,4,16.44018V18H20V16.44018ZM6.10181,16.4,7.2373,15.0147a1.59984,1.59984,0,0,0,.3628-1.01342l.00268-5.046a4.39726,4.39726,0,0,1,8.794-.01508l.00317,5.06116a1.59953,1.59953,0,0,0,.3628,1.01336L17.89819,16.4Z"/><path class="cls-2" d="M12,21a1.9999,1.9999,0,0,0,2-2H10A2.00006,2.00006,0,0,0,12,21Z"/></svg>