<svg xmlns="http://www.w3.org/2000/svg" viewBox="0 0 24 24"><path d="M21.00006,4a1.00288,1.00288,0,0,0-1-1H18V2a1,1,0,0,0-2,0V3H6V2A1,1,0,0,0,4,2V3H2.00006a1.00288,1.00288,0,0,0-1,1V7h20Z"/><path d="M18.00006,11.4a6.55189,6.55189,0,0,1,3,.72852V8h-20V21a1.00288,1.00288,0,0,0,1,1H12.76251a6.588,6.588,0,0,1,5.23755-10.6ZM7.95978,18a1.00291,1.00291,0,0,1-1,1h-2a1.00307,1.00307,0,0,1-1-1V16a1.00307,1.00307,0,0,1,1-1h2a1.00291,1.00291,0,0,1,1,1Z"/><path d="M18.00006,13a5,5,0,1,0,5,5A5,5,0,0,0,18.00006,13Zm1.89038,4.459-2.00293,2.002a.6507.6507,0,0,1-.91992,0l-.85742-.85742a.65049.65049,0,1,1,.91992-.91993l.39746.39844,1.543-1.543a.65048.65048,0,0,1,.91992.91992Z"/></svg>