<svg xmlns="http://www.w3.org/2000/svg" viewBox="0 0 24 24">
<path d="M12,21A1.99982,1.99982,0,0,0,14,19H10A2,2,0,0,0,12,21Z"/><path d="M20.63155,20.63479,17.99678,18h.00635l-1.59985-1.6h-.00635L7.79146,7.7947l.00171-.00463-1.25684-1.257-.00219.00409L3.36519,3.36837A.79964.79964,0,0,0,2.23433,4.49923L6.04341,8.30831a6.11274,6.11274,0,0,0-.04028.63093L6,14.00039,4,16.44021V18h11.7351l3.76563,3.76562a.79964.79964,0,0,0,1.13086-1.13086ZM6.10176,16.40005l1.1355-1.38531a1.59951,1.59951,0,0,0,.36279-1.01337l.00245-4.134,6.53271,6.53271Z"/><path d="M12,4.6a4.40942,4.40942,0,0,1,4.397,4.34015l.00293,5.06116a1.59157,1.59157,0,0,0,.02808.1618L20,17.73507V16.44021l-2-2.43982L17.997,8.93924a5.99631,5.99631,0,0,0-4.51636-5.7475A1.50448,1.50448,0,0,0,13.5,3a1.5,1.5,0,0,0-3,0,1.50629,1.50629,0,0,0,.01928.19177A5.98753,5.98753,0,0,0,7.41646,5.15158L8.56758,6.3027A4.34781,4.34781,0,0,1,12,4.6Z"/></svg>