<svg xmlns="http://www.w3.org/2000/svg" viewBox="0 0 24 24" style="fill-rule:evenodd;clip-rule:evenodd;stroke-linejoin:round;stroke-miterlimit:1.41421;">
        <path id="Fill-2" d="M20.399,8.999L20,8.999L7.599,8.999L7.599,2.998C7.599,2.781 7.783,2.599 8,2.599L15.399,2.599L15.399,6.798C15.399,7.239 15.757,7.598 16.199,7.598L20.399,7.598L20.399,8.999ZM14.628,17.167L14.628,11.831L15.923,11.831C16.431,11.831 16.863,11.941 17.22,12.163C17.578,12.385 17.847,12.696 18.027,13.099C18.209,13.502 18.3,13.97 18.3,14.503C18.3,15.036 18.209,15.503 18.027,15.903C17.847,16.303 17.578,16.613 17.22,16.835C16.863,17.057 16.431,17.167 15.923,17.167L14.628,17.167ZM12.26,17.167L13.252,17.167L13.252,11.831L12.26,11.831L12.26,17.167ZM6.699,11.831L7.779,11.831L8.979,15.936L10.178,11.831L11.258,11.831L9.563,17.167L8.395,17.167L6.699,11.831ZM16.969,13.232C17.196,13.541 17.309,13.965 17.309,14.503C17.309,15.043 17.196,15.465 16.969,15.771C16.742,16.079 16.393,16.232 15.924,16.232L15.621,16.232L15.621,12.767L15.924,12.767C16.393,12.767 16.742,12.922 16.969,13.232ZM20.399,21.002C20.399,21.219 20.216,21.402 20,21.402L8,21.402C7.783,21.402 7.599,21.219 7.599,21.002L7.599,19.999L20.399,19.999L20.399,21.002ZM16.999,3.729L19.267,5.998L16.999,5.998L16.999,3.729ZM21.992,6.804C21.994,6.594 21.92,6.387 21.764,6.232L16.764,1.232C16.607,1.075 16.394,1 16.18,1.005L16.173,0.998L8,0.998C6.899,0.998 6,1.898 6,2.998L6,8.999L4,8.999C3.449,8.999 3,9.449 3,9.999L3,18.999C3,19.549 3.449,19.999 4,19.999L6,19.999L6,21.002C6,22.103 6.899,23.002 8,23.002L20,23.002C21.099,23.002 22,22.103 22,21.002L22,19.999L22,18.999L22,9.999L22,8.999L22,6.811L21.992,6.804Z"/>
</svg>
