<svg xmlns="http://www.w3.org/2000/svg" viewBox="0 0 24 24"><path d="M23,12.39393a2.01542,2.01542,0,0,0-2-1.83825H13a2.006,2.006,0,0,0-2,2v6a2.006,2.006,0,0,0,2,2h6.4248l2.21,2.21A.79957.79957,0,0,0,23,22.20021S23.00269,12.40718,23,12.39393Zm-7.72681,4.14985a1,1,0,1,1,1-.99994A1.0002,1.0002,0,0,1,15.27319,16.54378Zm3.45337.00012a1.00013,1.00013,0,1,1,1.00025-1.00006A1,1,0,0,1,18.72656,16.5439Z"/><path d="M5.7998,9.99971H9.98926A3.97474,3.97474,0,0,1,13.04,8.55568h7.55615c.001-.3374.0022-.55347.00342-.55347V3.79982A2.80281,2.80281,0,0,0,17.7998,1h-14A2.80281,2.80281,0,0,0,1,3.79982v16a.79964.79964,0,0,0,1.36523.56543l3.76563-3.76563H9V12.55568a3.991,3.991,0,0,1,.16846-.95636H5.7998a.79981.79981,0,0,1,0-1.59961Zm0-4h10a.79981.79981,0,1,1,0,1.59961h-10a.79981.79981,0,0,1,0-1.59961Z"/></svg>