<svg xmlns="http://www.w3.org/2000/svg" viewBox="0 0 24 24"><path d="M5.83975,5.99971a.79981.79981,0,0,0,0,1.59961h10a.79981.79981,0,1,0,0-1.59961Z"/><path d="M5.04,10.79951a.80021.80021,0,0,0,.7998.79981H9.16861a3.97082,3.97082,0,0,1,.82056-1.59961H5.83975A.80021.80021,0,0,0,5.04,10.79951Z"/><path d="M6.13077,14.99965a1.59977,1.59977,0,0,0-1.13135.46863L2.6,17.86775V3.79982A1.20108,1.20108,0,0,1,3.79971,2.6h14a1.20108,1.20108,0,0,1,1.19971,1.19983s.001,4.53808-.00146,4.75586H20.5961c.00122-.3374.00342-4.75586.00342-4.75586A2.80281,2.80281,0,0,0,17.79971,1h-14A2.80281,2.80281,0,0,0,.99991,3.79982v16a.79964.79964,0,0,0,1.36523.56543l3.76563-3.76563H9v-1.6Z"/><path d="M15.54034,14.5468a1.00012,1.00012,0,1,0,.99985,1.00016A1.00014,1.00014,0,0,0,15.54034,14.5468Z"/><path d="M18.54019,14.5468a1,1,0,1,0,1,1A1,1,0,0,0,18.54019,14.5468Z"/><path d="M23,12.39438A2.01565,2.01565,0,0,0,21,10.556H13a2.00583,2.00583,0,0,0-2,2v6a2.00583,2.00583,0,0,0,2,2h6.4248l2.21,2.21A.79957.79957,0,0,0,23,22.20053S23.00269,12.40756,23,12.39438Zm-1.6001,6.16223v1.71185l-.84375-.84381-.4685-.46863H13a.40532.40532,0,0,1-.3999-.4v-6a.40532.40532,0,0,1,.3999-.4h8a.39883.39883,0,0,1,.38916.36993l.00781.095.00293.0152Z"/></svg>