<svg xmlns="http://www.w3.org/2000/svg" viewBox="0 0 24 24"><path d="M16.99991,11a6,6,0,1,0,6,6A6,6,0,0,0,16.99991,11Zm0,10.4a4.4,4.4,0,1,1,4.3999-4.4A4.40486,4.40486,0,0,1,16.99991,21.4Z"/><path d="M18.79971,16.34961H17.6503V15.2002a.65039.65039,0,1,0-1.30078,0v1.14941H15.2001a.65039.65039,0,1,0,0,1.30078h1.14942V18.7998a.65039.65039,0,1,0,1.30078,0V17.65039h1.14941a.65039.65039,0,1,0,0-1.30078Z"/><path d="M2.6,20.4V8h16.7998V9.79449a7.5622,7.5622,0,0,1,1.6001.75544V4a1.00288,1.00288,0,0,0-1-1h-2V2a1,1,0,0,0-2,0V3h-10V2a1,1,0,0,0-2,0V3h-2a1.00288,1.00288,0,0,0-1,1V21a1.00288,1.00288,0,0,0,1,1h9.29077a7.61634,7.61634,0,0,1-1.07812-1.6Z"/><rect x="4.2001" y="14" width="4" height="4" rx="1" ry="1"/></svg>