<svg xmlns="http://www.w3.org/2000/svg" viewBox="0 0 24 24"><path d="M21.00006,4a1.00288,1.00288,0,0,0-1-1H18V2a1,1,0,0,0-2,0V3H6V2A1,1,0,0,0,4,2V3H2.00006a1.00288,1.00288,0,0,0-1,1V7h20Z"/><path d="M18.00006,13a5,5,0,1,0,5,5A5,5,0,0,0,18.00006,13Zm1.71655,5.65039h-1.0664V19.7168a.65039.65039,0,1,1-1.30078,0V18.65039H16.283a.65039.65039,0,1,1,0-1.30078h1.06641V16.2832a.65039.65039,0,0,1,1.30078,0v1.06641h1.0664a.65039.65039,0,1,1,0,1.30078Z"/><path d="M18.00006,11.4a6.55189,6.55189,0,0,1,3,.72852V8h-20V21a1.00288,1.00288,0,0,0,1,1H12.76251a6.588,6.588,0,0,1,5.23755-10.6ZM8,18a1.00291,1.00291,0,0,1-1,1H5a1.00308,1.00308,0,0,1-1-1V16a1.00308,1.00308,0,0,1,1-1H7a1.00291,1.00291,0,0,1,1,1Z"/></svg>