<svg xmlns="http://www.w3.org/2000/svg" viewBox="0 0 24 24">
    <path d="M21.105,6.553L12.894,2.447C12.323,2.201 11.676,2.201 11.105,2.447L2.894,6.553C2.37,6.852 2.032,7.398 2,8L2,21C2.001,21.548 2.452,21.998 3,22L21,22C21.548,21.998 21.998,21.548 22,21L22,8C21.967,7.398 21.629,6.851 21.105,6.553ZM3.653,7.962L11.802,3.887C11.866,3.869 11.933,3.861 12,3.863C12.059,3.863 12.119,3.868 12.178,3.879L12.179,3.878L20.346,7.962C20.368,7.988 20.386,8.018 20.399,8.049L20.399,9.391L12,13.125L3.6,9.391L3.6,8.049C3.614,8.018 3.631,7.988 3.653,7.962Z"/>
</svg>
