<svg xmlns="http://www.w3.org/2000/svg" viewBox="0 0 24 24">
<path d="M12,1A11,11,0,1,0,23,12,11,11,0,0,0,12,1Zm0,20.4A9.4,9.4,0,1,1,21.3999,12,9.41063,9.41063,0,0,1,12,21.4Z"/><path d="M16.56543,7.43428a.79924.79924,0,0,0-1.13086,0L12,10.86885,8.56543,7.43428A.79964.79964,0,0,0,7.43457,8.56514l3.43457,3.43457L7.43457,15.43428a.79964.79964,0,1,0,1.13086,1.13086L12,13.13057l3.43457,3.43457a.79964.79964,0,1,0,1.13086-1.13086l-3.43457-3.43457,3.43457-3.43457A.79924.79924,0,0,0,16.56543,7.43428Z"/></svg>