<svg xmlns="http://www.w3.org/2000/svg" viewBox="0 0 24 24">
<polygon points="8 16 11.923 14.692 19.769 6.846 17.153 4.231 9.307 12.077 8 16"/><path d="M21.73029,3.57727,20.42267,2.26972a.92759.92759,0,0,0-1.30786,0l-.43579.43585-.87159.87176,2.61524,2.61524.65332-.65351.00049-.0003.65381-.65381A.92739.92739,0,0,0,21.73029,3.57727Z"/><path d="M18.39981,19a.40529.40529,0,0,1-.3999.4h-13A.40529.40529,0,0,1,4.6,19V6a.40527.40527,0,0,1,.3999-.4h7.9436L14.54337,4H4.99991a2.00583,2.00583,0,0,0-2,2V19a2.00579,2.00579,0,0,0,2,2h13a2.00579,2.00579,0,0,0,2-2V9.41632l-1.6001,1.6Z"/></svg>