<svg xmlns="http://www.w3.org/2000/svg" viewBox="0 0 24 24"><path class="cls-2" d="M22.90477,20.82747,12.69925,1.95845a.82859.82859,0,0,0-1.3985,0L1.09523,20.82747A.79475.79475,0,0,0,1.79448,22h20.411a.79475.79475,0,0,0,.69925-1.17253ZM3.127,20.41141,12,4.00673l8.873,16.40468Z"/><path d="M11.702,10.06854h.5959a.69519.69519,0,0,1,.69519.69519V14.2716a.69519.69519,0,0,1-.69519.69519H11.702a.69513.69513,0,0,1-.69513-.69513v-3.508A.69513.69513,0,0,1,11.702,10.06854Z"/><rect x="10.90749" y="16.75437" width="2.18503" height="2.18485" rx="0.99311" ry="0.99311"/></svg>