<svg xmlns="http://www.w3.org/2000/svg" viewBox="0 0 24 24">
<path d="M18.7998,12a.7998.7998,0,1,0-1.5996,0,5.19536,5.19536,0,0,1-.582,2.35718L17.793,15.53174A6.80305,6.80305,0,0,0,18.7998,12Z"/><path d="M20.63159,20.631,3.36914,3.36841A.79964.79964,0,1,0,2.23828,4.49927L8,10.26111V12a4.01182,4.01182,0,0,0,4,4,3.94865,3.94865,0,0,0,1.4541-.28479l.89575.89587A5.14614,5.14614,0,0,1,12,17.2002,5.20082,5.20082,0,0,1,6.7998,12a.7998.7998,0,0,0-1.5996,0,6.78993,6.78993,0,0,0,6,6.74829V21.2002H9a.7998.7998,0,0,0,0,1.5996h6a.7998.7998,0,0,0,0-1.5996H12.7998V18.7478a6.74554,6.74554,0,0,0,2.73584-.95105l3.96509,3.96509A.79964.79964,0,0,0,20.63159,20.631Z"/><path d="M16,12V5A4,4,0,0,0,8,5v.73889l7.71533,7.71521A3.94906,3.94906,0,0,0,16,12Z"/></svg>