<svg xmlns="http://www.w3.org/2000/svg" viewBox="0 0 24 24"><path d="M20.738,3.69417A.80261.80261,0,0,0,20,3.1999H14a.79981.79981,0,0,0,0,1.59961h4.06934L9.43457,13.43428a.79964.79964,0,1,0,1.13086,1.13086L19.2002,5.93037V9.99971a.7998.7998,0,0,0,1.5996,0v-6A.79788.79788,0,0,0,20.738,3.69417Z"/><path d="M20,14.1999a.8002.8002,0,0,0-.7998.79981V19.1999H4.7998V4.79951H9A.79981.79981,0,0,0,9,3.1999H4a.8002.8002,0,0,0-.7998.79981v16A.80019.80019,0,0,0,4,20.79951H20a.80019.80019,0,0,0,.7998-.7998v-5A.8002.8002,0,0,0,20,14.1999Z"/></svg>