<svg xmlns="http://www.w3.org/2000/svg" viewBox="0 0 24 24">
<path d="M20.99991,11.1999H9.87833a2.98306,2.98306,0,0,0-5.75684,0H2.99991a.79981.79981,0,1,0,0,1.59961H4.12149a2.98285,2.98285,0,0,0,5.75684,0H20.99991a.79981.79981,0,0,0,0-1.59961Zm-14,2.20014a1.39748,1.39748,0,0,1-1.14624-.60053h0a1.41762,1.41762,0,0,1-.17017-.34069c-.0083-.02393-.01562-.04828-.02246-.07276a1.253,1.253,0,0,1,0-.77258c.00708-.02435.01416-.04859.02246-.07239a1.41228,1.41228,0,0,1,.17066-.34119h0a1.39407,1.39407,0,0,1,2.2915,0h0a1.41264,1.41264,0,0,1,.17066.34119c.0083.0238.01538.048.02246.07239a1.25443,1.25443,0,0,1,.00024.77228c-.00708.02465-.0144.04925-.0227.07336a1.4156,1.4156,0,0,1-.17017.34039h0A1.3975,1.3975,0,0,1,6.99991,13.4Z"/><path d="M20.99991,5.1999H19.87833a2.98306,2.98306,0,0,0-5.75684,0H2.99991a.79981.79981,0,1,0,0,1.59961H14.12149a2.98285,2.98285,0,0,0,5.75684,0h1.12158a.79981.79981,0,0,0,0-1.59961ZM18.339,6.38576c-.00708.02465-.0144.04925-.0227.07336a1.4156,1.4156,0,0,1-.17017.34039,1.39419,1.39419,0,0,1-2.29248,0,1.41762,1.41762,0,0,1-.17017-.34069c-.0083-.02393-.01562-.04828-.02246-.07276a1.253,1.253,0,0,1,0-.77258c.00708-.02435.01416-.04859.02246-.07239a1.41228,1.41228,0,0,1,.17066-.34119,1.39407,1.39407,0,0,1,2.2915,0,1.41264,1.41264,0,0,1,.17066.34119c.0083.0238.01538.048.02246.07239a1.25443,1.25443,0,0,1,.00024.77228Z"/><path d="M20.99991,17.1999H15.87833a2.98306,2.98306,0,0,0-5.75684,0H2.99991a.79981.79981,0,1,0,0,1.59961h7.12158a2.98285,2.98285,0,0,0,5.75684,0h5.12158a.79981.79981,0,0,0,0-1.59961Zm-8,2.20014a1.39748,1.39748,0,0,1-1.14624-.60053h0a1.41762,1.41762,0,0,1-.17017-.34069c-.0083-.02393-.01562-.04828-.02246-.07276a1.253,1.253,0,0,1,0-.77258c.00708-.02435.01416-.04859.02246-.07239a1.41228,1.41228,0,0,1,.17066-.34119h0a1.39407,1.39407,0,0,1,2.2915,0h0a1.41264,1.41264,0,0,1,.17066.34119c.0083.0238.01538.048.02246.07239a1.25443,1.25443,0,0,1,.00024.77228c-.00708.02465-.0144.04925-.0227.07336a1.4156,1.4156,0,0,1-.17017.34039h0A1.3975,1.3975,0,0,1,12.99991,19.4Z"/></svg>