<svg xmlns="http://www.w3.org/2000/svg" viewBox="0 0 24 24">
<path d="M17,10h-.2002V8a4.80548,4.80548,0,0,0-2.95361-4.42822l-.00928-.00635a4.79252,4.79252,0,0,0-.4646-.14111c-.14062-.04236-.27514-.09839-.42089-.12793A4.79651,4.79651,0,0,0,7.56543,6.164.8.8,0,0,0,9.044,6.77538,3.21027,3.21027,0,0,1,12,4.79784v.002a3.20226,3.20226,0,0,1,.634.06408,3.24832,3.24832,0,0,1,.37061.11316A3.194,3.194,0,0,1,15.2002,8v2H7a2.00583,2.00583,0,0,0-2,2v8a2.00583,2.00583,0,0,0,2,2H17a2.00583,2.00583,0,0,0,2-2V12A2.00583,2.00583,0,0,0,17,10Zm-3.5,6.5a1.00288,1.00288,0,0,1-1,1h-1a1.00288,1.00288,0,0,1-1-1v-1a1.00288,1.00288,0,0,1,1-1h1a1.00288,1.00288,0,0,1,1,1Z"/></svg>