<svg xmlns="http://www.w3.org/2000/svg" viewBox="0 0 24 24">
<path d="M17,10h-.2002V8a4.80548,4.80548,0,0,0-2.95361-4.42822l-.00928-.00635a4.79252,4.79252,0,0,0-.4646-.14111c-.14062-.04236-.27514-.09839-.42089-.12793A4.79651,4.79651,0,0,0,7.56543,6.164.8.8,0,0,0,9.044,6.77538,3.21027,3.21027,0,0,1,12,4.79784v.002a3.20226,3.20226,0,0,1,.634.06408,3.24832,3.24832,0,0,1,.37061.11316A3.194,3.194,0,0,1,15.2002,8v2H7a2.00583,2.00583,0,0,0-2,2v8a2.00583,2.00583,0,0,0,2,2H17a2.00583,2.00583,0,0,0,2-2V12A2.00583,2.00583,0,0,0,17,10Zm.3999,10A.40533.40533,0,0,1,17,20.4H7a.40533.40533,0,0,1-.3999-.4V12A.40532.40532,0,0,1,7,11.6H17a.40532.40532,0,0,1,.3999.4Z"/><rect x="10.5" y="14.49999" width="3" height="3" rx="1" ry="1"/></svg>