<svg xmlns="http://www.w3.org/2000/svg" viewBox="0 0 24 24">
<path d="M19,9A7,7,0,1,0,5,9c0,.01971.00269.03869.00293.05841L5,9.0769c0,.05335.01074.10932.01221.163.00683.20922.021.41638.0459.6206C5.64775,15.28662,12,22,12,22s6.3523-6.71338,6.94189-12.13953c.02491-.20422.03907-.41138.0459-.6206C18.9893,9.18622,19,9.13025,19,9.0769l-.00293-.01849C18.99735,9.03869,19,9.01971,19,9Zm-1.603.05328c-.00415.04737-.00732.09339-.0083.1344-.00537.1615-.01587.32141-.03735.49994-.35449,3.26184-3.354,7.48639-5.352,9.891-1.99781-2.40192-4.99561-6.62506-5.353-9.91186-.019-.15766-.02954-.31757-.03467-.47071-.00122-.04547-.00415-.09161-.00854-.142l-.00025-.01514c-.00024-.02631-.00122-.05237-.00268-.0788a5.4,5.4,0,0,1,10.7998.0033C17.39848,8.99444,17.39726,9.0285,17.397,9.05328Z"/><path d="M12,6a3,3,0,1,0,3,3A2.99992,2.99992,0,0,0,12,6Zm0,4.4A1.4,1.4,0,1,1,13.39994,9,1.40151,1.40151,0,0,1,12,10.4Z"/></svg>