<svg xmlns="http://www.w3.org/2000/svg" viewBox="0 0 24 24"><path d="M14.00293,15.26045a1.97718,1.97718,0,0,0-1.86523.78613s-.42383.45313-.45215.48438a26.57152,26.57152,0,0,1-4.21973-4.21973c.0293-.02637.48535-.45312.48535-.45312a1.96863,1.96863,0,0,0,.78516-1.86524,10.1983,10.1983,0,0,0-2.585-4.36718A1.61328,1.61328,0,0,0,4.542,5.26533a5.50017,5.50017,0,0,0-3.22656,2.7168c-.709,2.34473,1.99023,6.64258,5.02441,9.67481,3.19727,3.19824,6.57715,5.14355,8.80176,5.14355a3.0148,3.0148,0,0,0,.873-.11914,5.50931,5.50931,0,0,0,2.7168-3.22461l.001-.002a1.61,1.61,0,0,0-.36035-1.60938A10.19739,10.19739,0,0,0,14.00293,15.26045Zm3.17676,3.80664a4.337,4.337,0,0,1-1.62793,2.083c-1.10742.33105-4.33887-.88184-8.08106-4.624-3.541-3.54-4.96093-6.96778-4.624-8.08106a4.33659,4.33659,0,0,1,2.085-1.62793.47449.47449,0,0,0,.11914-.03027A8.67337,8.67337,0,0,1,7.166,10.30244c.01367.07129-.08887.18164-.30957.38867-.06446.06055-.127.11915-.18555.17872-.03809.04-.11035.10351-.19141.17675-.46.415-.71289.64453-.75488,1.01856-.03516.31543-.10059.9043,2.60156,3.60547,2.70117,2.70215,3.28711,2.6416,3.60645,2.60156.375-.042.60547-.29688,1.02343-.76074.07129-.0791.13379-.14942.17286-.1875.05761-.05664.11621-.11914.17675-.1836.20508-.21972.30176-.32422.3877-.30957a8.84663,8.84663,0,0,1,3.50488,2.0791A.42452.42452,0,0,1,17.17969,19.06709Z"/><path d="M21,.9944,12,1a2.00083,2.00083,0,0,0-2,2.01686v9.189a.79207.79207,0,0,0,1.35449.56543l2.21-2.21H21a2.00561,2.00561,0,0,0,2-2.02246V3A1.99125,1.99125,0,0,0,21,.9944Zm.40039,7.54443a.42794.42794,0,0,1-.42187.42285H13.2334a.79732.79732,0,0,0-.56543.23438l-1.0791,1.07812V3.01686a.42794.42794,0,0,1,.42187-.42285h8.96778a.42794.42794,0,0,1,.42187.42285Z"/><path d="M19.20532,4.997a.8.8,0,1,0,.8.80005A.8002.8002,0,0,0,19.20532,4.997Z"/><path d="M16.50537,4.997a.8.8,0,1,0,.80005.80005A.8.8,0,0,0,16.50537,4.997Z"/><path d="M13.80542,4.997a.8.8,0,1,0,.80005.80005A.8.8,0,0,0,13.80542,4.997Z"/></svg>