<svg xmlns="http://www.w3.org/2000/svg" viewBox="0 0 24 24">
<path d="M17.92392,17.92714l.00366-.00257-1.15722-1.15722-.00367.0025-1.37622-1.37616.00293-.00342L14.263,14.25984l-.00293.00336L9.73666,9.73982,9.74008,9.737,8.60947,8.60646l-.00342.00287L7.22836,7.23152l.00415-.00214L6.076,6.07295l-.00391.00238-2.707-2.707A.79964.79964,0,1,0,2.23422,4.49922l2.5315,2.53137A15.47691,15.47691,0,0,0,1.11606,11.508a1.10062,1.10062,0,0,0,0,.984c.147.29431,3.68652,7.208,10.88379,7.208a10.64913,10.64913,0,0,0,4.45923-.97608l3.04174,3.04169a.79964.79964,0,0,0,1.13086-1.13086ZM8.9183,11.18336l3.8982,3.898a3.16277,3.16277,0,0,1-.81665.11878A3.20376,3.20376,0,0,1,8.79965,12,3.16671,3.16671,0,0,1,8.9183,11.18336ZM11.99985,18.1c-5.62744,0-8.70093-4.95862-9.33374-6.1A13.84714,13.84714,0,0,1,5.89438,8.15944l1.78589,1.7857A4.74256,4.74256,0,0,0,7.2,12a4.80542,4.80542,0,0,0,4.79981,4.79981,4.74349,4.74349,0,0,0,2.05469-.48017l1.18286,1.18274A9.09316,9.09316,0,0,1,11.99985,18.1Z"/><path d="M22.88388,11.508c-.14722-.29431-3.68677-7.208-10.884-7.208a10.60414,10.60414,0,0,0-4.45825.97687l1.231,1.231A9.00169,9.00169,0,0,1,11.99985,5.9c5.6228,0,8.70019,4.95868,9.33374,6.1a13.943,13.943,0,0,1-3.23926,3.82959l1.13477,1.13477A15.51474,15.51474,0,0,0,22.88388,12.492,1.10062,1.10062,0,0,0,22.88388,11.508Z"/><path d="M16.31943,14.0547A4.74222,4.74222,0,0,0,16.79965,12a4.80541,4.80541,0,0,0-4.7998-4.7998,4.74346,4.74346,0,0,0-2.05469.48022l1.23828,1.23816a3.15721,3.15721,0,0,1,.81641-.11877A3.20374,3.20374,0,0,1,15.2,12a3.16619,3.16619,0,0,1-.11865.81653Z"/></svg>