<svg xmlns="http://www.w3.org/2000/svg" viewBox="0 0 24 24">
<path d="M22.884,11.508C22.73682,11.2137,19.19727,4.3,12,4.3S1.26318,11.2137,1.116,11.508a1.10221,1.10221,0,0,0,0,.984C1.26318,12.78633,4.80273,19.7,12,19.7s10.73682-6.9137,10.884-7.208A1.10221,1.10221,0,0,0,22.884,11.508ZM12,18.10005c-5.62354,0-8.70117-4.9602-9.33374-6.1C3.2998,10.85884,6.3772,5.9,12,5.9c5.62354,0,8.70117,4.9602,9.33374,6.1C20.7002,13.14119,17.6228,18.10005,12,18.10005Z"/><path d="M12,7.1999a4.79981,4.79981,0,1,0,4.7998,4.79981A4.80542,4.80542,0,0,0,12,7.1999Zm0,8a3.2002,3.2002,0,1,1,3.2002-3.20019A3.20375,3.20375,0,0,1,12,15.1999Z"/></svg>