<svg xmlns="http://www.w3.org/2000/svg" viewBox="0 0 24 24"><path d="M14.32959,16.30122a1.74122,1.74122,0,0,0-1.5398.69562,5.32933,5.32933,0,0,1-.88183.74811c-.78369.08728-5.74414-4.87317-5.657-5.65686a5.3351,5.3351,0,0,1,.748-.8819,1.741,1.741,0,0,0,.6958-1.53973A10.62348,10.62348,0,0,0,5.03394,5.21419a.94025.94025,0,0,0-.95606-.16828A5.45,5.45,0,0,0,1.09155,7.48939C.51074,9.4084,2.739,13.699,6.51807,17.478c4.02539,4.02533,8.06958,6.0072,9.98852,5.42657a5.45143,5.45143,0,0,0,2.44361-2.98638.94093.94093,0,0,0-.16846-.95618A10.62121,10.62121,0,0,0,14.32959,16.30122Z"/><path d="M21,.9944,12,1a2.00083,2.00083,0,0,0-2,2.01686v9.189a.79207.79207,0,0,0,1.35449.56543l2.21-2.21H21a2.00561,2.00561,0,0,0,2-2.02246V3A1.99125,1.99125,0,0,0,21,.9944ZM13.78442,6.5796a.8.8,0,1,1,.8-.8A.80017.80017,0,0,1,13.78442,6.5796Zm2.7,0a.8.8,0,1,1,.8-.8A.8.8,0,0,1,16.48438,6.5796Zm2.70019,0a.8.8,0,1,1,.79981-.8A.8.8,0,0,1,19.18457,6.5796Z"/></svg>