<svg xmlns="http://www.w3.org/2000/svg" viewBox="0 0 24 24">
<path d="M22.88392,11.508c-.147-.29437-3.68653-7.208-10.88379-7.208a10.60237,10.60237,0,0,0-4.45825.97705L9.79725,7.53236A4.947,4.947,0,0,1,12.00013,7a5.00009,5.00009,0,0,1,5,5,4.94514,4.94514,0,0,1-.53247,2.20288l2.76147,2.76148A15.51387,15.51387,0,0,0,22.88392,12.492,1.10055,1.10055,0,0,0,22.88392,11.508Z"/><path d="M15.00013,12a2.98226,2.98226,0,0,0-3.65772-2.92254l3.58033,3.58032A2.99557,2.99557,0,0,0,15.00013,12Z"/><path d="M17.924,17.9272l.0039-.00256-2.39111-2.39112-.00293.00348-1.41406-1.41424.00293-.00336-4.242-4.24176-.00341.00281L8.463,8.46626l.00342-.00287L6.0763,6.07313l-.00391.00232-2.707-2.70709A.79964.79964,0,1,0,2.2345,4.49922L4.76575,7.03065A15.48118,15.48118,0,0,0,1.11609,11.508a1.10055,1.10055,0,0,0,0,.984c.14722.29437,3.68677,7.208,10.884,7.208a10.64968,10.64968,0,0,0,4.459-.976l3.04151,3.04169a.79964.79964,0,0,0,1.13086-1.13086ZM12.00013,17a5,5,0,0,1-5-5,4.9481,4.9481,0,0,1,.53222-2.20282l1.54517,1.54523a2.98231,2.98231,0,0,0,3.58032,3.58014l1.54492,1.54523A4.94584,4.94584,0,0,1,12.00013,17Z"/></svg>