<svg xmlns="http://www.w3.org/2000/svg" viewBox="0 0 24 24"><path d="M22,5.80461v10.37a2.8341,2.8341,0,0,1-2.8,2.83H7.13l-3.76,3.74a.82748.82748,0,0,1-.57.23.85334.85334,0,0,1-.31-.06.79584.79584,0,0,1-.49-.74v-16.37a2.80179,2.80179,0,0,1,2.8-2.8H19.2A2.80179,2.80179,0,0,1,22,5.80461Zm-1.6,10.37v-10.37a1.19711,1.19711,0,0,0-1.2-1.2H4.8a1.19711,1.19711,0,0,0-1.2,1.2v14.44l2.63-2.64a.8098.8098,0,0,1,.57-.23H19.2A1.20353,1.20353,0,0,0,20.4,16.17461Z"/><circle cx="8.09985" cy="11" r="1.19995"/><path d="M12,9.80005A1.19995,1.19995,0,1,0,13.2,11,1.20023,1.20023,0,0,0,12,9.80005Z"/><path d="M15.8999,9.80005A1.2,1.2,0,1,0,17.1001,11,1.2,1.2,0,0,0,15.8999,9.80005Z"/></svg>