<svg xmlns="http://www.w3.org/2000/svg" viewBox="0 0 24 24"><path d="M12,1A11,11,0,1,0,23,12,11,11,0,0,0,12,1Zm0,20.4A9.4,9.4,0,1,1,21.3999,12,9.41063,9.41063,0,0,1,12,21.4Z"/><path d="M18.56543,11.43428l-3-3a.79964.79964,0,0,0-1.13086,1.13086l2.43457,2.43457-2.43457,2.43457a.79964.79964,0,1,0,1.13086,1.13086l3-3A.79924.79924,0,0,0,18.56543,11.43428Z"/><path d="M9.56543,8.43428a.79924.79924,0,0,0-1.13086,0l-3,3a.79924.79924,0,0,0,0,1.13086l3,3a.79964.79964,0,1,0,1.13086-1.13086L7.13086,11.99971,9.56543,9.56514A.79924.79924,0,0,0,9.56543,8.43428Z"/></svg>