<svg xmlns="http://www.w3.org/2000/svg" viewBox="0 0 24 24"><path d="m0 0h24v24h-24z" fill="none"/><path d="m8.8916 3.39131h-3.40039a2.10138 2.10138 0 0 0 -2.09961 2.09961v3.39941a2.10221 2.10221 0 0 0 2.09961 2.10059h3.40039a2.10221 2.10221 0 0 0 2.09961-2.10059v-3.39941a2.10138 2.10138 0 0 0 -2.09961-2.09961zm.5 5.499a.50759.50759 0 0 1 -.5.501h-3.40039a.50759.50759 0 0 1 -.5-.501v-3.39939a.50739.50739 0 0 1 .5-.5h3.40039a.50739.50739 0 0 1 .5.5z"/><path d="m18.50879 3.39131h-3.40039a2.10138 2.10138 0 0 0 -2.09961 2.09961v3.39941a2.10221 2.10221 0 0 0 2.09961 2.10059h3.40039a2.10221 2.10221 0 0 0 2.09961-2.10059v-3.39941a2.10138 2.10138 0 0 0 -2.09961-2.09961zm.5 5.499a.50759.50759 0 0 1 -.5.501h-3.40039a.50759.50759 0 0 1 -.5-.501v-3.39939a.50739.50739 0 0 1 .5-.5h3.40039a.50739.50739 0 0 1 .5.5z"/><path d="m8.8916 13.00947h-3.40039a2.10138 2.10138 0 0 0 -2.09961 2.09961v3.40039a2.10138 2.10138 0 0 0 2.09961 2.09961h3.40039a2.10138 2.10138 0 0 0 2.09961-2.09961v-3.40039a2.10138 2.10138 0 0 0 -2.09961-2.09961zm.5 5.5a.50739.50739 0 0 1 -.5.5h-3.40039a.50739.50739 0 0 1 -.5-.5v-3.40039a.5074.5074 0 0 1 .5-.5h3.40039a.5074.5074 0 0 1 .5.5z"/><path d="m18.50879 13.00947h-3.40039a2.10138 2.10138 0 0 0 -2.09961 2.09961v3.40039a2.10138 2.10138 0 0 0 2.09961 2.09961h3.40039a2.10138 2.10138 0 0 0 2.09961-2.09961v-3.40039a2.10138 2.10138 0 0 0 -2.09961-2.09961zm.5 5.5a.50739.50739 0 0 1 -.5.5h-3.40039a.50739.50739 0 0 1 -.5-.5v-3.40039a.5074.5074 0 0 1 .5-.5h3.40039a.5074.5074 0 0 1 .5.5z"/></svg>