<svg xmlns="http://www.w3.org/2000/svg" viewBox="0 0 24 24"><path d="M7.56761,12.19988A1.1999,1.1999,0,1,1,8.76761,11,1.2,1.2,0,0,1,7.56761,12.19988Zm4.43239,0A1.1999,1.1999,0,1,1,13.2,11,1.2,1.2,0,0,1,12,12.19988Zm4.16761,0A1.1999,1.1999,0,1,1,17.36761,11,1.2,1.2,0,0,1,16.16761,12.19988ZM19.2,3,4.79167,2.99544A2.80281,2.80281,0,0,0,1.99186,5.79525V22.18a.79969.79969,0,0,0,.49414.73926A.82219.82219,0,0,0,2.79167,23a.81835.81835,0,0,0,.56543-.25456L7.12272,19H19.208A2.818,2.818,0,0,0,22,16.1748V5.78711A2.79215,2.79215,0,0,0,19.2,3Z"/></svg>