<svg xmlns="http://www.w3.org/2000/svg" viewBox="0 0 24 24"><path d="m0 0h24v24h-24z" fill="none"/><path d="m22 4h-7v1.6h6.4v10.8h-14.8v-.6h-1.6v1.2c0 .6.4 1 1 1h5.7v2.7h-2.7c-.4 0-.8.4-.8.8s.4.8.8.8h10c.4 0 .8-.4.8-.8s-.4-.8-.8-.8h-2.7v-2.7h5.7c.6 0 1-.4 1-1v-12c0-.6-.5-1-1-1zm-7.3 16.7h-1.4v-2.7h1.4z"/><path d="m9.9 5.3v4c0 1.4-1 2.6-2.3 2.8-.2-.2-.5-.4-.8-.4-.6 0-1 .4-1 1s.4 1 1 1c.4 0 .7-.2.9-.5 1.5-.3 2.8-1.4 3.1-2.9h1c.7 0 1.2-.5 1.2-1.2v-2.1c0-.7-.5-1.2-1.2-1.2h-.6v-.5c.1-2.4-1.8-4.3-4.2-4.3s-4.3 1.9-4.3 4.2v.6h-.5c-.7 0-1.2.5-1.2 1.2v2.1c0 .7.5 1.2 1.2 1.2h1.6c.1 0 .2-.1.2-.2v-4.8c0-1.6 1.3-2.9 2.9-2.9s3 1.2 3 2.9z"/></svg>