<svg xmlns="http://www.w3.org/2000/svg" viewBox="0 0 24 24">
<path d="M12,1A11,11,0,1,0,23,12,11.03231,11.03231,0,0,0,12,1ZM8.8855,14.40771H7.155a.25528.25528,0,0,1-.22632-.118.26813.26813,0,0,1,0-.26556l1.83887-3.245a.009.009,0,0,0,0-.00982L7.59741,8.74359a.269.269,0,0,1-.00976-.2655.26539.26539,0,0,1,.23608-.10816H9.5542a.53422.53422,0,0,1,.48193.32453s1.18262,2.06341,1.18994,2.07483c-.07031.12353-1.8684,3.304-1.8684,3.304A.52906.52906,0,0,1,8.8855,14.40771Zm8.18384-8.03009-3.83179,6.77527v.01136l2.4397,4.45782a.26986.26986,0,0,1,.00366.2674A.25609.25609,0,0,1,15.45117,18H13.72241a.54122.54122,0,0,1-.4834-.32959s-2.45288-4.49976-2.45922-4.5116c.1228-.2171,3.85131-6.8291,3.85131-6.8291a.50717.50717,0,0,1,.46338-.32959V6h1.74829a.25651.25651,0,0,1,.23.11053A.27046.27046,0,0,1,17.06934,6.37762Z"/></svg>