<svg xmlns="http://www.w3.org/2000/svg" viewBox="0 0 24 24"><path d="M19.667,3.00024H4.32715A1.3129,1.3129,0,0,0,3,4.29712V19.70186a1.31248,1.31248,0,0,0,1.32715,1.2979H19.667A1.317,1.317,0,0,0,21,19.70186V4.29712A1.31737,1.31737,0,0,0,19.667,3.00024ZM8.33984,18.33866H5.667V9.74878H8.33984ZM7.00391,8.574A1.54785,1.54785,0,1,1,8.55176,7.02564,1.54738,1.54738,0,0,1,7.00391,8.574Zm11.333,9.76468h-2.667v-4.1768c0-.9971-.0195-2.27782-1.3877-2.27782-1.38962,0-1.60154,1.08447-1.60154,2.20462v4.25h-2.667V9.74878h2.55957v1.17334h.03614a2.8057,2.8057,0,0,1,2.52632-1.3872c2.7022,0,3.2012,1.7788,3.2012,4.09274Z"/></svg>