<?xml version="1.0" encoding="UTF-8" standalone="no"?>
<!DOCTYPE svg PUBLIC "-//W3C//DTD SVG 1.1//EN" "http://www.w3.org/Graphics/SVG/1.1/DTD/svg11.dtd">
<svg width="100%" height="100%" viewBox="0 0 24 24" version="1.1" xmlns="http://www.w3.org/2000/svg" xmlns:xlink="http://www.w3.org/1999/xlink" xml:space="preserve" xmlns:serif="http://www.serif.com/" style="fill-rule:evenodd;clip-rule:evenodd;stroke-linejoin:round;stroke-miterlimit:1.41421;">
    <path d="M21.836,1.166C22.331,1.166 22.811,1.264 23.256,1.452C23.511,1.559 23.804,1.44 23.912,1.186C24.019,0.931 23.9,0.638 23.645,0.531C23.078,0.291 22.465,0.166 21.836,0.166C19.812,0.166 18.108,1.47 17.472,3.277L16.667,3.277C16.391,3.277 16.167,3.501 16.167,3.777C16.167,4.053 16.391,4.277 16.667,4.277L17.245,4.277C17.224,4.455 17.191,4.63 17.191,4.814C17.191,4.997 17.224,5.172 17.245,5.35L16.667,5.35C16.391,5.35 16.167,5.574 16.167,5.85C16.167,6.126 16.391,6.35 16.667,6.35L17.472,6.35C18.108,8.156 19.813,9.459 21.836,9.459C22.419,9.459 22.987,9.352 23.518,9.145C23.775,9.045 23.902,8.755 23.802,8.498C23.702,8.24 23.412,8.113 23.155,8.213C22.739,8.375 22.295,8.459 21.836,8.459C20.374,8.459 19.122,7.592 18.541,6.35L21.9,6.35C22.176,6.35 22.4,6.126 22.4,5.85C22.4,5.574 22.176,5.35 21.9,5.35L18.245,5.35C18.219,5.173 18.191,4.997 18.191,4.814C18.191,4.63 18.219,4.454 18.245,4.277L21.836,4.277C22.112,4.277 22.336,4.053 22.336,3.777C22.336,3.501 22.112,3.277 21.836,3.277L18.541,3.277C19.122,2.033 20.374,1.166 21.836,1.166Z" style="fill-rule:nonzero;"/>
    <path d="M6.868,8.947C9.063,8.947 10.842,7.168 10.842,4.973C10.842,2.778 9.064,1 6.868,1C4.674,1 2.894,2.779 2.894,4.973C2.894,7.168 4.674,8.947 6.868,8.947ZM6.868,2C8.511,2 9.842,3.331 9.842,4.973C9.842,6.616 8.511,7.947 6.868,7.947C5.226,7.947 3.894,6.616 3.894,4.973C3.894,3.331 5.226,2 6.868,2Z" style="fill-rule:nonzero;"/>
    <path d="M11,17.712C11,19.267 12.261,20.527 13.815,20.527C15.37,20.527 16.631,19.267 16.631,17.712C16.631,16.156 15.371,14.894 13.815,14.894C12.26,14.894 11,16.155 11,17.712ZM15.631,17.712C15.631,18.714 14.818,19.527 13.815,19.527C12.813,19.527 12,18.715 12,17.712C12,16.707 12.813,15.894 13.815,15.894C14.819,15.894 15.631,16.708 15.631,17.712Z" style="fill-rule:nonzero;"/>
    <path d="M13.336,13.079C13.336,13.355 13.56,13.579 13.836,13.579C14.112,13.579 14.336,13.355 14.336,13.079C14.336,11.436 13.005,10.263 11.302,10.263L3.066,10.263C1.396,10.263 0.032,11.627 0.032,13.297L0,18.865C-0.002,19.142 0.221,19.367 0.497,19.368C0.773,19.37 0.998,19.147 1,18.871L1.032,13.3C1.032,12.18 1.949,11.263 3.066,11.263L11.302,11.263C12.479,11.263 13.336,12.018 13.336,13.079Z" style="fill-rule:nonzero;"/>
    <path d="M16.036,21.842L13.886,21.842L13.877,21.842L11.727,21.842C9.964,21.877 9.263,22.23 9.263,23.5C9.263,23.776 9.487,24 9.763,24C10.039,24 10.263,23.776 10.263,23.5C10.263,22.967 10.461,22.867 11.737,22.842L13.877,22.842L16.036,22.842C17.232,22.842 17.368,22.92 17.368,23.5C17.368,23.776 17.592,24 17.868,24C18.144,24 18.368,23.776 18.368,23.5C18.368,22.218 17.711,21.842 16.036,21.842Z" style="fill-rule:nonzero;"/>
</svg>
