<svg xmlns="http://www.w3.org/2000/svg" viewBox="0 0 24 24"><path d="M12.55176,6.45551a4.96879,4.96879,0,0,0-4.209,7.60864l.11817.18786-.50171,1.83258,1.87964-.493.18139.10761a4.95891,4.95891,0,0,0,2.52759.69226h.00195a4.968,4.968,0,0,0,.002-9.93591Zm2.92138,7.10089a1.53789,1.53789,0,0,1-1.00781.70984,2.04562,2.04562,0,0,1-.94043-.05921,8.58224,8.58224,0,0,1-.85107-.31445,6.6555,6.6555,0,0,1-2.55029-2.25427,2.90319,2.90319,0,0,1-.60962-1.54438,1.675,1.675,0,0,1,.52246-1.24548.54874.54874,0,0,1,.39819-.18677c.09961,0,.19922.00092.28613.00525.09156.00464.21485-.03479.33594.25629.12451.29889.42285,1.03381.46021,1.10852a.27471.27471,0,0,1,.01245.26153,1.02606,1.02606,0,0,1-.14917.249c-.07471.08722-.157.1947-.22388.26159-.07495.07447-.15259.15522-.06567.30469a4.50047,4.50047,0,0,0,.83056,1.03418,4.07587,4.07587,0,0,0,1.20069.741c.14917.07477.23632.06225.32348-.03735.08692-.09967.37305-.436.47266-.58539s.199-.12451.33594-.07471c.13671.04987.87085.41095,1.02.48572.14941.07471.24878.11206.28613.17438A1.2485,1.2485,0,0,1,15.47314,13.5564Z"/><path d="M12,1A11,11,0,1,0,23,12,11,11,0,0,0,12,1Zm.5498,16.40045h-.00244a5.96921,5.96921,0,0,1-2.85522-.72723l-3.16748.83087L7.37231,14.408a5.975,5.975,0,1,1,5.17749,2.99249Z"/></svg>