<svg xmlns="http://www.w3.org/2000/svg" viewBox="0 0 24 24">
<path d="M12,1A11,11,0,1,0,23,12,11.03231,11.03231,0,0,0,12,1Zm0,17.11035a7.0728,7.0728,0,0,1-1.88208-.24981.51866.51866,0,0,0-.34644.02612l-1.28955.569a.52085.52085,0,0,1-.72973-.46039l-.0354-1.15613a.52411.52411,0,0,0-.1753-.37011A6.16855,6.16855,0,0,1,5.5,11.80518,6.273,6.273,0,0,1,12,5.50006a6.30807,6.30807,0,1,1,0,12.61029Z"/><path d="M15.45532,9.94153l-2.05078,1.55634a.39039.39039,0,0,1-.46948.00128l-1.51831-1.1391a.97589.97589,0,0,0-1.40991.26025l-1.90943,3.029a.3085.3085,0,0,0,.44727.41065l2.05078-1.55634a.39039.39039,0,0,1,.46948-.00134l1.51831,1.13916a.97594.97594,0,0,0,1.40991-.26025l1.90943-3.029A.30849.30849,0,0,0,15.45532,9.94153Z"/></svg>