<svg xmlns="http://www.w3.org/2000/svg" viewBox="0 0 24 24">
<defs><style>.cls-1{fill:none;}.cls-2{fill:#fff;}</style></defs><path id="Bubble" d="M12,2.5a9.16841,9.16841,0,0,0-9.50012,9.21531,9.0154,9.0154,0,0,0,2.98384,6.81638.76544.76544,0,0,1,.25614.54095l.05161,1.68976a.7613.7613,0,0,0,1.06661.67285l1.88474-.8315a.75805.75805,0,0,1,.50654-.03823A10.33269,10.33269,0,0,0,12,20.93062,9.21958,9.21958,0,1,0,12,2.5Z"/><path id="Bolt" class="cls-2" d="M6.29611,14.41051l2.79077-4.427a1.42634,1.42634,0,0,1,2.06059-.38038L13.36672,11.268a.57057.57057,0,0,0,.68622-.00191l2.99722-2.27468a.45091.45091,0,0,1,.65374.60021l-2.79078,4.427a1.42633,1.42633,0,0,1-2.06059.38038l-2.21925-1.66491a.57059.57059,0,0,0-.68622.00191L6.94984,15.01072A.4509.4509,0,0,1,6.29611,14.41051Z"/></svg>