<svg xmlns="http://www.w3.org/2000/svg" viewBox="0 0 24 24">
<path d="M20.14572,3.56643a.40691.40691,0,0,0,.00538-.40059A.38517.38517,0,0,0,19.80585,3H17.18344v.00018a.76116.76116,0,0,0-.69517.49437s-5.59266,9.918-5.77685,10.24372c.00958.0177,3.68878,6.76741,3.68878,6.76741A.81189.81189,0,0,0,15.12552,21h2.593a.38387.38387,0,0,0,.34455-.16579.405.405,0,0,0-.00538-.40111l-3.65979-6.68671a.01514.01514,0,0,1,0-.01706Z"/><path d="M9.596,7.04168A.80166.80166,0,0,0,8.87323,6.555h-2.596a.3978.3978,0,0,0-.35413.16222.40361.40361,0,0,0,.01473.39825l1.75545,3.03849a.014.014,0,0,1,0,.01478L4.93481,15.03621a.40212.40212,0,0,0,0,.39831.38261.38261,0,0,0,.3394.17706H7.87A.79365.79365,0,0,0,8.57824,15.11s2.69745-4.77074,2.80263-4.956C11.37012,10.13679,9.596,7.04168,9.596,7.04168Z"/></svg>