<?xml version="1.0" encoding="UTF-8" standalone="no"?>
<!DOCTYPE svg PUBLIC "-//W3C//DTD SVG 1.1//EN" "http://www.w3.org/Graphics/SVG/1.1/DTD/svg11.dtd">
<svg width="100%" height="100%" viewBox="0 0 24 24" version="1.1" xmlns="http://www.w3.org/2000/svg" xmlns:xlink="http://www.w3.org/1999/xlink" xml:space="preserve" xmlns:serif="http://www.serif.com/" style="fill-rule:evenodd;clip-rule:evenodd;stroke-linejoin:round;stroke-miterlimit:1.41421;">
    <path d="M23.954,8.121C23.95,8.06 23.945,7.997 23.937,7.932C23.929,7.861 23.921,7.803 23.915,7.766C23.887,7.584 23.756,7.435 23.58,7.382L21.369,6.719C20.988,5.99 20.53,5.463 19.927,5.232C19.541,5.083 19.13,4.99 18.612,4.919C18.487,4.902 18.383,4.891 18.162,4.872C17.95,4.853 17.827,4.84 17.719,4.824L16.725,4.033C16.467,3.828 16.083,3.939 15.975,4.25C15.942,4.346 15.942,4.346 15.909,4.442C15.893,4.487 15.893,4.487 15.877,4.533C15.331,6.104 15.014,6.926 14.6,7.748C14.575,7.766 14.55,7.782 14.528,7.805L6.592,1.074C6.385,0.898 6.074,0.923 5.898,1.131C5.722,1.338 5.748,1.649 5.955,1.825L14.052,8.693C13.871,8.948 13.691,9.142 13.476,9.289C13.199,9.481 12.849,9.614 12.412,9.706C11.85,9.825 11.269,9.865 10.411,9.864C10.274,9.864 10.164,9.864 9.918,9.862C9.825,9.861 9.825,9.861 9.731,9.86C9.46,9.858 9.243,9.858 8.756,9.858C7.395,9.859 6.792,9.851 6.044,9.812C5.546,9.785 5.262,9.748 4.99,9.659C4.763,9.584 4.529,9.462 4.2,9.258C3.617,8.896 3.241,8.498 3.115,8.057C3.06,7.866 3.053,7.656 3.091,7.426C3.178,6.9 3.498,6.301 3.981,5.688C4.191,5.422 4.417,5.171 4.643,4.945C4.777,4.81 4.88,4.715 4.936,4.666C5.288,4.361 5.039,3.784 4.575,3.829C4.429,3.844 4.187,3.882 3.88,3.956C3.372,4.078 2.863,4.259 2.384,4.511C1.613,4.916 0.994,5.467 0.594,6.189C-0.199,7.63 -0.153,9.333 0.815,10.564C0.897,10.669 0.987,10.778 1.085,10.892C1.172,10.993 1.264,11.096 1.361,11.203C1.583,11.447 1.82,11.694 2.057,11.932C2.101,11.976 2.143,12.018 2.181,12.055C2.145,12.218 2.101,12.423 2.049,12.66C1.908,13.311 1.768,13.968 1.636,14.587C1.622,14.653 1.622,14.653 1.608,14.719C1.359,15.895 1.178,16.781 1.09,17.264C0.908,18.26 0.788,19.117 0.723,19.984C0.707,20.197 0.7,20.302 0.695,20.428C0.662,21.137 0.737,21.658 1.01,22.15C1.206,22.501 1.462,22.77 1.796,22.923C2.281,23.147 2.782,23.114 3.521,22.932C3.715,22.885 3.814,22.857 3.953,22.805C4.453,22.62 4.781,22.345 4.724,21.851C4.596,20.772 4.602,20.176 4.802,19.539C4.973,18.992 5.258,18.483 5.63,18.058C6.094,17.528 6.487,17.224 6.907,17.116C7.151,17.053 7.814,17.016 8.714,17.008C9.21,17.004 9.744,17.009 10.267,17.019C10.498,17.024 10.679,17.028 10.795,17.032C11.88,17.065 12.823,17.637 13.259,18.561C13.507,19.089 13.621,19.601 13.759,20.616C13.768,20.678 13.768,20.678 13.776,20.74C13.795,20.882 13.795,20.882 13.815,21.024C13.945,21.963 14.258,22.622 14.974,22.888C15.15,22.952 15.336,22.982 15.527,22.982C16.034,22.982 16.524,22.881 16.981,22.714C17.257,22.614 17.465,22.512 17.589,22.437C17.741,22.346 17.83,22.179 17.821,22.002C17.815,21.888 17.805,21.682 17.791,21.405C17.769,20.943 17.746,20.454 17.725,19.96C17.709,19.577 17.694,19.205 17.681,18.851C17.643,17.788 17.624,16.942 17.63,16.401C17.644,15.116 17.952,12.735 18.263,11.609C18.362,11.25 19.48,10.793 20.595,10.814C20.974,10.821 21.374,10.799 21.81,10.75C22.015,10.726 22.104,10.715 22.223,10.696C22.574,10.64 22.855,10.553 23.104,10.401C23.459,10.185 23.686,9.815 23.815,9.368C23.907,9.048 23.949,8.704 23.959,8.305C23.96,8.247 23.959,8.187 23.954,8.121ZM17.341,11.353C17.33,11.392 17.32,11.442 17.31,11.482L14.792,9.303C14.879,9.184 14.966,9.056 15.052,8.914L17.515,11.002C17.437,11.114 17.375,11.23 17.341,11.353ZM16.725,18.886C16.738,19.242 16.753,19.615 16.769,20C16.791,20.497 16.813,20.988 16.836,21.451C16.841,21.558 16.846,21.654 16.85,21.738C16.792,21.763 16.726,21.789 16.654,21.815C16.294,21.946 15.912,22.025 15.527,22.025C15.443,22.025 15.367,22.013 15.304,21.99C15.026,21.886 14.849,21.512 14.763,20.892C14.743,20.752 14.743,20.752 14.724,20.612C14.716,20.549 14.716,20.549 14.707,20.487C14.557,19.38 14.427,18.796 14.125,18.153C13.529,16.891 12.256,16.119 10.81,16.075C10.709,16.072 10.529,16.067 10.287,16.063C9.754,16.052 9.213,16.047 8.706,16.052C7.715,16.06 7.02,16.099 6.668,16.19C6.019,16.357 5.491,16.766 4.911,17.427C4.45,17.953 4.1,18.579 3.889,19.253C3.639,20.052 3.632,20.759 3.773,21.959C3.76,21.847 3.74,21.864 3.621,21.908C3.526,21.943 3.45,21.964 3.292,22.004C2.757,22.135 2.42,22.157 2.197,22.054C2.068,21.995 1.951,21.872 1.846,21.684C1.677,21.38 1.625,21.019 1.65,20.472C1.656,20.357 1.662,20.259 1.68,20.012C1.739,19.226 1.854,18.402 2.031,17.435C2.117,16.964 2.297,16.084 2.544,14.917C2.558,14.852 2.558,14.852 2.572,14.786C2.703,14.168 2.844,13.513 2.984,12.863C3.069,12.473 3.134,12.172 3.172,12C3.208,11.837 3.156,11.667 3.035,11.552C2.976,11.496 2.87,11.393 2.734,11.256C2.507,11.028 2.279,10.792 2.068,10.56C1.977,10.46 1.891,10.362 1.811,10.269C1.722,10.165 1.64,10.066 1.567,9.973C0.85,9.061 0.815,7.771 1.431,6.651C1.732,6.11 2.212,5.682 2.829,5.358C2.932,5.303 3.038,5.253 3.144,5.206C2.617,5.898 2.259,6.59 2.147,7.27C2.087,7.634 2.1,7.986 2.195,8.32C2.399,9.033 2.93,9.596 3.696,10.071C4.083,10.311 4.375,10.464 4.692,10.568C5.066,10.691 5.416,10.737 5.994,10.767C6.765,10.808 7.379,10.816 8.757,10.815C9.241,10.815 9.457,10.815 9.725,10.817C9.817,10.818 9.817,10.818 9.91,10.818C10.159,10.82 10.271,10.821 10.41,10.821C11.33,10.822 11.969,10.778 12.61,10.642C13.16,10.526 13.624,10.349 14.02,10.077C14.092,10.027 14.153,9.97 14.219,9.915L17.028,12.346C17.053,12.368 17.083,12.378 17.111,12.393C16.874,13.669 16.685,15.348 16.674,16.39C16.667,16.95 16.687,17.808 16.725,18.886ZM22.896,9.103C22.827,9.341 22.721,9.515 22.606,9.585C22.482,9.66 22.31,9.713 22.071,9.751C21.972,9.767 21.893,9.777 21.703,9.799C21.306,9.843 20.947,9.864 20.614,9.857C19.753,9.841 18.895,10.043 18.265,10.384L15.517,8.053C15.892,7.292 16.196,6.516 16.657,5.202L17.22,5.65C17.281,5.698 17.353,5.731 17.43,5.745C17.614,5.78 17.759,5.796 18.092,5.826C18.284,5.843 18.377,5.852 18.482,5.867C18.933,5.929 19.277,6.006 19.584,6.124C19.951,6.266 20.301,6.699 20.604,7.326C20.662,7.447 20.769,7.538 20.897,7.576L23.001,8.207C23.003,8.237 23.003,8.263 23.003,8.284C22.995,8.606 22.962,8.873 22.896,9.103Z" style="fill-rule:nonzero;"/>
</svg>
