<?xml version="1.0" encoding="UTF-8" standalone="no"?>
<!DOCTYPE svg PUBLIC "-//W3C//DTD SVG 1.1//EN" "http://www.w3.org/Graphics/SVG/1.1/DTD/svg11.dtd">
<svg width="100%" height="100%" viewBox="0 0 24 24" version="1.1" xmlns="http://www.w3.org/2000/svg" xmlns:xlink="http://www.w3.org/1999/xlink" xml:space="preserve" xmlns:serif="http://www.serif.com/" style="fill-rule:evenodd;clip-rule:evenodd;stroke-linejoin:round;stroke-miterlimit:1.41421;">
    <path d="M16.254,13.589C16.223,13.589 16.223,13.589 16.188,13.589C16.151,13.589 16.128,13.591 16.093,13.591L15.16,10.334C14.947,9.35 14.381,8.975 13.511,9.002L5.532,9.002C4.629,8.974 4.155,9.261 3.882,10.352L2.923,13.59C2.862,13.59 2.803,13.589 2.735,13.589C2.696,13.589 2.696,13.589 2.662,13.589C1.254,13.589 0,14.834 0,16.322C0,17.704 0.934,18.764 2.337,19.001L2.337,20.877C2.337,21.698 2.782,22.284 3.553,22.343L3.895,22.343L3.895,22.824C3.895,22.903 3.893,22.972 3.888,23.062C3.876,23.286 3.877,23.271 3.882,23.347C3.894,23.537 3.957,23.707 4.113,23.838C4.303,23.997 4.344,24 4.865,24L5.483,24C6.004,24 6.045,23.997 6.235,23.838C6.391,23.707 6.454,23.538 6.466,23.347C6.471,23.271 6.472,23.286 6.46,23.062C6.455,22.972 6.453,22.903 6.453,22.824L6.453,22.344L12.463,22.344L12.463,22.824C12.463,22.889 12.462,22.947 12.46,23.029C12.454,23.231 12.454,23.261 12.461,23.344C12.479,23.533 12.543,23.699 12.695,23.828C12.89,23.995 12.945,24 13.474,24L14.092,24C14.611,24 14.638,23.998 14.823,23.842C14.985,23.707 15.044,23.532 15.048,23.34C15.05,23.27 15.044,23.195 15.033,23.081C15.026,22.988 15.022,22.912 15.022,22.824L15.022,22.344L15.327,22.344C16.135,22.284 16.579,21.699 16.579,20.877L16.579,19C17.978,18.763 18.916,17.701 18.916,16.32C18.916,14.818 17.699,13.589 16.254,13.589ZM4.842,10.642C4.989,10.059 5.024,10.038 5.517,10.054L13.526,10.054C13.968,10.04 14.088,10.12 14.194,10.603L15.076,13.686C14.186,13.882 13.592,14.408 13.592,15.356L13.592,16.331C13.592,16.902 13.54,17.286 13.335,17.717C13.239,17.921 13.034,18.078 12.895,18.078L6.125,18.078C5.952,18.078 5.661,17.888 5.578,17.712C5.376,17.286 5.324,16.902 5.324,16.331L5.324,15.356C5.324,14.433 4.774,13.913 3.936,13.704L4.842,10.642ZM16.064,17.997C15.794,18.006 15.579,18.238 15.579,18.523L15.579,20.877C15.579,21.179 15.505,21.278 15.291,21.294L14.709,21.292C14.649,21.292 14.592,21.308 14.539,21.328C14.533,21.328 14.528,21.325 14.522,21.325C14.246,21.325 14.022,21.56 14.022,21.851L14.022,22.824C14.022,22.867 14.023,22.908 14.024,22.948L13.474,22.948C13.47,22.948 13.466,22.948 13.462,22.948C13.463,22.906 13.463,22.866 13.463,22.824L13.463,21.851C13.463,21.601 13.293,21.401 13.071,21.348C13.005,21.315 12.934,21.292 12.856,21.292L6.061,21.292C5.984,21.292 5.913,21.314 5.847,21.347C5.624,21.4 5.453,21.6 5.453,21.851L5.453,22.824C5.453,22.867 5.454,22.907 5.455,22.948L4.894,22.948C4.895,22.907 4.895,22.867 4.895,22.824L4.895,21.851C4.895,21.845 4.892,21.84 4.892,21.834C4.892,21.829 4.895,21.824 4.895,21.818C4.895,21.528 4.671,21.292 4.395,21.292L3.589,21.292C3.412,21.277 3.337,21.178 3.337,20.877L3.337,18.523C3.337,18.238 3.122,18.005 2.852,17.997C1.704,17.961 1,17.266 1,16.322C1,15.429 1.794,14.641 2.662,14.641C2.699,14.641 2.699,14.641 2.738,14.641C3.104,14.639 3.321,14.65 3.562,14.692C4.093,14.787 4.324,14.979 4.324,15.356L4.324,16.331C4.324,17.052 4.395,17.573 4.687,18.19C4.934,18.713 5.571,19.13 6.125,19.13L12.895,19.13C13.445,19.13 13.977,18.724 14.232,18.182C14.521,17.573 14.592,17.052 14.592,16.331L14.592,15.356C14.592,14.993 14.82,14.8 15.338,14.7C15.59,14.651 15.818,14.64 16.184,14.641C16.22,14.641 16.22,14.641 16.254,14.641C17.156,14.641 17.916,15.409 17.916,16.32C17.916,17.262 17.207,17.961 16.064,17.997Z" style="fill-rule:nonzero;"/>
    <path d="M21.836,1.166C22.331,1.166 22.811,1.264 23.256,1.452C23.511,1.559 23.804,1.44 23.912,1.186C24.019,0.931 23.9,0.638 23.645,0.531C23.078,0.291 22.465,0.166 21.836,0.166C19.812,0.166 18.108,1.47 17.472,3.277L16.667,3.277C16.391,3.277 16.167,3.501 16.167,3.777C16.167,4.053 16.391,4.277 16.667,4.277L17.245,4.277C17.224,4.455 17.191,4.63 17.191,4.814C17.191,4.997 17.224,5.172 17.245,5.35L16.667,5.35C16.391,5.35 16.167,5.574 16.167,5.85C16.167,6.126 16.391,6.35 16.667,6.35L17.472,6.35C18.108,8.156 19.813,9.459 21.836,9.459C22.419,9.459 22.987,9.352 23.518,9.145C23.775,9.045 23.902,8.755 23.802,8.498C23.702,8.24 23.412,8.113 23.155,8.213C22.739,8.375 22.295,8.459 21.836,8.459C20.374,8.459 19.122,7.592 18.541,6.35L21.9,6.35C22.176,6.35 22.4,6.126 22.4,5.85C22.4,5.574 22.176,5.35 21.9,5.35L18.245,5.35C18.219,5.173 18.191,4.997 18.191,4.814C18.191,4.63 18.219,4.454 18.245,4.277L21.836,4.277C22.112,4.277 22.336,4.053 22.336,3.777C22.336,3.501 22.112,3.277 21.836,3.277L18.541,3.277C19.122,2.033 20.374,1.166 21.836,1.166Z" style="fill-rule:nonzero;"/>
</svg>
