<?xml version="1.0" encoding="UTF-8" standalone="no"?>
<!DOCTYPE svg PUBLIC "-//W3C//DTD SVG 1.1//EN" "http://www.w3.org/Graphics/SVG/1.1/DTD/svg11.dtd">
<svg width="100%" height="100%" viewBox="0 0 24 24" version="1.1" xmlns="http://www.w3.org/2000/svg" xmlns:xlink="http://www.w3.org/1999/xlink" xml:space="preserve" xmlns:serif="http://www.serif.com/" style="fill-rule:evenodd;clip-rule:evenodd;stroke-linejoin:round;stroke-miterlimit:1.41421;">
    <path d="M12.001,6C8.85,6 3,12.544 3,17.323C3,22.102 7.03,24 12.001,24C16.971,24 21,22.102 21,17.323C21,12.544 15.15,6 12.001,6ZM12.001,23C6.943,23 4,21.063 4,17.323C4,13.306 9.242,7 12.001,7C14.759,7 20,13.307 20,17.323C20,21.063 17.058,23 12.001,23Z" style="fill-rule:nonzero;"/>
    <path d="M13.783,12.283C13.341,12.097 12.866,11.999 12.377,11.999C10.835,11.999 9.529,12.971 9.012,14.333L8.5,14.333C8.224,14.333 8,14.557 8,14.833C8,15.109 8.224,15.333 8.5,15.333L8.796,15.333C8.789,15.426 8.768,15.515 8.768,15.61C8.768,15.705 8.789,15.794 8.796,15.887L8.5,15.887C8.224,15.887 8,16.111 8,16.387C8,16.663 8.224,16.887 8.5,16.887L9.012,16.887C9.529,18.248 10.836,19.219 12.377,19.219C12.83,19.219 13.271,19.136 13.684,18.975C13.941,18.875 14.068,18.585 13.968,18.328C13.868,18.071 13.578,17.943 13.321,18.043C13.023,18.159 12.705,18.219 12.377,18.219C11.403,18.219 10.563,17.679 10.115,16.887L12.425,16.887C12.701,16.887 12.925,16.663 12.925,16.387C12.925,16.111 12.701,15.887 12.425,15.887L9.796,15.887C9.786,15.795 9.768,15.705 9.768,15.61C9.768,15.515 9.786,15.425 9.796,15.333L12.377,15.333C12.653,15.333 12.877,15.109 12.877,14.833C12.877,14.557 12.653,14.333 12.377,14.333L10.115,14.333C10.563,13.54 11.403,12.999 12.377,12.999C12.732,12.999 13.075,13.07 13.394,13.204C13.648,13.311 13.941,13.192 14.049,12.938C14.156,12.684 14.037,12.39 13.783,12.283Z" style="fill-rule:nonzero;"/>
    <path d="M13.967,0L12,0L10.033,0C9.228,0 8.74,0.83 9.146,1.577L11.597,4.799C11.71,4.932 11.855,5 12,5C12.145,5 12.29,4.932 12.402,4.799L14.853,1.577C15.26,0.83 14.772,0 13.967,0ZM12,3.678L10.001,1.048C9.987,1.009 10,1 10.033,1L13.966,1C13.999,1 14.013,1.009 13.999,1.048L12,3.678Z" style="fill-rule:nonzero;"/>
</svg>
