<?xml version="1.0" encoding="UTF-8" standalone="no"?>
<!DOCTYPE svg PUBLIC "-//W3C//DTD SVG 1.1//EN" "http://www.w3.org/Graphics/SVG/1.1/DTD/svg11.dtd">
<svg width="100%" height="100%" viewBox="0 0 24 24" version="1.1" xmlns="http://www.w3.org/2000/svg" xmlns:xlink="http://www.w3.org/1999/xlink" xml:space="preserve" xmlns:serif="http://www.serif.com/" style="fill-rule:evenodd;clip-rule:evenodd;stroke-linejoin:round;stroke-miterlimit:1.41421;">
    <path id="Stroke-3" d="M23.5,7C23.8,7 24,7.2 24,7.5L24,16.5C24,16.8 23.8,17 23.5,17L17,17L17,23.5C17,23.8 16.8,24 16.5,24L7.5,24C7.2,24 7,23.8 7,23.5L7,17L0.5,17C0.2,17 0,16.8 0,16.5L0,7.5C0,7.2 0.2,7 0.5,7L7,7L7,0.5C7,0.2 7.2,0 7.5,0L16.5,0C16.8,0 17,0.2 17,0.5L17,7L23.5,7ZM16.5,8C16.2,8 16,7.8 16,7.5L16,1L8,1L8,7.5C8,7.8 7.8,8 7.5,8L1,8L1,16L7.5,16C7.8,16 8,16.2 8,16.5L8,23L16,23L16,16.5C16,16.2 16.2,16 16.5,16L23,16L23,8L16.5,8Z" style="fill-rule:nonzero;"/>
</svg>
