<?xml version="1.0" encoding="UTF-8" standalone="no"?>
<!DOCTYPE svg PUBLIC "-//W3C//DTD SVG 1.1//EN" "http://www.w3.org/Graphics/SVG/1.1/DTD/svg11.dtd">
<svg width="100%" height="100%" viewBox="0 0 24 24" version="1.1" xmlns="http://www.w3.org/2000/svg" xmlns:xlink="http://www.w3.org/1999/xlink" xml:space="preserve" xmlns:serif="http://www.serif.com/" style="fill-rule:evenodd;clip-rule:evenodd;stroke-linejoin:round;stroke-miterlimit:1.41421;">
    <path d="M23.849,15.82L21.906,13.94L19.443,9.267C19.357,9.103 19.187,9 19.001,9L14.501,9C14.225,9 14.001,9.224 14.001,9.5L14,14.999L2.903,0.204C2.894,0.192 2.883,0.187 2.873,0.176C2.854,0.154 2.833,0.136 2.81,0.117C2.779,0.091 2.748,0.069 2.714,0.052C2.697,0.044 2.68,0.039 2.662,0.033C2.62,0.018 2.579,0.009 2.536,0.007C2.523,0.006 2.513,0 2.5,0C2.486,0 2.475,0.007 2.461,0.008C2.432,0.011 2.404,0.017 2.375,0.025C2.339,0.035 2.304,0.045 2.272,0.062C2.259,0.069 2.249,0.078 2.237,0.085C2.2,0.109 2.163,0.133 2.133,0.166C2.109,0.191 2.093,0.223 2.074,0.253C2.063,0.272 2.047,0.288 2.039,0.308C2.014,0.364 2.002,0.426 2.002,0.493C2.002,0.495 2,0.497 2,0.5L2,10C2,10.276 2.224,10.5 2.5,10.5C3.297,10.5 4,11.264 4,12.125C4,12.986 3.297,13.75 2.5,13.75C1.596,13.75 1,13.257 1,12.5C1,12.224 0.776,12 0.5,12C0.224,12 0,12.224 0,12.5C0,13.856 1.081,14.75 2.5,14.75C3.869,14.75 5,13.521 5,12.125C5,10.904 4.134,9.81 3,9.556L3,3.252L7.781,16L0.5,16C0.224,16 0,16.224 0,16.5L0,21.458C0,21.756 0.224,21.998 0.5,21.998L2.71,21.998C3.095,22.881 3.974,23.5 5,23.5C6.037,23.5 6.927,22.867 7.305,21.967C7.353,21.985 7.402,22 7.455,22L16.545,22C16.598,22 16.647,21.985 16.695,21.967C17.073,22.867 17.962,23.5 19,23.5C20.024,23.5 20.902,22.882 21.289,22L23.501,22C23.777,22 24.001,21.776 24.001,21.5L24.001,16.179C24.001,16.044 23.946,15.914 23.849,15.82ZM4.196,3.594L13.501,16L8.849,16L4.196,3.594ZM5,22.5C4.172,22.5 3.5,21.828 3.5,21C3.5,20.172 4.172,19.5 5,19.5C5.828,19.5 6.5,20.172 6.5,21C6.5,21.828 5.828,22.5 5,22.5ZM19,22.5C18.172,22.5 17.5,21.828 17.5,21C17.5,20.172 18.172,19.5 19,19.5C19.828,19.5 20.5,20.172 20.5,21C20.5,21.828 19.828,22.5 19,22.5ZM23.001,21L21.5,21C21.5,19.62 20.38,18.5 19,18.5C17.619,18.5 16.5,19.62 16.5,21L7.5,21C7.5,19.62 6.38,18.5 5,18.5C3.619,18.5 2.5,19.62 2.5,21C2.5,21.002 2.501,21.005 2.501,21.007L1,21.007L1,19.391L1,18.539L1,17L8.492,17C8.496,17 8.499,17.004 8.503,17.004L14.503,17.004C14.522,17.004 14.534,16.991 14.552,16.99C14.615,16.983 14.674,16.967 14.727,16.939C14.76,16.922 14.787,16.903 14.815,16.88C14.827,16.87 14.842,16.865 14.854,16.854C14.868,16.839 14.876,16.818 14.889,16.802C14.893,16.795 14.897,16.789 14.902,16.782C14.921,16.755 14.942,16.732 14.956,16.702C14.983,16.64 15,16.572 15,16.5L15,16.483C15,16.475 15.001,16.468 15,16.46L15.001,10L18.699,10L21.059,14.477L21.153,14.603L23.001,16.391L23.001,21Z" style="fill-rule:nonzero;"/>
</svg>
