<?xml version="1.0" encoding="UTF-8" standalone="no"?>
<!DOCTYPE svg PUBLIC "-//W3C//DTD SVG 1.1//EN" "http://www.w3.org/Graphics/SVG/1.1/DTD/svg11.dtd">
<svg width="100%" height="100%" viewBox="0 0 24 24" version="1.1" xmlns="http://www.w3.org/2000/svg" xmlns:xlink="http://www.w3.org/1999/xlink" xml:space="preserve" xmlns:serif="http://www.serif.com/">
    <g transform="matrix(1,0,0,1,9,9)">
        <path d="M14.5,15C14.372,15 14.244,14.951 14.146,14.854L-8.854,-8.146C-9.049,-8.342 -9.049,-8.658 -8.854,-8.854C-8.658,-9.049 -8.342,-9.049 -8.146,-8.854L14.854,14.146C15.049,14.342 15.049,14.658 14.854,14.854C14.756,14.951 14.628,15 14.5,15"/>
    </g>
    <g transform="matrix(1,0,0,1,9,9)">
        <path d="M-0.991,-3.112C-0.67,-3.26 -0.342,-3.398 0,-3.511L0,-2.121L1,-1.121L1,-5.411C1,-5.453 1.048,-5.5 1.117,-5.5L4.883,-5.5C4.952,-5.5 5,-5.453 5,-5.411L5,2C5,2.277 5.224,2.5 5.5,2.5C5.777,2.5 6,2.277 6,2L6,-3.511C6.524,-3.337 7.026,-3.122 7.5,-2.867L7.5,0C7.5,0.277 7.724,0.5 8,0.5C8.277,0.5 8.5,0.277 8.5,0L8.5,-2.242C10.951,-0.5 12.5,2.351 12.5,5.5L12.5,7.5L9.621,7.5L10.621,8.5L13.883,8.5C13.947,8.5 14,8.553 14,8.617L14,10.383C14,10.448 13.947,10.5 13.883,10.5L13.792,10.509C13.779,10.512 13.414,10.578 12.796,10.675L13.667,11.546C13.789,11.525 13.888,11.508 13.935,11.499C14.527,11.472 15,10.982 15,10.383L15,8.617C15,8.001 14.499,7.5 13.883,7.5L13.5,7.5L13.5,5.5C13.5,0.838 10.433,-3.237 6,-4.555L6,-5.411C6,-6.011 5.499,-6.5 4.883,-6.5L1.117,-6.5C0.501,-6.5 0,-6.011 0,-5.411L0,-4.555C-0.607,-4.375 -1.186,-4.138 -1.738,-3.859L-0.991,-3.112Z"/>
    </g>
    <g transform="matrix(1,0,0,1,9,9)">
        <path d="M9.039,11.16C7.246,11.347 5.129,11.5 3,11.5C-2.388,11.5 -7.738,10.518 -7.883,10.5C-7.947,10.5 -8,10.447 -8,10.383L-8,8.617C-8,8.553 -7.947,8.5 -7.883,8.5L6.379,8.5L5.379,7.5L-6.5,7.5L-6.5,5.5C-6.5,2.815 -5.367,0.354 -3.517,-1.395L-4.229,-2.108C-6.263,-0.176 -7.5,2.542 -7.5,5.5L-7.5,7.5L-7.883,7.5C-8.499,7.5 -9,8.001 -9,8.617L-9,10.383C-9,10.994 -8.507,11.492 -7.987,11.491L-7.975,11.491C-7.92,11.502 -2.482,12.5 3,12.5C5.494,12.5 7.973,12.293 9.945,12.067L9.039,11.16Z"/>
    </g>
</svg>
