<?xml version="1.0" encoding="UTF-8" standalone="no"?>
<!DOCTYPE svg PUBLIC "-//W3C//DTD SVG 1.1//EN" "http://www.w3.org/Graphics/SVG/1.1/DTD/svg11.dtd">
<svg width="100%" height="100%" viewBox="0 0 24 24" version="1.1" xmlns="http://www.w3.org/2000/svg" xmlns:xlink="http://www.w3.org/1999/xlink" xml:space="preserve" xmlns:serif="http://www.serif.com/" style="fill-rule:evenodd;clip-rule:evenodd;stroke-linejoin:round;stroke-miterlimit:1.41421;">
    <g transform="matrix(1,0,0,1,8,16)">
        <path d="M12.571,-5.429C14.016,-5.429 15.143,-5.911 15.143,-6.286C15.143,-6.66 14.016,-7.143 12.571,-7.143C11.127,-7.143 10,-6.66 10,-6.286C10,-5.911 11.127,-5.429 12.571,-5.429ZM12.571,-8C14.441,-8 16,-7.332 16,-6.286C16,-5.239 14.441,-4.571 12.572,-4.571C10.702,-4.571 9.143,-5.239 9.143,-6.286C9.143,-7.332 10.702,-8 12.571,-8Z" style="fill-rule:nonzero;"/>
    </g>
    <g id="Stroke-3" transform="matrix(1,0,0,1,8,16)">
        <path d="M9.571,-5C9.335,-5 9.143,-4.808 9.143,-4.571C9.143,-3.525 10.702,-2.857 12.571,-2.857C14.441,-2.857 16,-3.525 16,-4.571C16,-4.808 15.808,-5 15.571,-5C15.335,-5 15.143,-4.808 15.143,-4.571C15.143,-4.197 14.016,-3.714 12.571,-3.714C11.127,-3.714 10,-4.197 10,-4.571C10,-4.808 9.808,-5 9.571,-5ZM9.571,-3.286C9.335,-3.286 9.143,-3.094 9.143,-2.857C9.143,-1.811 10.702,-1.143 12.571,-1.143C14.441,-1.143 16,-1.811 16,-2.857C16,-3.094 15.808,-3.286 15.571,-3.286C15.335,-3.286 15.143,-3.094 15.143,-2.857C15.143,-2.483 14.016,-2 12.571,-2C11.127,-2 10,-2.483 10,-2.857C10,-3.094 9.808,-3.286 9.571,-3.286ZM9.571,-1.571C9.335,-1.571 9.143,-1.38 9.143,-1.143C9.143,-0.097 10.702,0.571 12.571,0.571C14.441,0.571 16,-0.097 16,-1.143C16,-1.38 15.808,-1.571 15.572,-1.571C15.335,-1.571 15.143,-1.38 15.143,-1.143C15.143,-0.769 14.015,-0.286 12.571,-0.286C11.127,-0.286 10,-0.769 10,-1.143C10,-1.38 9.808,-1.571 9.571,-1.571ZM9.571,0.143C9.335,0.143 9.143,0.335 9.143,0.571C9.143,1.617 10.702,2.286 12.571,2.286C14.441,2.286 16,1.617 16,0.571C16,0.335 15.808,0.143 15.571,0.143C15.335,0.143 15.143,0.335 15.143,0.571C15.143,0.945 14.015,1.429 12.571,1.429C11.127,1.429 10,0.945 10,0.571C10,0.335 9.808,0.143 9.571,0.143Z" style="fill-rule:nonzero;"/>
    </g>
    <g id="Stroke-4" transform="matrix(1,0,0,1,8,16)">
        <path d="M4,-2C5.445,-2 6.571,-2.483 6.571,-2.857C6.571,-3.231 5.445,-3.714 4,-3.714C2.555,-3.714 1.429,-3.232 1.429,-2.857C1.429,-2.483 2.555,-2 4,-2ZM4,-4.571C5.87,-4.571 7.429,-3.904 7.429,-2.857C7.429,-1.811 5.87,-1.143 4,-1.143C2.13,-1.143 0.571,-1.811 0.571,-2.857C0.571,-3.904 2.13,-4.571 4,-4.571Z" style="fill-rule:nonzero;"/>
    </g>
    <g id="Stroke-5" transform="matrix(1,0,0,1,8,16)">
        <path d="M1,-1.571C0.763,-1.571 0.571,-1.38 0.571,-1.143C0.571,-0.097 2.131,0.571 4,0.571C5.869,0.571 7.429,-0.097 7.429,-1.143C7.429,-1.38 7.237,-1.571 7,-1.571C6.763,-1.571 6.571,-1.38 6.571,-1.143C6.571,-0.769 5.444,-0.286 4,-0.286C2.556,-0.286 1.429,-0.769 1.429,-1.143C1.429,-1.38 1.237,-1.571 1,-1.571ZM1,0.143C0.763,0.143 0.571,0.335 0.571,0.571C0.571,1.617 2.131,2.286 4,2.286C5.869,2.286 7.429,1.617 7.429,0.571C7.429,0.335 7.237,0.143 7,0.143C6.763,0.143 6.571,0.335 6.571,0.571C6.571,0.945 5.444,1.429 4,1.429C2.556,1.429 1.429,0.945 1.429,0.571C1.429,0.335 1.237,0.143 1,0.143Z" style="fill-rule:nonzero;"/>
    </g>
    <g transform="matrix(1,0,0,1,8,16)">
        <path d="M-4.571,-0.286C-3.127,-0.286 -2,-0.769 -2,-1.143C-2,-1.517 -3.127,-2 -4.571,-2C-6.016,-2 -7.143,-1.517 -7.143,-1.143C-7.143,-0.769 -6.016,-0.286 -4.571,-0.286ZM-4.571,-2.857C-2.702,-2.857 -1.143,-2.189 -1.143,-1.143C-1.143,-0.097 -2.702,0.571 -4.571,0.571C-6.441,0.571 -8,-0.097 -8,-1.143C-8,-2.189 -6.441,-2.857 -4.571,-2.857Z" style="fill-rule:nonzero;"/>
    </g>
    <g transform="matrix(1,0,0,1,8,16)">
        <path d="M-7.571,0.143C-7.808,0.143 -8,0.335 -8,0.571C-8,1.617 -6.441,2.286 -4.571,2.286C-2.702,2.286 -1.143,1.617 -1.143,0.571C-1.143,0.335 -1.335,0.143 -1.571,0.143C-1.808,0.143 -2,0.335 -2,0.571C-2,0.945 -3.128,1.429 -4.572,1.429C-6.016,1.429 -7.143,0.945 -7.143,0.571C-7.143,0.335 -7.335,0.143 -7.571,0.143Z" style="fill-rule:nonzero;"/>
    </g>
</svg>
