<?xml version="1.0" encoding="UTF-8" standalone="no"?>
<!DOCTYPE svg PUBLIC "-//W3C//DTD SVG 1.1//EN" "http://www.w3.org/Graphics/SVG/1.1/DTD/svg11.dtd">
<svg width="100%" height="100%" viewBox="0 0 24 24" version="1.1" xmlns="http://www.w3.org/2000/svg" xmlns:xlink="http://www.w3.org/1999/xlink" xml:space="preserve" xmlns:serif="http://www.serif.com/" style="fill-rule:evenodd;clip-rule:evenodd;stroke-linejoin:round;stroke-miterlimit:1.41421;">
    <path d="M21.273,5.273L16.364,5.273L16.364,4.727C16.364,3.224 15.141,2 13.636,2L10.364,2C8.859,2 7.636,3.224 7.636,4.727L7.636,5.273L2.727,5.273C1.223,5.273 0,6.497 0,8L0,18.909C0,20.413 1.223,21.636 2.727,21.636L21.273,21.636C22.777,21.636 24,20.413 24,18.909L24,8C24,6.497 22.777,5.273 21.273,5.273ZM8.727,4.727C8.727,3.825 9.461,3.091 10.364,3.091L13.636,3.091C14.539,3.091 15.273,3.825 15.273,4.727L15.273,5.273L8.727,5.273L8.727,4.727ZM22.909,18.909C22.909,19.811 22.175,20.545 21.273,20.545L2.727,20.545C1.825,20.545 1.091,19.811 1.091,18.909L1.091,8C1.091,7.098 1.825,6.364 2.727,6.364L21.273,6.364C22.175,6.364 22.909,7.098 22.909,8L22.909,18.909Z"/>
    <path d="M16.914,9.959C15.902,9.959 15.025,10.583 14.681,11.497L9.32,11.497C8.973,10.583 8.097,9.959 7.086,9.959C5.769,9.959 4.698,11.03 4.698,12.347C4.698,12.739 4.791,13.116 4.969,13.454C4.791,13.794 4.698,14.17 4.698,14.562C4.698,15.878 5.769,16.95 7.086,16.95C8.098,16.95 8.973,16.326 9.32,15.413L14.681,15.413C15.027,16.326 15.903,16.95 16.914,16.95C18.231,16.95 19.302,15.878 19.302,14.562C19.302,14.17 19.209,13.794 19.03,13.454C19.209,13.116 19.302,12.739 19.302,12.347C19.302,11.03 18.231,9.959 16.914,9.959ZM16.914,15.859C16.286,15.859 15.738,15.393 15.634,14.777L15.557,14.322L8.443,14.322L8.367,14.777C8.261,15.404 7.723,15.859 7.086,15.859C6.371,15.859 5.789,15.277 5.789,14.562C5.789,14.277 5.878,14.009 6.049,13.783L6.296,13.455L6.049,13.126C5.878,12.9 5.789,12.632 5.789,12.347C5.789,11.633 6.371,11.05 7.086,11.05C7.723,11.05 8.261,11.505 8.367,12.132L8.443,12.588L15.557,12.588L15.634,12.132C15.739,11.505 16.278,11.05 16.914,11.05C17.629,11.05 18.211,11.631 18.211,12.347C18.211,12.632 18.121,12.9 17.951,13.126L17.704,13.454L17.951,13.783C18.121,14.009 18.211,14.277 18.211,14.562C18.211,15.277 17.629,15.859 16.914,15.859Z"/>
</svg>
