<?xml version="1.0" encoding="UTF-8" standalone="no"?>
<!DOCTYPE svg PUBLIC "-//W3C//DTD SVG 1.1//EN" "http://www.w3.org/Graphics/SVG/1.1/DTD/svg11.dtd">
<svg width="100%" height="100%" viewBox="0 0 24 24" version="1.1" xmlns="http://www.w3.org/2000/svg" xmlns:xlink="http://www.w3.org/1999/xlink" xml:space="preserve" xmlns:serif="http://www.serif.com/">
    <path d="M23.944,15.362C23.859,15.198 23.708,14.973 23.487,14.747C23.343,14.6 23.185,14.471 23.011,14.367L22.841,14.304C22.736,14.286 22.629,14.274 22.519,14.268C22.086,14.246 21.638,14.32 21.196,14.455C20.965,14.526 20.784,14.598 20.674,14.649L16.886,16.444C16.887,16.253 16.793,16.072 16.617,15.988C16.076,15.727 12.998,14.947 9.89,14.219C9.802,14.198 9.709,14.202 9.622,14.23C8.368,14.636 7.272,14.992 6.343,15.294C5.976,15.414 5.87,15.448 5.72,15.497C5.64,15.129 5.55,14.779 5.445,14.46C5.393,14.303 5.266,14.181 5.106,14.136C4.601,13.993 3.999,13.947 3.316,13.977C2.713,14.003 2.074,14.088 1.429,14.213C1.155,14.266 0.898,14.323 0.665,14.38C0.524,14.415 0.422,14.442 0.364,14.458C0.105,14.531 -0.049,14.796 0.014,15.058L2.089,23.586C2.15,23.836 2.392,23.999 2.647,23.962C2.734,23.95 2.884,23.926 3.076,23.894C3.397,23.839 3.717,23.779 4.018,23.713C5.131,23.47 5.601,23.305 5.727,22.846C5.824,22.499 5.895,22.074 5.954,21.623L6.993,21.429C7.032,21.433 7.095,21.439 7.235,21.454C7.578,21.49 7.765,21.51 8.068,21.542C8.934,21.632 9.809,21.723 10.641,21.807C10.773,21.821 10.773,21.821 10.906,21.834C13.115,22.058 14.527,22.189 14.865,22.196C15.08,22.199 15.309,22.166 15.553,22.102C15.792,22.04 16.039,21.95 16.291,21.84C16.582,21.713 16.821,21.586 16.97,21.498L23.814,15.982C23.999,15.832 24.054,15.573 23.944,15.362ZM4.989,21.297C4.94,21.722 4.88,22.121 4.798,22.449C4.756,22.469 4.7,22.491 4.633,22.515C4.43,22.586 4.146,22.661 3.805,22.736C3.534,22.795 3.244,22.85 2.952,22.9L1.103,15.304C1.266,15.266 1.439,15.229 1.62,15.194C2.219,15.078 2.811,14.999 3.359,14.975C3.823,14.955 4.234,14.975 4.578,15.039C5.067,16.723 5.194,19.18 5.02,21.029L4.989,21.297ZM16.4,20.678C16.343,20.706 16.138,20.815 15.89,20.923C15.683,21.014 15.483,21.086 15.301,21.134C15.138,21.177 14.996,21.197 14.883,21.196C14.589,21.19 13.153,21.056 11.007,20.839C10.874,20.825 10.874,20.825 10.742,20.812C9.912,20.728 9.037,20.637 8.172,20.547C7.87,20.515 7.683,20.495 7.34,20.459C7.083,20.432 7.083,20.432 7.026,20.426L6.882,20.432L6.053,20.587C6.133,19.294 6.091,17.825 5.899,16.491C6.135,16.413 6.197,16.393 6.652,16.245C7.549,15.954 8.599,15.613 9.798,15.224C12.215,15.792 14.77,16.434 15.783,16.748C15.696,16.884 15.539,17.02 15.293,17.199L15.265,17.212C15.247,17.221 15.235,17.236 15.218,17.247C14.996,17.243 14.762,17.237 14.516,17.23C14.103,17.218 13.667,17.203 13.218,17.185C12.802,17.169 12.399,17.152 12.022,17.135C11.797,17.125 11.63,17.117 11.54,17.112C11.264,17.098 11.029,17.31 11.015,17.586C11.001,17.862 11.214,18.097 11.489,18.111C11.582,18.115 11.749,18.123 11.977,18.134C12.355,18.151 12.761,18.168 13.179,18.185C13.631,18.202 14.071,18.217 14.487,18.229C14.801,18.238 15.098,18.245 15.373,18.25C15.478,18.252 15.58,18.221 15.666,18.162C15.714,18.129 15.744,18.102 15.788,18.07L21.099,15.554C21.167,15.522 21.306,15.467 21.489,15.412C21.828,15.308 22.168,15.252 22.469,15.267C22.505,15.269 22.54,15.272 22.574,15.275C22.642,15.324 22.708,15.381 22.772,15.446C22.789,15.463 22.805,15.481 22.821,15.498L16.4,20.678Z"/>
    <path d="M14.939,11.778C14.979,11.82 14.979,11.82 15.034,11.875C15.118,11.958 15.118,11.958 15.146,11.986C15.34,12.177 15.651,12.178 15.846,11.988C15.874,11.961 15.874,11.961 15.962,11.875C16.014,11.823 16.014,11.823 16.058,11.778L20.046,7.705C20.662,7.074 21,6.235 21,5.346C21.003,4.458 20.665,3.619 20.051,2.988C19.434,2.355 18.611,2.006 17.735,2.006C16.9,2.006 16.11,2.326 15.503,2.906C14.896,2.323 14.102,2 13.265,2C12.391,2 11.567,2.35 10.951,2.982C10.337,3.612 9.998,4.452 10.001,5.34C10.001,6.227 10.34,7.064 10.957,7.695L14.939,11.778ZM11.667,3.68C12.096,3.24 12.662,3 13.265,3C13.868,3 14.438,3.243 14.867,3.684L15.146,3.969C15.342,4.171 15.666,4.17 15.862,3.968L16.135,3.687C16.565,3.247 17.132,3.006 17.736,3.006C18.341,3.006 18.906,3.246 19.334,3.686C19.766,4.129 20.002,4.716 20.001,5.345C20.001,5.975 19.763,6.563 19.331,7.006L15.499,10.92L11.672,6.997C11.239,6.552 11.001,5.966 11.001,5.339C10.999,4.711 11.236,4.122 11.667,3.68Z"/>
</svg>
