<?xml version="1.0" encoding="UTF-8" standalone="no"?>
<!DOCTYPE svg PUBLIC "-//W3C//DTD SVG 1.1//EN" "http://www.w3.org/Graphics/SVG/1.1/DTD/svg11.dtd">
<svg width="100%" height="100%" viewBox="0 0 24 24" version="1.1" xmlns="http://www.w3.org/2000/svg" xmlns:xlink="http://www.w3.org/1999/xlink" xml:space="preserve" xmlns:serif="http://www.serif.com/" style="fill-rule:evenodd;clip-rule:evenodd;stroke-linejoin:round;stroke-miterlimit:1.41421;">
    <g transform="matrix(1,0,0,1,16.3926,10.7859)">
        <path d="M0,2.428L3.002,10.233L-3.572,5.176L0,2.428ZM-11.787,10.233L-8.785,2.428L-5.213,5.176L-11.787,10.233ZM-1.393,-4.786L-7.393,-4.786L-7.393,-5.786L-1.393,-5.786L-1.393,-4.786ZM-12.456,-6.786L-8.393,-8.527L-8.393,-6.786L-12.456,-6.786ZM-0.393,-8.527L3.671,-6.786L-0.393,-6.786L-0.393,-8.527ZM-1.393,-6.786L-7.393,-6.786L-7.393,-8.786L-1.393,-8.786L-1.393,-6.786ZM-0.393,-3.527L3.671,-1.786L-0.393,-1.786L-0.393,-3.527ZM-8.393,-1.786L-12.456,-1.786L-8.393,-3.527L-8.393,-1.786ZM-7.393,-3.786L-1.393,-3.786L-1.393,-1.786L-7.393,-1.786L-7.393,-3.786ZM-1.236,-0.786L-0.375,1.454L-4.393,4.545L-8.411,1.454L-7.549,-0.786L-1.236,-0.786ZM6.607,-1.283L6.607,-1.286C6.607,-1.301 6.6,-1.314 6.599,-1.329C6.594,-1.379 6.588,-1.428 6.569,-1.475C6.556,-1.509 6.532,-1.535 6.512,-1.564C6.496,-1.588 6.484,-1.615 6.464,-1.635C6.428,-1.672 6.384,-1.698 6.338,-1.722C6.326,-1.729 6.317,-1.74 6.304,-1.746L-0.393,-4.616L-0.393,-5.786L5.607,-5.786L5.607,-5.286C5.607,-5.009 5.831,-4.786 6.107,-4.786C6.384,-4.786 6.607,-5.009 6.607,-5.286L6.607,-6.283L6.607,-6.286C6.607,-6.301 6.6,-6.314 6.599,-6.329C6.594,-6.379 6.588,-6.428 6.569,-6.475C6.556,-6.509 6.532,-6.535 6.512,-6.564C6.496,-6.588 6.484,-6.615 6.464,-6.635C6.428,-6.672 6.384,-6.698 6.338,-6.722C6.326,-6.729 6.317,-6.74 6.304,-6.746L-0.696,-9.746L-0.697,-9.746C-0.722,-9.757 -0.751,-9.757 -0.777,-9.762C-0.815,-9.771 -0.853,-9.786 -0.891,-9.786L-0.893,-9.786L-7.893,-9.786L-7.894,-9.786C-7.942,-9.786 -7.99,-9.771 -8.039,-9.757C-8.055,-9.752 -8.073,-9.753 -8.088,-9.746L-8.089,-9.746L-15.089,-6.746C-15.103,-6.74 -15.111,-6.729 -15.123,-6.722C-15.169,-6.698 -15.213,-6.672 -15.249,-6.635C-15.27,-6.615 -15.281,-6.588 -15.297,-6.564C-15.317,-6.535 -15.341,-6.509 -15.354,-6.475C-15.374,-6.428 -15.379,-6.379 -15.384,-6.329C-15.385,-6.314 -15.393,-6.301 -15.393,-6.286L-15.393,-5.286C-15.393,-5.009 -15.169,-4.786 -14.893,-4.786C-14.616,-4.786 -14.393,-5.009 -14.393,-5.286L-14.393,-5.786L-8.393,-5.786L-8.393,-4.616L-15.089,-1.746C-15.103,-1.74 -15.111,-1.729 -15.123,-1.722C-15.169,-1.698 -15.213,-1.672 -15.249,-1.635C-15.27,-1.615 -15.281,-1.588 -15.297,-1.564C-15.317,-1.535 -15.341,-1.509 -15.354,-1.475C-15.374,-1.428 -15.379,-1.379 -15.384,-1.329C-15.385,-1.314 -15.393,-1.301 -15.393,-1.286L-15.393,-0.286C-15.393,-0.01 -15.169,0.214 -14.893,0.214C-14.616,0.214 -14.393,-0.01 -14.393,-0.286L-14.393,-0.786L-8.621,-0.786L-13.359,11.534C-13.367,11.553 -13.364,11.573 -13.369,11.592C-13.377,11.624 -13.384,11.657 -13.386,11.691C-13.387,11.723 -13.385,11.753 -13.38,11.785C-13.375,11.817 -13.369,11.846 -13.359,11.876C-13.348,11.909 -13.332,11.938 -13.314,11.967C-13.304,11.984 -13.301,12.003 -13.289,12.019C-13.282,12.028 -13.271,12.031 -13.264,12.039C-13.232,12.075 -13.194,12.103 -13.153,12.129C-13.132,12.143 -13.114,12.158 -13.092,12.168C-13.084,12.172 -13.08,12.178 -13.072,12.181C-13.013,12.203 -12.952,12.214 -12.893,12.214L-12.892,12.214C-12.891,12.214 -12.889,12.212 -12.888,12.212C-12.784,12.211 -12.686,12.176 -12.603,12.116C-12.598,12.113 -12.592,12.114 -12.588,12.111L-4.393,5.807L3.803,12.111C3.807,12.114 3.813,12.113 3.817,12.116C3.9,12.176 3.999,12.211 4.103,12.212C4.104,12.212 4.105,12.214 4.107,12.214C4.167,12.214 4.228,12.203 4.287,12.181C4.294,12.178 4.299,12.172 4.307,12.168C4.329,12.158 4.347,12.143 4.368,12.129C4.409,12.103 4.447,12.075 4.479,12.039C4.486,12.031 4.497,12.028 4.504,12.019C4.516,12.003 4.519,11.984 4.529,11.967C4.547,11.938 4.562,11.909 4.574,11.876C4.584,11.846 4.59,11.817 4.595,11.785C4.6,11.753 4.602,11.723 4.601,11.691C4.599,11.657 4.592,11.624 4.584,11.592C4.579,11.573 4.582,11.553 4.574,11.534L-0.165,-0.786L5.607,-0.786L5.607,-0.286C5.607,-0.01 5.831,0.214 6.107,0.214C6.384,0.214 6.607,-0.01 6.607,-0.286L6.607,-1.283Z"/>
    </g>
</svg>
