<?xml version="1.0" encoding="UTF-8" standalone="no"?>
<!DOCTYPE svg PUBLIC "-//W3C//DTD SVG 1.1//EN" "http://www.w3.org/Graphics/SVG/1.1/DTD/svg11.dtd">
<svg width="100%" height="100%" viewBox="0 0 24 24" version="1.1" xmlns="http://www.w3.org/2000/svg" xmlns:xlink="http://www.w3.org/1999/xlink" xml:space="preserve" xmlns:serif="http://www.serif.com/" style="fill-rule:evenodd;clip-rule:evenodd;stroke-linejoin:round;stroke-miterlimit:1.41421;">
    <g transform="matrix(1,0,0,1,2.1943,4)">
        <path d="M0,16L1.601,11.196C1.631,11.104 1.776,11 1.873,11L17.738,11C17.835,11 17.98,11.104 18.011,11.196L19.611,16L0,16ZM1.873,0L17.806,0.067L17.806,9.933L17.738,10L1.806,9.933L1.873,0ZM20.601,15.804L18.96,10.88C18.902,10.709 18.794,10.561 18.667,10.429C18.748,10.278 18.806,10.115 18.806,9.933L18.806,0.067C18.806,-0.521 18.327,-1 17.738,-1L1.873,-1C1.284,-1 0.806,-0.521 0.806,0.067L0.806,9.933C0.806,10.115 0.863,10.278 0.944,10.429C0.817,10.561 0.709,10.709 0.651,10.88L-0.989,15.804C-1.088,16.1 -1.048,16.402 -0.881,16.635C-0.713,16.867 -0.438,17 -0.127,17L19.738,17C20.05,17 20.324,16.867 20.492,16.635C20.659,16.402 20.699,16.1 20.601,15.804"/>
    </g>
    <g transform="matrix(1,0,0,1,18.5,17)">
        <path d="M0,-1L-13.194,-1C-13.471,-1 -13.694,-0.776 -13.694,-0.5C-13.694,-0.224 -13.471,0 -13.194,0L0,0C0.276,0 0.5,-0.224 0.5,-0.5C0.5,-0.776 0.276,-1 0,-1"/>
    </g>
    <g transform="matrix(1,0,0,1,14.5,19)">
        <path d="M0,-1L-5,-1C-5.276,-1 -5.5,-0.776 -5.5,-0.5C-5.5,-0.224 -5.276,0 -5,0L0,0C0.276,0 0.5,-0.224 0.5,-0.5C0.5,-0.776 0.276,-1 0,-1"/>
    </g>
    <g transform="matrix(1,0,0,1,12.5,6)">
        <path d="M0,-1L-1,-1C-1.276,-1 -1.5,-0.776 -1.5,-0.5C-1.5,-0.224 -1.276,0 -1,0L0,0C0.276,0 0.5,-0.224 0.5,-0.5C0.5,-0.776 0.276,-1 0,-1"/>
    </g>
</svg>
