<?xml version="1.0" encoding="UTF-8" standalone="no"?>
<!DOCTYPE svg PUBLIC "-//W3C//DTD SVG 1.1//EN" "http://www.w3.org/Graphics/SVG/1.1/DTD/svg11.dtd">
<svg width="100%" height="100%" viewBox="0 0 24 24" version="1.1" xmlns="http://www.w3.org/2000/svg" xmlns:xlink="http://www.w3.org/1999/xlink" xml:space="preserve" xmlns:serif="http://www.serif.com/" style="fill-rule:evenodd;clip-rule:evenodd;stroke-linejoin:round;stroke-miterlimit:1.41421;">
    <g transform="matrix(1,0,0,1,8.5,14)">
        <path d="M0,1C-0.275,1 -0.5,0.775 -0.5,0.5C-0.5,0.225 -0.275,0 0,0C0.275,0 0.5,0.225 0.5,0.5C0.5,0.775 0.275,1 0,1M0,-1C-0.827,-1 -1.5,-0.327 -1.5,0.5C-1.5,1.327 -0.827,2 0,2C0.827,2 1.5,1.327 1.5,0.5C1.5,-0.327 0.827,-1 0,-1"/>
    </g>
    <g transform="matrix(1,0,0,1,15.5,14)">
        <path d="M0,1C-0.275,1 -0.5,0.775 -0.5,0.5C-0.5,0.225 -0.275,0 0,0C0.275,0 0.5,0.225 0.5,0.5C0.5,0.775 0.275,1 0,1M0,-1C-0.827,-1 -1.5,-0.327 -1.5,0.5C-1.5,1.327 -0.827,2 0,2C0.827,2 1.5,1.327 1.5,0.5C1.5,-0.327 0.827,-1 0,-1"/>
    </g>
    <g transform="matrix(1,0,0,1,15.75,15)">
        <path d="M0,-6L-7.5,-6L-13.75,-6L-13.75,-7.062L6.25,-7.062L6.25,-6L0,-6ZM0.191,-4L-7.691,-4L-7.191,-5L-0.309,-5L0.191,-4ZM3.076,-2.726C3.161,-2.557 3.334,-2.449 3.523,-2.449L3.781,-2.449C3.901,-2.449 4,-2.352 4,-2.232C4,-2.141 3.941,-2.059 3.854,-2.027L3.611,-1.942C3.41,-1.873 3.276,-1.683 3.276,-1.471L3.28,3.351C3.28,3.377 3.292,3.474 3.296,3.5C3.296,3.775 3.037,4 2.72,4C2.373,4 2.25,3.742 2.25,3.5L2.25,2.5C2.25,2.224 2.026,2 1.75,2L-9.25,2C-9.526,2 -9.75,2.224 -9.75,2.5L-9.75,3.5C-9.75,3.65 -9.793,4 -10.193,4C-10.511,4 -10.769,3.775 -10.769,3.5C-10.769,3.464 -10.772,3.429 -10.78,3.395L-10.777,-1.471C-10.777,-1.683 -10.91,-1.871 -11.11,-1.942L-11.354,-2.028C-11.441,-2.059 -11.5,-2.141 -11.5,-2.232C-11.5,-2.352 -11.402,-2.448 -11.282,-2.449L-11.024,-2.45C-10.836,-2.451 -10.664,-2.558 -10.579,-2.727L-9.441,-5L-8.309,-5L-8.947,-3.724C-9.024,-3.568 -9.017,-3.385 -8.926,-3.237C-8.834,-3.09 -8.673,-3 -8.5,-3L1,-3C1.173,-3 1.334,-3.09 1.426,-3.237C1.517,-3.385 1.524,-3.568 1.447,-3.724L0.809,-5L1.94,-5L3.076,-2.726ZM-13.75,-9.063L6.25,-9.063L6.25,-8.063L-13.75,-8.063L-13.75,-9.063ZM6.25,-10.062L-13.75,-10.062L-13.75,-10.999L6.25,-10.999L6.25,-10.062ZM6.75,-12L-14.25,-12C-14.526,-12 -14.75,-11.776 -14.75,-11.5L-14.75,5.5C-14.75,5.776 -14.526,6 -14.25,6C-13.974,6 -13.75,5.776 -13.75,5.5L-13.75,-5L-10.56,-5L-11.336,-3.448C-11.982,-3.419 -12.5,-2.884 -12.5,-2.232C-12.5,-1.749 -12.213,-1.314 -11.777,-1.121L-11.78,3.5C-11.78,3.542 -11.774,3.584 -11.764,3.624C-11.696,4.394 -11.018,5 -10.193,5C-9.357,5 -8.75,4.369 -8.75,3.5L-8.75,3L1.25,3L1.25,3.5C1.25,4.355 1.882,5 2.72,5C3.589,5 4.296,4.327 4.296,3.5C4.296,3.423 4.286,3.35 4.28,3.35L4.28,3.351L4.276,-1.12C4.713,-1.314 5,-1.75 5,-2.232C5,-2.885 4.481,-3.42 3.833,-3.448L3.059,-5L6.25,-5L6.25,5.5C6.25,5.776 6.474,6 6.75,6C7.026,6 7.25,5.776 7.25,5.5L7.25,-11.5C7.25,-11.776 7.026,-12 6.75,-12"/>
    </g>
</svg>
