<?xml version="1.0" encoding="UTF-8" standalone="no"?>
<!DOCTYPE svg PUBLIC "-//W3C//DTD SVG 1.1//EN" "http://www.w3.org/Graphics/SVG/1.1/DTD/svg11.dtd">
<svg width="100%" height="100%" viewBox="0 0 24 24" version="1.1" xmlns="http://www.w3.org/2000/svg" xmlns:xlink="http://www.w3.org/1999/xlink" xml:space="preserve" xmlns:serif="http://www.serif.com/" style="fill-rule:evenodd;clip-rule:evenodd;stroke-linejoin:round;stroke-miterlimit:1.41421;">
    <g transform="matrix(0.993801,0,0,0.997923,0.0743923,0.0477787)">
        <g transform="matrix(1,0,0,1,20,1)">
            <path d="M0,21L-6,21L-6,15.5C-6,15.224 -6.224,15 -6.5,15L-9.5,15C-9.776,15 -10,15.224 -10,15.5L-10,21L-16,21L-16,2L0,2L0,21ZM-9,16L-7,16L-7,21L-9,21L-9,16ZM-14,0L-2,0L-2,1L-14,1L-14,0ZM0.5,1L-1,1L-1,-0.5C-1,-0.776 -1.224,-1 -1.5,-1L-14.5,-1C-14.776,-1 -15,-0.776 -15,-0.5L-15,1L-16.5,1C-16.776,1 -17,1.224 -17,1.5L-17,21.5C-17,21.776 -16.776,22 -16.5,22L0.5,22C0.776,22 1,21.776 1,21.5L1,1.5C1,1.224 0.776,1 0.5,1"/>
        </g>
        <g transform="matrix(1,0,0,1,0,-12)">
            <path d="M8,19L6,19L6,17L8,17L8,19ZM8.5,16L5.5,16C5.224,16 5,16.224 5,16.5L5,19.5C5,19.776 5.224,20 5.5,20L8.5,20C8.776,20 9,19.776 9,19.5L9,16.5C9,16.224 8.776,16 8.5,16"/>
        </g>
        <g transform="matrix(1,0,0,1,0,-12)">
            <path d="M13,19L11,19L11,17L13,17L13,19ZM13.5,16L10.5,16C10.224,16 10,16.224 10,16.5L10,19.5C10,19.776 10.224,20 10.5,20L13.5,20C13.776,20 14,19.776 14,19.5L14,16.5C14,16.224 13.776,16 13.5,16"/>
        </g>
        <g transform="matrix(1,0,0,1,0,-12)">
            <path d="M18,19L16,19L16,17L18,17L18,19ZM15.5,16C15.224,16 15,16.224 15,16.5L15,19.5C15,19.776 15.224,20 15.5,20L18.5,20C18.776,20 19,19.776 19,19.5L19,16.5C19,16.224 18.776,16 18.5,16L15.5,16Z"/>
        </g>
        <g transform="matrix(1,0,0,1,0,-2)">
            <path d="M8,14L6,14L6,12L8,12L8,14ZM8.5,11L5.5,11C5.224,11 5,11.224 5,11.5L5,14.5C5,14.776 5.224,15 5.5,15L8.5,15C8.776,15 9,14.776 9,14.5L9,11.5C9,11.224 8.776,11 8.5,11"/>
        </g>
        <g transform="matrix(1,0,0,1,0,-2)">
            <path d="M13,14L11,14L11,12L13,12L13,14ZM13.5,11L10.5,11C10.224,11 10,11.224 10,11.5L10,14.5C10,14.776 10.224,15 10.5,15L13.5,15C13.776,15 14,14.776 14,14.5L14,11.5C14,11.224 13.776,11 13.5,11"/>
        </g>
        <g transform="matrix(1,0,0,1,0,-2)">
            <path d="M18,14L16,14L16,12L18,12L18,14ZM18.5,11L15.5,11C15.224,11 15,11.224 15,11.5L15,14.5C15,14.776 15.224,15 15.5,15L18.5,15C18.776,15 19,14.776 19,14.5L19,11.5C19,11.224 18.776,11 18.5,11"/>
        </g>
        <g transform="matrix(1,0,0,1,0,8)">
            <path d="M8,9L6,9L6,7L8,7L8,9ZM8.5,6L5.5,6C5.224,6 5,6.224 5,6.5L5,9.5C5,9.776 5.224,10 5.5,10L8.5,10C8.776,10 9,9.776 9,9.5L9,6.5C9,6.224 8.776,6 8.5,6"/>
        </g>
        <g transform="matrix(1,0,0,1,0,8)">
            <path d="M18,9L16,9L16,7L18,7L18,9ZM18.5,6L15.5,6C15.224,6 15,6.224 15,6.5L15,9.5C15,9.776 15.224,10 15.5,10L18.5,10C18.776,10 19,9.776 19,9.5L19,6.5C19,6.224 18.776,6 18.5,6"/>
        </g>
    </g>
</svg>
