<svg xmlns="http://www.w3.org/2000/svg" viewBox="0 0 24 24" style="fill-rule:evenodd;clip-rule:evenodd;stroke-linejoin:round;stroke-miterlimit:1.41421;">
    <path d="M18.844,2C19.031,2.036 19.207,2.114 19.358,2.229L21.763,4.634C21.914,4.784 21.998,4.988 21.997,5.201L22,5.201L22,19.995C21.997,21.091 21.096,21.992 20,21.995L4,21.995C2.904,21.992 2.003,21.091 2,19.995L2,3.995C2.004,2.9 2.905,2.001 4,2L18.844,2ZM16.4,20.395L16.4,13.595L7.6,13.595L7.6,20.395L16.4,20.395ZM20,20.395L20,20.395C20.218,20.392 20.397,20.213 20.4,19.995L20.4,5.533L18.462,3.595L17,3.595L17,7.995C16.998,8.543 16.548,8.993 16,8.995L8,8.995C7.452,8.993 7.001,8.543 7,7.995L7,3.595L4,3.595C3.782,3.598 3.603,3.777 3.6,3.995L3.6,19.995C3.603,20.213 3.782,20.392 4,20.395L6,20.395L6,12.995C6.002,12.448 6.453,11.999 7,12L17,12C17.547,11.999 17.998,12.448 18,12.995L18,20.395L20,20.395ZM15.4,7.395L15.4,3.595L8.6,3.595L8.6,7.395L15.4,7.395ZM13.692,4.648C14.244,4.648 14.692,5.096 14.692,5.648C14.692,6.2 14.244,6.648 13.692,6.648C13.14,6.648 12.692,6.2 12.692,5.648C12.692,5.096 13.14,4.648 13.692,4.648Z" style="fill-rule:nonzero;"/>
</svg>
