<?xml version="1.0" encoding="UTF-8" standalone="no"?>
<!DOCTYPE svg PUBLIC "-//W3C//DTD SVG 1.1//EN" "http://www.w3.org/Graphics/SVG/1.1/DTD/svg11.dtd">
<svg width="100%" height="100%" viewBox="0 0 24 24" version="1.1" xmlns="http://www.w3.org/2000/svg" xmlns:xlink="http://www.w3.org/1999/xlink" xml:space="preserve" xmlns:serif="http://www.serif.com/" style="fill-rule:evenodd;clip-rule:evenodd;stroke-linejoin:round;stroke-miterlimit:1.41421;">
    <g transform="matrix(0.996159,0,0,0.996159,16.9489,6.00345)">
        <path d="M0,12.052C-1.165,13.168 -2.608,13.852 -4.119,14.026L-4.468,14.027L-4.468,11.793L-0.19,8.942C0.039,8.788 0.102,8.478 -0.052,8.248C-0.207,8.017 -0.518,7.956 -0.745,8.11L-4.468,10.591L-4.468,6.635L-0.201,3.948C0.032,3.802 0.103,3.493 -0.045,3.259C-0.191,3.026 -0.5,2.956 -0.734,3.103L-4.468,5.453L-4.468,1.174L-2.23,-0.034C-1.987,-0.166 -1.896,-0.469 -2.027,-0.712C-2.16,-0.957 -2.465,-1.044 -2.705,-0.915L-4.468,0.036L-4.468,-4.671C-3.252,-3.595 2.032,1.432 2.032,7.63C2.032,9.203 1.291,10.815 0,12.052M-5.76,14.029C-7.328,13.852 -8.771,13.168 -9.936,12.052C-11.227,10.815 -11.968,9.203 -11.968,7.63C-11.968,1.455 -6.686,-3.588 -5.468,-4.669L-5.468,0.036L-7.23,-0.915C-7.471,-1.044 -7.775,-0.957 -7.908,-0.712C-8.039,-0.469 -7.948,-0.166 -7.705,-0.034L-5.468,1.174L-5.468,5.453L-9.201,3.103C-9.435,2.956 -9.743,3.026 -9.891,3.259C-10.038,3.493 -9.968,3.802 -9.734,3.948L-5.468,6.635L-5.468,10.591L-9.19,8.11C-9.418,7.957 -9.729,8.018 -9.884,8.248C-10.037,8.478 -9.975,8.788 -9.745,8.942L-5.468,11.793L-5.468,14.028L-5.76,14.029ZM-4.083,-5.66C-4.318,-5.854 -4.611,-5.949 -4.906,-5.962C-4.928,-5.965 -4.946,-5.974 -4.968,-5.974C-4.992,-5.974 -5.013,-5.964 -5.036,-5.961C-5.329,-5.946 -5.618,-5.852 -5.853,-5.659C-6.144,-5.418 -12.968,0.338 -12.968,7.63C-12.968,9.475 -12.114,11.35 -10.627,12.775C-9.305,14.043 -7.66,14.821 -5.815,15.026L-5.468,15.025L-5.468,17.526C-5.468,17.802 -5.244,18.026 -4.968,18.026C-4.691,18.026 -4.468,17.802 -4.468,17.526L-4.468,15.024L-4.063,15.023C-2.276,14.821 -0.633,14.043 0.691,12.775C2.179,11.35 3.032,9.475 3.032,7.63C3.032,0.313 -3.792,-5.419 -4.083,-5.66"/>
    </g>
</svg>
