<?xml version="1.0" encoding="UTF-8" standalone="no"?>
<!DOCTYPE svg PUBLIC "-//W3C//DTD SVG 1.1//EN" "http://www.w3.org/Graphics/SVG/1.1/DTD/svg11.dtd">
<svg width="100%" height="100%" viewBox="0 0 24 24" version="1.1" xmlns="http://www.w3.org/2000/svg" xmlns:xlink="http://www.w3.org/1999/xlink" xml:space="preserve" xmlns:serif="http://www.serif.com/" style="fill-rule:evenodd;clip-rule:evenodd;stroke-linejoin:round;stroke-miterlimit:1.41421;">
    <g transform="matrix(0.992932,0,0,0.998178,0.0848695,0.041885)">
        <g transform="matrix(1,0,0,1,6.5,8.999)">
            <path d="M0,-1.999C0.228,-1.999 0.427,-2.153 0.484,-2.374C0.613,-2.874 0.781,-3.271 1.044,-3.702C1.139,-3.857 1.142,-4.051 1.053,-4.209C0.623,-4.97 0.702,-5.913 1.23,-6.593L2.255,-5.567C2.416,-5.406 2.665,-5.376 2.861,-5.489C3.301,-5.747 3.773,-5.938 4.266,-6.058C4.442,-6.101 4.582,-6.236 4.63,-6.412C4.866,-7.278 5.618,-7.902 6.5,-7.988L6.5,-6.499C6.5,-6.271 6.654,-6.072 6.874,-6.015C7.357,-5.89 7.771,-5.713 8.216,-5.442C8.369,-5.347 8.563,-5.346 8.722,-5.434C9.465,-5.853 10.439,-5.777 11.106,-5.257L10.081,-4.229C9.92,-4.068 9.889,-3.819 10.003,-3.623C10.262,-3.182 10.453,-2.709 10.57,-2.218C10.612,-2.041 10.748,-1.9 10.923,-1.853C11.78,-1.614 12.398,-0.869 12.488,0.001L11,0.001C10.772,0.001 10.573,0.155 10.516,0.375C10.379,0.903 10.206,1.32 9.955,1.727C9.859,1.882 9.856,2.077 9.946,2.236C10.378,2.998 10.299,3.943 9.77,4.62L8.744,3.594C8.584,3.432 8.333,3.4 8.138,3.516C7.696,3.774 7.221,3.967 6.724,4.086C6.548,4.129 6.409,4.263 6.359,4.437C6.118,5.289 5.37,5.904 4.5,5.989L4.5,4.501C4.5,4.273 4.347,4.074 4.126,4.018C3.584,3.876 3.182,3.712 2.782,3.469C2.703,3.42 2.612,3.396 2.522,3.396C2.438,3.396 2.354,3.417 2.276,3.46C1.533,3.879 0.56,3.804 -0.107,3.283L0.919,2.258C1.08,2.097 1.112,1.848 0.997,1.651C0.737,1.208 0.545,0.734 0.427,0.244C0.384,0.067 0.249,-0.072 0.074,-0.12C-0.789,-0.36 -1.41,-1.117 -1.491,-1.999L0,-1.999ZM-0.473,0.751C-0.366,1.116 -0.226,1.473 -0.053,1.815L-1.18,2.941C-1.273,3.035 -1.326,3.163 -1.326,3.296C-1.326,3.429 -1.272,3.556 -1.179,3.649L-1.012,3.815C-0.099,4.728 1.338,4.985 2.507,4.463C2.813,4.629 3.135,4.763 3.5,4.878L3.5,6.5C3.5,6.776 3.724,7 4,7L4.291,7C5.595,7 6.765,6.186 7.229,4.986C7.599,4.88 7.957,4.738 8.301,4.565L9.427,5.692C9.521,5.786 9.647,5.839 9.78,5.839C9.913,5.839 10.04,5.786 10.134,5.692L10.302,5.524C11.231,4.598 11.479,3.188 10.949,2.006C11.12,1.693 11.26,1.364 11.376,1.001L13,1.001C13.276,1.001 13.5,0.777 13.5,0.501L13.5,0.222C13.5,-1.09 12.679,-2.262 11.471,-2.724C11.365,-3.089 11.226,-3.445 11.053,-3.787L12.179,-4.915C12.272,-5.009 12.325,-5.137 12.325,-5.27C12.325,-5.402 12.271,-5.529 12.178,-5.623L12.011,-5.789C11.099,-6.7 9.662,-6.957 8.493,-6.437C8.166,-6.619 7.845,-6.761 7.5,-6.873L7.5,-8.499C7.5,-8.632 7.447,-8.76 7.353,-8.853C7.258,-8.947 7.086,-8.991 6.998,-8.999L6.707,-8.998C5.389,-8.998 4.215,-8.172 3.756,-6.957C3.392,-6.851 3.038,-6.711 2.698,-6.539L1.571,-7.666C1.478,-7.76 1.351,-7.812 1.218,-7.812L1.217,-7.812C1.083,-7.812 0.956,-7.759 0.862,-7.664L0.698,-7.498C-0.229,-6.57 -0.479,-5.161 0.049,-3.98C-0.126,-3.663 -0.264,-3.345 -0.376,-2.999L-2,-2.999C-2.276,-2.999 -2.5,-2.775 -2.5,-2.499L-2.5,-2.195C-2.5,-0.883 -1.68,0.289 -0.473,0.751"/>
        </g>
        <g transform="matrix(1,0,0,1,18.7295,23.0526)">
            <path d="M0,-2.038C-0.414,-2.038 -0.877,-1.769 -1.367,-1.485C-1.635,-1.33 -2.083,-1.07 -2.231,-1.067C-2.38,-1.07 -2.828,-1.33 -3.097,-1.485C-3.587,-1.769 -4.05,-2.038 -4.463,-2.038C-4.879,-2.038 -5.348,-1.77 -5.844,-1.487C-6.118,-1.33 -6.578,-1.068 -6.729,-1.067C-6.881,-1.068 -7.341,-1.33 -7.615,-1.487C-8.111,-1.77 -8.58,-2.038 -8.996,-2.038C-9.413,-2.038 -9.886,-1.77 -10.385,-1.487C-10.662,-1.33 -11.126,-1.067 -11.28,-1.067C-11.431,-1.068 -11.884,-1.33 -12.155,-1.486C-12.648,-1.769 -13.114,-2.038 -13.529,-2.038C-14.046,-2.038 -15.006,-1.366 -15.532,-0.965C-15.752,-0.798 -15.795,-0.484 -15.627,-0.265C-15.461,-0.046 -15.147,-0.001 -14.927,-0.17C-14.357,-0.602 -13.694,-1.009 -13.529,-1.038C-13.379,-1.037 -12.926,-0.775 -12.654,-0.619C-12.161,-0.336 -11.695,-0.067 -11.28,-0.067C-10.863,-0.067 -10.391,-0.335 -9.892,-0.618C-9.614,-0.775 -9.15,-1.038 -8.996,-1.038C-8.845,-1.037 -8.385,-0.775 -8.11,-0.618C-7.614,-0.335 -7.146,-0.067 -6.729,-0.067C-6.313,-0.067 -5.845,-0.335 -5.349,-0.618C-5.074,-0.775 -4.614,-1.037 -4.463,-1.038C-4.314,-1.035 -3.866,-0.775 -3.598,-0.62C-3.107,-0.336 -2.645,-0.067 -2.231,-0.067C-1.818,-0.067 -1.355,-0.336 -0.866,-0.62C-0.598,-0.775 -0.148,-1.036 -0.016,-1.039C0.177,-1.013 0.873,-0.603 1.476,-0.164C1.697,0 2.011,-0.048 2.174,-0.272C2.337,-0.495 2.288,-0.809 2.065,-0.971C1.521,-1.369 0.527,-2.038 0,-2.038"/>
        </g>
        <g transform="matrix(1,0,0,1,18.7295,21.0526)">
            <path d="M0,-2.038C-0.414,-2.038 -0.877,-1.769 -1.367,-1.485C-1.635,-1.33 -2.083,-1.07 -2.231,-1.067C-2.38,-1.07 -2.828,-1.33 -3.097,-1.485C-3.587,-1.769 -4.05,-2.038 -4.463,-2.038C-4.879,-2.038 -5.348,-1.77 -5.844,-1.487C-6.118,-1.33 -6.578,-1.068 -6.729,-1.067C-6.881,-1.068 -7.341,-1.33 -7.615,-1.487C-8.111,-1.77 -8.58,-2.038 -8.996,-2.038C-9.413,-2.038 -9.886,-1.77 -10.385,-1.487C-10.662,-1.33 -11.126,-1.067 -11.28,-1.067C-11.431,-1.068 -11.884,-1.33 -12.155,-1.486C-12.648,-1.769 -13.114,-2.038 -13.529,-2.038C-14.046,-2.038 -15.006,-1.366 -15.532,-0.965C-15.752,-0.798 -15.795,-0.484 -15.627,-0.265C-15.461,-0.045 -15.147,-0.002 -14.927,-0.17C-14.357,-0.602 -13.694,-1.009 -13.529,-1.038C-13.379,-1.037 -12.926,-0.775 -12.654,-0.619C-12.161,-0.336 -11.695,-0.067 -11.28,-0.067C-10.863,-0.067 -10.391,-0.335 -9.892,-0.618C-9.614,-0.775 -9.15,-1.038 -8.996,-1.038C-8.845,-1.037 -8.385,-0.775 -8.11,-0.618C-7.614,-0.335 -7.146,-0.067 -6.729,-0.067C-6.313,-0.067 -5.845,-0.335 -5.349,-0.618C-5.074,-0.775 -4.614,-1.037 -4.463,-1.038C-4.314,-1.035 -3.866,-0.775 -3.598,-0.62C-3.107,-0.336 -2.645,-0.067 -2.231,-0.067C-1.818,-0.067 -1.355,-0.336 -0.866,-0.62C-0.598,-0.775 -0.148,-1.036 -0.016,-1.039C0.177,-1.013 0.873,-0.603 1.476,-0.164C1.697,0 2.011,-0.049 2.174,-0.272C2.337,-0.495 2.288,-0.809 2.065,-0.971C1.521,-1.369 0.527,-2.038 0,-2.038"/>
        </g>
        <g transform="matrix(1,0,0,1,3.8027,17.1848)">
            <path d="M0,1.698C0.569,1.265 1.232,0.859 1.397,0.83C1.548,0.831 2.001,1.093 2.272,1.249C2.766,1.532 3.231,1.801 3.646,1.801C4.063,1.801 4.536,1.533 5.035,1.25C5.312,1.093 5.776,0.83 5.931,0.83C6.082,0.831 6.542,1.093 6.816,1.25C7.312,1.533 7.781,1.801 8.197,1.801C8.613,1.801 9.082,1.533 9.578,1.25C9.853,1.093 10.313,0.831 10.464,0.83C10.612,0.833 11.061,1.093 11.329,1.248C11.819,1.532 12.282,1.801 12.695,1.801C13.108,1.801 13.571,1.532 14.061,1.248C14.329,1.093 14.778,0.832 14.911,0.829C15.104,0.855 15.8,1.264 16.402,1.704C16.624,1.868 16.937,1.819 17.101,1.595C17.264,1.373 17.215,1.059 16.992,0.897C16.447,0.499 15.454,-0.17 14.927,-0.17C14.513,-0.17 14.05,0.098 13.56,0.383C13.292,0.538 12.844,0.798 12.695,0.801C12.547,0.798 12.099,0.538 11.83,0.383C11.34,0.098 10.877,-0.17 10.464,-0.17C10.048,-0.17 9.579,0.097 9.083,0.381C8.809,0.538 8.349,0.8 8.197,0.801C8.046,0.8 7.586,0.538 7.312,0.381C6.815,0.097 6.347,-0.17 5.931,-0.17C5.514,-0.17 5.041,0.097 4.542,0.381C4.265,0.538 3.801,0.801 3.646,0.801C3.496,0.8 3.043,0.538 2.771,0.382C2.278,0.098 1.812,-0.17 1.397,-0.17C0.881,-0.17 -0.079,0.502 -0.605,0.903C-0.825,1.07 -0.868,1.384 -0.7,1.603C-0.534,1.823 -0.221,1.867 0,1.698"/>
        </g>
        <g transform="matrix(1,0,0,1,12,11)">
            <path d="M0,-6C1.654,-6 3,-4.654 3,-3C3,-1.346 1.654,0 0,0C-1.654,0 -3,-1.346 -3,-3C-3,-4.654 -1.654,-6 0,-6M0,1C2.206,1 4,-0.794 4,-3C4,-5.206 2.206,-7 0,-7C-2.206,-7 -4,-5.206 -4,-3C-4,-0.794 -2.206,1 0,1"/>
        </g>
    </g>
</svg>
