<?xml version="1.0" encoding="UTF-8" standalone="no"?>
<!DOCTYPE svg PUBLIC "-//W3C//DTD SVG 1.1//EN" "http://www.w3.org/Graphics/SVG/1.1/DTD/svg11.dtd">
<svg width="100%" height="100%" viewBox="0 0 24 24" version="1.1" xmlns="http://www.w3.org/2000/svg" xmlns:xlink="http://www.w3.org/1999/xlink" xml:space="preserve" xmlns:serif="http://www.serif.com/" style="fill-rule:evenodd;clip-rule:evenodd;stroke-linejoin:round;stroke-miterlimit:1.41421;">
    <g transform="matrix(0.996392,0,0,0.996392,17.2731,12.8934)">
        <path d="M0,-1.789C-0.369,-2.244 -0.825,-2.627 -1.366,-2.896C-2.01,-3.217 -2.707,-3.345 -3.403,-3.313L-4.98,-4.296C-4.981,-4.296 -4.982,-4.297 -4.983,-4.297L-7.388,-5.793C-7.635,-5.947 -7.927,-5.996 -8.205,-5.929C-8.267,-5.914 -8.315,-5.877 -8.373,-5.853C-8.402,-6.077 -8.417,-6.304 -8.417,-6.53C-8.417,-9.466 -5.949,-11.853 -2.917,-11.853C0.115,-11.853 2.583,-9.466 2.583,-6.53C2.583,-4.607 1.525,-2.83 0,-1.789M-2.543,0.147C-2.531,0.147 -2.52,0.147 -2.508,0.146C-2.362,0.136 -2.219,0.113 -2.075,0.093C-2.087,0.141 -2.092,0.189 -2.114,0.233C-2.189,0.386 -2.321,0.5 -2.483,0.555C-2.645,0.607 -2.818,0.595 -2.97,0.52C-3.122,0.443 -3.235,0.313 -3.288,0.151C-3.392,-0.157 -3.239,-0.48 -2.957,-0.617C-3.012,-0.53 -3.049,-0.431 -3.041,-0.319C-3.023,-0.056 -2.804,0.147 -2.543,0.147M-6.335,3.406C-6.333,3.404 -6.332,3.401 -6.331,3.398C-6.332,3.401 -6.333,3.403 -6.334,3.406L-6.335,3.406ZM-0.23,-0.183C0.036,0.614 -0.023,1.469 -0.4,2.223C-0.776,2.978 -1.423,3.54 -2.22,3.806C-2.636,3.944 -3.068,3.998 -3.501,3.957C-3.828,3.935 -4.142,4.095 -4.296,4.392C-4.3,4.398 -4.304,4.405 -4.307,4.413L-4.872,5.542L-5.487,5.747C-5.911,5.893 -6.14,6.354 -5.997,6.774L-5.936,6.957C-6.188,7.118 -6.333,7.408 -6.311,7.708L-6.582,7.8C-6.787,7.868 -6.954,8.014 -7.051,8.208C-7.147,8.402 -7.162,8.622 -7.094,8.825L-6.859,9.525L-6.951,9.711L-7.611,9.931L-7.844,9.234L-7.845,9.234L-7.957,8.899L-5.434,3.841C-5.428,3.83 -5.423,3.819 -5.419,3.809C-5.289,3.516 -5.342,3.175 -5.56,2.931C-5.85,2.611 -6.068,2.237 -6.209,1.816C-6.476,1.02 -6.415,0.165 -6.039,-0.59C-5.663,-1.345 -5.018,-1.907 -4.221,-2.173C-3.421,-2.439 -2.566,-2.379 -1.813,-2.002C-1.456,-1.824 -1.146,-1.582 -0.887,-1.296C-1.062,-1.219 -1.236,-1.143 -1.419,-1.085C-1.563,-1.262 -1.742,-1.41 -1.953,-1.516C-2.344,-1.712 -2.79,-1.742 -3.206,-1.604C-4.061,-1.317 -4.523,-0.388 -4.237,0.467C-4.1,0.882 -3.809,1.218 -3.417,1.414C-3.186,1.529 -2.937,1.588 -2.686,1.588C-2.511,1.588 -2.336,1.56 -2.165,1.502C-1.75,1.363 -1.414,1.071 -1.219,0.68C-1.089,0.419 -1.039,0.135 -1.057,-0.148C-0.812,-0.228 -0.574,-0.323 -0.343,-0.434C-0.306,-0.35 -0.26,-0.27 -0.23,-0.183M-6.789,-1.268L-7.781,-1.886L-7.378,-2.533L-6.348,-1.893C-6.513,-1.7 -6.659,-1.491 -6.789,-1.268M-7.61,0.32L-8.108,1.12L-8.733,1.266C-9.016,1.331 -9.255,1.502 -9.408,1.748C-9.562,1.993 -9.609,2.284 -9.544,2.565L-9.422,3.086L-9.811,3.176C-10.093,3.242 -10.332,3.413 -10.484,3.658C-10.637,3.903 -10.685,4.194 -10.619,4.475L-10.504,4.967L-10.547,5.036L-11.173,5.182C-11.455,5.247 -11.693,5.418 -11.847,5.663C-12,5.909 -12.048,6.2 -11.982,6.482L-11.837,7.107L-12.199,7.689L-13.062,8.012L-13.153,7.084L-9.525,0.71C-9.4,0.491 -9.458,0.214 -9.66,0.063L-10.618,-0.653C-10.605,-0.693 -10.58,-0.753 -10.532,-0.83L-8.03,-4.918C-8.006,-4.956 -7.953,-4.969 -7.917,-4.944L-5.512,-3.448C-5.511,-3.447 -5.51,-3.447 -5.51,-3.446L-4.801,-3.004C-5.074,-2.892 -5.329,-2.751 -5.569,-2.586L-7.274,-3.646C-7.506,-3.79 -7.815,-3.72 -7.963,-3.486L-8.895,-1.99C-8.964,-1.877 -8.986,-1.741 -8.957,-1.612C-8.927,-1.483 -8.847,-1.371 -8.733,-1.301L-7.198,-0.346C-7.241,-0.199 -7.264,-0.051 -7.29,0.099C-7.418,0.126 -7.535,0.2 -7.61,0.32M3.583,-6.53C3.583,-10.017 0.667,-12.853 -2.917,-12.853C-6.501,-12.853 -9.417,-10.017 -9.417,-6.53C-9.417,-5.993 -9.348,-5.458 -9.21,-4.939C-9.209,-4.935 -9.205,-4.931 -9.203,-4.926L-9.96,-3.71C-9.961,-3.708 -9.963,-3.705 -9.964,-3.703L-11.384,-1.354C-11.505,-1.161 -11.695,-0.779 -11.605,-0.392C-11.554,-0.168 -11.422,0.015 -11.26,0.113L-10.612,0.599L-14.102,6.728C-14.152,6.817 -14.175,6.921 -14.165,7.024L-13.999,8.702C-13.983,8.857 -13.84,9.031 -13.709,9.113C-13.628,9.164 -13.536,9.19 -13.443,9.19C-13.384,9.19 -13.324,9.179 -13.268,9.157L-11.688,8.565C-11.586,8.526 -11.498,8.454 -11.439,8.361L-10.878,7.46C-10.809,7.347 -10.786,7.211 -10.815,7.082L-11.008,6.255L-10.947,6.156L-10.119,5.964C-9.99,5.934 -9.878,5.854 -9.809,5.741L-9.546,5.32C-9.476,5.208 -9.452,5.071 -9.482,4.942L-9.646,4.247C-9.653,4.21 -9.621,4.159 -9.584,4.15L-8.889,3.989C-8.76,3.959 -8.647,3.879 -8.577,3.767L-8.438,3.544C-8.369,3.431 -8.346,3.295 -8.376,3.166L-8.569,2.338C-8.569,2.337 -8.508,2.24 -8.508,2.24L-7.68,2.048C-7.551,2.018 -7.438,1.938 -7.368,1.825L-7.266,1.661C-7.232,1.819 -7.209,1.979 -7.157,2.134C-6.986,2.646 -6.726,3.108 -6.385,3.507L-8.944,8.637C-9.004,8.756 -9.014,8.894 -8.971,9.02L-8.401,10.723C-8.331,10.932 -8.136,11.064 -7.927,11.064C-7.874,11.064 -7.821,11.056 -7.769,11.038L-6.438,10.594C-6.312,10.552 -6.209,10.461 -6.149,10.343L-5.872,9.787C-5.812,9.668 -5.803,9.53 -5.845,9.405L-6.085,8.688L-5.541,8.505C-5.416,8.463 -5.312,8.373 -5.253,8.254C-5.193,8.136 -5.184,7.998 -5.227,7.872L-5.263,7.762L-5.152,7.726C-4.891,7.638 -4.749,7.355 -4.836,7.093L-4.989,6.635L-4.359,6.425C-4.233,6.383 -4.13,6.292 -4.07,6.174L-3.464,4.963C-2.937,4.994 -2.411,4.923 -1.903,4.755C-0.853,4.403 -0.001,3.663 0.495,2.669C0.99,1.676 1.069,0.551 0.719,-0.499C0.668,-0.65 0.593,-0.787 0.526,-0.93C2.336,-2.152 3.583,-4.264 3.583,-6.53"/>
    </g>
</svg>
