<?xml version="1.0" encoding="UTF-8" standalone="no"?>
<!DOCTYPE svg PUBLIC "-//W3C//DTD SVG 1.1//EN" "http://www.w3.org/Graphics/SVG/1.1/DTD/svg11.dtd">
<svg width="100%" height="100%" viewBox="0 0 24 24" version="1.1" xmlns="http://www.w3.org/2000/svg" xmlns:xlink="http://www.w3.org/1999/xlink" xml:space="preserve" xmlns:serif="http://www.serif.com/" style="fill-rule:evenodd;clip-rule:evenodd;stroke-linejoin:round;stroke-miterlimit:1.41421;">
    <path d="M24,3.8C24,3.3 23.6,3 23.1,3L19.5,3L19.5,2C19.5,1.7 19.3,1.5 19,1.5C18.7,1.5 18.5,1.7 18.5,2L18.5,3L12.5,3L12.5,2C12.5,1.7 12.3,1.5 12,1.5C11.7,1.5 11.5,1.7 11.5,2L11.5,3L5.5,3L5.5,2C5.5,1.7 5.3,1.5 5,1.5C4.7,1.5 4.5,1.7 4.5,2L4.5,3L0.9,3C0.4,3 0,3.3 0,3.8L0,22.2C0,22.6 0.4,23 0.9,23L23.2,23C23.7,23 24,22.6 24,22.2L24,6.6L24,4.1L24,3.8ZM1,4L4.5,4L4.5,4.5C4.5,4.8 4.7,5 5,5C5.3,5 5.5,4.8 5.5,4.5L5.5,4L11.5,4L11.5,4.5C11.5,4.8 11.7,5 12,5C12.3,5 12.5,4.8 12.5,4.5L12.5,4L18.5,4L18.5,4.5C18.5,4.8 18.7,5 19,5C19.3,5 19.5,4.8 19.5,4.5L19.5,4L23,4L23,6.1L1,6.1L1,4ZM23,22L1,22L1,7.1L23,7.1L23,22Z" style="fill-rule:nonzero;"/>
    <path d="M10.5,15L13.5,15C13.8,15 14,14.8 14,14.5C14,14.2 13.8,14 13.5,14L10.5,14C10.2,14 10,14.2 10,14.5C10,14.8 10.2,15 10.5,15Z" style="fill-rule:nonzero;"/>
    <path d="M17.5,11L20.5,11C20.8,11 21,10.8 21,10.5C21,10.2 20.8,10 20.5,10L17.5,10C17.2,10 17,10.2 17,10.5C17,10.8 17.2,11 17.5,11Z" style="fill-rule:nonzero;"/>
    <path d="M3.5,11L6.5,11C6.8,11 7,10.8 7,10.5C7,10.2 6.8,10 6.5,10L3.5,10C3.2,10 3,10.2 3,10.5C3,10.8 3.2,11 3.5,11Z" style="fill-rule:nonzero;"/>
    <path d="M3.5,15L6.5,15C6.8,15 7,14.8 7,14.5C7,14.2 6.8,14 6.5,14L3.5,14C3.2,14 3,14.2 3,14.5C3,14.8 3.2,15 3.5,15Z" style="fill-rule:nonzero;"/>
    <path d="M3.5,19L6.5,19C6.8,19 7,18.8 7,18.5C7,18.2 6.8,18 6.5,18L3.5,18C3.2,18 3,18.2 3,18.5C3,18.8 3.2,19 3.5,19Z" style="fill-rule:nonzero;"/>
    <path d="M17.5,19L20.5,19C20.8,19 21,18.8 21,18.5C21,18.2 20.8,18 20.5,18L17.5,18C17.2,18 17,18.2 17,18.5C17,18.8 17.2,19 17.5,19Z" style="fill-rule:nonzero;"/>
    <path d="M11.1,11.9C11.3,12.1 11.6,12.1 11.8,11.9L13.9,9.9C14.1,9.7 14.1,9.4 13.9,9.2C13.7,9 13.4,9 13.2,9.2L11.4,10.9L10.8,10.4C10.6,10.2 10.3,10.2 10.1,10.4C9.9,10.6 9.9,10.9 10.1,11.1L11.1,11.9Z" style="fill-rule:nonzero;"/>
    <path d="M20.2,13.1L18.4,14.8L17.8,14.3C17.6,14.1 17.3,14.1 17.1,14.3C16.9,14.5 16.9,14.8 17.1,15L18,15.9C18.2,16.1 18.5,16.1 18.7,15.9L20.8,13.9C21,13.7 21,13.4 20.8,13.2C20.7,13 20.4,12.9 20.2,13.1Z" style="fill-rule:nonzero;"/>
    <path d="M13.2,17.1L11.4,18.8L10.8,18.3C10.6,18.1 10.3,18.1 10.1,18.3C9.9,18.5 9.9,18.8 10.1,19L11,19.9C11.2,20.1 11.5,20.1 11.7,19.9L13.8,17.9C14,17.7 14,17.4 13.8,17.2C13.7,17 13.4,16.9 13.2,17.1Z" style="fill-rule:nonzero;"/>
</svg>
