<?xml version="1.0" encoding="UTF-8" standalone="no"?>
<!DOCTYPE svg PUBLIC "-//W3C//DTD SVG 1.1//EN" "http://www.w3.org/Graphics/SVG/1.1/DTD/svg11.dtd">
<svg width="100%" height="100%" viewBox="0 0 24 24" version="1.1" xmlns="http://www.w3.org/2000/svg" xmlns:xlink="http://www.w3.org/1999/xlink" xml:space="preserve" xmlns:serif="http://www.serif.com/" style="fill-rule:evenodd;clip-rule:evenodd;stroke-linejoin:round;stroke-miterlimit:1.41421;">
    <g transform="matrix(0.995889,0,0,0.997446,0.0492266,0.0587023)">
        <g transform="matrix(1,0,0,1,3.8682,0.0002)">
            <path d="M0,4.368C0.128,4.368 0.256,4.319 0.354,4.222C2.431,2.144 5.193,1 8.132,1C11.002,1 13.719,2.098 15.78,4.095C15.979,4.287 16.295,4.282 16.487,4.083C16.68,3.885 16.674,3.568 16.476,3.376C14.227,1.199 11.263,0 8.132,0C4.927,0 1.913,1.248 -0.354,3.514C-0.549,3.71 -0.549,4.026 -0.354,4.222C-0.256,4.319 -0.128,4.368 0,4.368"/>
        </g>
        <g transform="matrix(1,0,0,1,18.3965,2.745)">
            <path d="M0,2.714C0.175,2.5 0.144,2.186 -0.07,2.011C-1.85,0.556 -4.096,-0.245 -6.396,-0.245C-8.713,-0.245 -10.972,0.566 -12.758,2.038C-12.971,2.214 -13.001,2.529 -12.825,2.742C-12.727,2.862 -12.583,2.924 -12.439,2.924C-12.327,2.924 -12.215,2.887 -12.121,2.81C-10.515,1.485 -8.481,0.755 -6.396,0.755C-4.326,0.755 -2.304,1.476 -0.703,2.784C-0.49,2.959 -0.175,2.929 0,2.714"/>
        </g>
        <g transform="matrix(1,0,0,1,7.8594,5.6093)">
            <path d="M0,0.544C-0.235,0.688 -0.311,0.995 -0.168,1.231C-0.073,1.386 0.091,1.472 0.26,1.472C0.349,1.472 0.438,1.448 0.52,1.399C2.676,0.09 5.543,0.078 7.711,1.368C7.947,1.51 8.255,1.433 8.396,1.194C8.538,0.957 8.46,0.649 8.223,0.509C5.742,-0.966 2.471,-0.953 0,0.544"/>
        </g>
        <g transform="matrix(1,0,0,1,7.1895,15.9561)">
            <path d="M0,1C-0.275,1 -0.5,0.775 -0.5,0.5C-0.5,0.225 -0.275,0 0,0C0.275,0 0.5,0.225 0.5,0.5C0.5,0.775 0.275,1 0,1M0,-1C-0.827,-1 -1.5,-0.327 -1.5,0.5C-1.5,1.327 -0.827,2 0,2C0.827,2 1.5,1.327 1.5,0.5C1.5,-0.327 0.827,-1 0,-1"/>
        </g>
        <g transform="matrix(1,0,0,1,16.8418,15.9561)">
            <path d="M0,1C-0.275,1 -0.5,0.775 -0.5,0.5C-0.5,0.225 -0.275,0 0,0C0.275,0 0.5,0.225 0.5,0.5C0.5,0.775 0.275,1 0,1M0,-1C-0.827,-1 -1.5,-0.327 -1.5,0.5C-1.5,1.327 -0.827,2 0,2C0.827,2 1.5,1.327 1.5,0.5C1.5,-0.327 0.827,-1 0,-1"/>
        </g>
        <g transform="matrix(1,0,0,1,20.5361,16.2708)">
            <path d="M0,-1.556L-0.273,-1.453C-0.469,-1.38 -0.598,-1.194 -0.598,-0.986C-0.598,-0.986 -0.575,4.977 -0.575,5.011C-0.575,5.401 -0.892,5.718 -1.281,5.718C-1.671,5.718 -1.988,5.401 -1.988,5.011L-1.988,4.229C-1.988,3.953 -2.212,3.729 -2.488,3.729L-14.554,3.729C-14.83,3.729 -15.054,3.953 -15.054,4.229L-15.054,5.011C-15.054,5.401 -15.37,5.718 -15.76,5.718C-16.149,5.718 -16.467,5.401 -16.467,5.011C-16.467,4.974 -16.476,-0.986 -16.476,-0.986C-16.476,-1.194 -16.604,-1.38 -16.8,-1.453L-17.07,-1.556C-17.197,-1.604 -17.286,-1.747 -17.286,-1.905C-17.286,-2.105 -17.149,-2.268 -16.98,-2.269L-16.691,-2.271C-16.49,-2.272 -16.31,-2.394 -16.232,-2.579L-14.574,-6.579C-14.298,-7.245 -14.127,-7.248 -13.406,-7.261C-13.284,-7.263 -13.153,-7.265 -13.036,-7.271L-4.035,-7.271C-2.971,-7.265 -2.812,-7.221 -2.498,-6.579L-0.843,-2.578C-0.766,-2.392 -0.584,-2.271 -0.383,-2.27L-0.092,-2.269C0.074,-2.269 0.214,-2.102 0.214,-1.905C0.214,-1.747 0.125,-1.604 0,-1.556M1.214,-1.905C1.214,-2.64 0.652,-3.243 -0.046,-3.268L-1.587,-6.99C-2.171,-8.189 -2.883,-8.274 -4.036,-8.271L-13.059,-8.271L-13.424,-8.261C-14.22,-8.247 -14.972,-8.235 -15.498,-6.962L-17.029,-3.268C-17.727,-3.241 -18.286,-2.638 -18.286,-1.905C-18.286,-1.351 -17.963,-0.851 -17.476,-0.641C-17.476,-0.641 -17.474,5.095 -17.462,5.135C-17.398,6.019 -16.659,6.718 -15.76,6.718C-14.819,6.718 -14.054,5.953 -14.054,5.011L-14.054,4.729L-2.988,4.729L-2.988,5.011C-2.988,5.953 -2.223,6.718 -1.281,6.718C-0.341,6.718 0.425,5.953 0.425,5.011C0.425,4.923 0.402,-0.641 0.402,-0.641C0.89,-0.849 1.214,-1.351 1.214,-1.905"/>
        </g>
        <g transform="matrix(1,0,0,1,6.7676,10.9996)">
            <path d="M0,2.142L1.045,0L9.42,0L10.465,2.142L0,2.142ZM10.182,-0.718C10.098,-0.89 9.924,-1 9.732,-1L0.732,-1C0.541,-1 0.367,-0.89 0.283,-0.718L-1.249,2.423C-1.325,2.578 -1.315,2.761 -1.224,2.907C-1.133,3.053 -0.973,3.142 -0.8,3.142L11.265,3.142C11.438,3.142 11.598,3.053 11.688,2.907C11.78,2.761 11.79,2.578 11.714,2.423L10.182,-0.718Z"/>
        </g>
    </g>
</svg>
