<?xml version="1.0" encoding="UTF-8" standalone="no"?>
<!DOCTYPE svg PUBLIC "-//W3C//DTD SVG 1.1//EN" "http://www.w3.org/Graphics/SVG/1.1/DTD/svg11.dtd">
<svg width="100%" height="100%" viewBox="0 0 24 24" version="1.1" xmlns="http://www.w3.org/2000/svg" xmlns:xlink="http://www.w3.org/1999/xlink" xml:space="preserve" xmlns:serif="http://www.serif.com/" style="fill-rule:evenodd;clip-rule:evenodd;stroke-linejoin:round;stroke-miterlimit:1.41421;">
    <g transform="matrix(0.996631,0,0,0.99665,0.0404312,0.0401954)">
        <g transform="matrix(1,0,0,1,12,1)">
            <path d="M0,22C-6.065,22 -11,17.065 -11,11C-11,4.935 -6.065,0 0,0C6.065,0 11,4.935 11,11C11,17.065 6.065,22 0,22M0,-1C-6.617,-1 -12,4.383 -12,11C-12,17.617 -6.617,23 0,23C6.617,23 12,17.617 12,11C12,4.383 6.617,-1 0,-1"/>
        </g>
        <g transform="matrix(1,0,0,1,17.8931,6.6076)">
            <path d="M0,10.784L-1.096,9.016L1.054,9.344C0.757,9.864 0.402,10.345 0,10.784M-9.204,12.666C-9.75,12.417 -10.262,12.107 -10.734,11.746L-9.071,10.496L-9.204,12.666ZM-3.279,12.945C-3.836,13.138 -4.418,13.277 -5.023,13.343L-4.679,11.28L-3.279,12.945ZM-12.543,9.831L-10.116,7.212C-9.983,7.069 -9.946,6.862 -10.02,6.681C-10.094,6.501 -10.267,6.381 -10.462,6.372L-13.848,6.231C-13.877,5.956 -13.893,5.676 -13.893,5.392C-13.893,5.153 -13.878,4.918 -13.857,4.684L-10.324,4.164C-10.131,4.135 -9.972,3.997 -9.917,3.81C-9.862,3.623 -9.92,3.421 -10.067,3.293L-12.613,1.067C-12.331,0.631 -12.008,0.223 -11.649,-0.15L-8.575,1.657C-8.497,1.704 -8.409,1.726 -8.322,1.726C-8.222,1.726 -8.122,1.696 -8.037,1.637C-7.876,1.526 -7.795,1.332 -7.83,1.139L-8.418,-2.193C-7.933,-2.355 -7.428,-2.47 -6.907,-2.536L-5.643,0.801C-5.573,0.983 -5.404,1.109 -5.21,1.123C-5.198,1.124 -5.187,1.124 -5.175,1.124C-4.993,1.124 -4.825,1.025 -4.737,0.865L-3.108,-2.098C-2.62,-1.915 -2.154,-1.688 -1.716,-1.417L-2.821,1.971C-2.881,2.157 -2.828,2.361 -2.685,2.493C-2.591,2.581 -2.469,2.627 -2.345,2.627C-2.281,2.627 -2.216,2.614 -2.155,2.589L0.969,1.302C1.234,1.744 1.456,2.212 1.632,2.703L-1.355,4.652C-1.518,4.759 -1.604,4.951 -1.576,5.143C-1.548,5.337 -1.41,5.496 -1.223,5.551L2.02,6.507C1.927,7.167 1.759,7.804 1.514,8.403L-2.017,7.865C-2.21,7.836 -2.401,7.921 -2.509,8.084C-2.617,8.247 -2.62,8.457 -2.517,8.623L-0.734,11.497C-1.215,11.904 -1.746,12.252 -2.314,12.537L-4.61,9.807C-4.736,9.658 -4.939,9.597 -5.125,9.647C-5.313,9.699 -5.454,9.855 -5.486,10.048L-6.044,13.385C-6.801,13.371 -7.533,13.255 -8.225,13.044L-8.007,9.475C-7.996,9.281 -8.098,9.097 -8.27,9.005C-8.441,8.912 -8.651,8.929 -8.807,9.046L-11.511,11.08C-11.896,10.7 -12.242,10.282 -12.543,9.831M-13.108,1.961L-11.541,3.332L-13.696,3.649C-13.564,3.058 -13.364,2.494 -13.108,1.961M-13.669,7.24L-11.585,7.327L-13.063,8.92C-13.324,8.39 -13.529,7.828 -13.669,7.24M-9.002,0.247L-10.877,-0.855C-10.413,-1.226 -9.905,-1.542 -9.365,-1.804L-9.002,0.247ZM-4.086,-2.394L-5.091,-0.567L-5.864,-2.606C-5.252,-2.604 -4.659,-2.528 -4.086,-2.394M0.392,0.459L-1.534,1.252L-0.859,-0.818C-0.395,-0.441 0.022,-0.011 0.392,0.459M2.107,5.392C2.107,5.425 2.103,5.456 2.102,5.488L0.099,4.897L1.925,3.707C2.042,4.251 2.107,4.814 2.107,5.392M-5.893,-3.608C-10.855,-3.608 -14.893,0.43 -14.893,5.392C-14.893,10.355 -10.855,14.392 -5.893,14.392C-0.931,14.392 3.107,10.355 3.107,5.392C3.107,0.43 -0.931,-3.608 -5.893,-3.608"/>
        </g>
        <g transform="matrix(1,0,0,1,12,14)">
            <path d="M0,-4C1.103,-4 2,-3.103 2,-2C2,-0.897 1.103,0 0,0C-1.103,0 -2,-0.897 -2,-2C-2,-3.103 -1.103,-4 0,-4M0,1C1.654,1 3,-0.346 3,-2C3,-3.654 1.654,-5 0,-5C-1.654,-5 -3,-3.654 -3,-2C-3,-0.346 -1.654,1 0,1"/>
        </g>
    </g>
</svg>
