<?xml version="1.0" encoding="UTF-8" standalone="no"?>
<!DOCTYPE svg PUBLIC "-//W3C//DTD SVG 1.1//EN" "http://www.w3.org/Graphics/SVG/1.1/DTD/svg11.dtd">
<svg width="100%" height="100%" viewBox="0 0 24 24" version="1.1" xmlns="http://www.w3.org/2000/svg" xmlns:xlink="http://www.w3.org/1999/xlink" xml:space="preserve" xmlns:serif="http://www.serif.com/" style="fill-rule:evenodd;clip-rule:evenodd;stroke-linejoin:round;stroke-miterlimit:1.41421;">
    <g transform="matrix(0.995223,0,0,0.996398,0.0573266,0)">
        <g transform="matrix(1,0,0,1,4.7383,18.2006)">
            <path d="M0,1.609C0.084,1.609 0.169,1.63 0.244,1.672L0.578,1.86L0.511,1.431C0.486,1.274 0.538,1.115 0.649,1.003L0.971,0.678L0.552,0.612C0.388,0.586 0.247,0.479 0.177,0.328L0.014,-0.026L-0.153,0.325C-0.226,0.475 -0.368,0.58 -0.533,0.604L-0.951,0.665L-0.635,0.993C-0.525,1.107 -0.476,1.266 -0.502,1.423L-0.575,1.852L-0.238,1.67C-0.164,1.63 -0.082,1.609 0,1.609M1.231,3.299C1.147,3.299 1.063,3.278 0.987,3.236L-0.004,2.68L-1.002,3.221C-1.17,3.313 -1.375,3.3 -1.531,3.188C-1.687,3.077 -1.766,2.886 -1.733,2.698L-1.53,1.505L-2.349,0.656C-2.479,0.521 -2.522,0.325 -2.461,0.147C-2.4,-0.031 -2.245,-0.159 -2.06,-0.186L-0.94,-0.348L-0.43,-1.416C-0.347,-1.591 -0.178,-1.704 0.024,-1.701C0.219,-1.7 0.395,-1.586 0.476,-1.411L0.973,-0.334L2.091,-0.156C2.275,-0.125 2.429,0.005 2.487,0.183C2.545,0.362 2.499,0.557 2.367,0.69L1.538,1.527L1.726,2.722C1.755,2.911 1.674,3.1 1.517,3.21C1.432,3.269 1.332,3.299 1.231,3.299"/>
        </g>
        <g transform="matrix(1,0,0,1,19.2383,18.2006)">
            <path d="M0,1.609C0.084,1.609 0.169,1.63 0.244,1.672L0.578,1.86L0.511,1.431C0.486,1.274 0.538,1.115 0.649,1.003L0.971,0.678L0.552,0.612C0.388,0.586 0.247,0.479 0.177,0.328L0.014,-0.026L-0.153,0.325C-0.226,0.475 -0.368,0.58 -0.533,0.604L-0.951,0.665L-0.635,0.993C-0.525,1.107 -0.476,1.266 -0.502,1.423L-0.575,1.852L-0.238,1.67C-0.164,1.63 -0.082,1.609 0,1.609M1.231,3.299C1.147,3.299 1.063,3.278 0.987,3.236L-0.004,2.68L-1.002,3.221C-1.17,3.313 -1.375,3.3 -1.531,3.188C-1.687,3.077 -1.766,2.886 -1.733,2.698L-1.53,1.505L-2.349,0.656C-2.479,0.521 -2.522,0.325 -2.461,0.147C-2.4,-0.031 -2.245,-0.159 -2.06,-0.186L-0.94,-0.348L-0.43,-1.416C-0.347,-1.591 -0.176,-1.704 0.024,-1.701C0.219,-1.7 0.395,-1.586 0.476,-1.411L0.973,-0.334L2.091,-0.156C2.275,-0.125 2.429,0.005 2.487,0.183C2.545,0.362 2.499,0.557 2.367,0.69L1.538,1.527L1.726,2.722C1.755,2.911 1.674,3.1 1.517,3.21C1.432,3.269 1.332,3.299 1.231,3.299"/>
        </g>
        <g transform="matrix(1,0,0,1,11.9795,18.196)">
            <path d="M0,3.595C0.084,3.595 0.169,3.616 0.244,3.658L1.502,4.365L1.265,2.851C1.24,2.694 1.292,2.534 1.403,2.422L2.479,1.336L1.025,1.105C0.861,1.078 0.721,0.972 0.65,0.821L0.03,-0.521L-0.607,0.811C-0.68,0.961 -0.821,1.066 -0.986,1.09L-2.443,1.301L-1.381,2.403C-1.271,2.517 -1.222,2.677 -1.248,2.833L-1.505,4.343L-0.238,3.656C-0.164,3.616 -0.082,3.595 0,3.595M2.155,5.804C2.071,5.804 1.987,5.783 1.911,5.741L-0.004,4.666L-1.933,5.712C-2.101,5.804 -2.306,5.791 -2.462,5.679C-2.617,5.568 -2.696,5.377 -2.664,5.189L-2.276,2.914L-3.84,1.293C-3.97,1.158 -4.014,0.962 -3.952,0.784C-3.892,0.608 -3.737,0.479 -3.552,0.451L-1.395,0.139L-0.413,-1.912C-0.33,-2.086 -0.154,-2.196 0.038,-2.196C0.194,-2.209 0.41,-2.083 0.492,-1.906L1.446,0.158L3.6,0.502C3.784,0.532 3.938,0.662 3.996,0.841C4.054,1.02 4.008,1.215 3.876,1.348L2.292,2.947L2.649,5.227C2.679,5.415 2.598,5.605 2.44,5.714C2.355,5.774 2.256,5.804 2.155,5.804"/>
        </g>
        <g transform="matrix(1,0,0,1,16.5,11.9)">
            <path d="M0,5.6C-0.276,5.6 -0.5,5.376 -0.5,5.1L-0.5,2.382C-0.5,1.621 -1.12,1 -1.882,1L-7.118,1C-7.88,1 -8.5,1.621 -8.5,2.382L-8.5,5.1C-8.5,5.376 -8.724,5.6 -9,5.6C-9.276,5.6 -9.5,5.376 -9.5,5.1L-9.5,2.382C-9.5,1.069 -8.432,0 -7.118,0L-1.882,0C-0.568,0 0.5,1.069 0.5,2.382L0.5,5.1C0.5,5.376 0.276,5.6 0,5.6"/>
        </g>
        <g transform="matrix(1,0,0,1,12,10)">
            <path d="M0,-4C-1.103,-4 -2,-3.103 -2,-2C-2,-0.897 -1.103,0 0,0C1.103,0 2,-0.897 2,-2C2,-3.103 1.103,-4 0,-4M0,1C-1.654,1 -3,-0.346 -3,-2C-3,-3.654 -1.654,-5 0,-5C1.654,-5 3,-3.654 3,-2C3,-0.346 1.654,1 0,1"/>
        </g>
        <g transform="matrix(1,0,0,1,4.7559,16.544)">
            <path d="M0,-12.211C-0.101,-12.298 -0.23,-12.35 -0.362,-12.334L-1.772,-12.239C-2.048,-12.221 -2.257,-11.982 -2.238,-11.707C-2.22,-11.431 -1.958,-11.21 -1.706,-11.241L-1.433,-11.26C-3.862,-8.113 -4.441,-3.839 -2.849,-0.162C-2.767,0.026 -2.583,0.139 -2.39,0.139C-2.323,0.139 -2.256,0.126 -2.19,0.098C-1.937,-0.013 -1.821,-0.307 -1.931,-0.561C-3.357,-3.853 -2.867,-7.671 -0.742,-10.52L-0.733,-10.391C-0.716,-10.126 -0.496,-9.924 -0.235,-9.924C-0.224,-9.924 -0.212,-9.924 -0.201,-9.925C0.074,-9.943 0.283,-10.182 0.265,-10.457L0.17,-11.868C0.161,-12.001 0.1,-12.124 0,-12.211"/>
        </g>
        <g transform="matrix(1,0,0,1,18.0127,2.7722)">
            <path d="M0,-0.988C-0.065,-1.256 -0.332,-1.419 -0.604,-1.354C-0.873,-1.289 -1.037,-1.017 -0.971,-0.75L-0.905,-0.483C-4.427,-2.33 -8.737,-2.159 -12.08,0.05C-12.311,0.202 -12.374,0.512 -12.222,0.742C-12.126,0.888 -11.967,0.967 -11.805,0.967C-11.71,0.967 -11.614,0.941 -11.529,0.884C-8.535,-1.092 -4.688,-1.271 -1.515,0.325L-1.641,0.357C-1.909,0.422 -2.073,0.694 -2.007,0.961C-1.951,1.19 -1.747,1.342 -1.521,1.342C-1.482,1.342 -1.442,1.337 -1.402,1.327L-0.028,0.99C0.101,0.958 0.212,0.876 0.28,0.763C0.349,0.65 0.37,0.514 0.338,0.385L0,-0.988Z"/>
        </g>
        <g transform="matrix(1,0,0,1,23.3604,5.4923)">
            <path d="M0,9.995C-0.111,9.742 -0.408,9.628 -0.659,9.74L-0.911,9.851C0.297,6.063 -0.621,1.848 -3.375,-1.062C-3.564,-1.262 -3.881,-1.273 -4.082,-1.081C-4.282,-0.891 -4.291,-0.574 -4.102,-0.374C-1.635,2.231 -0.79,5.987 -1.812,9.391L-1.863,9.273C-1.976,9.019 -2.272,8.907 -2.522,9.016C-2.775,9.129 -2.891,9.424 -2.779,9.676L-2.209,10.97C-2.155,11.092 -2.056,11.186 -1.932,11.234C-1.874,11.257 -1.812,11.268 -1.751,11.268C-1.682,11.268 -1.613,11.254 -1.549,11.225L-0.255,10.654C-0.003,10.543 0.112,10.248 0,9.995"/>
        </g>
    </g>
</svg>
