<?xml version="1.0" encoding="UTF-8" standalone="no"?>
<!DOCTYPE svg PUBLIC "-//W3C//DTD SVG 1.1//EN" "http://www.w3.org/Graphics/SVG/1.1/DTD/svg11.dtd">
<svg width="100%" height="100%" viewBox="0 0 24 24" version="1.1" xmlns="http://www.w3.org/2000/svg" xmlns:xlink="http://www.w3.org/1999/xlink" xml:space="preserve" xmlns:serif="http://www.serif.com/" style="fill-rule:evenodd;clip-rule:evenodd;stroke-linejoin:round;stroke-miterlimit:1.41421;">
    <g transform="matrix(0.995005,0,0,0.995005,21.0496,7.52248)">
        <path d="M0,9C0,7.897 -0.897,7 -2,7C-3.103,7 -4,7.897 -4,9L-5.095,9L-5.095,7.5L-5.095,1L-3.095,1L-3.095,5.5C-3.095,5.776 -2.871,6 -2.595,6L1.905,6L1.905,9L0,9ZM-2,10C-2.552,10 -3,9.552 -3,9C-3,8.448 -2.552,8 -2,8C-1.448,8 -1,8.448 -1,9C-1,9.552 -1.448,10 -2,10M-11.373,8L-6.095,8L-6.095,9L-11.095,9C-11.095,8.634 -11.2,8.295 -11.373,8M-13.095,10C-13.646,10 -14.095,9.552 -14.095,9C-14.095,8.448 -13.646,8 -13.095,8C-12.543,8 -12.095,8.448 -12.095,9C-12.095,9.552 -12.543,10 -13.095,10M-16.095,10C-16.646,10 -17.095,9.552 -17.095,9C-17.095,8.448 -16.646,8 -16.095,8C-15.543,8 -15.095,8.448 -15.095,9C-15.095,9.552 -15.543,10 -16.095,10M-20.095,-1L-6.095,-1L-6.095,7L-20.095,7L-20.095,-1ZM1.905,4.618L1.905,5L-2.095,5L-2.095,1L0.097,1L1.905,4.618ZM2.853,4.276L0.853,0.276C0.768,0.107 0.595,0 0.405,0L-5.095,0L-5.095,-1.5C-5.095,-1.776 -5.318,-2 -5.595,-2L-20.595,-2C-20.871,-2 -21.095,-1.776 -21.095,-1.5L-21.095,7.5C-21.095,7.776 -20.871,8 -20.595,8L-17.816,8C-17.989,8.295 -18.095,8.634 -18.095,9C-18.095,10.103 -17.197,11 -16.095,11C-15.495,11 -14.962,10.729 -14.595,10.309C-14.228,10.729 -13.694,11 -13.095,11C-12.358,11 -11.72,10.595 -11.373,10L-3.722,10C-3.375,10.595 -2.736,11 -2,11C-1.264,11 -0.625,10.595 -0.278,10L2.405,10C2.682,10 2.905,9.776 2.905,9.5L2.905,4.5C2.905,4.423 2.887,4.346 2.853,4.276"/>
    </g>
</svg>
