<?xml version="1.0" encoding="UTF-8" standalone="no"?>
<!DOCTYPE svg PUBLIC "-//W3C//DTD SVG 1.1//EN" "http://www.w3.org/Graphics/SVG/1.1/DTD/svg11.dtd">
<svg width="100%" height="100%" viewBox="0 0 24 24" version="1.1" xmlns="http://www.w3.org/2000/svg" xmlns:xlink="http://www.w3.org/1999/xlink" xml:space="preserve" xmlns:serif="http://www.serif.com/" style="fill-rule:evenodd;clip-rule:evenodd;stroke-linejoin:round;stroke-miterlimit:1.41421;">
    <g transform="matrix(0.997813,0,0,0.996862,0.0021867,0.0422991)">
        <g transform="matrix(1,0,0,1,18.9932,18.582)">
            <path d="M0,-10.164C-0.04,-10.405 -0.249,-10.582 -0.493,-10.582L-5.93,-10.582C-5.954,-10.749 -5.993,-10.913 -5.993,-11.082C-5.993,-13.012 -4.423,-14.582 -2.493,-14.582C-0.563,-14.582 1.007,-13.012 1.007,-11.082C1.007,-10.272 0.716,-9.495 0.214,-8.877L0,-10.164ZM-2.184,1.418L-2.525,-1.582L0.417,-1.582L0.917,1.418L-2.184,1.418ZM-6.993,4.418L-8.993,4.418L-8.993,2.418L-6.993,2.418L-6.993,4.418ZM-16.403,-1.582L-13.56,-1.582L-13.935,1.418L-16.903,1.418L-16.403,-1.582ZM-12.56,-9.582L-12.872,-7.082L-15.486,-7.082L-15.07,-9.582L-12.56,-9.582ZM-4.439,-9.582L-4.155,-7.082L-7.531,-7.082L-7.531,-9.582L-4.439,-9.582ZM-0.5,-7.082L-3.149,-7.082L-3.434,-9.582L-0.917,-9.582L-0.5,-7.082ZM-3.036,-6.082L-0.333,-6.082L0.25,-2.582L-2.638,-2.582L-3.036,-6.082ZM-7.531,-2.582L-7.531,-6.082L-4.042,-6.082L-3.645,-2.582L-7.531,-2.582ZM-11.864,-7.082L-11.552,-9.582L-8.531,-9.582L-8.531,-7.082L-11.864,-7.082ZM-11.989,-6.082L-8.531,-6.082L-8.531,-2.582L-12.427,-2.582L-11.989,-6.082ZM-15.653,-6.082L-12.997,-6.082L-13.435,-2.582L-16.236,-2.582L-15.653,-6.082ZM-12.927,1.418L-12.552,-1.582L-8.531,-1.582L-8.531,1.418L-9.493,1.418L-12.927,1.418ZM-6.493,1.418L-7.531,1.418L-7.531,-1.582L-3.531,-1.582L-3.19,1.418L-6.493,1.418ZM2.007,-11.082C2.007,-13.563 -0.012,-15.582 -2.493,-15.582C-4.975,-15.582 -6.993,-13.563 -6.993,-11.082C-6.993,-10.915 -6.98,-10.748 -6.962,-10.582L-15.493,-10.582C-15.738,-10.582 -15.946,-10.405 -15.986,-10.164L-17.986,1.836C-18.011,1.981 -17.97,2.129 -17.875,2.241C-17.78,2.354 -17.64,2.418 -17.493,2.418L-9.993,2.418L-9.993,4.418L-12.493,4.418C-12.77,4.418 -12.993,4.642 -12.993,4.918C-12.993,5.194 -12.77,5.418 -12.493,5.418L-3.493,5.418C-3.217,5.418 -2.993,5.194 -2.993,4.918C-2.993,4.642 -3.217,4.418 -3.493,4.418L-4.493,4.418L-5.993,4.418L-5.993,2.418L1.507,2.418C1.654,2.418 1.793,2.354 1.888,2.241C1.983,2.129 2.024,1.981 2,1.836L0.417,-7.66C1.415,-8.511 2.007,-9.765 2.007,-11.082"/>
        </g>
        <g transform="matrix(1,0,0,1,23.5,8)">
            <path d="M0,-1L-1,-1C-1.276,-1 -1.5,-0.776 -1.5,-0.5C-1.5,-0.224 -1.276,0 -1,0L0,0C0.276,0 0.5,-0.224 0.5,-0.5C0.5,-0.776 0.276,-1 0,-1"/>
        </g>
        <g transform="matrix(1,0,0,1,22.7578,10.9498)">
            <path d="M0,-0.273L-0.857,-0.789C-1.093,-0.929 -1.401,-0.856 -1.543,-0.618C-1.686,-0.381 -1.609,-0.074 -1.373,0.069L-0.516,0.584C-0.435,0.632 -0.346,0.656 -0.258,0.656C-0.089,0.656 0.077,0.57 0.17,0.414C0.313,0.177 0.237,-0.13 0,-0.273"/>
        </g>
        <g transform="matrix(1,0,0,1,21.6436,3.3252)">
            <path d="M0,1.585C0.088,1.585 0.177,1.562 0.257,1.514L1.114,0.998C1.351,0.856 1.427,0.548 1.285,0.312C1.142,0.074 0.834,0 0.599,0.141L-0.258,0.656C-0.495,0.799 -0.571,1.106 -0.429,1.343C-0.335,1.499 -0.169,1.585 0,1.585"/>
        </g>
        <g transform="matrix(1,0,0,1,19.5664,0.8742)">
            <path d="M0,1.868C0.153,1.868 0.303,1.799 0.401,1.667L0.999,0.865C1.164,0.643 1.118,0.33 0.897,0.166C0.676,0 0.363,0.046 0.197,0.267L-0.4,1.069C-0.565,1.291 -0.52,1.603 -0.298,1.769C-0.208,1.836 -0.104,1.868 0,1.868"/>
        </g>
        <g transform="matrix(1,0,0,1,16.5518,-0.0272)">
            <path d="M0,2.035C0.009,2.035 0.018,2.035 0.027,2.034C0.302,2.02 0.514,1.785 0.5,1.509L0.448,0.511C0.433,0.235 0.2,0 -0.078,0.038C-0.354,0.052 -0.565,0.287 -0.551,0.563L-0.499,1.561C-0.485,1.828 -0.264,2.035 0,2.035"/>
        </g>
        <g transform="matrix(1,0,0,1,12.7305,1.3467)">
            <path d="M0,1.458C0.097,1.602 0.254,1.679 0.415,1.679C0.511,1.679 0.608,1.651 0.694,1.593C0.923,1.438 0.983,1.128 0.829,0.899L0.27,0.07C0.114,-0.159 -0.195,-0.221 -0.425,-0.064C-0.654,0.09 -0.714,0.4 -0.56,0.629L0,1.458Z"/>
        </g>
        <g transform="matrix(1,0,0,1,9.9448,4.4401)">
            <path d="M0,0.555L0.906,0.977C0.975,1.009 1.046,1.024 1.117,1.024C1.305,1.024 1.486,0.917 1.57,0.735C1.687,0.485 1.579,0.187 1.328,0.071L0.422,-0.351C0.171,-0.469 -0.126,-0.36 -0.242,-0.109C-0.359,0.141 -0.25,0.439 0,0.555"/>
        </g>
    </g>
</svg>
