<?xml version="1.0" encoding="UTF-8" standalone="no"?>
<!DOCTYPE svg PUBLIC "-//W3C//DTD SVG 1.1//EN" "http://www.w3.org/Graphics/SVG/1.1/DTD/svg11.dtd">
<svg width="100%" height="100%" viewBox="0 0 24 24" version="1.1" xmlns="http://www.w3.org/2000/svg" xmlns:xlink="http://www.w3.org/1999/xlink" xml:space="preserve" xmlns:serif="http://www.serif.com/" style="fill-rule:evenodd;clip-rule:evenodd;stroke-linejoin:round;stroke-miterlimit:1.41421;">
    <g transform="matrix(0.993442,0,0,0.995007,0.0372748,0.0601193)">
        <g transform="matrix(1,0,0,1,10.6162,20.8197)">
            <path d="M0,-4.64C-0.125,-4.491 -0.151,-4.284 -0.069,-4.108C0.014,-3.932 0.189,-3.82 0.384,-3.82L1.797,-3.82L-1.53,0.062L-0.652,-2.134C-0.591,-2.288 -0.609,-2.462 -0.702,-2.6C-0.795,-2.738 -0.95,-2.82 -1.116,-2.82L-2.233,-2.82L0.167,-6.82L1.816,-6.82L0,-4.64ZM3.337,-7.532C3.254,-7.707 3.078,-7.82 2.884,-7.82L-0.116,-7.82C-0.292,-7.82 -0.455,-7.728 -0.545,-7.577L-3.545,-2.577C-3.638,-2.422 -3.64,-2.23 -3.552,-2.074C-3.463,-1.916 -3.296,-1.82 -3.116,-1.82L-1.854,-1.82L-3.58,2.495C-3.671,2.721 -3.584,2.981 -3.375,3.108C-3.295,3.157 -3.205,3.18 -3.116,3.18C-2.975,3.18 -2.835,3.12 -2.736,3.006L3.264,-3.994C3.391,-4.143 3.42,-4.351 3.338,-4.529C3.257,-4.706 3.079,-4.82 2.884,-4.82L1.451,-4.82L3.268,-6.999C3.393,-7.149 3.419,-7.356 3.337,-7.532"/>
        </g>
        <g transform="matrix(1,0,0,1,17.1465,18.8055)">
            <path d="M0,-2.659L-2,-0.659C-2.195,-0.464 -2.195,-0.147 -2,0.048C-1.902,0.146 -1.774,0.195 -1.646,0.195C-1.519,0.195 -1.391,0.146 -1.293,0.048L0.707,-1.952C0.902,-2.147 0.902,-2.464 0.707,-2.659C0.512,-2.854 0.195,-2.854 0,-2.659"/>
        </g>
        <g transform="matrix(1,0,0,1,5.1465,18.8055)">
            <path d="M0,-2.659L-2,-0.659C-2.195,-0.464 -2.195,-0.147 -2,0.048C-1.902,0.146 -1.774,0.195 -1.646,0.195C-1.519,0.195 -1.391,0.146 -1.293,0.048L0.707,-1.952C0.902,-2.147 0.902,-2.464 0.707,-2.659C0.512,-2.854 0.195,-2.854 0,-2.659"/>
        </g>
        <g transform="matrix(1,0,0,1,18.2197,10.4549)">
            <path d="M0,-6.91C-0.21,-6.91 -0.411,-6.895 -0.595,-6.875C-1.639,-9.031 -4.096,-10.455 -6.844,-10.455C-10.578,-10.455 -13.616,-7.845 -13.616,-4.637C-13.616,-4.605 -13.616,-4.575 -13.615,-4.544C-13.639,-4.545 -13.663,-4.545 -13.687,-4.545C-16.163,-4.545 -18.178,-2.731 -18.178,-0.502C-18.178,1.73 -16.163,3.545 -13.687,3.545L-11.72,3.545C-11.443,3.545 -11.22,3.321 -11.22,3.045C-11.22,2.769 -11.443,2.545 -11.72,2.545L-13.687,2.545C-15.611,2.545 -17.178,1.178 -17.178,-0.502C-17.178,-2.18 -15.611,-3.545 -13.687,-3.545C-13.497,-3.545 -13.315,-3.521 -13.135,-3.496C-12.975,-3.475 -12.822,-3.527 -12.712,-3.638C-12.602,-3.748 -12.549,-3.904 -12.57,-4.059C-12.597,-4.248 -12.616,-4.44 -12.616,-4.637C-12.616,-7.294 -10.026,-9.455 -6.844,-9.455C-4.352,-9.455 -2.149,-8.125 -1.365,-6.144C-1.279,-5.928 -1.06,-5.796 -0.823,-5.835C-0.599,-5.87 -0.302,-5.91 0,-5.91C2.659,-5.91 4.822,-4.014 4.822,-1.681C4.822,0.482 2.974,2.289 0.529,2.522C0.354,2.534 -1.43,2.545 -1.72,2.545C-1.996,2.545 -2.22,2.769 -2.22,3.045C-2.22,3.321 -1.996,3.545 -1.72,3.545C-1.699,3.545 0.384,3.537 0.617,3.518C3.585,3.236 5.822,1 5.822,-1.681C5.822,-4.564 3.21,-6.91 0,-6.91"/>
        </g>
    </g>
</svg>
