<?xml version="1.0" encoding="UTF-8" standalone="no"?>
<!DOCTYPE svg PUBLIC "-//W3C//DTD SVG 1.1//EN" "http://www.w3.org/Graphics/SVG/1.1/DTD/svg11.dtd">
<svg width="100%" height="100%" viewBox="0 0 24 24" version="1.1" xmlns="http://www.w3.org/2000/svg" xmlns:xlink="http://www.w3.org/1999/xlink" xml:space="preserve" xmlns:serif="http://www.serif.com/" style="fill-rule:evenodd;clip-rule:evenodd;stroke-linejoin:round;stroke-miterlimit:1.41421;">
    <path d="M23,15.303C22.326,15.921 21.798,16.001 20.949,16.013C20.982,15.852 21,15.686 21,15.516C21,14.137 19.879,13.016 18.5,13.016C17.121,13.016 16,14.137 16,15.516C16,15.687 16.018,15.854 16.051,16.016L13.271,16.018C11.859,16.02 10.548,16.022 8.949,16.017C8.982,15.855 9,15.687 9,15.516C9,14.137 7.879,13.016 6.5,13.016C5.121,13.016 4,14.137 4,15.516C4,15.677 4.019,15.834 4.048,15.987C3.303,15.932 1.981,15.818 1.493,15.762C1.298,15.557 1.01,14.777 1,14.495C1.683,13.235 1.469,12.334 1.213,11.776C1.569,11.657 2.08,11.503 2.436,11.396C3.235,11.155 3.603,11.041 3.759,10.965C4.31,10.694 5.474,9.776 6.826,8.695C7.151,8.435 7.511,8.147 7.684,8.018C7.958,8.018 8.479,8.016 9.085,8.011C10.285,8.002 11.93,7.99 12.517,8.015C12.884,8.032 13.94,8.833 15.655,10.399C15.911,10.632 16.111,10.814 16.224,10.905C16.364,11.019 16.364,11.019 18.242,11.29C19.481,11.469 21.73,11.793 22.24,11.938C22.449,12.254 22.967,13.286 23,13.516L23,15.303ZM18.5,17.016C17.673,17.016 17,16.343 17,15.516C17,14.689 17.673,14.016 18.5,14.016C19.327,14.016 20,14.689 20,15.516C20,16.343 19.327,17.016 18.5,17.016M6.5,17.016C5.673,17.016 5,16.343 5,15.516C5,14.689 5.673,14.016 6.5,14.016C7.327,14.016 8,14.689 8,15.516C8,16.343 7.327,17.016 6.5,17.016M22.767,11.071C22.446,10.907 21.156,10.7 18.386,10.3C17.713,10.203 17.021,10.103 16.771,10.057C16.663,9.965 16.512,9.826 16.33,9.66C14.522,8.011 13.326,7.05 12.561,7.016C11.949,6.99 10.356,7.001 9.077,7.011C8.342,7.016 7.735,7.021 7.553,7.016C7.314,7.007 7.33,7.011 6.202,7.914C5.309,8.628 3.814,9.823 3.318,10.067C3.205,10.12 2.593,10.304 2.146,10.439C0.387,10.97 0.233,11.032 0.101,11.274C-0.055,11.554 0.091,11.803 0.188,11.969C0.38,12.3 0.739,12.917 0.092,14.072C-0.222,14.63 0.411,15.903 0.417,15.916C0.677,16.431 0.963,16.702 1.292,16.745C1.824,16.812 4.094,17.007 4.512,17.015C4.969,17.619 5.686,18.016 6.5,18.016C7.317,18.016 8.038,17.616 8.494,17.007C8.509,17.009 8.521,17.016 8.536,17.016C9.451,17.019 10.262,17.02 11.04,17.02C11.794,17.02 12.517,17.019 13.272,17.018L16.513,17.016C16.97,17.619 17.687,18.016 18.5,18.016C19.319,18.016 20.041,17.615 20.497,17.004C20.518,17.007 20.535,17.016 20.556,17.016L20.557,17.016C21.808,17.013 22.712,17.011 23.854,15.869C23.947,15.776 24,15.649 24,15.516L23.999,13.493C23.979,13.061 23.156,11.272 22.767,11.071"/>
    <g transform="matrix(0.992232,0,0,1,0.0403189,0.14221)">
        <g transform="matrix(1,0,0,1,15.5834,5.65089)">
            <path d="M0,-4.64C1.736,-4.897 3.468,-4.467 4.88,-3.43C6.292,-2.393 7.22,-0.868 7.492,0.864C7.531,1.111 7.743,1.287 7.985,1.287C8.011,1.287 8.037,1.285 8.063,1.281C8.336,1.238 8.522,0.982 8.48,0.71C8.167,-1.286 7.099,-3.042 5.472,-4.237C3.847,-5.431 1.85,-5.927 -0.146,-5.628C-0.42,-5.588 -0.608,-5.333 -0.568,-5.061C-0.527,-4.787 -0.27,-4.594 0,-4.64"/>
        </g>
        <g transform="matrix(1,0,0,1,15.5776,6.44069)">
            <path d="M0,-3.048C1.21,-3.223 2.419,-2.927 3.404,-2.203C4.388,-1.481 5.036,-0.418 5.227,0.789C5.266,1.035 5.479,1.211 5.72,1.211C5.746,1.211 5.772,1.209 5.799,1.205C6.072,1.161 6.258,0.905 6.214,0.633C5.982,-0.836 5.194,-2.13 3.996,-3.01C2.797,-3.891 1.326,-4.259 -0.146,-4.036C-0.419,-3.996 -0.608,-3.742 -0.568,-3.469C-0.527,-3.195 -0.269,-3.003 0,-3.048"/>
        </g>
        <g transform="matrix(1,0,0,1,15.5712,7.23859)">
            <path d="M0,-1.464C0.686,-1.569 1.371,-1.395 1.929,-0.984C2.485,-0.575 2.852,0.025 2.962,0.708C3.002,0.953 3.214,1.128 3.456,1.128C3.482,1.128 3.509,1.126 3.536,1.121C3.809,1.077 3.994,0.82 3.95,0.548C3.797,-0.395 3.29,-1.225 2.521,-1.789C1.75,-2.356 0.804,-2.592 -0.145,-2.454C-0.418,-2.414 -0.607,-2.16 -0.567,-1.887C-0.527,-1.613 -0.275,-1.432 0,-1.464"/>
        </g>
    </g>
</svg>
