<?xml version="1.0" encoding="UTF-8" standalone="no"?>
<!DOCTYPE svg PUBLIC "-//W3C//DTD SVG 1.1//EN" "http://www.w3.org/Graphics/SVG/1.1/DTD/svg11.dtd">
<svg width="100%" height="100%" viewBox="0 0 24 24" version="1.1" xmlns="http://www.w3.org/2000/svg" xmlns:xlink="http://www.w3.org/1999/xlink" xml:space="preserve" xmlns:serif="http://www.serif.com/" style="fill-rule:evenodd;clip-rule:evenodd;stroke-linejoin:round;stroke-miterlimit:1.41421;">
    <g transform="matrix(0.995138,0,0,0.997891,0.0999628,0.0485047)">
        <g transform="matrix(1,0,0,1,21.7749,7.6714)">
            <path d="M0,-2.563C-1.393,-4.523 -3.245,-5.993 -5.214,-6.702C-5.477,-6.793 -5.761,-6.66 -5.854,-6.4C-5.948,-6.14 -5.813,-5.854 -5.553,-5.76C-3.773,-5.121 -2.091,-3.779 -0.815,-1.984C0.46,-0.188 1.172,1.843 1.191,3.735C1.194,4.009 1.417,4.23 1.691,4.23L1.696,4.23C1.972,4.227 2.193,4.001 2.191,3.725C2.17,1.631 1.393,-0.602 0,-2.563"/>
        </g>
        <g transform="matrix(1,0,0,1,15.8755,10.4236)">
            <path d="M0,-6.158C1.251,-5.707 2.436,-4.761 3.336,-3.494C4.236,-2.225 4.74,-0.794 4.753,0.537C4.756,0.812 4.979,1.032 5.253,1.032L5.259,1.032C5.535,1.029 5.756,0.803 5.753,0.528C5.738,-1.007 5.168,-2.64 4.151,-4.072C3.135,-5.504 1.781,-6.579 0.34,-7.099C0.08,-7.19 -0.207,-7.057 -0.3,-6.799C-0.394,-6.539 -0.26,-6.252 0,-6.158"/>
        </g>
        <g transform="matrix(1,0,0,1,17.2197,8.3541)">
            <path d="M0,6.351C-2.463,4.929 -3.329,3.588 -3.246,3.326C-3.199,3.273 -3.064,3.239 -2.851,3.239C-2.208,3.239 -0.85,3.55 1,4.618C3.465,6.041 4.33,7.38 4.246,7.643C4.057,7.855 2.464,7.773 0,6.351M-5.22,3.646C-5.771,3.646 -6.22,3.198 -6.22,2.646C-6.22,2.094 -5.771,1.646 -5.22,1.646C-4.668,1.646 -4.22,2.094 -4.22,2.646C-4.22,3.198 -4.668,3.646 -5.22,3.646M-10.439,6.351C-12.903,7.773 -14.495,7.856 -14.682,7.649C-14.77,7.38 -13.905,6.041 -11.439,4.618C-9.582,3.545 -8.22,3.236 -7.582,3.236C-7.374,3.236 -7.243,3.269 -7.197,3.32C-7.11,3.588 -7.977,4.929 -10.439,6.351M-6.22,-3.354C-6.22,-5.979 -5.477,-7.354 -5.22,-7.354C-4.963,-7.354 -4.22,-5.979 -4.22,-3.354C-4.22,-0.729 -4.963,0.646 -5.22,0.646C-5.477,0.646 -6.22,-0.729 -6.22,-3.354M1.5,3.752C0.342,3.083 -0.835,2.593 -1.813,2.372C-2.447,2.229 -2.909,2.223 -3.256,2.289C-3.357,1.734 -3.686,1.26 -4.144,0.965C-3.515,0.037 -3.22,-1.702 -3.22,-3.354C-3.22,-5.762 -3.846,-8.354 -5.22,-8.354C-6.594,-8.354 -7.22,-5.762 -7.22,-3.354C-7.22,-1.702 -6.925,0.037 -6.296,0.965C-6.754,1.26 -7.083,1.734 -7.184,2.289C-7.531,2.224 -7.992,2.23 -8.626,2.372C-9.604,2.593 -10.781,3.083 -11.939,3.752C-13.098,4.42 -14.11,5.195 -14.791,5.931C-15.827,7.053 -15.775,7.755 -15.55,8.146C-15.384,8.433 -15.026,8.723 -14.256,8.723C-13.979,8.723 -13.648,8.685 -13.253,8.596C-12.274,8.375 -11.098,7.885 -9.939,7.216C-8.781,6.548 -7.769,5.774 -7.088,5.037C-6.8,4.725 -6.603,4.449 -6.463,4.2C-6.247,4.373 -5.996,4.503 -5.72,4.575L-5.72,13.376C-5.8,13.324 -5.877,13.273 -5.942,13.23C-6.393,12.929 -6.818,12.646 -7.22,12.646C-7.622,12.646 -8.05,12.929 -8.503,13.229C-8.73,13.379 -9.111,13.63 -9.226,13.646C-9.356,13.629 -9.727,13.38 -9.949,13.231C-10.396,12.93 -10.819,12.646 -11.22,12.646C-11.595,12.646 -12.211,13.025 -13.052,13.772C-13.258,13.955 -13.277,14.272 -13.093,14.478C-12.91,14.684 -12.594,14.701 -12.388,14.52C-11.91,14.095 -11.343,13.685 -11.229,13.646C-11.099,13.663 -10.728,13.912 -10.506,14.061C-10.059,14.362 -9.636,14.646 -9.235,14.646C-8.833,14.646 -8.405,14.363 -7.952,14.063C-7.725,13.913 -7.344,13.662 -7.228,13.646C-7.097,13.662 -6.722,13.913 -6.497,14.062C-6.046,14.363 -5.621,14.646 -5.22,14.646C-4.818,14.646 -4.393,14.363 -3.942,14.062C-3.718,13.913 -3.342,13.662 -3.23,13.645C-3.102,13.663 -2.735,13.912 -2.516,14.06C-2.071,14.362 -1.65,14.646 -1.251,14.646C-0.852,14.646 -0.431,14.362 0.014,14.06C0.233,13.912 0.6,13.663 0.681,13.643C0.855,13.683 1.451,14.096 1.956,14.527C2.166,14.705 2.481,14.68 2.661,14.47C2.84,14.26 2.815,13.945 2.605,13.766C2.006,13.254 1.193,12.646 0.718,12.646C0.318,12.646 -0.102,12.93 -0.547,13.232C-0.766,13.38 -1.133,13.628 -1.241,13.647C-1.369,13.628 -1.736,13.38 -1.955,13.232C-2.4,12.93 -2.82,12.646 -3.22,12.646C-3.621,12.646 -4.046,12.929 -4.497,13.23C-4.562,13.273 -4.64,13.325 -4.72,13.376L-4.72,4.575C-4.443,4.503 -4.193,4.373 -3.976,4.2C-3.836,4.449 -3.639,4.725 -3.352,5.037C-2.671,5.774 -1.658,6.548 -0.5,7.216C0.658,7.885 1.835,8.375 2.813,8.596C3.208,8.685 3.54,8.723 3.817,8.723C4.586,8.723 4.944,8.433 5.11,8.146C5.336,7.755 5.388,7.053 4.352,5.931C3.671,5.195 2.658,4.42 1.5,3.752"/>
        </g>
    </g>
</svg>
