<?xml version="1.0" encoding="UTF-8" standalone="no"?>
<!DOCTYPE svg PUBLIC "-//W3C//DTD SVG 1.1//EN" "http://www.w3.org/Graphics/SVG/1.1/DTD/svg11.dtd">
<svg width="100%" height="100%" viewBox="0 0 24 24" version="1.1" xmlns="http://www.w3.org/2000/svg" xmlns:xlink="http://www.w3.org/1999/xlink" xml:space="preserve" xmlns:serif="http://www.serif.com/" style="fill-rule:evenodd;clip-rule:evenodd;stroke-linejoin:round;stroke-miterlimit:1.41421;">
    <g transform="matrix(0.996546,0,0,0.996546,0.0523013,0.0414433)">
        <g transform="matrix(1,0,0,1,22.8564,7.0707)">
            <path d="M0,1.858C-0.276,1.858 -0.5,2.082 -0.5,2.358C-0.5,2.673 -0.756,2.929 -1.072,2.929L-1.785,2.929C-2.1,2.929 -2.356,2.673 -2.356,2.358L-2.356,-0.499C-2.356,-0.815 -2.1,-1.071 -1.785,-1.071L-1.072,-1.071C-0.756,-1.071 -0.5,-0.815 -0.5,-0.499C-0.5,-0.223 -0.276,0.001 0,0.001C0.276,0.001 0.5,-0.223 0.5,-0.499C0.5,-1.366 -0.205,-2.071 -1.072,-2.071L-1.785,-2.071C-2.651,-2.071 -3.356,-1.366 -3.356,-0.499L-3.356,2.358C-3.356,3.224 -2.651,3.929 -1.785,3.929L-1.072,3.929C-0.205,3.929 0.5,3.224 0.5,2.358C0.5,2.082 0.276,1.858 0,1.858"/>
        </g>
        <g transform="matrix(1,0,0,1,17.5,4.063)">
            <path d="M0,0.937C-0.258,0.937 -0.469,0.727 -0.469,0.468C-0.469,0.209 -0.258,0 0,0C0.258,0 0.469,0.209 0.469,0.468C0.469,0.727 0.258,0.937 0,0.937M0,-1C-0.81,-1 -1.469,-0.341 -1.469,0.468C-1.469,1.278 -0.81,1.937 0,1.937C0.81,1.937 1.469,1.278 1.469,0.468C1.469,-0.341 0.81,-1 0,-1"/>
        </g>
        <g transform="matrix(1,0,0,1,12.0005,1)">
            <path d="M0,22C-2.244,22 -4.069,20.175 -4.069,17.932C-4.069,16.519 -3.352,15.229 -2.151,14.482C-2.003,14.391 -1.914,14.228 -1.915,14.054L-1.917,13.834C-1.917,12.966 -1.924,11.543 -1.935,9.916L0,9.916C0.276,9.916 0.5,9.692 0.5,9.416C0.5,9.14 0.276,8.916 0,8.916L-1.941,8.916C-1.943,8.586 -1.945,8.254 -1.948,7.916L0,7.916C0.276,7.916 0.5,7.692 0.5,7.416C0.5,7.14 0.276,6.916 0,6.916L-1.955,6.916C-1.957,6.582 -1.959,6.248 -1.961,5.916L0,5.916C0.276,5.916 0.5,5.692 0.5,5.416C0.5,5.14 0.276,4.916 0,4.916L-1.968,4.916C-1.971,4.576 -1.973,4.244 -1.975,3.916L0,3.916C0.276,3.916 0.5,3.692 0.5,3.416C0.5,3.14 0.276,2.916 0,2.916L-1.982,2.916C-1.99,1.774 -1.996,0.757 -1.999,0L1.997,0L1.917,13.604L1.892,14.012C1.88,14.196 1.971,14.372 2.129,14.469C3.343,15.215 4.068,16.51 4.068,17.932C4.068,20.175 2.243,22 0,22M2.908,13.784L3,-0.497C3,-0.63 2.948,-0.758 2.854,-0.853C2.76,-0.947 2.633,-1 2.5,-1L-2.5,-1C-2.633,-1 -2.761,-0.947 -2.854,-0.854C-2.948,-0.759 -3.001,-0.632 -3,-0.499C-2.998,0.769 -2.98,3.204 -2.962,5.763C-2.94,8.89 -2.917,12.201 -2.917,13.79C-4.27,14.738 -5.069,16.266 -5.069,17.932C-5.069,20.727 -2.795,23 0,23C2.794,23 5.068,20.727 5.068,17.932C5.068,16.262 4.266,14.732 2.908,13.784"/>
        </g>
        <g transform="matrix(1,0,0,1,12,14.4219)">
            <path d="M0,6.5C-1.103,6.5 -2,5.603 -2,4.5C-2,3.397 -1.103,2.5 0,2.5C1.103,2.5 2,3.397 2,4.5C2,5.603 1.103,6.5 0,6.5M0.49,1.55C0.492,1.532 0.5,1.518 0.5,1.5L0.5,-0.5C0.5,-0.776 0.276,-1 0,-1C-0.276,-1 -0.5,-0.776 -0.5,-0.5L-0.5,1.5C-0.5,1.518 -0.492,1.532 -0.49,1.55C-1.911,1.785 -3,3.014 -3,4.5C-3,6.154 -1.654,7.5 0,7.5C1.654,7.5 3,6.154 3,4.5C3,3.014 1.911,1.785 0.49,1.55"/>
        </g>
    </g>
</svg>
