<?xml version="1.0" encoding="UTF-8" standalone="no"?>
<!DOCTYPE svg PUBLIC "-//W3C//DTD SVG 1.1//EN" "http://www.w3.org/Graphics/SVG/1.1/DTD/svg11.dtd">
<svg width="100%" height="100%" viewBox="0 0 24 24" version="1.1" xmlns="http://www.w3.org/2000/svg" xmlns:xlink="http://www.w3.org/1999/xlink" xml:space="preserve" xmlns:serif="http://www.serif.com/" style="fill-rule:evenodd;clip-rule:evenodd;stroke-linejoin:round;stroke-miterlimit:2;">
    <g transform="matrix(8.05,0,0,8.05,5.2964,17.167)">
        <path d="M0.056,-0.667L0.218,-0.667C0.281,-0.667 0.335,-0.653 0.38,-0.626C0.425,-0.598 0.458,-0.559 0.481,-0.509C0.504,-0.458 0.515,-0.4 0.515,-0.333C0.515,-0.266 0.504,-0.208 0.481,-0.158C0.458,-0.108 0.425,-0.069 0.38,-0.042C0.335,-0.014 0.281,0 0.218,0L0.056,0L0.056,-0.667ZM0.218,-0.117C0.277,-0.117 0.32,-0.136 0.349,-0.175C0.377,-0.213 0.391,-0.266 0.391,-0.333C0.391,-0.4 0.377,-0.453 0.349,-0.492C0.32,-0.531 0.277,-0.55 0.218,-0.55L0.18,-0.55L0.18,-0.117L0.218,-0.117Z" style="fill-rule:nonzero;"/>
    </g>
    <g transform="matrix(8.05,0,0,8.05,10.0781,17.167)">
        <path d="M0.305,0.012C0.25,0.012 0.201,-0.002 0.16,-0.03C0.118,-0.058 0.086,-0.098 0.064,-0.15C0.041,-0.202 0.03,-0.263 0.03,-0.333C0.03,-0.403 0.041,-0.464 0.064,-0.516C0.086,-0.568 0.118,-0.608 0.16,-0.637C0.201,-0.665 0.25,-0.679 0.305,-0.679C0.36,-0.679 0.409,-0.665 0.45,-0.637C0.491,-0.608 0.523,-0.568 0.546,-0.516C0.568,-0.464 0.579,-0.403 0.579,-0.333C0.579,-0.263 0.568,-0.202 0.546,-0.15C0.523,-0.098 0.491,-0.058 0.45,-0.03C0.409,-0.002 0.36,0.012 0.305,0.012ZM0.305,-0.105C0.352,-0.105 0.388,-0.125 0.415,-0.165C0.442,-0.205 0.455,-0.261 0.455,-0.333C0.455,-0.405 0.442,-0.461 0.415,-0.502C0.388,-0.542 0.352,-0.562 0.305,-0.562C0.258,-0.562 0.222,-0.542 0.195,-0.502C0.167,-0.461 0.154,-0.405 0.154,-0.333C0.154,-0.262 0.167,-0.206 0.195,-0.166C0.222,-0.125 0.258,-0.105 0.305,-0.105Z" style="fill-rule:nonzero;"/>
    </g>
    <g transform="matrix(8.05,0,0,8.05,15.3831,17.167)">
        <path d="M0.314,0.012C0.257,0.012 0.208,-0.002 0.165,-0.03C0.122,-0.058 0.088,-0.098 0.065,-0.15C0.042,-0.202 0.03,-0.263 0.03,-0.333C0.03,-0.403 0.042,-0.464 0.065,-0.517C0.088,-0.569 0.122,-0.609 0.165,-0.637C0.208,-0.665 0.257,-0.679 0.314,-0.679C0.346,-0.679 0.376,-0.675 0.404,-0.666C0.431,-0.657 0.456,-0.645 0.477,-0.628L0.448,-0.517C0.411,-0.547 0.369,-0.562 0.321,-0.562C0.268,-0.562 0.227,-0.542 0.198,-0.502C0.169,-0.462 0.154,-0.406 0.154,-0.333C0.154,-0.261 0.169,-0.205 0.198,-0.165C0.227,-0.125 0.268,-0.105 0.321,-0.105C0.344,-0.105 0.366,-0.109 0.388,-0.117C0.409,-0.125 0.429,-0.136 0.448,-0.151L0.478,-0.039C0.434,-0.005 0.379,0.012 0.314,0.012Z" style="fill-rule:nonzero;"/>
    </g>
</svg>
