<?xml version="1.0" encoding="UTF-8" standalone="no"?>
<!DOCTYPE svg PUBLIC "-//W3C//DTD SVG 1.1//EN" "http://www.w3.org/Graphics/SVG/1.1/DTD/svg11.dtd">
<svg width="100%" height="100%" viewBox="0 0 24 24" version="1.1" xmlns="http://www.w3.org/2000/svg" xmlns:xlink="http://www.w3.org/1999/xlink" xml:space="preserve" xmlns:serif="http://www.serif.com/" style="fill-rule:evenodd;clip-rule:evenodd;stroke-linejoin:round;stroke-miterlimit:1.41421;">
    <g transform="matrix(0.99804,0,0,0.99804,0.0235993,0.0450763)">
        <g transform="matrix(1,0,0,1,21.7744,7.6724)">
            <path d="M0,-2.564C-1.393,-4.524 -3.244,-5.994 -5.215,-6.703C-5.471,-6.793 -5.761,-6.661 -5.854,-6.401C-5.947,-6.141 -5.812,-5.855 -5.553,-5.761C-3.773,-5.122 -2.091,-3.78 -0.814,-1.985C0.461,-0.188 1.173,1.842 1.191,3.734C1.194,4.008 1.417,4.229 1.691,4.229L1.696,4.229C1.973,4.226 2.194,4 2.191,3.724C2.171,1.63 1.393,-0.602 0,-2.564"/>
        </g>
        <g transform="matrix(1,0,0,1,15.875,10.4256)">
            <path d="M0,-6.16C1.252,-5.709 2.437,-4.763 3.337,-3.495C4.236,-2.229 4.739,-0.798 4.754,0.535C4.757,0.81 4.98,1.03 5.254,1.03L5.259,1.03C5.535,1.027 5.757,0.801 5.754,0.526C5.737,-1.01 5.169,-2.643 4.151,-4.074C3.135,-5.506 1.781,-6.581 0.34,-7.101C0.079,-7.19 -0.206,-7.059 -0.301,-6.801C-0.395,-6.541 -0.26,-6.254 0,-6.16"/>
        </g>
        <g transform="matrix(1,0,0,1,17.2197,8.2951)">
            <path d="M0,6.41C-2.462,4.988 -3.329,3.647 -3.247,3.385C-3.054,3.175 -1.465,3.255 1,4.677C3.466,6.1 4.33,7.439 4.247,7.702C4.055,7.911 2.469,7.834 0,6.41M-5.22,3.705C-5.771,3.705 -6.22,3.257 -6.22,2.705C-6.22,2.153 -5.771,1.705 -5.22,1.705C-4.668,1.705 -4.22,2.153 -4.22,2.705C-4.22,3.257 -4.668,3.705 -5.22,3.705M-10.439,6.41C-12.907,7.834 -14.496,7.914 -14.683,7.708C-14.77,7.439 -13.905,6.1 -11.439,4.677C-9.581,3.604 -8.22,3.295 -7.582,3.295C-7.373,3.295 -7.242,3.328 -7.196,3.379C-7.11,3.647 -7.978,4.988 -10.439,6.41M-6.22,-3.295C-6.22,-5.92 -5.477,-7.295 -5.22,-7.295C-4.963,-7.295 -4.22,-5.92 -4.22,-3.295C-4.22,-0.67 -4.963,0.705 -5.22,0.705C-5.477,0.705 -6.22,-0.67 -6.22,-3.295M1.5,3.811C-0.166,2.849 -2.102,2.139 -3.256,2.345C-3.357,1.791 -3.687,1.318 -4.144,1.024C-3.515,0.096 -3.22,-1.643 -3.22,-3.295C-3.22,-5.703 -3.846,-8.295 -5.22,-8.295C-6.594,-8.295 -7.22,-5.703 -7.22,-3.295C-7.22,-1.643 -6.925,0.096 -6.296,1.024C-6.753,1.318 -7.082,1.791 -7.184,2.345C-8.337,2.139 -10.273,2.849 -11.939,3.811C-14.16,5.093 -16.237,7.014 -15.55,8.205C-15.317,8.607 -14.854,8.778 -14.259,8.778C-13.09,8.778 -11.409,8.124 -9.939,7.275C-8.781,6.607 -7.769,5.833 -7.088,5.096C-6.8,4.784 -6.603,4.508 -6.463,4.259C-6.247,4.432 -5.996,4.562 -5.72,4.634L-5.72,13.705L-7.72,13.705C-7.996,13.705 -8.22,13.929 -8.22,14.205C-8.22,14.481 -7.996,14.705 -7.72,14.705L-2.72,14.705C-2.443,14.705 -2.22,14.481 -2.22,14.205C-2.22,13.929 -2.443,13.705 -2.72,13.705L-4.72,13.705L-4.72,4.634C-4.443,4.562 -4.192,4.432 -3.977,4.259C-3.837,4.508 -3.64,4.784 -3.352,5.096C-2.671,5.833 -1.658,6.607 -0.5,7.275C0.97,8.124 2.65,8.777 3.818,8.777C4.415,8.777 4.878,8.607 5.111,8.205C5.798,7.014 3.721,5.093 1.5,3.811"/>
        </g>
    </g>
</svg>
