<?xml version="1.0" standalone="no"?>
<!DOCTYPE svg PUBLIC "-//W3C//DTD SVG 1.1//EN" "http://www.w3.org/Graphics/SVG/1.1/DTD/svg11.dtd" >
<svg xmlns="http://www.w3.org/2000/svg">
<metadata>
This is a custom SVG webfont generated by Font Squirrel.
Copyright   : c Copyright Gerard Unger 2005 Exclusive design for Allianz International Produced by Novatype a division of Visualogik Technology  Design bv 2005  Unauthorised use strictly prohibited Allianz Sans and Allianz Serif are trademarks of Allianz International that may be registered in some jurisdictions ALL RIGHTS RESERVED
Designer    : Gerard Unger 2005
Foundry     : Custom produced for Allianz International by Novatype a division of Visualogik Technology  Design bv
Foundry URL : httpwwwvisualogikcom
</metadata>
<defs>
<font id="AllianzSansLight" horiz-adv-x="1019" >
<font-face units-per-em="2048" ascent="1577" descent="-471" />
<missing-glyph horiz-adv-x="409" />
<glyph unicode=" "  horiz-adv-x="409" />
<glyph unicode="&#x09;" horiz-adv-x="409" />
<glyph unicode="&#xa0;" horiz-adv-x="409" />
<glyph unicode="!" horiz-adv-x="534" d="M162 92q0 51 28.5 82t75.5 31t77 -31t30 -80q0 -53 -28 -85t-77 -32t-77.5 31t-28.5 84zM197 1409l139 31l-12 -1116h-113z" />
<glyph unicode="&#x22;" horiz-adv-x="577" d="M98 1440h142l-23 -443h-96zM338 1440h141l-22 -443h-97z" />
<glyph unicode="#" horiz-adv-x="1204" d="M0 408l23 108h237l78 412h-240l21 108h239l76 404h123l-78 -404h365l76 404h122l-77 -404h239l-20 -108h-240l-78 -412h240l-21 -108h-239l-76 -408h-121l76 408h-365l-75 -408h-121l76 408h-240zM381 516h364l78 412h-364z" />
<glyph unicode="$" d="M96 221q14 -14 41 -34.5t119 -55.5t193 -35h8v598l-64 39q-63 39 -101 66.5t-81 73t-63.5 103.5t-20.5 132q0 135 81 231.5t249 114.5v170l106 25v-191q176 -8 277 -82v-141q-12 10 -34 26.5t-93.5 47t-149.5 37.5v-545l76 -45q53 -31 87 -57.5t76 -71.5t63.5 -107.5 t21.5 -142.5q0 -162 -84 -261.5t-240 -121.5v-211h-106v201h-13q-98 0 -182 22.5t-119 44.5l-34 23zM260 1118q0 -100 48 -157.5t149 -116.5v502q-197 -29 -197 -228zM563 102q90 23 139.5 89.5t49.5 166.5q0 109 -40 173.5t-137 111.5l-12 6v-547z" />
<glyph unicode="%" horiz-adv-x="1185" d="M0 0l1051 1446h135l-1047 -1446h-139zM23 1130q0 152 87 243t234 91q139 0 225 -85t86 -228t-90 -239.5t-229 -96.5q-137 0 -225 87t-88 228zM154 1139q0 -96 45 -157.5t135 -61.5q92 0 141 63.5t49 159.5t-47 158.5t-139 62.5t-138 -63.5t-46 -161.5zM530 297 q0 150 87.5 241t234.5 91q137 0 225 -86t88 -228q0 -143 -90 -238t-229 -95q-137 0 -226.5 87t-89.5 228zM664 303q0 -96 45 -156.5t135 -60.5q92 0 140 62.5t48 158.5t-46 158.5t-138 62.5t-138 -63.5t-46 -161.5z" />
<glyph unicode="&#x26;" horiz-adv-x="1429" d="M168 395q0 88 27.5 161t67.5 114t80 70.5t67 39.5l28 11l-16 18q-88 98 -131 176t-43 172q0 31 4 60.5t22.5 76.5t51 81t97 59.5t152.5 25.5q104 0 176 -31.5t104 -85t43 -97.5t11 -91q0 -233 -209 -362l-69 -35l422 -486q8 8 20 24.5t31.5 85.5t19.5 157l-4 96h129v-12 q0 -127 -25.5 -223.5t-47 -130t-56.5 -74.5l170 -195h-162l-98 111q-4 -6 -14 -14.5t-45 -30t-77 -39t-113.5 -30.5t-151.5 -13q-55 0 -107.5 7t-120 32.5t-115.5 67.5t-83 121t-35 183zM299 408q0 -322 358 -322q94 0 171 24.5t106 49.5l31 26l-465 535q-8 -2 -21.5 -8 t-48.5 -32t-61.5 -57.5t-48 -88.5t-21.5 -127zM375 1165q0 -55 29.5 -116.5t55 -94t79.5 -92.5l32 -37q8 2 22.5 9.5t50.5 34t62.5 60.5t49 94t22.5 132q0 68 -19.5 114t-55 65.5t-66.5 25.5t-70 6q-59 0 -99 -19.5t-59.5 -52t-26.5 -63.5t-7 -66z" />
<glyph unicode="'" horiz-adv-x="337" d="M98 1440h142l-23 -443h-96z" />
<glyph unicode="(" horiz-adv-x="718" d="M123 565q0 545 366 934q51 51 82 78h148q-233 -215 -345 -460t-112 -558q0 -324 112.5 -560.5t340.5 -469.5h-144q-39 31 -75 70q-373 405 -373 966z" />
<glyph unicode=")" horiz-adv-x="718" d="M0 -471q233 215 345 459.5t112 558.5q0 324 -113 560t-340 470h143q39 -31 76 -70q373 -406 373 -966q0 -545 -367 -934q-51 -51 -82 -78h-147z" />
<glyph unicode="*" horiz-adv-x="761" d="M51 1024l271 111l-271 114l74 123l223 -178l-39 295h150l-41 -295l225 178l72 -123l-269 -114l269 -111l-72 -125l-225 180l41 -295h-150l39 295l-223 -180z" />
<glyph unicode="+" horiz-adv-x="1310" d="M47 655v121h543v570h131v-570h543v-121h-543v-571h-131v571h-543z" />
<glyph unicode="," horiz-adv-x="378" d="M41 -252q82 205 82 379q0 41 -2 61h158v-26q0 -195 -134 -449z" />
<glyph unicode="-" horiz-adv-x="665" d="M84 479v129h498v-129h-498z" />
<glyph unicode="." horiz-adv-x="419" d="M104 92q0 53 31 87t82 34q49 0 82 -33t33 -86q0 -55 -31 -90t-82 -35q-53 0 -84 33t-31 90z" />
<glyph unicode="/" horiz-adv-x="716" d="M0 -362l518 1939h129l-520 -1939h-127z" />
<glyph unicode="0" d="M86 702q0 758 434 758q209 0 311.5 -176t102.5 -547q0 -758 -434 -757q-209 0 -311.5 175.5t-102.5 546.5zM225 711q0 -328 67.5 -475.5t217 -147.5t217.5 153.5t68 487.5q0 328 -68 475.5t-217.5 147.5t-217 -153.5t-67.5 -487.5z" />
<glyph unicode="1" d="M199 1217v106q86 14 185 47t155 74h77v-1444h-135v1266z" />
<glyph unicode="2" d="M82 0v123q225 217 426 452q109 131 161 235.5t52 244.5q0 291 -299 291q-94 0 -173 -28t-112 -54l-33 -27v143q12 8 37 21.5t110 35t181 21.5q195 0 311.5 -95t116.5 -298q0 -156 -63.5 -284t-212.5 -300q-74 -84 -161 -174l-138 -139l-52 -49h625v-119h-776z" />
<glyph unicode="3" d="M66 217q12 -14 35.5 -33.5t110.5 -53.5q88 -34 194 -34q160 0 242.5 81t82.5 233q0 285 -366 284h-54v105h43q147 0 236.5 77.5t89.5 217.5q0 254 -254 254q-182 0 -295 -103l-8 -6v143q12 8 34.5 21.5t102.5 35t172 21.5q186 0 286.5 -89t100.5 -259q0 -84 -25.5 -151.5 t-63.5 -103.5t-75 -60.5t-61 -32.5l-27 -8q12 0 33 -2t73 -21.5t92 -53.5t72.5 -106.5t32.5 -171.5q0 -176 -116.5 -296.5t-347.5 -120.5q-94 0 -176.5 20.5t-116.5 40.5l-35 23z" />
<glyph unicode="4" d="M41 369v129l633 952h133v-963h166v-118h-166v-369h-135v369h-631zM174 487h498v760q-20 -41 -80 -129z" />
<glyph unicode="5" d="M109 217q4 -4 10 -12t32.5 -29.5t59.5 -37t88 -29t119 -13.5q176 0 259 100.5t83 262.5q0 152 -75 240.5t-239 88.5q-182 -2 -284 -71v723h694v-117h-573v-455q57 31 194 31q213 0 317.5 -123t104.5 -311q0 -209 -115.5 -345t-369.5 -136q-84 0 -158 20.5t-104 40.5 l-31 23z" />
<glyph unicode="6" d="M104 670q0 406 117 598t393 192q86 0 159 -21.5t104 -41.5l28 -21v-145q-10 12 -29.5 31.5t-97.5 52.5t-176 33q-90 0 -156.5 -35t-102.5 -85t-58.5 -127t-29.5 -141.5t-9 -148.5q12 12 35.5 28.5t101.5 45t162 28.5q74 0 138.5 -21.5t123.5 -67.5t94 -133t35 -206 q0 -250 -113.5 -375.5t-306.5 -125.5q-125 0 -208 50t-126 148.5t-60.5 213t-17.5 274.5zM244 672q0 -137 8 -225.5t33.5 -178.5t83 -134t147.5 -44q281 0 281 383q0 328 -287 328q-147 -4 -266 -99v-30z" />
<glyph unicode="7" d="M113 1323v117h780v-86q0 -195 -109 -402l-157 -301q-78 -147 -108 -270t-30 -295v-86h-135v63q0 195 34 324t144 340l109 207q123 231 123 375v14h-651z" />
<glyph unicode="8" d="M90 336q0 92 32 169t78 120t91 72.5t78 39.5l30 11l-55 32q-213 127 -213 334q0 162 100.5 254t286.5 92q180 0 275.5 -89t95.5 -243q0 -76 -27.5 -142t-67.5 -107t-79 -71t-68 -42l-26 -12l79 -47q109 -66 169.5 -144t60.5 -211q0 -168 -111.5 -271.5t-308.5 -103.5 q-190 0 -305 88.5t-115 270.5zM227 348q0 -133 78 -198.5t213 -65.5q121 0 199 67.5t78 194.5q0 78 -33 137.5t-69 86t-105 67.5l-94 55q-10 -2 -29 -8t-65 -32.5t-80.5 -60.5t-63.5 -99.5t-29 -143.5zM268 1134.5q0 -94.5 37 -155.5t141 -123l86 -51q8 4 23.5 10t52.5 32.5 t65.5 59.5t52.5 91.5t24 125.5q0 229 -236 230q-127 0 -186.5 -62.5t-59.5 -157z" />
<glyph unicode="9" d="M84 958q0 250 113.5 376t306.5 126q125 0 208 -50t126 -148.5t60 -213t17 -274.5q0 -406 -116.5 -598t-392.5 -192q-82 0 -154 20.5t-100 40.5l-31 23l-12 149q10 -14 29.5 -33.5t99 -53.5t180.5 -34q90 0 156.5 35t102.5 85t58.5 127t29.5 141.5t9 148.5 q-12 -12 -35.5 -28.5t-101.5 -45.5t-162 -29q-74 0 -138.5 21.5t-123.5 68t-94 133t-35 205.5zM223 971q0 -328 287 -328q147 4 266 98v31q0 137 -8 225t-33.5 178.5t-83 134.5t-147.5 44q-281 0 -281 -383z" />
<glyph unicode=":" horiz-adv-x="419" d="M104 92q0 53 31 87t82 34q49 0 82 -33t33 -86q0 -55 -31 -90t-82 -35q-53 0 -84 33t-31 90zM104 928q0 53 31 87t82 34q49 0 82 -33t33 -86q0 -55 -31 -90t-82 -35q-53 0 -84 33t-31 90z" />
<glyph unicode=";" horiz-adv-x="409" d="M66 -252q82 205 81 379q0 41 -2 61h158v-26q0 -195 -133 -449zM104 928q0 53 31 87t82 34q49 0 82 -33t33 -86q0 -55 -31 -90t-82 -35q-53 0 -84 33t-31 90z" />
<glyph unicode="&#x3c;" horiz-adv-x="1456" d="M47 680v76l1362 598v-133l-1165 -500l1165 -498v-139z" />
<glyph unicode="=" horiz-adv-x="1310" d="M47 395v123h1217v-123h-1217zM47 907v123h1217v-123h-1217z" />
<glyph unicode="&#x3e;" horiz-adv-x="1456" d="M49 84v139l1165 498l-1165 500v133l1362 -598v-76z" />
<glyph unicode="?" horiz-adv-x="862" d="M61 1239v143q121 78 312 78q176 0 291.5 -91t115.5 -277q0 -201 -162 -349l-141 -131q-53 -51 -69.5 -91t-16.5 -107v-90h-121v110q0 141 103 238l155 145q119 113 119 268q0 113 -72.5 188t-220.5 75q-74 0 -147.5 -27t-108.5 -55zM227 92q0 51 29 82t76 31t76.5 -31 t29.5 -80q0 -53 -27.5 -85t-76.5 -32t-78 31t-29 84z" />
<glyph unicode="@" horiz-adv-x="1943" d="M104 457q0 434 259.5 695t691.5 261q156 0 292 -46t241.5 -135t167 -232.5t61.5 -323.5q0 -203 -77 -361.5t-235 -242.5q-139 -74 -340 -74q-51 0 -90 2l45 248q-53 -106 -129 -176q-94 -86 -207 -86q-254 0 -254 348q0 135 28 259t83 232.5t154.5 174t228.5 65.5 q63 0 117.5 -18.5t77.5 -36.5l22 -19l121 70l-154 -963h13q131 0 225 56q240 141 240 505q0 307 -168 474t-490 167q-96 0 -194.5 -21.5t-208 -80.5t-192.5 -149.5t-137 -243t-54 -346.5q0 -358 198.5 -560t585.5 -202q125 0 238.5 26.5t165.5 53.5l51 26l-11 -131 q-16 -10 -47.5 -24.5t-148.5 -39t-254 -24.5q-444 0 -680 233.5t-236 639.5zM662 338q0 -78 13 -130t38.5 -74.5t47 -30t48.5 -7.5q94 0 197 125q125 154 145 281l59 393q-53 66 -180 66q-92 0 -162.5 -50.5t-108.5 -122t-61.5 -164t-29.5 -160t-6 -126.5z" />
<glyph unicode="A" horiz-adv-x="1130" d="M-2 0l520 1446h109l503 -1446h-137l-180 520h-506l-184 -520h-125zM344 623h434l-153 444l-60 207q-23 -86 -63 -203z" />
<glyph unicode="B" horiz-adv-x="1036" d="M154 0v1440h249q256 0 351 -62q139 -88 139 -280q0 -86 -25.5 -152.5t-61.5 -100.5t-72 -55.5t-62 -27.5l-25 -4q12 0 32.5 -3t73 -22.5t92.5 -53.5t72.5 -107.5t32.5 -172.5q0 -119 -51 -211t-147 -137q-109 -51 -349 -51h-249zM289 106h176q76 0 131 10.5t107.5 40 t80 92t27.5 157.5q0 80 -24.5 136t-58.5 85.5t-90 45t-95 18.5t-99 3h-155v-588zM289 801h131q49 0 84 3t86 18.5t83 43t56.5 81.5t24.5 130q0 156 -81 206t-235 50h-149v-532z" />
<glyph unicode="C" horiz-adv-x="1142" d="M78 696q0 291 100 467q168 297 553 297q106 0 197.5 -21.5t128.5 -41.5l39 -21v-143q-12 12 -38 31.5t-120 51.5t-207 32q-244 0 -379 -163t-135 -460q0 -311 130 -470t374 -159q113 0 208 32t132 65l39 30l-15 -145q-12 -10 -37.5 -25.5t-125 -42t-220.5 -26.5 q-162 0 -284.5 55t-195 154.5t-108.5 225t-36 277.5z" />
<glyph unicode="D" horiz-adv-x="1277" d="M154 0v1440h295q193 0 295 -17.5t188 -70.5q268 -164 268 -611q0 -506 -319 -667q-150 -74 -461 -74h-266zM289 109h178q227 0 348 61q119 63 182.5 207.5t63.5 345.5q0 205 -62.5 348t-179.5 205q-104 55 -327 55h-203v-1222z" />
<glyph unicode="E" horiz-adv-x="919" d="M154 0v1440h690v-109h-555v-532h467v-109h-467v-581h590l-7 -109h-718z" />
<glyph unicode="F" horiz-adv-x="864" d="M154 0v1440h690v-109h-555v-532h467v-109h-467v-690h-135z" />
<glyph unicode="G" horiz-adv-x="1267" d="M78 690q0 285 104 467q172 303 576 303q240 0 372 -82l5 -2v-143q-12 12 -38 31.5t-124.5 51.5t-218.5 32q-270 0 -403.5 -174.5t-133.5 -448.5q0 -631 533 -631q154 0 249 45v502h136v-545q-14 -12 -42 -30.5t-138.5 -50t-247.5 -31.5q-293 0 -461 183t-168 523z" />
<glyph unicode="H" horiz-adv-x="1273" d="M154 0v1440h135v-641h696v641h135v-1440h-135v688h-696v-688h-135z" />
<glyph unicode="I" horiz-adv-x="442" d="M154 0v1440h135v-1440h-135z" />
<glyph unicode="J" horiz-adv-x="489" d="M-41 119q35 -27 96 -27q92 0 121 48t29 136v1164h135v-1141q0 -47 -2 -79t-16.5 -81t-39 -78.5t-74.5 -52t-122 -22.5l-119 20z" />
<glyph unicode="K" horiz-adv-x="1050" d="M154 0v1440h135v-664l598 664h160l-611 -668l613 -772h-175l-585 745v-745h-135z" />
<glyph unicode="L" horiz-adv-x="870" d="M154 0v1440h135v-1331h551l-6 -109h-680z" />
<glyph unicode="M" horiz-adv-x="1576" d="M154 0v1440h196l400 -1102q16 -41 25 -76t11 -49l2 -12q4 41 41 141l402 1098h192v-1440h-131v1343q-16 -115 -55 -219l-412 -1124h-86l-407 1124q-16 47 -30.5 101.5t-18.5 85.5l-7 32v-1343h-122z" />
<glyph unicode="N" horiz-adv-x="1269" d="M154 0v1440h118l619 -1002q37 -59 62 -107l34 -65l6 -18v1192h123v-1440h-102l-643 1040q-39 61 -62.5 105.5t-27.5 58.5l-5 13v-1217h-122z" />
<glyph unicode="O" horiz-adv-x="1298" d="M78 686q0 369 150.5 571.5t416.5 202.5q270 0 423 -186.5t153 -521.5q0 -369 -150.5 -572t-417.5 -203q-270 0 -422.5 186.5t-152.5 522.5zM217 713q0 -309 109.5 -468t324.5 -159q207 0 318.5 162t111.5 477q0 309 -109.5 468t-324.5 159q-207 0 -318.5 -162 t-111.5 -477z" />
<glyph unicode="P" horiz-adv-x="978" d="M154 0v1440h262q240 0 348 -68q164 -102 164 -344q0 -123 -40 -211t-92.5 -132t-132 -67.5t-127 -27.5t-110.5 -4h-137v-586h-135zM289 692h133q82 0 136 9.5t112.5 40t88 100t29.5 178.5q0 88 -23.5 149.5t-56 93t-89 48t-95.5 19.5t-102 3h-133v-641z" />
<glyph unicode="Q" horiz-adv-x="1298" d="M78 686q0 369 150.5 571.5t416.5 202.5q270 0 423 -186.5t153 -521.5q0 -354 -140.5 -555t-388.5 -217q78 -221 316 -222q63 0 122.5 17.5t86.5 36.5l28 16v-115q-88 -59 -246 -59q-346 0 -438 330q-229 31 -356 213t-127 489zM217 713q0 -309 109.5 -468t324.5 -159 q207 0 318.5 162t111.5 477q0 309 -109.5 468t-324.5 159q-207 0 -318.5 -162t-111.5 -477z" />
<glyph unicode="R" horiz-adv-x="1021" d="M154 0v1440h215q254 0 356 -54q162 -88 162 -305q0 -201 -120 -301t-308 -100l536 -680h-170l-536 694v-694h-135zM289 776h139q143 0 231.5 61.5t88.5 229.5q0 70 -18.5 120t-46.5 77.5t-73 44t-88 20.5t-104 4h-129v-557z" />
<glyph unicode="S" horiz-adv-x="937" d="M66 221q14 -14 40.5 -34.5t118.5 -55.5t193 -35q141 0 222 67.5t81 194.5q0 102 -38 154.5t-138 116.5l-182 112q-70 43 -104 66.5t-79 70t-64.5 101.5t-19.5 129q0 154 99.5 253t312.5 99q195 -2 301 -84v-141q-12 12 -36.5 30.5t-106.5 50.5t-170 32q-266 0 -267 -230 q0 -53 13.5 -93t47.5 -72.5t59.5 -50t78.5 -50.5l180 -109l70 -43q23 -14 63.5 -49t61 -68.5t37 -88t16.5 -117.5q0 -188 -115.5 -290.5t-326.5 -102.5q-98 0 -182.5 22.5t-118.5 44.5l-35 23z" />
<glyph unicode="T" horiz-adv-x="978" d="M10 1331v109h969l-6 -109h-416v-1331h-135v1331h-412z" />
<glyph unicode="U" horiz-adv-x="1265" d="M143 563v877h136v-936q0 -72 4 -119t23.5 -108.5t55 -97.5t104.5 -62.5t167 -26.5q59 0 107 8.5t83 21.5t62.5 36.5t46 45t32 55.5t19.5 59.5t9 66.5t4 66.5t1 68.5v922h125v-830q0 -201 -14 -299t-74 -176q-115 -154 -393 -153q-283 0 -399 139q-59 70 -79 172t-20 270z " />
<glyph unicode="V" horiz-adv-x="1134" d="M8 1440h142l366 -1063l59 -207q23 86 64 203l377 1067h129l-520 -1448h-113z" />
<glyph unicode="W" horiz-adv-x="1828" d="M20 1440h144l289 -1043q29 -104 49 -227q18 106 55 231l303 1039h144l286 -1047q41 -141 53 -223q14 90 54 229l291 1041h131l-426 -1448h-121l-350 1263l-367 -1263h-121z" />
<glyph unicode="X" horiz-adv-x="1120" d="M10 0l473 739l-440 701h156l376 -604l379 604h144l-455 -709l457 -731h-152l-397 631l-395 -631h-146z" />
<glyph unicode="Y" horiz-adv-x="1089" d="M4 1440h156l393 -754l408 754h143l-488 -871v-569h-135v563z" />
<glyph unicode="Z" horiz-adv-x="1107" d="M72 0v86l794 1245h-737v109h905v-84l-794 -1247h784l-6 -109h-946z" />
<glyph unicode="[" horiz-adv-x="651" d="M164 -471v2048h323v-102h-196v-1844h196v-102h-323z" />
<glyph unicode="\" horiz-adv-x="716" d="M68 1577h127l518 -1939h-125z" />
<glyph unicode="]" horiz-adv-x="651" d="M164 -369h196v1844h-196v102h323v-2048h-323v102z" />
<glyph unicode="^" horiz-adv-x="1140" d="M82 479l450 1073h72l455 -1073h-139l-353 867l-348 -867h-137z" />
<glyph unicode="_" horiz-adv-x="1024" d="M0 -162h1024v-80h-1024v80z" />
<glyph unicode="`" horiz-adv-x="1024" d="M287 1413l71 115l365 -254l-51 -80z" />
<glyph unicode="a" horiz-adv-x="925" d="M74 289q0 51 11 94t24.5 73.5t44.5 56.5l50 41q19 15 63 29l64 19q19 6 68.5 11t61.5 6.5t61 3.5l131 8v108q0 37 -2 58.5t-13 57.5t-31.5 55.5t-63.5 35t-105 15.5q-82 0 -147.5 -28t-89.5 -54l-27 -27v129q8 8 27.5 22.5t94.5 37t167 22.5q90 0 153.5 -22.5t95 -52.5 t48 -81t19.5 -85t3 -89v-725l-125 -16v139q-2 -6 -8 -15.5t-29.5 -35t-53 -45t-82 -34.5t-113.5 -15q-147 0 -222 87t-75 216zM207 293q0 -80 48 -138.5t163 -58.5q98 0 166.5 62.5t68.5 154.5v224l-143 -13q-152 -12 -227.5 -58t-75.5 -173z" />
<glyph unicode="b" horiz-adv-x="1042" d="M154 -16v1566l129 27v-649l10 15q6 9 30.5 32.5t53.5 42t77 33t103 14.5q203 0 303.5 -147.5t100.5 -368.5q0 -299 -125 -432t-320 -133q-158 2 -248 84zM283 164q8 -8 24.5 -21.5t74.5 -35t126 -21.5q319 0 319 442q0 231 -76.5 328.5t-220.5 97.5q-115 0 -181 -60 t-66 -159v-571z" />
<glyph unicode="c" horiz-adv-x="878" d="M82 514q0 258 114.5 404.5t333.5 146.5q205 -2 289 -76v-127l-28 28q-18 17 -90 45t-156 28q-43 0 -79 -6.5t-86 -31t-83 -68.5t-57.5 -130t-24.5 -203q0 -438 344 -438q80 0 146.5 27.5t93.5 54.5l26 29l-12 -136q-10 -8 -29.5 -21t-92.5 -34.5t-161 -21.5 q-63 0 -120.5 11t-120 46t-106.5 91t-72.5 154.5t-28.5 227.5z" />
<glyph unicode="d" horiz-adv-x="1042" d="M82 500q0 299 125 432t319 133q72 0 130.5 -20.5t80.5 -40.5l23 -19v565l129 27v-1569l-125 -16v135l-10 -15q-6 -9 -31 -34t-53.5 -44.5t-78.5 -34.5t-106 -15q-203 0 -303 147.5t-100 368.5zM215 520q0 -231 77 -328.5t220 -97.5q115 0 181.5 60.5t66.5 158.5v572 q-8 8 -24.5 21.5t-75 35t-125.5 21.5q-320 -1 -320 -443z" />
<glyph unicode="e" horiz-adv-x="964" d="M82 514q0 250 106.5 400.5t319.5 150.5q383 0 383 -498v-32h-676q0 -221 73.5 -335t266.5 -114q84 0 154.5 27.5t101.5 54.5l29 29l-13 -136q-10 -8 -29.5 -21t-98 -34.5t-177.5 -21.5q-440 0 -440 530zM219 633h539q0 332 -258 332q-70 0 -123 -27t-82 -64.5t-47.5 -87 t-23.5 -86t-5 -67.5z" />
<glyph unicode="f" horiz-adv-x="589" d="M96 946v103h111v215q0 152 43 219q59 94 205 94q43 0 77.5 -7t49.5 -14l14 -8l-12 -108q-31 35 -121 35q-72 0 -105 -52q-23 -35 -22 -139v-235h215v-103h-215v-946h-129v946h-111z" />
<glyph unicode="g" horiz-adv-x="1042" d="M82 502q0 297 125 430t319 133q72 0 131.5 -20.5t83.5 -40.5l23 -19v64h125v-1082q0 -195 -60 -280q-109 -158 -372 -158q-96 0 -172 20.5t-105 40.5l-28 19l-11 133q12 -12 35 -30.5t104.5 -49.5t178.5 -31q180 0 254 101q47 66 47 205v190l-10 -15q-6 -9 -31 -33 t-53.5 -42.5t-76.5 -32.5t-104 -14q-141 0 -235 78.5t-131 189.5t-37 244zM215 522q0 -238 81 -330t216 -92q115 0 181.5 60.5t66.5 158.5v566q-8 8 -24.5 21.5t-75 35t-125.5 21.5q-320 -1 -320 -441z" />
<glyph unicode="h" horiz-adv-x="1054" d="M154 0v1550l129 27v-657l10 15q6 9 30.5 34.5t56.5 45t86 35t118 15.5q152 0 239 -82q100 -92 101 -313v-670h-129v645q0 53 -2 85t-15.5 80t-39 75.5t-75 48t-120.5 20.5q-98 0 -179 -56t-81 -169v-729h-129z" />
<glyph unicode="i" horiz-adv-x="436" d="M135 1421q0 39 22.5 62.5t61.5 23.5q37 0 60.5 -22.5t23.5 -59.5q0 -39 -23.5 -62.5t-62.5 -23.5q-35 0 -58.5 22.5t-23.5 59.5zM154 0v1049h129v-1049h-129z" />
<glyph unicode="j" horiz-adv-x="450" d="M-78 -342q35 -27 96 -27q92 0 121 48.5t29 136.5v1233h129v-1209q0 -47 -2 -77.5t-15.5 -80t-39 -79t-75.5 -52t-122 -22.5q-33 0 -60.5 5t-39.5 11l-13 4zM150 1421q0 39 22.5 62.5t60.5 23.5q37 0 60.5 -22.5t23.5 -59.5q0 -39 -23.5 -62.5t-62.5 -23.5q-35 0 -58 22.5 t-23 59.5z" />
<glyph unicode="k" horiz-adv-x="856" d="M154 0v1550l129 27v-989l413 461h156l-428 -467l432 -582h-160l-413 559v-559h-129z" />
<glyph unicode="l" horiz-adv-x="436" d="M154 0v1550l129 27v-1577h-129z" />
<glyph unicode="m" horiz-adv-x="1691" d="M154 0v1049h125v-131q4 6 10 16t30.5 34.5t56.5 44t86 36t118 16.5q197 0 278 -133l12 -25l12 18q7 11 36.5 37.5t64.5 47t94.5 38t126.5 17.5q156 0 244 -82q100 -92 100 -313v-670h-129v645q0 53 -2 85t-15 80t-38 75.5t-74 48t-119 20.5q-100 0 -178 -57t-78 -168 v-729h-129v645q0 55 -2 88t-15 80t-37.5 73.5t-74 47t-118.5 20.5q-100 0 -178 -57t-78 -168v-729h-129z" />
<glyph unicode="n" horiz-adv-x="1067" d="M154 0v1049h125v-131q4 6 10 16t31.5 34.5t57.5 44t87 36t119 16.5q152 0 239 -82q100 -92 101 -313v-670h-129v645q0 53 -2 85t-15.5 80t-39 75.5t-75 48t-120.5 20.5q-98 0 -179 -56t-81 -169v-729h-129z" />
<glyph unicode="o" horiz-adv-x="1017" d="M82 506q0 254 108.5 406.5t327.5 152.5q195 0 306.5 -139.5t111.5 -390.5q0 -254 -108.5 -407t-327.5 -153q-195 0 -306.5 139.5t-111.5 391.5zM215 518q0 -190 68.5 -314t226.5 -124q147 0 220 115.5t73 326.5q0 190 -68.5 314.5t-226.5 124.5q-147 0 -220 -116 t-73 -327z" />
<glyph unicode="p" horiz-adv-x="1042" d="M154 -471v1520h125v-127l10 15q6 9 30.5 33.5t53 44t79 35t105.5 15.5q203 0 303.5 -147.5t100.5 -368.5q0 -299 -125 -432t-320 -133q-150 2 -233 75v-530h-129zM283 164q8 -8 24.5 -21.5t74.5 -35t126 -21.5q319 0 319 442q0 231 -76.5 328.5t-220.5 97.5 q-115 0 -181 -60t-66 -159v-571z" />
<glyph unicode="q" horiz-adv-x="1042" d="M82 500q0 299 125 432t319 133q72 0 131.5 -20.5t83.5 -40.5l23 -19v64h125v-1520h-125v598q-90 -143 -279 -143q-203 0 -303 147.5t-100 368.5zM215 520q0 -231 77 -328.5t220 -97.5q115 0 181.5 60.5t66.5 158.5v572q-8 8 -24.5 21.5t-75 35t-125.5 21.5 q-320 -1 -320 -443z" />
<glyph unicode="r" horiz-adv-x="655" d="M154 0v1049h125v-148q2 6 7 17.5t25.5 40t45 50t67.5 39t92 17.5q39 0 73 -9t48 -20l14 -8l-12 -121q-43 45 -150 45q-98 0 -152 -77.5t-54 -182.5v-692h-129z" />
<glyph unicode="s" horiz-adv-x="770" d="M70 203q10 -12 32.5 -31.5t99.5 -52.5t165 -33q96 0 153.5 41t57.5 125q0 70 -29 106.5t-121 87.5l-119 66q-47 27 -72.5 44t-64.5 52t-57.5 82t-18.5 105q0 82 31 139t83 83.5t100 37t102 10.5q72 0 133 -18.5t86 -38.5l26 -19v-127q-10 10 -29.5 27.5t-85 45.5 t-134.5 28q-63 0 -105.5 -17.5t-59 -46.5t-21.5 -49.5t-5 -40.5q0 -53 22.5 -89t48 -52.5t89.5 -51.5l117 -61q100 -51 152 -112.5t52 -168.5q0 -156 -98 -223t-242 -67q-84 0 -153.5 21.5t-98.5 43.5l-26 21z" />
<glyph unicode="t" horiz-adv-x="608" d="M72 946v103h110v188l129 37v-225h256v-103h-256v-682q0 -86 23 -123q33 -51 104 -51q41 0 74 10.5t45 22.5l14 10l-8 -117q-47 -29 -137 -28q-143 0 -203 90q-41 59 -41 227v641h-110z" />
<glyph unicode="u" horiz-adv-x="1067" d="M143 379v670h129v-650q0 -55 2 -86.5t15.5 -80t39 -74t75 -45t120.5 -19.5q98 0 179 56.5t81 168.5v730h129v-1041l-125 -16v139q-4 -6 -10 -16.5t-31.5 -35t-57.5 -44t-87 -35.5t-119 -16q-154 0 -237 77q-103 95 -103 318z" />
<glyph unicode="v" horiz-adv-x="858" d="M-4 1049h137l236 -676l59 -199q23 80 64 197l241 678h125l-389 -1057h-94z" />
<glyph unicode="w" horiz-adv-x="1423" d="M10 1049h142l182 -654q35 -121 55 -227q20 98 60 225l208 656h134l194 -654q45 -154 55 -227q25 117 58 227l194 654h125l-336 -1057h-100l-266 899l-283 -899h-100z" />
<glyph unicode="x" horiz-adv-x="890" d="M20 0l359 539l-330 510h150l262 -408l250 408h139l-330 -498l354 -551h-147l-291 449l-274 -449h-142z" />
<glyph unicode="y" horiz-adv-x="858" d="M-27 -340q31 -29 123 -29q68 0 113 45t80 140l80 217l-373 1016h137l254 -719q18 -51 29.5 -92t13.5 -56l2 -14q14 66 47 160l254 721h125l-432 -1188q-25 -68 -39 -102.5t-43 -86t-59.5 -78t-79.5 -46t-111 -19.5q-33 0 -60.5 5t-39.5 11l-12 4z" />
<glyph unicode="z" horiz-adv-x="876" d="M59 0v80l580 868h-537v101h695v-80l-582 -869h580l-7 -100h-729z" />
<glyph unicode="{" horiz-adv-x="780" d="M102 518v94q195 0 195 277v405q0 274 246 275q68 0 104 -15l-8 -110q-33 16 -76 16q-82 0 -110.5 -54t-28.5 -155v-362q0 -57 -4 -96t-19.5 -87.5t-52.5 -84t-92 -56.5q57 -12 94 -47t51.5 -90t18.5 -95t4 -104v-372q0 -100 29.5 -154.5t111.5 -54.5q35 0 78 16l-8 -110 q-37 -14 -92 -15q-246 0 -246 275v422q0 282 -195 282z" />
<glyph unicode="|" horiz-adv-x="503" d="M186 -362v1939h129v-1939h-129z" />
<glyph unicode="}" horiz-adv-x="780" d="M133 1554q35 14 105 15q246 0 245 -275v-405q0 -276 195 -277v-94q-195 0 -195 -282v-422q0 -274 -245 -275q-57 0 -93 15l-8 110q43 -16 78 -16q82 0 111.5 54t29.5 155v372q0 63 4.5 103.5t18.5 95.5t51 90t94 47q-55 20 -92 56t-52 84.5t-19.5 87t-4.5 96.5v362 q0 100 -28.5 154.5t-110.5 54.5q-43 0 -76 -16z" />
<glyph unicode="~" horiz-adv-x="1429" d="M37 512q29 143 82 240q82 147 256 147q96 0 287 -74l161 -61q158 -59 234 -59q102 0 168 71q27 31 48 72t30 67l8 27l82 -27q-29 -123 -82 -219q-82 -147 -256 -147q-96 0 -287 74l-160 61q-152 59 -239 59q-98 0 -160 -73q-27 -33 -48.5 -79t-29.5 -77l-8 -31z" />
<glyph d="M-6 498l20 102h146q-2 31 -2 98q0 70 2 105h-142l21 102h131q18 145 68 252q68 145 187.5 224t272.5 79q88 0 161 -21.5t102 -41.5l28 -21v-143q-10 12 -31.5 31.5t-96.5 51.5t-163 32q-223 0 -329 -215q-45 -94 -64 -228h533l-21 -102h-520q-2 -27 -2 -88q0 -49 4 -115 h479l-20 -102h-453q10 -78 33.5 -144.5t65.5 -127t116 -95.5t170 -35q176 0 293 99l6 6l-12 -146q-98 -72 -295 -71q-92 0 -169 23.5t-127 58t-90 88t-61.5 97.5t-38 100.5t-20.5 84t-8 62.5h-174z" />
<glyph unicode="&#xa1;" horiz-adv-x="534" d="M162 1335q0 53 27.5 85t76.5 32t78 -30.5t29 -84.5q0 -51 -29 -81.5t-76 -30.5t-76.5 30.5t-29.5 79.5zM199 -10l12 1116h113l14 -1086z" />
<glyph unicode="&#xa2;" d="M143 711q0 238 97.5 381t285.5 165v179l107 24v-200q176 -8 248 -74v-127q-8 10 -25.5 25.5t-82 42t-140.5 30.5v-874q76 2 139.5 29.5t87.5 54.5l27 26l-13 -135q-74 -68 -241 -78v-196h-107v198q-59 6 -109 23.5t-102.5 55.5t-89.5 95.5t-59.5 147.5t-22.5 207z M276 721q0 -383 250 -434v868q-250 -45 -250 -434z" />
<glyph unicode="&#xa3;" d="M14 80q66 35 103 82q92 115 141 547h-170v102h178q33 295 66 393q86 254 370 256q84 0 153 -21.5t95 -41.5l27 -21v-143q-10 12 -28.5 31.5t-90.5 51.5t-156 32q-166 0 -225 -131q-41 -90 -76 -406h381v-102h-391q-45 -391 -117 -488q-49 -70 -88 -104q20 10 78 20t98 10 q82 0 150 -14l150 -33q68 -12 118 -12q117 0 195 82l-8 -147q-61 -49 -191 -50q-98 0 -211 25l-155 33q-66 12 -144 12q-125 0 -203 -59z" />
<glyph unicode="&#xa4;" horiz-adv-x="1243" d="M139 338l140 133q-55 76 -76 132t-21 136q0 74 20.5 132.5t76.5 136.5l-140 133l72 67l137 -131q78 53 135.5 72.5t137 19.5t138 -20.5t136.5 -73.5l135 133l72 -67l-137 -133q55 -76 75.5 -134.5t20.5 -134.5q0 -80 -20.5 -136t-75.5 -132l137 -133l-72 -70l-135 129 q-76 -51 -135.5 -70.5t-139 -19.5t-138 19.5t-134.5 72.5l-137 -131zM311 739q0 -135 90.5 -225t221.5 -90q127 0 218 91t91 224q0 137 -90 225.5t-219 88.5q-131 0 -221.5 -89.5t-90.5 -224.5z" />
<glyph unicode="&#xa5;" d="M0 1440h160l352 -723l367 723h141l-391 -725h270v-103h-324v-190h324v-103h-324v-319h-135v319h-323v103h323v190h-323v103h262z" />
<glyph unicode="&#xa6;" horiz-adv-x="1085" d="M475 332h129v-694h-129v694zM475 715v725h129v-725h-129z" />
<glyph unicode="&#xa7;" horiz-adv-x="1142" d="M178 627q0 240 285 362l-39 29q-145 106 -145 264q0 41 15 86t50 95t109.5 82t177.5 32q86 0 154.5 -18.5t93.5 -38.5l24 -19v-147q-10 12 -30.5 30.5t-93 49t-154.5 30.5q-94 0 -151.5 -48t-57.5 -128q0 -111 129 -194l215 -144q55 -37 90 -66.5t71.5 -95t36.5 -141.5 t-26.5 -140.5t-74.5 -112.5t-85 -74.5t-88 -57.5l35 -26q143 -113 143 -267q0 -45 -17.5 -92t-54 -93t-106.5 -74.5t-164 -28.5q-205 4 -301 83v144q10 -12 31.5 -31.5t100.5 -51.5t171 -32t147.5 43t55.5 125q0 117 -123 195l-211 133q-80 51 -146.5 139t-66.5 199z M317 641q0 -74 37 -132t138 -124l94 -61q70 41 111.5 72.5t81.5 92t40 129.5q0 76 -31.5 131.5t-113.5 106.5l-113 72q-244 -113 -244 -287z" />
<glyph unicode="&#xa8;" horiz-adv-x="1024" d="M264 1337q0 39 23.5 63.5t64.5 24.5q37 0 60.5 -23.5t23.5 -62.5q0 -41 -23.5 -64.5t-64.5 -23.5q-37 0 -60.5 23.5t-23.5 62.5zM594 1337q0 39 24.5 63.5t63.5 24.5q37 0 60.5 -23.5t23.5 -62.5q0 -41 -24.5 -64.5t-63.5 -23.5q-37 0 -60.5 23.5t-23.5 62.5z" />
<glyph unicode="&#xa9;" horiz-adv-x="1796" d="M100 645q0 358 227.5 587.5t585.5 229.5q356 0 573.5 -225t217.5 -582q0 -358 -223.5 -591.5t-575.5 -233.5q-354 0 -579.5 229.5t-225.5 585.5zM225 645q0 -309 189.5 -514t490.5 -205q305 0 490.5 206t185.5 523q0 309 -182 509t-486 200q-311 0 -499.5 -203 t-188.5 -516zM451 629q0 180 79 319q59 104 166 158.5t240 54.5q78 0 142.5 -14t90.5 -29l27 -14v-129q-8 8 -26.5 22.5t-84 37t-143.5 22.5q-168 0 -262 -110.5t-94 -299.5q0 -203 91 -310.5t257 -107.5q80 0 146.5 21.5t93.5 44.5l26 20l-10 -120q-8 -8 -26.5 -19.5 t-88 -30t-153.5 -18.5q-229 0 -350 141.5t-121 360.5z" />
<glyph unicode="&#xaa;" horiz-adv-x="757" d="M72 881q0 49 13 88t30.5 64.5t51.5 44t57.5 27.5t66.5 16t63.5 9.5t61.5 4.5l88 6v78q0 154 -152 153q-61 0 -110 -20.5t-70 -40.5l-18 -21v109q59 61 217 61q70 0 118 -16.5t71.5 -39t36.5 -60t15 -63.5t2 -67v-544l-98 -13v105q-6 -12 -19.5 -30.5t-67.5 -48.5 t-128 -30q-117 0 -173 65t-56 163zM186 883q0 -55 34 -95t116 -40q72 0 121 44t49 111v156l-103 -10q-111 -10 -164 -43t-53 -123z" />
<glyph unicode="&#xab;" horiz-adv-x="888" d="M102 516l215 408h127l-190 -406l190 -407h-127zM461 516l215 408h127l-191 -406l191 -407h-127z" />
<glyph unicode="&#xac;" horiz-adv-x="1310" d="M47 721v121h1217v-461h-123v340h-1094z" />
<glyph unicode="&#xad;" horiz-adv-x="665" d="M84 479v129h498v-129h-498z" />
<glyph unicode="&#xae;" horiz-adv-x="1794" d="M100 645q0 358 227.5 587.5t585.5 229.5q356 0 573.5 -225t217.5 -582q0 -358 -223.5 -591.5t-575.5 -233.5q-354 0 -579.5 229.5t-225.5 585.5zM225 645q0 -309 189.5 -514t490.5 -205q305 0 490.5 206t185.5 523q0 309 -182 509t-486 200q-311 0 -499.5 -203 t-188.5 -516zM623 139v1043h172q199 0 274 -41q135 -72 135 -238q0 -150 -91 -228.5t-218 -78.5l379 -457h-154l-375 463v-463h-122zM745 680h95q236 0 235 207q0 115 -63.5 156.5t-180.5 41.5h-86v-405z" />
<glyph unicode="&#xaf;" horiz-adv-x="1024" d="M217 1268v112h590v-112h-590z" />
<glyph unicode="&#xb0;" horiz-adv-x="892" d="M129 1229q0 131 92 224t223 93q133 0 226.5 -92t93.5 -225t-93 -225.5t-227 -92.5q-131 0 -223 93.5t-92 224.5zM233 1229q0 -90 60.5 -155.5t151 -65.5t152.5 65.5t62 155.5q0 94 -62 156.5t-152.5 62.5t-151 -62.5t-60.5 -156.5z" />
<glyph unicode="&#xb1;" horiz-adv-x="1310" d="M47 0v121h1217v-121h-1217zM47 827v121h543v559h131v-559h543v-121h-543v-561h-131v561h-543z" />
<glyph unicode="&#xb2;" horiz-adv-x="720" d="M70 580v106q158 154 256 264q80 90 106.5 145.5t26.5 113t-35 99.5t-119 42q-55 0 -107.5 -19.5t-74.5 -40.5l-25 -18v133q94 55 221 55q143 0 209 -68.5t66 -168.5q0 -90 -40 -163t-142 -183l-95 -97q-45 -45 -65 -63l-21 -19h371v-118h-532z" />
<glyph unicode="&#xb3;" horiz-adv-x="720" d="M82 737q92 -70 213 -69q182 0 182 145q0 158 -233 158h-19v104h21q199 0 198 156q0 127 -145 127q-49 0 -98 -17.5t-74 -33.5l-23 -17v119q82 51 215 51q127 0 194 -56t67 -161q0 -57 -25 -102t-60.5 -66.5t-59 -31t-36.5 -11.5q102 -6 157.5 -61.5t55.5 -149.5 q0 -137 -90 -197.5t-221 -60.5q-66 0 -119 13.5t-73 27.5l-21 14z" />
<glyph unicode="&#xb4;" horiz-adv-x="1024" d="M285 1274l364 254l72 -115l-385 -219z" />
<glyph unicode="&#xb5;" horiz-adv-x="1253" d="M76 -371q78 35 110 103q31 66 31 235v725q0 182 -24 226q-27 49 -93 49v34h17q63 0 149 15q33 6 57.5 13t32.5 11l9 7l8 -5q-10 -41 -11 -411v-127q0 -133 11 -217q14 -104 86.5 -159.5t191.5 -55.5q55 0 113.5 17t91.5 34l31 16v553q0 119 -3 161t-20 65 q-14 23 -37.5 35t-40.5 14h-14v34q55 0 139 15q33 6 63 13t42 11l12 7l6 -5q-4 -80 -4 -413v-387q0 -33 2 -51.5t9.5 -44t25.5 -38t49 -12.5q14 0 25.5 3t15.5 7l4 5l21 -21q-6 -12 -18.5 -29.5t-54.5 -47t-91 -29.5q-55 0 -90 35.5t-35 86.5v9q-47 -47 -128 -89t-177 -42 q-78 0 -138.5 25.5t-80.5 51.5l-23 25v-418q-25 -4 -64.5 -13t-52.5 -11q-59 -12 -139 -45z" />
<glyph unicode="&#xb6;" horiz-adv-x="839" d="M61 1042q0 186 127 292t353 106h196l-6 -103h-110v-1339q0 -129 -23 -182q-55 -135 -254 -135q-80 0 -160 32l-8 117q94 -47 168 -47q80 0 114 45t34 135v692h-33q-174 0 -286 109.5t-112 277.5z" />
<glyph unicode="&#xb7;" horiz-adv-x="419" d="M86 616q0 59 35 96.5t90 37.5t91 -36t36 -96q0 -61 -34 -99t-91 -38t-92 36t-35 99z" />
<glyph unicode="&#xb8;" horiz-adv-x="878" d="M274 -309q33 -31 99 -31q86 0 86 74q0 51 -41 80q-29 20 -41 30.5t-26.5 37t-14.5 61.5l10 63h98q-6 -16 -6 -43q0 -39 67.5 -88t67.5 -139q0 -72 -47 -122t-147 -50l-96 20z" />
<glyph unicode="&#xb9;" horiz-adv-x="598" d="M70 1245v105q156 27 237 90h96v-860h-135v702z" />
<glyph unicode="&#xba;" horiz-adv-x="856" d="M113 1044.5q0 190.5 80.5 303t246.5 112.5q145 0 229.5 -102.5t84.5 -293t-81 -303t-247 -112.5q-145 0 -229 102.5t-84 293zM229 1053q0 -133 48.5 -220.5t156.5 -87.5q205 0 205 312q0 133 -48 221t-159 88q-102 0 -152.5 -83t-50.5 -230z" />
<glyph unicode="&#xbb;" horiz-adv-x="888" d="M86 111l190 405l-190 408h127l215 -406l-215 -407h-127zM444 111l191 405l-191 408h127l215 -406l-215 -407h-127z" />
<glyph unicode="&#xbc;" horiz-adv-x="1488" d="M31 1245v105q156 27 237 90h97v-860h-136v702zM106 0l1047 1440h135l-1042 -1440h-140zM760 199v112l407 566h119v-574h96v-104h-96v-199h-129v199h-397zM868 303h289v410q-8 -25 -49 -82z" />
<glyph unicode="&#xbd;" horiz-adv-x="1488" d="M10 1245v105q156 27 238 90h96v-860h-135v702zM45 0l1047 1440h135l-1043 -1440h-139zM879 0v106q158 154 256 265q80 90 106.5 145t26.5 112.5t-35 99.5t-119 42q-55 0 -107.5 -19.5t-76.5 -37.5l-23 -21v133q94 55 221 56q141 0 208 -69t67 -169q0 -90 -40 -162.5 t-142 -183.5l-95 -96l-65 -64l-21 -18h371v-119h-532z" />
<glyph unicode="&#xbe;" horiz-adv-x="1488" d="M53 737q92 -70 213 -69q182 0 183 145q0 158 -234 158h-18v104h20q199 0 199 156q0 127 -146 127q-49 0 -98 -17.5t-74 -33.5l-22 -17v119q82 51 215 51q127 0 193.5 -56t66.5 -161q0 -49 -18.5 -89t-45 -61.5t-53 -36t-45.5 -20.5l-18 -4q102 -6 157.5 -61.5 t55.5 -149.5q0 -137 -90.5 -197.5t-221.5 -60.5q-66 0 -119 13.5t-73 27.5l-21 14zM223 0l1047 1440h135l-1043 -1440h-139zM821 199v112l408 566h119v-574h96v-104h-96v-199h-129v199h-398zM930 303h289v410q-8 -25 -50 -82z" />
<glyph unicode="&#xbf;" horiz-adv-x="862" d="M61 338q0 201 162 348l142 131q53 51 69.5 91t16.5 108v90h120v-111q0 -141 -102 -237l-156 -146q-119 -113 -118 -268q0 -113 72.5 -187.5t219.5 -74.5q74 0 148 26.5t110 55.5l35 26v-143q-121 -78 -311 -78q-176 0 -292 91.5t-116 277.5zM403 1335q0 53 28 85t77 32 t77.5 -30.5t28.5 -84.5q0 -51 -28.5 -81.5t-75.5 -30.5t-77 30.5t-30 79.5z" />
<glyph unicode="&#xc0;" horiz-adv-x="1134" d="M-2 0l520 1446h109l503 -1446h-137l-180 520h-506l-184 -520h-125zM344 623h434l-153 444l-60 207q-23 -86 -63 -203zM352 1751l72 115l364 -254l-51 -80z" />
<glyph unicode="&#xc1;" horiz-adv-x="1134" d="M-2 0l520 1446h109l503 -1446h-137l-180 520h-506l-184 -520h-125zM344 623h434l-153 444l-60 207q-23 -86 -63 -203zM352 1612l365 254l71 -115l-385 -219z" />
<glyph unicode="&#xc2;" horiz-adv-x="1134" d="M-2 0l520 1446h109l503 -1446h-137l-180 520h-506l-184 -520h-125zM256 1610l311 252l312 -252l-58 -78l-254 174l-254 -174zM344 623h434l-153 444l-60 207q-23 -86 -63 -203z" />
<glyph unicode="&#xc3;" horiz-adv-x="1134" d="M-2 0l520 1446h109l503 -1446h-137l-180 520h-506l-184 -520h-125zM276 1628l6 16q3 9 16 32.5t31.5 42t51.5 32.5t74 14q47 0 106 -26l51 -23q45 -20 78 -20q66 2 94 69l80 -51l-5 -15q-3 -9 -16.5 -33t-31.5 -42t-51 -32.5t-74 -14.5q-47 0 -106 27l-52 22 q-45 20 -77 21q-66 -2 -95 -70zM344 623h434l-153 444l-60 207q-23 -86 -63 -203z" />
<glyph unicode="&#xc4;" horiz-adv-x="1134" d="M-2 0l520 1446h109l503 -1446h-137l-180 520h-506l-184 -520h-125zM317 1675q0 41 24 64.5t65 23.5q37 0 60 -23.5t23 -62.5t-23.5 -63.5t-64.5 -24.5q-37 0 -60.5 23.5t-23.5 62.5zM344 623h434l-153 444l-60 207q-23 -86 -63 -203zM647 1675q0 41 24.5 64.5t63.5 23.5 q37 0 60.5 -23.5t23.5 -62.5t-24.5 -63.5t-63.5 -24.5q-37 0 -60.5 23.5t-23.5 62.5z" />
<glyph unicode="&#xc5;" horiz-adv-x="1134" d="M-2 0l520 1446h109l503 -1446h-137l-180 520h-506l-184 -520h-125zM344 623h434l-153 444l-60 207q-23 -86 -63 -203zM362 1706q0 94 61.5 150.5t154.5 56.5q88 0 149 -54.5t61 -156.5q0 -94 -61 -150.5t-154 -56.5q-88 0 -149.5 54.5t-61.5 156.5zM461 1706 q0 -61 32.5 -93t81.5 -32q47 0 81 32t34 89q0 61 -32.5 93t-82.5 32q-47 0 -80.5 -32t-33.5 -89z" />
<glyph unicode="&#xc6;" horiz-adv-x="1521" d="M0 0l676 1440h770v-109h-555v-532h467v-109h-467v-581h590l-6 -109h-719v694h-297l-318 -694h-141zM508 799h248v561q-14 -55 -39 -107z" />
<glyph unicode="&#xc7;" horiz-adv-x="1142" d="M78 696q0 291 100 467q168 297 553 297q106 0 197.5 -21.5t128.5 -41.5l39 -21v-143q-12 12 -38 31.5t-120 51.5t-207 32q-244 0 -379 -163t-135 -460q0 -311 130 -470t374 -159q113 0 208 32t132 65l39 30l-15 -145q-12 -10 -36.5 -25.5t-116.5 -41t-207 -27.5 q0 -2 -1 -9.5t-1 -11.5q0 -39 67.5 -88t67.5 -139q0 -72 -47 -122t-147 -50l-97 20l-8 107q33 -31 98 -31q86 0 86 74q0 51 -41 80q-82 57 -81 127q0 35 6 47q-279 25 -414 218t-135 490z" />
<glyph unicode="&#xc8;" horiz-adv-x="919" d="M154 0v1440h690v-109h-555v-532h467v-109h-467v-581h590l-7 -109h-718zM262 1751l72 115l364 -254l-51 -80z" />
<glyph unicode="&#xc9;" horiz-adv-x="919" d="M154 0v1440h690v-109h-555v-532h467v-109h-467v-581h590l-7 -109h-718zM309 1612l365 254l71 -115l-385 -219z" />
<glyph unicode="&#xca;" horiz-adv-x="919" d="M154 0v1440h690v-109h-555v-532h467v-109h-467v-581h590l-7 -109h-718zM188 1610l312 252l311 -252l-57 -78l-254 174l-254 -174z" />
<glyph unicode="&#xcb;" horiz-adv-x="919" d="M154 0v1440h690v-109h-555v-532h467v-109h-467v-581h590l-7 -109h-718zM260 1675q0 41 23.5 64.5t64.5 23.5q37 0 60.5 -23.5t23.5 -62.5t-23.5 -63.5t-64.5 -24.5q-37 0 -60.5 23.5t-23.5 62.5zM590 1675q0 41 24.5 64.5t63.5 23.5q37 0 60.5 -23.5t23.5 -62.5 t-24.5 -63.5t-63.5 -24.5q-37 0 -60.5 23.5t-23.5 62.5z" />
<glyph unicode="&#xcc;" horiz-adv-x="442" d="M-6 1751l72 115l364 -254l-51 -80zM154 0v1440h135v-1440h-135z" />
<glyph unicode="&#xcd;" horiz-adv-x="442" d="M-6 1612l364 254l72 -115l-385 -219zM154 0v1440h135v-1440h-135z" />
<glyph unicode="&#xce;" horiz-adv-x="442" d="M-90 1610l311 252l311 -252l-57 -78l-254 174l-254 -174zM154 0v1440h135v-1440h-135z" />
<glyph unicode="&#xcf;" horiz-adv-x="442" d="M-29 1675q0 41 24.5 64.5t63.5 23.5q37 0 60.5 -23.5t23.5 -62.5t-24.5 -63.5t-63.5 -24.5q-37 0 -60.5 23.5t-23.5 62.5zM154 0v1440h135v-1440h-135zM301 1675q0 41 23.5 64.5t64.5 23.5q37 0 60.5 -23.5t23.5 -62.5t-23.5 -63.5t-64.5 -24.5q-37 0 -60.5 23.5 t-23.5 62.5z" />
<glyph unicode="&#xd0;" horiz-adv-x="1277" d="M4 684v109h150v647h295q193 0 295 -17.5t188 -70.5q268 -164 268 -611q0 -506 -319 -667q-150 -74 -461 -74h-266v684h-150zM289 109h178q227 0 348 61q119 63 182.5 207.5t63.5 345.5q0 205 -62.5 348t-179.5 205q-104 55 -327 55h-203v-538h389l-6 -109h-383v-575z" />
<glyph unicode="&#xd1;" horiz-adv-x="1269" d="M154 0v1440h118l619 -1002q37 -59 62 -107l34 -65l6 -18v1192h123v-1440h-102l-643 1040q-39 61 -62.5 105.5t-27.5 58.5l-5 13v-1217h-122zM360 1628l6 16q3 9 16 32.5t31.5 42t51.5 32.5t74 14q47 0 106 -26l51 -23q45 -20 78 -20q66 2 94 69l80 -51l-5 -15 q-3 -9 -16.5 -33t-31.5 -42t-51 -32.5t-74 -14.5q-47 0 -106 27l-52 22q-45 20 -77 21q-66 -2 -95 -70z" />
<glyph unicode="&#xd2;" horiz-adv-x="1298" d="M78 686q0 369 150.5 571.5t416.5 202.5q270 0 423 -186.5t153 -521.5q0 -369 -150.5 -572t-417.5 -203q-270 0 -422.5 186.5t-152.5 522.5zM217 713q0 -309 109.5 -468t324.5 -159q207 0 318.5 162t111.5 477q0 309 -109.5 468t-324.5 159q-207 0 -318.5 -162 t-111.5 -477zM430 1751l72 115l364 -254l-51 -80z" />
<glyph unicode="&#xd3;" horiz-adv-x="1298" d="M78 686q0 369 150.5 571.5t416.5 202.5q270 0 423 -186.5t153 -521.5q0 -369 -150.5 -572t-417.5 -203q-270 0 -422.5 186.5t-152.5 522.5zM217 713q0 -309 109.5 -468t324.5 -159q207 0 318.5 162t111.5 477q0 309 -109.5 468t-324.5 159q-207 0 -318.5 -162 t-111.5 -477zM434 1612l365 254l71 -115l-385 -219z" />
<glyph unicode="&#xd4;" horiz-adv-x="1298" d="M78 686q0 369 150.5 571.5t416.5 202.5q270 0 423 -186.5t153 -521.5q0 -369 -150.5 -572t-417.5 -203q-270 0 -422.5 186.5t-152.5 522.5zM217 713q0 -309 109.5 -468t324.5 -159q207 0 318.5 162t111.5 477q0 309 -109.5 468t-324.5 159q-207 0 -318.5 -162 t-111.5 -477zM346 1610l311 252l312 -252l-58 -78l-254 174l-254 -174z" />
<glyph unicode="&#xd5;" horiz-adv-x="1298" d="M78 686q0 369 150.5 571.5t416.5 202.5q270 0 423 -186.5t153 -521.5q0 -369 -150.5 -572t-417.5 -203q-270 0 -422.5 186.5t-152.5 522.5zM217 713q0 -309 109.5 -468t324.5 -159q207 0 318.5 162t111.5 477q0 309 -109.5 468t-324.5 159q-207 0 -318.5 -162 t-111.5 -477zM360 1628l6 16q3 9 16 32.5t31.5 42t51.5 32.5t74 14q47 0 106 -26l51 -23q45 -20 78 -20q66 2 94 69l80 -51l-5 -15q-3 -9 -16.5 -33t-31.5 -42t-51 -32.5t-74 -14.5q-47 0 -106 27l-52 22q-45 20 -77 21q-66 -2 -95 -70z" />
<glyph unicode="&#xd6;" horiz-adv-x="1298" d="M78 686q0 369 150.5 571.5t416.5 202.5q270 0 423 -186.5t153 -521.5q0 -369 -150.5 -572t-417.5 -203q-270 0 -422.5 186.5t-152.5 522.5zM217 713q0 -309 109.5 -468t324.5 -159q207 0 318.5 162t111.5 477q0 309 -109.5 468t-324.5 159q-207 0 -318.5 -162 t-111.5 -477zM399 1675q0 41 23.5 64.5t64.5 23.5q37 0 60.5 -23.5t23.5 -62.5t-23.5 -63.5t-64.5 -24.5q-37 0 -60.5 23.5t-23.5 62.5zM729 1675q0 41 24.5 64.5t63.5 23.5q37 0 60.5 -23.5t23.5 -62.5t-24.5 -63.5t-63.5 -24.5q-37 0 -60.5 23.5t-23.5 62.5z" />
<glyph unicode="&#xd7;" horiz-adv-x="1118" d="M55 285l420 426l-418 426l86 86l418 -426l416 424l84 -82l-416 -424l420 -428l-88 -82l-418 426l-418 -424z" />
<glyph unicode="&#xd8;" horiz-adv-x="1298" d="M78 686q0 369 150.5 571.5t416.5 202.5q199 0 338 -104l82 135h121l-127 -207q162 -186 162 -532q0 -369 -150.5 -572t-417.5 -203q-195 0 -331 99l-97 -156h-116l137 225q-168 187 -168 541zM217 713q0 -295 98 -453l605 991q-106 100 -273 101q-207 0 -318.5 -162 t-111.5 -477zM383 178q104 -92 268 -92q207 0 318.5 162t111.5 477q0 287 -94 442z" />
<glyph unicode="&#xd9;" horiz-adv-x="1265" d="M143 563v877h136v-936q0 -72 4 -119t23.5 -108.5t55 -97.5t104.5 -62.5t167 -26.5q59 0 107 8.5t83 21.5t62.5 36.5t46 45t32 55.5t19.5 59.5t9 66.5t4 66.5t1 68.5v922h125v-830q0 -201 -14 -299t-74 -176q-115 -154 -393 -153q-283 0 -399 139q-59 70 -79 172t-20 270z M418 1751l71 115l365 -254l-51 -80z" />
<glyph unicode="&#xda;" horiz-adv-x="1265" d="M143 563v877h136v-936q0 -72 4 -119t23.5 -108.5t55 -97.5t104.5 -62.5t167 -26.5q59 0 107 8.5t83 21.5t62.5 36.5t46 45t32 55.5t19.5 59.5t9 66.5t4 66.5t1 68.5v922h125v-830q0 -201 -14 -299t-74 -176q-115 -154 -393 -153q-283 0 -399 139q-59 70 -79 172t-20 270z M426 1612l365 254l71 -115l-385 -219z" />
<glyph unicode="&#xdb;" horiz-adv-x="1265" d="M143 563v877h136v-936q0 -72 4 -119t23.5 -108.5t55 -97.5t104.5 -62.5t167 -26.5q59 0 107 8.5t83 21.5t62.5 36.5t46 45t32 55.5t19.5 59.5t9 66.5t4 66.5t1 68.5v922h125v-830q0 -201 -14 -299t-74 -176q-115 -154 -393 -153q-283 0 -399 139q-59 70 -79 172t-20 270z M334 1610l311 252l311 -252l-57 -78l-254 174l-254 -174z" />
<glyph unicode="&#xdc;" horiz-adv-x="1265" d="M143 563v877h136v-936q0 -72 4 -119t23.5 -108.5t55 -97.5t104.5 -62.5t167 -26.5q59 0 107 8.5t83 21.5t62.5 36.5t46 45t32 55.5t19.5 59.5t9 66.5t4 66.5t1 68.5v922h125v-830q0 -201 -14 -299t-74 -176q-115 -154 -393 -153q-283 0 -399 139q-59 70 -79 172t-20 270z M406 1675q0 41 24.5 64.5t63.5 23.5q37 0 60.5 -23.5t23.5 -62.5t-25 -63.5t-64 -24.5q-37 0 -60 23.5t-23 62.5zM735 1675q0 41 23.5 64.5t64.5 23.5q37 0 60.5 -23.5t23.5 -62.5t-23.5 -63.5t-64.5 -24.5q-37 0 -60.5 23.5t-23.5 62.5z" />
<glyph unicode="&#xdd;" horiz-adv-x="1089" d="M4 1440h156l393 -754l408 754h143l-488 -871v-569h-135v563zM395 1612l365 254l71 -115l-385 -219z" />
<glyph unicode="&#xde;" horiz-adv-x="978" d="M154 0v1440h135v-187h127q240 0 348 -67q164 -102 164 -344q0 -123 -40 -211t-92.5 -132t-132 -67.5t-127 -28t-110.5 -4.5h-137v-399h-135zM289 506h133q82 0 136 9t112.5 40t88 100.5t29.5 178.5q0 88 -23.5 149t-56 93t-89 48.5t-95.5 19.5t-102 3h-133v-641z" />
<glyph unicode="&#xdf;" horiz-adv-x="1091" d="M154 0v1178q0 66 4 105.5t26.5 100t67.5 101.5q96 92 280 92q385 0 386 -281q0 -74 -28 -133t-56.5 -86.5t-83.5 -68.5q-61 -45 -86 -67.5t-47.5 -61.5t-22.5 -88q0 -63 29.5 -100.5t105.5 -80.5l107 -59q96 -53 145 -115.5t49 -159.5q0 -102 -55 -170.5t-128 -95 t-155 -26.5q-84 0 -150.5 21.5t-90.5 43.5l-25 21l-10 133q10 -12 29.5 -31.5t93 -52.5t161.5 -33q94 0 150.5 45t56.5 125q0 61 -26.5 103t-104.5 85l-112 62q-113 61 -151 127.5t-38 146.5q0 68 31 126.5t59.5 84t87.5 70.5q47 35 72 58.5t47.5 67.5t22.5 97 q0 51 -17.5 88t-42 56.5t-64.5 30.5t-70 13.5t-71 2.5q-141 0 -204 -82q-43 -55 -43 -195v-1198h-129z" />
<glyph unicode="&#xe0;" horiz-adv-x="925" d="M74 289q0 51 11 94t24.5 73.5t44.5 56.5l50 41q19 15 63 29l64 19q19 6 68.5 11t61.5 6.5t61 3.5l131 8v108q0 37 -2 58.5t-13 57.5t-31.5 55.5t-63.5 35t-105 15.5q-82 0 -147.5 -28t-89.5 -54l-27 -27v129q8 8 27.5 22.5t94.5 37t167 22.5q90 0 153.5 -22.5t95 -52.5 t48 -81t19.5 -85t3 -89v-725l-125 -16v139q-2 -6 -8 -15.5t-29.5 -35t-53 -45t-82 -34.5t-113.5 -15q-147 0 -222 87t-75 216zM207 293q0 -80 48 -138.5t163 -58.5q98 0 166.5 62.5t68.5 154.5v224l-143 -13q-152 -12 -227.5 -58t-75.5 -173zM279 1413l71 115l365 -254 l-51 -80z" />
<glyph unicode="&#xe1;" horiz-adv-x="925" d="M74 289q0 51 11 94t24.5 73.5t44.5 56.5l50 41q19 15 63 29l64 19q19 6 68.5 11t61.5 6.5t61 3.5l131 8v108q0 37 -2 58.5t-13 57.5t-31.5 55.5t-63.5 35t-105 15.5q-82 0 -147.5 -28t-89.5 -54l-27 -27v129q8 8 27.5 22.5t94.5 37t167 22.5q90 0 153.5 -22.5t95 -52.5 t48 -81t19.5 -85t3 -89v-725l-125 -16v139q-2 -6 -8 -15.5t-29.5 -35t-53 -45t-82 -34.5t-113.5 -15q-147 0 -222 87t-75 216zM207 293q0 -80 48 -138.5t163 -58.5q98 0 166.5 62.5t68.5 154.5v224l-143 -13q-152 -12 -227.5 -58t-75.5 -173zM264 1274l365 254l71 -115 l-385 -219z" />
<glyph unicode="&#xe2;" horiz-adv-x="925" d="M74 289q0 51 11 94t24.5 73.5t44.5 56.5l50 41q19 15 63 29l64 19q19 6 68.5 11t61.5 6.5t61 3.5l131 8v108q0 37 -2 58.5t-13 57.5t-31.5 55.5t-63.5 35t-105 15.5q-82 0 -147.5 -28t-89.5 -54l-27 -27v129q8 8 27.5 22.5t94.5 37t167 22.5q90 0 153.5 -22.5t95 -52.5 t48 -81t19.5 -85t3 -89v-725l-125 -16v139q-2 -6 -8 -15.5t-29.5 -35t-53 -45t-82 -34.5t-113.5 -15q-147 0 -222 87t-75 216zM158 1272l311 252l311 -252l-57 -78l-254 174l-254 -174zM207 293q0 -80 48 -138.5t163 -58.5q98 0 166.5 62.5t68.5 154.5v224l-143 -13 q-152 -12 -227.5 -58t-75.5 -173z" />
<glyph unicode="&#xe3;" horiz-adv-x="925" d="M74 289q0 51 11 94t24.5 73.5t44.5 56.5l50 41q19 15 63 29l64 19q19 6 68.5 11t61.5 6.5t61 3.5l131 8v108q0 37 -2 58.5t-13 57.5t-31.5 55.5t-63.5 35t-105 15.5q-82 0 -147.5 -28t-89.5 -54l-27 -27v129q8 8 27.5 22.5t94.5 37t167 22.5q90 0 153.5 -22.5t95 -52.5 t48 -81t19.5 -85t3 -89v-725l-125 -16v139q-2 -6 -8 -15.5t-29.5 -35t-53 -45t-82 -34.5t-113.5 -15q-147 0 -222 87t-75 216zM170 1290l5 16q3 9 16.5 32.5t32 42t51 32.5t73.5 14q47 0 107 -26l51 -23q45 -20 78 -20q66 2 94 69l80 -51l-5 -15q-3 -9 -16.5 -32.5t-32 -42 t-51 -33t-73.5 -14.5q-47 0 -107 27l-51 22q-45 20 -78 21q-66 -2 -94 -70zM207 293q0 -80 48 -138.5t163 -58.5q98 0 166.5 62.5t68.5 154.5v224l-143 -13q-152 -12 -227.5 -58t-75.5 -173z" />
<glyph unicode="&#xe4;" horiz-adv-x="925" d="M74 289q0 51 11 94t24.5 73.5t44.5 56.5l50 41q19 15 63 29l64 19q19 6 68.5 11t61.5 6.5t61 3.5l131 8v108q0 37 -2 58.5t-13 57.5t-31.5 55.5t-63.5 35t-105 15.5q-82 0 -147.5 -28t-89.5 -54l-27 -27v129q8 8 27.5 22.5t94.5 37t167 22.5q90 0 153.5 -22.5t95 -52.5 t48 -81t19.5 -85t3 -89v-725l-125 -16v139q-2 -6 -8 -15.5t-29.5 -35t-53 -45t-82 -34.5t-113.5 -15q-147 0 -222 87t-75 216zM207 293q0 -80 48 -138.5t163 -58.5q98 0 166.5 62.5t68.5 154.5v224l-143 -13q-152 -12 -227.5 -58t-75.5 -173zM213 1337q0 39 24.5 63.5 t63.5 24.5q37 0 60.5 -23.5t23.5 -62.5q0 -41 -24.5 -64.5t-63.5 -23.5q-37 0 -60.5 23.5t-23.5 62.5zM543 1337q0 39 23.5 63.5t64.5 24.5q37 0 60.5 -23.5t23.5 -62.5q0 -41 -23.5 -64.5t-64.5 -23.5q-37 0 -60.5 23.5t-23.5 62.5z" />
<glyph unicode="&#xe5;" horiz-adv-x="925" d="M74 289q0 51 11 94t24.5 73.5t44.5 56.5l50 41q19 15 63 29l64 19q19 6 68.5 11t61.5 6.5t61 3.5l131 8v108q0 37 -2 58.5t-13 57.5t-31.5 55.5t-63.5 35t-105 15.5q-82 0 -147.5 -28t-89.5 -54l-27 -27v129q8 8 27.5 22.5t94.5 37t167 22.5q90 0 153.5 -22.5t95 -52.5 t48 -81t19.5 -85t3 -89v-725l-125 -16v139q-2 -6 -8 -15.5t-29.5 -35t-53 -45t-82 -34.5t-113.5 -15q-147 0 -222 87t-75 216zM207 293q0 -80 48 -138.5t163 -58.5q98 0 166.5 62.5t68.5 154.5v224l-143 -13q-152 -12 -227.5 -58t-75.5 -173zM246 1331q0 94 61.5 150.5 t153.5 56.5q88 0 149.5 -54t61.5 -157q0 -94 -61.5 -150.5t-153.5 -56.5q-88 0 -149.5 54.5t-61.5 156.5zM344 1331q0 -61 33 -93t82 -32q47 0 80.5 32t33.5 89q0 61 -32.5 93t-81.5 32q-47 0 -81 -32t-34 -89z" />
<glyph unicode="&#xe6;" horiz-adv-x="1527" d="M74 289q0 51 11 94t24.5 73.5t44.5 56.5l50 41q19 15 63 29l64 19q19 6 68.5 11t61.5 6.5t61 3.5l131 8v108q0 37 -2 58.5t-13 57.5t-31.5 55.5t-63.5 35t-105 15.5q-82 0 -147.5 -28t-89.5 -54l-27 -27v129q8 8 27.5 22.5t94.5 37t167 22.5q213 0 280 -131l13 -29l11 18 q7 11 34.5 38.5t60.5 49t89.5 39t119.5 17.5q383 0 383 -498v-32h-676v-21q0 -209 76 -318.5t264 -109.5q84 0 154.5 27.5t99.5 54.5l31 29l-12 -136q-10 -8 -30 -21t-98.5 -34.5t-177.5 -21.5q-84 0 -152.5 20.5t-105 49t-62.5 57t-34 49.5l-8 20q-2 -8 -8 -21.5t-33 -46 t-61.5 -58t-99 -47t-144.5 -21.5q-94 0 -159.5 32.5t-94.5 86t-39 96.5t-10 88zM207 293q0 -80 48 -138.5t163 -58.5q98 0 166.5 62.5t68.5 154.5v224l-143 -13q-152 -12 -227.5 -58t-75.5 -173zM782 633h539q0 332 -258 332q-70 0 -123 -27t-82 -64.5t-47 -87t-23.5 -86 t-5.5 -67.5z" />
<glyph unicode="&#xe7;" horiz-adv-x="878" d="M82 514q0 258 114.5 404.5t333.5 146.5q205 -2 289 -76v-127l-28 28q-18 17 -90 45t-156 28q-43 0 -79 -6.5t-86 -31t-83 -68.5t-57.5 -130t-24.5 -203q0 -438 344 -438q80 0 146.5 27.5t93.5 54.5l26 29l-12 -136q-8 -8 -26.5 -20t-89 -34.5t-154.5 -22.5q0 -2 -1 -9.5 t-1 -11.5q0 -39 67.5 -88t67.5 -139q0 -72 -47 -122t-148 -50l-96 20l-8 107q33 -31 98 -31q86 0 86 74q0 51 -41 80q-82 57 -82 127q0 31 6 49q-362 51 -362 524z" />
<glyph unicode="&#xe8;" horiz-adv-x="964" d="M82 514q0 250 106.5 400.5t319.5 150.5q383 0 383 -498v-32h-676q0 -221 73.5 -335t266.5 -114q84 0 154.5 27.5t101.5 54.5l29 29l-13 -136q-10 -8 -29.5 -21t-98 -34.5t-177.5 -21.5q-440 0 -440 530zM219 633h539q0 332 -258 332q-70 0 -123 -27t-82 -64.5t-47.5 -87 t-23.5 -86t-5 -67.5zM287 1413l71 115l365 -254l-51 -80z" />
<glyph unicode="&#xe9;" horiz-adv-x="964" d="M82 514q0 250 106.5 400.5t319.5 150.5q383 0 383 -498v-32h-676q0 -221 73.5 -335t266.5 -114q84 0 154.5 27.5t101.5 54.5l29 29l-13 -136q-10 -8 -29.5 -21t-98 -34.5t-177.5 -21.5q-440 0 -440 530zM219 633h539q0 332 -258 332q-70 0 -123 -27t-82 -64.5t-47.5 -87 t-23.5 -86t-5 -67.5zM285 1274l364 254l72 -115l-385 -219z" />
<glyph unicode="&#xea;" horiz-adv-x="964" d="M82 514q0 250 106.5 400.5t319.5 150.5q383 0 383 -498v-32h-676q0 -221 73.5 -335t266.5 -114q84 0 154.5 27.5t101.5 54.5l29 29l-13 -136q-10 -8 -29.5 -21t-98 -34.5t-177.5 -21.5q-440 0 -440 530zM193 1272l311 252l311 -252l-57 -78l-254 174l-254 -174zM219 633 h539q0 332 -258 332q-70 0 -123 -27t-82 -64.5t-47.5 -87t-23.5 -86t-5 -67.5z" />
<glyph unicode="&#xeb;" horiz-adv-x="964" d="M82 514q0 250 106.5 400.5t319.5 150.5q383 0 383 -498v-32h-676q0 -221 73.5 -335t266.5 -114q84 0 154.5 27.5t101.5 54.5l29 29l-13 -136q-10 -8 -29.5 -21t-98 -34.5t-177.5 -21.5q-440 0 -440 530zM219 633h539q0 332 -258 332q-70 0 -123 -27t-82 -64.5t-47.5 -87 t-23.5 -86t-5 -67.5zM264 1337q0 39 23.5 63.5t64.5 24.5q37 0 60.5 -23.5t23.5 -62.5q0 -41 -23.5 -64.5t-64.5 -23.5q-37 0 -60.5 23.5t-23.5 62.5zM594 1337q0 39 24.5 63.5t63.5 24.5q37 0 60.5 -23.5t23.5 -62.5q0 -41 -24.5 -64.5t-63.5 -23.5q-37 0 -60.5 23.5 t-23.5 62.5z" />
<glyph unicode="&#xec;" horiz-adv-x="436" d="M0 1413l72 115l364 -254l-51 -80zM154 0v1049h129v-1049h-129z" />
<glyph unicode="&#xed;" horiz-adv-x="436" d="M0 1274l365 254l71 -115l-385 -219zM154 0v1049h129v-1049h-129z" />
<glyph unicode="&#xee;" horiz-adv-x="436" d="M-92 1272l311 252l311 -252l-57 -78l-254 174l-254 -174zM154 0v1049h129v-1049h-129z" />
<glyph unicode="&#xef;" horiz-adv-x="436" d="M-33 1337q0 39 24.5 63.5t63.5 24.5q37 0 60.5 -23.5t23.5 -62.5q0 -41 -24.5 -64.5t-63.5 -23.5q-37 0 -60.5 23.5t-23.5 62.5zM154 0v1049h129v-1049h-129zM297 1337q0 39 23.5 63.5t64.5 24.5q37 0 60.5 -23.5t23.5 -62.5q0 -41 -23.5 -64.5t-64.5 -23.5 q-37 0 -60.5 23.5t-23.5 62.5z" />
<glyph unicode="&#xf0;" horiz-adv-x="989" d="M82 510q0 162 40 275.5t106.5 169t134 79t143.5 23.5q84 0 148.5 -22.5t86.5 -45.5l25 -22q-4 209 -80 340l-158 -109l-57 86l152 105q-90 84 -242 84q-63 0 -122.5 -17.5t-86.5 -34.5l-29 -18v115q88 59 246 59q213 0 336 -119l170 119l57 -86l-164 -113 q72 -115 95.5 -273.5t23.5 -381.5q0 -219 -30.5 -367.5t-90 -227.5t-132 -111.5t-169.5 -32.5q-76 0 -140 21.5t-127.5 75.5t-99.5 163.5t-36 265.5zM215 524q0 -436 270 -436q156 0 221.5 137t65.5 492l-4 125q-8 12 -26.5 30.5t-81 49t-134.5 30.5q-311 0 -311 -428z" />
<glyph unicode="&#xf1;" horiz-adv-x="1067" d="M154 0v1049h125v-131q4 6 10 16t31.5 34.5t57.5 44t87 36t119 16.5q152 0 239 -82q100 -92 101 -313v-670h-129v645q0 53 -2 85t-15.5 80t-39 75.5t-75 48t-120.5 20.5q-98 0 -179 -56t-81 -169v-729h-129zM268 1290l5 16q3 9 16.5 32.5t32 42t51.5 32.5t73 14 q47 0 107 -26l51 -23q45 -20 78 -20q66 2 94 69l80 -51l-5 -15q-3 -9 -16.5 -32.5t-32 -42t-51 -33t-73.5 -14.5q-47 0 -107 27l-51 22q-45 20 -78 21q-66 -2 -94 -70z" />
<glyph unicode="&#xf2;" horiz-adv-x="1017" d="M82 506q0 254 108.5 406.5t327.5 152.5q195 0 306.5 -139.5t111.5 -390.5q0 -254 -108.5 -407t-327.5 -153q-195 0 -306.5 139.5t-111.5 391.5zM215 518q0 -190 68.5 -314t226.5 -124q147 0 220 115.5t73 326.5q0 190 -68.5 314.5t-226.5 124.5q-147 0 -220 -116 t-73 -327zM309 1413l72 115l364 -254l-51 -80z" />
<glyph unicode="&#xf3;" horiz-adv-x="1017" d="M82 506q0 254 108.5 406.5t327.5 152.5q195 0 306.5 -139.5t111.5 -390.5q0 -254 -108.5 -407t-327.5 -153q-195 0 -306.5 139.5t-111.5 391.5zM215 518q0 -190 68.5 -314t226.5 -124q147 0 220 115.5t73 326.5q0 190 -68.5 314.5t-226.5 124.5q-147 0 -220 -116 t-73 -327zM330 1274l364 254l72 -115l-385 -219z" />
<glyph unicode="&#xf4;" horiz-adv-x="1017" d="M82 506q0 254 108.5 406.5t327.5 152.5q195 0 306.5 -139.5t111.5 -390.5q0 -254 -108.5 -407t-327.5 -153q-195 0 -306.5 139.5t-111.5 391.5zM209 1272l311 252l311 -252l-57 -78l-254 174l-254 -174zM215 518q0 -190 68.5 -314t226.5 -124q147 0 220 115.5t73 326.5 q0 190 -68.5 314.5t-226.5 124.5q-147 0 -220 -116t-73 -327z" />
<glyph unicode="&#xf5;" horiz-adv-x="1017" d="M82 506q0 254 108.5 406.5t327.5 152.5q195 0 306.5 -139.5t111.5 -390.5q0 -254 -108.5 -407t-327.5 -153q-195 0 -306.5 139.5t-111.5 391.5zM215 518q0 -190 68.5 -314t226.5 -124q147 0 220 115.5t73 326.5q0 190 -68.5 314.5t-226.5 124.5q-147 0 -220 -116 t-73 -327zM227 1290l5 16q3 9 16.5 32.5t32 42t51.5 32.5t74 14q47 0 106 -26l51 -23q45 -20 78 -20q66 2 94 69l80 -51l-5 -15q-3 -9 -16.5 -32.5t-32 -42t-51 -33t-73.5 -14.5q-47 0 -107 27l-51 22q-45 20 -78 21q-66 -2 -94 -70z" />
<glyph unicode="&#xf6;" horiz-adv-x="1017" d="M82 506q0 254 108.5 406.5t327.5 152.5q195 0 306.5 -139.5t111.5 -390.5q0 -254 -108.5 -407t-327.5 -153q-195 0 -306.5 139.5t-111.5 391.5zM215 518q0 -190 68.5 -314t226.5 -124q147 0 220 115.5t73 326.5q0 190 -68.5 314.5t-226.5 124.5q-147 0 -220 -116 t-73 -327zM266 1337q0 39 24.5 63.5t63.5 24.5q37 0 60.5 -23.5t23.5 -62.5q0 -41 -24.5 -64.5t-63.5 -23.5q-37 0 -60.5 23.5t-23.5 62.5zM596 1337q0 39 23.5 63.5t64.5 24.5q37 0 60.5 -23.5t23.5 -62.5q0 -41 -23.5 -64.5t-64.5 -23.5q-37 0 -60.5 23.5t-23.5 62.5z" />
<glyph unicode="&#xf7;" horiz-adv-x="1310" d="M47 655v121h1217v-121h-1217zM532 1147q0 55 34 89t89 34q51 0 86 -34t35 -89q0 -53 -34.5 -87t-86 -34t-87.5 34t-36 87zM532 299q0 53 35 87t88 34q51 0 86 -33t35 -88t-34.5 -89t-86 -34t-87.5 34t-36 89z" />
<glyph unicode="&#xf8;" horiz-adv-x="1017" d="M82 506q0 254 108.5 406.5t327.5 152.5q123 0 219 -61l72 120h115l-111 -186q123 -141 123 -403q0 -254 -108.5 -407t-327.5 -153q-121 0 -217 58l-74 -127h-111l111 190q-127 140 -127 410zM215 518q0 -193 61 -305l402 688q-70 59 -170 60q-147 0 -220 -116t-73 -327z M342 135q68 -55 168 -55q147 0 220 115.5t73 326.5q0 184 -60 295z" />
<glyph unicode="&#xf9;" horiz-adv-x="1067" d="M143 379v670h129v-650q0 -55 2 -86.5t15.5 -80t39 -74t75 -45t120.5 -19.5q98 0 179 56.5t81 168.5v730h129v-1041l-125 -16v139q-4 -6 -10 -16.5t-31.5 -35t-57.5 -44t-87 -35.5t-119 -16q-154 0 -237 77q-103 95 -103 318zM315 1413l72 115l365 -254l-52 -80z" />
<glyph unicode="&#xfa;" horiz-adv-x="1067" d="M143 379v670h129v-650q0 -55 2 -86.5t15.5 -80t39 -74t75 -45t120.5 -19.5q98 0 179 56.5t81 168.5v730h129v-1041l-125 -16v139q-4 -6 -10 -16.5t-31.5 -35t-57.5 -44t-87 -35.5t-119 -16q-154 0 -237 77q-103 95 -103 318zM344 1274l365 254l71 -115l-385 -219z" />
<glyph unicode="&#xfb;" horiz-adv-x="1067" d="M143 379v670h129v-650q0 -55 2 -86.5t15.5 -80t39 -74t75 -45t120.5 -19.5q98 0 179 56.5t81 168.5v730h129v-1041l-125 -16v139q-4 -6 -10 -16.5t-31.5 -35t-57.5 -44t-87 -35.5t-119 -16q-154 0 -237 77q-103 95 -103 318zM221 1272l311 252l312 -252l-58 -78l-254 174 l-253 -174z" />
<glyph unicode="&#xfc;" horiz-adv-x="1067" d="M143 379v670h129v-650q0 -55 2 -86.5t15.5 -80t39 -74t75 -45t120.5 -19.5q98 0 179 56.5t81 168.5v730h129v-1041l-125 -16v139q-4 -6 -10 -16.5t-31.5 -35t-57.5 -44t-87 -35.5t-119 -16q-154 0 -237 77q-103 95 -103 318zM285 1337q0 39 23.5 63.5t64.5 24.5 q37 0 60.5 -23.5t23.5 -62.5q0 -41 -23.5 -64.5t-64.5 -23.5q-37 0 -60.5 23.5t-23.5 62.5zM614 1337q0 39 25 63.5t63 24.5q37 0 60.5 -23.5t23.5 -62.5q0 -41 -24.5 -64.5t-63.5 -23.5q-37 0 -60.5 23.5t-23.5 62.5z" />
<glyph unicode="&#xfd;" horiz-adv-x="858" d="M-27 -340q31 -29 123 -29q68 0 113 45t80 140l80 217l-373 1016h137l254 -719q18 -51 29.5 -92t13.5 -56l2 -14q14 66 47 160l254 721h125l-432 -1188q-25 -68 -39 -102.5t-43 -86t-59.5 -78t-79.5 -46t-111 -19.5q-33 0 -60.5 5t-39.5 11l-12 4zM272 1274l365 254 l72 -115l-385 -219z" />
<glyph unicode="&#xfe;" horiz-adv-x="1042" d="M154 -471v2021l125 27v-655l10 15q6 9 30.5 33.5t53 44t79 35t105.5 15.5q203 0 303.5 -147.5t100.5 -368.5q0 -299 -125 -432t-320 -133q-150 2 -233 75v-530h-129zM283 164q8 -8 24.5 -21.5t74.5 -35t126 -21.5q319 0 319 442q0 231 -76.5 328.5t-220.5 97.5 q-115 0 -181 -60t-66 -159v-571z" />
<glyph unicode="&#xff;" horiz-adv-x="858" d="M-27 -340q31 -29 123 -29q68 0 113 45t80 140l80 217l-373 1016h137l254 -719q18 -51 29.5 -92t13.5 -56l2 -14q14 66 47 160l254 721h125l-432 -1188q-25 -68 -39 -102.5t-43 -86t-59.5 -78t-79.5 -46t-111 -19.5q-33 0 -60.5 5t-39.5 11l-12 4zM174 1337 q0 39 23.5 63.5t64.5 24.5q37 0 60.5 -23.5t23.5 -62.5q0 -41 -23.5 -64.5t-64.5 -23.5q-37 0 -60.5 23.5t-23.5 62.5zM504 1337q0 39 24.5 63.5t63.5 24.5q37 0 60.5 -23.5t23.5 -62.5q0 -41 -24.5 -64.5t-63.5 -23.5q-37 0 -60.5 23.5t-23.5 62.5z" />
<glyph unicode="&#x152;" horiz-adv-x="1681" d="M78 686q0 373 153.5 574.5t444.5 201.5q119 0 244 -22h686v-109h-555v-532h467v-109h-467v-581h589l-6 -109h-714q-119 -23 -244 -23q-285 0 -441.5 185.5t-156.5 523.5zM217 713q0 -627 449 -627q154 0 249 37v1184q-100 45 -247 45q-451 0 -451 -639z" />
<glyph unicode="&#x153;" horiz-adv-x="1679" d="M82 506q0 254 108.5 406.5t327.5 152.5q248 0 348 -229q100 229 357 229q383 0 383 -498v-32h-676q0 -221 73.5 -335t266.5 -114q84 0 154.5 27.5t99.5 54.5l30 29l-12 -136q-10 -8 -29.5 -21t-98.5 -34.5t-177 -21.5q-283 0 -375 221q-100 -229 -362 -230 q-195 0 -306.5 139.5t-111.5 391.5zM215 518q0 -190 68.5 -314t226.5 -124q147 0 220 115.5t73 326.5q0 190 -68.5 314.5t-226.5 124.5q-147 0 -220 -116t-73 -327zM934 633h539q0 332 -259 332q-70 0 -123 -27t-81.5 -64.5t-47 -87t-23.5 -86t-5 -67.5z" />
<glyph unicode="&#x178;" horiz-adv-x="1089" d="M4 1440h156l393 -754l408 754h143l-488 -871v-569h-135v563zM315 1675q0 41 25 64.5t63 23.5q37 0 60.5 -23.5t23.5 -62.5t-24.5 -63.5t-63.5 -24.5q-37 0 -60.5 23.5t-23.5 62.5zM645 1675q0 41 23.5 64.5t64.5 23.5q37 0 60.5 -23.5t23.5 -62.5t-23.5 -63.5 t-64.5 -24.5q-37 0 -60.5 23.5t-23.5 62.5z" />
<glyph unicode="&#x2c6;" horiz-adv-x="1024" d="M193 1272l311 252l311 -252l-57 -78l-254 174l-254 -174z" />
<glyph unicode="&#x2dc;" horiz-adv-x="1024" d="M268 1290l5 16q3 9 16.5 32.5t32 42t51.5 32.5t73 14q47 0 107 -26l51 -23q45 -20 78 -20q66 2 94 69l80 -51l-5 -15q-3 -9 -16.5 -32.5t-32 -42t-51 -33t-73.5 -14.5q-47 0 -107 27l-51 22q-45 20 -78 21q-66 -2 -94 -70z" />
<glyph unicode="&#x2013;" horiz-adv-x="1024" d="M0 494v102h1024v-102h-1024z" />
<glyph unicode="&#x2014;" horiz-adv-x="2048" d="M0 494v102h2048v-102h-2048z" />
<glyph unicode="&#x2018;" horiz-adv-x="415" d="M109 1110v27q0 195 133 448l104 -35q-82 -205 -82 -379q0 -41 2 -61h-157z" />
<glyph unicode="&#x2019;" horiz-adv-x="405" d="M98 1137q82 205 82 379q0 41 -2 61h158v-27q0 -195 -133 -448z" />
<glyph unicode="&#x201a;" horiz-adv-x="405" d="M41 -252q82 205 82 379q0 41 -2 61h158v-26q0 -195 -134 -449z" />
<glyph unicode="&#x201c;" horiz-adv-x="753" d="M109 1110v27q0 195 133 448l104 -35q-82 -205 -82 -379q0 -41 2 -61h-157zM446 1110v27q0 195 134 448l104 -35q-82 -205 -82 -379q0 -41 2 -61h-158z" />
<glyph unicode="&#x201d;" horiz-adv-x="743" d="M98 1137q82 205 82 379q0 41 -2 61h158v-27q0 -195 -133 -448zM436 1137q82 205 82 379q0 41 -2 61h158v-27q0 -195 -133 -448z" />
<glyph unicode="&#x201e;" horiz-adv-x="743" d="M41 -252q82 205 82 379q0 41 -2 61h158v-26q0 -195 -134 -449zM379 -252q82 205 82 379q0 41 -2 61h157v-26q0 -195 -133 -449z" />
<glyph unicode="&#x2022;" horiz-adv-x="1060" d="M215 598q0 131 92 224t223 93q129 0 222.5 -93t93.5 -224t-93.5 -225t-222.5 -94q-131 0 -223 93t-92 226z" />
<glyph unicode="&#x2026;" horiz-adv-x="1630" d="M104 92q0 53 31 87t82 34q49 0 82 -33t33 -86q0 -55 -31 -90t-82 -35q-53 0 -84 33t-31 90zM719 92q0 53 30.5 87t81.5 34q49 0 82 -33t33 -86q0 -55 -30.5 -90t-81.5 -35q-53 0 -84 33t-31 90zM1315 92q0 53 30.5 87t81.5 34q49 0 82 -33t33 -86q0 -55 -30.5 -90 t-81.5 -35q-53 0 -84 33t-31 90z" />
<glyph unicode="&#x2039;" horiz-adv-x="530" d="M102 516l215 408h127l-190 -406l190 -407h-127z" />
<glyph unicode="&#x203a;" horiz-adv-x="530" d="M86 111l190 405l-190 408h127l215 -406l-215 -407h-127z" />
<glyph unicode="&#x20ac;" d="M-6 498l20 102h146q-2 31 -2 98q0 70 2 105h-142l21 102h131q18 145 68 252q68 145 187.5 224t272.5 79q88 0 161 -21.5t102 -41.5l28 -21v-143q-10 12 -31.5 31.5t-96.5 51.5t-163 32q-223 0 -329 -215q-45 -94 -64 -228h533l-21 -102h-520q-2 -27 -2 -88q0 -49 4 -115 h479l-20 -102h-453q10 -78 33.5 -144.5t65.5 -127t116 -95.5t170 -35q176 0 293 99l6 6l-12 -146q-98 -72 -295 -71q-92 0 -169 23.5t-127 58t-90 88t-61.5 97.5t-38 100.5t-20.5 84t-8 62.5h-174z" />
<glyph unicode="&#x2122;" horiz-adv-x="1794" d="M59 1341v99h596v-99h-239v-708h-119v708h-238zM782 633v807h172l215 -586l19 -70q14 49 24 74l224 582h159v-807h-110v667q-18 -57 -31 -86l-229 -581h-90l-220 596l-22 76v-672h-111z" />
<glyph unicode="&#xe000;" horiz-adv-x="1050" d="M0 1050h1050v-1050h-1050v1050z" />
<glyph unicode="&#xfb01;" horiz-adv-x="985" d="M96 946v103h111v159q0 160 53 240q86 129 297 129q143 0 234 -49q63 -37 63 -94q0 -37 -21.5 -60.5t-58.5 -23.5q-80 0 -80 86v14q-43 27 -137 27q-141 0 -195 -97q-27 -49 -26 -159v-172h506v-1049h-129v946h-377v-946h-129v946h-111z" />
<glyph unicode="&#xfb02;" horiz-adv-x="1005" d="M96 946v103h111v180q0 141 53 219q86 129 297 129q84 0 172 -27l123 27v-1577h-129v1432q-82 45 -170 45q-137 0 -191 -97q-27 -47 -26 -151v-180h215v-103h-215v-946h-129v946h-111z" />
<glyph unicode="&#xfb03;" horiz-adv-x="1615" d="M96 946v103h111v215q0 152 43 219q59 94 205 94q43 0 77.5 -7t49.5 -14l14 -8l-12 -108q-31 35 -121 35q-72 0 -105 -52q-23 -35 -22 -139v-235h215v-103h-215v-946h-129v946h-111zM686 946v103h111v215q0 152 43 219q59 94 204 94q43 0 78 -7t49 -14l15 -8l-12 -108 q-31 35 -121 35q-72 0 -105 -52q-23 -35 -22 -139v-235h215v-103h-215v-946h-129v946h-111zM1315 1421q0 39 22.5 62.5t61.5 23.5q37 0 60.5 -22.5t23.5 -59.5q0 -39 -23.5 -62.5t-62.5 -23.5q-35 0 -58.5 22.5t-23.5 59.5zM1333 0v1049h129v-1049h-129z" />
<glyph unicode="&#xfb04;" horiz-adv-x="1615" d="M96 946v103h111v215q0 152 43 219q59 94 205 94q43 0 77.5 -7t49.5 -14l14 -8l-12 -108q-31 35 -121 35q-72 0 -105 -52q-23 -35 -22 -139v-235h215v-103h-215v-946h-129v946h-111zM686 946v103h111v215q0 152 43 219q59 94 204 94q43 0 78 -7t49 -14l15 -8l-12 -108 q-31 35 -121 35q-72 0 -105 -52q-23 -35 -22 -139v-235h215v-103h-215v-946h-129v946h-111zM1333 0v1550l129 27v-1577h-129z" />
</font>
</defs>
</svg>
