<?xml version="1.0" standalone="no"?>
<!DOCTYPE svg PUBLIC "-//W3C//DTD SVG 1.1//EN" "http://www.w3.org/Graphics/SVG/1.1/DTD/svg11.dtd" >
<svg xmlns="http://www.w3.org/2000/svg">
<metadata>
This is a custom SVG webfont generated by Font Squirrel.
Copyright   : c Copyright Gerard Unger 2005 Exclusive design for Allianz International Produced by Novatype a division of Visualogik Technology  Design bv 2005  Unauthorised use strictly prohibited Allianz Sans and Allianz Serif are trademarks of Allianz International that may be registered in some jurisdictions ALL RIGHTS RESERVED
Designer    : Gerard Unger 2005
Foundry     : Custom produced for Allianz International by Novatype a division of Visualogik Technology  Design bv
Foundry URL : httpwwwvisualogikcom
</metadata>
<defs>
<font id="AllianzSansRegular" horiz-adv-x="1067" >
<font-face units-per-em="2048" ascent="1577" descent="-471" />
<missing-glyph horiz-adv-x="409" />
<glyph unicode=" "  horiz-adv-x="409" />
<glyph unicode="&#x09;" horiz-adv-x="409" />
<glyph unicode="&#xa0;" horiz-adv-x="409" />
<glyph unicode="!" horiz-adv-x="555" d="M147 115q0 59 35 96t92.5 37t93 -37t35.5 -94q0 -63 -33.5 -101.5t-93 -38.5t-94.5 37.5t-35 100.5zM178 1409l195 31l-13 -1084h-167z" />
<glyph unicode="&#x22;" horiz-adv-x="612" d="M90 1440h168l-25 -443h-118zM354 1440h168l-24 -443h-119z" />
<glyph unicode="#" horiz-adv-x="1204" d="M-14 399l24 121h234l75 400h-235l22 120h238l76 400h139l-78 -400h346l74 400h141l-77 -400h235l-20 -120h-238l-76 -400h236l-23 -121h-237l-74 -399h-139l76 399h-345l-75 -399h-140l76 399h-235zM383 520h344l78 400h-346z" />
<glyph unicode="$" horiz-adv-x="1075" d="M76 272q12 -14 38.5 -35.5t119 -57.5t198.5 -36v516l-65 41q-63 41 -95 63.5t-79.5 71t-69 110t-21.5 140.5q0 147 81 246t249 121v184l141 23v-203q82 -4 152 -25.5t98 -41.5l29 -19v-190q-10 10 -31.5 27.5t-93.5 49t-154 37.5v-469l72 -43q119 -72 186.5 -158.5 t67.5 -234.5q0 -160 -83 -263t-243 -132v-211h-141v199q-104 2 -190 24.5t-119 44.5l-35 23zM295 1102q0 -131 137 -215v397q-137 -32 -137 -182zM573 160q131 51 132 209q0 82 -30 132t-102 95v-436z" />
<glyph unicode="%" horiz-adv-x="1265" d="M0 1120q0 156 90 248t246 92q150 0 238 -86t88 -233.5t-92.5 -244.5t-241.5 -97q-147 0 -237.5 88t-90.5 233zM57 0l987 1444h162l-987 -1444h-162zM162 1128q0 -90 40 -147t124 -57q86 0 131 59t45 150q0 92 -43 150t-129 58t-127 -60.5t-41 -152.5zM604 301 q0 156 90 248t246 92q147 0 236.5 -87t89.5 -232q0 -147 -92.5 -244.5t-239.5 -97.5q-150 0 -240 88t-90 233zM766 309q0 -90 40 -147.5t126 -57.5t130 58.5t44 151t-42 149.5t-128 57t-128 -58.5t-42 -152.5z" />
<glyph unicode="&#x26;" horiz-adv-x="1429" d="M143 399q0 242 199 363l64 31l-21 22q-86 94 -125 168t-39 166q0 51 16.5 99t52.5 98.5t109.5 81t175.5 30.5q111 0 188 -32.5t109.5 -86t46 -98.5t13.5 -92q0 -78 -27.5 -147.5t-60.5 -109.5t-80 -75t-64.5 -44t-35.5 -17l364 -416q51 57 51 240l-4 79h187v-28 q0 -186 -43 -291q-33 -80 -74 -121l188 -219h-235l-86 94q-162 -111 -387 -110q-129 0 -232.5 35.5t-176.5 132.5t-73 247zM336 414q0 -129 76.5 -204t238.5 -75q76 0 139.5 19.5t90.5 38.5l24 20l-411 471q-6 -2 -17.5 -7t-38 -27.5t-47 -50.5t-38 -77t-17.5 -108z M408 1153q0 -51 23.5 -102.5t45 -79t68.5 -78.5l33 -37q6 4 18 10t42 30t52.5 53.5t41 80.5t18.5 111q0 180 -179 180q-92 0 -127.5 -51t-35.5 -117z" />
<glyph unicode="'" horiz-adv-x="348" d="M90 1440h168l-25 -443h-118z" />
<glyph unicode="(" horiz-adv-x="782" d="M111 565q0 545 366 934q51 51 82 78h207q-233 -215 -345 -460t-112 -558q0 -324 113 -560.5t340 -469.5h-203q-39 31 -76 70q-372 405 -372 966z" />
<glyph unicode=")" horiz-adv-x="782" d="M16 -471q233 215 345 459.5t112 558.5q0 324 -112.5 560t-340.5 470h203q39 -31 76 -70q373 -406 373 -966q0 -545 -367 -934q-51 -51 -82 -78h-207z" />
<glyph unicode="*" horiz-adv-x="761" d="M43 1024l266 109l-266 112l80 133l217 -174l-41 289h168l-43 -289l221 174l76 -133l-264 -112l264 -109l-76 -135l-221 176l43 -285h-168l41 285l-217 -176z" />
<glyph unicode="+" horiz-adv-x="1310" d="M47 647v144h531v555h153v-555h533v-144h-533v-563h-153v563h-531z" />
<glyph unicode="," horiz-adv-x="419" d="M35 -242q84 209 84 375v100h207v-32q0 -240 -144 -494z" />
<glyph unicode="-" horiz-adv-x="665" d="M84 457v176h498v-176h-498z" />
<glyph unicode="." horiz-adv-x="487" d="M109 115q0 66 36.5 104.5t96 38.5t98.5 -39t39 -102q0 -66 -37 -106t-98.5 -40t-98 38t-36.5 106z" />
<glyph unicode="/" horiz-adv-x="768" d="M0 -362l518 1939h182l-520 -1939h-180z" />
<glyph unicode="0" d="M78 702q0 387 115.5 571.5t349.5 184.5q227 0 336.5 -176t109.5 -549q0 -387 -114.5 -571.5t-348.5 -184.5q-229 0 -338.5 176t-109.5 549zM279 711q0 -303 58 -439.5t195 -136.5q139 0 197.5 140.5t58.5 451.5q0 303 -58 439.5t-195 136.5q-139 0 -197.5 -140.5 t-58.5 -451.5z" />
<glyph unicode="1" d="M193 1155v158q88 12 195.5 50t166.5 81h125v-1444h-197v1206z" />
<glyph unicode="2" d="M96 0v178q217 195 410 404q106 119 155.5 217t49.5 223q0 274 -281 274q-193 0 -305 -108l-8 -8v192q12 10 36.5 24.5t114.5 38t197 23.5q84 0 157.5 -19.5t141 -63.5t107.5 -129t40 -204q0 -158 -65.5 -287.5t-214.5 -283.5l-151 -149q-79 -76 -124 -113l-43 -39h598 v-170h-815z" />
<glyph unicode="3" d="M76 270q4 -6 12 -14t38 -30.5t65.5 -39t97 -31t129.5 -14.5q307 0 307 275q0 68 -24.5 117t-57.5 74.5t-84 40t-88 17.5t-84 3h-51v147h39q143 0 221 67.5t78 190.5q0 225 -234 225q-57 0 -110.5 -12t-87 -28.5t-60 -34t-39.5 -29.5l-10 -12v194q12 10 37 23.5t110 37 t183 23.5q190 0 300.5 -87t110.5 -267q0 -82 -25.5 -149.5t-61 -103.5t-71.5 -60.5t-61 -32.5l-26 -8q12 0 31.5 -2t70.5 -21.5t91 -53.5t72 -105.5t32 -170.5q0 -178 -120 -298.5t-372 -120.5q-102 0 -189 22.5t-122 44.5l-35 23z" />
<glyph unicode="4" horiz-adv-x="1069" d="M43 346v182l608 918h213v-936h154v-164h-154v-346h-194v346h-627zM219 510h451v696q-31 -66 -92 -157z" />
<glyph unicode="5" d="M115 270q4 -6 11 -14t34.5 -30.5t60.5 -39t90.5 -31t120.5 -14.5q160 0 238 88t78 234q0 297 -304 297q-174 0 -278 -66v746h737v-168h-567v-389q59 29 182 28q119 0 206 -38.5t133 -106.5t67.5 -141.5t21.5 -155.5q0 -217 -122 -353t-373 -136q-94 0 -175 22.5 t-116 44.5l-33 23z" />
<glyph unicode="6" d="M94 670q0 401 129 594.5t414 193.5q92 0 171 -22.5t110 -42.5l32 -23v-196q-10 14 -31.5 34.5t-102.5 54t-179 33.5q-86 0 -149.5 -28.5t-98.5 -72.5t-56.5 -108.5t-27.5 -124t-6 -133.5q12 10 34.5 25.5t96.5 40.5t154 25q172 0 287.5 -105.5t115.5 -333.5 q0 -250 -121 -374.5t-323 -124.5q-246 0 -347.5 175t-101.5 513zM297 651q0 -84 2 -140t10 -122.5t23.5 -107.5t42 -78t67.5 -54.5t97 -17.5q250 0 249 334q0 293 -260 293q-131 -2 -231 -80v-27z" />
<glyph unicode="7" d="M113 1272v168h829v-111q0 -193 -102 -381l-181 -332q-74 -137 -97 -234t-23 -235v-147h-199v170q0 227 141 494l148 276q109 203 108 283v49h-624z" />
<glyph unicode="8" d="M84 340q0 90 30.5 165t74.5 117t88.5 69.5t74.5 37.5l31 10l-45 27q-215 127 -215 338q0 176 114.5 266t301.5 90q180 0 290.5 -87t110.5 -251q0 -78 -26.5 -142.5t-64.5 -103t-77 -66.5t-65 -38l-27 -10l63 -39q72 -45 116 -81t85 -110.5t41 -169.5q0 -184 -123 -284.5 t-323 -100.5q-205 0 -330 85t-125 278zM279 356q0 -236 260 -235q113 0 180 60.5t67 170.5q0 94 -44 147.5t-138 108.5l-96 58q-10 -2 -25.5 -8.5t-54.5 -31t-69.5 -56t-55 -89t-24.5 -125.5zM311 1128q0 -82 34 -135t128 -108l88 -51q8 2 20.5 8t45 29.5t58.5 53t46.5 81 t20.5 110.5q0 207 -215 207q-109 0 -167.5 -53.5t-58.5 -141.5z" />
<glyph unicode="9" d="M78 956q0 250 122 376t324 126q246 0 346.5 -176t100.5 -514q0 -403 -126 -594.5t-417 -191.5q-195 2 -307 86l-12 200q4 -6 11 -14t35.5 -29.5t62.5 -39t91.5 -31t120.5 -13.5q88 0 150.5 30t96.5 70t54.5 111.5t26.5 121.5t10 134q-12 -10 -34.5 -25.5t-96.5 -40 t-154 -24.5q-174 0 -289.5 105.5t-115.5 332.5zM279 973q0 -293 258 -293q61 0 119.5 20.5t84.5 40.5l29 19v24q0 104 -3 169t-16.5 139.5t-39 116.5t-71.5 70t-114 28q-247 0 -247 -334z" />
<glyph unicode=":" horiz-adv-x="487" d="M109 115q0 66 36.5 104.5t96 38.5t98.5 -39t39 -102q0 -66 -37 -106t-98.5 -40t-98 38t-36.5 106zM109 922q0 66 36.5 104.5t96 38.5t98.5 -39t39 -102q0 -66 -37 -106t-98.5 -40t-98 38t-36.5 106z" />
<glyph unicode=";" horiz-adv-x="466" d="M53 -242q84 209 84 375v100h207v-32q0 -240 -143 -494zM102 922q0 66 37 104.5t96.5 38.5t98.5 -39t39 -102q0 -66 -37 -106t-98.5 -40t-98.5 38t-37 106z" />
<glyph unicode="&#x3c;" horiz-adv-x="1456" d="M47 674v88l1362 600v-158l-1128 -483l1128 -481v-164z" />
<glyph unicode="=" horiz-adv-x="1310" d="M47 387v145h1217v-145h-1217zM47 899v145h1217v-145h-1217z" />
<glyph unicode="&#x3e;" horiz-adv-x="1456" d="M49 76v164l1129 481l-1129 483v158l1362 -600v-88z" />
<glyph unicode="?" horiz-adv-x="907" d="M66 1180v192q14 10 40.5 24.5t115.5 39t188 24.5q178 0 292.5 -92t114.5 -274q0 -193 -164 -349l-129 -122q-53 -51 -69.5 -89t-16.5 -104v-72h-178v97q0 139 96 235l144 141q123 119 123 254q0 94 -65.5 154.5t-186.5 60.5q-82 0 -158 -29.5t-111 -60.5zM221 115 q0 59 35 96t92 37t93 -37t36 -94q0 -63 -33.5 -101.5t-93 -38.5t-94.5 37.5t-35 100.5z" />
<glyph unicode="@" horiz-adv-x="1953" d="M94 457q0 432 265.5 698t701.5 266q344 0 568 -193.5t224 -549.5q0 -436 -317 -604q-143 -78 -350 -78q-68 0 -125 4l43 242q-4 -10 -16.5 -34t-41 -63t-61.5 -69q-98 -90 -213 -90q-256 0 -256 358q0 137 26.5 260t83 229.5t156 170t230.5 63.5q139 -2 215 -72l176 70 l-150 -944q111 4 203 55q225 122 225 486q0 297 -161.5 455.5t-477.5 158.5q-96 0 -192 -21.5t-203.5 -79t-188.5 -145.5t-134.5 -236.5t-53.5 -336.5q0 -350 193.5 -541.5t566.5 -191.5q133 0 255 27.5t177 55.5l56 29l-11 -168q-18 -10 -55 -25.5t-162 -42t-266 -26.5 q-455 0 -692.5 236.5t-237.5 646.5zM700 365q0 -223 136 -224q84 0 174 111q109 135 129 260l55 358q-51 57 -160 58q-137 0 -221 -115q-113 -157 -113 -448z" />
<glyph unicode="A" horiz-adv-x="1179" d="M-4 0l487 1444h224l473 -1444h-205l-154 477h-481l-156 -477h-188zM387 631h387l-141 448q-33 102 -49 193q-18 -80 -54 -189z" />
<glyph unicode="B" horiz-adv-x="1075" d="M141 0v1440h299q262 0 361 -62q143 -90 143 -282q0 -86 -26.5 -154t-63.5 -101.5t-74 -55t-63 -27.5l-27 -4q12 0 32.5 -2t74 -22.5t94.5 -54.5t73.5 -106.5t32.5 -171.5q0 -119 -52 -210t-150 -136q-115 -51 -359 -51h-295zM338 817h119q287 0 286 246q0 135 -69.5 182 t-200.5 47h-135v-475zM338 147h160q139 0 219 56.5t80 212.5q0 84 -28 138t-79 77.5t-97 31t-110 7.5h-145v-523z" />
<glyph unicode="C" horiz-adv-x="1146" d="M72 692q0 291 100 467q170 299 555 299q227 0 365 -84l4 -4v-192q-12 12 -38 32.5t-117 53t-200 32.5q-223 0 -346 -145t-123 -428q0 -281 116 -430.5t345 -149.5q113 0 204 33t128 66l35 32l-15 -196q-12 -10 -37.5 -26.5t-125 -43t-224.5 -26.5q-317 0 -471.5 197.5 t-154.5 512.5z" />
<glyph unicode="D" horiz-adv-x="1294" d="M141 0v1440h330q193 0 295 -17.5t188 -70.5q268 -164 269 -611q0 -506 -320 -667q-150 -74 -461 -74h-301zM340 160h156q207 0 307 55q217 115 217 508q0 397 -213 508q-92 49 -289 49h-178v-1120z" />
<glyph unicode="E" horiz-adv-x="942" d="M141 0v1440h721v-164h-522v-455h434v-162h-434v-495h559l-8 -164h-750z" />
<glyph unicode="F" horiz-adv-x="884" d="M141 0v1440h721v-164h-522v-455h434v-162h-434v-659h-199z" />
<glyph unicode="G" horiz-adv-x="1265" d="M72 688q0 285 104 467q176 303 582 303q117 0 213 -22.5t135 -42.5l37 -23v-192q-12 12 -38 32.5t-124 53t-221 32.5q-131 0 -228.5 -46t-152.5 -128t-81 -181t-26 -218q0 -584 461 -584q137 0 213 37v463h197v-543q-14 -12 -43 -31.5t-141.5 -51t-253.5 -31.5 q-301 0 -467 188t-166 518z" />
<glyph unicode="H" horiz-adv-x="1290" d="M141 0v1440h199v-619h610v619h199v-1440h-199v655h-610v-655h-199z" />
<glyph unicode="I" horiz-adv-x="481" d="M141 0v1440h199v-1440h-199z" />
<glyph unicode="J" horiz-adv-x="557" d="M-23 176q43 -33 115 -33q76 0 103.5 40t27.5 116v1141h197v-1135q0 -47 -3 -79.5t-18.5 -82t-42 -80t-81 -54t-130.5 -23.5q-98 0 -153 24z" />
<glyph unicode="K" horiz-adv-x="1097" d="M141 0v1440h199v-666l543 666h225l-563 -670l565 -770h-244l-526 735v-735h-199z" />
<glyph unicode="L" horiz-adv-x="894" d="M141 0v1440h199v-1276h524l-8 -164h-715z" />
<glyph unicode="M" horiz-adv-x="1632" d="M141 0v1440h297l332 -1004q43 -129 45 -213q2 84 47 217l336 1000h293v-1440h-193v1309q-12 -145 -57 -283l-344 -1026h-180l-342 1026q-20 61 -34.5 132t-18.5 112l-5 39v-1309h-176z" />
<glyph unicode="N" horiz-adv-x="1298" d="M141 0v1440h203l518 -887q86 -147 119 -252v1139h176v-1440h-190l-545 922q-86 147 -105 221v-1143h-176z" />
<glyph unicode="O" horiz-adv-x="1318" d="M72 690q0 367 154.5 568.5t428.5 201.5q281 0 436.5 -185t155.5 -530q0 -367 -155.5 -567.5t-429.5 -200.5q-281 0 -435.5 184.5t-154.5 528.5zM274 713q0 -578 385 -578q186 0 285.5 146.5t99.5 441.5q0 578 -387 577q-383 1 -383 -587z" />
<glyph unicode="P" horiz-adv-x="1036" d="M141 0v1440h324q246 0 360 -70q162 -100 162 -342q0 -102 -25.5 -183t-71.5 -130t-96.5 -82t-114 -47.5t-108.5 -19.5t-94 -5h-137v-561h-199zM340 709h109q74 0 124 9t103 37.5t80.5 94t27.5 166.5q0 76 -21.5 130t-51 81.5t-78.5 43t-86 18.5t-92 3h-115v-583z" />
<glyph unicode="Q" horiz-adv-x="1318" d="M72 690q0 367 154.5 568.5t428.5 201.5q281 0 436.5 -185t155.5 -529.5t-137 -543t-383 -220.5q76 -178 285 -179q147 2 256 82v-161q-96 -70 -273 -70q-365 0 -460 334q-221 39 -342 219t-121 483zM274 713q0 -578 385 -578q186 0 285.5 146.5t99.5 441.5 q0 578 -387 577q-383 1 -383 -587z" />
<glyph unicode="R" horiz-adv-x="1073" d="M141 0v1440h289q254 0 356 -58q162 -94 162 -311q0 -106 -35.5 -187t-94 -125t-124 -65.5t-135.5 -21.5l500 -672h-242l-479 668v-668h-197zM338 788h127q281 0 280 263q0 143 -73.5 192t-210.5 49h-123v-504z" />
<glyph unicode="S" horiz-adv-x="948" d="M55 272q12 -14 39 -35.5t119 -57.5t199 -36q129 0 200.5 57.5t71.5 168.5q0 88 -36 134t-130 103l-172 103q-68 41 -97.5 61.5t-77.5 67.5t-68.5 107.5t-20.5 139.5q0 168 105.5 270.5t322.5 102.5q201 0 317 -84l4 -4v-190q-12 12 -35.5 31.5t-107.5 52t-178 32.5 q-236 0 -236 -194q0 -59 28 -105.5t58.5 -69t96.5 -59.5l168 -98q121 -70 187.5 -151.5t66.5 -229.5q0 -190 -118 -298.5t-339 -108.5q-223 0 -348 88l-6 4z" />
<glyph unicode="T" horiz-adv-x="1030" d="M10 1276v164h1020l-8 -164h-408v-1276h-196v1276h-408z" />
<glyph unicode="U" horiz-adv-x="1286" d="M133 563v877h197v-940q0 -61 3 -103.5t20.5 -95.5t49 -86t93 -55.5t147.5 -22.5q92 0 155.5 23.5t96.5 55.5t49.5 89t19.5 98t3 111v926h186v-830q0 -199 -15.5 -297t-76.5 -178q-121 -156 -410 -155q-291 0 -415 141q-63 70 -83 171t-20 271z" />
<glyph unicode="V" horiz-adv-x="1171" d="M-2 1440h209l340 -1055q33 -100 49 -192q16 82 51 190l344 1057h191l-494 -1446h-211z" />
<glyph unicode="W" horiz-adv-x="1857" d="M14 1440h213l252 -987q33 -135 47 -234q14 98 54 242l268 979h199l258 -989q37 -141 49 -232q16 113 49 234l258 987h192l-411 -1448h-205l-250 946l-53 213q-37 -156 -53 -211l-260 -948h-207z" />
<glyph unicode="X" horiz-adv-x="1181" d="M14 0l461 741l-432 699h227l340 -551l330 551h205l-440 -707l452 -733h-221l-363 584l-350 -584h-209z" />
<glyph unicode="Y" horiz-adv-x="1140" d="M-4 1440h225l357 -705l370 705h209l-487 -879v-561h-199v553z" />
<glyph unicode="Z" horiz-adv-x="1130" d="M66 0v139l747 1137h-690v164h938v-140l-754 -1136h746l-9 -164h-978z" />
<glyph unicode="[" horiz-adv-x="663" d="M152 -471v2048h360v-135h-178v-1778h178v-135h-360z" />
<glyph unicode="\" horiz-adv-x="765" d="M66 1577h180l518 -1939h-178z" />
<glyph unicode="]" horiz-adv-x="663" d="M152 -336h178v1778h-178v135h360v-2048h-360v135z" />
<glyph unicode="^" horiz-adv-x="1140" d="M82 479l440 1073h94l443 -1073h-172l-320 809l-315 -809h-170z" />
<glyph unicode="_" horiz-adv-x="1024" d="M0 -162h1024v-80h-1024v80z" />
<glyph unicode="`" horiz-adv-x="1024" d="M276 1417l91 142l372 -263l-67 -102z" />
<glyph unicode="a" horiz-adv-x="966" d="M70 299q0 92 32.5 158.5t73.5 99.5t114 53.5t116 24.5t114 8l125 6v84q0 33 -2 52.5t-12 51t-30.5 49t-61.5 32t-101 14.5q-51 0 -96 -11.5t-74.5 -25.5t-51 -29.5t-32.5 -25.5l-10 -13v164q10 8 30.5 22.5t100.5 37t180 22.5q96 0 165 -23.5t103.5 -54t54 -83t23 -88.5 t3.5 -91v-725l-183 -16v137q-2 -6 -8 -15.5t-28.5 -34t-51 -44t-80 -34.5t-112.5 -15q-150 0 -225.5 91t-75.5 222zM260 309q0 -70 41 -122t141 -52q88 0 146.5 55.5t58.5 137.5v196l-123 -10q-131 -10 -197.5 -52t-66.5 -153z" />
<glyph unicode="b" horiz-adv-x="1079" d="M141 -16v1564l193 29v-639q2 6 8 15.5t29.5 33t52.5 42t77 32.5t103 14q197 0 298.5 -143.5t101.5 -378.5q0 -164 -39 -280.5t-106.5 -177t-141.5 -86t-162 -25.5q-74 0 -136.5 20.5t-88.5 40.5l-27 23zM334 201q6 -8 20.5 -20.5t64.5 -32t109 -19.5q279 0 279 399 q0 209 -65.5 298t-192.5 89q-98 0 -156.5 -53t-58.5 -145v-516z" />
<glyph unicode="c" horiz-adv-x="884" d="M76 518q0 109 22.5 203t72.5 176t143.5 130t220.5 48q94 0 167.5 -19.5t100.5 -37.5l26 -19v-170q-8 10 -26.5 26.5t-85 43.5t-144.5 27q-43 0 -76.5 -6.5t-78.5 -29t-75 -63.5t-51.5 -117.5t-21.5 -181.5q0 -397 318 -397q74 0 136 25.5t87 52.5l25 24l-13 -174 q-10 -8 -29.5 -21t-95 -34.5t-168.5 -21.5q-63 0 -119.5 11t-120 46t-109.5 91t-75.5 156.5t-29.5 231.5z" />
<glyph unicode="d" horiz-adv-x="1077" d="M76 504q0 166 39 282.5t106.5 177t140 86t160.5 25.5q68 0 123 -19.5t78 -39.5l22 -19v551l191 29v-1569l-186 -16v135q-2 -6 -9.5 -15.5t-31 -34t-52 -44t-78 -34.5t-106.5 -15q-195 0 -296 142t-101 378zM270 528q0 -207 65.5 -296t194.5 -89q96 0 155.5 53.5 t59.5 145.5v514q-6 8 -20 20.5t-65.5 32t-110.5 19.5q-279 -1 -279 -400z" />
<glyph unicode="e" horiz-adv-x="995" d="M76 518q0 256 111.5 406.5t334.5 150.5q127 0 212 -48t124 -134t53.5 -168t14.5 -186v-33h-658q0 -182 69 -280.5t255 -98.5q84 0 155.5 26.5t100.5 51.5l31 26l-13 -172q-10 -8 -30.5 -21t-104.5 -34.5t-188 -21.5q-467 -1 -467 536zM272 643h463q0 297 -221 297 q-76 0 -128 -33t-74.5 -86t-31 -95t-8.5 -83z" />
<glyph unicode="f" horiz-adv-x="593" d="M68 918v141h110v174q0 170 49 242q72 102 236 102q49 0 91 -8t58 -17l17 -6l-13 -149q-31 35 -120 35q-72 0 -103 -48q-25 -39 -24 -139v-186h211v-141h-211v-918h-191v918h-110z" />
<glyph unicode="g" horiz-adv-x="1075" d="M76 508q0 162 39 278.5t105.5 177t139 86t156.5 25.5q154 -2 232 -80v64h186v-1063q0 -213 -66 -301q-121 -166 -401 -166q-102 0 -185 20.5t-114 40.5l-31 19l-10 174q12 -12 35.5 -30.5t105.5 -48.5t172 -30q184 0 256 99q47 61 47 198v158l-10 -15q-6 -9 -29.5 -33 t-52 -42.5t-77 -33.5t-103.5 -15q-195 0 -295 145.5t-100 372.5zM270 532q0 -213 69 -296.5t189 -83.5q96 0 155.5 52t59.5 144v508q-6 8 -20 20.5t-64.5 32t-109.5 19.5q-279 -1 -279 -396z" />
<glyph unicode="h" horiz-adv-x="1095" d="M141 0v1548l193 29v-647l10 15q6 9 30.5 35t55.5 45t84 34.5t115 15.5q150 0 237 -82q100 -92 101 -311v-682h-191v639q0 47 -2 75.5t-13 71.5t-32.5 67t-66 42t-105.5 18q-86 0 -154.5 -49t-68.5 -149v-715h-193z" />
<glyph unicode="i" horiz-adv-x="473" d="M123 1413q0 55 32.5 84t82.5 29q53 0 83.5 -29t30.5 -78q0 -55 -32.5 -82.5t-81.5 -27.5q-53 0 -84 28.5t-31 75.5zM141 0v1059h193v-1059h-193z" />
<glyph unicode="j" horiz-adv-x="485" d="M-94 -295q45 -29 106 -29q86 0 114 45.5t28 131.5v1206h190v-1219q0 -311 -291 -311q-88 0 -137 22zM135 1413q0 55 32 83t83 28t83 -29t32 -76q0 -55 -33 -83.5t-84 -28.5t-82 28.5t-31 77.5z" />
<glyph unicode="k" horiz-adv-x="923" d="M141 0v1548l193 29v-991l385 473h215l-402 -473l400 -586h-230l-368 553v-553h-193z" />
<glyph unicode="l" horiz-adv-x="475" d="M141 0v1548l193 29v-1577h-193z" />
<glyph unicode="m" horiz-adv-x="1716" d="M141 0v1059h189v-131q4 6 10 16t30.5 35t55.5 44t85 35.5t116 16.5q193 0 274 -129l12 -24l12 16q7 10 34.5 36.5t61.5 47t93.5 37t126.5 16.5q158 0 244 -80q102 -92 102 -311v-684h-190v639q0 49 -2 77.5t-13.5 70.5t-33 66t-63.5 42t-103 18q-88 0 -154.5 -50 t-66.5 -148v-715h-193v639q0 49 -2 77.5t-13.5 71.5t-33 67t-63.5 41t-101 17q-88 0 -154.5 -50t-66.5 -148v-715h-193z" />
<glyph unicode="n" horiz-adv-x="1095" d="M141 0v1059h189v-131q4 6 10 16t31.5 35t56.5 44t85 35.5t116 16.5q150 0 237 -82q100 -92 101 -311v-682h-191v639q0 47 -2 75.5t-13 71.5t-32.5 67t-66 42t-105.5 18q-86 0 -154.5 -49t-68.5 -149v-715h-193z" />
<glyph unicode="o" horiz-adv-x="1048" d="M76 510q0 262 115.5 413.5t340.5 151.5q205 0 323 -138t118 -396q0 -262 -116 -414t-341 -152q-205 0 -322.5 138.5t-117.5 396.5zM270 524q0 -401 254 -401t254 403q0 401 -254 401t-254 -403z" />
<glyph unicode="p" horiz-adv-x="1079" d="M141 -471v1530h189v-129q2 6 8 15t29.5 35t52.5 45t78 34.5t106 15.5q197 0 298.5 -143.5t101.5 -378.5q0 -164 -39 -280.5t-106.5 -177t-140.5 -86t-161 -25.5q-66 0 -122 18t-79 39l-22 18v-530h-193zM334 201q6 -8 20.5 -20.5t64.5 -32t109 -19.5q279 0 279 399 q0 209 -65.5 298t-192.5 89q-98 0 -156.5 -53t-58.5 -145v-516z" />
<glyph unicode="q" horiz-adv-x="1077" d="M76 504q0 166 39 282.5t106.5 177t140 86t160.5 25.5q68 0 124 -19.5t79 -39.5l25 -21v64h186v-1530h-188v598q-92 -143 -275 -143q-195 0 -296 142t-101 378zM270 528q0 -207 65.5 -296t194.5 -89q96 0 155.5 53.5t59.5 145.5v514q-6 8 -20 20.5t-65.5 32t-110.5 19.5 q-279 -1 -279 -400z" />
<glyph unicode="r" horiz-adv-x="702" d="M141 0v1059h187v-150q2 6 7 17.5t25.5 40t45 50t66.5 40t91 18.5q41 0 76 -9t49 -17l14 -11l-18 -172q-45 47 -152 47q-102 0 -150 -70.5t-48 -166.5v-676h-193z" />
<glyph unicode="s" horiz-adv-x="800" d="M66 240q12 -12 33.5 -31t98 -50.5t164.5 -31.5q190 0 191 137q0 57 -26.5 89t-108.5 77l-115 64q-47 25 -76.5 45t-64.5 56t-52.5 84t-17.5 109q0 287 336 287q170 -2 262 -78v-168q-10 12 -30.5 28.5t-86 45.5t-137.5 29q-98 0 -132 -40t-34 -87q0 -45 19.5 -76t42 -45 t78.5 -43l116 -59q98 -49 152.5 -115t54.5 -176q0 -74 -23.5 -130.5t-59.5 -89t-87 -53t-97 -27.5t-97 -7q-90 0 -163 20.5t-102 40.5l-28 21z" />
<glyph unicode="t" horiz-adv-x="647" d="M53 918v141h111v186l190 45v-231h252v-141h-252v-613q0 -86 23 -123q35 -51 104 -51q92 0 129 41l-8 -152q-55 -35 -170 -34q-156 0 -221 96q-47 66 -47 242v594h-111z" />
<glyph unicode="u" horiz-adv-x="1095" d="M129 375v684h193v-643q0 -49 2 -77t13 -71t32.5 -65.5t64.5 -40t105 -17.5q86 0 155.5 49.5t69.5 149.5v715h190v-1051l-186 -16v139q-4 -6 -10 -16.5t-32 -35t-57.5 -44t-86 -35.5t-117.5 -16q-150 0 -234 77q-102 95 -102 314z" />
<glyph unicode="v" horiz-adv-x="905" d="M-4 1059h201l213 -682l49 -195q16 84 51 193l217 684h184l-364 -1067h-195z" />
<glyph unicode="w" horiz-adv-x="1486" d="M6 1059h199l172 -670q31 -117 47 -211q35 162 49 211l189 670h188l176 -670q25 -92 45 -215q16 96 49 215l185 670h180l-328 -1067h-199l-167 624l-50 197q-39 -156 -53 -205l-176 -616h-197z" />
<glyph unicode="x" horiz-adv-x="944" d="M16 0l355 543l-332 516h215l238 -375l225 375h198l-333 -514l346 -545h-209l-260 406l-242 -406h-201z" />
<glyph unicode="y" horiz-adv-x="905" d="M-16 -289q45 -33 133 -33q74 0 119 40t75 128l51 144l-366 1069h201l215 -680q41 -127 47 -180q14 72 47 174l221 686h184l-417 -1209q-57 -162 -135 -241.5t-224 -79.5l-143 25z" />
<glyph unicode="z" horiz-adv-x="901" d="M66 0v119l538 801h-500v139h725v-119l-538 -801h538l-8 -139h-755z" />
<glyph unicode="{" horiz-adv-x="823" d="M92 502v125q195 0 195 270v352q0 70 9 120t35.5 100.5t84 76t145.5 25.5q86 0 137 -19l-10 -137q-41 20 -84 21q-80 0 -107.5 -46.5t-27.5 -140.5v-360q0 -59 -4 -96t-17.5 -87.5t-49.5 -85t-91 -55.5q53 -12 88 -41.5t49.5 -77t19.5 -86t5 -94.5v-405q0 -188 145 -189 q39 0 82 17l-10 -135q-47 -18 -127 -19q-272 0 -272 279v422q0 266 -195 266z" />
<glyph unicode="|" horiz-adv-x="546" d="M176 -362v1939h193v-1939h-193z" />
<glyph unicode="}" horiz-adv-x="823" d="M125 1552q51 18 137 19q88 0 145.5 -25.5t84 -76t36 -100.5t9.5 -120v-352q0 -270 194 -270v-125q-195 0 -194 -266v-422q0 -279 -273 -279q-80 0 -127 19l-10 135q43 -16 82 -17q145 0 145 189v405q0 55 5.5 94t19.5 86.5t49 77t88 41.5q-55 20 -91 55t-49.5 85.5 t-17.5 87t-4 96.5v360q0 94 -27.5 140.5t-107.5 46.5q-43 0 -84 -21z" />
<glyph unicode="~" horiz-adv-x="1429" d="M27 512q31 160 88 258q86 145 260 145q96 0 287 -73l161 -62q158 -59 236 -59q106 0 168 76q25 29 44 66.5t25 60.5l7 22l98 -31q-31 -139 -84 -235q-82 -147 -262 -148q-96 0 -287 74l-160 62q-152 59 -239 59q-106 0 -166 -82q-51 -72 -76 -168z" />
<glyph d="M6 481l29 137h137q-2 27 -2 84.5t2 85.5h-141l28 136h123q35 205 142 342q152 193 415 192q186 -2 299 -84v-194q-10 12 -31.5 31.5t-98.5 51t-165 31.5q-147 0 -241 -94t-125 -276h514l-27 -136h-499q-2 -27 -3 -79q0 -37 5 -91h464q-4 -25 -13 -70l-13 -67h-428 q59 -340 364 -340q82 0 157 26t108 52l32 27l-12 -195q-106 -70 -307 -69q-238 0 -372 137t-167 362h-174z" />
<glyph unicode="&#xa1;" horiz-adv-x="555" d="M147 1313q0 63 34 101t93.5 38t94 -37t34.5 -100q0 -59 -34.5 -96t-92 -37t-93.5 37t-36 94zM176 -10l12 1083h170l15 -1053z" />
<glyph unicode="&#xa2;" horiz-adv-x="1075" d="M131 705q0 217 94 373.5t303 178.5v179l142 22v-201q147 -16 215 -71v-170l-24 22q-15 14 -70.5 40t-120.5 32v-793q66 4 121 30t77 50l23 23l-12 -174q-66 -55 -209 -74v-188h-142v186q-397 41 -397 535zM326 715q0 -317 202 -381v766q-202 -57 -202 -385z" />
<glyph unicode="&#xa3;" horiz-adv-x="1069" d="M18 106q70 37 107 84q94 117 129 500h-168v137h178q27 264 60 361q94 272 399 272q88 0 160.5 -21.5t101.5 -41.5l29 -21v-194q-8 12 -26.5 31.5t-88.5 52t-151 32.5q-164 0 -222 -122q-27 -55 -39 -127t-26 -222h358v-137h-366q-31 -307 -115 -422q-57 -72 -90 -102 q53 29 158 29q70 0 137 -15l149 -33q68 -12 119 -12q123 2 203 86l-10 -196q-49 -51 -201 -52q-98 0 -211 25l-156 33q-63 12 -143 12q-127 0 -213 -61z" />
<glyph unicode="&#xa4;" horiz-adv-x="1200" d="M96 324l131 127q-96 131 -96 278q0 143 96 279l-131 127l92 90l129 -125q135 92 280.5 92t283.5 -94l129 127l92 -90l-131 -127q96 -133 96 -277q0 -150 -96 -280l131 -127l-92 -91l-129 125q-133 -92 -283 -92q-147 0 -281 94l-129 -127zM301 729q0 -127 86 -217 q84 -88 213 -88q125 0 209 88q90 90 90 217q0 129 -90 219q-88 88 -209 88q-129 0 -213 -88q-86 -90 -86 -219z" />
<glyph unicode="&#xa5;" d="M-2 1440h221l322 -672l331 672h201l-373 -701h234v-131h-303v-176h303v-133h-303v-299h-197v299h-299v133h299v176h-299v131h223z" />
<glyph unicode="&#xa6;" horiz-adv-x="1085" d="M444 332h191v-694h-191v694zM444 715v725h191v-725h-191z" />
<glyph unicode="&#xa7;" horiz-adv-x="1142" d="M164 616q0 246 262 361l-37 27q-129 96 -129 262q0 133 98.5 222t264.5 89q90 0 162.5 -20.5t99.5 -40.5l26 -21v-180q-10 12 -31.5 30.5t-94 49t-152.5 30.5q-88 0 -135 -41t-47 -108q0 -55 27.5 -94t88.5 -78l209 -137q43 -29 68.5 -49.5t62.5 -59.5t54.5 -92 t17.5 -117q0 -68 -22.5 -128t-48 -96t-70.5 -73t-63.5 -48t-53.5 -30l35 -24q129 -88 129 -264q0 -137 -100.5 -222.5t-258.5 -85.5q-96 0 -173 21.5t-103 42.5l-29 22v179q12 -12 33.5 -30.5t97.5 -50.5t162 -32t133 39t47 106q0 57 -26.5 94.5t-85.5 75.5l-207 134 q-211 132 -211 337zM352 641q0 -131 170 -238l78 -49q37 20 58.5 36t58.5 49.5t55.5 78.5t18.5 98q0 129 -154 226l-88 55q-197 -88 -197 -256z" />
<glyph unicode="&#xa8;" horiz-adv-x="1024" d="M223 1354q0 49 30 77.5t79 28.5q45 0 73.5 -28.5t28.5 -75.5q0 -49 -29.5 -79t-76.5 -30q-45 0 -75 29t-30 78zM596 1354q0 49 29.5 77.5t76.5 28.5q45 0 75 -28.5t30 -75.5q0 -49 -29.5 -79t-79.5 -30q-43 0 -72.5 30t-29.5 77z" />
<glyph unicode="&#xa9;" horiz-adv-x="1808" d="M102 645q0 358 227.5 587.5t585.5 229.5q356 0 573.5 -225t217.5 -582q0 -358 -223 -591.5t-576 -233.5q-354 0 -579.5 229.5t-225.5 585.5zM238 645q0 -307 186 -507.5t483 -200.5q301 0 484.5 201.5t183.5 516.5q0 305 -179 502t-481 197q-305 0 -491 -200t-186 -509z M449 631q0 178 79 317q57 104 168 160.5t246 56.5q170 0 262 -61v-154q-8 10 -25.5 23.5t-82 37t-140.5 23.5q-158 0 -249 -100t-91 -286.5t87.5 -289t246.5 -102.5q162 0 254 88l4 4l-10 -153q-8 -8 -25.5 -19.5t-88 -31t-160.5 -19.5q-231 0 -353 143.5t-122 362.5z" />
<glyph unicode="&#xaa;" horiz-adv-x="757" d="M57 879q0 70 24.5 120t56.5 74.5t87.5 39.5t89 19.5t88.5 6.5l84 4v57q0 137 -149 137q-125 -2 -201 -84v142q74 63 244 63q74 0 126 -17.5t78.5 -41t41 -62.5t16.5 -65.5t2 -67.5v-545l-147 -12v105q-2 -4 -6.5 -11.5t-20.5 -27t-36.5 -33.5t-59.5 -25.5t-84 -11.5 q-119 0 -176.5 68t-57.5 168zM217 887q0 -49 29.5 -85t99.5 -36q63 0 103 41t40 100v131l-83 -8q-94 -8 -141.5 -36.5t-47.5 -106.5z" />
<glyph unicode="&#xab;" horiz-adv-x="948" d="M94 516l215 408h168l-190 -406l190 -407h-168zM489 516l216 408h167l-190 -406l190 -407h-167z" />
<glyph unicode="&#xac;" horiz-adv-x="1310" d="M47 713v143h1217v-475h-146v332h-1071z" />
<glyph unicode="&#xad;" horiz-adv-x="665" d="M84 457v176h498v-176h-498z" />
<glyph unicode="&#xae;" horiz-adv-x="1808" d="M102 645q0 358 227.5 587.5t585.5 229.5q356 0 573.5 -225t217.5 -582q0 -358 -223 -591.5t-576 -233.5q-354 0 -579.5 229.5t-225.5 585.5zM238 645q0 -307 186 -507.5t483 -200.5q301 0 484.5 201.5t183.5 516.5q0 305 -179 502t-481 197q-305 0 -491 -200t-186 -509z M610 139v1043h181q215 0 294 -41q137 -70 138 -238q0 -152 -90.5 -230.5t-217.5 -80.5l377 -453h-186l-348 430v-430h-148zM760 690h76q229 0 229 193q0 106 -58.5 144t-168.5 38h-78v-375z" />
<glyph unicode="&#xaf;" horiz-adv-x="1024" d="M217 1268v149h590v-149h-590z" />
<glyph unicode="&#xb0;" horiz-adv-x="892" d="M127 1229q0 131 93 224t224 93q133 0 227.5 -93t94.5 -224t-94 -224.5t-228 -93.5q-131 0 -224 93.5t-93 224.5zM240 1229q0 -88 59 -150.5t145 -62.5t147.5 63.5t61.5 149.5q0 90 -60.5 150.5t-148.5 60.5t-146 -60.5t-58 -150.5z" />
<glyph unicode="&#xb1;" horiz-adv-x="1310" d="M47 0v143h1217v-143h-1217zM47 819v144h531v544h153v-544h533v-144h-533v-553h-153v553h-531z" />
<glyph unicode="&#xb2;" horiz-adv-x="720" d="M66 580v120q158 141 256 252q76 86 101.5 138.5t25.5 107.5q0 57 -35 95t-111 38q-55 0 -107.5 -20.5t-76.5 -40.5l-25 -19v152q94 57 232 57q152 0 219 -70.5t67 -177.5q0 -86 -37.5 -156.5t-138.5 -174.5q-111 -113 -172 -164h354v-137h-552z" />
<glyph unicode="&#xb3;" horiz-adv-x="720" d="M78 760q88 -74 209 -74q174 0 174 131q0 150 -217 150h-21v114h23q182 0 182 142q0 117 -137 116q-49 0 -97.5 -16t-70.5 -33l-23 -18v135q84 53 219 53q129 0 198 -56t69 -161q0 -47 -18.5 -85t-40 -59.5t-52.5 -38t-44 -20.5l-25 -8q102 -6 157 -61.5t55 -149.5 q0 -137 -92 -197.5t-225 -60.5q-66 0 -120 13.5t-75 27.5l-22 14z" />
<glyph unicode="&#xb4;" horiz-adv-x="1024" d="M268 1296l371 263l90 -142l-393 -223z" />
<glyph unicode="&#xb5;" horiz-adv-x="1253" d="M76 -371q78 35 110 103q31 66 31 235v725q0 186 -24 226q-14 23 -38 35t-40 14h-15v34q59 0 166 15q33 4 57.5 12t32.5 12l9 7l8 -5q-10 -41 -11 -411q0 -238 11 -344q10 -102 84.5 -158.5t193.5 -56.5q55 0 113.5 17t91.5 34l31 16v553q0 119 -3 161t-20 65 q-14 23 -37.5 35t-40.5 14h-14v34q33 0 139 15q33 4 63 12t42 12l12 7l6 -5q-4 -80 -4 -413v-387q0 -33 2 -51.5t9.5 -44t25.5 -38t49 -12.5q14 0 25.5 3t15.5 7l4 5l21 -21q-6 -12 -18.5 -29.5t-54.5 -47t-91 -29.5q-55 0 -90 35.5t-35 86.5v9q-47 -47 -128 -89t-177 -42 q-78 0 -138.5 25.5t-80.5 51.5l-23 25v-418q-25 -4 -64.5 -13t-52.5 -11q-59 -12 -139 -45z" />
<glyph unicode="&#xb6;" horiz-adv-x="866" d="M55 1036q0 193 126 298.5t354 105.5h241q-4 -49 -8 -148h-111v-1282q0 -127 -32 -194q-66 -137 -277 -138q-104 0 -174 33l-10 154q90 -47 170 -47q84 0 117.5 43t33.5 137v647h-32q-174 0 -286 110.5t-112 280.5z" />
<glyph unicode="&#xb7;" horiz-adv-x="479" d="M92 616q0 70 41 113t107 43q63 0 106 -43t43 -111q0 -72 -40 -115.5t-107.5 -43.5t-108.5 41.5t-41 115.5z" />
<glyph unicode="&#xb8;" horiz-adv-x="1146" d="M164 -303q41 -33 98 -33q78 0 78 76q0 41 -59 86q-23 16 -34 27.5t-20.5 35t-9.5 56.5l8 55h119v-33q0 -12 2 -21t7 -17.5t9.5 -11.5t15.5 -13t17 -15q80 -70 80 -149q0 -82 -52 -134t-144 -52l-107 22z" />
<glyph unicode="&#xb9;" horiz-adv-x="598" d="M70 1219v131q156 27 237 90h121v-860h-160v675z" />
<glyph unicode="&#xba;" horiz-adv-x="856" d="M92 1040q0 195 88 306.5t258 111.5q156 0 246 -102.5t90 -292.5q0 -197 -88 -309.5t-260 -112.5q-156 0 -245 103t-89 296zM256 1050.5q0 -286.5 178 -286.5q176 0 176 289q0 285 -178 284q-176 0 -176 -286.5z" />
<glyph unicode="&#xbb;" horiz-adv-x="958" d="M76 111l190 405l-190 408h178l215 -406l-215 -407h-178zM471 111l191 405l-191 408h178l215 -406l-215 -407h-178z" />
<glyph unicode="&#xbc;" horiz-adv-x="1488" d="M31 1219v131q156 27 237 90h121v-860h-160v675zM123 0l1046 1440h158l-1042 -1440h-162zM770 180v131l408 566h147v-574h92v-123h-92v-180h-151v180h-404zM897 303h277v393q-8 -31 -50 -86z" />
<glyph unicode="&#xbd;" horiz-adv-x="1488" d="M10 1219v131q156 27 238 90h121v-860h-160v675zM53 0l1047 1440h157l-1042 -1440h-162zM891 0v121q158 141 256 252q76 86 101.5 138t25.5 107q0 57 -35 95.5t-111 38.5q-55 0 -107 -19.5t-77 -40.5l-24 -20v151q94 57 231 58q152 0 219.5 -71t67.5 -177 q0 -86 -38 -156.5t-138 -175.5q-111 -113 -172 -164h354v-137h-553z" />
<glyph unicode="&#xbe;" horiz-adv-x="1488" d="M31 760q88 -74 209 -74q174 0 174 131q0 150 -217 150h-21v114h23q182 0 182 142q0 117 -137 116q-49 0 -97.5 -16t-70.5 -33l-23 -18v135q84 53 219 53q129 0 198 -56t69 -161q0 -78 -45 -130t-91 -66l-45 -15q102 -6 157.5 -61.5t55.5 -149.5q0 -137 -92 -197.5 t-225 -60.5q-66 0 -120 13.5t-77 27.5l-20 14zM203 0l1046 1440h158l-1042 -1440h-162zM811 180v131l408 566h147v-574h92v-123h-92v-180h-152v180h-403zM938 303h276v393q-8 -31 -49 -86z" />
<glyph unicode="&#xbf;" horiz-adv-x="907" d="M70 336q0 193 163 348l130 123q53 51 69.5 89t16.5 103v72h178v-96q0 -139 -97 -236l-143 -141q-123 -119 -123 -254q0 -94 65.5 -154.5t186.5 -60.5q82 0 158 29.5t112 60.5l35 31v-193q-14 -10 -40.5 -24.5t-116 -39t-187.5 -24.5q-178 0 -292.5 92.5t-114.5 274.5z M410 1313q0 63 33.5 101t93 38t94.5 -37t35 -100q0 -59 -35 -96t-92.5 -37t-93 37t-35.5 94z" />
<glyph unicode="&#xc0;" horiz-adv-x="1179" d="M-4 0l487 1444h224l473 -1444h-205l-154 477h-481l-156 -477h-188zM358 1765l91 142l372 -262l-67 -103zM387 631h387l-141 448q-33 102 -49 193q-18 -80 -54 -189z" />
<glyph unicode="&#xc1;" horiz-adv-x="1179" d="M-4 0l487 1444h224l473 -1444h-205l-154 477h-481l-156 -477h-188zM360 1645l371 262l90 -142l-393 -223zM387 631h387l-141 448q-33 102 -49 193q-18 -80 -54 -189z" />
<glyph unicode="&#xc2;" horiz-adv-x="1179" d="M-4 0l487 1444h224l473 -1444h-205l-154 477h-481l-156 -477h-188zM252 1640l336 273l336 -273l-76 -98l-260 174l-260 -174zM387 631h387l-141 448q-33 102 -49 193q-18 -80 -54 -189z" />
<glyph unicode="&#xc3;" horiz-adv-x="1179" d="M-4 0l487 1444h224l473 -1444h-205l-154 477h-481l-156 -477h-188zM281 1645q2 6 6 17t19.5 40t36 50.5t55 39.5t75.5 18q47 0 107 -26l51 -23q45 -20 78 -20q66 2 94 71l96 -57l-6 -17.5t-19.5 -41t-35 -51t-55 -40t-76.5 -18.5q-49 0 -109 27l-51 22q-47 20 -78 21 q-66 -2 -94 -70zM387 631h387l-141 448q-33 102 -49 193q-18 -80 -54 -189z" />
<glyph unicode="&#xc4;" horiz-adv-x="1179" d="M-4 0l487 1444h224l473 -1444h-205l-154 477h-481l-156 -477h-188zM295 1702q0 49 29.5 77.5t78.5 28.5q45 0 74 -28.5t29 -75.5q0 -49 -30 -79t-77 -30q-45 0 -74.5 29t-29.5 78zM387 631h387l-141 448q-33 102 -49 193q-18 -80 -54 -189zM668 1702q0 49 29.5 77.5 t76.5 28.5q45 0 75 -28.5t30 -75.5q0 -49 -30 -79t-79 -30q-45 0 -73.5 30t-28.5 77z" />
<glyph unicode="&#xc5;" horiz-adv-x="1179" d="M-4 0l487 1444h224l473 -1444h-205l-154 477h-481l-156 -477h-188zM371 1716q0 100 65.5 160.5t163.5 60.5q94 0 159.5 -57t65.5 -168q0 -102 -65.5 -162.5t-163.5 -60.5q-94 0 -159.5 58t-65.5 169zM387 631h387l-141 448q-33 102 -49 193q-18 -80 -54 -189zM483 1716 q0 -61 33 -93t82 -32q47 0 81 32t34 89q0 61 -33 93t-82 32q-47 0 -81 -32t-34 -89z" />
<glyph unicode="&#xc6;" horiz-adv-x="1595" d="M-8 0l682 1440h842v-164h-523v-477h434v-162h-434v-473h559l-8 -164h-749v647h-299l-297 -647h-207zM561 799h234v534q-16 -59 -43 -116z" />
<glyph unicode="&#xc7;" horiz-adv-x="1146" d="M72 692q0 291 100 467q170 299 555 299q227 0 365 -84l4 -4v-192q-12 12 -38 32.5t-117 53t-200 32.5q-223 0 -346 -145t-123 -428q0 -281 116 -430.5t345 -149.5q113 0 204 33t128 66l35 32l-13 -196q-12 -10 -34.5 -24.5t-111.5 -41t-198 -30.5v-15q0 -12 2.5 -21 t7.5 -17.5t9 -11.5t15 -13.5t18 -14.5q80 -70 79 -149q0 -82 -52 -134t-144 -52l-107 22l-8 121q41 -33 99 -33q78 0 77 76q0 41 -59 86q-23 16 -34 27.5t-20.5 35t-9.5 56.5q0 25 5 41q-279 25 -414 218t-135 488z" />
<glyph unicode="&#xc8;" horiz-adv-x="942" d="M141 0v1440h721v-164h-522v-455h434v-162h-434v-495h559l-8 -164h-750zM252 1765l90 142l373 -262l-68 -103z" />
<glyph unicode="&#xc9;" horiz-adv-x="942" d="M141 0v1440h721v-164h-522v-455h434v-162h-434v-495h559l-8 -164h-750zM297 1645l371 262l90 -142l-393 -223z" />
<glyph unicode="&#xca;" horiz-adv-x="942" d="M141 0v1440h721v-164h-522v-455h434v-162h-434v-495h559l-8 -164h-750zM160 1640l336 273l335 -273l-75 -98l-260 174l-260 -174z" />
<glyph unicode="&#xcb;" horiz-adv-x="942" d="M141 0v1440h721v-164h-522v-455h434v-162h-434v-495h559l-8 -164h-750zM211 1702q0 49 29.5 77.5t78.5 28.5q45 0 74 -28.5t29 -75.5q0 -49 -30 -79t-77 -30q-45 0 -74.5 29t-29.5 78zM584 1702q0 49 29.5 77.5t76.5 28.5q45 0 75 -28.5t30 -75.5q0 -49 -30 -79t-79 -30 q-43 0 -72.5 30t-29.5 77z" />
<glyph unicode="&#xcc;" horiz-adv-x="481" d="M4 1765l90 142l373 -262l-68 -103zM141 0v1440h199v-1440h-199z" />
<glyph unicode="&#xcd;" horiz-adv-x="481" d="M6 1645l371 262l90 -142l-393 -223zM141 0v1440h199v-1440h-199z" />
<glyph unicode="&#xce;" horiz-adv-x="481" d="M-94 1640l336 273l336 -273l-76 -98l-260 174l-260 -174zM141 0v1440h199v-1440h-199z" />
<glyph unicode="&#xcf;" horiz-adv-x="481" d="M-49 1702q0 49 29.5 77.5t78.5 28.5q45 0 74 -28.5t29 -75.5q0 -49 -30 -79t-77 -30q-45 0 -74.5 29t-29.5 78zM141 0v1440h199v-1440h-199zM324 1702q0 49 29.5 77.5t76.5 28.5q45 0 75 -28.5t30 -75.5q0 -49 -30 -79t-79 -30q-45 0 -73.5 30t-28.5 77z" />
<glyph unicode="&#xd0;" horiz-adv-x="1292" d="M2 662v143h139v635h330q193 0 295 -17.5t188 -70.5q268 -164 269 -611q0 -506 -320 -667q-150 -74 -461 -74h-301v662h-139zM340 160h156q207 0 307 55q217 115 217 508q0 397 -213 508q-92 49 -289 49h-178v-475h348l-6 -143h-342v-502z" />
<glyph unicode="&#xd1;" horiz-adv-x="1298" d="M141 0v1440h203l518 -887q86 -147 119 -252v1139h176v-1440h-190l-545 922q-86 147 -105 221v-1143h-176zM350 1645q2 6 6 17t19.5 40t36 50.5t55.5 39.5t76 18q47 0 106 -26l51 -23q45 -20 78 -20q66 2 94 71l97 -57q-2 -6 -6.5 -17.5t-19.5 -41t-34.5 -51t-55.5 -40 t-77 -18.5q-49 0 -108 27l-52 22q-47 20 -77 21q-66 -2 -95 -70z" />
<glyph unicode="&#xd2;" horiz-adv-x="1318" d="M72 690q0 367 154.5 568.5t428.5 201.5q281 0 436.5 -185t155.5 -530q0 -367 -155.5 -567.5t-429.5 -200.5q-281 0 -435.5 184.5t-154.5 528.5zM274 713q0 -578 385 -578q186 0 285.5 146.5t99.5 441.5q0 578 -387 577q-383 1 -383 -587zM424 1765l90 142l373 -262 l-68 -103z" />
<glyph unicode="&#xd3;" horiz-adv-x="1318" d="M72 690q0 367 154.5 568.5t428.5 201.5q281 0 436.5 -185t155.5 -530q0 -367 -155.5 -567.5t-429.5 -200.5q-281 0 -435.5 184.5t-154.5 528.5zM274 713q0 -578 385 -578q186 0 285.5 146.5t99.5 441.5q0 578 -387 577q-383 1 -383 -587zM430 1645l371 262l90 -142 l-393 -223z" />
<glyph unicode="&#xd4;" horiz-adv-x="1318" d="M72 690q0 367 154.5 568.5t428.5 201.5q281 0 436.5 -185t155.5 -530q0 -367 -155.5 -567.5t-429.5 -200.5q-281 0 -435.5 184.5t-154.5 528.5zM274 713q0 -578 385 -578q186 0 285.5 146.5t99.5 441.5q0 578 -387 577q-383 1 -383 -587zM328 1640l336 273l335 -273 l-75 -98l-260 174l-261 -174z" />
<glyph unicode="&#xd5;" horiz-adv-x="1318" d="M72 690q0 367 154.5 568.5t428.5 201.5q281 0 436.5 -185t155.5 -530q0 -367 -155.5 -567.5t-429.5 -200.5q-281 0 -435.5 184.5t-154.5 528.5zM274 713q0 -578 385 -578q186 0 285.5 146.5t99.5 441.5q0 578 -387 577q-383 1 -383 -587zM350 1645q2 6 6 17t19.5 40 t36 50.5t55.5 39.5t76 18q47 0 106 -26l51 -23q45 -20 78 -20q66 2 94 71l97 -57q-2 -6 -6.5 -17.5t-19.5 -41t-34.5 -51t-55.5 -40t-77 -18.5q-49 0 -108 27l-52 22q-47 20 -77 21q-66 -2 -95 -70z" />
<glyph unicode="&#xd6;" horiz-adv-x="1318" d="M72 690q0 367 154.5 568.5t428.5 201.5q281 0 436.5 -185t155.5 -530q0 -367 -155.5 -567.5t-429.5 -200.5q-281 0 -435.5 184.5t-154.5 528.5zM274 713q0 -578 385 -578q186 0 285.5 146.5t99.5 441.5q0 578 -387 577q-383 1 -383 -587zM369 1702q0 49 29.5 77.5 t78.5 28.5q45 0 74 -28.5t29 -75.5q0 -49 -30 -79t-77 -30q-45 0 -74.5 29t-29.5 78zM741 1702q0 49 30 77.5t77 28.5q45 0 74.5 -28.5t29.5 -75.5q0 -49 -29.5 -79t-78.5 -30q-45 0 -74 30t-29 77z" />
<glyph unicode="&#xd7;" horiz-adv-x="1118" d="M43 297l412 418l-406 413l105 107l407 -414l404 412l104 -103l-405 -411l411 -420l-106 -102l-410 417l-409 -415z" />
<glyph unicode="&#xd8;" horiz-adv-x="1318" d="M72 690q0 367 154.5 568.5t428.5 201.5q190 0 328 -90l78 127h153l-131 -213q164 -186 164 -539q0 -367 -155.5 -567.5t-429.5 -200.5q-195 0 -326 86l-92 -151h-150l144 235q-166 185 -166 543zM274 713q0 -252 70 -391l549 899q-90 82 -236 82q-186 0 -284.5 -147.5 t-98.5 -442.5zM428 211q86 -78 231 -78q186 0 285.5 147.5t99.5 442.5q0 244 -67 385z" />
<glyph unicode="&#xd9;" horiz-adv-x="1286" d="M133 563v877h197v-940q0 -61 3 -103.5t20.5 -95.5t49 -86t93 -55.5t147.5 -22.5q92 0 155.5 23.5t96.5 55.5t49.5 89t19.5 98t3 111v926h186v-830q0 -199 -15.5 -297t-76.5 -178q-121 -156 -410 -155q-291 0 -415 141q-63 70 -83 171t-20 271zM412 1765l90 142l372 -262 l-67 -103z" />
<glyph unicode="&#xda;" horiz-adv-x="1286" d="M133 563v877h197v-940q0 -61 3 -103.5t20.5 -95.5t49 -86t93 -55.5t147.5 -22.5q92 0 155.5 23.5t96.5 55.5t49.5 89t19.5 98t3 111v926h186v-830q0 -199 -15.5 -297t-76.5 -178q-121 -156 -410 -155q-291 0 -415 141q-63 70 -83 171t-20 271zM420 1645l371 262l90 -142 l-394 -223z" />
<glyph unicode="&#xdb;" horiz-adv-x="1286" d="M133 563v877h197v-940q0 -61 3 -103.5t20.5 -95.5t49 -86t93 -55.5t147.5 -22.5q92 0 155.5 23.5t96.5 55.5t49.5 89t19.5 98t3 111v926h186v-830q0 -199 -15.5 -297t-76.5 -178q-121 -156 -410 -155q-291 0 -415 141q-63 70 -83 171t-20 271zM311 1640l336 273l336 -273 l-76 -98l-260 174l-260 -174z" />
<glyph unicode="&#xdc;" horiz-adv-x="1286" d="M133 563v877h197v-940q0 -61 3 -103.5t20.5 -95.5t49 -86t93 -55.5t147.5 -22.5q92 0 155.5 23.5t96.5 55.5t49.5 89t19.5 98t3 111v926h186v-830q0 -199 -15.5 -297t-76.5 -178q-121 -156 -410 -155q-291 0 -415 141q-63 70 -83 171t-20 271zM362 1702q0 49 30 77.5 t79 28.5q45 0 73.5 -28.5t28.5 -75.5q0 -49 -29.5 -79t-76.5 -30q-45 0 -75 29t-30 78zM735 1702q0 49 30 77.5t77 28.5q45 0 74.5 -28.5t29.5 -75.5q0 -49 -29.5 -79t-78.5 -30q-43 0 -73 30t-30 77z" />
<glyph unicode="&#xdd;" horiz-adv-x="1140" d="M-4 1440h225l357 -705l370 705h209l-487 -879v-561h-199v553zM406 1645l370 262l90 -142l-393 -223z" />
<glyph unicode="&#xde;" horiz-adv-x="1036" d="M141 0v1440h199v-187h125q244 0 358 -69q164 -102 164 -342q0 -102 -25.5 -183t-71.5 -130.5t-96.5 -82t-114 -47t-108.5 -19.5t-94 -5h-137v-375h-199zM340 522h109q74 0 124 9.5t103 37t80.5 92t27.5 164.5q0 78 -21.5 133.5t-51 83t-78.5 43t-86 18.5t-92 3h-115v-584 z" />
<glyph unicode="&#xdf;" horiz-adv-x="1169" d="M141 0v1157q0 72 4.5 116t31 105.5t75.5 104.5q109 94 313 94q86 0 153.5 -11.5t134.5 -40t103.5 -92t36.5 -155.5q0 -72 -26.5 -130t-54 -87t-76.5 -68l-42 -30l-40 -30q-12 -9 -30.5 -26.5t-27 -32t-15.5 -36t-7 -43.5q0 -57 26.5 -88t100.5 -70l108 -57 q94 -49 146.5 -115t52.5 -172q0 -72 -23.5 -127t-59.5 -89t-85 -55.5t-96 -29.5t-94 -8q-186 4 -279 82l-10 174q4 -4 10 -12.5t31.5 -28t55.5 -33.5t80 -26.5t105 -12.5q80 0 131.5 35t51.5 104q0 53 -27 88t-98 74l-111 61q-106 59 -150 126t-44 161q0 70 28.5 127.5 t56 83t77 64.5t73 60.5t47 62t23.5 88.5q0 168 -236 168q-141 0 -194 -80q-37 -53 -37 -185v-1165h-193z" />
<glyph unicode="&#xe0;" horiz-adv-x="966" d="M70 299q0 92 32.5 158.5t73.5 99.5t114 53.5t116 24.5t114 8l125 6v84q0 33 -2 52.5t-12 51t-30.5 49t-61.5 32t-101 14.5q-51 0 -96 -11.5t-74.5 -25.5t-51 -29.5t-32.5 -25.5l-10 -13v164q10 8 30.5 22.5t100.5 37t180 22.5q96 0 165 -23.5t103.5 -54t54 -83t23 -88.5 t3.5 -91v-725l-183 -16v137q-2 -6 -8 -15.5t-28.5 -34t-51 -44t-80 -34.5t-112.5 -15q-150 0 -225.5 91t-75.5 222zM260 309q0 -70 41 -122t141 -52q88 0 146.5 55.5t58.5 137.5v196l-123 -10q-131 -10 -197.5 -52t-66.5 -153zM276 1417l91 142l372 -263l-67 -102z" />
<glyph unicode="&#xe1;" horiz-adv-x="966" d="M70 299q0 92 32.5 158.5t73.5 99.5t114 53.5t116 24.5t114 8l125 6v84q0 33 -2 52.5t-12 51t-30.5 49t-61.5 32t-101 14.5q-51 0 -96 -11.5t-74.5 -25.5t-51 -29.5t-32.5 -25.5l-10 -13v164q10 8 30.5 22.5t100.5 37t180 22.5q96 0 165 -23.5t103.5 -54t54 -83t23 -88.5 t3.5 -91v-725l-183 -16v137q-2 -6 -8 -15.5t-28.5 -34t-51 -44t-80 -34.5t-112.5 -15q-150 0 -225.5 91t-75.5 222zM260 309q0 -70 41 -122t141 -52q88 0 146.5 55.5t58.5 137.5v196l-123 -10q-131 -10 -197.5 -52t-66.5 -153zM268 1296l371 263l90 -142l-393 -223z" />
<glyph unicode="&#xe2;" horiz-adv-x="966" d="M70 299q0 92 32.5 158.5t73.5 99.5t114 53.5t116 24.5t114 8l125 6v84q0 33 -2 52.5t-12 51t-30.5 49t-61.5 32t-101 14.5q-51 0 -96 -11.5t-74.5 -25.5t-51 -29.5t-32.5 -25.5l-10 -13v164q10 8 30.5 22.5t100.5 37t180 22.5q96 0 165 -23.5t103.5 -54t54 -83t23 -88.5 t3.5 -91v-725l-183 -16v137q-2 -6 -8 -15.5t-28.5 -34t-51 -44t-80 -34.5t-112.5 -15q-150 0 -225.5 91t-75.5 222zM154 1292l335 273l336 -273l-75 -98l-261 174l-260 -174zM260 309q0 -70 41 -122t141 -52q88 0 146.5 55.5t58.5 137.5v196l-123 -10q-131 -10 -197.5 -52 t-66.5 -153z" />
<glyph unicode="&#xe3;" horiz-adv-x="966" d="M70 299q0 92 32.5 158.5t73.5 99.5t114 53.5t116 24.5t114 8l125 6v84q0 33 -2 52.5t-12 51t-30.5 49t-61.5 32t-101 14.5q-51 0 -96 -11.5t-74.5 -25.5t-51 -29.5t-32.5 -25.5l-10 -13v164q10 8 30.5 22.5t100.5 37t180 22.5q96 0 165 -23.5t103.5 -54t54 -83t23 -88.5 t3.5 -91v-725l-183 -16v137q-2 -6 -8 -15.5t-28.5 -34t-51 -44t-80 -34.5t-112.5 -15q-150 0 -225.5 91t-75.5 222zM178 1296l6 17.5t19.5 40t36 50t55.5 40t76 18.5q47 0 106 -26l51 -23q45 -20 78 -20q66 2 94 71l97 -57q-2 -6 -6.5 -17.5t-19.5 -41t-34.5 -51t-55.5 -40 t-77 -18.5q-49 0 -108 27l-52 22q-47 20 -77 21q-66 -2 -95 -70zM260 309q0 -70 41 -122t141 -52q88 0 146.5 55.5t58.5 137.5v196l-123 -10q-131 -10 -197.5 -52t-66.5 -153z" />
<glyph unicode="&#xe4;" horiz-adv-x="966" d="M70 299q0 92 32.5 158.5t73.5 99.5t114 53.5t116 24.5t114 8l125 6v84q0 33 -2 52.5t-12 51t-30.5 49t-61.5 32t-101 14.5q-51 0 -96 -11.5t-74.5 -25.5t-51 -29.5t-32.5 -25.5l-10 -13v164q10 8 30.5 22.5t100.5 37t180 22.5q96 0 165 -23.5t103.5 -54t54 -83t23 -88.5 t3.5 -91v-725l-183 -16v137q-2 -6 -8 -15.5t-28.5 -34t-51 -44t-80 -34.5t-112.5 -15q-150 0 -225.5 91t-75.5 222zM195 1354q0 49 29.5 77.5t78.5 28.5q45 0 74 -28.5t29 -75.5q0 -49 -30 -79t-77 -30q-45 0 -74.5 29t-29.5 78zM260 309q0 -70 41 -122t141 -52 q88 0 146.5 55.5t58.5 137.5v196l-123 -10q-131 -10 -197.5 -52t-66.5 -153zM567 1354q0 49 30 77.5t77 28.5q45 0 74.5 -28.5t29.5 -75.5q0 -49 -29.5 -79t-78.5 -30q-43 0 -73 30t-30 77z" />
<glyph unicode="&#xe5;" horiz-adv-x="966" d="M70 299q0 92 32.5 158.5t73.5 99.5t114 53.5t116 24.5t114 8l125 6v84q0 33 -2 52.5t-12 51t-30.5 49t-61.5 32t-101 14.5q-51 0 -96 -11.5t-74.5 -25.5t-51 -29.5t-32.5 -25.5l-10 -13v164q10 8 30.5 22.5t100.5 37t180 22.5q96 0 165 -23.5t103.5 -54t54 -83t23 -88.5 t3.5 -91v-725l-183 -16v137q-2 -6 -8 -15.5t-28.5 -34t-51 -44t-80 -34.5t-112.5 -15q-150 0 -225.5 91t-75.5 222zM254 1358q0 100 65.5 160.5t163.5 60.5q94 0 160 -57.5t66 -167.5q0 -102 -65.5 -163t-164.5 -61q-94 0 -159.5 58.5t-65.5 169.5zM260 309q0 -70 41 -122 t141 -52q88 0 146.5 55.5t58.5 137.5v196l-123 -10q-131 -10 -197.5 -52t-66.5 -153zM367 1358q0 -61 32.5 -93t81.5 -32q47 0 81 31.5t34 89.5q0 61 -33 93t-82 32q-47 0 -80.5 -32t-33.5 -89z" />
<glyph unicode="&#xe6;" horiz-adv-x="1556" d="M70 299q0 92 32.5 158.5t73.5 99.5t113.5 53.5t116 24.5t114.5 8l125 6v84q0 33 -2 52.5t-12 51t-30.5 49t-61.5 32t-101 14.5q-51 0 -96 -11.5t-74.5 -25.5t-51 -29.5t-32.5 -25.5l-10 -13v164q10 8 30.5 22.5t100.5 37t180 22.5q51 0 95.5 -8t71 -19.5t53 -30t37 -28.5 t24.5 -29l16 -18q2 2 19.5 18.5t32 28.5t42 29.5t55 30t67.5 20.5t83 8q127 0 213 -48t125 -134t53.5 -168t14.5 -186v-33h-658v-17q0 -172 72 -267t252 -95q84 0 155.5 26.5t100.5 51.5l29 26l-13 -172q-10 -8 -30.5 -21t-103.5 -34.5t-187 -21.5q-246 0 -346 147l-19 35 q-2 -8 -9 -19.5t-33.5 -42t-61.5 -54t-98.5 -43t-139.5 -19.5q-94 0 -161.5 29.5t-101.5 78.5t-49 99.5t-15 105.5zM260 309q0 -70 41 -122t141 -52q88 0 146.5 55.5t58.5 137.5v196l-123 -10q-131 -10 -197.5 -52t-66.5 -153zM831 643h463q0 297 -221 297q-76 0 -128 -33 t-74.5 -86t-31 -95t-8.5 -83z" />
<glyph unicode="&#xe7;" horiz-adv-x="884" d="M76 518q0 109 22.5 203t72.5 176t143.5 130t220.5 48q94 0 167.5 -19.5t100.5 -37.5l26 -19v-170q-8 10 -26.5 26.5t-85 43.5t-144.5 27q-43 0 -76.5 -6.5t-78.5 -29t-75 -63.5t-51.5 -117.5t-21.5 -181.5q0 -397 318 -397q74 0 136 25.5t87 52.5l25 24l-13 -174 q-8 -8 -25.5 -19t-84 -32.5t-148.5 -25.5v-15q0 -12 2 -21t7.5 -17.5t9.5 -11.5t15 -13.5t17 -14.5q80 -70 80 -149q0 -82 -52 -134t-144 -52l-107 22l-8 121q41 -33 98 -33q78 0 78 76q0 41 -59 86q-23 16 -34 27.5t-20.5 35t-9.5 56.5q0 27 4 43q-366 57 -366 530z" />
<glyph unicode="&#xe8;" horiz-adv-x="997" d="M76 518q0 256 111.5 406.5t334.5 150.5q127 0 212 -48t124 -134t53.5 -168t14.5 -186v-33h-658q0 -182 69 -280.5t255 -98.5q84 0 155.5 26.5t100.5 51.5l31 26l-13 -172q-10 -8 -30.5 -21t-104.5 -34.5t-188 -21.5q-467 -1 -467 536zM272 643h463q0 297 -221 297 q-76 0 -128 -33t-74.5 -86t-31 -95t-8.5 -83zM276 1417l91 142l372 -263l-67 -102z" />
<glyph unicode="&#xe9;" horiz-adv-x="997" d="M76 518q0 256 111.5 406.5t334.5 150.5q127 0 212 -48t124 -134t53.5 -168t14.5 -186v-33h-658q0 -182 69 -280.5t255 -98.5q84 0 155.5 26.5t100.5 51.5l31 26l-13 -172q-10 -8 -30.5 -21t-104.5 -34.5t-188 -21.5q-467 -1 -467 536zM272 643h463q0 297 -221 297 q-76 0 -128 -33t-74.5 -86t-31 -95t-8.5 -83zM279 1296l370 263l90 -142l-393 -223z" />
<glyph unicode="&#xea;" horiz-adv-x="997" d="M76 518q0 256 111.5 406.5t334.5 150.5q127 0 212 -48t124 -134t53.5 -168t14.5 -186v-33h-658q0 -182 69 -280.5t255 -98.5q84 0 155.5 26.5t100.5 51.5l31 26l-13 -172q-10 -8 -30.5 -21t-104.5 -34.5t-188 -21.5q-467 -1 -467 536zM172 1292l336 273l336 -273l-76 -98 l-260 174l-260 -174zM272 643h463q0 297 -221 297q-76 0 -128 -33t-74.5 -86t-31 -95t-8.5 -83z" />
<glyph unicode="&#xeb;" horiz-adv-x="997" d="M76 518q0 256 111.5 406.5t334.5 150.5q127 0 212 -48t124 -134t53.5 -168t14.5 -186v-33h-658q0 -182 69 -280.5t255 -98.5q84 0 155.5 26.5t100.5 51.5l31 26l-13 -172q-10 -8 -30.5 -21t-104.5 -34.5t-188 -21.5q-467 -1 -467 536zM223 1354q0 49 30 77.5t79 28.5 q45 0 73.5 -28.5t28.5 -75.5q0 -49 -29.5 -79t-76.5 -30q-45 0 -75 29t-30 78zM272 643h463q0 297 -221 297q-76 0 -128 -33t-74.5 -86t-31 -95t-8.5 -83zM596 1354q0 49 29.5 77.5t76.5 28.5q45 0 75 -28.5t30 -75.5q0 -49 -29.5 -79t-79.5 -30q-43 0 -72.5 30t-29.5 77z " />
<glyph unicode="&#xec;" horiz-adv-x="481" d="M10 1417l90 142l373 -263l-67 -102zM143 0v1059h193v-1059h-193z" />
<glyph unicode="&#xed;" horiz-adv-x="481" d="M12 1296l371 263l90 -142l-393 -223zM143 0v1059h193v-1059h-193z" />
<glyph unicode="&#xee;" horiz-adv-x="481" d="M-94 1292l336 273l336 -273l-76 -98l-260 174l-260 -174zM143 0v1059h193v-1059h-193z" />
<glyph unicode="&#xef;" horiz-adv-x="481" d="M-49 1354q0 49 29.5 77.5t78.5 28.5q45 0 74 -28.5t29 -75.5q0 -49 -30 -79t-77 -30q-45 0 -74.5 29t-29.5 78zM143 0v1059h193v-1059h-193zM324 1354q0 49 29.5 77.5t76.5 28.5q45 0 75 -28.5t30 -75.5q0 -49 -30 -79t-79 -30q-45 0 -73.5 30t-28.5 77z" />
<glyph unicode="&#xf0;" horiz-adv-x="1040" d="M74 512q0 160 40 273.5t107.5 171t138 82t148.5 24.5q168 0 248 -84l4 -4q-4 182 -64 293l-143 -99l-70 107l129 88q-84 63 -211 63q-68 0 -131 -21.5t-94 -41.5l-31 -21v164q98 70 273 70q217 0 340 -111l155 109l70 -109l-141 -98q68 -113 90 -268.5t22 -376.5 q0 -217 -33.5 -367.5t-98 -229.5t-143.5 -111.5t-183 -32.5q-78 0 -145.5 21.5t-133 75.5t-104.5 164.5t-39 268.5zM268 522q0 -184 52.5 -289.5t185.5 -105.5q147 0 201.5 127t54.5 463q0 29 -2 65l-2 39q-8 10 -23.5 26.5t-70 43.5t-119.5 27q-277 -1 -277 -396z" />
<glyph unicode="&#xf1;" horiz-adv-x="1095" d="M141 0v1059h189v-131q4 6 10 16t31.5 35t56.5 44t85 35.5t116 16.5q150 0 237 -82q100 -92 101 -311v-682h-191v639q0 47 -2 75.5t-13 71.5t-32.5 67t-66 42t-105.5 18q-86 0 -154.5 -49t-68.5 -149v-715h-193zM254 1296l6 17.5t19.5 40t36 50t55.5 40t75 18.5 q47 0 107 -26l51 -23q45 -20 78 -20q66 2 94 71l96 -57l-6 -17.5t-19.5 -41t-34.5 -51t-55 -40t-77 -18.5q-49 0 -109 27l-51 22q-47 20 -78 21q-66 -2 -94 -70z" />
<glyph unicode="&#xf2;" horiz-adv-x="1048" d="M76 510q0 262 115.5 413.5t340.5 151.5q205 0 323 -138t118 -396q0 -262 -116 -414t-341 -152q-205 0 -322.5 138.5t-117.5 396.5zM270 524q0 -401 254 -401t254 403q0 401 -254 401t-254 -403zM303 1417l90 142l373 -263l-68 -102z" />
<glyph unicode="&#xf3;" horiz-adv-x="1048" d="M76 510q0 262 115.5 413.5t340.5 151.5q205 0 323 -138t118 -396q0 -262 -116 -414t-341 -152q-205 0 -322.5 138.5t-117.5 396.5zM270 524q0 -401 254 -401t254 403q0 401 -254 401t-254 -403zM315 1296l371 263l90 -142l-393 -223z" />
<glyph unicode="&#xf4;" horiz-adv-x="1048" d="M76 510q0 262 115.5 413.5t340.5 151.5q205 0 323 -138t118 -396q0 -262 -116 -414t-341 -152q-205 0 -322.5 138.5t-117.5 396.5zM195 1292l335 273l336 -273l-75 -98l-261 174l-260 -174zM270 524q0 -401 254 -401t254 403q0 401 -254 401t-254 -403z" />
<glyph unicode="&#xf5;" horiz-adv-x="1048" d="M76 510q0 262 115.5 413.5t340.5 151.5q205 0 323 -138t118 -396q0 -262 -116 -414t-341 -152q-205 0 -322.5 138.5t-117.5 396.5zM223 1296l6 17.5t19.5 40t36 50t55.5 40t76 18.5q47 0 106 -26l51 -23q45 -20 78 -20q66 2 94 71l97 -57q-2 -6 -6.5 -17.5t-19.5 -41 t-34.5 -51t-55.5 -40t-77 -18.5q-49 0 -108 27l-52 22q-47 20 -77 21q-66 -2 -95 -70zM270 524q0 -401 254 -401t254 403q0 401 -254 401t-254 -403z" />
<glyph unicode="&#xf6;" horiz-adv-x="1048" d="M76 510q0 262 115.5 413.5t340.5 151.5q205 0 323 -138t118 -396q0 -262 -116 -414t-341 -152q-205 0 -322.5 138.5t-117.5 396.5zM238 1354q0 49 29.5 77.5t78.5 28.5q45 0 74 -28.5t29 -75.5q0 -49 -30 -79t-77 -30q-45 0 -74.5 29t-29.5 78zM270 524q0 -401 254 -401 t254 403q0 401 -254 401t-254 -403zM610 1354q0 49 30 77.5t77 28.5q45 0 74.5 -28.5t29.5 -75.5q0 -49 -29.5 -79t-78.5 -30q-45 0 -74 30t-29 77z" />
<glyph unicode="&#xf7;" horiz-adv-x="1310" d="M47 647v144h1217v-144h-1217zM522 299q0 57 37 94t96 37q57 0 94 -36t37 -95t-36.5 -96t-94 -37t-95.5 37t-38 96zM522 1147q0 61 37 97t96 36q57 0 94 -37t37 -96q0 -57 -37.5 -94t-93 -37t-94.5 37t-39 94z" />
<glyph unicode="&#xf8;" horiz-adv-x="1048" d="M74 510q0 262 115.5 412.5t340.5 150.5q125 0 220 -53l69 115h139l-114 -189q129 -141 129 -405q0 -262 -116 -413t-341 -151q-123 0 -225 52l-74 -123h-135l119 196q-127 140 -127 408zM270 524q0 -154 39 -245l355 602q-53 47 -142 47q-252 -1 -252 -404zM379 166 q57 -45 143 -45q254 0 254 405q0 150 -41 244z" />
<glyph unicode="&#xf9;" horiz-adv-x="1095" d="M129 375v684h193v-643q0 -49 2 -77t13 -71t32.5 -65.5t64.5 -40t105 -17.5q86 0 155.5 49.5t69.5 149.5v715h190v-1051l-186 -16v139q-4 -6 -10 -16.5t-32 -35t-57.5 -44t-86 -35.5t-117.5 -16q-150 0 -234 77q-102 95 -102 314zM315 1417l91 142l372 -263l-67 -102z" />
<glyph unicode="&#xfa;" horiz-adv-x="1095" d="M129 375v684h193v-643q0 -49 2 -77t13 -71t32.5 -65.5t64.5 -40t105 -17.5q86 0 155.5 49.5t69.5 149.5v715h190v-1051l-186 -16v139q-4 -6 -10 -16.5t-32 -35t-57.5 -44t-86 -35.5t-117.5 -16q-150 0 -234 77q-102 95 -102 314zM334 1296l371 263l90 -142l-394 -223z " />
<glyph unicode="&#xfb;" horiz-adv-x="1095" d="M129 375v684h193v-643q0 -49 2 -77t13 -71t32.5 -65.5t64.5 -40t105 -17.5q86 0 155.5 49.5t69.5 149.5v715h190v-1051l-186 -16v139q-4 -6 -10 -16.5t-32 -35t-57.5 -44t-86 -35.5t-117.5 -16q-150 0 -234 77q-102 95 -102 314zM211 1292l336 273l336 -273l-76 -98 l-260 174l-260 -174z" />
<glyph unicode="&#xfc;" horiz-adv-x="1095" d="M129 375v684h193v-643q0 -49 2 -77t13 -71t32.5 -65.5t64.5 -40t105 -17.5q86 0 155.5 49.5t69.5 149.5v715h190v-1051l-186 -16v139q-4 -6 -10 -16.5t-32 -35t-57.5 -44t-86 -35.5t-117.5 -16q-150 0 -234 77q-102 95 -102 314zM256 1354q0 49 29.5 77.5t79.5 28.5 q45 0 73.5 -28.5t28.5 -75.5q0 -49 -29.5 -79t-77.5 -30q-45 0 -74.5 29t-29.5 78zM629 1354q0 49 29.5 77.5t76.5 28.5q45 0 75 -28.5t30 -75.5q0 -49 -30 -79t-79 -30q-43 0 -72.5 30t-29.5 77z" />
<glyph unicode="&#xfd;" horiz-adv-x="905" d="M-16 -289q45 -33 133 -33q74 0 119 40t75 128l51 144l-366 1069h201l215 -680q41 -127 47 -180q14 72 47 174l221 686h184l-417 -1209q-57 -162 -135 -241.5t-224 -79.5l-143 25zM258 1296l371 263l90 -142l-393 -223z" />
<glyph unicode="&#xfe;" horiz-adv-x="1077" d="M141 -471v2017l189 31v-647q2 6 8 15t29.5 35t52.5 45t78 34.5t106 15.5q197 0 298.5 -143.5t101.5 -378.5q0 -164 -39 -280.5t-106.5 -177t-140.5 -86t-161 -25.5q-66 0 -122 18t-79 39l-22 18v-530h-193zM334 201q6 -8 20.5 -20.5t64.5 -32t109 -19.5q279 0 279 399 q0 209 -65.5 298t-192.5 89q-98 0 -156.5 -53t-58.5 -145v-516z" />
<glyph unicode="&#xff;" horiz-adv-x="905" d="M-16 -289q45 -33 133 -33q74 0 119 40t75 128l51 144l-366 1069h201l215 -680q41 -127 47 -180q14 72 47 174l221 686h184l-417 -1209q-57 -162 -135 -241.5t-224 -79.5l-143 25zM160 1354q0 49 29.5 77.5t78.5 28.5q45 0 74 -28.5t29 -75.5q0 -49 -30 -79t-77 -30 q-45 0 -74.5 29t-29.5 78zM532 1354q0 49 30 77.5t77 28.5q45 0 74.5 -28.5t29.5 -75.5q0 -49 -29.5 -79t-78.5 -30q-45 0 -74 30t-29 77z" />
<glyph unicode="&#x152;" horiz-adv-x="1693" d="M72 688q0 373 156.5 575.5t451.5 202.5q119 0 221 -26h713v-164h-522v-455h434v-164h-434v-495h559l-9 -162h-743q-125 -23 -223 -23q-293 0 -448.5 181.5t-155.5 529.5zM274 713q0 -295 98.5 -437.5t303.5 -142.5q135 0 217 33v1102q-86 39 -209 39 q-213 0 -311.5 -146.5t-98.5 -447.5z" />
<glyph unicode="&#x153;" horiz-adv-x="1693" d="M76 510q0 262 114.5 413.5t335.5 151.5q242 0 342 -207q106 207 355 207q102 0 177 -33.5t117 -85t67.5 -127t32.5 -142t7 -148.5v-33h-657q0 -182 68.5 -280.5t254.5 -98.5q84 0 156 26.5t102 51.5l29 26l-12 -172q-10 -8 -31 -21t-102.5 -34.5t-184.5 -21.5 q-285 0 -383 198q-109 -205 -356 -205q-199 0 -315.5 139.5t-116.5 395.5zM270 524q0 -401 254 -401t254 403q0 401 -254 401t-254 -403zM971 643h463q0 297 -224 297q-61 0 -107 -23.5t-70.5 -56.5t-39 -77t-18.5 -76.5t-4 -63.5z" />
<glyph unicode="&#x178;" horiz-adv-x="1140" d="M-4 1440h225l357 -705l370 705h209l-487 -879v-561h-199v553zM291 1702q0 49 29.5 77.5t78.5 28.5q45 0 74 -28.5t29 -75.5q0 -49 -30 -79t-77 -30q-45 0 -74.5 29t-29.5 78zM664 1702q0 49 29.5 77.5t76.5 28.5q45 0 74.5 -28.5t29.5 -75.5q0 -49 -29.5 -79t-78.5 -30 q-45 0 -73.5 30t-28.5 77z" />
<glyph unicode="&#x2c6;" horiz-adv-x="1024" d="M168 1292l336 273l336 -273l-76 -98l-260 174l-260 -174z" />
<glyph unicode="&#x2dc;" horiz-adv-x="1024" d="M254 1296l6 17.5t19.5 40t36 50t55.5 40t75 18.5q47 0 107 -26l51 -23q45 -20 78 -20q66 2 94 71l96 -57l-6 -17.5t-19.5 -41t-34.5 -51t-55 -40t-77 -18.5q-49 0 -109 27l-51 22q-47 20 -78 21q-66 -2 -94 -70z" />
<glyph unicode="&#x2013;" horiz-adv-x="1024" d="M0 473v148h1024v-148h-1024z" />
<glyph unicode="&#x2014;" horiz-adv-x="2048" d="M0 473v148h2048v-148h-2048z" />
<glyph unicode="&#x2018;" horiz-adv-x="454" d="M92 1057q0 61 2 92q14 209 142 436l147 -49q-82 -211 -82 -414v-65h-209z" />
<glyph unicode="&#x2019;" horiz-adv-x="448" d="M88 1098q82 211 82 413v66h209q0 -61 -2 -92q-14 -209 -141 -436z" />
<glyph unicode="&#x201a;" horiz-adv-x="419" d="M35 -242q84 209 84 375v100h207v-32q0 -240 -144 -494z" />
<glyph unicode="&#x201c;" horiz-adv-x="829" d="M92 1057q0 61 2 92q14 209 142 436l147 -49q-82 -211 -82 -414v-65h-209zM467 1057q0 61 2 92q14 209 141 436l148 -49q-82 -211 -82 -414v-65h-209z" />
<glyph unicode="&#x201d;" horiz-adv-x="823" d="M88 1098q82 211 82 413v66h209q0 -61 -2 -92q-14 -209 -141 -436zM463 1098q82 211 82 413v66h209q0 -61 -2 -92q-14 -209 -142 -436z" />
<glyph unicode="&#x201e;" horiz-adv-x="794" d="M35 -242q84 209 84 375v100h207v-32q0 -240 -144 -494zM410 -242q84 209 84 375v100h206v-32q0 -240 -143 -494z" />
<glyph unicode="&#x2022;" horiz-adv-x="1060" d="M215 598q0 131 92 224t223 93q129 0 222.5 -93t93.5 -224t-93.5 -225t-222.5 -94q-131 0 -223 93t-92 226z" />
<glyph unicode="&#x2026;" horiz-adv-x="1695" d="M109 115q0 66 36.5 104.5t96 38.5t98.5 -39t39 -102q0 -66 -37 -106t-98.5 -40t-98 38t-36.5 106zM721 115q0 66 37 104.5t96 38.5t98 -39t39 -102q0 -66 -36.5 -106t-98 -40t-98.5 38t-37 106zM1317 115q0 66 37 104.5t96 38.5t98 -39t39 -102q0 -66 -37 -106t-98 -40 t-98 38t-37 106z" />
<glyph unicode="&#x2039;" horiz-adv-x="552" d="M94 516l215 408h168l-190 -406l190 -407h-168z" />
<glyph unicode="&#x203a;" horiz-adv-x="563" d="M76 111l190 405l-190 408h178l215 -406l-215 -407h-178z" />
<glyph unicode="&#x20ac;" d="M6 481l29 137h137q-2 27 -2 84.5t2 85.5h-141l28 136h123q35 205 142 342q152 193 415 192q186 -2 299 -84v-194q-10 12 -31.5 31.5t-98.5 51t-165 31.5q-147 0 -241 -94t-125 -276h514l-27 -136h-499q-2 -27 -3 -79q0 -37 5 -91h464q-4 -25 -13 -70l-13 -67h-428 q59 -340 364 -340q82 0 157 26t108 52l32 27l-12 -195q-106 -70 -307 -69q-238 0 -372 137t-167 362h-174z" />
<glyph unicode="&#x2122;" horiz-adv-x="1771" d="M59 1325v115h596v-115h-229v-692h-139v692h-228zM772 633v807h197l200 -553l21 -82q12 53 22 82l213 553h181v-807h-129v637q-16 -59 -31 -94l-211 -543h-111l-200 549l-27 86v-635h-125z" />
<glyph unicode="&#xe000;" horiz-adv-x="1060" d="M0 1060h1060v-1060h-1060v1060z" />
<glyph unicode="&#xfb01;" horiz-adv-x="1044" d="M68 918v141h110v141q0 160 70 250q98 127 323 127q182 0 279 -57q72 -45 72 -115q0 -109 -111 -109q-109 0 -109 105v16q-20 18 -124 19q-137 0 -187 -95q-23 -45 -22 -133v-149h534v-1059h-192v918h-342v-918h-191v918h-110z" />
<glyph unicode="&#xfb02;" horiz-adv-x="1054" d="M68 920v139h110v153q0 154 74 244q98 121 303 121q98 0 201 -29l155 29v-1577h-190v1403q-66 31 -154 31q-133 0 -178 -93q-20 -43 -20 -131v-151h209v-139h-209v-920h-191v920h-110z" />
<glyph unicode="&#xfb03;" horiz-adv-x="1660" d="M68 918v141h110v174q0 170 49 242q72 102 236 102q49 0 91 -8t58 -17l17 -6l-13 -149q-31 35 -120 35q-72 0 -103 -48q-25 -39 -24 -139v-186h211v-141h-211v-918h-191v918h-110zM662 918v141h110v174q0 170 49 242q72 102 236 102q49 0 91 -8t58 -17l17 -6l-13 -149 q-31 35 -120 35q-72 0 -103 -48q-25 -39 -24 -139v-186h211v-141h-211v-918h-191v918h-110zM1311 1413q0 55 32.5 84t81.5 29q53 0 84 -29t31 -78q0 -55 -32.5 -82.5t-82.5 -27.5q-53 0 -83.5 28.5t-30.5 75.5zM1329 0v1059h193v-1059h-193z" />
<glyph unicode="&#xfb04;" horiz-adv-x="1662" d="M68 918v141h110v174q0 170 49 242q72 102 236 102q49 0 91 -8t58 -17l17 -6l-13 -149q-31 35 -120 35q-72 0 -103 -48q-25 -39 -24 -139v-186h211v-141h-211v-918h-191v918h-110zM662 918v141h110v174q0 170 49 242q72 102 236 102q49 0 91 -8t58 -17l17 -6l-13 -149 q-31 35 -120 35q-72 0 -103 -48q-25 -39 -24 -139v-186h211v-141h-211v-918h-191v918h-110zM1329 0v1548l193 29v-1577h-193z" />
</font>
</defs>
</svg>
