<?xml version="1.0" standalone="no"?>
<!DOCTYPE svg PUBLIC "-//W3C//DTD SVG 1.1//EN" "http://www.w3.org/Graphics/SVG/1.1/DTD/svg11.dtd" >
<svg xmlns="http://www.w3.org/2000/svg">
<metadata>
This is a custom SVG webfont generated by Font Squirrel.
Copyright   : c Copyright Gerard Unger 2005 Exclusive design for Allianz International Produced by Novatype a division of Visualogik Technology  Design bv 2005  Unauthorised use strictly prohibited Allianz Sans and Allianz Serif are trademarks of Allianz International that may be registered in some jurisdictions ALL RIGHTS RESERVED
Designer    : Gerard Unger 2005
Foundry     : Custom produced for Allianz International by Novatype a division of Visualogik Technology  Design bv
Foundry URL : httpwwwvisualogikcom
</metadata>
<defs>
<font id="AllianzSansBold" horiz-adv-x="1024" >
<font-face units-per-em="2048" ascent="1577" descent="-471" />
<missing-glyph horiz-adv-x="409" />
<glyph unicode=" "  horiz-adv-x="409" />
<glyph unicode="&#x09;" horiz-adv-x="409" />
<glyph unicode="&#xa0;" horiz-adv-x="409" />
<glyph unicode="!" horiz-adv-x="585" d="M127 145q0 72 44 118t115.5 46t115.5 -45t44 -117q0 -76 -42 -123t-115.5 -47t-117.5 45t-44 123zM152 1409l276 31l-12 -1034h-250z" />
<glyph unicode="&#x22;" horiz-adv-x="577" d="M47 1440h207l-29 -443h-151zM348 1440h207l-29 -443h-151z" />
<glyph unicode="#" horiz-adv-x="1204" d="M-37 387l29 141h229l74 379h-229l24 142h232l75 391h164l-76 -391h318l74 391h165l-75 -391h229l-25 -142h-231l-74 -379h230l-27 -141h-231l-74 -387h-164l74 387h-316l-73 -387h-164l74 387h-232zM385 528h317l74 379h-317z" />
<glyph unicode="$" horiz-adv-x="1136" d="M117 346q4 -6 12 -15t41 -33t71 -42t102.5 -32.5t135.5 -14.5q225 0 226 172q0 70 -30 105.5t-118 86.5l-160 93q-57 33 -90 56t-80 70.5t-69.5 113t-22.5 149.5q0 162 84 263t250 128v194l225 25v-215q74 -8 135.5 -30.5t85.5 -41.5l25 -18v-260q-12 14 -34.5 34.5 t-108.5 55.5t-191 35q-193 0 -192 -148q0 -35 9 -59.5t36.5 -48t47 -35.5l66.5 -39l152 -86q129 -74 195.5 -164t66.5 -237q0 -156 -74.5 -262.5t-218.5 -145.5v-217h-225v197q-221 8 -336 92l-4 4z" />
<glyph unicode="%" horiz-adv-x="1441" d="M0 1106q0 160 94 255t262 95q160 0 252 -88t92 -241.5t-94 -253t-258 -99.5q-162 0 -255 90t-93 242zM172 0l895 1440h197l-899 -1440h-193zM203 1114q0 -186 143 -186q78 0 116 53t38 137q0 188 -150 189q-147 0 -147 -193zM741 309q0 160 94.5 255t262.5 95 q160 0 252 -88t92 -241.5t-94.5 -253t-257.5 -99.5q-162 0 -255.5 90t-93.5 242zM944 317q0 -186 143 -186q78 0 116 53.5t38 137.5q0 188 -149 188q-148 0 -148 -193z" />
<glyph unicode="&#x26;" horiz-adv-x="1429" d="M111 403q0 84 25.5 156t62.5 114t73.5 71.5t63.5 41.5l24 11l-26 28q-84 90 -116 156t-32 158q0 139 102.5 228t286.5 89q117 0 200 -33.5t121 -87t53.5 -100.5t15.5 -92q0 -90 -32 -165t-82 -121t-81 -67.5t-59 -35.5l282 -322q25 43 25 205l-4 55h264v-51 q0 -270 -100 -389l213 -252h-336l-68 74q-143 -90 -366 -90q-260 0 -385 113t-125 306zM389 420q0 -92 59.5 -155.5t196.5 -63.5q117 0 180 47l-340 387q-10 -6 -26.5 -20.5t-43 -69.5t-26.5 -125zM451 1135q0 -90 100 -199l35 -37q14 8 34.5 25.5t55.5 75t35 120.5 q0 70 -41 105t-95 35q-66 0 -95 -38t-29 -87z" />
<glyph unicode="'" horiz-adv-x="362" d="M78 1440h207l-29 -443h-152z" />
<glyph unicode="(" horiz-adv-x="874" d="M92 565q0 545 367 934q51 51 82 78h293q-233 -215 -345 -460t-112 -558q0 -324 112.5 -560.5t339.5 -469.5h-288q-39 31 -76 70q-373 405 -373 966z" />
<glyph unicode=")" horiz-adv-x="874" d="M41 -471q233 215 345 459.5t112 558.5q0 324 -113 560t-340 470h289q39 -31 76 -70q373 -406 372 -966q0 -545 -366 -934q-51 -51 -82 -78h-293z" />
<glyph unicode="*" horiz-adv-x="761" d="M31 1024l262 104l-262 109l88 149l211 -167l-43 280h192l-45 -280l213 167l84 -149l-260 -109l260 -104l-84 -152l-213 170l45 -268h-192l43 270l-211 -172z" />
<glyph unicode="+" horiz-adv-x="1310" d="M47 637v176h514v533h187v-533h516v-176h-516v-553h-187v553h-514z" />
<glyph unicode="," horiz-adv-x="479" d="M31 -231q86 215 86 419v113h280v-78q0 -123 -49 -273.5t-110 -252.5z" />
<glyph unicode="-" horiz-adv-x="665" d="M84 424v246h498v-246h-498z" />
<glyph unicode="." horiz-adv-x="559" d="M113 150q0 78 45 126t121 48q72 0 119.5 -48.5t47.5 -123.5q0 -80 -44 -129.5t-121.5 -49.5t-122.5 46.5t-45 130.5z" />
<glyph unicode="/" horiz-adv-x="839" d="M0 -362l518 1939h260l-520 -1939h-258z" />
<glyph unicode="0" horiz-adv-x="1136" d="M66 705q0 387 124.5 569t382.5 182t378 -176t120 -551q0 -387 -126 -570.5t-382 -183.5q-258 0 -377.5 177.5t-119.5 552.5zM356 709q0 -270 46.5 -389t164.5 -119q121 0 167 122.5t46 401.5q0 268 -46 387t-165 119q-121 0 -167 -121.5t-46 -400.5z" />
<glyph unicode="1" horiz-adv-x="1136" d="M184 1069v229q94 14 212 56.5t182 87.5h194v-1442h-287v1120z" />
<glyph unicode="2" horiz-adv-x="1136" d="M115 0v260q209 158 387 332q106 104 150 190t44 193q0 250 -256 250q-190 0 -297 -117l-10 -12v266q12 10 36 25.5t122 42t223 26.5q57 0 110.5 -8t123 -36t120 -74t85 -131t34.5 -199q0 -160 -69.5 -291t-217.5 -262q-70 -61 -138 -114.5t-103 -76.5l-33 -22h563v-242 h-874z" />
<glyph unicode="3" horiz-adv-x="1136" d="M88 348q4 -6 12.5 -15t38 -34t66.5 -43t99.5 -33.5t131.5 -15.5q281 0 281 217q0 55 -18.5 95t-45 61.5t-70.5 33t-79 14.5t-86 3h-47v207h32q260 0 261 204q0 184 -205 185q-94 0 -173 -32t-110 -65l-31 -30v266q14 10 41 25.5t121 41t201 25.5q197 0 321.5 -83 t124.5 -277q0 -229 -180 -328l-57 -25q12 0 31.5 -3t69.5 -22.5t88 -52t70 -104t32 -166.5q0 -84 -27 -155.5t-86 -134t-166.5 -97.5t-255.5 -35q-113 0 -206 24t-130 48l-37 25z" />
<glyph unicode="4" horiz-adv-x="1138" d="M47 315v263l574 864h327v-895h135v-232h-135v-315h-278v315h-623zM287 547h383v592q-18 -49 -78 -142l-182 -284q-37 -57 -123 -166z" />
<glyph unicode="5" horiz-adv-x="1136" d="M125 348q4 -6 11 -15t37 -34t63.5 -43t92 -33.5t124.5 -15.5q139 0 207.5 69.5t68.5 192.5q0 250 -289 250q-162 0 -268 -57v778h797v-242h-557v-293q66 23 163 23q106 0 188.5 -32t129.5 -79t75.5 -110.5t38 -119t9.5 -114.5q0 -229 -131 -363.5t-381 -134.5 q-229 0 -361 93l-6 4z" />
<glyph unicode="6" horiz-adv-x="1136" d="M84 672q0 399 143.5 592.5t446.5 193.5q102 0 188 -23.5t121 -45.5l35 -25v-272q-4 6 -12.5 15t-37 31.5t-63.5 41t-93 33t-122 14.5q-98 0 -163.5 -29t-96.5 -84t-42 -111.5t-11 -132.5v-12q104 74 264 74q193 0 308.5 -112.5t115.5 -342.5q0 -250 -133 -376t-350 -126 q-258 0 -378 173.5t-120 523.5zM375 627q0 -96 2 -149.5t13 -116t31.5 -93t58.5 -52t95 -21.5q203 0 203 262q0 240 -219 239q-49 0 -95 -12t-67 -25l-22 -12v-20z" />
<glyph unicode="7" horiz-adv-x="1136" d="M117 1200v240h899v-135q0 -145 -109 -353l-159 -301q-76 -145 -106 -267t-30 -296v-88h-286v84q0 201 31.5 326t142.5 329l104 193q45 82 66.5 136t25.5 76.5t4 55.5h-583z" />
<glyph unicode="8" horiz-adv-x="1136" d="M74 348q0 240 207 348q43 23 77 31l-30 18q-217 133 -217 347q0 104 41 180t110.5 114.5t144 55t160.5 16.5q84 0 159 -17.5t142.5 -54t106.5 -106.5t39 -166q0 -78 -25.5 -141.5t-62.5 -99t-73 -60.5t-62 -33l-25 -8l41 -24q51 -31 87 -57.5t80 -72t66.5 -105.5 t22.5 -134q0 -109 -41 -188.5t-110.5 -126t-152.5 -68t-179 -21.5q-506 0 -506 373zM352 367q0 -195 215 -195q98 0 153.5 51t55.5 137q0 70 -34.5 117t-112.5 92l-103 60q-6 -4 -18 -10.5t-42 -29t-53.5 -50t-42 -74.5t-18.5 -98zM375 1120q0 -63 29.5 -105t105.5 -87 l92 -56q6 2 16.5 8.5t37 26t46 44t36 66.5t16.5 89q0 172 -187 172q-82 0 -137 -38t-55 -120z" />
<glyph unicode="9" horiz-adv-x="1136" d="M74 956q0 250 133 376t350 126q258 0 378 -173t120 -523q0 -401 -140.5 -594t-449.5 -193q-213 0 -336 91l-6 4l-14 272q12 -14 36.5 -36.5t112.5 -60.5t191 -38q98 0 163.5 28.5t96 84t42 111.5t11.5 132v12q-104 -74 -264 -73q-193 0 -308.5 112.5t-115.5 341.5z M360 977q0 -240 220 -240q49 0 95 12.5t66 24.5l23 12v21q0 96 -2 149.5t-13.5 116t-32 93t-58 52t-95.5 21.5q-203 0 -203 -262z" />
<glyph unicode=":" horiz-adv-x="559" d="M113 150q0 78 45 126t121 48q72 0 119.5 -48.5t47.5 -123.5q0 -80 -44 -129.5t-121.5 -49.5t-122.5 46.5t-45 130.5zM113 915q0 78 45 126.5t121 48.5q72 0 119.5 -48.5t47.5 -123.5q0 -80 -44 -129.5t-121.5 -49.5t-122.5 46t-45 130z" />
<glyph unicode=";" horiz-adv-x="520" d="M41 -231q86 215 86 419v113h281v-78q0 -123 -49.5 -273.5t-110.5 -252.5zM94 915q0 78 45 126.5t121 48.5q72 0 120 -48.5t48 -123.5q0 -80 -44 -129.5t-122 -49.5t-123 46t-45 130z" />
<glyph unicode="&#x3c;" horiz-adv-x="1456" d="M47 664v108l1362 602v-192l-1073 -461l1073 -459v-199z" />
<glyph unicode="=" horiz-adv-x="1310" d="M47 375v178h1217v-178h-1217zM47 887v178h1217v-178h-1217z" />
<glyph unicode="&#x3e;" horiz-adv-x="1456" d="M49 63v199l1073 459l-1073 461v192l1362 -602v-108z" />
<glyph unicode="?" horiz-adv-x="972" d="M72 1100v260q14 10 42.5 26.5t129 44t215.5 27.5q182 0 296.5 -92t114.5 -268q0 -188 -168 -348l-114 -111q-55 -51 -70.5 -86t-15.5 -100v-47h-254v75q0 78 16.5 130.5t67.5 105.5l127 135q8 10 27 31l27 27q7 7 21.5 24.5t19.5 27.5l14 25q9 16 12.5 28.5t6.5 31 t3 36.5q0 74 -54.5 113t-142.5 39q-180 0 -309 -123zM213 145q0 72 44 118t115.5 46t115.5 -45t44 -117q0 -76 -41.5 -123t-115.5 -47t-118 45t-44 123z" />
<glyph unicode="@" horiz-adv-x="1968" d="M82 459q0 432 273.5 703.5t717.5 271.5q369 0 601.5 -197t232.5 -555q0 -434 -322 -604q-127 -70 -309 -78q-74 -4 -117 -4q-41 0 -115 4l39 236q-35 -86 -102 -154q-100 -100 -225 -100q-258 0 -258 378q0 139 26.5 260t82 226.5t155.5 166t233 60.5q141 -2 211 -69 l260 69l-145 -919q86 14 154 55q205 125 204 457q0 578 -614 577q-94 0 -188.5 -20.5t-199 -76.5t-182 -141t-129 -226.5t-51.5 -321.5q0 -340 185.5 -519.5t539.5 -179.5q143 0 276.5 31t194.5 64l62 30l-12 -225q-23 -12 -65 -28.5t-179 -45t-285 -28.5 q-471 0 -710.5 241.5t-239.5 661.5zM758 403q0 -195 119 -194q68 0 141 92q37 45 66.5 112.5t37.5 116.5l49 310q-47 43 -129 43q-123 0 -192 -101q-92 -133 -92 -379z" />
<glyph unicode="A" horiz-adv-x="1245" d="M-8 0l444 1442h381l428 -1442h-297l-117 420h-448l-115 -420h-276zM446 643h324l-127 455q-12 41 -20 84l-13 65l-2 23q-10 -74 -37 -170z" />
<glyph unicode="B" horiz-adv-x="1130" d="M125 0v1440h371q272 0 372 -62q147 -90 148 -284q0 -242 -191 -324q-41 -18 -73 -22q6 0 17 -1.5t44 -8.5t62.5 -19t65.5 -39t62.5 -61.5t44 -93t17.5 -130.5q0 -119 -54.5 -210t-156.5 -136q-113 -49 -371 -49h-358zM408 207h139q231 0 231 221q0 119 -64.5 163 t-174.5 44h-131v-428zM408 842h104q217 0 217 198q0 106 -52 149.5t-155 43.5h-114v-391z" />
<glyph unicode="C" horiz-adv-x="1150" d="M61 688q0 285 103 465q172 303 559 303q109 0 202 -23.5t132 -48.5l37 -24v-260q-12 14 -36 34.5t-111 55.5t-191 35q-403 0 -404 -506q0 -510 400 -510q109 0 195.5 35t119.5 69l33 35l-13 -270q-12 -10 -36.5 -27.5t-127 -45.5t-233.5 -28q-317 0 -473 198t-156 513z " />
<glyph unicode="D" horiz-adv-x="1314" d="M125 0v1440h377q193 0 295 -17.5t188 -70.5q268 -164 268 -611q0 -506 -319 -667q-150 -74 -461 -74h-348zM412 231h127q168 0 247 48q176 98 177 442q0 348 -172 444q-78 43 -234 43h-145v-977z" />
<glyph unicode="E" horiz-adv-x="972" d="M125 0v1440h766v-242h-479v-342h391v-242h-391v-372h516l-10 -242h-793z" />
<glyph unicode="F" horiz-adv-x="915" d="M125 0v1440h766v-242h-479v-342h391v-242h-391v-614h-287z" />
<glyph unicode="G" horiz-adv-x="1261" d="M61 686q0 283 107 465q178 305 590 305q121 0 220 -23.5t138 -48.5l39 -24v-260q-12 14 -36.5 34.5t-124 55.5t-226.5 35q-416 0 -416 -506q0 -258 87 -386t272 -128q51 0 91 6t54 12l14 6v408h285v-539q-14 -14 -44 -33.5t-146.5 -53.5t-262.5 -34q-315 0 -478 197 t-163 512z" />
<glyph unicode="H" horiz-adv-x="1312" d="M125 0v1440h287v-588h489v588h287v-1440h-287v606h-489v-606h-287z" />
<glyph unicode="I" horiz-adv-x="536" d="M125 0v1440h287v-1440h-287z" />
<glyph unicode="J" horiz-adv-x="653" d="M0 260q66 -41 147 -41q104 0 105 117v1104h287v-1125q0 -47 -4.5 -82.5t-21.5 -85t-48 -82t-91.5 -56t-142.5 -23.5q-119 0 -206 32z" />
<glyph unicode="K" horiz-adv-x="1167" d="M125 0v1440h287v-670l467 670h315l-492 -672l496 -768h-344l-442 723v-723h-287z" />
<glyph unicode="L" horiz-adv-x="931" d="M125 0v1440h287v-1198h489l-10 -242h-766z" />
<glyph unicode="M" horiz-adv-x="1712" d="M125 0v1440h438l238 -860q23 -80 36 -161t15 -122l2 -41q2 143 53 326l244 858h436v-1440h-278v1257q-10 -186 -62 -370l-248 -887h-317l-246 887q-23 82 -38 175t-19 144l-4 51v-1257h-250z" />
<glyph unicode="N" horiz-adv-x="1339" d="M125 0v1440h324l370 -717q35 -70 72 -156t55 -137l19 -53v1063h249v-1440h-313l-407 748q-90 166 -119 292v-1040h-250z" />
<glyph unicode="O" horiz-adv-x="1343" d="M61 694q0 367 162 565.5t449 198.5q293 0 451.5 -182t158.5 -537q0 -367 -162 -565.5t-448 -198.5q-293 0 -452 182.5t-159 536.5zM352 715q0 -270 80 -391t240 -121q319 0 319 516q0 270 -80 391t-239 121q-320 0 -320 -516z" />
<glyph unicode="P" horiz-adv-x="1120" d="M125 0v1440h412q254 0 374 -74q162 -100 162 -338q0 -123 -38 -217t-93 -146.5t-131 -85t-137.5 -43t-124.5 -10.5h-137v-526h-287zM412 733h73q63 0 107.5 8.5t91.5 34t71.5 84t24.5 148.5q0 76 -23.5 125t-70.5 68.5t-85 25.5t-97 6h-92v-500z" />
<glyph unicode="Q" horiz-adv-x="1343" d="M61 694q0 367 162 565.5t449 198.5q293 0 451.5 -182t158.5 -537q0 -330 -131 -521t-371 -230q70 -121 236 -121q74 0 145.5 25.5t104.5 50.5l34 26v-233q-12 -8 -36.5 -22.5t-105.5 -37t-171 -22.5q-209 0 -323.5 88t-167.5 252q-211 49 -323 226t-112 474zM352 715 q0 -270 80 -391t240 -121q319 0 319 516q0 270 -80 391t-239 121q-320 0 -320 -516z" />
<glyph unicode="R" horiz-adv-x="1148" d="M125 0v1440h393q250 0 359 -66q160 -100 159 -317q0 -113 -37.5 -196t-96 -123t-109 -58t-91.5 -18l447 -662h-342l-399 631v-631h-283zM408 805h110q100 0 161.5 53t61.5 168t-58 161t-163 46h-112v-428z" />
<glyph unicode="S" horiz-adv-x="964" d="M41 346q4 -6 12 -15t41 -33t71 -42t102.5 -32.5t135.5 -14.5q225 0 226 172q0 70 -30 105.5t-118 86.5l-159 93q-57 33 -90 56t-80.5 70.5t-70 113t-22.5 149.5q0 188 116 294.5t339 106.5q215 0 344 -92l6 -4v-260q-12 14 -34.5 34.5t-108.5 55.5t-191 35 q-193 0 -192 -148q0 -33 10 -56.5t37 -47t46.5 -36.5t66.5 -40l151 -88q129 -74 195.5 -164t66.5 -237q0 -197 -119.5 -314t-359.5 -117q-117 0 -212 25t-130 49l-37 25z" />
<glyph unicode="T" horiz-adv-x="1101" d="M10 1198v242h1092l-10 -242h-394v-1198h-286v1198h-402z" />
<glyph unicode="U" horiz-adv-x="1314" d="M119 561v879h286v-944q0 -63 6.5 -104.5t29 -90.5t77.5 -73.5t141 -24.5q74 0 125.5 19.5t78 45t41 71.5t16.5 79t2 88v934h274v-832q0 -199 -16.5 -297t-81.5 -178q-127 -156 -432.5 -156t-438.5 142q-66 70 -87 172t-21 270z" />
<glyph unicode="V" horiz-adv-x="1222" d="M-14 1440h301l301 -1043q12 -41 20 -84t10 -65l5 -23q10 74 36 170l297 1045h279l-459 -1448h-346z" />
<glyph unicode="W" horiz-adv-x="1896" d="M4 1440h309l205 -910q14 -59 24.5 -120.5t14.5 -94.5l4 -30q23 145 49 258l221 897h273l221 -912q31 -127 45 -243q16 129 43 241l211 914h277l-392 -1448h-319l-201 827l-39 187q-4 -49 -37 -185l-204 -829h-322z" />
<glyph unicode="X" horiz-adv-x="1273" d="M20 0l449 745l-424 695h328l284 -473l267 473h297l-422 -701l448 -739h-321l-316 518l-291 -518h-299z" />
<glyph unicode="Y" horiz-adv-x="1212" d="M-14 1440h321l303 -635l322 635h297l-484 -891v-549h-286v537z" />
<glyph unicode="Z" horiz-adv-x="1159" d="M57 0v211l688 995h-630v234h983v-209l-705 -998h699l-11 -233h-1024z" />
<glyph unicode="[" horiz-adv-x="681" d="M133 -471v2048h416v-184h-156v-1680h156v-184h-416z" />
<glyph unicode="\" horiz-adv-x="835" d="M61 1577h256l519 -1939h-254z" />
<glyph unicode="]" horiz-adv-x="681" d="M133 -287h156v1680h-156v184h416v-2048h-416v184z" />
<glyph unicode="^" horiz-adv-x="1140" d="M82 479l428 1073h123l426 -1073h-221l-271 725l-266 -725h-219z" />
<glyph unicode="_" d="M0 -162h1024v-80h-1024v80z" />
<glyph unicode="`" d="M264 1425l115 177l383 -273l-92 -135z" />
<glyph unicode="a" d="M66 313q0 94 31.5 163t72.5 103.5t112.5 56t115.5 26t118 8.5l119 6v49q0 33 -4 54.5t-21.5 50t-60.5 44t-111 15.5q-78 0 -144.5 -24.5t-92.5 -49.5l-29 -22v213q10 8 33.5 22t113 36.5t199.5 22.5q106 0 183 -25.5t116 -58t59.5 -87t24.5 -91.5t4 -90v-727l-262 -16 v135q-2 -6 -7 -15.5t-26.5 -34t-49.5 -44t-78 -34.5t-111 -15q-154 0 -229.5 96t-75.5 233zM338 334q0 -57 31.5 -99t109.5 -42q72 0 115 44t43 109v160l-90 -6q-102 -6 -155.5 -41t-53.5 -125z" />
<glyph unicode="b" horiz-adv-x="1128" d="M125 -14v1558l281 33v-627q2 6 8 15.5t28.5 33t50 42t76.5 34t105 15.5q184 0 286.5 -136.5t102.5 -392.5q0 -580 -453 -579q-74 0 -137 21.5t-92 43.5l-27 23zM406 256q43 -63 153 -63q113 0 166 79.5t53 257.5q0 176 -50 252t-155 76q-72 0 -119.5 -43t-47.5 -127v-432 z" />
<glyph unicode="c" horiz-adv-x="892" d="M66 524q0 66 7 127.5t35.5 145.5t76.5 145.5t140.5 104.5t215.5 43q90 0 166.5 -19.5t107.5 -38.5l31 -20v-228q-8 10 -24.5 24.5t-76 39t-129.5 24.5q-53 0 -93 -11t-83 -42t-66.5 -102.5t-23.5 -179.5q0 -340 281 -340q137 0 217 88l4 4l-12 -234q-10 -8 -31 -20 t-99.5 -33.5t-177.5 -21.5q-61 0 -117.5 10t-123 45t-114.5 92t-79.5 159.5t-31.5 237.5z" />
<glyph unicode="d" horiz-adv-x="1128" d="M66 510q0 580 448 580q133 -2 209 -76v530l281 33v-1567l-277 -20v139q-2 -6 -8 -16.5t-27.5 -35t-50.5 -44t-78 -35.5t-108 -16q-184 0 -286.5 136t-102.5 392zM350 541q0 -176 50.5 -252t154.5 -76q72 0 120 43t48 127v432q-43 63 -154 64q-113 0 -166 -80t-53 -258z " />
<glyph unicode="e" horiz-adv-x="1042" d="M66 526q0 260 119.5 412t357.5 152q88 0 157.5 -23t114.5 -55.5t77 -87t48 -100.5t25.5 -114.5t10.5 -109.5t1 -102v-33h-631q0 -127 62.5 -204t238.5 -77q178 0 281 92l6 5l-12 -224q-10 -8 -34 -21t-114 -34.5t-203 -21.5q-74 0 -137 11t-134 47t-120 93t-81.5 158.5 t-32.5 236.5zM348 655h354q0 53 -5 91t-21.5 78t-52 60.5t-91.5 20.5q-184 0 -184 -250z" />
<glyph unicode="f" horiz-adv-x="600" d="M27 879v194h110v117q0 188 60 272q84 115 276 115q139 0 203 -35l-12 -207q-33 35 -121 35q-72 0 -99 -41q-27 -37 -26 -141v-115h200v-194h-200v-879h-281v879h-110z" />
<glyph unicode="g" horiz-adv-x="1124" d="M66 516q0 143 29.5 250.5t73.5 167t106.5 96.5t114.5 48.5t112 11.5q70 0 125 -20.5t75 -41.5l21 -18v63h276v-1036q0 -231 -75 -332q-135 -176 -443 -176q-113 0 -204 19.5t-125 37.5l-33 21l-10 235q12 -12 36.5 -29.5t105.5 -46t165 -28.5q188 0 258 92q45 57 45 190 v111q-2 -6 -8 -15.5t-29 -33t-50.5 -41.5t-76.5 -33.5t-104 -15.5q-176 0 -280.5 135t-104.5 389zM350 545q0 -176 52.5 -249t150.5 -73q70 0 118 43t48 125v424q-43 63 -152 64q-217 0 -217 -334z" />
<glyph unicode="h" horiz-adv-x="1138" d="M125 0v1544l281 33v-635q4 6 10 16.5t30.5 35t54 44t82 36t111.5 16.5q145 0 234 -82q100 -94 100 -308v-700h-280v629q0 41 -1.5 63.5t-10.5 59t-25.5 55t-50 34t-82.5 15.5q-68 0 -120 -40t-52 -122v-694h-281z" />
<glyph unicode="i" horiz-adv-x="544" d="M111 1403q0 78 46 112.5t113 34.5q76 0 118 -36.5t42 -102.5q0 -78 -46 -112.5t-114 -34.5q-76 0 -117.5 36.5t-41.5 102.5zM129 0v1073h283v-1073h-283z" />
<glyph unicode="j" horiz-adv-x="534" d="M-119 -231q78 -29 127 -29q74 0 99.5 39t25.5 123v1171h283v-1233q0 -311 -346 -311q-88 0 -179 22zM115 1403q0 78 46 112.5t113 34.5q76 0 118 -36.5t42 -102.5q0 -78 -46 -112.5t-114 -34.5q-76 0 -117.5 36.5t-41.5 102.5z" />
<glyph unicode="k" horiz-adv-x="1021" d="M125 0v1544l281 33v-993l344 489h301l-363 -483l352 -590h-327l-307 545v-545h-281z" />
<glyph unicode="l" horiz-adv-x="530" d="M125 0v1544l281 33v-1577h-281z" />
<glyph unicode="m" horiz-adv-x="1753" d="M125 0v1073h276v-131l10.5 16.5t31 35t55 44t84 36t112.5 16.5q61 0 112.5 -15.5t81.5 -37t50 -44t29 -39.5l6 -14q4 6 10 16.5t33.5 37t61.5 46t92.5 36t125.5 16.5q158 0 244 -80q102 -94 102 -310v-702h-280v629q0 41 -1 65.5t-10.5 59t-25.5 54t-49 34t-78 14.5 q-72 0 -123 -41t-51 -121v-694h-281v629q0 41 -1 65.5t-10 59t-25.5 54t-49 34t-77.5 14.5q-72 0 -123 -41t-51 -121v-694h-281z" />
<glyph unicode="n" horiz-adv-x="1138" d="M125 0v1073h276v-131l10.5 16.5t31 35t55 44t83 36t113.5 16.5q145 0 234 -82q100 -94 100 -308v-700h-280v629q0 41 -1.5 63.5t-10.5 59t-25.5 55t-50 34t-82.5 15.5q-68 0 -120 -40t-52 -122v-694h-281z" />
<glyph unicode="o" horiz-adv-x="1091" d="M66 516q0 276 125.5 425t359.5 149q221 0 348 -137.5t127 -401.5q0 -276 -126 -425t-359 -149q-221 0 -348 137.5t-127 401.5zM350 535q0 -178 43 -264.5t152 -86.5q106 0 151 82t45 266q0 178 -43 264.5t-151 86.5q-106 0 -151.5 -82t-45.5 -266z" />
<glyph unicode="p" horiz-adv-x="1128" d="M125 -471v1544h276v-131q2 6 8.5 16.5t28 35t50 44t77.5 36t109 16.5q184 0 286.5 -136.5t102.5 -392.5q0 -580 -449 -579q-133 2 -208 75v-528h-281zM406 256q43 -63 153 -63q113 0 166 79.5t53 257.5q0 176 -50 252t-155 76q-72 0 -119.5 -43t-47.5 -127v-432z" />
<glyph unicode="q" horiz-adv-x="1128" d="M66 510q0 580 448 580q61 0 114.5 -19.5t76.5 -38.5l22 -20v61h277v-1544h-281v596q-2 -6 -7 -15.5t-26.5 -34t-49.5 -44t-77 -34.5t-108 -15q-184 0 -286.5 136t-102.5 392zM350 541q0 -176 50.5 -252t154.5 -76q72 0 120 43t48 127v432q-43 63 -154 64q-113 0 -166 -80 t-53 -258z" />
<glyph unicode="r" horiz-adv-x="761" d="M125 0v1073h274v-151q2 6 7.5 17t24 41t42 51.5t65.5 40t91 18.5q45 0 80.5 -9.5t50.5 -19.5l14 -8l-26 -244q-47 47 -152 47q-106 0 -148.5 -60.5t-42.5 -142.5v-653h-280z" />
<glyph unicode="s" horiz-adv-x="843" d="M61 287q12 -12 35 -28.5t100.5 -45.5t161.5 -29q160 0 160 99q0 43 -22.5 64.5t-89.5 58.5l-111 59q-102 55 -156.5 122.5t-54.5 190.5q0 311 367 312q88 0 159.5 -20.5t100.5 -41.5l28 -18v-226q-10 12 -31.5 29.5t-89 46.5t-139.5 29q-133 0 -133 -92q0 -29 16.5 -51.5 t35 -34t61.5 -33.5l114 -60q94 -47 151.5 -115.5t57.5 -187.5q0 -334 -399 -333q-209 2 -311 77z" />
<glyph unicode="t" horiz-adv-x="704" d="M27 879v194h110v182l281 58v-240h246v-194h-246v-517q0 -90 20 -122q31 -49 105 -50q90 0 125 37l-11 -202q-68 -41 -217 -41q-170 0 -247 102q-55 74 -56 262v531h-110z" />
<glyph unicode="u" horiz-adv-x="1138" d="M111 367v706h280v-633q0 -51 3 -79.5t18.5 -67.5t52.5 -57.5t96 -18.5q66 0 119 40t53 122v694h281v-1063l-277 -18v139q-4 -6 -10 -16.5t-31.5 -35t-56.5 -44t-84 -35.5t-115 -16q-143 0 -229 79q-100 95 -100 304z" />
<glyph unicode="v" horiz-adv-x="970" d="M-6 1073h289l182 -692q10 -41 19.5 -88t11.5 -74l4 -26q10 92 37 188l184 692h262l-328 -1079h-333z" />
<glyph unicode="w" horiz-adv-x="1572" d="M0 1073h281l157 -690l35 -193q16 117 35 195l158 688h268l149 -694q20 -94 31 -197q14 100 37 197l170 694h258l-315 -1079h-338l-117 541l-29 172q-6 -61 -32 -179l-123 -534h-332z" />
<glyph unicode="x" horiz-adv-x="1026" d="M10 0l348 547l-333 526h315l203 -323l186 323h285l-340 -532l338 -541h-305l-213 336l-195 -336h-289z" />
<glyph unicode="y" horiz-adv-x="970" d="M-6 1073h289l174 -594q41 -141 43 -200q16 74 49 190l172 604h262l-395 -1235q-53 -166 -146.5 -237.5t-251.5 -71.5q-55 0 -101 8t-64 17l-19 6l-10 221q63 -39 147 -39t128 32.5t71 112.5l23 72z" />
<glyph unicode="z" horiz-adv-x="944" d="M72 0v174l485 705h-448v194h772v-174l-488 -704h490l-11 -195h-800z" />
<glyph unicode="{" horiz-adv-x="882" d="M82 487v156q195 0 194 266v385q0 129 67 206t243 77q106 0 174 -23l-12 -163q-37 18 -95 18q-68 0 -92 -38t-24 -122v-360q0 -57 -4.5 -96t-19.5 -87.5t-52 -84t-92 -56.5q57 -12 94 -47t51 -90t18.5 -95t4.5 -104v-366q0 -164 135 -164q43 0 86 16l-10 -164 q-61 -23 -166 -22q-305 0 -306 285v401q1 272 -194 272z" />
<glyph unicode="|" horiz-adv-x="608" d="M164 -362v1939h280v-1939h-280z" />
<glyph unicode="}" horiz-adv-x="882" d="M123 1554q68 23 174 23q176 0 242.5 -77t66.5 -206v-385q0 -266 195 -266v-156q-195 0 -195 -272v-401q0 -285 -305 -285q-104 0 -166 22l-10 164q43 -16 86 -16q135 0 135 164v366q0 63 4 103.5t18.5 95.5t51.5 90t94 47q-55 20 -92 56t-52.5 84.5t-19.5 87t-4 96.5v360 q0 84 -24.5 122t-92.5 38q-57 0 -94 -18z" />
<glyph unicode="~" horiz-adv-x="1429" d="M12 512q35 184 99 285q49 80 112.5 111.5t151.5 31.5q96 0 287 -74l161 -61q158 -59 240 -60q111 0 168 82q20 29 35.5 60t19.5 47l6 18l121 -37q-35 -164 -88 -260q-82 -147 -270 -147q-96 0 -287 74l-160 61q-152 59 -239 59q-117 0 -174 -94q-16 -29 -32 -63.5 t-22 -55.5l-6 -20z" />
<glyph horiz-adv-x="1136" d="M29 461l37 184h124q-2 23 -2 66q0 41 2 57h-137l37 184h115q39 209 166 342q152 162 422 162q90 0 168.5 -21.5t113.5 -41.5l35 -21v-266q-10 12 -32.5 31.5t-101.5 51.5t-169 32q-270 0 -328 -269h492l-37 -184h-469q-2 -23 -2 -63q0 -39 2 -60h446l-37 -184h-395 q29 -121 114 -186.5t222 -65.5q82 0 155.5 26.5t106.5 51.5l33 26l-12 -264q-119 -72 -326 -72q-238 0 -387 135.5t-182 348.5h-174z" />
<glyph unicode="&#xa1;" horiz-adv-x="585" d="M127 1282q0 76 42 123t115.5 47t117.5 -45t44 -123q0 -72 -44 -118t-115.5 -46t-115.5 45t-44 117zM145 -10l13 1034h250l14 -1004z" />
<glyph unicode="&#xa2;" horiz-adv-x="1136" d="M166 707q0 59 5 113t27.5 130t59.5 134.5t105.5 107.5t162.5 68v174l226 24v-194q57 -8 105 -25.5t69 -30.5l20 -14v-227q-8 10 -24.5 24.5t-76 39t-128.5 24.5q-53 0 -93 -11.5t-83 -42t-66.5 -102.5t-23.5 -180q0 -340 280 -340q137 0 217 88l4 4l-12 -233 q-57 -49 -188 -68v-193h-226v195q-360 70 -360 535z" />
<glyph unicode="&#xa3;" horiz-adv-x="1136" d="M25 143q74 39 110 86q49 61 76 153.5t39 283.5h-166v182h176q12 209 51 317q106 293 441 293q199 -2 311 -84v-262q-8 12 -25.5 31.5t-83 52.5t-145.5 33q-156 0 -213 -111q-37 -74 -51 -270h327v-182h-335q-6 -98 -24.5 -167t-35 -95.5t-51.5 -71.5q-53 -68 -94 -101 q57 31 131 31q55 0 123 -14l149 -33q68 -12 119 -12q63 0 122.5 26.5t92.5 61.5l-16 -262q-70 -55 -211 -56q-98 0 -211 25l-156 33q-76 14 -143 14q-127 0 -228 -68z" />
<glyph unicode="&#xa4;" horiz-adv-x="1136" d="M37 307l119 119q-94 131 -95 293q0 160 95 293l-119 118l121 121l118 -118q131 94 293 94q160 0 293 -94l119 118l121 -121l-119 -118q94 -131 94 -291q0 -158 -94 -295l119 -119l-121 -121l-119 119q-133 -94 -292.5 -94t-293.5 94l-118 -119zM287 719q0 -121 82 -209 q82 -86 200 -86q115 0 199 86q84 90 84 209t-84 207q-82 88 -199 88q-119 0 -200 -88q-82 -84 -82 -207z" />
<glyph unicode="&#xa5;" horiz-adv-x="1136" d="M-6 1440h311l275 -596l282 596h287l-344 -664h178v-176h-272v-154h272v-176h-272v-270h-287v270h-264v176h264v154h-264v176h170z" />
<glyph unicode="&#xa6;" horiz-adv-x="1085" d="M399 332h281v-694h-281v694zM399 715v725h281v-725h-281z" />
<glyph unicode="&#xa7;" horiz-adv-x="1148" d="M143 600q0 78 23.5 143.5t58.5 103.5t70 64.5t57 36.5l25 10q-31 23 -35 27q-106 92 -106 258q0 80 26.5 142.5t65.5 97.5t92 57.5t99 29.5t93 7q206 0 306 -86l6 -4v-225q-12 12 -34 30.5t-94.5 49t-150.5 30.5q-76 0 -111.5 -32.5t-35.5 -82.5q0 -45 20.5 -73.5 t77.5 -65.5l201 -131q49 -33 72.5 -51t62.5 -59t56.5 -97.5t17.5 -128.5q0 -78 -24 -143.5t-58.5 -103t-69.5 -64.5t-59 -37l-23 -10q2 -2 8 -6t12.5 -9.5t12.5 -9.5q109 -88 108 -260q0 -80 -26.5 -142.5t-65.5 -97t-92 -57t-99 -30t-93 -7.5q-205 0 -306 86l-6 4v226 q12 -12 34 -30.5t94.5 -49.5t150.5 -31t112.5 33t34.5 82q0 45 -20.5 73.5t-77.5 65.5l-201 131q-49 33 -72.5 51.5t-62.5 59.5t-56.5 97t-17.5 128zM399 639q0 -47 33 -93t58.5 -65.5t74.5 -50.5l53 -35q6 2 14.5 7.5t31 23.5t40 40.5t32 61.5t14.5 84q0 47 -33 93.5 t-58.5 66t-74.5 49.5l-54 35q-6 -2 -14 -7t-30.5 -23.5t-40 -40t-32 -61.5t-14.5 -85z" />
<glyph unicode="&#xa8;" d="M166 1376.5q0 61.5 37 98t98 36.5q57 0 94 -36.5t37 -96.5q0 -61 -37 -98t-98 -37q-57 0 -94 36t-37 97.5zM598 1376.5q0 61.5 37 98t98 36.5q57 0 94 -36.5t37 -96.5q0 -61 -36.5 -98t-98.5 -37q-57 0 -94 36t-37 97.5z" />
<glyph unicode="&#xa9;" horiz-adv-x="1808" d="M102 645q0 358 227.5 587.5t585.5 229.5q356 0 573.5 -225t217.5 -582q0 -358 -223 -591.5t-576 -233.5q-354 0 -579.5 229.5t-225.5 585.5zM248 645q0 -301 183 -498.5t476 -197.5q295 0 475.5 198.5t180.5 507.5q0 299 -176.5 492.5t-471.5 193.5q-301 0 -484 -195.5 t-183 -500.5zM440 635q0 176 78 315q57 104 172 164t258 60q78 0 143.5 -17.5t92.5 -34.5l26 -16v-193q-8 10 -24.5 24.5t-79 39t-135.5 24.5q-141 0 -229.5 -83.5t-88.5 -268.5q0 -162 81 -258t235 -96q49 0 92 10t69.5 24.5t47 30t28.5 25.5l8 10l-8 -200 q-8 -8 -25.5 -20.5t-90 -32t-166.5 -19.5q-233 0 -358.5 145.5t-125.5 366.5z" />
<glyph unicode="&#xaa;" horiz-adv-x="757" d="M35 877q0 72 25.5 123t57.5 76.5t88 41t90 19.5t89 6l80 4v27q0 31 -7 52t-42 40.5t-99 19.5q-55 0 -105 -20.5t-73 -40.5l-24 -23v184q92 70 282 70q80 0 138.5 -18.5t87 -44t44 -65.5t18.5 -67.5t3 -68.5v-545l-217 -12v100q-2 -4 -5 -11t-16.5 -25.5t-33 -33 t-57 -25.5t-83.5 -11q-123 0 -182 72t-59 176zM260 891q0 -39 23.5 -67.5t75 -28.5t80 32.5t28.5 83.5v99l-57 -4q-150 -13 -150 -115z" />
<glyph unicode="&#xab;" horiz-adv-x="1038" d="M82 516l215 408h229l-190 -406l190 -407h-229zM532 516l216 408h229l-191 -406l191 -407h-229z" />
<glyph unicode="&#xac;" horiz-adv-x="1310" d="M47 700v177h1217v-496h-179v319h-1038z" />
<glyph unicode="&#xad;" horiz-adv-x="665" d="M84 424v246h498v-246h-498z" />
<glyph unicode="&#xae;" horiz-adv-x="1808" d="M102 645q0 358 227.5 587.5t585.5 229.5q356 0 573.5 -225t217.5 -582q0 -358 -223 -591.5t-576 -233.5q-354 0 -579.5 229.5t-225.5 585.5zM248 645q0 -301 183 -498.5t476 -197.5q295 0 475.5 198.5t180.5 507.5q0 299 -176.5 492.5t-471.5 193.5q-301 0 -484 -195.5 t-183 -500.5zM586 139v1043h192q244 0 328 -41q139 -66 139 -238q0 -154 -90 -233.5t-217 -85.5l375 -445h-234l-309 385v-385h-184zM774 707h49q223 0 224 172q0 92 -50.5 124.5t-152.5 32.5h-70v-329z" />
<glyph unicode="&#xaf;" d="M217 1268v200h590v-200h-590z" />
<glyph unicode="&#xb0;" horiz-adv-x="892" d="M125 1229q0 131 93 224t226 93q135 0 230.5 -93t95.5 -224t-95 -224.5t-231 -93.5q-131 0 -225 93.5t-94 224.5zM250 1229q0 -82 57.5 -141.5t139 -59.5t139 59.5t57.5 141.5q0 84 -56.5 141t-140.5 57t-140 -57t-56 -141z" />
<glyph unicode="&#xb1;" horiz-adv-x="1310" d="M47 0v176h1217v-176h-1217zM47 807v176h514v524h187v-524h516v-176h-516v-541h-187v541h-514z" />
<glyph unicode="&#xb2;" horiz-adv-x="720" d="M57 580v143q158 123 256 233q70 78 95.5 126t25.5 100q0 55 -33.5 88t-101.5 33q-55 0 -108.5 -20.5t-79.5 -41.5l-25 -20v178q98 59 248 59q305 0 305 -258q0 -80 -37 -148.5t-131 -162.5q-49 -49 -90 -86t-57 -49l-15 -11h334v-163h-586z" />
<glyph unicode="&#xb3;" horiz-adv-x="720" d="M70 791q86 -78 206 -78q160 0 160 110q0 135 -192 135h-23v134h25q158 0 157 118q0 104 -124 105q-111 0 -185 -72v160q88 55 225 55q133 0 204 -55t71 -160q0 -45 -18.5 -84t-40 -59.5t-52 -36.5t-44.5 -21l-25 -8q102 -8 158.5 -62t56.5 -149q0 -139 -95.5 -199.5 t-232.5 -60.5q-66 0 -121 14.5t-78 28.5l-24 15z" />
<glyph unicode="&#xb4;" d="M244 1329l383 273l114 -177l-405 -231z" />
<glyph unicode="&#xb5;" horiz-adv-x="1253" d="M76 -371q78 35 110 103q31 66 31 235v725q0 186 -24 226q-31 49 -93 49v34q63 0 166 15q33 4 57.5 12t32.5 12l9 7l8 -5q-10 -41 -11 -411v-127q0 -133 11 -217q14 -104 86.5 -159.5t191.5 -55.5q55 0 113.5 17t91.5 34l31 16v553q0 119 -3 161t-20 65q-33 49 -92 49v34 q39 0 139 15q33 4 63 12t42 12l12 7l6 -5q-4 -80 -4 -413v-387q0 -33 2 -51.5t9.5 -44t25.5 -38t49 -12.5q14 0 25.5 3t15.5 7l4 5l21 -21q-6 -12 -18.5 -29.5t-54.5 -47t-91 -29.5q-55 0 -90 35.5t-35 86.5v9q-47 -47 -128 -89t-177 -42q-78 0 -138.5 25.5t-80.5 51.5 l-23 25v-418q-25 -4 -64.5 -13t-52.5 -11q-59 -12 -139 -45z" />
<glyph unicode="&#xb6;" horiz-adv-x="905" d="M51 1030q0 197 126 303.5t353 106.5h304l-11 -209h-110v-1198q0 -358 -355 -359q-119 0 -196 37l-10 201q94 -47 180 -47t117.5 41t31.5 139v590h-32q-174 0 -286 111.5t-112 283.5z" />
<glyph unicode="&#xb7;" horiz-adv-x="563" d="M102 616q0 84 48.5 135.5t130.5 51.5q76 0 128 -51.5t52 -133.5q0 -86 -47 -138t-131 -52t-132.5 49t-48.5 139z" />
<glyph unicode="&#xb8;" horiz-adv-x="1150" d="M170 -301q37 -33 96 -33q84 0 84 76q0 47 -45 74q-27 16 -40 26.5t-26.5 35t-13.5 59.5l6 63h146q-2 -8 -2 -39q0 -20 8 -31.5t34.5 -28t33.5 -22.5q63 -47 63 -143q0 -90 -57.5 -145.5t-161.5 -55.5l-117 23z" />
<glyph unicode="&#xb9;" horiz-adv-x="598" d="M70 1182v168q156 27 237 90h158v-860h-197v639z" />
<glyph unicode="&#xba;" horiz-adv-x="856" d="M61 1032q0 205 98.5 314.5t276.5 109.5q168 0 267.5 -101.5t99.5 -295.5q0 -207 -98.5 -318.5t-276.5 -111.5q-168 0 -267.5 103t-99.5 300zM293 1047q0 -129 30.5 -194t108.5 -65q74 0 106.5 61.5t32.5 194.5q0 127 -30.5 188.5t-108.5 61.5q-74 0 -106.5 -58 t-32.5 -189z" />
<glyph unicode="&#xbb;" horiz-adv-x="1058" d="M61 111l191 405l-191 408h250l215 -406l-215 -407h-250zM512 111l190 405l-190 408h250l215 -406l-215 -407h-250z" />
<glyph unicode="&#xbc;" horiz-adv-x="1529" d="M31 1182v168q156 27 237 90h158v-860h-197v639zM150 0l1046 1440h190l-1042 -1440h-194zM784 156v155l408 566h190v-574h88v-147h-88v-156h-184v156h-414zM940 303h258v371q-12 -41 -51 -92z" />
<glyph unicode="&#xbd;" horiz-adv-x="1529" d="M8 1182v168q156 27 238 90h157v-860h-196v639zM66 0l1046 1440h191l-1043 -1440h-194zM907 0v143q158 123 256 234q70 78 95.5 126t25.5 99q0 55 -33.5 88t-101.5 33q-55 0 -108.5 -20.5t-77.5 -40.5l-27 -21v178q98 59 248 60q305 0 305 -258q0 -80 -37 -149t-131 -163 q-49 -49 -90 -86t-55 -47l-17 -12h334v-164h-586z" />
<glyph unicode="&#xbe;" horiz-adv-x="1529" d="M27 791q86 -78 206 -78q160 0 160 110q0 135 -192 135h-23v134h25q158 0 157 118q0 104 -124 105q-111 0 -185 -72v160q88 55 225 55q133 0 204 -55t71 -160q0 -76 -45 -128t-90 -66l-45 -15q102 -8 158.5 -62t56.5 -149q0 -139 -95.5 -199.5t-232.5 -60.5 q-66 0 -121 14.5t-80 28.5l-22 15zM211 0l1046 1440h191l-1042 -1440h-195zM831 156v155l408 566h191v-574h88v-147h-88v-156h-185v156h-414zM987 303h258v371q-12 -41 -51 -92z" />
<glyph unicode="&#xbf;" horiz-adv-x="972" d="M82 332q0 188 168 348l115 111q55 51 70.5 85.5t15.5 100.5v47h254v-76q0 -78 -16.5 -130t-67.5 -105l-127 -135q-8 -10 -28 -31l-27 -28q-7 -7 -21.5 -24.5t-19.5 -26.5l-14 -26q-9 -16 -12 -28.5t-6.5 -30.5t-3.5 -37q0 -74 54.5 -112.5t142.5 -38.5q180 0 309 122 l13 13v-260q-14 -10 -43 -26.5t-129.5 -44.5t-214.5 -28q-182 0 -297 92.5t-115 268.5zM420 1282q0 76 42 123t115.5 47t117.5 -45t44 -123q0 -72 -44 -118t-115.5 -46t-115.5 45t-44 117z" />
<glyph unicode="&#xc0;" horiz-adv-x="1245" d="M-8 0l444 1442h381l428 -1442h-297l-117 420h-448l-115 -420h-276zM373 1792l114 176l383 -272l-92 -135zM446 643h324l-127 455q-12 41 -20 84l-13 65l-2 23q-10 -74 -37 -170z" />
<glyph unicode="&#xc1;" horiz-adv-x="1245" d="M-8 0l444 1442h381l428 -1442h-297l-117 420h-448l-115 -420h-276zM377 1690l383 272l114 -176l-405 -232zM446 643h324l-127 455q-12 41 -20 84l-13 65l-2 23q-10 -74 -37 -170z" />
<glyph unicode="&#xc2;" horiz-adv-x="1245" d="M-8 0l444 1442h381l428 -1442h-297l-117 420h-448l-115 -420h-276zM252 1690l371 299l370 -299l-102 -129l-268 176l-271 -176zM446 643h324l-127 455q-12 41 -20 84l-13 65l-2 23q-10 -74 -37 -170z" />
<glyph unicode="&#xc3;" horiz-adv-x="1245" d="M-8 0l444 1442h381l428 -1442h-297l-117 420h-448l-115 -420h-276zM289 1673q2 8 8 22.5t25.5 50.5t42 62.5t60.5 49t79 22.5q47 0 106 -27l52 -22q43 -20 77 -21q31 0 54.5 18.5t31.5 37.5l9 18l120 -65q-2 -8 -7 -22.5t-22.5 -51.5t-40 -65.5t-61.5 -51t-84 -22.5 q-51 0 -110 26l-51 23q-49 20 -78 20q-66 -2 -94 -69zM446 643h324l-127 455q-12 41 -20 84l-13 65l-2 23q-10 -74 -37 -170z" />
<glyph unicode="&#xc4;" horiz-adv-x="1245" d="M-8 0l444 1442h381l428 -1442h-297l-117 420h-448l-115 -420h-276zM266 1742.5q0 61.5 37 98.5t98 37q57 0 94 -37t37 -96q0 -61 -36.5 -98t-98.5 -37q-57 0 -94 35.5t-37 97zM446 643h324l-127 455q-12 41 -20 84l-13 65l-2 23q-10 -74 -37 -170zM698 1742.5 q0 61.5 37 98.5t99 37q57 0 94 -37t37 -96q0 -61 -37 -98t-99 -37q-57 0 -94 35.5t-37 97z" />
<glyph unicode="&#xc5;" horiz-adv-x="1245" d="M-8 0l444 1442h381l428 -1442h-297l-117 420h-448l-115 -420h-276zM381 1733q0 111 71.5 177t180.5 66q102 0 175 -63.5t73 -183.5q0 -111 -72 -177.5t-180 -66.5q-102 0 -175 63.5t-73 184.5zM446 643h324l-127 455q-12 41 -20 84l-13 65l-2 23q-10 -74 -37 -170z M516 1733q0 -61 33 -93t82 -32q47 0 80.5 31.5t33.5 89.5q0 61 -32.5 92.5t-81.5 31.5q-47 0 -81 -31.5t-34 -88.5z" />
<glyph unicode="&#xc6;" horiz-adv-x="1699" d="M-18 0l688 1440h948v-242h-479v-397h391v-242h-391v-317h516l-10 -242h-793v578h-305l-266 -578h-299zM637 801h215v493q-14 -51 -51 -131z" />
<glyph unicode="&#xc7;" horiz-adv-x="1150" d="M61 688q0 285 103 465q172 303 559 303q109 0 202 -23.5t132 -48.5l37 -24v-260q-12 14 -36 34.5t-111 55.5t-191 35q-403 0 -404 -506q0 -510 400 -510q109 0 195.5 35t119.5 69l33 35l-13 -270q-10 -10 -30.5 -24.5t-105.5 -42t-193 -34.5h-19v-16q0 -27 21.5 -45 t48.5 -32.5t48.5 -52.5t21.5 -95q0 -90 -57.5 -145.5t-162.5 -55.5l-116 23l-8 141q37 -33 96 -33q84 0 84 76q0 31 -19.5 52.5t-43 32.5t-43 40t-19.5 70l2 47q-268 31 -399.5 223t-131.5 481z" />
<glyph unicode="&#xc8;" horiz-adv-x="972" d="M125 0v1440h766v-242h-479v-342h391v-242h-391v-372h516l-10 -242h-793zM238 1792l114 176l383 -272l-92 -135z" />
<glyph unicode="&#xc9;" horiz-adv-x="972" d="M125 0v1440h766v-242h-479v-342h391v-242h-391v-372h516l-10 -242h-793zM279 1690l383 272l114 -176l-405 -232z" />
<glyph unicode="&#xca;" horiz-adv-x="972" d="M117 1690l370 299l371 -299l-102 -129l-269 176l-270 -176zM125 0v1440h766v-242h-479v-342h391v-242h-391v-372h516l-10 -242h-793z" />
<glyph unicode="&#xcb;" horiz-adv-x="972" d="M125 0v1440h766v-242h-479v-342h391v-242h-391v-372h516l-10 -242h-793zM139 1742.5q0 61.5 37 98.5t98 37q57 0 94.5 -37t37.5 -96q0 -61 -37 -98t-99 -37q-57 0 -94 35.5t-37 97zM571 1742.5q0 61.5 37 98.5t99 37q57 0 94 -37t37 -96q0 -61 -37 -98t-99 -37 q-57 0 -94 35.5t-37 97z" />
<glyph unicode="&#xcc;" horiz-adv-x="536" d="M20 1792l115 176l383 -272l-92 -135zM125 0v1440h287v-1440h-287z" />
<glyph unicode="&#xcd;" horiz-adv-x="536" d="M20 1696l383 272l115 -176l-405 -231zM125 0v1440h287v-1440h-287z" />
<glyph unicode="&#xce;" horiz-adv-x="536" d="M-102 1690l370 299l371 -299l-102 -129l-269 176l-270 -176zM125 0v1440h287v-1440h-287z" />
<glyph unicode="&#xcf;" horiz-adv-x="536" d="M-80 1742.5q0 61.5 37 98.5t98 37q57 0 94 -37t37 -96q0 -61 -36.5 -98t-98.5 -37q-57 0 -94 35.5t-37 97zM125 0v1440h287v-1440h-287zM352 1742.5q0 61.5 37 98.5t98 37q57 0 94 -37t37 -96q0 -61 -36.5 -98t-98.5 -37q-57 0 -94 35.5t-37 97z" />
<glyph unicode="&#xd0;" horiz-adv-x="1314" d="M0 631v192h125v617h377q193 0 295 -17.5t188 -70.5q268 -164 268 -611q0 -506 -319 -667q-150 -74 -461 -74h-348v631h-125zM412 231h127q168 0 247 48q176 98 177 442q0 348 -172 444q-78 43 -234 43h-145v-385h293l-9 -192h-284v-400z" />
<glyph unicode="&#xd1;" horiz-adv-x="1339" d="M125 0v1440h324l370 -717q35 -70 72 -156t55 -137l19 -53v1063h249v-1440h-313l-407 748q-90 166 -119 292v-1040h-250zM336 1673q2 8 8 22.5t25.5 50.5t42 62.5t60.5 49t79 22.5q47 0 106 -27l52 -22q43 -20 77 -21q31 0 54.5 18.5t31.5 37.5l9 18l120 -65 q-2 -8 -7 -22.5t-22.5 -51.5t-40 -65.5t-61.5 -51t-84 -22.5q-51 0 -110 26l-51 23q-49 20 -78 20q-66 -2 -94 -69z" />
<glyph unicode="&#xd2;" horiz-adv-x="1343" d="M61 694q0 367 162 565.5t449 198.5q293 0 451.5 -182t158.5 -537q0 -367 -162 -565.5t-448 -198.5q-293 0 -452 182.5t-159 536.5zM352 715q0 -270 80 -391t240 -121q319 0 319 516q0 270 -80 391t-239 121q-320 0 -320 -516zM420 1792l115 176l383 -272l-93 -135z" />
<glyph unicode="&#xd3;" horiz-adv-x="1343" d="M61 694q0 367 162 565.5t449 198.5q293 0 451.5 -182t158.5 -537q0 -367 -162 -565.5t-448 -198.5q-293 0 -452 182.5t-159 536.5zM352 715q0 -270 80 -391t240 -121q319 0 319 516q0 270 -80 391t-239 121q-320 0 -320 -516zM422 1690l383 272l115 -176l-406 -232z" />
<glyph unicode="&#xd4;" horiz-adv-x="1343" d="M61 694q0 367 162 565.5t449 198.5q293 0 451.5 -182t158.5 -537q0 -367 -162 -565.5t-448 -198.5q-293 0 -452 182.5t-159 536.5zM299 1690l371 299l370 -299l-102 -129l-268 176l-271 -176zM352 715q0 -270 80 -391t240 -121q319 0 319 516q0 270 -80 391t-239 121 q-320 0 -320 -516z" />
<glyph unicode="&#xd5;" horiz-adv-x="1343" d="M61 694q0 367 162 565.5t449 198.5q293 0 451.5 -182t158.5 -537q0 -367 -162 -565.5t-448 -198.5q-293 0 -452 182.5t-159 536.5zM336 1673q2 8 8 22.5t25.5 50.5t42 62.5t60.5 49t79 22.5q47 0 106 -27l52 -22q43 -20 77 -21q31 0 54.5 18.5t31.5 37.5l9 18l120 -65 q-2 -8 -7 -22.5t-22.5 -51.5t-40 -65.5t-61.5 -51t-84 -22.5q-51 0 -110 26l-51 23q-49 20 -78 20q-66 -2 -94 -69zM352 715q0 -270 80 -391t240 -121q319 0 319 516q0 270 -80 391t-239 121q-320 0 -320 -516z" />
<glyph unicode="&#xd6;" horiz-adv-x="1343" d="M61 694q0 367 162 565.5t449 198.5q293 0 451.5 -182t158.5 -537q0 -367 -162 -565.5t-448 -198.5q-293 0 -452 182.5t-159 536.5zM319 1742.5q0 61.5 37 98.5t99 37q57 0 94 -37t37 -96q0 -61 -37 -98t-98 -37q-57 0 -94.5 35.5t-37.5 97zM352 715q0 -270 80 -391 t240 -121q319 0 319 516q0 270 -80 391t-239 121q-320 0 -320 -516zM752 1742.5q0 61.5 36.5 98.5t98.5 37q57 0 94 -37t37 -96q0 -61 -37 -98t-98 -37q-57 0 -94 35.5t-37 97z" />
<glyph unicode="&#xd7;" horiz-adv-x="1118" d="M27 315l399 406l-389 395l133 135l389 -395l389 395l133 -133l-389 -395l400 -408l-136 -131l-397 406l-397 -404z" />
<glyph unicode="&#xd8;" horiz-adv-x="1343" d="M61 694q0 367 162 565.5t449 198.5q176 0 305 -67l72 116h202l-135 -223q166 -182 166 -545q0 -367 -162 -565.5t-448 -198.5q-180 0 -314 72l-88 -145h-198l153 252q-164 182 -164 540zM352 715q0 -190 35 -297l463 760q-68 53 -178 53q-320 0 -320 -516zM487 260 q72 -57 185 -57q319 0 319 516q0 182 -39 303z" />
<glyph unicode="&#xd9;" horiz-adv-x="1314" d="M119 561v879h286v-944q0 -63 6.5 -104.5t29 -90.5t77.5 -73.5t141 -24.5q74 0 125.5 19.5t78 45t41 71.5t16.5 79t2 88v934h274v-832q0 -199 -16.5 -297t-81.5 -178q-127 -156 -432.5 -156t-438.5 142q-66 70 -87 172t-21 270zM408 1792l114 176l383 -272l-92 -135z" />
<glyph unicode="&#xda;" horiz-adv-x="1314" d="M119 561v879h286v-944q0 -63 6.5 -104.5t29 -90.5t77.5 -73.5t141 -24.5q74 0 125.5 19.5t78 45t41 71.5t16.5 79t2 88v934h274v-832q0 -199 -16.5 -297t-81.5 -178q-127 -156 -432.5 -156t-438.5 142q-66 70 -87 172t-21 270zM410 1690l383 272l114 -176l-405 -232z" />
<glyph unicode="&#xdb;" horiz-adv-x="1314" d="M119 561v879h286v-944q0 -63 6.5 -104.5t29 -90.5t77.5 -73.5t141 -24.5q74 0 125.5 19.5t78 45t41 71.5t16.5 79t2 88v934h274v-832q0 -199 -16.5 -297t-81.5 -178q-127 -156 -432.5 -156t-438.5 142q-66 70 -87 172t-21 270zM285 1690l370 299l371 -299l-102 -129 l-269 176l-270 -176z" />
<glyph unicode="&#xdc;" horiz-adv-x="1314" d="M119 561v879h286v-944q0 -63 6.5 -104.5t29 -90.5t77.5 -73.5t141 -24.5q74 0 125.5 19.5t78 45t41 71.5t16.5 79t2 88v934h274v-832q0 -199 -16.5 -297t-81.5 -178q-127 -156 -432.5 -156t-438.5 142q-66 70 -87 172t-21 270zM307 1742.5q0 61.5 37 98.5t98 37 q57 0 94 -37t37 -96q0 -61 -36.5 -98t-98.5 -37q-57 0 -94 35.5t-37 97zM739 1742.5q0 61.5 37 98.5t98 37q57 0 94.5 -37t37.5 -96q0 -61 -37 -98t-99 -37q-57 0 -94 35.5t-37 97z" />
<glyph unicode="&#xdd;" horiz-adv-x="1212" d="M-14 1440h321l303 -635l322 635h297l-484 -891v-549h-286v537zM418 1690l383 272l114 -176l-405 -232z" />
<glyph unicode="&#xde;" horiz-adv-x="1120" d="M125 0v1440h287v-187h125q250 0 370 -73q166 -102 166 -338q0 -123 -38 -217.5t-93 -146.5t-131 -85t-137.5 -43t-124.5 -10h-137v-340h-287zM412 547h73q63 0 107.5 8t91.5 33.5t71.5 82t24.5 142.5q0 63 -17.5 108.5t-43 69t-66.5 36.5t-72.5 16.5t-76.5 3.5h-92v-500z " />
<glyph unicode="&#xdf;" horiz-adv-x="1275" d="M125 0v1149q0 70 5 114t35 107.5t85 108.5q123 98 358 98q233 0 362.5 -69.5t129.5 -247.5q0 -166 -144 -273l-58 -41q-44 -31 -59.5 -44t-33 -39.5t-17.5 -55.5q0 -47 21.5 -70.5t91.5 -60.5l109 -58q57 -31 96 -61.5t73.5 -95t34.5 -146.5q0 -84 -27.5 -146.5 t-67.5 -97t-95 -56t-101 -27.5t-96 -6q-199 2 -295 77l-10 228q12 -12 34 -28.5t95.5 -45.5t153.5 -29q145 0 145 99q0 41 -24.5 64.5t-91.5 60.5l-105 57q-117 63 -166 125.5t-49 173.5q0 90 39 149.5t109 114.5q6 6 30.5 24.5t31.5 25.5t25.5 23.5t25.5 27l17.5 26.5 t13.5 31.5t3 34.5q0 137 -195 137q-135 0 -180 -78q-28 -49 -28 -168v-1112h-281z" />
<glyph unicode="&#xe0;" d="M66 313q0 94 31.5 163t72.5 103.5t112.5 56t115.5 26t118 8.5l119 6v49q0 33 -4 54.5t-21.5 50t-60.5 44t-111 15.5q-78 0 -144.5 -24.5t-92.5 -49.5l-29 -22v213q10 8 33.5 22t113 36.5t199.5 22.5q106 0 183 -25.5t116 -58t59.5 -87t24.5 -91.5t4 -90v-727l-262 -16 v135q-2 -6 -7 -15.5t-26.5 -34t-49.5 -44t-78 -34.5t-111 -15q-154 0 -229.5 96t-75.5 233zM264 1425l115 177l383 -273l-92 -135zM338 334q0 -57 31.5 -99t109.5 -42q72 0 115 44t43 109v160l-90 -6q-102 -6 -155.5 -41t-53.5 -125z" />
<glyph unicode="&#xe1;" d="M66 313q0 94 31.5 163t72.5 103.5t112.5 56t115.5 26t118 8.5l119 6v49q0 33 -4 54.5t-21.5 50t-60.5 44t-111 15.5q-78 0 -144.5 -24.5t-92.5 -49.5l-29 -22v213q10 8 33.5 22t113 36.5t199.5 22.5q106 0 183 -25.5t116 -58t59.5 -87t24.5 -91.5t4 -90v-727l-262 -16 v135q-2 -6 -7 -15.5t-26.5 -34t-49.5 -44t-78 -34.5t-111 -15q-154 0 -229.5 96t-75.5 233zM262 1329l383 273l115 -177l-406 -231zM338 334q0 -57 31.5 -99t109.5 -42q72 0 115 44t43 109v160l-90 -6q-102 -6 -155.5 -41t-53.5 -125z" />
<glyph unicode="&#xe2;" d="M66 313q0 94 31.5 163t72.5 103.5t112.5 56t115.5 26t118 8.5l119 6v49q0 33 -4 54.5t-21.5 50t-60.5 44t-111 15.5q-78 0 -144.5 -24.5t-92.5 -49.5l-29 -22v213q10 8 33.5 22t113 36.5t199.5 22.5q106 0 183 -25.5t116 -58t59.5 -87t24.5 -91.5t4 -90v-727l-262 -16 v135q-2 -6 -7 -15.5t-26.5 -34t-49.5 -44t-78 -34.5t-111 -15q-154 0 -229.5 96t-75.5 233zM141 1323l371 299l371 -299l-103 -129l-268 176l-270 -176zM338 334q0 -57 31.5 -99t109.5 -42q72 0 115 44t43 109v160l-90 -6q-102 -6 -155.5 -41t-53.5 -125z" />
<glyph unicode="&#xe3;" d="M66 313q0 94 31.5 163t72.5 103.5t112.5 56t115.5 26t118 8.5l119 6v49q0 33 -4 54.5t-21.5 50t-60.5 44t-111 15.5q-78 0 -144.5 -24.5t-92.5 -49.5l-29 -22v213q10 8 33.5 22t113 36.5t199.5 22.5q106 0 183 -25.5t116 -58t59.5 -87t24.5 -91.5t4 -90v-727l-262 -16 v135q-2 -6 -7 -15.5t-26.5 -34t-49.5 -44t-78 -34.5t-111 -15q-154 0 -229.5 96t-75.5 233zM180 1307q2 8 8.5 22t25.5 50t42 62.5t60.5 49t78.5 22.5q47 0 107 -26l51 -23q43 -20 78 -20q31 0 54.5 18.5t31.5 36.5l8 19l121 -66q-2 -8 -7 -22.5t-22.5 -51.5t-40 -65.5 t-61.5 -51t-84 -22.5q-51 0 -111 27l-51 22q-49 20 -78 21q-66 -2 -94 -70zM338 334q0 -57 31.5 -99t109.5 -42q72 0 115 44t43 109v160l-90 -6q-102 -6 -155.5 -41t-53.5 -125z" />
<glyph unicode="&#xe4;" d="M66 313q0 94 31.5 163t72.5 103.5t112.5 56t115.5 26t118 8.5l119 6v49q0 33 -4 54.5t-21.5 50t-60.5 44t-111 15.5q-78 0 -144.5 -24.5t-92.5 -49.5l-29 -22v213q10 8 33.5 22t113 36.5t199.5 22.5q106 0 183 -25.5t116 -58t59.5 -87t24.5 -91.5t4 -90v-727l-262 -16 v135q-2 -6 -7 -15.5t-26.5 -34t-49.5 -44t-78 -34.5t-111 -15q-154 0 -229.5 96t-75.5 233zM166 1376.5q0 61.5 37 98t98 36.5q57 0 94 -36.5t37 -96.5q0 -61 -37 -98t-98 -37q-57 0 -94 36t-37 97.5zM338 334q0 -57 31.5 -99t109.5 -42q72 0 115 44t43 109v160l-90 -6 q-102 -6 -155.5 -41t-53.5 -125zM598 1376.5q0 61.5 37 98t98 36.5q57 0 94 -36.5t37 -96.5q0 -61 -36.5 -98t-98.5 -37q-57 0 -94 36t-37 97.5z" />
<glyph unicode="&#xe5;" d="M66 313q0 94 31.5 163t72.5 103.5t112.5 56t115.5 26t118 8.5l119 6v49q0 33 -4 54.5t-21.5 50t-60.5 44t-111 15.5q-78 0 -144.5 -24.5t-92.5 -49.5l-29 -22v213q10 8 33.5 22t113 36.5t199.5 22.5q106 0 183 -25.5t116 -58t59.5 -87t24.5 -91.5t4 -90v-727l-262 -16 v135q-2 -6 -7 -15.5t-26.5 -34t-49.5 -44t-78 -34.5t-111 -15q-154 0 -229.5 96t-75.5 233zM262 1395q0 111 72 177t180 66q102 0 175 -63.5t73 -183.5q0 -111 -71.5 -177.5t-180.5 -66.5q-102 0 -175 63.5t-73 184.5zM338 334q0 -57 31.5 -99t109.5 -42q72 0 115 44t43 109 v160l-90 -6q-102 -6 -155.5 -41t-53.5 -125zM397 1395q0 -61 33 -93t82 -32q47 0 81 31.5t34 89.5q0 61 -33 93t-82 32q-47 0 -81 -32t-34 -89z" />
<glyph unicode="&#xe6;" horiz-adv-x="1595" d="M66 315q0 61 11 110.5t34.5 84.5t48 61.5t64.5 43t70 26.5t77 16.5t73.5 8.5t71.5 4l119 6v49q0 33 -4 54.5t-21.5 51t-60.5 45t-111 15.5q-78 0 -144.5 -23.5t-92.5 -48.5l-29 -24v213q10 8 33.5 22t113 37t199.5 23q211 0 301 -101q106 100 277 101q88 0 157.5 -23 t114.5 -55.5t77 -87t48 -100.5t25.5 -114.5t10.5 -109.5t1 -102v-33h-631q0 -143 71.5 -212t229.5 -69q178 0 281 92l6 5l-12 -224q-10 -8 -34 -21t-113 -34.5t-200 -21.5q-84 0 -151.5 16t-106.5 40.5t-64.5 48.5t-35.5 40l-8 16q-4 -6 -10.5 -17t-34 -38t-62 -47.5 t-97 -37.5t-134.5 -17q-184 0 -271 90.5t-87 240.5zM338 334q0 -57 31.5 -99t109.5 -42q72 0 115 44t43 109v160l-90 -6q-102 -6 -155.5 -41t-53.5 -125zM901 655h354q0 53 -5 91t-21.5 78t-52 60.5t-91.5 20.5q-184 0 -184 -250z" />
<glyph unicode="&#xe7;" horiz-adv-x="892" d="M66 524q0 66 7 127.5t35.5 145.5t76.5 145.5t140.5 104.5t215.5 43q90 0 166.5 -19.5t107.5 -38.5l31 -20v-228q-8 10 -24.5 24.5t-76 39t-129.5 24.5q-53 0 -93 -11t-83 -42t-66.5 -102.5t-23.5 -179.5q0 -340 281 -340q137 0 217 88l4 4l-12 -234q-76 -66 -265 -73v-21 q0 -27 21.5 -45t48.5 -32.5t48.5 -52.5t21.5 -95q0 -90 -57.5 -145.5t-161.5 -55.5l-117 23l-8 141q37 -33 96 -33q84 0 84 76q0 33 -19.5 53.5t-43 31.5t-43 39t-19.5 71l2 51q-70 12 -129 42.5t-114.5 89t-87 162t-31.5 242.5z" />
<glyph unicode="&#xe8;" horiz-adv-x="1042" d="M66 526q0 260 119.5 412t357.5 152q88 0 157.5 -23t114.5 -55.5t77 -87t48 -100.5t25.5 -114.5t10.5 -109.5t1 -102v-33h-631q0 -127 62.5 -204t238.5 -77q178 0 281 92l6 5l-12 -224q-10 -8 -34 -21t-114 -34.5t-203 -21.5q-74 0 -137 11t-134 47t-120 93t-81.5 158.5 t-32.5 236.5zM272 1425l115 177l383 -273l-92 -135zM348 655h354q0 53 -5 91t-21.5 78t-52 60.5t-91.5 20.5q-184 0 -184 -250z" />
<glyph unicode="&#xe9;" horiz-adv-x="1042" d="M66 526q0 260 119.5 412t357.5 152q88 0 157.5 -23t114.5 -55.5t77 -87t48 -100.5t25.5 -114.5t10.5 -109.5t1 -102v-33h-631q0 -127 62.5 -204t238.5 -77q178 0 281 92l6 5l-12 -224q-10 -8 -34 -21t-114 -34.5t-203 -21.5q-74 0 -137 11t-134 47t-120 93t-81.5 158.5 t-32.5 236.5zM272 1329l383 273l115 -177l-405 -231zM348 655h354q0 53 -5 91t-21.5 78t-52 60.5t-91.5 20.5q-184 0 -184 -250z" />
<glyph unicode="&#xea;" horiz-adv-x="1042" d="M66 526q0 260 119.5 412t357.5 152q88 0 157.5 -23t114.5 -55.5t77 -87t48 -100.5t25.5 -114.5t10.5 -109.5t1 -102v-33h-631q0 -127 62.5 -204t238.5 -77q178 0 281 92l6 5l-12 -224q-10 -8 -34 -21t-114 -34.5t-203 -21.5q-74 0 -137 11t-134 47t-120 93t-81.5 158.5 t-32.5 236.5zM160 1323l370 299l371 -299l-102 -129l-269 176l-270 -176zM348 655h354q0 53 -5 91t-21.5 78t-52 60.5t-91.5 20.5q-184 0 -184 -250z" />
<glyph unicode="&#xeb;" horiz-adv-x="1042" d="M66 526q0 260 119.5 412t357.5 152q88 0 157.5 -23t114.5 -55.5t77 -87t48 -100.5t25.5 -114.5t10.5 -109.5t1 -102v-33h-631q0 -127 62.5 -204t238.5 -77q178 0 281 92l6 5l-12 -224q-10 -8 -34 -21t-114 -34.5t-203 -21.5q-74 0 -137 11t-134 47t-120 93t-81.5 158.5 t-32.5 236.5zM172 1376.5q0 61.5 37 98t98 36.5q57 0 94 -36.5t37 -96.5q0 -61 -36.5 -98t-98.5 -37q-57 0 -94 36t-37 97.5zM348 655h354q0 53 -5 91t-21.5 78t-52 60.5t-91.5 20.5q-184 0 -184 -250zM604 1376.5q0 61.5 37 98t98 36.5q57 0 94 -36.5t37 -96.5 q0 -61 -36.5 -98t-98.5 -37q-57 0 -94 36t-37 97.5z" />
<glyph unicode="&#xec;" horiz-adv-x="544" d="M25 1425l114 177l383 -273l-92 -135zM129 0v1073h283v-1073h-283z" />
<glyph unicode="&#xed;" horiz-adv-x="544" d="M25 1329l383 273l114 -177l-405 -231zM129 0v1073h283v-1073h-283z" />
<glyph unicode="&#xee;" horiz-adv-x="544" d="M-98 1323l370 299l371 -299l-102 -129l-269 176l-270 -176zM129 0v1073h283v-1073h-283z" />
<glyph unicode="&#xef;" horiz-adv-x="544" d="M-76 1376.5q0 61.5 37 98t98 36.5q57 0 94 -36.5t37 -96.5q0 -61 -36.5 -98t-98.5 -37q-57 0 -94 36t-37 97.5zM129 0v1073h283v-1073h-283zM356 1376.5q0 61.5 37 98t99 36.5q57 0 94 -36.5t37 -96.5q0 -61 -37 -98t-99 -37q-57 0 -94 36t-37 97.5z" />
<glyph unicode="&#xf0;" horiz-adv-x="1114" d="M66 518q0 127 27.5 225.5t71.5 160t104.5 100t120 54t124.5 15.5q76 0 135.5 -21.5t79.5 -41.5l23 -21q-4 150 -39 225l-123 -86l-88 138l96 67q-68 31 -164 31q-74 0 -145.5 -25.5t-104.5 -52.5l-34 -24v233q12 8 36.5 22.5t105.5 37t171 22.5q217 0 346 -94l131 92 l90 -139l-110 -78q106 -182 106 -635q0 -219 -38 -368.5t-109.5 -230.5t-159.5 -114t-205 -33q-63 0 -120.5 12.5t-120 48.5t-106.5 93t-72.5 156.5t-28.5 230.5zM348 520q0 -55 2 -93t12.5 -88t30 -80t56 -52.5t88.5 -22.5q135 0 173 110.5t38 424.5v74q-6 8 -18.5 20 t-56.5 33.5t-98 21.5q-125 0 -176 -89t-51 -259z" />
<glyph unicode="&#xf1;" horiz-adv-x="1138" d="M125 0v1073h276v-131l10.5 16.5t31 35t55 44t83 36t113.5 16.5q145 0 234 -82q100 -94 100 -308v-700h-280v629q0 41 -1.5 63.5t-10.5 59t-25.5 55t-50 34t-82.5 15.5q-68 0 -120 -40t-52 -122v-694h-281zM231 1307q2 8 8.5 22t26 50t42 62.5t60.5 49t78 22.5 q47 0 107 -26l51 -23q43 -20 78 -20q31 0 54.5 18.5t31.5 36.5l8 19l121 -66q-2 -8 -7 -22.5t-22.5 -51.5t-40 -65.5t-61.5 -51t-84 -22.5q-51 0 -111 27l-51 22q-49 20 -78 21q-66 -2 -94 -70z" />
<glyph unicode="&#xf2;" horiz-adv-x="1091" d="M66 516q0 276 125.5 425t359.5 149q221 0 348 -137.5t127 -401.5q0 -276 -126 -425t-359 -149q-221 0 -348 137.5t-127 401.5zM297 1425l115 177l383 -273l-93 -135zM350 535q0 -178 43 -264.5t152 -86.5q106 0 151 82t45 266q0 178 -43 264.5t-151 86.5 q-106 0 -151.5 -82t-45.5 -266z" />
<glyph unicode="&#xf3;" horiz-adv-x="1091" d="M66 516q0 276 125.5 425t359.5 149q221 0 348 -137.5t127 -401.5q0 -276 -126 -425t-359 -149q-221 0 -348 137.5t-127 401.5zM297 1329l383 273l115 -177l-406 -231zM350 535q0 -178 43 -264.5t152 -86.5q106 0 151 82t45 266q0 178 -43 264.5t-151 86.5 q-106 0 -151.5 -82t-45.5 -266z" />
<glyph unicode="&#xf4;" horiz-adv-x="1091" d="M66 516q0 276 125.5 425t359.5 149q221 0 348 -137.5t127 -401.5q0 -276 -126 -425t-359 -149q-221 0 -348 137.5t-127 401.5zM174 1323l371 299l370 -299l-102 -129l-268 176l-271 -176zM350 535q0 -178 43 -264.5t152 -86.5q106 0 151 82t45 266q0 178 -43 264.5 t-151 86.5q-106 0 -151.5 -82t-45.5 -266z" />
<glyph unicode="&#xf5;" horiz-adv-x="1091" d="M66 516q0 276 125.5 425t359.5 149q221 0 348 -137.5t127 -401.5q0 -276 -126 -425t-359 -149q-221 0 -348 137.5t-127 401.5zM215 1307q2 8 8 22t25.5 50t42 62.5t60.5 49t79 22.5q47 0 107 -26l51 -23q43 -20 78 -20q31 0 54 18.5t32 36.5l8 19l121 -66 q-2 -8 -7.5 -22.5t-22.5 -51.5t-40 -65.5t-61.5 -51t-83.5 -22.5q-51 0 -111 27l-51 22q-49 20 -78 21q-66 -2 -94 -70zM350 535q0 -178 43 -264.5t152 -86.5q106 0 151 82t45 266q0 178 -43 264.5t-151 86.5q-106 0 -151.5 -82t-45.5 -266z" />
<glyph unicode="&#xf6;" horiz-adv-x="1091" d="M66 516q0 276 125.5 425t359.5 149q221 0 348 -137.5t127 -401.5q0 -276 -126 -425t-359 -149q-221 0 -348 137.5t-127 401.5zM197 1376.5q0 61.5 36.5 98t98.5 36.5q57 0 94 -36.5t37 -96.5q0 -61 -37 -98t-98 -37q-57 0 -94 36t-37 97.5zM350 535q0 -178 43 -264.5 t152 -86.5q106 0 151 82t45 266q0 178 -43 264.5t-151 86.5q-106 0 -151.5 -82t-45.5 -266zM629 1376.5q0 61.5 36.5 98t98.5 36.5q57 0 94 -36.5t37 -96.5q0 -61 -37 -98t-98 -37q-57 0 -94 36t-37 97.5z" />
<glyph unicode="&#xf7;" horiz-adv-x="1310" d="M47 635v176h1217v-176h-1217zM508 1147q0 68 40 107.5t107 39.5q63 0 104.5 -40t41.5 -107q0 -66 -41 -106t-104.5 -40t-105.5 40t-42 106zM508 299q0 66 41 105.5t106 39.5q63 0 104.5 -38.5t41.5 -106.5t-41 -107.5t-104.5 -39.5t-105.5 39.5t-42 107.5z" />
<glyph unicode="&#xf8;" horiz-adv-x="1091" d="M59 -98l134 213q-127 139 -127 401q0 276 125.5 425t359.5 149q127 0 219 -46l68 109h174l-121 -192q135 -141 135 -410q0 -276 -126 -425t-359 -149q-131 0 -234 50l-78 -125h-170zM350 535q0 -82 10 -158l287 479q-39 27 -100 27q-106 0 -151.5 -82t-45.5 -266z M432 215q35 -31 113 -31q106 0 151 82t45 266q0 90 -14 173z" />
<glyph unicode="&#xf9;" horiz-adv-x="1138" d="M111 367v706h280v-633q0 -51 3 -79.5t18.5 -67.5t52.5 -57.5t96 -18.5q66 0 119 40t53 122v694h281v-1063l-277 -18v139q-4 -6 -10 -16.5t-31.5 -35t-56.5 -44t-84 -35.5t-115 -16q-143 0 -229 79q-100 95 -100 304zM319 1425l115 177l383 -273l-92 -135z" />
<glyph unicode="&#xfa;" horiz-adv-x="1138" d="M111 367v706h280v-633q0 -51 3 -79.5t18.5 -67.5t52.5 -57.5t96 -18.5q66 0 119 40t53 122v694h281v-1063l-277 -18v139q-4 -6 -10 -16.5t-31.5 -35t-56.5 -44t-84 -35.5t-115 -16q-143 0 -229 79q-100 95 -100 304zM319 1329l383 273l115 -177l-405 -231z" />
<glyph unicode="&#xfb;" horiz-adv-x="1138" d="M111 367v706h280v-633q0 -51 3 -79.5t18.5 -67.5t52.5 -57.5t96 -18.5q66 0 119 40t53 122v694h281v-1063l-277 -18v139q-4 -6 -10 -16.5t-31.5 -35t-56.5 -44t-84 -35.5t-115 -16q-143 0 -229 79q-100 95 -100 304zM199 1323l370 299l371 -299l-102 -129l-269 176 l-270 -176z" />
<glyph unicode="&#xfc;" horiz-adv-x="1138" d="M111 367v706h280v-633q0 -51 3 -79.5t18.5 -67.5t52.5 -57.5t96 -18.5q66 0 119 40t53 122v694h281v-1063l-277 -18v139q-4 -6 -10 -16.5t-31.5 -35t-56.5 -44t-84 -35.5t-115 -16q-143 0 -229 79q-100 95 -100 304zM219 1376.5q0 61.5 37 98t98 36.5q57 0 94 -36.5 t37 -96.5q0 -61 -36.5 -98t-98.5 -37q-57 0 -94 36t-37 97.5zM651 1376.5q0 61.5 37 98t98 36.5q57 0 94.5 -36.5t37.5 -96.5q0 -61 -37 -98t-99 -37q-57 0 -94 36t-37 97.5z" />
<glyph unicode="&#xfd;" horiz-adv-x="970" d="M-6 1073h289l174 -594q41 -141 43 -200q16 74 49 190l172 604h262l-395 -1235q-53 -166 -146.5 -237.5t-251.5 -71.5q-55 0 -101 8t-64 17l-19 6l-10 221q63 -39 147 -39t128 32.5t71 112.5l23 72zM244 1329l383 273l114 -177l-405 -231z" />
<glyph unicode="&#xfe;" horiz-adv-x="1128" d="M125 -471v2013l281 35v-635q2 6 7 16.5t26.5 35t49 44t76.5 36t109 16.5q184 0 286.5 -136.5t102.5 -392.5q0 -580 -449 -579q-133 2 -208 75v-528h-281zM406 256q43 -63 153 -63q113 0 166 79.5t53 257.5q0 176 -50 252t-155 76q-72 0 -119.5 -43t-47.5 -127v-432z" />
<glyph unicode="&#xff;" horiz-adv-x="970" d="M-6 1073h289l174 -594q41 -141 43 -200q16 74 49 190l172 604h262l-395 -1235q-53 -166 -146.5 -237.5t-251.5 -71.5q-55 0 -101 8t-64 17l-19 6l-10 221q63 -39 147 -39t128 32.5t71 112.5l23 72zM139 1376.5q0 61.5 37 98t98 36.5q57 0 94.5 -36.5t37.5 -96.5 q0 -61 -37 -98t-99 -37q-57 0 -94 36t-37 97.5zM571 1376.5q0 61.5 37 98t99 36.5q57 0 94 -36.5t37 -96.5q0 -61 -37 -98t-99 -37q-57 0 -94 36t-37 97.5z" />
<glyph unicode="&#x152;" horiz-adv-x="1710" d="M61 694q0 371 162 569.5t467 198.5l187 -22h751v-242h-479v-342h391v-242h-391v-372h516l-10 -242h-787q-94 -23 -186 -23q-621 0 -621 717zM352 714.5q0 -272.5 80 -391t262 -118.5q51 0 93 7t59 13l16 8v973q-35 29 -162 29q-184 0 -266 -124t-82 -396.5z" />
<glyph unicode="&#x153;" horiz-adv-x="1716" d="M66 516q0 272 124.5 423t346.5 151q236 0 335 -172q121 172 351 172q86 0 155.5 -23t113.5 -55.5t75.5 -87t47 -100.5t25 -114.5t10.5 -109.5t1 -102v-33h-631q0 -127 62.5 -204t238.5 -77q178 0 281 92l6 5l-13 -226q-10 -8 -32.5 -21.5t-109.5 -35t-193 -21.5 q-283 0 -392 166q-115 -166 -350 -166q-207 0 -329.5 138.5t-122.5 400.5zM350 535q0 -178 43 -264.5t152 -86.5q106 0 151 82t45 266q0 178 -43 264.5t-151 86.5q-106 0 -151.5 -82t-45.5 -266zM1022 655h354q0 53 -5 91t-21.5 78t-52 60.5t-91.5 20.5q-184 0 -184 -250z " />
<glyph unicode="&#x178;" horiz-adv-x="1212" d="M-14 1440h321l303 -635l322 635h297l-484 -891v-549h-286v537zM258 1742.5q0 61.5 37 98.5t98 37q57 0 94 -37t37 -96q0 -61 -36.5 -98t-98.5 -37q-57 0 -94 35.5t-37 97zM690 1742.5q0 61.5 37 98.5t98 37q57 0 94 -37t37 -96q0 -61 -36.5 -98t-98.5 -37q-57 0 -94 35.5 t-37 97z" />
<glyph unicode="&#x2c6;" d="M133 1323l371 299l370 -299l-102 -129l-268 176l-271 -176z" />
<glyph unicode="&#x2dc;" d="M231 1307q2 8 8.5 22t26 50t42 62.5t60.5 49t78 22.5q47 0 107 -26l51 -23q43 -20 78 -20q31 0 54.5 18.5t31.5 36.5l8 19l121 -66q-2 -8 -7 -22.5t-22.5 -51.5t-40 -65.5t-61.5 -51t-84 -22.5q-51 0 -111 27l-51 22q-49 20 -78 21q-66 -2 -94 -70z" />
<glyph unicode="&#x2013;" d="M0 442v215h1024v-215h-1024z" />
<glyph unicode="&#x2014;" horiz-adv-x="2048" d="M0 442v215h2048v-215h-2048z" />
<glyph unicode="&#x2018;" horiz-adv-x="509" d="M72 983v78q0 123 49 273.5t110 252.5l207 -71q-86 -215 -86 -420v-113h-280z" />
<glyph unicode="&#x2019;" horiz-adv-x="509" d="M72 1044q86 215 86 420v113h280v-78q0 -123 -49 -273.5t-110 -252.5z" />
<glyph unicode="&#x201a;" horiz-adv-x="499" d="M41 -231q86 215 86 419v113h281v-78q0 -123 -49.5 -273.5t-110.5 -252.5z" />
<glyph unicode="&#x201c;" horiz-adv-x="940" d="M72 983v78q0 123 49 273.5t110 252.5l207 -71q-86 -215 -86 -420v-113h-280zM502 983v78q0 123 49 273.5t111 252.5l206 -71q-86 -215 -86 -420v-113h-280z" />
<glyph unicode="&#x201d;" horiz-adv-x="940" d="M72 1044q86 215 86 420v113h280v-78q0 -123 -49 -273.5t-110 -252.5zM502 1044q86 215 86 420v113h280v-78q0 -123 -49 -273.5t-110 -252.5z" />
<glyph unicode="&#x201e;" horiz-adv-x="929" d="M41 -231q86 215 86 419v113h281v-78q0 -123 -49.5 -273.5t-110.5 -252.5zM471 -231q86 215 86 419v113h281v-78q0 -123 -49.5 -273.5t-110.5 -252.5z" />
<glyph unicode="&#x2022;" horiz-adv-x="1163" d="M266 598q0 131 92.5 224t223.5 93q127 0 221 -93t94 -224t-93 -225t-222 -94q-131 0 -223.5 93t-92.5 226z" />
<glyph unicode="&#x2026;" horiz-adv-x="1691" d="M74 150q0 78 45 126t121 48q72 0 120 -48.5t48 -123.5q0 -80 -44.5 -129.5t-122 -49.5t-122.5 46.5t-45 130.5zM688 150q0 78 45 126t121 48q72 0 120 -48.5t48 -123.5q0 -80 -44 -129.5t-122 -49.5t-123 46.5t-45 130.5zM1284 150q0 78 45 126t121 48q72 0 120 -48.5 t48 -123.5q0 -80 -44 -129.5t-122 -49.5t-123 46.5t-45 130.5z" />
<glyph unicode="&#x2039;" horiz-adv-x="587" d="M82 516l215 408h229l-190 -406l190 -407h-229z" />
<glyph unicode="&#x203a;" horiz-adv-x="608" d="M61 111l191 405l-191 408h250l215 -406l-215 -407h-250z" />
<glyph unicode="&#x20ac;" horiz-adv-x="1136" d="M29 461l37 184h124q-2 23 -2 66q0 41 2 57h-137l37 184h115q39 209 166 342q152 162 422 162q90 0 168.5 -21.5t113.5 -41.5l35 -21v-266q-10 12 -32.5 31.5t-101.5 51.5t-169 32q-270 0 -328 -269h492l-37 -184h-469q-2 -23 -2 -63q0 -39 2 -60h446l-37 -184h-395 q29 -121 114 -186.5t222 -65.5q82 0 155.5 26.5t106.5 51.5l33 26l-12 -264q-119 -72 -326 -72q-238 0 -387 135.5t-182 348.5h-174z" />
<glyph unicode="&#x2122;" horiz-adv-x="1740" d="M61 1300v140h596v-140h-217v-667h-166v667h-213zM760 633v807h227l182 -508l25 -98q18 70 31 102l188 504h209v-807h-156v592q-16 -59 -32 -105l-187 -487h-135l-178 483l-31 98v-581h-143z" />
<glyph unicode="&#xe000;" horiz-adv-x="1075" d="M0 1075h1075v-1075h-1075v1075z" />
<glyph unicode="&#xfb01;" horiz-adv-x="1124" d="M27 874v199h110v117q0 197 126 292t329 95q418 0 418 -211q0 -141 -154 -141q-82 0 -114.5 31.5t-32.5 95.5v18q-33 8 -97 8q-137 0 -178 -92q-16 -39 -16 -94v-119h573v-1073h-282v874h-291v-874h-281v874h-110z" />
<glyph unicode="&#xfb02;" horiz-adv-x="1124" d="M27 879v194h110v117q0 184 105.5 285.5t310.5 101.5q102 0 201 -29l245 29v-1577h-280v1352q-55 23 -129 22q-96 0 -134 -48t-38 -138v-115h200v-194h-200v-879h-281v879h-110z" />
<glyph unicode="&#xfb03;" horiz-adv-x="1744" d="M27 879v194h110v117q0 188 60 272q84 115 276 115q139 0 203 -35l-12 -207q-33 35 -121 35q-72 0 -99 -41q-27 -37 -26 -141v-115h200v-194h-200v-879h-281v879h-110zM627 879v194h110v117q0 188 60 272q84 115 276 115q139 0 203 -35l-12 -207q-33 35 -121 35 q-72 0 -99 -41q-27 -37 -26 -141v-115h201v-194h-201v-879h-281v879h-110zM1311 1403q0 78 46 112.5t113 34.5q76 0 118 -36.5t42 -102.5q0 -78 -46 -112.5t-114 -34.5q-76 0 -117.5 36.5t-41.5 102.5zM1329 0v1073h283v-1073h-283z" />
<glyph unicode="&#xfb04;" horiz-adv-x="1730" d="M27 879v194h110v117q0 188 60 272q84 115 276 115q139 0 203 -35l-12 -207q-33 35 -121 35q-72 0 -99 -41q-27 -37 -26 -141v-115h200v-194h-200v-879h-281v879h-110zM627 879v194h110v117q0 188 60 272q84 115 276 115q139 0 203 -35l-12 -207q-33 35 -121 35 q-72 0 -99 -41q-27 -37 -26 -141v-115h201v-194h-201v-879h-281v879h-110zM1325 0v1544l281 33v-1577h-281z" />
</font>
</defs>
</svg>
